<?xml version="1.0" encoding="UTF-8" standalone="no"?>
<!DOCTYPE svg PUBLIC "-//W3C//DTD SVG 1.1//EN" "http://www.w3.org/Graphics/SVG/1.1/DTD/svg11.dtd">
<svg xmlns="http://www.w3.org/2000/svg" xmlns:xlink="http://www.w3.org/1999/xlink" version="1.1" width="596pt" height="842pt" viewBox="0 0 596 842">
<g enable-background="new">
<clipPath id="cp40">
<path d="M 0 0 L 595.5 0 L 595.5 842.25 L 0 842.25 Z " fill-rule="evenodd"/>
</clipPath>
<g clip-path="url(#cp40)">
<path transform="matrix(.75,0,0,.75,0,0)" d="M 0 0 L 794 0 L 794 1123 L 0 1123 Z " fill="#ffffff"/>
</g>
<clipPath id="cp41">
<path d="M 0 0 L 595.5 0 L 595.5 842.25 L 0 842.25 Z " fill-rule="evenodd"/>
</clipPath>
<g clip-path="url(#cp41)">
<text xml:space="preserve" transform="matrix(.75 0 0 .75 72 72)" font-size="14.666667" font-family="Calibri"><tspan y="14.2369799" x="48 58.47693 66.177188 69.54068 75.7381 83.438358 86.751758 97.09976 104.392108 107.705509 118.182437 121.54593 124.909427 128.27292 131.58632 136.5026 143.79494 151.4952 158.78754 165.67186 170.58113 173.89453 179.46207 184.21378 191.50612 199.13475 204.867 208.1804 215.60872 218.92212 223.68816 231.41704 234.73044 242.15876">which we will repeat steps 1 to 3.</tspan></text>
<text xml:space="preserve" transform="matrix(.75 0 0 .75 72 97.44238)" font-size="14.666667" font-family="Calibri"><tspan y="14.2369799" x="24 31.428315">5.</tspan></text>
<text xml:space="preserve" transform="matrix(.75 0 0 .75 72 97.44238)" font-size="14.666667" font-family="Calibri"><tspan y="14.2369799" x="48 54.734148 59.607454 67.336338 79.04416 82.35756 87.26683 94.96709 102.25943 105.57283 113.30171 118.41136 121.77486 128.6736 132.0371 139.73735 146.75775 150.12125 153.43465 160.45505 168.1553 175.85556 183.58444 188.31467 195.19899 199.9507 207.24304 214.9433 218.2567 223.0084 230.07874 236.4694 241.37868 245.03559 248.34899 255.36939 261.10163 264.41505 274.76307 282.05543 285.4189 288.7824 292.09584 299.1162 304.84849 308.1619 312.6346 317.5079 325.2368">From the original annotated text, as well as from</tspan></text>
<text xml:space="preserve" transform="matrix(.75 0 0 .75 72 97.44238)" font-size="14.666667" font-family="Calibri"><tspan y="14.2369799" x="340.258 347.27839 350.64189 354.00538 357.3188 362.22807 369.9283 377.22065 380.53407 393.57298 396.93647 403.59907 406.96257 414.6628 421.95515 429.6554 433.0189 440.0393 443.35273 450.42304 456.81373 461.723 466.53187 473.55226 479.74967 484.65895 490.39118 494.0481 497.3615 507.70954 515.0019 518.3153 523.2246 530.92489 538.2172 545.9175 549.2309 556.93118 564.2235 569.3331 573.4979 581.2268 586.3364">all the Wikipedia extracts, we then perform</tspan></text>
<text xml:space="preserve" transform="matrix(.75 0 0 .75 72 112.88379)" font-size="14.666667" font-family="Calibri"><tspan y="14.2369799" x="48 54.734148 62.434404 70.13466 73.64128 80.933628 87.13104 91.58913 96.07617 103.77623 111.06857 114.43207 121.31639 126.22566 129.58916 137.31804 145.0183 149.50534 159.20938 166.90964 170.41626 177.7086 183.90602 188.81529 192.1287 196.5728 203.30695 211.1216 220.82564 225.26975 228.58315 235.65348 242.04415 246.95342 251.76227 258.78266 264.98008 269.88935 273.25285 280.98173 288.68199 291.99537 299.72425 304.197 307.5104 312.41969 317.52934 320.89283 328.59309 331.95658 339.24894 344.98118">Subject-Relation-Object (SRO) extraction of triples.</tspan></text>
<text xml:space="preserve" transform="matrix(.75 0 0 .75 72 138.32617)" font-size="14.666667" font-family="Calibri"><tspan y="14.2369799" x="24 31.428315">6.</tspan></text>
<text xml:space="preserve" transform="matrix(.75 0 0 .75 72 138.32617)" font-size="14.666667" font-family="Calibri"><tspan y="14.2369799" x="48 61.03891 64.402408 69.311679 77.01193 80.32533 85.234607 92.93486 100.2272 103.5406 106.9041 110.26759 115.83513 120.7444 124.0578 131.78668 136.25942 139.57282 146.59322 149.95671 153.3202 156.6336 163.36775 171.1824 180.88645 184.19985 189.10912 194.21877 197.58226 205.28252 208.64601 215.93836 221.67061 225.32752 228.64092 238.98892 246.28127 249.59467 254.50394 262.2042 269.49653 277.19679 280.5102 286.58589 294.31477 302.015 307.58253 312.49183 317.60148 325.30174 331.49916">With the list of all SRO triples, we then construct</tspan></text>
<text xml:space="preserve" transform="matrix(.75 0 0 .75 72 138.32617)" font-size="14.666667" font-family="Calibri"><tspan y="14.2369799" x="339.7218 344.63108 352.33134 359.62367 362.93708 369.83583 374.64466 381.66505 389.3653 397.06556 400.72248 404.0359 409.76814 416.54505 423.16468 426.52818 434.22843 441.12718 444.44056 447.80406 452.71333 456.02674 459.39024 466.9544 471.72047 479.44935 482.76277 487.67204 495.37229 502.6646 505.97804 513.6783 520.5626 525.29287 532.31326 540.0135 547.0339 552.7661 560.0585 563.7583 567.0717 574.21377 581.914 585.27749">the graph, saving it into the database. This</tspan></text>
<text xml:space="preserve" transform="matrix(.75 0 0 .75 72 153.76758)" font-size="14.666667" font-family="Calibri"><tspan y="14.2369799" x="48 51.363496 57.09575 60.40915 68.109409 75.40175 80.5114 84.67618 92.40506 97.51471 109.222537 116.51488 124.21513 127.528537 135.15717 141.79113 145.10453 150.0138 154.82265 161.84305 169.5433 175.13948 179.30426 187.03314 192.14279 203.85062 207.21411 214.91437 221.81311 225.12651 230.03578 237.73604 245.02838 248.34178 254.07404 261.7743 269.47456 272.98118 280.2735 286.47093 291.3802 294.6936 301.714 309.41426 317.1145 320.42793 328.1568 335.85707 339.36369 346.656 352.85343">is performed by transforming the subject and object</tspan></text>
<text xml:space="preserve" transform="matrix(.75 0 0 .75 72 153.76758)" font-size="14.666667" font-family="Calibri"><tspan y="14.2369799" x="361.0761 364.4396 372.00379 376.76985 384.49873 387.81214 395.5124 403.24128 410.94154 418.2339 423.96614 427.27955 434.29994 442.00019 449.70045 453.01387 457.92314 465.62339 472.9157 476.22914 481.1454 488.43775 491.80125 498.68556 503.59483 506.9583 514.6872 522.38748 525.70089 529.06436 536.62857 541.3946 549.1235 552.4369">into nodes and the relation into a</tspan></text>
<text xml:space="preserve" transform="matrix(.75 0 0 .75 72 169.20899)" font-size="14.666667" font-family="Calibri"><tspan y="14.2369799" x="48 55.700258 59.06375 63.980028 71.27237 77.46979 82.2215 89.51384 97.214099 100.5275 107.81984 115.520099 122.29709 129.58943 133.28928 136.60268 145.6197 153.31996 158.42961 161.7931 169.49337 176.3921 179.7055 184.61478 192.31504 195.67853 201.41078 204.72418 212.42444 217.29775 225.02663 231.22405 238.51639 244.24864 249.9809 253.6378 256.9512 264.65147 272.3517 280.05198 283.41548 286.77897 292.8546 299.73896 304.49067 311.78303 317.51527 320.82868 327.84907 332.76533">directed edge. During this process, duplicates are</tspan></text>
<text xml:space="preserve" transform="matrix(.75 0 0 .75 72 169.20899)" font-size="14.666667" font-family="Calibri"><tspan y="14.2369799" x="343.3711 346.7346 354.43486 361.72718 369.29136 374.20063 377.56413 382.03688 385.40037 392.6927 400.39295 403.70637 410.72676 418.427 426.12727 429.44068 437.14094 444.8698 449.77909 453.09248 460.11286 467.8131 475.51338 482.80574 490.50599 493.8194 498.58546 506.31434 509.62776 514.537 522.23727 529.5296 532.843 539.74179 544.5506 551.571 559.27127 566.9715 570.8932 574.2066 581.227 584.59048 590.3227">identified and not added to the graph; also</tspan></text>
<text xml:space="preserve" transform="matrix(.75 0 0 .75 72 184.65137)" font-size="14.666667" font-family="Calibri"><tspan y="14.2369799" x="48 52.16478 59.89366 65.00331 68.31671 75.609058 82.629459 88.82687 96.52713 99.84053 106.57468 114.27493 121.97519 125.48181 132.77416 138.97158 143.88085 147.19425 154.21465 161.9149 169.61516 172.92856 182.6326 190.33286 193.83948 201.13182 207.32924 212.23851 215.55191 222.57231 225.88571 231.61797 238.91031 245.93071 250.8255 257.02293 264.72319 268.03657 271.40007 277.13233 280.44575 288.146 295.43836 300.548 304.7128 312.44169 317.55134 329.25917 336.55149">for each Subject and Object a search is performed</tspan></text>
<text xml:space="preserve" transform="matrix(.75 0 0 .75 72 184.65137)" font-size="14.666667" font-family="Calibri"><tspan y="14.2369799" x="347.56513 355.294 362.99427 366.30769 379.3466 382.71009 389.37269 392.73619 400.43644 407.72877 415.42903 418.7925 425.81294 429.46986 432.78327 437.54933 445.2782 448.5916 455.612 461.80943 467.88508 475.61396 483.3142 490.8784 495.78767 499.10108 503.26588 510.99476 516.1044 519.4178 527.11807 534.8469 540.57919 546.3114 549.6749 557.3752 560.73867">on Wikipedia, to account for possible</tspan></text>
<text xml:space="preserve" transform="matrix(.75 0 0 .75 72 200.09375)" font-size="14.666667" font-family="Calibri"><tspan y="14.2369799" x="48 55.0204 58.383897 61.74739 68.76779 74.500049 81.79239 87.52464">aliases.</tspan></text>
<text xml:space="preserve" transform="matrix(.75 0 0 .75 72 225.53516)" font-size="14.666667" font-family="Calibri"><tspan y="14.2369799" x="24 31.428315">7.</tspan></text>
<text xml:space="preserve" transform="matrix(.75 0 0 .75 72 225.53516)" font-size="14.666667" font-family="Calibri"><tspan y="14.2369799" x="48 54.734148 59.607454 67.336338 79.04416 82.35756 89.37796 92.69136 98.423618 105.200519 111.676929 118.96927 126.669528 129.98293 137.68318 144.5675 149.29773 156.31813 164.01839 171.03879 176.77104 184.06339 187.37679 190.74028 198.44054 204.00807 208.7383 215.7587 223.45896 229.65637 236.94872 240.60562 243.91902 247.28252 252.19179 255.50519 258.86869 264.60096 267.91438 272.82365 280.5239 287.81623 295.51649 298.8299 306.53016 314.25904 319.9913 325.72355 329.08705 336.7873 340.1508">From a saved database instance, it is then possible</tspan></text>
<text xml:space="preserve" transform="matrix(.75 0 0 .75 72 225.53516)" font-size="14.666667" font-family="Calibri"><tspan y="14.2369799" x="350.7565 355.52253 363.2514 366.56483 373.63514 380.02583 384.9351 389.74397 396.76435 402.96177 407.87104 411.18446 418.8847 423.758 431.48689 434.85038 442.57926 449.478 452.79139 456.97767 463.99806 470.19548 475.10475 480.83699 484.1504 489.05967 496.75993 503.64424 508.5535 511.86689 522.3438 525.7073 529.0708 532.4343 535.74777 543.448 550.74038 554.0538 559.786 566.5629 573.0393 580.33169">to extract prolog facts that will be saved</tspan></text>
<text xml:space="preserve" transform="matrix(.75 0 0 .75 72 240.97657)" font-size="14.666667" font-family="Calibri"><tspan y="14.2369799" x="48 55.72888 63.42914 66.74254 73.76294 77.07634 81.54907 84.91257 88.27606 95.568408 98.881809 105.90221 113.60246 121.30272 124.61612 132.31638 138.04863 145.34098 153.04123 156.35463 160.51941 168.24829 173.35794 176.67134 181.58061 189.28087 196.57321 199.88661 207.58667 214.87902 221.89942 227.63167 235.36055 243.0608 246.4243 254.12456 261.02333 264.33674 272.037 279.05738 284.16703 289.0763 292.3897 300.1186 304.59135 307.90476 312.81404 320.51429 327.8066 331.12004 338.82029 343.69358 351.42247 354.92909 362.2214 368.41883 373.3281">on a file and used for the Reasoning part of the project.</tspan></text>
<text xml:space="preserve" transform="matrix(.75 0 0 .75 72 240.97657)" font-size="14.666667" font-family="Calibri"><tspan y="14.2369799" x="380.3413 388.8216 392.135 396.3213 403.34169 409.5391 414.44837 417.76179 421.12528 426.85755 430.17097 436.24665 443.97554 455.68336 463.3836 471.1125 476.84474 484.1371 491.83735 495.15077 502.7794 509.41334 512.72677 517.636 525.33627 532.6286 535.942 543.6423 548.55856 555.8509 563.55117 566.9147 572.99038 579.8747 584.6264">A fact is composed by the predicate</tspan></text>
<text xml:space="preserve" transform="matrix(.75 0 0 .75 72 256.41896)" font-size="14.666667" font-family="Calibri"><tspan y="14.2369799" x="48 58.47693 66.177188 69.54068 75.7381 83.438358 86.751758 97.22868 100.59218 103.95567 107.31917 110.63257 118.332828 125.62517 128.93857 136.66745 144.30324 149.03347 156.05387 159.41736 167.11762 174.40996 182.11022 185.42362 193.05225 199.6862 202.9996 207.90888 215.60913 222.90148 226.21488 233.50722 241.20748 247.98447 255.27681 258.5902 265.6106 273.31086 281.0111 284.32453 289.2338 299.57466 307.30354 310.61695 317.50129 322.26734 329.99623 341.70405 347.43629 350.7497 355.65898 363.35923 370.24354">which will be obtained by the edge and two atoms that</tspan></text>
<text xml:space="preserve" transform="matrix(.75 0 0 .75 72 256.41896)" font-size="14.666667" font-family="Calibri"><tspan y="14.2369799" x="378.4662 388.9431 392.3066 395.6701 399.0336 402.347 410.04725 417.3396 420.653 428.3819 436.0177 440.74794 447.7683 451.1318 458.83207 466.1244 473.82466 477.13807 484.7667 491.40065 494.71406 499.62333 507.32359 514.6159 517.9293 525.6296 533.35848 541.0587 548.3511 554.0833">will be obtained by the nodes.</tspan></text>
<text xml:space="preserve" transform="matrix(.75 0 0 .75 72 281.86134)" font-size="14.666667" font-family="Calibri"><tspan y="14.2369799" x="24 31.428315">8.</tspan></text>
<text xml:space="preserve" transform="matrix(.75 0 0 .75 72 281.86134)" font-size="14.666667" font-family="Calibri"><tspan y="14.2369799" x="48 54.734148 58.09764 65.7979 72.8183 76.18179 79.54529 85.13367 88.79057 92.10397 96.576709 101.45001 109.178897 120.88672 124.20012 129.10939 136.80965 144.10199 147.41539 151.60166 158.62206 164.81948 169.72875 175.461 178.7744 185.84473 192.2354 197.14467 201.95352 208.97393 215.17134 219.92305 227.2154 234.91565 238.22905 241.59255 246.50182 249.81522 253.17871 258.91096 262.22438 269.92463 277.6535 283.38575 289.11799 292.48149 300.18174 303.54524 310.83757 314.15098 318.91703">Finally, from the facts extracted it is possible to</tspan></text>
<text xml:space="preserve" transform="matrix(.75 0 0 .75 72 281.86134)" font-size="14.666667" font-family="Calibri"><tspan y="14.2369799" x="329.95933 333.3228 340.3432 348.04347 355.7437 361.94114 369.6414 372.95478 379.97517 383.28858 390.86003 395.73335 403.46223 406.8257 414.5546 421.45335 424.76673 432.46699 437.34028 445.06916 451.9679 456.77674 463.79713 475.50495 478.81837 483.72764 491.4279 498.3122 503.22148 506.53486 512.61056 519.6309 527.3312 530.6446 534.00808 541.57229 546.324 553.61636 558.4252 565.44558 571.64297">launch a Prolog program that can interact</tspan></text>
<text xml:space="preserve" transform="matrix(.75 0 0 .75 72 297.30274)" font-size="14.666667" font-family="Calibri"><tspan y="14.2369799" x="48 58.47693 61.840425 66.749698 74.44995 77.76335 82.67262 90.37288 97.66522 100.97862 108.67888 114.41113 121.703479 126.813129 130.12653 133.49002 141.19028 144.50368 152.23256 157.14168 164.84194 172.13428 177.24393 180.55733 185.32337 193.05225 196.36565 204.0659 207.4294 213.16165 220.86191 224.2254 230.97367 237.60762 240.92102 245.83029 253.53055 260.82289 264.1363 270.7989 278.49916 286.17073 296.64765 300.01115 307.30348 315.00373 321.7807 329.07307 332.38648 335.74998 343.0423 350.06269 355.17234 362.8726 370.16493">with the user in order to display the knowledge learned</tspan></text>
<text xml:space="preserve" transform="matrix(.75 0 0 .75 72 297.30274)" font-size="14.666667" font-family="Calibri"><tspan y="14.2369799" x="381.17863 385.65138 390.52467 398.25355 409.96138 413.27479 418.18406 425.8843 433.17665 436.49006 441.24177 448.31208 454.70277 459.61204">from the text.</tspan></text>
<text fill="#666666" xml:space="preserve" transform="matrix(.75 0 0 .75 72 322.74415)" font-size="22.666666" font-family="Calibri"><tspan y="32.66927" x="0 14.624786 24.149704 35.85396 41.916276 47.03827 60.977174 71.61931 78.931568 89.784 94.90599 105.31592 110.51535 122.374439">NLP: Data Flow</tspan></text>
<text xml:space="preserve" transform="matrix(.75 0 0 .75 72 360.60939)" font-size="14.666667" font-family="Calibri"><tspan y="14.2369799" x="0 3.692688 11.392944 14.706345 19.615616 27.315873 30.679368 36.41162 39.72502 45.457277 52.74962 58.947038 63.856309 67.2198 74.948688 82.64894 86.30585 89.61925 99.967258 107.2596 110.573 121.04993 124.41342 127.77692 131.14041 134.45381 137.8173 141.1808 144.5443 152.24456 157.81209 162.72136 167.53022 174.41454 179.16625 186.45859 189.77199 197.47225 205.14383 215.62076 218.93416 223.84343 231.54369 238.83603 242.14943 249.84969 253.21318 260.91346 268.2058 271.5693 274.9328 282.63307">In this section, we will illustrate how the pipeline</tspan></text>
<text xml:space="preserve" transform="matrix(.75 0 0 .75 72 360.60939)" font-size="14.666667" font-family="Calibri"><tspan y="14.2369799" x="293.23878 303.57963 311.3085 316.41816 322.94465 328.67689 332.3338 335.64723 343.27586 349.9098 353.2232 360.92347 366.6557 370.0192 377.71946 384.6182 387.93159 394.95198 402.65223 405.96565 413.03596 418.99693 426.28926 432.48667 440.18693 445.0962 448.4597 456.18858 463.88883 467.2022 474.27253 480.35523 487.3756 499.08345 506.7837 510.1472 517.4395 521.13937 524.45278 532.2675 539.9964 547.69668 553.4289 556.79238 564.4926 571.785 576.89468 580.208 585.1173 592.81759">works, by using an execution example. Consider the</tspan></text>
<text xml:space="preserve" transform="matrix(.75 0 0 .75 72 376.05079)" font-size="14.666667" font-family="Calibri"><tspan y="14.2369799" x="0 4.1647799 11.8936619 15.257156 18.620652 26.292237 36.769166 40.13266 47.832918 54.73166 58.04506 61.408555 69.10881 76.80907 84.50932 89.418598 92.731998 97.4837 104.55403 110.9447 115.85397 119.51088 122.82428 126.187778 133.88803 137.20143 144.90169 151.78601 156.69528 164.39554 169.20439 176.2248 179.58829 182.90169 186.26519 193.28559 200.98584 207.88459 215.58484 222.60524 229.38224 236.67458">following input text, in natural language:</tspan></text>
</g>
<clipPath id="cp42">
<path d="M 92.25 402.24317 L 522.75 402.24317 L 522.75 516.9619 L 92.25 516.9619 Z " fill-rule="evenodd"/>
</clipPath>
<g clip-path="url(#cp42)">
<text xml:space="preserve" transform="matrix(.75 0 0 .75 96.75 407.49317)" font-size="13.333333" font-family="CourierNew" font-style="italic"><tspan y="11.100261" x="0 7.998184 15.996368 23.994553 31.992737 39.99092 47.989107 55.98729 63.985475 71.98366 79.98184 87.98003 95.97821 103.976398 111.97458 119.97276 127.97095 135.96913 143.96732 151.9655 159.96369 167.96187 175.96006 183.95824 191.95642 199.9546 207.95279 215.95098 223.94916 231.94734 239.94553 247.94371 255.9419 263.94007 271.93824 279.9364 287.93458 295.93275 303.9309 311.92909 319.92726 327.9254 335.92359 343.92176 351.91993 359.9181 367.91627 375.91444 383.9126 391.91078">William Henry Gates III (born October 28, 1955) is</tspan></text>
<text xml:space="preserve" transform="matrix(.75 0 0 .75 96.75 407.49317)" font-size="13.333333" font-family="CourierNew" font-style="italic"><tspan y="11.100261" x="407.9074 415.90559 423.90376 431.90193 439.9001 447.89826 455.89643 463.8946 471.89277 479.89094 487.8891">an American</tspan></text>
<text xml:space="preserve" transform="matrix(.75 0 0 .75 96.75 420.5205)" font-size="13.333333" font-family="CourierNew" font-style="italic"><tspan y="11.100261" x="0 7.998184 15.996368 23.994553 31.992737 39.99092 47.989107 55.98729 63.985475 71.98366 79.98184 87.98003 95.97821 103.976398 111.97458 119.97276 127.97095 135.96913 143.96732 151.9655 159.96369 167.96187 175.96006 183.95824 191.95642 199.9546 207.95279 215.95098 223.94916 231.94734 239.94553 247.94371 255.9419 263.94007 271.93824 279.9364 287.93458 295.93275 303.9309 311.92909 319.92726 327.9254 335.92359 343.92176 351.91993 359.9181 367.91627 375.91444 383.9126 391.91078 399.90895 407.9071 415.90528 423.90345 431.9016 439.89979 447.89796">business magnate, software developer, and philanthropist.</tspan></text>
<text xml:space="preserve" transform="matrix(.75 0 0 .75 96.75 420.5205)" font-size="13.333333" font-family="CourierNew" font-style="italic"><tspan y="11.100261" x="463.89469 471.89289 479.89106 487.88923 495.8874 503.88557 511.88374 519.8819 527.88009 535.87826">He is best</tspan></text>
<text xml:space="preserve" transform="matrix(.75 0 0 .75 96.75 433.54786)" font-size="13.333333" font-family="CourierNew" font-style="italic"><tspan y="11.100261" x="0 7.998184 15.996368 23.994553 31.992737 39.99092 47.989107 55.98729 63.985475 71.98366 79.98184 87.98003 95.97821 103.976398 111.97458 119.97276 127.97095 135.96913 143.96732 151.9655 159.96369 167.96187 175.96006 183.95824 191.95642 199.9546 207.95279 215.95098 223.94916 231.94734 239.94553 247.94371 255.9419 263.94007 271.93824 279.9364 287.93458 295.93275 303.9309 311.92909 319.92726 327.9254 335.92359 343.92176 351.91993 359.9181 367.91627 375.91444 383.9126">known as the co-founder of Microsoft Corporation.</tspan></text>
<text xml:space="preserve" transform="matrix(.75 0 0 .75 96.75 433.54786)" font-size="13.333333" font-family="CourierNew" font-style="italic"><tspan y="11.100261" x="399.9092 407.9074 415.90559 423.90376 431.90193 439.9001 447.89826 455.89643 463.8946 471.89277 479.89094 487.8891 495.88728 503.88545 511.8836 519.8818 527.87997 535.8781 543.8763 551.87448">During his career at</tspan></text>
<text xml:space="preserve" transform="matrix(.75 0 0 .75 96.75 446.5752)" font-size="13.333333" font-family="CourierNew" font-style="italic"><tspan y="11.100261" x="0 7.998184 15.996368 23.994553 31.992737 39.99092 47.989107 55.98729 63.985475 71.98366 79.98184 87.98003 95.97821 103.976398 111.97458 119.97276 127.97095 135.96913 143.96732 151.9655 159.96369 167.96187 175.96006 183.95824 191.95642 199.9546 207.95279 215.95098 223.94916 231.94734 239.94553 247.94371 255.9419 263.94007 271.93824 279.9364 287.93458 295.93275 303.9309 311.92909 319.92726 327.9254 335.92359 343.92176 351.91993 359.9181 367.91627 375.91444 383.9126 391.91078 399.90895 407.9071 415.90528 423.90345">Microsoft, Gates held the positions of chairman, chief</tspan></text>
<text xml:space="preserve" transform="matrix(.75 0 0 .75 96.75 446.5752)" font-size="13.333333" font-family="CourierNew" font-style="italic"><tspan y="11.100261" x="439.90016 447.89833 455.89649 463.89466 471.89283 479.891 487.88917 495.88734 503.8855">executive</tspan></text>
<text xml:space="preserve" transform="matrix(.75 0 0 .75 96.75 459.60255)" font-size="13.333333" font-family="CourierNew" font-style="italic"><tspan y="11.100261" x="0 7.998184 15.996368 23.994553 31.992737 39.99092 47.989107 55.98729 63.985475 71.98366 79.98184 87.98003 95.97821 103.976398 111.97458 119.97276 127.97095 135.96913 143.96732 151.9655 159.96369 167.96187 175.96006 183.95824 191.95642 199.9546 207.95279 215.95098 223.94916 231.94734 239.94553 247.94371 255.9419 263.94007 271.93824 279.9364 287.93458 295.93275 303.9309 311.92909 319.92726 327.9254 335.92359 343.92176 351.91993 359.9181 367.91627 375.91444 383.9126 391.91078 399.90895 407.9071 415.90528 423.90345">officer (CEO), president and chief software architect,</tspan></text>
<text xml:space="preserve" transform="matrix(.75 0 0 .75 96.75 459.60255)" font-size="13.333333" font-family="CourierNew" font-style="italic"><tspan y="11.100261" x="439.90016 447.89833 455.89649 463.89466 471.89283 479.891 487.88917 495.88734 503.8855 511.88368">while also</tspan></text>
<text xml:space="preserve" transform="matrix(.75 0 0 .75 96.75 472.62989)" font-size="13.333333" font-family="CourierNew" font-style="italic"><tspan y="11.100261" x="0 7.998184 15.996368 23.994553 31.992737 39.99092 47.989107 55.98729 63.985475 71.98366 79.98184 87.98003 95.97821 103.976398 111.97458 119.97276 127.97095 135.96913 143.96732 151.9655 159.96369 167.96187 175.96006 183.95824 191.95642 199.9546 207.95279 215.95098 223.94916 231.94734 239.94553 247.94371 255.9419 263.94007 271.93824 279.9364 287.93458 295.93275 303.9309 311.92909 319.92726 327.9254 335.92359 343.92176 351.91993 359.9181 367.91627 375.91444 383.9126 391.91078">being the largest individual shareholder until May</tspan></text>
<text xml:space="preserve" transform="matrix(.75 0 0 .75 96.75 472.62989)" font-size="13.333333" font-family="CourierNew" font-style="italic"><tspan y="11.100261" x="407.9074 415.90559 423.90376 431.90193 439.9001 447.89826 455.89643 463.8946 471.89277 479.89094 487.8891 495.88728 503.88545 511.8836 519.8818 527.87997 535.8781 543.8763">2014. He is one of</tspan></text>
<text xml:space="preserve" transform="matrix(.75 0 0 .75 96.75 485.65724)" font-size="13.333333" font-family="CourierNew" font-style="italic"><tspan y="11.100261" x="0 7.998184 15.996368 23.994553 31.992737 39.99092 47.989107 55.98729 63.985475 71.98366 79.98184 87.98003 95.97821 103.976398 111.97458 119.97276 127.97095 135.96913 143.96732 151.9655 159.96369 167.96187 175.96006 183.95824 191.95642 199.9546 207.95279 215.95098 223.94916 231.94734 239.94553 247.94371 255.9419 263.94007 271.93824 279.9364 287.93458 295.93275 303.9309 311.92909 319.92726 327.9254 335.92359 343.92176 351.91993 359.9181 367.91627 375.91444 383.9126 391.91078 399.90895 407.9071 415.90528 423.90345 431.9016 439.89979 447.89796 455.89613 463.8943 471.89247 479.89064 487.8888">the best-known entrepreneurs and pioneers of the microcomputer</tspan></text>
<text xml:space="preserve" transform="matrix(.75 0 0 .75 96.75 498.68458)" font-size="13.333333" font-family="CourierNew" font-style="italic"><tspan y="11.100261" x="0 7.998184 15.996368 23.994553 31.992737 39.99092 47.989107 55.98729 63.985475 71.98366 79.98184 87.98003 95.97821 103.976398 111.97458 119.97276 127.97095 135.96913 143.96732 151.9655 159.96369 167.96187 175.96006 183.95824 191.95642 199.9546 207.95279 215.95098 223.94916 231.94734 239.94553 247.94371 255.9419 263.94007">revolution of the 1970s and 1980s.</tspan></text>
</g>
<clipPath id="cp43">
<path d="M 0 0 L 595.5 0 L 595.5 842.25 L 0 842.25 Z " fill-rule="evenodd"/>
</clipPath>
<g clip-path="url(#cp43)">
<text xml:space="preserve" transform="matrix(.75 0 0 .75 72 543.1543)" font-size="14.666667" font-family="Calibri"><tspan y="14.2369799" x="0 12.501785 19.794129 23.107529 33.584459 36.947954 40.311449 43.674943 46.988344 54.6886 62.360185 72.83711 76.15051 81.88277 89.17511 96.46745 99.78085 107.48111 115.152698 125.62962 128.94303 133.8523 141.55255 148.8449 152.1583 156.91 163.98033 170.371 175.28028 178.59368 181.95717 187.68943 191.00283 195.9121 200.72095 207.74135 215.4416 221.03778 225.20256 232.93144 238.04109 249.74892 257.04127 264.74153 268.05494 275.68354 282.3175 285.63093 290.5402 298.24046">We will now see how the text is transformed by the</tspan></text>
<text xml:space="preserve" transform="matrix(.75 0 0 .75 72 543.1543)" font-size="14.666667" font-family="Calibri"><tspan y="14.2369799" x="308.8462 315.9165 321.87748 329.1698 335.36723 343.06748 347.97676 351.34025 359.06913 366.76939 370.08277 377.81166 382.28437 385.59779 392.61817 395.98167 399.34516 402.65858 407.56785 415.2681 422.56044 425.87385 431.44139 436.19309 443.4854 451.11405 456.8463 460.50325 463.81666 471.5169 479.0811 483.99037 487.35386 490.71736 494.03077 501.75965 509.39546 514.1257 521.14608 524.5095 532.2098 535.57327 543.2735 550.17227 553.48568 558.3949 566.09518 573.3875 576.7009 583.43508 591.2497">execution of all the steps, until obtaining the SRO</tspan></text>
<text xml:space="preserve" transform="matrix(.75 0 0 .75 72 558.5957)" font-size="14.666667" font-family="Calibri"><tspan y="14.2369799" x="0 4.9092714 10.018921 13.382416 21.082673 24.446167 31.73851 37.470766 40.784166 45.693437 53.393693 60.278017 65.18729 68.50069 78.977619 82.34111 85.704608 89.0681 92.3815 100.08176 107.3741 110.6875 114.85228 122.58116 127.69081 139.39864 146.41904 149.78253 153.14603 158.6061 165.89844 173.5987 176.9121 180.27559 187.83977 192.6058 200.33469 203.64809 208.55736 216.25762 223.54996 226.86336 233.52594 241.2262 248.89778 259.3747 262.7382 270.03053 277.73078 284.50776">triples that will be formalized into the knowledge</tspan></text>
<text xml:space="preserve" transform="matrix(.75 0 0 .75 72 558.5957)" font-size="14.666667" font-family="Calibri"><tspan y="14.2369799" x="295.11354 302.01228 306.8211 313.8415 321.54176 329.242 332.94184 336.25526 339.94795 347.6482 350.9616 355.87089 363.57115 370.86347 374.17689 381.87715 388.94746 395.33815 400.2474 403.5608 409.29304 416.5854 422.7828 427.69209 431.05558 438.78446 446.4847 450.1416 453.45503 463.80305 471.0954 474.4088 484.88575 488.24925 491.61274 494.97624 498.2896 505.98988 513.1533 517.62606 520.9895 528.68978 535.9821 539.29556 544.20486 551.9051">graph. In the next section, we will define the</tspan></text>
<text xml:space="preserve" transform="matrix(.75 0 0 .75 72 574.0381)" font-size="14.666667" font-family="Calibri"><tspan y="14.2369799" x="0 6.0756685 13.80455 21.504807 27.702225 34.994569 42.630357 47.539628 55.239885 62.260286 65.62378 68.987277 74.53328 81.4176 86.32687 89.69037 97.41925 105.11951 108.43291 118.780918 126.07326 129.38666 137.08692 142.81917 150.11151 157.81177 161.12517 165.8912 173.62009 176.93349 181.84976 189.1421 196.84236 201.75864 209.05098 214.78324 222.07558 229.63976 234.54903 237.86243 242.7717 250.47196 257.76429 261.0777 268.148 274.5387 279.44798 284.25685 291.27723 297.47465 302.22633 309.51869">conceptualization we used to represent the extracted</tspan></text>
<text xml:space="preserve" transform="matrix(.75 0 0 .75 72 574.0381)" font-size="14.666667" font-family="Calibri"><tspan y="14.2369799" x="320.53236 323.89585 331.51014 335.67494 343.4038 348.51347 360.22129 367.1056 372.01487 375.37837 383.10725 390.8075 394.1209 401.82118 409.55006 414.45933 422.15959 425.47297 428.83647 436.5367 439.8501 444.75938 452.45964 459.75196 463.06538 469.9641 474.77296 481.79335 489.4936 497.19386 500.50727 507.52766 515.2279 522.92819 526.2416 529.6051 537.30538 540.6188 545.5281 553.22836">information both in the graph and in the</tspan></text>
<text xml:space="preserve" transform="matrix(.75 0 0 .75 72 589.4795)" font-size="14.666667" font-family="Calibri"><tspan y="14.2369799" x="0 6.6625826 14.362839 22.034424 32.511354 35.874849 43.16719 50.867448 57.64444 64.93678 68.25018 75.95044 82.97084 88.703098 95.99544">knowledge base.</tspan></text>
<text fill="#666666" xml:space="preserve" transform="matrix(.75 0 0 .75 72 614.9219)" font-size="17.333334" font-family="Calibri" font-style="italic"><tspan y="24.825522" x="0 9.053268 17.945786 23.885407 32.143327 37.160615 45.43547 51.37509 59.64995 68.55939 75.65813 83.93298 87.85043 96.95438 105.22923 111.97266 120.86517 124.84184 133.75128 139.55553 143.5322 152.42472">Coreference Resolution</tspan></text>
<text xml:space="preserve" transform="matrix(.75 0 0 .75 72 643.1709)" font-size="14.666667" font-family="Calibri"><tspan y="14.2369799" x="0 8.480301 12.953033 17.704743 24.997086 30.106736 33.420137 38.329408 46.029664 53.322008 56.635408 62.711076 70.43996 75.35623 82.51965 86.62714 93.91948 98.835758 106.1281 113.828357 120.02577 127.318119 130.63152 135.54779 142.84014 148.57239 156.30127 159.66477 167.36502 172.27429 175.63779 183.36667 191.06693 194.38033 202.08058 206.95389 214.68277 220.88019 228.17253 233.90479 239.63704 243.29395 246.60735 256.95536 264.24769 267.5611 273.63679 280.65718 288.35743 291.67085 297.40309 304.69544">After the coreference resolution process, we can see</tspan></text>
<text xml:space="preserve" transform="matrix(.75 0 0 .75 72 643.1709)" font-size="14.666667" font-family="Calibri"><tspan y="14.2369799" x="315.30116 320.21043 327.91069 334.79499 339.70426 343.01765 346.38114 354.0814 357.39479 362.30406 370.0043 377.29664 380.61006 385.36177 392.43208 398.82276 403.73204 407.0454 414.74568 422.03804 425.40153 433.07313 442.2896 445.94654 449.25996 456.28034 459.64384 463.00733 466.32075 474.021 478.8943 486.62318 494.32344 502.0523 509.75257 517.4528 523.18508 526.4985 533.79086 537.6482 544.54696 548.24679 551.9037 555.2171 561.3501 570.4816 577.774 582.489">that in the text below, all pronouns e.g., &#x201c;He&#x201d;,</tspan></text>
<text xml:space="preserve" transform="matrix(.75 0 0 .75 72 658.6133)" font-size="14.666667" font-family="Calibri"><tspan y="14.2369799" x="0 6.133011 15.264542 18.628037 24.36029 29.075318 32.732225 36.045625 43.74588 50.52278 56.99919 64.291538 67.604938 75.30519 82.597537 89.88988 97.59013 100.903537 105.81981 113.11215 120.81241 124.1759 131.1963 137.39373 144.68607 152.38632 155.69972 163.32836 169.96231 173.27571 179.1509 188.39693 195.28125 200.03296 207.3253 213.05756 219.19057 222.50397 232.9809 240.68115 244.04465 250.24207 257.94233 261.25575 271.56794 278.58836 284.32063 287.63404 292.5433 300.24357">&#x201c;His&#x201d;, have been replaced by &#x201c;Gates&#x201d; which was the</tspan></text>
<text xml:space="preserve" transform="matrix(.75 0 0 .75 72 658.6133)" font-size="14.666667" font-family="Calibri"><tspan y="14.2369799" x="310.84925 314.21275 325.92057 333.62083 336.9843 340.3478 346.54524 349.90873 354.818 358.1314 363.86366 371.5639 379.26417 382.77079 390.0631 396.26054 401.1698 404.48323 412.2121 416.6848 419.99824 424.9075 432.60777 439.9001 443.2135 448.94575 456.2381 463.80229 468.554 475.8463 483.54658 489.744 497.03633 500.73616 504.04957 507.74226 515.4425 518.7559 523.66519 531.3654 534.7289 540.4611 543.77456 549.8502 556.8706 562.60287 569.89517 573.55209 576.8655 581.7748 589.47506">implicit subject of the sentence. In this case, the</tspan></text>
<text xml:space="preserve" transform="matrix(.75 0 0 .75 72 674.0547)" font-size="14.666667" font-family="Calibri"><tspan y="14.2369799" x="0 7.020401 10.383896 17.182374 24.911255 30.020905 33.3844 38.29367 45.993928 57.70175 61.015153 66.747409 74.44766 82.176548 89.8768 93.240299 100.94055 104.25395 111.95421 118.73111 125.20752 132.49987 135.81327 140.72954 148.02188 155.72214 159.08563 166.10604 172.30345 179.5958 187.29605 190.60945 195.51873 203.21898 210.51132 213.82472 221.52498 226.39829 234.12717 241.82743 249.5563 257.25657 264.95683 270.6891 274.0025 284.47944 287.84294 292.7522 300.45246 303.76588 309.97053 323.0094 326.3729 329.7364 333.09989 336.46339 343.48377">algorithm should have replaced the pronouns with &#x201c;William</tspan></text>
<text xml:space="preserve" transform="matrix(.75 0 0 .75 72 674.0547)" font-size="14.666667" font-family="Calibri"><tspan y="14.2369799" x="358.50495 367.63648 374.92884 382.6291 387.81037 394.44435 397.75776 407.00379 413.88813 418.63984 425.9322 431.66444 434.97785 438.67054 442.36323 446.0559 450.77095 454.42787 457.74128 465.44154 473.14179 478.05107 481.36445 486.2737 493.97398 497.33747 503.0697 506.38313 509.7466 515.4789 518.7923 525.8127 529.1261 532.4896 535.85317 547.561 550.92446 555.65469 562.539 567.44827 570.81179 578.54067">Henry Gates III&#x201d;, but this is a limitation</tspan></text>
<text xml:space="preserve" transform="matrix(.75 0 0 .75 72 689.4971)" font-size="14.666667" font-family="Calibri"><tspan y="14.2369799" x="0 7.728882 12.201614 15.515015 20.424286 28.124543 35.416887 38.730287 45.46443 50.194658 57.215059 64.82936 68.99414 76.72302 81.63214 89.3324 92.6458 102.10652 108.26816 115.8396 119.153 122.516498 125.87999 133.58025 138.3891 145.4095 150.59076 157.22472 160.53812 172.24594 179.4595 184.36878 192.06903 199.79792 207.49817 210.81157 215.5776 223.30649 226.61989 234.32015 237.68364 243.4159 249.49156 257.15599 263.6324 270.9247 276.03437 279.34779 285.42347 293.15235 298.0686 305.23204 309.3395 316.63185 321.5481 328.84046 336.5407 342.73814">of the Stanford NLP library method to discover coreference</tspan></text>
<text xml:space="preserve" transform="matrix(.75 0 0 .75 72 689.4971)" font-size="14.666667" font-family="Calibri"><tspan y="14.2369799" x="353.34388 359.5413 367.24156 374.26197 377.62547 385.3257 391.05799">chains.</tspan></text>
</g>
<clipPath id="cp44">
<path d="M 92.25 715.6885 L 522.75 715.6885 L 522.75 765.2705 L 92.25 765.2705 Z " fill-rule="evenodd"/>
</clipPath>
<g clip-path="url(#cp44)">
<text xml:space="preserve" transform="matrix(.75 0 0 .75 96.75 720.9385)" font-size="13.333333" font-family="CourierNew" font-style="italic"><tspan y="11.100261" x="0 7.998184 15.996368 23.994553 31.992737 39.99092 47.989107 55.98729 63.985475 71.98366 79.98184 87.98003 95.97821">William Henry</tspan></text>
<text xml:space="preserve" transform="matrix(.75 0 0 .75 96.75 720.9385)" font-size="13.333333" font-family="CourierNew" font-style="italic"><tspan y="11.100261" x="111.97458 119.97276 127.97095 135.96913 143.96732">Gates</tspan></text>
<text xml:space="preserve" transform="matrix(.75 0 0 .75 96.75 720.9385)" font-size="13.333333" font-family="CourierNew" font-style="italic"><tspan y="11.100261" x="159.96369 167.96187 175.96006 183.95824 191.95642 199.9546 207.95279 215.95098 223.94916 231.94734 239.94553 247.94371 255.9419 263.94007 271.93824 279.9364 287.93458 295.93275 303.9309 311.92909 319.92726 327.9254 335.92359 343.92176 351.91993 359.9181 367.91627 375.91444 383.9126 391.91078">III ( born October 28 , 1955 )</tspan></text>
<text xml:space="preserve" transform="matrix(.75 0 0 .75 96.75 720.9385)" font-size="13.333333" font-family="CourierNew" font-style="italic"><tspan y="11.100261" x="407.9074 415.90559 423.90376 431.90193 439.9001 447.89826 455.89643 463.8946 471.89277 479.89094 487.8891 495.88728 503.88545 511.8836">is an American</tspan></text>
<text xml:space="preserve" transform="matrix(.75 0 0 .75 96.75 733.9658)" font-size="13.333333" font-family="CourierNew" font-style="italic"><tspan y="11.100261" x="0 7.998184 15.996368 23.994553 31.992737 39.99092 47.989107 55.98729 63.985475 71.98366 79.98184 87.98003 95.97821 103.976398 111.97458 119.97276 127.97095 135.96913 143.96732 151.9655 159.96369 167.96187 175.96006 183.95824 191.95642 199.9546 207.95279 215.95098 223.94916 231.94734 239.94553 247.94371 255.9419 263.94007 271.93824 279.9364 287.93458 295.93275 303.9309 311.92909 319.92726 327.9254 335.92359 343.92176 351.91993 359.9181 367.91627 375.91444 383.9126 391.91078 399.90895 407.9071 415.90528 423.90345 431.9016 439.89979 447.89796 455.89613">business magnate , software developer , and philanthropist</tspan></text>
<text xml:space="preserve" transform="matrix(.75 0 0 .75 96.75 733.9658)" font-size="13.333333" font-family="CourierNew" font-style="italic"><tspan y="11.100261" x="471.89289">.</tspan></text>
<text xml:space="preserve" transform="matrix(.75 0 0 .75 96.75 733.9658)" font-size="13.333333" font-family="CourierNew" font-style="italic"><tspan y="11.100261" x="487.88923 495.8874 503.88557 511.88374 519.8819">Gates</tspan></text>
<text xml:space="preserve" transform="matrix(.75 0 0 .75 96.75 733.9658)" font-size="13.333333" font-family="CourierNew" font-style="italic"><tspan y="11.100261" x="535.87838 543.8765">is</tspan></text>
<text xml:space="preserve" transform="matrix(.75 0 0 .75 96.75 746.99319)" font-size="13.333333" font-family="CourierNew" font-style="italic"><tspan y="11.100261" x="0 7.998184 15.996368 23.994553 31.992737 39.99092 47.989107 55.98729 63.985475 71.98366 79.98184 87.98003 95.97821 103.976398 111.97458 119.97276 127.97095 135.96913 143.96732 151.9655 159.96369 167.96187 175.96006 183.95824 191.95642 199.9546 207.95279 215.95098 223.94916 231.94734 239.94553 247.94371 255.9419 263.94007 271.93824 279.9364 287.93458 295.93275 303.9309 311.92909 319.92726 327.9254 335.92359 343.92176 351.91993 359.9181 367.91627 375.91444 383.9126">best known as co-founder of Microsoft Corporation</tspan></text>
<text xml:space="preserve" transform="matrix(.75 0 0 .75 96.75 746.99319)" font-size="13.333333" font-family="CourierNew" font-style="italic"><tspan y="11.100261" x="399.9092 407.9074 415.90559 423.90376 431.90193 439.9001 447.89826 455.89643">. During</tspan></text>
<text xml:space="preserve" transform="matrix(.75 0 0 .75 96.75 746.99319)" font-size="13.333333" font-family="CourierNew" font-style="italic"><tspan y="11.100261" x="471.89289 479.89106 487.88923 495.8874 503.88557">Gates</tspan></text>
</g>
<clipPath id="cp45">
<path d="M 92.25 715.6885 L 522.75 715.6885 L 522.75 765.2705 L 92.25 765.2705 Z " fill-rule="evenodd"/>
</clipPath>
<g clip-path="url(#cp45)">
<path transform="matrix(.75,0,0,.75,96.75,720.9385)" stroke-width="1.3333334" stroke-linecap="butt" stroke-miterlimit="10" stroke-linejoin="miter" fill="none" stroke="#000000" d="M 112.333339 12.748698 L 152.33333 12.748698 "/>
<path transform="matrix(.75,0,0,.75,96.75,733.9658)" stroke-width="1.3333334" stroke-linecap="butt" stroke-miterlimit="10" stroke-linejoin="miter" fill="none" stroke="#000000" d="M 488.33335 12.712239 L 528.3333 12.712239 "/>
<path transform="matrix(.75,0,0,.75,96.75,746.99319)" stroke-width="1.3333334" stroke-linecap="butt" stroke-miterlimit="10" stroke-linejoin="miter" fill="none" stroke="#000000" d="M 472.33335 12.675781 L 512.3333 12.675781 "/>
</g>
<clipPath id="cp46">
<path d="M 0 0 L 595.5 0 L 595.5 842.25 L 0 842.25 Z " fill-rule="evenodd"/>
</clipPath>
<g clip-path="url(#cp46)">
<path transform="matrix(.75,0,0,.75,72,401.49317)" stroke-width="1.3333334" stroke-linecap="butt" stroke-miterlimit="10" stroke-linejoin="miter" fill="none" stroke="#000000" d="M 26 -.65755209 L 26 154.00911 "/>
<path transform="matrix(.75,0,0,.75,72,401.49317)" stroke-width="1.3333334" stroke-linecap="butt" stroke-miterlimit="10" stroke-linejoin="miter" fill="none" stroke="#000000" d="M 600.6667 -.65755209 L 600.6667 154.00911 "/>
<path transform="matrix(.75,0,0,.75,72,401.49317)" stroke-width="1.3333334" stroke-linecap="butt" stroke-miterlimit="10" stroke-linejoin="miter" fill="none" stroke="#000000" d="M 25.333334 .009114583 L 601.3333 .009114583 "/>
<path transform="matrix(.75,0,0,.75,72,401.49317)" stroke-width="1.3333334" stroke-linecap="butt" stroke-miterlimit="10" stroke-linejoin="miter" fill="none" stroke="#000000" d="M 25.333334 153.34246 L 601.3333 153.34246 "/>
<path transform="matrix(.75,0,0,.75,72,714.9385)" stroke-width="1.3333334" stroke-linecap="butt" stroke-miterlimit="10" stroke-linejoin="miter" fill="none" stroke="#000000" d="M 26 .08203125 L 26 68.08203 "/>
<path transform="matrix(.75,0,0,.75,72,714.9385)" stroke-width="1.3333334" stroke-linecap="butt" stroke-miterlimit="10" stroke-linejoin="miter" fill="none" stroke="#000000" d="M 600.6667 .08203125 L 600.6667 68.08203 "/>
<path transform="matrix(.75,0,0,.75,72,714.9385)" stroke-width="1.3333334" stroke-linecap="butt" stroke-miterlimit="10" stroke-linejoin="miter" fill="none" stroke="#000000" d="M 25.333334 -.58463546 L 601.3333 -.58463546 "/>
<path transform="matrix(.75,0,0,.75,72,714.9385)" stroke-width="1.3333334" stroke-linecap="butt" stroke-miterlimit="10" stroke-linejoin="miter" fill="none" stroke="#000000" d="M 25.333334 67.41537 L 601.3333 67.41537 "/>
</g>
</g>
</svg>
