<?xml version="1.0" encoding="UTF-8" standalone="no"?>
<!DOCTYPE svg PUBLIC "-//W3C//DTD SVG 1.1//EN" "http://www.w3.org/Graphics/SVG/1.1/DTD/svg11.dtd">
<svg xmlns="http://www.w3.org/2000/svg" xmlns:xlink="http://www.w3.org/1999/xlink" version="1.1" width="596pt" height="842pt" viewBox="0 0 596 842">
<g enable-background="new">
<clipPath id="cp4">
<path d="M 0 0 L 595.5 0 L 595.5 842.25 L 0 842.25 Z " fill-rule="evenodd"/>
</clipPath>
<g clip-path="url(#cp4)">
<path transform="matrix(.75,0,0,.75,0,0)" d="M 0 0 L 794 0 L 794 1123 L 0 1123 Z " fill="#ffffff"/>
</g>
<clipPath id="cp5">
<path d="M 0 0 L 595.5 0 L 595.5 842.25 L 0 842.25 Z " fill-rule="evenodd"/>
</clipPath>
<g clip-path="url(#cp5)">
<text xml:space="preserve" transform="matrix(.75 0 0 .75 72 72)" font-size="34.666669" font-family="Calibri"><tspan y="33.651044" x="-9 6.9235994 29.159104 58.78952 88.41994 108.4725 126.78194">SUMMARY</tspan></text>
<text xml:space="preserve" transform="matrix(.75 0 0 .75 72 136.94092)" font-size="14.666667" font-family="Arial" font-weight="bold"><tspan y="13.757161" x="0 4.0719759 13.024597 17.905243 23.608872 32.561494 41.514116 50.466737 58.617845 63.49849 67.570468 76.52309">Introduction</tspan></text>
<text xml:space="preserve" transform="matrix(.75 0 0 .75 72 136.94092)" font-size="14.666667" font-family="Arial" font-weight="bold"><tspan y="13.757161" x="593.5497">4</tspan></text>
<text xml:space="preserve" transform="matrix(.75 0 0 .75 72 159.58985)" font-size="14.666667" font-family="Arial" font-weight="bold"><tspan y="13.757161" x="0 10.584274 18.735383 23.616028 32.56865 38.272279 46.423387 50.49536 54.567338 63.51996 71.67107 80.62369 89.57631 98.52893 106.68004 115.63266 123.78377 127.85574 137.63135 143.33498 152.2876 160.4387 168.58982 176.74092 184.89203 188.964 197.91663 206.86925 211.7499 215.82187 224.77449 233.72711 241.87822 250.83084 256.5345">Natural Language Processing: Theory</tspan></text>
<text xml:space="preserve" transform="matrix(.75 0 0 .75 72 159.58985)" font-size="14.666667" font-family="Arial" font-weight="bold"><tspan y="13.757161" x="593.5497">5</tspan></text>
<text xml:space="preserve" transform="matrix(.75 0 0 .75 72 182.23877)" font-size="14.666667" font-family="Calibri"><tspan y="14.2369799" x="24 33.460725 39.62236 47.1938 50.507204 58.078645 62.95195 70.68083 76.87825 84.17059 89.90285 95.6351 98.9986 106.69885 113.597599 116.910999 124.48244 132.1827 139.2031 144.93535 152.22769">NLP Processing Phases</tspan></text>
<text xml:space="preserve" transform="matrix(.75 0 0 .75 72 182.23877)" font-size="14.666667" font-family="Calibri"><tspan y="14.2369799" x="594.27249">5</tspan></text>
<text xml:space="preserve" transform="matrix(.75 0 0 .75 72 205.6665)" font-size="14.666667" font-family="Calibri"><tspan y="14.2369799" x="24 31.814759 39.54364 47.243898 56.70462 63.996965 71.61134 78.7534 82.1169 89.84578">ConNeKTion</tspan></text>
<text xml:space="preserve" transform="matrix(.75 0 0 .75 72 205.6665)" font-size="14.666667" font-family="Calibri"><tspan y="14.2369799" x="594.27249">6</tspan></text>
<text xml:space="preserve" transform="matrix(.75 0 0 .75 72 229.09424)" font-size="14.666667" font-family="Arial" font-weight="bold"><tspan y="13.757161" x="0 7.8640749 16.015183 24.16629 33.11891 42.071535 51.024156 55.09613 64.04875 73.00137 77.07335 85.22446">Technologies</tspan></text>
<text xml:space="preserve" transform="matrix(.75 0 0 .75 72 229.09424)" font-size="14.666667" font-family="Arial" font-weight="bold"><tspan y="13.757161" x="593.5497">7</tspan></text>
<text xml:space="preserve" transform="matrix(.75 0 0 .75 72 251.74317)" font-size="14.666667" font-family="Calibri"><tspan y="14.2369799" x="24 28.673111 35.450014 41.854799">Java</tspan></text>
<text xml:space="preserve" transform="matrix(.75 0 0 .75 72 251.74317)" font-size="14.666667" font-family="Calibri"><tspan y="14.2369799" x="594.27249">7</tspan></text>
<text xml:space="preserve" transform="matrix(.75 0 0 .75 72 275.1709)" font-size="14.666667" font-family="Calibri"><tspan y="14.2369799" x="24 31.571442 36.444749 44.17363 47.537126 55.266008">Prolog</tspan></text>
<text xml:space="preserve" transform="matrix(.75 0 0 .75 72 275.1709)" font-size="14.666667" font-family="Calibri"><tspan y="14.2369799" x="594.27249">7</tspan></text>
<text xml:space="preserve" transform="matrix(.75 0 0 .75 72 298.59864)" font-size="14.666667" font-family="Calibri"><tspan y="14.2369799" x="24 30.734147 35.46437 42.48477 50.099077 54.263856 61.992738 66.901859 74.60211 77.91551 87.376239 93.53787">Stanford NLP</tspan></text>
<text xml:space="preserve" transform="matrix(.75 0 0 .75 72 298.59864)" font-size="14.666667" font-family="Calibri"><tspan y="14.2369799" x="594.27249">7</tspan></text>
<text xml:space="preserve" transform="matrix(.75 0 0 .75 72 322.02638)" font-size="14.666667" font-family="Calibri"><tspan y="14.2369799" x="24 33.246034 38.054887 45.075288 52.775545 60.4758 63.7892 72.80623 79.69055 84.42078 91.44118 99.14143 106.161838 111.89409 119.18643 124.918689 128.23209 135.25249 142.95275 150.653 153.9664 163.42713 170.71947 178.44835 185.87667">Graph Databases and Neo4J</tspan></text>
<text xml:space="preserve" transform="matrix(.75 0 0 .75 72 322.02638)" font-size="14.666667" font-family="Calibri"><tspan y="14.2369799" x="586.8442 594.27249">10</tspan></text>
<text xml:space="preserve" transform="matrix(.75 0 0 .75 72 345.4541)" font-size="14.666667" font-family="Arial" font-weight="bold"><tspan y="13.757161" x="0 9.775604 15.479233 24.431855 33.384477 42.337099 50.488206 58.639314 67.591938 71.66391 81.439517 89.59062 97.74173 102.622379 110.77348 123.80524 128.68589 132.75786 140.62194 148.77304 159.35732 168.30994 177.26256 181.33454 186.21518 194.07926 202.23036 210.38147 215.26212 220.14276 225.0234 233.97603 238.85668 249.44095 258.39356 267.3462 278.74629 282.81825 290.96937 299.922 308.87464 317.02577">Proposed System: TeKno (Text-to-Knowledge)</tspan></text>
<text xml:space="preserve" transform="matrix(.75 0 0 .75 72 345.4541)" font-size="14.666667" font-family="Arial" font-weight="bold"><tspan y="13.757161" x="585.39859 593.5497">12</tspan></text>
<text xml:space="preserve" transform="matrix(.75 0 0 .75 72 368.10304)" font-size="14.666667" font-family="Calibri"><tspan y="14.2369799" x="24 31.571442 34.934938 42.635194 49.927537 53.29103 56.654527 64.35478">Pipeline</tspan></text>
<text xml:space="preserve" transform="matrix(.75 0 0 .75 72 368.10304)" font-size="14.666667" font-family="Calibri"><tspan y="14.2369799" x="586.8442 594.27249">12</tspan></text>
<text xml:space="preserve" transform="matrix(.75 0 0 .75 72 391.53077)" font-size="14.666667" font-family="Calibri"><tspan y="14.2369799" x="24 33.460725 39.62236 47.1938 51.115495 54.428895 63.445924 70.330249 75.06047 82.08087 85.39427 92.12842 95.49191 103.1635">NLP: Data Flow</tspan></text>
<text xml:space="preserve" transform="matrix(.75 0 0 .75 72 391.53077)" font-size="14.666667" font-family="Calibri"><tspan y="14.2369799" x="586.8442 594.27249">13</tspan></text>
<text xml:space="preserve" transform="matrix(.75 0 0 .75 72 414.9585)" font-size="14.666667" font-family="Calibri"><tspan y="14.2369799" x="48 55.81476 63.54364 68.459918 75.62334 79.73082 87.02316 91.93944 99.23178 106.93204 113.129459 120.4218 123.7352 131.43526 138.7276 144.45986 152.18874 155.55223 163.25249 168.16176 171.52526 179.25414">Coreference Resolution</tspan></text>
<text xml:space="preserve" transform="matrix(.75 0 0 .75 72 414.9585)" font-size="14.666667" font-family="Calibri"><tspan y="14.2369799" x="586.8442 594.27249">14</tspan></text>
<text xml:space="preserve" transform="matrix(.75 0 0 .75 72 438.38624)" font-size="14.666667" font-family="Calibri"><tspan y="14.2369799" x="48 57.460725 64.481128 76.18895 83.48129 91.18155 94.49495 101.65132 109.2155 114.12477 117.488269 122.39754 129.0315 132.3449 140.04496 147.3373 153.41297 161.14185 168.04059 175.74085 179.10434 184.01361 187.3771 195.10599">Named Entity Recognition</tspan></text>
<text xml:space="preserve" transform="matrix(.75 0 0 .75 72 438.38624)" font-size="14.666667" font-family="Calibri"><tspan y="14.2369799" x="586.8442 594.27249">14</tspan></text>
<text xml:space="preserve" transform="matrix(.75 0 0 .75 72 461.81398)" font-size="14.666667" font-family="Calibri"><tspan y="14.2369799" x="48 61.03891 64.402408 71.06499 74.42848 82.12874 89.42108 97.12134 100.48483 107.50523 110.818637 114.51132 122.0755 126.82721 134.11956 141.0183 145.82715 152.71147 157.62075 160.98424 168.71312">Wikipedia Integration</tspan></text>
<text xml:space="preserve" transform="matrix(.75 0 0 .75 72 461.81398)" font-size="14.666667" font-family="Calibri"><tspan y="14.2369799" x="586.8442 594.27249">15</tspan></text>
<text xml:space="preserve" transform="matrix(.75 0 0 .75 72 485.2417)" font-size="14.666667" font-family="Calibri"><tspan y="14.2369799" x="24 31.814759 39.54364 47.243898 53.441316 60.733659 68.369449 73.27872 80.97897 87.999378 91.36287 94.726367 100.27237 107.15669 112.06596 115.42946 123.15834">Conceptualization</tspan></text>
<text xml:space="preserve" transform="matrix(.75 0 0 .75 72 485.2417)" font-size="14.666667" font-family="Calibri"><tspan y="14.2369799" x="586.8442 594.27249">17</tspan></text>
<text xml:space="preserve" transform="matrix(.75 0 0 .75 72 508.66944)" font-size="14.666667" font-family="Calibri"><tspan y="14.2369799" x="48 57.246034 62.054887 69.07529 76.77554 84.4758 87.7892 95.489459 102.37378 107.104007 114.124408 121.82466 128.84506 134.57732">Graph database</tspan></text>
<text xml:space="preserve" transform="matrix(.75 0 0 .75 72 508.66944)" font-size="14.666667" font-family="Calibri"><tspan y="14.2369799" x="586.8442 594.27249">17</tspan></text>
<text xml:space="preserve" transform="matrix(.75 0 0 .75 72 532.09719)" font-size="14.666667" font-family="Calibri"><tspan y="14.2369799" x="48 54.340257 61.360658 67.558078 72.46735 75.78075 80.69702 87.989368 95.68962 100.605899 107.89824 113.63049 120.92284 128.48702 133.21724 140.10157 145.01084 148.37433 156.10321">Fact representation</tspan></text>
<text xml:space="preserve" transform="matrix(.75 0 0 .75 72 532.09719)" font-size="14.666667" font-family="Calibri"><tspan y="14.2369799" x="586.8442 594.27249">18</tspan></text>
<text xml:space="preserve" transform="matrix(.75 0 0 .75 72 555.5249)" font-size="14.666667" font-family="Arial" font-weight="bold"><tspan y="13.757161" x="0 4.0719759 13.024597 17.905243 26.05635 31.75998 40.7126 48.86371 52.935686 57.00766 67.591938 76.544559 89.57631 98.52893 107.48155 116.43417 124.58528 133.5379 138.41855">Internal Components</tspan></text>
<text xml:space="preserve" transform="matrix(.75 0 0 .75 72 555.5249)" font-size="14.666667" font-family="Arial" font-weight="bold"><tspan y="13.757161" x="585.39859 593.5497">20</tspan></text>
<text xml:space="preserve" transform="matrix(.75 0 0 .75 72 578.1738)" font-size="14.666667" font-family="Calibri"><tspan y="14.2369799" x="24 28.673111 35.450014 41.854799 48.8752 52.1886 60.003358 63.36685 70.38725 76.11951 81.85176 89.144107">Java Classes</tspan></text>
<text xml:space="preserve" transform="matrix(.75 0 0 .75 72 578.1738)" font-size="14.666667" font-family="Calibri"><tspan y="14.2369799" x="586.8442 594.27249">20</tspan></text>
<text xml:space="preserve" transform="matrix(.75 0 0 .75 72 601.60159)" font-size="14.666667" font-family="Calibri"><tspan y="14.2369799" x="24 31.571442 36.444749 44.17363 47.537126 55.266008 62.16475 65.47815 73.17821 80.47055 87.49095 93.223209 100.95209 108.65234 112.01584 119.716098">Prolog Reasoning</tspan></text>
<text xml:space="preserve" transform="matrix(.75 0 0 .75 72 601.60159)" font-size="14.666667" font-family="Calibri"><tspan y="14.2369799" x="586.8442 594.27249">29</tspan></text>
<text xml:space="preserve" transform="matrix(.75 0 0 .75 72 625.0293)" font-size="14.666667" font-family="Arial" font-weight="bold"><tspan y="13.757161" x="0 4.0719759 13.024597 21.175705 26.05635 31.75998 40.7126 48.86371 53.744356 57.81633 66.76895 75.72157 83.87268 87.94466 92.8253 101.77792 107.48155 111.55353 121.32913 129.48024 137.63135 145.78246 154.73508 159.61573 163.6877 172.64032">Instructions for Execution</tspan></text>
<text xml:space="preserve" transform="matrix(.75 0 0 .75 72 625.0293)" font-size="14.666667" font-family="Arial" font-weight="bold"><tspan y="13.757161" x="585.39859 593.5497">34</tspan></text>
<text xml:space="preserve" transform="matrix(.75 0 0 .75 72 647.6782)" font-size="14.666667" font-family="Calibri"><tspan y="14.2369799" x="24 31.700058 38.9924 46.692659 54.392915 57.75641 62.672685 69.96503 81.67285 88.965198 96.52937 101.438648">Requirements</tspan></text>
<text xml:space="preserve" transform="matrix(.75 0 0 .75 72 647.6782)" font-size="14.666667" font-family="Calibri"><tspan y="14.2369799" x="586.8442 594.27249">34</tspan></text>
<text xml:space="preserve" transform="matrix(.75 0 0 .75 72 671.10598)" font-size="14.666667" font-family="Calibri"><tspan y="14.2369799" x="24 30.734147 37.94771 42.85698 50.557237 58.257493 62.179185 65.492588 74.95331 82.24565 89.97453 97.40285">Setup: Neo4J</tspan></text>
<text xml:space="preserve" transform="matrix(.75 0 0 .75 72 671.10598)" font-size="14.666667" font-family="Calibri"><tspan y="14.2369799" x="586.8442 594.27249">34</tspan></text>
<text xml:space="preserve" transform="matrix(.75 0 0 .75 72 694.5337)" font-size="14.666667" font-family="Calibri"><tspan y="14.2369799" x="24 30.161637 37.182039 44.882295 52.58255 58.77997 66.480228 69.793628 74.702899 82.40315 89.695499 93.008899 100.0293 107.72955 115.42981 118.793308 122.1568 128.23247 135.11679 140.02606 143.38956 151.11844">Launch the application</tspan></text>
<text xml:space="preserve" transform="matrix(.75 0 0 .75 72 694.5337)" font-size="14.666667" font-family="Calibri"><tspan y="14.2369799" x="586.8442 594.27249">36</tspan></text>
<text xml:space="preserve" transform="matrix(.75 0 0 .75 72 717.9614)" font-size="14.666667" font-family="Calibri"><tspan y="14.2369799" x="24 33.246034 38.054887 45.075288 52.775545 60.4758 63.7892 70.523349 75.39665 83.125537 94.83336 98.14676 103.98543 111.055759 117.44643">Graph From Text</tspan></text>
<text xml:space="preserve" transform="matrix(.75 0 0 .75 72 717.9614)" font-size="14.666667" font-family="Calibri"><tspan y="14.2369799" x="586.8442 594.27249">37</tspan></text>
<text xml:space="preserve" transform="matrix(.75 0 0 .75 72 741.38919)" font-size="14.666667" font-family="Calibri"><tspan y="14.2369799" x="24 33.246034 38.054887 45.075288 52.775545 60.4758 63.7892 68.26193 73.13524 80.86412 92.571949 95.885349 103.49257 116.02338">Graph from XML</tspan></text>
<text xml:space="preserve" transform="matrix(.75 0 0 .75 72 741.38919)" font-size="14.666667" font-family="Calibri"><tspan y="14.2369799" x="586.8442 594.27249">39</tspan></text>
</g>
</g>
</svg>
