<?xml version="1.0" encoding="UTF-8" standalone="no"?>
<!DOCTYPE svg PUBLIC "-//W3C//DTD SVG 1.1//EN" "http://www.w3.org/Graphics/SVG/1.1/DTD/svg11.dtd">
<svg xmlns="http://www.w3.org/2000/svg" xmlns:xlink="http://www.w3.org/1999/xlink" version="1.1" width="596pt" height="842pt" viewBox="0 0 596 842">
<g enable-background="new">
<clipPath id="cp81">
<path d="M 0 0 L 595.5 0 L 595.5 842.25 L 0 842.25 Z " fill-rule="evenodd"/>
</clipPath>
<g clip-path="url(#cp81)">
<path transform="matrix(.75,0,0,.75,0,0)" d="M 0 0 L 794 0 L 794 1123 L 0 1123 Z " fill="#ffffff"/>
</g>
<clipPath id="cp82">
<path d="M 0 0 L 595.5 0 L 595.5 842.25 L 0 842.25 Z " fill-rule="evenodd"/>
</clipPath>
<g clip-path="url(#cp82)">
<text xml:space="preserve" transform="matrix(.75 0 0 .75 72 72)" font-size="14.666667" font-family="Calibri"><tspan y="14.2369799" x="0 8.480301 14.212555 17.525956 27.873963 35.166307 38.479707 46.179964 52.956865 59.433275 66.72562 70.03902 75.77127 83.063617 90.35596 98.05621 101.36961 104.73311 112.433368 115.746768 120.65604 128.3563 135.64864 138.96204 146.6623 151.57857 158.79929 165.41893 168.78243 176.5113 184.21157 189.94382 193.25722 198.98947 206.28182 212.47924 217.3885 220.752 228.48088 236.18114 241.91339 245.5703 248.8837 253.79297 264.1338 271.86268 275.1761 282.87635 290.60523 298.30549 305.59785 311.33009 314.6435 322.34376 329.12068 335.7403 339.1038 346.80406 353.7028 357.01618 364.71644 368.07994 372.40943 376.5169 383.80928 388.72554 396.01789 403.58204 408.49134 411.80476 419.505 426.5254 438.23323 445.52558 451.2578 454.57124 460.6469 467.6673 475.36756 478.68098 483.59724 490.76066 494.86814 502.16047 507.2701 510.5835 515.34957 523.0784 526.39187 531.30117 539.0014 546.29379 549.6072 555.3394 562.3598 574.0676">As we have seen in the previous sections, two nodes having different names can refer to the same</tspan></text>
<text xml:space="preserve" transform="matrix(.75 0 0 .75 72 87.44238)" font-size="14.666667" font-family="Calibri"><tspan y="14.2369799" x="0 6.0756685 13.80455 21.504807 27.702225 34.994569 42.630357 47.539628 51.23947 54.55287 58.24556 65.945819 69.25922 76.9881 81.89722 89.59747 96.88982 101.999469 105.31287 110.0789 117.807788 121.121189 126.03746 133.3298 141.03006 145.94634 153.23868 158.97093 166.26328 173.82746 178.73673 182.05013 186.9594 194.65966 198.02315 203.7554 207.0688 212.80106 216.16455 221.07382 228.77408 235.6584 240.56768 243.93117 251.66005 259.3603 263.0172 266.33064 271.2399 278.94017 286.23249 289.5459 297.24617 302.1624 309.45478 317.15504 320.51853 326.59419 333.47853 338.23023">concept. In order to represent this situation, the predicate</tspan></text>
<text xml:space="preserve" transform="matrix(.75 0 0 .75 72 87.44238)" font-size="14.666667" font-family="Calibri" font-style="italic"><tspan y="14.2369799" x="348.83595 356.37159 359.73509 363.09858 370.63423">alias</tspan></text>
<text xml:space="preserve" transform="matrix(.75 0 0 .75 72 87.44238)" font-size="14.666667" font-family="Calibri"><tspan y="14.2369799" x="376.3379 380.78199 384.47468 393.0978 396.7547 400.4474 409.46443 416.76393 425.2442 431.40583 434.76933 443.24964 449.98377 454.42787 457.74128 464.76167 470.4939 476.22615 483.95503 490.15245 493.51594 500.40028 505.15199 512.44436 518.1766 521.49 526.3993 534.09957 541.3919 544.7053 552.4056 560.13449 567.8347">(ID,ID_ALiAS) associates the node</tspan></text>
<text xml:space="preserve" transform="matrix(.75 0 0 .75 72 102.88281)" font-size="14.666667" font-family="Calibri"><tspan y="14.2369799" x="0 3.3634949 11.063751 18.356095 25.920273 30.829545 34.19304 38.66577 42.029268 49.32161 57.021867 60.335268 67.9639 74.597858 77.911258 81.60394 90.62097 93.93437 98.70041 106.42929 109.74269 114.65196 122.35222 129.64456 132.95796 139.97837 143.34186 146.70536 153.72576 159.45801 162.77141 170.47167 178.20055 185.9008 193.19315 196.50655 200.19924 209.21627 216.51576 224.99607 231.1577 234.85039 243.33069 250.06484 253.76468 257.07807 264.22013 271.92039 279.2127 284.94496">identified by ID to the alias node ID_ALIAS. These</tspan></text>
<text xml:space="preserve" transform="matrix(.75 0 0 .75 72 102.88281)" font-size="14.666667" font-family="Calibri"><tspan y="14.2369799" x="295.55073 303.25099 308.16725 315.4596 323.15986 326.52336 332.599 339.48335 344.23506 351.5274 357.25965 360.57307 367.59346 372.5097 379.80207 383.11549 389.3129 394.2292 401.52156 408.40589 413.1576 420.44996 428.1502 431.46363 437.03117 441.76139 448.7818 453.89146 458.80073 462.1642 469.86448 476.7632 480.0766 484.54933 489.4226 497.1515 508.8593 512.1727 517.08206 524.7823 532.07467 535.38809 542.40847 545.772 549.1355 556.1559 561.8881 565.20156 572.4939 580.19418 586.9711 594.2635">predicates are created starting from the alias edges</tspan></text>
<text xml:space="preserve" transform="matrix(.75 0 0 .75 72 118.32617)" font-size="14.666667" font-family="Calibri"><tspan y="14.2369799" x="0 5.732254 13.43251 21.104096 31.581025 39.28128 42.59468 50.294939 57.45836 61.62314 69.35202 74.268299 81.56064 85.26048 88.57388 92.26657 96.7393 100.052707 104.961978 112.66223 119.954578 123.267978 130.96823 135.8845 143.17685 150.8771 154.2406 160.31627 167.20059 171.9523">shown before. If the predicate</tspan></text>
<text xml:space="preserve" transform="matrix(.75 0 0 .75 72 118.32617)" font-size="14.666667" font-family="Calibri" font-style="italic"><tspan y="14.2369799" x="182.55805 190.0937 193.4572 196.8207 204.35636">alias</tspan></text>
<text xml:space="preserve" transform="matrix(.75 0 0 .75 72 118.32617)" font-size="14.666667" font-family="Calibri"><tspan y="14.2369799" x="210.05998 214.50409 221.52449 225.1814 232.88166 237.32576 240.63916 244.00266 249.73491 253.04831 259.24574 264.162 271.45436 278.33869 283.0904 290.38276">(a,b) is created</tspan></text>
<text xml:space="preserve" transform="matrix(.75 0 0 .75 72 118.32617)" font-size="14.666667" font-family="Calibri"><tspan y="14.2369799" x="301.39637 308.41676 311.78025 317.5125 325.2414 328.5548 333.46409 341.16435 348.45668 351.77009 359.47035 364.3866 371.67897 379.3792 382.7427 388.81837 395.7027 400.4544">also the predicate</tspan></text>
<text xml:space="preserve" transform="matrix(.75 0 0 .75 72 118.32617)" font-size="14.666667" font-family="Calibri" font-style="italic"><tspan y="14.2369799" x="411.06016 418.59584 421.95933 425.3228 432.85847">alias</tspan></text>
<text xml:space="preserve" transform="matrix(.75 0 0 .75 72 118.32617)" font-size="14.666667" font-family="Calibri"><tspan y="14.2369799" x="438.56208 443.00617 450.70643 454.36335 461.38374 465.82783 469.14125 472.50474 478.237 481.5504 488.5708 496.27107 503.9713 511.26368 518.9639 522.27737 528.0096 531.37307 539.0733 545.27078 552.5631 555.8765 560.78579 568.486">(b,a) is added since the</tspan></text>
<text xml:space="preserve" transform="matrix(.75 0 0 .75 72 133.76758)" font-size="14.666667" font-family="Calibri"><tspan y="14.2369799" x="0 6.0756685 13.80455 21.504807 27.702225 34.994569 42.630357 47.539628 50.853029 58.58191 63.05464 66.36804 73.38844 76.75194 80.11543 87.13583 92.86809 96.23158 103.93184 110.83058 114.14398 120.21965 127.24005 134.9403 138.25371 145.95397 153.2463 156.55971 162.63538 170.36426 178.06452 183.79677 187.16027 194.86052 202.15287 207.06914 214.36148 222.06174 225.37514 232.39554 238.12779 243.86005 251.58893 257.78636 261.14985 268.03419 272.94343 276.30693 282.78334 290.07566">concept of aliasing can be considered associative.</tspan></text>
<text xml:space="preserve" transform="matrix(.75 0 0 .75 72 159.20899)" font-size="14.666667" font-family="Calibri" font-weight="bold" font-style="italic"><tspan y="14.2369799" x="190.00238 195.16213 202.36144 205.96109 213.69713 218.77816 222.3778 230.10669 237.83557 243.61077 251.33965 254.9393">relationship</tspan></text>
<text xml:space="preserve" transform="matrix(.75 0 0 .75 72 159.20899)" font-size="14.666667" font-family="Calibri" font-weight="bold"><tspan y="14.2369799" x="262.67533 267.2411 271.14848 280.38734 287.68684 294.6142 304.18226 312.39778 317.2498 324.18415 332.01325 337.90913 341.68769 345.59507 354.83393 362.13343 372.04499 380.2605 385.11253 392.04689 399.87599 407.13255">(ID_SUBJECT,ID_OBJECT)</tspan></text>
<text xml:space="preserve" transform="matrix(.75 0 0 .75 72 184.65039)" font-size="14.666667" font-family="Calibri"><tspan y="14.2369799" x="0 6.9128725 13.933273 20.130692 27.830948 31.144349 38.844606 46.573488 54.273744 61.566087 64.879489 70.955158 77.975559 85.67581 88.98921 96.68947 103.98181 107.29521 110.65871 118.35896 121.67236 126.58864 133.88098 137.24448 144.1288 149.03807 152.40157 160.13045 167.8307 173.56296 181.26322 184.62671 192.25534 197.9876 201.301 211.77793 215.14142 220.05069 227.75095 231.06435 238.79323 246.49349 253.78583 257.09925 264.82814 269.93778 273.25117 284.95899 292.68788 297.60414">Each node can be in relationships with one or more</tspan></text>
<text xml:space="preserve" transform="matrix(.75 0 0 .75 72 184.65039)" font-size="14.666667" font-family="Calibri"><tspan y="14.2369799" x="308.2099 315.91017 323.63905 331.3393 338.63166 344.3639 347.6773 355.37757 362.66993 370.37019 377.66255 385.3628 393.06306 396.42655 404.1268 411.02555 414.33894 422.0678 429.76808 433.08149 437.99076 445.691 452.98335 456.29676 463.03089 470.84553 480.54957 483.86299 488.77226 493.8819 497.2454 504.94566 508.30915 515.6015 521.33377 524.64718 531.71749 538.10818 543.01748 547.8263 554.8467 561.04409 565.7958 573.08816">nodes depending on the SRO triples extracted</tspan></text>
<text xml:space="preserve" transform="matrix(.75 0 0 .75 72 200.09375)" font-size="14.666667" font-family="Calibri"><tspan y="14.2369799" x="0 4.4727327 9.346039 17.07492 28.782746 32.096147 37.005418 44.705675 51.998018 55.311418 60.063127 67.13345 73.524127 78.433399 82.13324 85.44664 93.92694 97.24034 102.15662 109.44896 112.812458 119.69678 124.60605 127.96954 135.69843 143.39868 149.13094 156.83119 160.19469 167.89495 171.20835 175.68108 180.55438 188.28327 199.99109 203.30449 208.21376 215.91402 223.20636 226.51976 232.25202 239.95227 247.65253 251.15915 258.45149 264.6489 269.55818 272.87159 277.63764">from the text. A relationship from the subject to</tspan></text>
<text xml:space="preserve" transform="matrix(.75 0 0 .75 72 200.09375)" font-size="14.666667" font-family="Calibri"><tspan y="14.2369799" x="288.6799 293.58918 301.28944 308.5818 311.8952 319.62409 327.32435 330.83097 338.1233 344.3207 349.22999 352.5434 355.9069 361.63917 364.95259 369.86885 377.1612 384.86146 389.7777 397.07008 402.8023 410.09468 417.65885 422.41056 429.70289 437.40315 440.71656 444.08006 451.7803 455.0937 460.00297 467.70323 474.99555 478.30897 485.2077 490.01655 497.03694 504.73719 512.43746 515.75088 520.66018 528.3604 533.2337 540.9626 548.66287 555.5616 563.26187 566.57528 573.59567">the object is represented in the graph through an</tspan></text>
<text xml:space="preserve" transform="matrix(.75 0 0 .75 72 215.53516)" font-size="14.666667" font-family="Calibri"><tspan y="14.2369799" x="0 7.292343 14.9925999 21.769593 29.061936 32.76178 36.07518 43.21724 50.917497">edge. The</tspan></text>
<text xml:space="preserve" transform="matrix(.75 0 0 .75 72 215.53516)" font-size="14.666667" font-family="Calibri" font-style="italic"><tspan y="14.2369799" x="61.52324 66.54701 73.545948 76.90944 84.4451 89.35437 92.717868 100.23921 107.77487 113.4785 121.01416 124.377658 131.91332 137.59548">relationship/2</tspan></text>
<text xml:space="preserve" transform="matrix(.75 0 0 .75 72 215.53516)" font-size="14.666667" font-family="Calibri"><tspan y="14.2369799" x="148.33719 156.03745 160.95372 168.24607 175.94632 179.30982 185.38549 192.2698 197.02152 204.31386 207.62726 213.70293 221.43181 229.13207 235.32949 242.62183 250.25762 255.16689 262.86714 269.8875 273.251 276.6145 282.0746 289.36695">predicate conceptualizes</tspan></text>
<text xml:space="preserve" transform="matrix(.75 0 0 .75 72 215.53516)" font-size="14.666667" font-family="Calibri"><tspan y="14.2369799" x="298.4126 303.32188 311.02214 314.38563 320.11787 323.43128 329.50697 337.23585 344.9361 351.1335 358.42585 366.06166 370.97093 374.67079 377.9842 385.12626 392.8265 400.11885 403.43226 411.1325 416.04878 423.34114 431.04139 434.40489 440.48054 447.36488 452.11659 459.40895 462.72236 467.45259 474.47297 480.66288 487.9552 493.68745 497.00086 501.91014 509.61039 516.9027 520.2161 527.9164 534.93679 546.6446 553.93698 557.25039 564.97927 569.45199 572.7654 577.6747 585.37496">this concept. The predicate takes the name of the</tspan></text>
<text xml:space="preserve" transform="matrix(.75 0 0 .75 72 230.97657)" font-size="14.666667" font-family="Calibri"><tspan y="14.2369799" x="0 6.133011 11.042282 17.676239 25.376496 32.66884 38.80185 42.11525 46.587984 49.951478 57.24382 60.607316 68.30757 71.62097 79.34985 83.822589 87.13599 92.04526 99.745517 107.03786 110.35126 117.6436 125.34386 132.12085 139.4132 142.7266 149.747 157.44725 165.1475 168.4609 173.37718 180.66953 184.03302 190.91735 195.66905 202.9614 208.69365 212.00705 216.91632 224.61658">&#x201c;type&#x201d; field of the edge and relates the</tspan></text>
<text xml:space="preserve" transform="matrix(.75 0 0 .75 72 230.97657)" font-size="14.666667" font-family="Calibri" font-style="italic"><tspan y="14.2369799" x="235.22232 238.58582 246.12148 253.42098 259.1246 266.66029 274.19593 277.70256 284.70149 290.7987">id_subject</tspan></text>
<text xml:space="preserve" transform="matrix(.75 0 0 .75 72 230.97657)" font-size="14.666667" font-family="Calibri"><tspan y="14.2369799" x="299.02137 303.7874 311.5163 314.8297 319.73899 327.43925">to the</tspan></text>
<text xml:space="preserve" transform="matrix(.75 0 0 .75 72 230.97657)" font-size="14.666667" font-family="Calibri" font-style="italic"><tspan y="14.2369799" x="338.04499 341.40849 348.94416 356.24366 363.765 371.30067 374.80729 381.8062 387.90345">id_object</tspan></text>
<text xml:space="preserve" transform="matrix(.75 0 0 .75 72 230.97657)" font-size="14.666667" font-family="Calibri"><tspan y="14.2369799" x="396.1261 400.5702 407.86256 411.71995 418.61869 421.93208 426.84135 430.20484 435.1141 438.4776 445.76997 450.21406 457.64237 461.29927 468.72758 476.15589 480.59999 483.9134 495.62123 502.91358 509.93397 517.6342 520.94766 525.85696 533.5572 540.4415 545.3508 548.66427 553.5735 561.27377">(e.g title(8,26) mean that the</tspan></text>
<text xml:space="preserve" transform="matrix(.75 0 0 .75 72 246.41895)" font-size="14.666667" font-family="Calibri"><tspan y="14.2369799" x="0 7.7002565 15.429138 23.129395 30.421738 33.735139 41.163454 44.476854 47.840349 53.5726 56.886 60.249498 67.94975 71.26315 76.17943 83.47177 86.835269 93.71959 98.62886 101.992359 109.72124 117.42149 123.15375 130.854 134.2175 141.91776 145.23116 155.70809 159.07158 163.98085 171.6811 174.9945 179.90378 187.60404 194.89638 198.20978 205.91004 213.63892 221.33917 228.63152 231.94492 239.37323 246.80155 250.11495 255.02422 262.7245 267.59779 275.32667 283.02693 289.92567">node 8 is in relationship with the node 26 through</tspan></text>
<text xml:space="preserve" transform="matrix(.75 0 0 .75 72 246.41895)" font-size="14.666667" font-family="Calibri"><tspan y="14.2369799" x="300.93934 307.07234 311.9816 315.3451 320.25437 323.61787 330.91023 337.0432 341.4873">&#x201c;title&#x201d;).</tspan></text>
</g>
</g>
</svg>
