<?xml version="1.0" encoding="UTF-8" standalone="no"?>
<!DOCTYPE svg PUBLIC "-//W3C//DTD SVG 1.1//EN" "http://www.w3.org/Graphics/SVG/1.1/DTD/svg11.dtd">
<svg xmlns="http://www.w3.org/2000/svg" xmlns:xlink="http://www.w3.org/1999/xlink" version="1.1" width="596pt" height="842pt" viewBox="0 0 596 842">
<g enable-background="new">
<clipPath id="cp113">
<path d="M 0 0 L 595.5 0 L 595.5 842.25 L 0 842.25 Z " fill-rule="evenodd"/>
</clipPath>
<g clip-path="url(#cp113)">
<path transform="matrix(.75,0,0,.75,0,0)" d="M 0 0 L 794 0 L 794 1123 L 0 1123 Z " fill="#ffffff"/>
</g>
<clipPath id="cp114">
<path d="M 0 0 L 595.5 0 L 595.5 842.25 L 0 842.25 Z " fill-rule="evenodd"/>
</clipPath>
<g clip-path="url(#cp114)">
<path transform="matrix(.75,0,0,.75,72,265.4004)" d="M -4 0 L 601 0 L 601 370 L -4 370 Z " fill="#ffffff"/>
<path transform="matrix(.75,0,0,.75,72,707.5488)" d="M 0 0 L 601 0 L 601 74 L 0 74 Z " fill="#ffffff"/>
</g>
<clipPath id="cp115">
<path d="M 69.75 266.1504 L 522.75 266.1504 L 522.75 543.2637 L 69.75 543.2637 Z " fill-rule="evenodd"/>
</clipPath>
<g clip-path="url(#cp115)">
<path transform="matrix(.75,0,0,.75,74.25,271.4004)" d="M 0 0 L 104.754978 0 L 104.754978 17.173178 L 0 17.173178 Z " fill="#ffffff"/>
<path transform="matrix(.75,0,0,.75,74.25,286.21095)" d="M 0 0 L 361.56803 0 L 361.56803 17.173178 L 0 17.173178 Z " fill="#ffffff"/>
<path transform="matrix(.75,0,0,.75,74.25,301.02345)" d="M 0 0 L 240.6969 0 L 240.6969 17.173178 L 0 17.173178 Z " fill="#ffffff"/>
<path transform="matrix(.75,0,0,.75,74.25,315.83595)" d="M 0 0 L 280.98728 0 L 280.98728 17.173178 L 0 17.173178 Z " fill="#ffffff"/>
<path transform="matrix(.75,0,0,.75,74.25,330.64845)" d="M 0 0 L 200.40653 0 L 200.40653 17.173178 L 0 17.173178 Z " fill="#ffffff"/>
<path transform="matrix(.75,0,0,.75,74.25,345.45899)" d="M 0 0 L 369.6261 0 L 369.6261 17.173178 L 0 17.173178 Z " fill="#ffffff"/>
<path transform="matrix(.75,0,0,.75,74.25,360.27149)" d="M 0 0 L 248.75498 0 L 248.75498 17.173178 L 0 17.173178 Z " fill="#ffffff"/>
<path transform="matrix(.75,0,0,.75,74.25,375.08399)" d="M 0 0 L 417.97456 0 L 417.97456 17.173178 L 0 17.173178 Z " fill="#ffffff"/>
<path transform="matrix(.75,0,0,.75,74.25,389.89454)" d="M 0 0 L 297.10343 0 L 297.10343 17.173178 L 0 17.173178 Z " fill="#ffffff"/>
<path transform="matrix(.75,0,0,.75,74.25,404.70704)" d="M 0 0 L 530.7876 0 L 530.7876 17.173178 L 0 17.173178 Z " fill="#ffffff"/>
<path transform="matrix(.75,0,0,.75,74.25,419.51759)" d="M 0 0 L 208.4646 0 L 208.4646 17.173178 L 0 17.173178 Z " fill="#ffffff"/>
<path transform="matrix(.75,0,0,.75,74.25,434.33009)" d="M 0 0 L 280.98728 0 L 280.98728 17.173178 L 0 17.173178 Z " fill="#ffffff"/>
<path transform="matrix(.75,0,0,.75,74.25,449.14064)" d="M 0 0 L 546.90377 0 L 546.90377 17.173178 L 0 17.173178 Z " fill="#ffffff"/>
<path transform="matrix(.75,0,0,.75,74.25,463.95314)" d="M 0 0 L 370.67146 0 L 370.67146 17.173178 L 0 17.173178 Z " fill="#ffffff"/>
<path transform="matrix(.75,0,0,.75,74.25,478.76564)" d="M 0 0 L 264.87113 0 L 264.87113 17.173178 L 0 17.173178 Z " fill="#ffffff"/>
<path transform="matrix(.75,0,0,.75,74.25,493.57814)" d="M 0 0 L 498.5553 0 L 498.5553 17.173178 L 0 17.173178 Z " fill="#ffffff"/>
<path transform="matrix(.75,0,0,.75,74.25,508.39064)" d="M 0 0 L 208.4646 0 L 208.4646 17.173178 L 0 17.173178 Z " fill="#ffffff"/>
<path transform="matrix(.75,0,0,.75,74.25,523.2012)" d="M 0 0 L 305.1615 0 L 305.1615 17.173178 L 0 17.173178 Z " fill="#ffffff"/>
</g>
<clipPath id="cp116">
<path d="M 72.75 708.2988 L 522.75 708.2988 L 522.75 763.2344 L 72.75 763.2344 Z " fill-rule="evenodd"/>
</clipPath>
<g clip-path="url(#cp116)">
<path transform="matrix(.75,0,0,.75,77.25,713.5488)" d="M 0 0 L 329.33573 0 L 329.33573 17.173178 L 0 17.173178 Z " fill="#ffffff"/>
<path transform="matrix(.75,0,0,.75,77.25,728.3594)" d="M 0 0 L 345.10343 0 L 345.10343 17.173178 L 0 17.173178 Z " fill="#ffffff"/>
<path transform="matrix(.75,0,0,.75,77.25,743.1719)" d="M 0 0 L 361.21958 0 L 361.21958 17.173178 L 0 17.173178 Z " fill="#ffffff"/>
</g>
<clipPath id="cp117">
<path d="M 0 0 L 595.5 0 L 595.5 842.25 L 0 842.25 Z " fill-rule="evenodd"/>
</clipPath>
<g clip-path="url(#cp117)">
<text fill="#666666" xml:space="preserve" transform="matrix(.75 0 0 .75 72 72)" font-size="22.666666" font-family="Calibri"><tspan y="22.002604" x="0 11.704254 19.237717 31.185349 36.38478 48.332414 58.99678 64.118778 76.02196 87.29477 98.1472 107.00836 118.95599 130.85938 136.0588 147.96219">Prolog Reasoning</tspan></text>
<text xml:space="preserve" transform="matrix(.75 0 0 .75 72 101.865238)" font-size="14.666667" font-family="Calibri"><tspan y="14.2369799" x="0 12.501785 19.794129 23.107529 29.183197 36.203599 43.903856 47.217256 54.91751 58.281007 64.90065 68.264148 75.9644 83.256748 86.570148 91.479419 99.17967 106.472019 109.785419 117.48567 122.35898 130.08786 133.45136 141.18024 148.07898 151.39238 156.50203 164.20229 167.56578 174.85813 180.59038 183.90378 187.26728 194.83145 199.59749 207.32637 210.63977 218.06809 221.38149 227.45716 234.34148 239.09319 246.38553 253.184 260.9129 266.02256 269.38606 276.6784 282.41065">We can divide the prolog rules into 3 categories:</tspan></text>
<text xml:space="preserve" transform="matrix(.75 0 0 .75 72 101.865238)" font-size="14.666667" font-family="Calibri"><tspan y="14.2369799" x="289.64573 294.08985 301.51817 305.96229 309.2757 314.18498 321.88523 329.17756 332.49098 337.60063 345.30088 348.66438 355.95674 361.68898 365.00239 369.4751 374.3484 382.07728 393.7851 397.0985 402.00779 409.70805 417.00038 420.31379 432.0216 439.042 442.4055 450.10575 457.40525 460.76875 468.49763 476.2265 483.92677 487.24018 497.7171 502.82676 506.19026 510.89186 515.64358 522.9359 530.63619 533.9496 538.1144 545.84329 550.9529 554.26626 559.17556 566.8758">(1) the rules from the main_loop written for the</tspan></text>
<text xml:space="preserve" transform="matrix(.75 0 0 .75 72 117.30664)" font-size="14.666667" font-family="Calibri"><tspan y="14.2369799" x="0 7.7002565 11.063751 16.796006 24.496262 27.859757 34.608018 41.241975 44.555376 52.284257 56.75699 60.07039 64.97966 72.67992 79.97226 83.28566 86.649158 94.26346 98.42824 106.15712 111.26677 122.974597 129.85892 134.76819 138.13169 145.86057 153.56082 156.87422 161.7905 169.00406 173.91333 179.02298 182.38648 189.6072 196.0836 203.37595 211.0762 214.3896 222.01824 228.65219 231.96559 236.87487 244.57512 251.86746 255.18087 259.93257 267.00288 273.39356 278.30284">display of the information retrieved by the text,</tspan></text>
<text xml:space="preserve" transform="matrix(.75 0 0 .75 72 117.30664)" font-size="14.666667" font-family="Calibri"><tspan y="14.2369799" x="285.27314 289.71723 297.14555 301.58967 304.90309 310.6353 317.84889 322.75816 326.07154 333.8004 338.27314 341.58656 346.6962 354.39646 357.75996 365.0523 370.78456 374.09797 384.5749 392.27516 395.63865 401.83607 409.53633 412.84974 423.19059 430.91947 436.0291 442.5556 448.28785 451.60127 459.3015 465.03376 468.39726 476.0975 482.99626 486.30964 489.67314 493.03663 498.60417 503.51344 506.82685 513.8472 521.5475 529.24777 532.56118 537.4774 544.7698 550.96719 558.6674 563.52639 569.25869 572.6222 580.3511">(2) set of rules which works using list and recursion</tspan></text>
<text xml:space="preserve" transform="matrix(.75 0 0 .75 72 132.74805)" font-size="14.666667" font-family="Calibri"><tspan y="14.2369799" x="0 7.020401 14.720657 22.420914 25.734314 30.178421 37.606737 42.050844 45.364244 52.384645 55.698045 62.596788 67.47009 75.198978 82.89923 90.59949 93.91289 101.64177 106.1145 109.4279 114.53755 122.23781 125.6013 132.89365 138.6259 141.9393 148.9597 156.65996 160.02346 167.3158 170.6292 175.39524 183.12412 186.43752 194.13777 197.50127 203.23352 209.30919 216.9736 223.45001 230.74236 235.852 239.1654 246.86566 254.08638 264.5633 267.8767 274.5393 282.23957 289.91114 300.38807 303.75157 311.04389 318.74415 325.52113 332.81349">and (3) a group of rules able to discover new knowledge.</tspan></text>
<text xml:space="preserve" transform="matrix(.75 0 0 .75 72 158.18946)" font-size="14.666667" font-family="Calibri"><tspan y="14.2369799" x="0 3.692688 11.392944 14.706345 22.435227 27.344346 35.0446 42.336946 47.446596 50.759996 55.52603 63.254915 66.56831 74.26857 79.184848 86.47719 92.20944 99.501789 107.06596 111.975238 115.288639 120.19791 127.89816 135.1905 138.5039 141.8674 149.4817 153.64649 161.37537 166.48502 178.19284 185.07717 189.98644 193.34993 201.07881 208.77907 212.09247 215.45597 223.15622 226.46962 233.49002 236.80342 248.51125 255.80359 262.82398 270.52424 273.88774 281.58799 288.48674 292.95948 300.65974">In order to present the information in a meaningful</tspan></text>
<text xml:space="preserve" transform="matrix(.75 0 0 .75 72 158.18946)" font-size="14.666667" font-family="Calibri"><tspan y="14.2369799" x="307.3366 314.357 322.05726 329.7575 333.07093 338.63847 343.54774 348.65739 356.35765 362.55506 367.46434 375.16459 380.08088 387.37324 395.0735 398.3869 408.6991 415.44737 421.03575 424.69264 428.00605 435.02644 438.33985 444.07209 451.28565 456.19493 459.5083 467.23719 471.7099 475.02333 480.13298 487.83323 491.19673 498.48908 504.2213 507.53474 518.01168 525.7119 533.4408 539.17306 546.4654 549.7788 561.48666 568.5071 571.8706">and structured way, a set of rules whose main</tspan></text>
<text xml:space="preserve" transform="matrix(.75 0 0 .75 72 173.63282)" font-size="14.666667" font-family="Calibri"><tspan y="14.2369799" x="0 7.728882 15.429138 18.93576 26.228104 32.42552 37.334794 40.698289 47.174699 54.46704 57.78044 61.143938 66.87619 70.18959 74.95563 82.68451 85.99791 90.914188 98.12775 103.03702 108.14667 111.51016 118.73088 125.20729 132.49964 135.81304 140.7223 148.42256 155.7149 159.0283 165.69089 173.39115 181.06273 191.53966 194.90316 202.1955 209.89575 216.67275 223.96509 227.27849 234.29889 241.99915 249.6994 253.0128 260.71308 264.07658 269.80885 277.5091 280.8726 287.62086">objective is to retrieve the knowledge and display</tspan></text>
<text xml:space="preserve" transform="matrix(.75 0 0 .75 72 173.63282)" font-size="14.666667" font-family="Calibri"><tspan y="14.2369799" x="297.56819 300.93168 305.84095 309.15437 313.9204 321.6493 324.9627 329.87199 337.57225 344.86457 348.17799 355.87825 361.61048 368.90284 374.01249 377.32588 385.02613 391.80305 398.27946 405.57179 408.8852 416.58546 423.8778 431.17018 438.87043 442.18385 448.38127 453.29756 460.5899 467.47425 472.22596 479.5183 487.21858">it to the user have been created.</tspan></text>
<text xml:space="preserve" transform="matrix(.75 0 0 .75 72 199.07422)" font-size="14.666667" font-family="Calibri"><tspan y="14.2369799" x="0 7.1420595 14.842316 22.134659 25.44806 30.364335 37.656679 43.38893 51.089189 54.452684 59.361955 62.675355 70.404239 74.87697 78.19037 83.09964 90.7999 98.09224 103.82449 111.11684 114.43024 119.53989 127.24014 130.60364 137.89598 143.62824 146.94164 153.0173 160.0377 167.73796 171.05136 178.75162 186.04396 189.35736 196.37776 202.57518 208.7726 216.06494 221.7972 227.52945 234.8218 242.52205 245.83545 253.5357 259.26795 262.63145 270.3317 277.23045 280.54383 285.4531 293.15336">The result of these rules can be accessed using the</tspan></text>
<text xml:space="preserve" transform="matrix(.75 0 0 .75 72 199.07422)" font-size="14.666667" font-family="Calibri"><tspan y="14.2369799" x="303.75914 315.46696 322.48738 325.85087 333.55113 340.85063 344.2141 351.943 359.67189 367.37214 370.68556 375.7952 383.49546 386.85896 394.1513 399.88356 403.19697 413.6739 421.37416 424.73765 430.93507 438.6353 441.94874 448.0244 455.0448 462.74507 466.05848 473.75874 481.0511 484.3645 491.3849 497.5823 502.49159 505.85508 512.2599 519.1442 523.89596 531.1883 538.88858 542.20199 549.22238 556.9226 564.62289 567.9363 575.63656 580.7462 584.10977 591.81">main_loop rules which can be activated and bring</tspan></text>
<text xml:space="preserve" transform="matrix(.75 0 0 .75 72 214.51563)" font-size="14.666667" font-family="Calibri"><tspan y="14.2369799" x="0 4.9092714 12.609528 19.90187 23.215271 28.782807 33.51303 40.397356 45.149065 52.441408 55.754808 63.48369 67.95642 71.26982 76.17909 83.87935 91.17169 94.48509 102.18535 107.058658 114.78754 121.68628 126.49513 133.51554 145.22336 148.53676 151.90026 159.60051 162.91391 169.93431 177.63457 180.94797 184.31147 191.92577 196.3985 199.762 207.46225 210.82575 215.57746 222.8698 226.1832 229.54669 237.27558 245.00446 252.70471 256.01814 263.71839 271.41865 274.78215 282.07447 287.8067">the state of the program in an infinite loop unless</tspan></text>
<text xml:space="preserve" transform="matrix(.75 0 0 .75 72 214.51563)" font-size="14.666667" font-family="Calibri"><tspan y="14.2369799" x="296.85237 301.76164 309.46189 316.7542 320.06764 327.76789 333.50013 340.79249 345.90214 349.2155 356.91578 364.20814 370.40556 373.76905 381.4693 388.76167 394.4939 397.8073 402.57337 410.30226 413.61567 420.68598 427.0337 430.3972 435.30647">the user decides to exit.</tspan></text>
</g>
<clipPath id="cp118">
<path d="M 69.75 266.1504 L 522.75 266.1504 L 522.75 543.2637 L 69.75 543.2637 Z " fill-rule="evenodd"/>
</clipPath>
<g clip-path="url(#cp118)">
<text fill="#434f54" xml:space="preserve" transform="matrix(.75 0 0 .75 74.25 271.4004)" font-size="14.666667" font-family="Consolas" font-style="italic"><tspan y="13.399089" x="16.11615 24.174225 32.2323 40.290376 48.34845 56.406526 64.4646 72.522678 80.58075 88.638828 96.6969">main_loop:-</tspan></text>
<text fill="#434f54" xml:space="preserve" transform="matrix(.75 0 0 .75 74.25 286.21095)" font-size="14.666667" font-family="Consolas" font-style="italic"><tspan y="13.399089" x="144 152.05808 160.11615 168.17423 176.2323 184.29038">write(</tspan></text>
<text fill="#005c5f" xml:space="preserve" transform="matrix(.75 0 0 .75 74.25 286.21095)" font-size="14.666667" font-family="Consolas" font-style="italic"><tspan y="13.399089" x="192.34845 200.40653 208.4646 216.52268 224.58075 232.63883 240.6969 248.75498 256.81306 264.87113 272.9292 280.98728 289.04536 297.10343 305.1615 313.21958">'---- START----'</tspan></text>
<text fill="#434f54" xml:space="preserve" transform="matrix(.75 0 0 .75 74.25 286.21095)" font-size="14.666667" font-family="Consolas" font-style="italic"><tspan y="13.399089" x="321.27766 329.33573 337.3938 345.45188 353.50996">),nl,</tspan></text>
<text fill="#434f54" xml:space="preserve" transform="matrix(.75 0 0 .75 74.25 301.02345)" font-size="14.666667" font-family="Consolas" font-style="italic"><tspan y="13.399089" x="144 152.05808 160.11615 168.17423 176.2323 184.29038 192.34845 200.40653 208.4646 216.52268 224.58075 232.63883">create_list,</tspan></text>
<text fill="#434f54" xml:space="preserve" transform="matrix(.75 0 0 .75 74.25 315.83595)" font-size="14.666667" font-family="Consolas" font-style="italic"><tspan y="13.399089" x="144 152.05808 160.11615 168.17423 176.2323 184.29038 192.34845 200.40653 208.4646 216.52268 224.58075 232.63883 240.6969 248.75498 256.81306 264.87113 272.9292">write('\33\[2J'),</tspan></text>
<text fill="#434f54" xml:space="preserve" transform="matrix(.75 0 0 .75 74.25 330.64845)" font-size="14.666667" font-family="Consolas" font-style="italic"><tspan y="13.399089" x="144 152.05808 160.11615 168.17423 176.2323 184.29038 192.34845">repeat,</tspan></text>
<text fill="#434f54" xml:space="preserve" transform="matrix(.75 0 0 .75 74.25 345.45899)" font-size="14.666667" font-family="Consolas" font-style="italic"><tspan y="13.399089" x="144 152.05808 160.11615 168.17423 176.2323 184.29038">write(</tspan></text>
<text fill="#005c5f" xml:space="preserve" transform="matrix(.75 0 0 .75 74.25 345.45899)" font-size="14.666667" font-family="Consolas" font-style="italic"><tspan y="13.399089" x="192.34845 200.40653 208.4646 216.52268 224.58075 232.63883 240.6969 248.75498 256.81306 264.87113 272.9292 280.98728 289.04536 297.10343 305.1615 313.21958 321.27766">'----Persons----'</tspan></text>
<text fill="#434f54" xml:space="preserve" transform="matrix(.75 0 0 .75 74.25 345.45899)" font-size="14.666667" font-family="Consolas" font-style="italic"><tspan y="13.399089" x="329.33573 337.3938 345.45188 353.50996 361.56803">),nl,</tspan></text>
<text fill="#434f54" xml:space="preserve" transform="matrix(.75 0 0 .75 74.25 360.27149)" font-size="14.666667" font-family="Consolas" font-style="italic"><tspan y="13.399089" x="144 152.05808 160.11615 168.17423 176.2323 184.29038 192.34845 200.40653 208.4646 216.52268 224.58075 232.63883 240.6969">print_person,</tspan></text>
<text fill="#434f54" xml:space="preserve" transform="matrix(.75 0 0 .75 74.25 375.08399)" font-size="14.666667" font-family="Consolas" font-style="italic"><tspan y="13.399089" x="144 152.05808 160.11615 168.17423 176.2323 184.29038">write(</tspan></text>
<text fill="#005c5f" xml:space="preserve" transform="matrix(.75 0 0 .75 74.25 375.08399)" font-size="14.666667" font-family="Consolas" font-style="italic"><tspan y="13.399089" x="192.34845 200.40653 208.4646 216.52268 224.58075 232.63883 240.6969 248.75498 256.81306 264.87113 272.9292 280.98728 289.04536 297.10343 305.1615 313.21958 321.27766 329.33573 337.3938 345.45188 353.50996 361.56803 369.6261">'----Organizations----'</tspan></text>
<text fill="#434f54" xml:space="preserve" transform="matrix(.75 0 0 .75 74.25 375.08399)" font-size="14.666667" font-family="Consolas" font-style="italic"><tspan y="13.399089" x="377.68418 385.74226 393.80033 401.8584 409.91648">),nl,</tspan></text>
<text fill="#434f54" xml:space="preserve" transform="matrix(.75 0 0 .75 74.25 389.89454)" font-size="14.666667" font-family="Consolas" font-style="italic"><tspan y="13.399089" x="144 152.05808 160.11615 168.17423 176.2323 184.29038 192.34845 200.40653 208.4646 216.52268 224.58075 232.63883 240.6969 248.75498 256.81306 264.87113 272.9292 280.98728 289.04536">print_organization,</tspan></text>
<text fill="#434f54" xml:space="preserve" transform="matrix(.75 0 0 .75 74.25 404.70704)" font-size="14.666667" font-family="Consolas" font-style="italic"><tspan y="13.399089" x="144 152.05808 160.11615 168.17423 176.2323 184.29038">write(</tspan></text>
<text fill="#005c5f" xml:space="preserve" transform="matrix(.75 0 0 .75 74.25 404.70704)" font-size="14.666667" font-family="Consolas" font-style="italic"><tspan y="13.399089" x="192.34845 200.40653 208.4646 216.52268 224.58075 232.63883 240.6969 248.75498 256.81306 264.87113 272.9292 280.98728 289.04536 297.10343 305.1615 313.21958 321.27766 329.33573 337.3938 345.45188 353.50996 361.56803 369.6261 377.68418 385.74226 393.80033 401.8584 409.91648 417.97456 426.03263 434.0907 442.14878 450.20686 458.26493 466.323 474.38108 482.43916 490.49723 498.5553 506.61338">'write the name between single apices: '</tspan></text>
<text fill="#434f54" xml:space="preserve" transform="matrix(.75 0 0 .75 74.25 404.70704)" font-size="14.666667" font-family="Consolas" font-style="italic"><tspan y="13.399089" x="514.67147 522.7295">),</tspan></text>
<text fill="#434f54" xml:space="preserve" transform="matrix(.75 0 0 .75 74.25 419.51759)" font-size="14.666667" font-family="Consolas" font-style="italic"><tspan y="13.399089" x="144 152.05808 160.11615 168.17423 176.2323">read(</tspan></text>
<text fill="#00979d" xml:space="preserve" transform="matrix(.75 0 0 .75 74.25 419.51759)" font-size="14.666667" font-family="Consolas" font-style="italic"><tspan y="13.399089" x="184.29038">X</tspan></text>
<text fill="#434f54" xml:space="preserve" transform="matrix(.75 0 0 .75 74.25 419.51759)" font-size="14.666667" font-family="Consolas" font-style="italic"><tspan y="13.399089" x="192.34845 200.40653">),</tspan></text>
<text fill="#434f54" xml:space="preserve" transform="matrix(.75 0 0 .75 74.25 434.33009)" font-size="14.666667" font-family="Consolas" font-style="italic"><tspan y="13.399089" x="144 152.05808 160.11615 168.17423 176.2323 184.29038">write(</tspan></text>
<text fill="#005c5f" xml:space="preserve" transform="matrix(.75 0 0 .75 74.25 434.33009)" font-size="14.666667" font-family="Consolas" font-style="italic"><tspan y="13.399089" x="192.34845 200.40653 208.4646 216.52268 224.58075 232.63883 240.6969 248.75498 256.81306">'\33\[2J'</tspan></text>
<text fill="#434f54" xml:space="preserve" transform="matrix(.75 0 0 .75 74.25 434.33009)" font-size="14.666667" font-family="Consolas" font-style="italic"><tspan y="13.399089" x="264.87113 272.9292">),</tspan></text>
<text fill="#434f54" xml:space="preserve" transform="matrix(.75 0 0 .75 74.25 449.14064)" font-size="14.666667" font-family="Consolas" font-style="italic"><tspan y="13.399089" x="144 152.05808 160.11615 168.17423 176.2323 184.29038 192.34845">format(</tspan></text>
<text fill="#005c5f" xml:space="preserve" transform="matrix(.75 0 0 .75 74.25 449.14064)" font-size="14.666667" font-family="Consolas" font-style="italic"><tspan y="13.399089" x="200.40653 208.4646 216.52268 224.58075 232.63883 240.6969 248.75498 256.81306 264.87113 272.9292 280.98728 289.04536 297.10343 305.1615 313.21958 321.27766 329.33573 337.3938 345.45188 353.50996 361.56803 369.6261 377.68418 385.74226 393.80033 401.8584 409.91648 417.97456 426.03263 434.0907 442.14878 450.20686 458.26493 466.323 474.38108 482.43916 490.49723 498.5553 506.61338 514.67147 522.7295 530.7876">' --------------- ~s ~w -------------- ~n'</tspan></text>
<text fill="#434f54" xml:space="preserve" transform="matrix(.75 0 0 .75 74.25 449.14064)" font-size="14.666667" font-family="Consolas" font-style="italic"><tspan y="13.399089" x="538.8457">,</tspan></text>
<text fill="#434f54" xml:space="preserve" transform="matrix(.75 0 0 .75 74.25 463.95314)" font-size="14.666667" font-family="Consolas" font-style="italic"><tspan y="13.399089" x="169.21958">[</tspan></text>
<text fill="#005c5f" xml:space="preserve" transform="matrix(.75 0 0 .75 74.25 463.95314)" font-size="14.666667" font-family="Consolas" font-style="italic"><tspan y="13.399089" x="177.27765 185.33573 193.3938 201.45188 209.50995 217.56803 225.6261 233.68418 241.74225 249.80033 257.8584 265.91648 273.97456 282.03263 290.0907 298.14878 306.20686 314.26493 322.323">'information about'</tspan></text>
<text fill="#434f54" xml:space="preserve" transform="matrix(.75 0 0 .75 74.25 463.95314)" font-size="14.666667" font-family="Consolas" font-style="italic"><tspan y="13.399089" x="330.38108">,</tspan></text>
<text fill="#00979d" xml:space="preserve" transform="matrix(.75 0 0 .75 74.25 463.95314)" font-size="14.666667" font-family="Consolas" font-style="italic"><tspan y="13.399089" x="338.43916">X</tspan></text>
<text fill="#434f54" xml:space="preserve" transform="matrix(.75 0 0 .75 74.25 463.95314)" font-size="14.666667" font-family="Consolas" font-style="italic"><tspan y="13.399089" x="346.49723 354.5553 362.61338">]),</tspan></text>
<text fill="#434f54" xml:space="preserve" transform="matrix(.75 0 0 .75 74.25 478.76564)" font-size="14.666667" font-family="Consolas" font-style="italic"><tspan y="13.399089" x="144 152.05808 160.11615 168.17423 176.2323 184.29038 192.34845 200.40653 208.4646 216.52268 224.58075 232.63883">choose_loop(</tspan></text>
<text fill="#00979d" xml:space="preserve" transform="matrix(.75 0 0 .75 74.25 478.76564)" font-size="14.666667" font-family="Consolas" font-style="italic"><tspan y="13.399089" x="240.6969">X</tspan></text>
<text fill="#434f54" xml:space="preserve" transform="matrix(.75 0 0 .75 74.25 478.76564)" font-size="14.666667" font-family="Consolas" font-style="italic"><tspan y="13.399089" x="248.75498 256.81306">),</tspan></text>
<text fill="#434f54" xml:space="preserve" transform="matrix(.75 0 0 .75 74.25 493.57814)" font-size="14.666667" font-family="Consolas" font-style="italic"><tspan y="13.399089" x="144 152.05808 160.11615 168.17423 176.2323 184.29038">write(</tspan></text>
<text fill="#005c5f" xml:space="preserve" transform="matrix(.75 0 0 .75 74.25 493.57814)" font-size="14.666667" font-family="Consolas" font-style="italic"><tspan y="13.399089" x="192.34845 200.40653 208.4646 216.52268 224.58075 232.63883 240.6969 248.75498 256.81306 264.87113 272.9292 280.98728 289.04536 297.10343 305.1615 313.21958 321.27766 329.33573 337.3938 345.45188 353.50996 361.56803 369.6261 377.68418 385.74226 393.80033 401.8584 409.91648 417.97456 426.03263 434.0907 442.14878 450.20686 458.26493 466.323 474.38108">'Do you want to start again? y/n : '</tspan></text>
<text fill="#434f54" xml:space="preserve" transform="matrix(.75 0 0 .75 74.25 493.57814)" font-size="14.666667" font-family="Consolas" font-style="italic"><tspan y="13.399089" x="482.43916 490.49723">),</tspan></text>
<text fill="#434f54" xml:space="preserve" transform="matrix(.75 0 0 .75 74.25 508.39064)" font-size="14.666667" font-family="Consolas" font-style="italic"><tspan y="13.399089" x="144 152.05808 160.11615 168.17423 176.2323">read(</tspan></text>
<text fill="#00979d" xml:space="preserve" transform="matrix(.75 0 0 .75 74.25 508.39064)" font-size="14.666667" font-family="Consolas" font-style="italic"><tspan y="13.399089" x="184.29038">R</tspan></text>
<text fill="#434f54" xml:space="preserve" transform="matrix(.75 0 0 .75 74.25 508.39064)" font-size="14.666667" font-family="Consolas" font-style="italic"><tspan y="13.399089" x="192.34845 200.40653">),</tspan></text>
<text fill="#434f54" xml:space="preserve" transform="matrix(.75 0 0 .75 74.25 523.2012)" font-size="14.666667" font-family="Consolas" font-style="italic"><tspan y="13.399089" x="144">(</tspan></text>
<text fill="#00979d" xml:space="preserve" transform="matrix(.75 0 0 .75 74.25 523.2012)" font-size="14.666667" font-family="Consolas" font-style="italic"><tspan y="13.399089" x="152.05808">R</tspan></text>
<text fill="#434f54" xml:space="preserve" transform="matrix(.75 0 0 .75 74.25 523.2012)" font-size="14.666667" font-family="Consolas" font-style="italic"><tspan y="13.399089" x="168.17423">=</tspan></text>
<text fill="#005c5f" xml:space="preserve" transform="matrix(.75 0 0 .75 74.25 523.2012)" font-size="14.666667" font-family="Consolas" font-style="italic"><tspan y="13.399089" x="184.29038 192.34845 200.40653">'n'</tspan></text>
<text fill="#434f54" xml:space="preserve" transform="matrix(.75 0 0 .75 74.25 523.2012)" font-size="14.666667" font-family="Consolas" font-style="italic"><tspan y="13.399089" x="208.4646 216.52268 224.58075 232.63883 240.6969 248.75498 256.81306 264.87113 272.9292 280.98728 289.04536 297.10343">, !; fail ).</tspan></text>
</g>
<clipPath id="cp119">
<path d="M 0 0 L 595.5 0 L 595.5 842.25 L 0 842.25 Z " fill-rule="evenodd"/>
</clipPath>
<g clip-path="url(#cp119)">
<text xml:space="preserve" transform="matrix(.75 0 0 .75 72 569.4551)" font-size="14.666667" font-family="Calibri"><tspan y="14.2369799" x="0 13.03891 20.739167 28.03151">When</tspan></text>
<text xml:space="preserve" transform="matrix(.75 0 0 .75 72 569.4551)" font-size="14.666667" font-family="Calibri" font-style="italic"><tspan y="14.2369799" x="39.045167 50.63849 58.17415 61.537645 69.0733 76.3728 79.7363 87.257648 94.77899">main_loop</tspan></text>
<text xml:space="preserve" transform="matrix(.75 0 0 .75 72 569.4551)" font-size="14.666667" font-family="Calibri"><tspan y="14.2369799" x="105.62805 108.99155 114.7238 118.0372 124.11287 131.84175 139.542 145.27426 152.97452 156.33802 161.08972 168.38207 176.08232 179.39572 184.305 192.00525 199.29759 202.611 205.97449 209.33798 214.90552 219.81479 223.12819 230.85707 235.3298 238.6432 246.34346 253.6358 258.4948 264.22706 271.95594 279.6562 285.38844 288.70185 295.72224 303.4225">is consulted the list of persons and</tspan></text>
<text xml:space="preserve" transform="matrix(.75 0 0 .75 72 569.4551)" font-size="14.666667" font-family="Calibri"><tspan y="14.2369799" x="314.43617 322.16505 327.07417 333.70075 340.72114 348.4214 351.78489 357.33088 364.2152 369.12449 372.48799 380.21687 387.9171 393.64936 396.96278 403.98316 408.8994 416.19178 419.5052 427.20545 432.3151 435.6786 443.24278 447.99449 455.2868 462.98707 466.30049 471.06654 478.7954 482.10884 487.0181 494.71836 502.01069 505.3241 511.05635 517.2538 522.17007 529.4624 536.75479 544.455 547.76846 554.7888 562.4891 570.18936 573.5027 578.412 586.11227">organizations are printed to the screen and the</tspan></text>
<text xml:space="preserve" transform="matrix(.75 0 0 .75 72 584.89846)" font-size="14.666667" font-family="Calibri"><tspan y="14.2369799" x="0 7.7002565 15.429138 21.161393 26.893647 30.257142 37.957399 41.320894 44.684389 48.047883 52.957155 59.59111 62.90451 67.67055 75.39943 78.71283 84.91025 92.610507 100.339389 108.06827 113.80052 121.092868 124.406269 131.42667 139.12693 142.44033 149.73267 153.09616 160.3885 172.09633 179.38867 186.95285 191.86212 195.17552 198.53902 206.23928 209.55268 214.46195 222.1622 229.45455 232.76795 236.13144 239.49494 245.06247 249.97174 253.28514 256.64863 262.38087 265.69429 272.59303 275.9565 282.43293 289.72526 297.4255">possibility to choose an element in the list is given.</tspan></text>
<text xml:space="preserve" transform="matrix(.75 0 0 .75 72 584.89846)" font-size="14.666667" font-family="Calibri"><tspan y="14.2369799" x="304.43879 317.4777 325.17796 332.47029 340.17054 343.48396 348.39323 356.09349 363.3858 366.69923 374.39949 380.1317 387.42408 392.53373 395.8471 406.32405 411.4337 414.79719 419.5489 426.84126 432.5735 435.8869 442.9073 446.2207 452.6255 459.64588 463.00938 466.37287 474.07313 477.38655 482.95408 487.86335 492.973 496.3365 504.03675 510.9355 514.2489 519.1582 526.85848 534.1508 537.46426 542.57388 550.2741 553.6376">When the user writes a valid string the rule</tspan></text>
<text xml:space="preserve" transform="matrix(.75 0 0 .75 72 600.33987)" font-size="14.666667" font-family="Calibri"><tspan y="14.2369799" x="0 6.197418 13.897675 21.626557 29.355439 35.087694 42.380037 49.679536 53.04303 60.77191 68.50079 76.20105 81.86174 89.290058 92.603458 98.67912 105.699527 109.06302 112.42651 118.15877 121.47217 126.38144 134.0817 141.37404 144.68744 150.4197 157.63326 162.54253 165.85593 173.58481 178.05754 181.37094 186.48059 194.18085 197.54434 204.83669 210.56894 213.88234 219.6146 227.31485 234.6072 240.80461 244.1681 248.64084 252.00434 258.20176 261.51515 266.2812 274.01008 277.3235 284.34388">choose_loop/1 calls the set of rules specific to an</tspan></text>
<text xml:space="preserve" transform="matrix(.75 0 0 .75 72 600.33987)" font-size="14.666667" font-family="Calibri"><tspan y="14.2369799" x="295.35755 303.08644 307.99555 314.62214 321.64253 329.34278 332.70628 338.25227 345.1366 350.04588 353.40937 361.13825 368.8385 372.15193 379.8808 384.99046 388.30384 395.32423 398.63764 406.3379 413.63026 418.48927 424.2215 431.95039 439.65065 442.96406 450.6643 457.95668 465.65693 472.94929 480.64955 488.3498 491.7133 499.41355 506.3123 509.62568 517.35458 525.0548 528.3682 533.27749 540.9777 548.2701 551.5835 558.87588 562.2394 569.53176 581.23959 588.5319 596.09609">organization or a person depending on the element</tspan></text>
<text xml:space="preserve" transform="matrix(.75 0 0 .75 72 615.78128)" font-size="14.666667" font-family="Calibri"><tspan y="14.2369799" x="0 6.197418 13.897675 21.626557 27.35881 34.651155 42.35141">chosen.</tspan></text>
<text xml:space="preserve" transform="matrix(.75 0 0 .75 72 641.22268)" font-size="14.666667" font-family="Calibri" font-style="italic"><tspan y="14.2369799" x="0 3.3634949 10.899155 15.192841 22.714188 30.013688 37.549348 44.54828">info_per</tspan></text>
<text xml:space="preserve" transform="matrix(.75 0 0 .75 72 641.22268)" font-size="14.666667" font-family="Calibri"><tspan y="14.2369799" x="49.572053 55.232744 62.661058 65.97446 72.99486 80.695117">/1 and</tspan></text>
<text xml:space="preserve" transform="matrix(.75 0 0 .75 72 641.22268)" font-size="14.666667" font-family="Calibri" font-style="italic"><tspan y="14.2369799" x="91.70877 95.072269 102.607929 106.90161 114.42296 121.72246 129.2438 134.26758">info_org</tspan></text>
<text xml:space="preserve" transform="matrix(.75 0 0 .75 72 641.22268)" font-size="14.666667" font-family="Calibri"><tspan y="14.2369799" x="141.80324 147.46393 154.89225 158.20565 165.10439 169.97769 177.70658 185.40683 193.03546 198.76772 202.08112 206.99039 214.69065 221.98299 225.29639 230.40604 238.1063 241.46979 248.76213 254.49439 257.8078 261.9726 269.70149 274.81114 278.1245 285.82478 289.18827 294.92054 302.6208 305.98429 312.73255 319.36653 322.73 330.43028">/1 groups the rules for displaying</tspan></text>
<text xml:space="preserve" transform="matrix(.75 0 0 .75 72 641.22268)" font-size="14.666667" font-family="Calibri"><tspan y="14.2369799" x="340.64237 345.55165 353.2519 360.54426 363.85768 367.22117 374.83546 379.00025 386.72914 391.83879 403.5466 410.4309 415.34019 418.70368 426.43257 434.1328 437.44624 444.4666 452.16688 459.89576 467.596 472.50529 475.81867 483.51893 490.81129 495.6703 501.40254 509.1314 516.83169 522.5639 525.8773 532.8977 540.59799">the information about persons and</tspan></text>
<text xml:space="preserve" transform="matrix(.75 0 0 .75 72 656.66409)" font-size="14.666667" font-family="Calibri"><tspan y="14.2369799" x="0 7.728882 12.6380009 19.264603 26.285004 33.98526 37.348756 42.89476 49.779085 54.688356 58.05185 65.78073 73.48099">organization.</tspan></text>
</g>
<clipPath id="cp120">
<path d="M 72.75 708.2988 L 522.75 708.2988 L 522.75 763.2344 L 72.75 763.2344 Z " fill-rule="evenodd"/>
</clipPath>
<g clip-path="url(#cp120)">
<text fill="#434f54" xml:space="preserve" transform="matrix(.75 0 0 .75 77.25 713.5488)" font-size="14.666667" font-family="Consolas"><tspan y="13.399089" x="0 8.058075 16.11615 24.174225 32.2323 40.290376 48.34845 56.406526 64.4646">info_per(</tspan></text>
<text fill="#00979d" xml:space="preserve" transform="matrix(.75 0 0 .75 77.25 713.5488)" font-size="14.666667" font-family="Consolas"><tspan y="13.399089" x="72.522678 80.58075 88.638828">PER</tspan></text>
<text fill="#434f54" xml:space="preserve" transform="matrix(.75 0 0 .75 77.25 713.5488)" font-size="14.666667" font-family="Consolas"><tspan y="13.399089" x="96.6969 104.754978 112.81305">):-</tspan></text>
<text fill="#434f54" xml:space="preserve" transform="matrix(.75 0 0 .75 77.25 713.5488)" font-size="14.666667" font-family="Consolas"><tspan y="13.399089" x="192.34845 200.40653 208.4646 216.52268 224.58075 232.63883 240.6969 248.75498 256.81306 264.87113 272.9292 280.98728">print_alias(</tspan></text>
<text fill="#00979d" xml:space="preserve" transform="matrix(.75 0 0 .75 77.25 713.5488)" font-size="14.666667" font-family="Consolas"><tspan y="13.399089" x="289.04536 297.10343 305.1615">PER</tspan></text>
<text fill="#434f54" xml:space="preserve" transform="matrix(.75 0 0 .75 77.25 713.5488)" font-size="14.666667" font-family="Consolas"><tspan y="13.399089" x="313.21958 321.27766">),</tspan></text>
<text fill="#434f54" xml:space="preserve" transform="matrix(.75 0 0 .75 77.25 728.3594)" font-size="14.666667" font-family="Consolas"><tspan y="13.399089" x="192 200.05808 208.11615 216.17423 224.2323 232.29038 240.34845 248.40653 256.4646 264.52268 272.58076 280.63883 288.6969 296.75498">print_live_in(</tspan></text>
<text fill="#00979d" xml:space="preserve" transform="matrix(.75 0 0 .75 77.25 728.3594)" font-size="14.666667" font-family="Consolas"><tspan y="13.399089" x="304.81306 312.87113 320.9292">PER</tspan></text>
<text fill="#434f54" xml:space="preserve" transform="matrix(.75 0 0 .75 77.25 728.3594)" font-size="14.666667" font-family="Consolas"><tspan y="13.399089" x="328.98728 337.04536">),</tspan></text>
<text fill="#434f54" xml:space="preserve" transform="matrix(.75 0 0 .75 77.25 743.1719)" font-size="14.666667" font-family="Consolas"><tspan y="13.399089" x="192 200.05808 208.11615 216.17423 224.2323 232.29038 240.34845 248.40653 256.4646 264.52268 272.58076 280.63883 288.6969 296.75498 304.81306 312.87113">print_when_born(</tspan></text>
<text fill="#00979d" xml:space="preserve" transform="matrix(.75 0 0 .75 77.25 743.1719)" font-size="14.666667" font-family="Consolas"><tspan y="13.399089" x="320.9292 328.98728 337.04536">PER</tspan></text>
<text fill="#434f54" xml:space="preserve" transform="matrix(.75 0 0 .75 77.25 743.1719)" font-size="14.666667" font-family="Consolas"><tspan y="13.399089" x="345.10343 353.1615">),</tspan></text>
</g>
<clipPath id="cp121">
<path d="M 0 0 L 595.5 0 L 595.5 842.25 L 0 842.25 Z " fill-rule="evenodd"/>
</clipPath>
<g clip-path="url(#cp121)">
<path transform="matrix(.75,0,0,.75,72,265.4004)" stroke-width="1.3333334" stroke-linecap="butt" stroke-miterlimit="10" stroke-linejoin="miter" fill="none" stroke="#000000" d="M -3.3333333 -.5332031 L -3.3333333 371.4668 "/>
<path transform="matrix(.75,0,0,.75,72,265.4004)" stroke-width="1.3333334" stroke-linecap="butt" stroke-miterlimit="10" stroke-linejoin="miter" fill="none" stroke="#000000" d="M 600.6667 -.5332031 L 600.6667 371.4668 "/>
<path transform="matrix(.75,0,0,.75,72,265.4004)" stroke-width="1.3333334" stroke-linecap="butt" stroke-miterlimit="10" stroke-linejoin="miter" fill="none" stroke="#000000" d="M -4 .13346355 L 601.3333 .13346355 "/>
<path transform="matrix(.75,0,0,.75,72,265.4004)" stroke-width="1.3333334" stroke-linecap="butt" stroke-miterlimit="10" stroke-linejoin="miter" fill="none" stroke="#000000" d="M -4 370.80015 L 601.3333 370.80015 "/>
<path transform="matrix(.75,0,0,.75,72,707.5488)" stroke-width="1.3333334" stroke-linecap="butt" stroke-miterlimit="10" stroke-linejoin="miter" fill="none" stroke="#000000" d="M .6666667 -.7315104 L .6666667 75.268489 "/>
<path transform="matrix(.75,0,0,.75,72,707.5488)" stroke-width="1.3333334" stroke-linecap="butt" stroke-miterlimit="10" stroke-linejoin="miter" fill="none" stroke="#000000" d="M 600.6667 -.7315104 L 600.6667 75.268489 "/>
<path transform="matrix(.75,0,0,.75,72,707.5488)" stroke-width="1.3333334" stroke-linecap="butt" stroke-miterlimit="10" stroke-linejoin="miter" fill="none" stroke="#000000" d="M 0 -.06484375 L 601.3333 -.06484375 "/>
<path transform="matrix(.75,0,0,.75,72,707.5488)" stroke-width="1.3333334" stroke-linecap="butt" stroke-miterlimit="10" stroke-linejoin="miter" fill="none" stroke="#000000" d="M 0 74.60182 L 601.3333 74.60182 "/>
</g>
</g>
</svg>
