<?xml version="1.0" encoding="UTF-8" standalone="no"?>
<!DOCTYPE svg PUBLIC "-//W3C//DTD SVG 1.1//EN" "http://www.w3.org/Graphics/SVG/1.1/DTD/svg11.dtd">
<svg xmlns="http://www.w3.org/2000/svg" xmlns:xlink="http://www.w3.org/1999/xlink" version="1.1" width="596pt" height="842pt" viewBox="0 0 596 842">
<g enable-background="new">
<clipPath id="cp93">
<path d="M 0 0 L 595.5 0 L 595.5 842.25 L 0 842.25 Z " fill-rule="evenodd"/>
</clipPath>
<g clip-path="url(#cp93)">
<path transform="matrix(.75,0,0,.75,0,0)" d="M 0 0 L 794 0 L 794 1123 L 0 1123 Z " fill="#ffffff"/>
</g>
<clipPath id="cp94">
<path d="M 0 0 L 595.5 0 L 595.5 842.25 L 0 842.25 Z " fill-rule="evenodd"/>
</clipPath>
<g clip-path="url(#cp94)">
<text xml:space="preserve" transform="matrix(.75 0 0 .75 72 72)" font-size="14.666667" font-family="Calibri"><tspan y="14.2369799" x="48 55.14206 62.842317 70.13466 73.44806 79.64548 84.56175 91.854099 98.73842 103.64769 107.011188 114.74007 122.44032 125.75372 133.4826 137.95534 141.26874 146.17801 153.87827 161.17061 166.90287 174.1952 177.5086 181.69487 188.71527 194.91269 199.82196 205.55422 209.21112 212.52452 215.88802 220.79729 224.11069 227.47418 233.20644 236.51984 244.24872 251.94898 255.31247 261.9464 265.25984 272.96009 280.68898 288.38923 295.68159 298.995 306.72389 314.42414 321.71647 325.02989 329.93916 333.30265 345.01048 352.30284 355.95976 359.27317 369.7501 373.1136 378.02287 385.7231 393.452 401.15226 406.06153 409.3749 417.07518 424.77543 432.47569 435.83918 439.20268 445.27836 452.16264 456.91435 464.2067 469.93894 473.86064 477.17405 482.0833 489.78358 493.14707 498.8793 502.19273 505.5562 511.28849 514.6019 522.3022 530.03109 537.7313 545.0237 548.3371 558.814 562.17758 567.08688 574.7871 578.1005 583.0098 590.7101">The creation of these facts, it is only done one time, without duplicates; this is done with the</tspan></text>
<text xml:space="preserve" transform="matrix(.75 0 0 .75 72 87.44141)" font-size="14.666667" font-family="Calibri"><tspan y="14.2369799" x="48 55.700258 62.9926 66.356098 74.05635 77.36975 85.09863 89.571369 92.884769 99.90517 107.60542 110.91882 119.399127 124.50877 129.31763 136.06589 142.69985 148.86148 152.22498 157.79251 162.70178 166.01519 170.92446 178.62471 185.50904 190.4183 193.7317 199.80738 207.53626 215.10044 219.83066 226.85106 230.21456 237.91481 243.64707 246.96047 253.98087 257.34437 260.70787 264.02125 268.9305 276.63078 283.9231 287.2365 290.6 298.30027 304.03254 307.34596 315.07484">help of an ArrayList that contains all the ids of</tspan></text>
<text xml:space="preserve" transform="matrix(.75 0 0 .75 72 87.44141)" font-size="14.666667" font-family="Calibri"><tspan y="14.2369799" x="322.86097 327.77024 335.4705 342.76283 346.07624 353.09663 356.4601 361.3764 368.66877 375.68916 383.3894 390.02339 393.3368 399.5342 404.4505 411.74287 418.6272 423.3789 430.67127 438.37153 441.68495 445.87123 452.8916 459.08903 463.9983 469.73054">the already created facts.</tspan></text>
<text xml:space="preserve" transform="matrix(.75 0 0 .75 72 112.88281)" font-size="14.666667" font-family="Calibri"><tspan y="14.2369799" x="48 54.734148 58.09764 65.7979 72.8183 76.18179 79.54529 86.179248 89.492649 92.85614 97.76541 101.07881 111.55574 116.66539 120.028888 124.780597 132.07294 137.80519 141.11859 146.02787 153.72812 161.02046 164.33386 170.67412 177.69452 183.89194 188.80121 192.11461 199.84349 207.54375 211.05037 218.34272 224.54013 229.4494 235.18166 238.49506 243.2611 250.98998 254.30338 259.21266 266.9129 274.20527 277.51869 281.9914 285.3549 288.71839 296.01075 299.32417 305.0564 312.75666 320.04899 326.2464 329.6099 334.0826 337.4461 344.73844">Finally it writes the Fact objects to the file specified</tspan></text>
<text xml:space="preserve" transform="matrix(.75 0 0 .75 72 112.88281)" font-size="14.666667" font-family="Calibri"><tspan y="14.2369799" x="355.7521 359.1156 366.81587 370.12928 373.49278 381.19303 388.89329 396.59355 401.5028">in input.</tspan></text>
<text xml:space="preserve" transform="matrix(.75 0 0 .75 72 138.32422)" font-size="14.666667" font-family="Calibri" font-weight="bold"><tspan y="14.2369799" x="24">-</tspan></text>
<text xml:space="preserve" transform="matrix(.75 0 0 .75 72 138.32422)" font-size="14.666667" font-family="Calibri" font-weight="bold"><tspan y="14.2369799" x="48 55.864854 63.729707 71.59456 75.194217 78.79387 84.92688 88.24028 96.455799 104.33496 112.21413 115.81378 123.192 130.4271 138.29195 141.60535 145.205 151.05176 160.7057 168.58487 176.44972 183.82794 188.3937 195.32108 200.4021 205.61194 209.2116 217.07645 224.02529 227.33869 230.93834 238.80319">public Boolean isNode(String id)</tspan></text>
<text xml:space="preserve" transform="matrix(.75 0 0 .75 72 138.32422)" font-size="14.666667" font-family="Calibri"><tspan y="14.2369799" x="243.36896 247.02587 250.33927 255.24854 262.9488 266.3123 272.04457 275.35798 287.0658 294.27937 299.18864 306.8889 314.61778 322.31803 325.6314 331.82884 339.52909 346.8214 353.01884 359.54536 365.2776">, this method checks,</tspan></text>
<text xml:space="preserve" transform="matrix(.75 0 0 .75 72 138.32422)" font-size="14.666667" font-family="Calibri"><tspan y="14.2369799" x="372.2479 382.72483 386.08833 390.9976 398.69786 402.01124 409.03163 412.34504 420.0453 427.74555 435.0379 440.21919 445.80757 449.46449 452.7779 456.1414 460.61415 463.92756 468.83683 476.53709 483.8294 487.14283 494.84309 502.57197 510.27223 517.5646 520.878 531.3549 534.7184 539.6277 547.32797 550.64138 555.55068 563.2509 570.5433 573.8567 577.2202">with a query, if the node with the id</tspan></text>
<text xml:space="preserve" transform="matrix(.75 0 0 .75 72 153.76758)" font-size="14.666667" font-family="Calibri"><tspan y="14.2369799" x="48 53.732255 61.43251 68.72485 74.92227 78.28577 82.7585 86.121997 93.41434 101.11459 104.42799 107.79149 115.491748 118.805149 122.16864 129.8689 137.56916 145.26941 150.17868 153.83559 157.14899 160.51248 166.24474 169.55814 176.57854 179.94203 184.8583 192.15065 199.17105 206.8713 213.50527 216.81867 224.51892 229.4352 236.72754 242.4598 249.75214 257.3163 262.2256 265.539 268.9025 276.60276 279.91615 284.8254 292.52568 299.818 303.1314 309.794 317.49427 325.16584 335.64277 339.00627 346.29859 353.99885 360.77583">specified in input, is already present in the knowledge</tspan></text>
<text xml:space="preserve" transform="matrix(.75 0 0 .75 72 153.76758)" font-size="14.666667" font-family="Calibri"><tspan y="14.2369799" x="371.3816 379.08186 386.10224 391.83448 399.12684 402.82667 406.14009 409.83277 414.74205 418.05543 422.97169 430.18525 435.0945 442.79478 447.90443 455.60469 461.3369 464.65034 469.5596 474.66926 482.3695 489.66188 492.97529 496.33879 500.81153 504.12495 507.48844 512.3977 515.7111 522.78146 529.12918 532.4927 538.0602 542.9695 548.7017 552.35867 555.67208 559.85836 566.8787 570.2422 575.9744">base. It returns true if it exists, false</tspan></text>
<text xml:space="preserve" transform="matrix(.75 0 0 .75 72 169.21094)" font-size="14.666667" font-family="Calibri"><tspan y="14.2369799" x="48 55.72888 60.638154 68.33841 75.63075 80.81917 91.2961 94.65959 100.391849 107.68419">otherwise.</tspan></text>
<text xml:space="preserve" transform="matrix(.75 0 0 .75 72 194.65235)" font-size="14.666667" font-family="Calibri" font-weight="bold"><tspan y="14.2369799" x="24">-</tspan></text>
<text xml:space="preserve" transform="matrix(.75 0 0 .75 72 194.65235)" font-size="14.666667" font-family="Calibri" font-weight="bold"><tspan y="14.2369799" x="48 55.864854 63.729707 71.59456 75.194217 78.79387 84.92688 88.24028 95.03873 102.91789 106.51755 114.3824 117.6958 124.93089 132.79575 140.6606 150.31455 158.19371 166.05857 173.43679 178.00255 184.92992 190.01094 195.22078 198.82044 206.68529 213.63413 216.94753 220.54718 228.41204 232.1906 235.504 242.43137 247.51239 252.72223 256.3219 264.18678 271.13563 274.44905 282.3139 289.549 301.47154 308.84977 312.62834 315.94175 322.8691 327.95014 333.15998 336.7596 344.62449">public void addNode(String id, String name, String</tspan></text>
<text xml:space="preserve" transform="matrix(.75 0 0 .75 72 194.65235)" font-size="14.666667" font-family="Calibri" font-weight="bold"><tspan y="14.2369799" x="354.8866 359.96763 366.9093 374.77418 382.1524">type)</tspan></text>
<text xml:space="preserve" transform="matrix(.75 0 0 .75 72 194.65235)" font-size="14.666667" font-family="Calibri"><tspan y="14.2369799" x="386.71815 390.37507 393.68849 400.70887 408.40913 416.10939 421.8416 425.15504 432.1754 435.48884 443.1891 450.4098 460.88673 464.20014 471.9004 479.62928 487.32954 494.6219 497.9353 502.70137 510.43025 513.74368 518.65298 526.3532 533.64559 536.959 543.8577 548.66659 555.68698 563.3872 571.08749 574.7444 578.0578 581.42129">, adds a new node to the graph, if</tspan></text>
<text xml:space="preserve" transform="matrix(.75 0 0 .75 72 210.09375)" font-size="14.666667" font-family="Calibri"><tspan y="14.2369799" x="48 55.700258 63.42914 68.33841 71.65181 78.67221 82.035709 86.95198 94.24432 101.264728 108.96498 115.59894 118.91234 126.612598 131.52887 138.82122 144.55347 151.84581 159.40999 164.31926 168.0191 171.3325 178.47457 186.17482 189.53832 195.27057 198.58397 210.2918 217.50536 222.41463 230.11489 237.84377 245.54402 248.85742 253.58765 260.60804 266.79795 274.09028 279.8225 283.13594 286.49943 294.19969 297.51307 300.87657 308.57679 316.27705 323.9773 328.88658 332.19996 337.10923 344.80949 349.72578 357.01814">not already present. This method takes in input three</tspan></text>
<text xml:space="preserve" transform="matrix(.75 0 0 .75 72 210.09375)" font-size="14.666667" font-family="Calibri"><tspan y="14.2369799" x="367.62394 374.3581 379.26737 384.377 387.7405 395.44078 402.3395 408.07179 411.7287 415.0421 422.74238 429.76277 441.47059 448.76295 452.12644 458.76039 462.0738 469.09419 476.79444 480.10786 483.47135 491.1716 494.8285 498.1419 505.1623 508.4757 516.17599 523.19638 534.9042 542.19656 545.50997 552.53036 560.2306 567.93087 571.24429">Strings, namely an id, a name and a</tspan></text>
<text xml:space="preserve" transform="matrix(.75 0 0 .75 72 225.53516)" font-size="14.666667" font-family="Calibri"><tspan y="14.2369799" x="48 52.90927 59.54323 67.243488 74.53583 77.84923 82.01401 89.74289 94.85254 98.16594 103.07521 110.77547 118.06781 121.38121 129.08147 136.81035 144.5106 151.80295 155.11635 159.88239 167.61127 170.92467 178.62493 185.91727 189.23067 192.59416 200.29442 206.02667 213.31902 218.42867 223.18038 230.47272 238.17298 241.87282 245.18622 248.8789 253.78818 257.10157 263.29899 270.99925 278.29158 284.48899 291.0155 296.74775 300.06117 303.42466 307.8974 311.21083 316.1201 323.82035">type for the node to be inserted. It checks if the</tspan></text>
<text xml:space="preserve" transform="matrix(.75 0 0 .75 72 225.53516)" font-size="14.666667" font-family="Calibri"><tspan y="14.2369799" x="334.4261 342.12635 349.85523 357.55549 364.84785 368.16127 371.52476 377.25703 380.57044 387.59083 390.9543 395.8706 403.16297 410.18336 417.8836 424.51759 427.831 435.53126 440.4475 447.73988 453.4721 460.76448 468.32865 473.2379 476.55134 487.02827 490.39176 495.30104 503.00129 506.3147 511.22398 518.9242 526.21658 529.52999 532.89346 538.6257 548.0864 555.8153 563.51559">node is already present with the isNode</tspan></text>
<text xml:space="preserve" transform="matrix(.75 0 0 .75 72 240.97657)" font-size="14.666667" font-family="Calibri"><tspan y="14.2369799" x="48 59.707826 66.92139 71.83066 79.530918 87.259799 94.96005 98.61696 101.93036 106.83963 114.53989 121.83223 129.53249 132.84589 139.78034 144.25307 149.00478 156.29712 161.40677 164.72017 172.01251 177.58005 182.31027 189.33068 197.03093 200.39443 203.75792 209.49018 217.19043 220.55393 228.25418 235.15293 238.46633 245.48673 248.80013 256.50038 263.72108 274.198 277.5114 284.24555 291.5379 297.27015 303.00239 306.36585 314.09474 321.79499 325.1084 328.4719 333.38117 336.69459 344.39485 351.6872 356.79685 360.9616 368.6905 373.80015 385.50798">method, then after establishing a new Session it performs</tspan></text>
<text xml:space="preserve" transform="matrix(.75 0 0 .75 72 240.97657)" font-size="14.666667" font-family="Calibri"><tspan y="14.2369799" x="394.55366 401.57405 404.88746 412.5877 420.28797 427.58033 432.7616 439.39558 442.70899 447.47505 455.20393 458.51734 465.53773 473.23799 480.93824 484.25166 491.27204 494.58546 502.2857 509.5064 519.98336 523.29678 531.02566 538.7259 542.23257 549.5249 555.7223 560.6316 563.945 568.71109 576.43997 579.75338 584.6626 592.36288">a query to add a new object to the</tspan></text>
<text xml:space="preserve" transform="matrix(.75 0 0 .75 72 256.41993)" font-size="14.666667" font-family="Calibri"><tspan y="14.2369799" x="48 55.700258 62.58458 67.314807 74.335208 82.03546 89.05586 94.78812 102.08046 105.737369 109.050769 119.527698 122.89119 127.80046 135.50072 138.81412 143.72339 151.42365 158.71599 162.02939 167.76165 175.4619 182.75424 188.95166 192.31516 196.78789 200.15139 207.44373 215.14398 218.45738 221.82088 229.52114 233.17804 236.49144 244.1917 251.2121 262.91993 270.21229 273.5257 280.54609 288.24635 295.9466 299.26 304.16929 310.80326 318.5035 325.79588">database, with the specified id, name and type.</tspan></text>
<text xml:space="preserve" transform="matrix(.75 0 0 .75 72 281.86134)" font-size="14.666667" font-family="Calibri" font-weight="bold"><tspan y="14.2369799" x="24">-</tspan></text>
<text xml:space="preserve" transform="matrix(.75 0 0 .75 72 281.86134)" font-size="14.666667" font-family="Calibri" font-weight="bold"><tspan y="14.2369799" x="48 55.864854 63.729707 71.59456 75.194217 78.79387 84.92688 88.24028 95.03873 102.91789 106.51755 114.3824 117.6958 124.93089 132.79575 140.6606 150.31455 158.19371 166.05857 173.43679 181.23723 186.26802 194.14719 202.01204 209.39026 214.6001 219.68112 226.6228 231.18857 238.11594 243.19696 248.4068 252.00646 259.8713 266.82014 270.13356 273.73323 281.59809 285.37666 288.69007 295.61744 300.69847 305.90834 309.508 317.37287 324.32173 327.63514 332.71617 339.65785 347.5227 354.90095">public void addNodeProperty(String id, String type)</tspan></text>
<text xml:space="preserve" transform="matrix(.75 0 0 .75 72 281.86134)" font-size="14.666667" font-family="Calibri"><tspan y="14.2369799" x="359.46656">,</tspan></text>
<text xml:space="preserve" transform="matrix(.75 0 0 .75 72 281.86134)" font-size="14.666667" font-family="Calibri"><tspan y="14.2369799" x="366.43684 371.3461 379.04637 382.40986 388.1421 391.4555 403.16334 410.3769 415.28617 422.98643 430.7153 438.41557 441.72895 448.74934 456.4496 464.14985 469.88209 473.1955 480.21589 483.5293 491.22956 496.10285 503.83174 511.53199 518.82437 523.93399 528.84329 535.47726 538.79067 543.5567 551.2856 554.599">this method adds a property to a</tspan></text>
<text xml:space="preserve" transform="matrix(.75 0 0 .75 72 297.30274)" font-size="14.666667" font-family="Calibri"><tspan y="14.2369799" x="48 53.732255 61.43251 68.72485 74.92227 78.28577 82.7585 86.121997 93.41434 101.11459 104.42799 112.12825 119.85713 127.55739 134.84973 138.50664 141.82004 148.75449 153.22722 157.97893 165.27127 170.38092 173.69432 179.89174 187.592 194.88434 201.08176 207.74434 211.10784 218.80809 225.70684 229.02024 232.38373 237.293 240.6064 247.67673 254.02443 257.38795 262.95549 267.86476 273.597 276.9104 287.38734 290.75083 295.6601 303.36036 306.67378 311.58305 319.2833">specified node, after checking it exists with the</tspan></text>
<text xml:space="preserve" transform="matrix(.75 0 0 .75 72 297.30274)" font-size="14.666667" font-family="Calibri"><tspan y="14.2369799" x="329.889 333.2525 338.98475 348.44548 356.17436 363.8746 371.16694 374.48036 386.18818 393.40174 398.311 406.01127 413.74015 421.4404 425.14027 428.45368 432.14637 437.05564 440.36903 445.09925 452.11964 458.30955 465.60188 471.3341 474.64753 478.01103 485.71128 489.02467 492.38816 500.0884 507.78868 515.4889 520.3982 523.7116 528.62088 536.3211 543.61349 546.9269 550.2904 557.99069 561.3041 569.03298 573.5057 576.8191 581.7284 589.42868">isNode method. It takes in input the id of the</tspan></text>
<text xml:space="preserve" transform="matrix(.75 0 0 .75 72 312.74415)" font-size="14.666667" font-family="Calibri"><tspan y="14.2369799" x="48 55.700258 63.42914 71.129398 78.42174 81.73514 88.75554 96.455799 104.15605 107.46945 112.37872 120.07898 127.37132 130.68473 138.38498 143.25829 150.98717 158.68743 165.97977 171.08942 175.99869 182.31037 186.79741 191.70668 198.34064 206.0409 213.33324 217.03308 220.34648 224.03917 228.94844 232.26184 239.28224 242.64574 248.37799 256.10688 259.4203 265.15254 272.3661 277.27537 283.00764 286.32106 291.23033 298.93058 306.22294 309.53636 312.89985 319.92027 327.6205 334.91288">node and the property-type. It also sets the label</tspan></text>
<text xml:space="preserve" transform="matrix(.75 0 0 .75 72 312.74415)" font-size="14.666667" font-family="Calibri"><tspan y="14.2369799" x="341.58967 349.31855 353.79127 357.10469 362.01396 369.7142 377.00654 380.31996 388.0202 395.74909 403.44935 410.7417 414.0551 418.82118 426.55006 429.86347 434.77275 442.473 449.76533 453.07875 457.988 464.62196 472.3222 479.61457 482.92799 490.62825 497.64863 503.38087 509.1131 516.40548 524.1057 527.4191 530.7826 538.48287 541.79629 545.1598 552.86007 560.5603 568.26058">of the node to the type passed in input</tspan></text>
<text xml:space="preserve" transform="matrix(.75 0 0 .75 72 328.1875)" font-size="14.666667" font-family="Calibri"><tspan y="14.2369799" x="48 52.444108 59.378557 63.851289 68.603 75.89534 81.00499 84.31839 92.01865 99.31099 102.674488 109.88805 114.79732 118.16081 125.86107 132.75981 136.07321 140.98249 148.68274 155.97509 159.28849 166.30889 169.67238 174.58866 181.881 188.9014 196.60166 203.23561 206.54901 213.61934 219.96704 223.33054 228.89807 233.64978 240.94213 248.5063 253.41558 256.72898 264.45787 272.1581 279.45045 283.89454 287.81623 291.12965 296.0389 303.73918 307.10267 312.8349 316.14833 319.5118">(after deleting the already existent one); this is</tspan></text>
<text xml:space="preserve" transform="matrix(.75 0 0 .75 72 328.1875)" font-size="14.666667" font-family="Calibri"><tspan y="14.2369799" x="328.5575 336.25776 343.98664 351.6869 358.97926 362.29267 365.65617 373.3564 376.6698 384.39869 389.3078 397.00807 404.3004 409.41007 412.72346 417.4895 425.21839 428.5318 436.23207 443.00898 449.48539 456.7777 460.09114 467.1115 473.30894 479.50636 486.7987 492.53096 498.26319 501.5766 506.34266 514.07156 517.38497 523.1172 530.84609 542.5539 549.84628 553.15969 557.6324 560.99588 564.3594 569.1111 576.40347 581.51309 584.8766 592.57687">done in order to have access to some filtering</tspan></text>
<text xml:space="preserve" transform="matrix(.75 0 0 .75 72 343.6289)" font-size="14.666667" font-family="Calibri"><tspan y="14.2369799" x="48 52.472734 60.17299 67.873249 74.07066 78.979938 82.34343 90.07231 97.77257 104.79297 108.15646 111.51996 116.42923 123.06319 126.37659 134.10547 138.5782 141.8916 149.59186 157.32074 165.021 172.31334 178.0456 181.359 184.72249 192.42275 195.73615 200.64542 208.34568 215.63802 218.95142 226.65167 233.94402 241.6729 249.10121 253.77433 257.0877 264.78797 272.08033 277.81257 284.4035 289.16957 296.89845 304.5987 307.9121 314.9325 322.63276 330.333">functionality of nodes in the neo4J desktop app.</tspan></text>
<text xml:space="preserve" transform="matrix(.75 0 0 .75 72 369.0703)" font-size="14.666667" font-family="Calibri" font-weight="bold"><tspan y="14.2369799" x="24">-</tspan></text>
<text xml:space="preserve" transform="matrix(.75 0 0 .75 72 369.0703)" font-size="14.666667" font-family="Calibri" font-weight="bold"><tspan y="14.2369799" x="48 55.864854 63.729707 71.59456 75.194217 78.79387 84.92688 88.24028 95.16765 100.24867 105.45851 109.05817 116.92302 123.87186 127.18526 133.97653 141.25449 146.33551 155.98946 163.86862 171.73348 179.1117 183.01908 190.88393 195.44969 202.37706 207.45809 212.66793 216.26758 224.13243 231.08127 234.39467 242.25952 249.49462 261.4171 268.79536">public String getNodeId(String name)</tspan></text>
<text xml:space="preserve" transform="matrix(.75 0 0 .75 72 369.0703)" font-size="14.666667" font-family="Calibri"><tspan y="14.2369799" x="273.3611 277.018 280.33143 285.2407 292.94096 296.30445 302.03669 305.3501 317.05793 324.27149 329.18077 336.881 344.6099">, this method</tspan></text>
<text xml:space="preserve" transform="matrix(.75 0 0 .75 72 369.0703)" font-size="14.666667" font-family="Calibri"><tspan y="14.2369799" x="355.62355 360.5398 367.75337 372.66264 380.36289 385.47254 393.1728 398.90504 402.21846 407.12773 414.82798 422.1203 425.43373 428.7972 436.49748 439.81086 447.53974 452.01246 455.32588 462.34626 465.65968 473.35993 481.0888 488.78907 496.08143 499.39485 507.12373 511.59645 514.90988 525.3868 533.08706 536.45059 542.64797 550.3482 553.6616 561.3619 568.38229 580.0901 587.38247 590.69589 594.0593">returns the id of a node of which name it</tspan></text>
<text xml:space="preserve" transform="matrix(.75 0 0 .75 72 384.51173)" font-size="14.666667" font-family="Calibri"><tspan y="14.2369799" x="48 51.363496 57.09575 60.40915 66.1414 73.84166 81.134 87.33142 90.694919 95.16765 98.53114 105.82349 113.52374 116.83714 120.20064 127.900897 131.2143 134.57779 142.27805 149.9783 157.67856 162.58783 165.90123 172.92163 178.65389 181.96729 188.98769 192.30109 199.03524 203.9445 209.05416 212.41765 220.1179 227.01665 230.71649 234.02989 237.72258 242.63185 245.94525 250.86153 258.07508 262.98435 270.6846 275.79426 283.4945 289.22676 292.54017 300.24043 307.94068 311.30418">is specified in input as a String. It returns null</tspan></text>
<text xml:space="preserve" transform="matrix(.75 0 0 .75 72 384.51173)" font-size="14.666667" font-family="Calibri"><tspan y="14.2369799" x="317.98109 321.34458 325.81733 329.13075 336.15113 339.46455 347.1648 354.89369 362.59394 369.8863 373.1997 383.67665 387.04014 391.9494 399.64967 402.96308 407.87236 415.5726 422.86494 426.17835 431.91059 439.61085 446.9032 453.10063 456.4641 460.93684 464.30033 471.59266 479.2929 482.60633 490.30659 497.32698 509.0348 516.32717 519.64059 527.3408 535.0697 542.36209 548.0943 551.4077 559.108 566.83688">if a node with the specified name does not</tspan></text>
<text xml:space="preserve" transform="matrix(.75 0 0 .75 72 399.95314)" font-size="14.666667" font-family="Calibri"><tspan y="14.2369799" x="48 55.070329 61.41803 64.781528 70.34906 75.25833">exist.</tspan></text>
<text xml:space="preserve" transform="matrix(.75 0 0 .75 72 425.39649)" font-size="14.666667" font-family="Calibri" font-weight="bold"><tspan y="14.2369799" x="24">-</tspan></text>
<text xml:space="preserve" transform="matrix(.75 0 0 .75 72 425.39649)" font-size="14.666667" font-family="Calibri" font-weight="bold"><tspan y="14.2369799" x="48 55.864854 63.729707 71.59456 75.194217 78.79387 84.92688 88.24028 96.455799 104.33496 112.21413 115.81378 123.192 130.4271 138.29195 141.60535 145.205 151.05176 157.98612 165.85097 172.64225 180.02046 184.58623 191.5136 196.59462 201.80446 205.40412 213.26897 220.2178 223.5312 227.13086 234.99571 242.42403 246.20259 249.51599 256.44337 261.52439 266.73423 270.33387 278.19874 285.14759 288.461 292.06068 299.92555 307.35386 311.13243 314.4458 321.37318 326.4542 331.66404 335.26368 343.12855">public Boolean isEdge(String id1, String id2, String</tspan></text>
<text xml:space="preserve" transform="matrix(.75 0 0 .75 72 425.39649)" font-size="14.666667" font-family="Calibri" font-weight="bold"><tspan y="14.2369799" x="353.39076 358.47178 365.41346 373.27833 380.65657">type)</tspan></text>
<text xml:space="preserve" transform="matrix(.75 0 0 .75 72 425.39649)" font-size="14.666667" font-family="Calibri"><tspan y="14.2369799" x="385.2223 388.8792 392.19264 397.1019 404.80216 408.16566 413.8979 417.2113 428.91914 436.1327 441.04197 448.74223 456.4711 464.17137 467.48475 473.68217 481.38243 488.67475 494.87217 501.39869 507.13093 510.78785 514.10128 524.5782 527.94168 532.85098 540.5512 543.8646 550.885 554.1984 561.8987 569.59896 576.8913 582.0726 587.66098">, this method checks, with a query,</tspan></text>
<text xml:space="preserve" transform="matrix(.75 0 0 .75 72 440.8379)" font-size="14.666667" font-family="Calibri"><tspan y="14.2369799" x="48 51.363496 55.836229 59.149629 66.17003 73.870288 77.183689 84.47603 92.176288 98.95328 106.24562 109.55902 117.25928 124.47284 129.38211 139.73012 147.02246 154.3148 162.01506 165.32846 170.23773 180.57859 188.30747 191.62087 197.35312 205.05338 212.34572 218.54314 221.90663 226.37937 229.74286 237.0352 244.73546 248.04886 255.74912 263.478 271.17826 278.47059 284.20283 287.51625 297.99317 301.35667 306.26594 313.9662 317.2796 322.18888 329.88914 337.18147 340.49488 345.41114 352.7035 358.43574 366.136 373.42835 379.62577 384.53504 387.89854 394.37495">if an edge between two specified nodes with the respective</tspan></text>
<text xml:space="preserve" transform="matrix(.75 0 0 .75 72 440.8379)" font-size="14.666667" font-family="Calibri"><tspan y="14.2369799" x="404.98069 408.34419 416.04444 421.77668 425.0901 430.82234 438.52259 445.81495 452.01237 455.37586 459.84858 463.21208 470.5044 478.20466 481.51808 484.88157 492.58183 495.8952 499.2587 506.95896 514.6592 522.35946 527.2687 530.9256 534.239 537.60256 543.3348 546.6482 553.6686 557.0321 561.94839 569.2407 576.2611 583.96139">ids specified in input, is already</tspan></text>
<text xml:space="preserve" transform="matrix(.75 0 0 .75 72 456.2793)" font-size="14.666667" font-family="Calibri"><tspan y="14.2369799" x="48 55.700258 60.61653 67.908878 73.64113 80.93347 88.49765 93.40692 96.72032 100.08382 107.78407 111.09747 116.006748 123.707 130.99935 134.31275 140.97533 148.67559 156.34717 166.8241 170.18759 177.47994 185.18019 191.95719 199.24953 202.56293 210.26319 217.28359 223.01584 230.30818 234.00803 237.32143 241.01412 245.92339 249.23679 254.15306 261.36665 266.2759 273.97618 279.08583 286.78608 292.5183 295.83174 300.741 305.85066 313.5509 320.84327 324.15669 327.52018">present in the knowledge base. It returns true if</tspan></text>
<text xml:space="preserve" transform="matrix(.75 0 0 .75 72 456.2793)" font-size="14.666667" font-family="Calibri"><tspan y="14.2369799" x="335.30628 342.32667 345.64009 351.71577 359.44465 367.1449 374.84516 382.1375 388.33494 393.2442 396.6077 404.33659 412.03684 415.35023 423.0791 427.55183 430.86524 435.7745 443.47477 450.7671 454.0805 459.81275 467.513 474.80537 481.00279 484.36628 488.839 492.20249 499.4948 507.19508 510.50849 515.4177 522.0517 529.75198 537.0443 540.3577 547.42807 553.77578 557.1393 562.7068 567.6161 573.3483">a connection of the specified type exists,</tspan></text>
<text xml:space="preserve" transform="matrix(.75 0 0 .75 72 471.72267)" font-size="14.666667" font-family="Calibri"><tspan y="14.2369799" x="48 52.186265 59.206666 62.57016 68.302417 75.59476 78.90816 86.63704 91.54631 99.24657 106.53891 111.727329 122.204257 125.56775 131.3 138.59235">false otherwise.</tspan></text>
<text xml:space="preserve" transform="matrix(.75 0 0 .75 72 497.16407)" font-size="14.666667" font-family="Calibri" font-weight="bold"><tspan y="14.2369799" x="24">-</tspan></text>
<text xml:space="preserve" transform="matrix(.75 0 0 .75 72 497.16407)" font-size="14.666667" font-family="Calibri" font-weight="bold"><tspan y="14.2369799" x="48 55.864854 63.729707 71.59456 75.194217 78.79387 84.92688 88.24028 95.03873 102.91789 106.51755 114.3824 117.6958 124.93089 132.79575 140.6606 147.59496 155.45981 162.25109 169.6293 174.19507 181.12244 186.20346 191.4133 195.01296 202.8778 209.82665 213.14005 216.7397 224.60456 232.03287 235.81143 239.12483 246.0522 251.13323 256.34309 259.94276 267.80763 274.75648 278.0699 281.66957 289.53443 296.96275 300.7413 304.0547 310.98207 316.06309 321.27293 324.8726 332.73747">public void addEdge(String id1, String id2, String</tspan></text>
<text xml:space="preserve" transform="matrix(.75 0 0 .75 72 497.16407)" font-size="14.666667" font-family="Calibri" font-weight="bold"><tspan y="14.2369799" x="342.99958 348.0806 355.02229 362.88716 370.26539">type)</tspan></text>
<text xml:space="preserve" transform="matrix(.75 0 0 .75 72 497.16407)" font-size="14.666667" font-family="Calibri"><tspan y="14.2369799" x="374.83113 378.48805 381.80146 388.82185 396.5221 404.22236 409.9546 413.268 420.2884 423.6018 431.30207 438.52278 448.9997 452.3131 459.60548 467.30574 474.0827 481.37507 484.68849 488.05198 495.75224 499.0656 503.97489 511.67515 518.96749 522.2809 529.1796 533.98849 541.00888 548.7091">, adds a new edge in the graph</tspan></text>
<text xml:space="preserve" transform="matrix(.75 0 0 .75 72 512.60549)" font-size="14.666667" font-family="Calibri"><tspan y="14.2369799" x="48 55.700258 62.91382 67.82309 78.1711 85.46344 92.75578 100.45604 103.76944 108.67871 119.01956 126.74844 130.06185 137.7621 145.49098 153.19124 160.48358 166.21584 169.87274 173.18614 178.9184 186.61865 193.911 200.10842 203.47191 207.94464 211.30814 218.60048 226.30074 229.61414 237.24277 243.87673 247.19013 250.55362 258.25389 261.91078 265.22419 275.7011 279.0646 283.97389 291.67414 294.98756 299.89683 307.59706 314.8894 318.20283 323.93507 331.6353 338.92768 345.1251 348.4886 352.9613 356.3248 363.61714">between two nodes, specified by id, with the specified</tspan></text>
<text xml:space="preserve" transform="matrix(.75 0 0 .75 72 512.60549)" font-size="14.666667" font-family="Calibri"><tspan y="14.2369799" x="374.6308 379.54008 386.174 393.87428 401.16664 404.48005 412.1803 417.0536 424.78248 432.48274 439.7751 444.88475 449.794 455.46116 459.161 462.47444 469.20857 472.57206 477.43104 482.99858 487.90785 491.22126 494.58476 499.49403 502.80744 509.00486 516.7051 523.99746 530.1948 536.7213 542.45358 545.76699 549.1305 553.6032 556.9166 564.6169 572.34579 577.255">type property. First it checks if both</tspan></text>
<text xml:space="preserve" transform="matrix(.75 0 0 .75 72 528.0469)" font-size="14.666667" font-family="Calibri"><tspan y="14.2369799" x="48 55.700258 63.42914 71.129398 78.42174 84.15399 87.46739 94.53772 100.88542 104.24892 109.81645 114.72572 118.38263 121.69603 126.6053 134.30556 141.5979 149.29816 152.61156 158.80898 166.50923 173.80158 179.999 186.5255 192.25775 195.57115 198.93465 203.40738 206.72078 211.63005 219.3303 226.62265 229.93605 235.6683 242.6887 254.39653 261.68888 265.00227 272.29463 279.99488 286.77186 294.0642 297.37763 300.74113 306.4734 309.78678 317.48704 325.2159 330.12519 333.43858 340.45896 343.82246 348.73875 356.0311 363.05149 370.75175">nodes exist, then checks if the same edge is not already</tspan></text>
<text xml:space="preserve" transform="matrix(.75 0 0 .75 72 528.0469)" font-size="14.666667" font-family="Calibri"><tspan y="14.2369799" x="380.6991 388.39936 393.3156 400.60798 406.3402 413.63258 421.19676 426.10603 429.80586 433.11927 436.81196 441.28468 444.59809 449.50736 457.2076 460.5711 466.30335 469.61677 475.69245 483.42134 491.12159 498.82185 502.18534 507.0946 510.4581 518.187 525.88729 529.2007 532.5642 538.29647 541.60989 547.3421 554.22647 559.13577 562.49929 568.09548 572.5682 575.93167 583.224 590.92428">present. If this condition is satisfied,</tspan></text>
<text xml:space="preserve" transform="matrix(.75 0 0 .75 72 543.4883)" font-size="14.666667" font-family="Calibri"><tspan y="14.2369799" x="48 51.363496 56.272768 59.586168 64.695819 72.39607 80.09633 85.82858 89.14198 96.162387 99.475788 107.17604 114.8763 122.16864 127.3499 133.98386 137.29726 142.0633 149.79218 153.10558 160.12598 167.82624 175.52649 178.83989 183.74916 191.44942 198.74176 202.05516 209.3475 217.04776 223.82476 231.1171 234.4305 239.19654 246.92542 250.23882 255.14809 262.84834 270.1407 273.4541 280.1167 287.81697 295.48854 305.96546 309.32896 316.62129 324.32154 331.0985 338.39088 341.70429 349.40455 356.42494 362.15718 369.44953">it runs a query to add the edge to the knowledge base.</tspan></text>
<text xml:space="preserve" transform="matrix(.75 0 0 .75 72 568.9297)" font-size="14.666667" font-family="Calibri" font-weight="bold"><tspan y="14.2369799" x="24">-</tspan></text>
<text xml:space="preserve" transform="matrix(.75 0 0 .75 72 568.9297)" font-size="14.666667" font-family="Calibri" font-weight="bold"><tspan y="14.2369799" x="48 55.864854 63.729707 71.59456 75.194217 78.79387 84.92688 88.24028 96.455799 104.33496 112.21413 115.81378 123.192 130.4271 138.29195 141.60535 146.65047 154.02869 159.87545 167.1534 172.23442 181.57349 186.46105 193.69614 201.56099 209.42584 213.99161">public Boolean resetGraph()</tspan></text>
<text xml:space="preserve" transform="matrix(.75 0 0 .75 72 568.9297)" font-size="14.666667" font-family="Calibri"><tspan y="14.2369799" x="218.55738 222.21428 225.52768 230.43695 238.1372 241.5007 247.23296 250.54636 262.25419 269.46775 274.377 282.07728 289.80616 297.5064 300.81983 308.52009 315.81245 319.17594 326.3895 331.1412 338.43354 344.16578 347.4792 354.49958 357.86308">, this method deletes all</tspan></text>
<text xml:space="preserve" transform="matrix(.75 0 0 .75 72 568.9297)" font-size="14.666667" font-family="Calibri"><tspan y="14.2369799" x="364.53999 372.24024 379.96913 387.66938 394.96174 400.69398 404.0074 411.02778 418.72804 426.42829 429.7417 437.03407 444.7343 451.5113 458.80366 464.5359 467.8493 472.32203 477.1953 484.9242 496.63203 499.94544 504.8547 512.55496 519.8473 523.1607 529.35818 537.0584 542.1681 547.08438 554.3767 561.9409">nodes and edges from the current</tspan></text>
<text xml:space="preserve" transform="matrix(.75 0 0 .75 72 584.37307)" font-size="14.666667" font-family="Calibri"><tspan y="14.2369799" x="48 51.363496 59.06375 64.63129 69.36151 76.38191 84.08217 90.27959 97.57193 100.88533 108.61421 113.086948 116.400348 121.309619 129.00988 136.30222 139.61562 146.2782 153.97846 161.65004 172.12697 175.49047 182.7828 190.48307 197.26006 204.5524 207.8658 215.56606 222.58646 228.31871 235.61106">instance of the knowledge base.</tspan></text>
<text xml:space="preserve" transform="matrix(.75 0 0 .75 72 609.81448)" font-size="14.666667" font-family="Calibri" font-weight="bold"><tspan y="14.2369799" x="24">-</tspan></text>
<text xml:space="preserve" transform="matrix(.75 0 0 .75 72 609.81448)" font-size="14.666667" font-family="Calibri" font-weight="bold"><tspan y="14.2369799" x="48 55.864854 63.729707 71.59456 75.194217 78.79387 84.92688 88.24028 95.03873 102.91789 106.51755 114.3824 117.6958 123.82881 127.42847 135.30764 141.15439 148.53261 153.09838">public void close()</tspan></text>
<text xml:space="preserve" transform="matrix(.75 0 0 .75 72 609.81448)" font-size="14.666667" font-family="Calibri"><tspan y="14.2369799" x="157.66414 161.32105 164.63445 169.54372 177.24398 180.60747 186.33972 189.65312 201.36095 208.57451 213.48378 221.18404 228.91292 236.61318 239.92658 243.29007 249.02233 252.33573 260.03599 265.76826 273.0606 280.76087 284.07429 288.84034 296.5692 299.88264 306.08006 309.44355 317.17243 322.90467">, this method is used to close</tspan></text>
<text xml:space="preserve" transform="matrix(.75 0 0 .75 72 609.81448)" font-size="14.666667" font-family="Calibri"><tspan y="14.2369799" x="333.51036 338.41963 346.11988 353.41224 356.72566 362.80134 370.5302 378.23048 385.93074 393.22309 399.4205 404.32978 407.69328 415.42216 423.1224 426.4358 436.91273 440.2762 445.1855 452.88575 456.19917 461.10844 468.8087 476.101 479.41444 487.1147 494.40705 502.13594 509.56425 514.23739 517.5508 525.25106 532.1354 536.8656 543.886 551.58627 558.6066 564.33889 571.6312">the connection with the neo4J database,</tspan></text>
<text xml:space="preserve" transform="matrix(.75 0 0 .75 72 625.2578)" font-size="14.666667" font-family="Calibri"><tspan y="14.2369799" x="48 54.07567 61.09607 64.459568 67.82306 71.186557 78.88681 85.78555 89.09895 94.008228 101.70848 109.000827 112.314228 124.02205 131.23561 136.14488 143.84514 151.57402 159.27428 162.58768 168.7851 172.14859 179.87747 185.60973 192.90207 197.34618 201.79029 205.10369 212.83257 220.53282 223.84622 228.7555 236.45575 243.7481 247.0615 254.76175 259.8714 263.2349 269.7113 277.00367 282.1133 285.4267 293.12696 298.2366 301.6001 308.00489 314.88923 319.64094 326.93327 330.24665 337.13099 341.83259 346.74183 351.85148 355.21498 362.91523 370.61549 375.3672 382.65956">calling the method close() on the driver private attribute.</tspan></text>
<text xml:space="preserve" transform="matrix(.75 0 0 .75 72 666.1406)" font-size="14.666667" font-family="Calibri" font-weight="bold"><tspan y="14.2369799" x="0 8.251297 15.400513 21.59793 29.333146 36.589708 40.497087 50.40866 60.062608">RELATIONS</tspan></text>
<text xml:space="preserve" transform="matrix(.75 0 0 .75 72 681.58206)" font-size="14.666667" font-family="Calibri"><tspan y="14.2369799" x="0 7.1420595 14.842316 18.20581 23.938065 27.251465 33.448884 36.812379 43.83278 49.565034 55.297288 58.610689 64.17822 68.94426 76.67314 81.58942 88.88176 94.61401 97.927417 104.947818 108.261219 113.17749 120.46983 128.17009 133.08637 140.37871 146.11096 153.4033 160.96749 165.69771 172.58203 177.4913 180.8548 188.58368 196.28394 199.59734 207.32622 211.79895 215.11235 220.02162 227.72188 235.01422 238.32762 245.22637 250.03522 257.0556 264.75587 272.45613 275.76954 279.13304">This class stores a representation of the graph in</tspan></text>
<text xml:space="preserve" transform="matrix(.75 0 0 .75 72 681.58206)" font-size="14.666667" font-family="Calibri"><tspan y="14.2369799" x="290.14668 294.81977 301.59669 308.00148 315.02186 318.72169 322.0351 329.86408 336.49806 339.81147 346.83186 354.5321 362.23237 365.59587 373.2961 380.19486 383.50825 390.52864 398.22889 401.5423 408.27644 416.09107 425.7951 429.10853 434.0178 439.12745 442.49095 450.1912 453.5547 460.84706 464.50398 467.81739 471.18089 476.09016 479.40357 487.10383 494.80409 498.16758 501.53108 509.23133 514.96359 518.277 525.29739 528.6108 535.5095 540.31838 547.33877 555.039">Java. By adding an SRO triple, it builds a graph</tspan></text>
<text xml:space="preserve" transform="matrix(.75 0 0 .75 72 697.02346)" font-size="14.666667" font-family="Calibri"><tspan y="14.2369799" x="0 7.020401 14.649033 20.216568 25.12584 29.934693 36.955095 43.15251 48.061784 51.425279 59.15416 66.854419 70.51132 73.82472 81.453357 88.08731 91.40071 103.108539 110.40088 122.1087 129.83759 134.94724 138.31073 144.10024 147.46373 155.16399 162.06273 165.37613 170.2854 177.98566 185.278 188.5914 196.29166 204.02054 211.7208 219.01314 224.74539 228.05879 235.0792 242.77945 250.4797 253.7931 258.7024 266.40266 273.695 277.00843 284.30079 292.00105 298.778 306.07038">abstraction, by memorizing the nodes and the edges</tspan></text>
<text xml:space="preserve" transform="matrix(.75 0 0 .75 72 697.02346)" font-size="14.666667" font-family="Calibri"><tspan y="14.2369799" x="315.11598 319.56007 330.037 333.40049 338.30976 346.01 353.7389 361.43916 366.34843 369.6618 377.36207 385.06233 392.76258 396.12608 399.48957 405.56526 412.4496 417.2013 424.49366 430.2259 434.66999 438.3698 441.68324 445.37593 453.07618 456.3896 461.29887 468.9991 472.3626 478.09486 481.40827 487.60569 490.96919 497.98957 503.7218 509.45405 512.76748 519.78787 524.7041 531.99649 535.3099 542.33029 545.6937 551.42599">(without duplicates). In this class are also</tspan></text>
<text xml:space="preserve" transform="matrix(.75 0 0 .75 72 712.4668)" font-size="14.666667" font-family="Calibri"><tspan y="14.2369799" x="0 3.3634949 15.07132 22.771576 26.13507 33.427415 45.13524 52.42758 59.99176 64.74347 72.03581 79.73607 83.04947 94.75729 101.970859 106.88013 114.58038 122.309268 130.00952 135.74178 139.05518 143.82122 151.5501 154.8635 162.56375 165.92725 171.6595 177.73517 185.39958 191.87599 199.16834 204.27799 207.59139 214.61179 217.97528 221.33878 228.35918 234.09143 241.38378 247.11603 250.42943 254.87354 262.5738 270.30268 275.21195 278.52534 285.54573 288.9092 293.8255 301.11787 308.13825 315.8385">implemented methods to discover aliases (not already</tspan></text>
<text xml:space="preserve" transform="matrix(.75 0 0 .75 72 712.4668)" font-size="14.666667" font-family="Calibri"><tspan y="14.2369799" x="325.7859 333.48616 336.84965 342.5819 348.6576 356.32203 362.79844 370.09077 375.00703 382.29939 389.99964 393.31306 400.94169 407.57563 410.88905 416.96473 424.6936 429.60987 436.7733 440.88078 448.1731 453.08937 460.3817 468.08198 474.2794 481.57173 484.88514 489.8014 497.09376 502.826 510.55488 513.91836 521.6186 526.52786 529.89138 537.62026 545.3205 549.7646 553.078 560.77828 567.79867 573.5309 580.82327">discovered by coreference resolution) based</tspan></text>
<text xml:space="preserve" transform="matrix(.75 0 0 .75 72 727.9082)" font-size="14.666667" font-family="Calibri"><tspan y="14.2369799" x="0 7.728882 15.429138 18.742539 23.65181 31.352066 38.64441 41.95781 46.70952 54.00186 59.11151 70.819339 73.581058 79.31331 82.62671 95.66562 99.02911 105.691699 109.05519 116.75545 124.04779 131.74805 135.11154 142.13195 145.44535 152.70168 159.72208 166.49907 173.79141 177.10482 180.7975 189.81453 193.73622 197.04962 200.41312 204.88585 208.19925 213.10852 223.44937 231.17826 234.49166 242.19191 245.5554 249.8849 253.99239 261.28474 266.201 273.49336 281.0575">on the term&#x2019;s Wikipedia Page ID: if two different</tspan></text>
<text xml:space="preserve" transform="matrix(.75 0 0 .75 72 727.9082)" font-size="14.666667" font-family="Calibri"><tspan y="14.2369799" x="289.2802 294.03193 301.32429 306.43394 318.14176 323.87403 327.18745 334.8877 341.6646 348.14103 355.43336 358.74678 363.65605 371.3563 378.64863 381.96205 387.69429 394.71467 406.4225 413.71485 417.02827 424.72853 431.7489 438.52589 445.81825 449.13166 452.82435 461.84138 465.1548 470.06407 477.7643 484.96357 491.59754 494.91096 501.93135 506.8476 514.13998 517.45339 524.47378 527.8373 531.2008 538.2212 543.9534 551.2458 556.978">terms have the same page ID they are aliases.</tspan></text>
<text xml:space="preserve" transform="matrix(.75 0 0 .75 72 753.3496)" font-size="14.666667" font-family="Calibri"><tspan y="14.2369799" x="0 7.1420595 14.842316">The</tspan></text>
<text xml:space="preserve" transform="matrix(.75 0 0 .75 72 753.3496)" font-size="14.666667" font-family="Calibri"><tspan y="14.2369799" x="25.44806 32.332384 37.033967 41.943239 47.052888 50.41638 58.11664 65.816898 70.5686 77.86095">attributes</tspan></text>
<text xml:space="preserve" transform="matrix(.75 0 0 .75 72 753.3496)" font-size="14.666667" font-family="Calibri"><tspan y="14.2369799" x="86.9066 94.63548 99.108219 102.421619 107.33089 115.03114 118.39464 124.12689 127.44029 133.63771 137.0012 144.0216 149.75386 155.48612 158.79952 165.81992 170.73619 178.02854">of this class are:</tspan></text>
</g>
<clipPath id="cp95">
<path d="M 0 0 L 595.5 0 L 595.5 842.25 L 0 842.25 Z " fill-rule="evenodd"/>
</clipPath>
<g clip-path="url(#cp95)">
<path transform="matrix(.75,0,0,.75,72,753.3496)" stroke-width="1.3333334" stroke-linecap="butt" stroke-miterlimit="10" stroke-linejoin="miter" fill="none" stroke="#000000" d="M 25.333334 16.19987 L 84 16.19987 "/>
</g>
</g>
</svg>
