<?xml version="1.0" encoding="UTF-8" standalone="no"?>
<!DOCTYPE svg PUBLIC "-//W3C//DTD SVG 1.1//EN" "http://www.w3.org/Graphics/SVG/1.1/DTD/svg11.dtd">
<svg xmlns="http://www.w3.org/2000/svg" xmlns:xlink="http://www.w3.org/1999/xlink" version="1.1" width="596pt" height="842pt" viewBox="0 0 596 842">
<g enable-background="new">
<clipPath id="cp111">
<path d="M 0 0 L 595.5 0 L 595.5 842.25 L 0 842.25 Z " fill-rule="evenodd"/>
</clipPath>
<g clip-path="url(#cp111)">
<path transform="matrix(.75,0,0,.75,0,0)" d="M 0 0 L 794 0 L 794 1123 L 0 1123 Z " fill="#ffffff"/>
</g>
<clipPath id="cp112">
<path d="M 0 0 L 595.5 0 L 595.5 842.25 L 0 842.25 Z " fill-rule="evenodd"/>
</clipPath>
<g clip-path="url(#cp112)">
<text xml:space="preserve" transform="matrix(.75 0 0 .75 72 72)" font-size="14.666667" font-family="Calibri"><tspan y="14.2369799" x="24">-</tspan></text>
<text xml:space="preserve" transform="matrix(.75 0 0 .75 72 72)" font-size="14.666667" font-family="Calibri" font-weight="bold"><tspan y="14.2369799" x="48 55.864854 61.07469 64.67435 71.39401 78.49303 83.395008 90.773227 94.086627 99.76866 104.70645 111.805469 116.88649 120.486148 126.619159 129.93256 133.24596 140.0444 147.92357 151.52323 159.38808 162.70148 169.93657 177.80142 185.66628 192.60063 200.46549 207.25676 214.63498 219.20075 228.85469 236.73386 244.59871 251.97693 258.17436 261.774 267.45603 272.53706 275.85047 283.71534 291.59449 299.45936 306.8376 313.035 316.63468 322.31675 327.39775 331.1763 334.48973 342.34727 350.21214 358.06266 368.98326 372.58293 379.96116 387.82603 394.61729 401.9955 411.33457 416.22215 423.45726 431.3221 439.18699 442.5004 449.53514 457.4 465.25053 476.1711 479.77079 487.14903 495.0139 501.80516 509.18339 516.4829 523.43179 528.31936 535.55447 543.4193 551.2842">private static  void addEdge(NodeList nodeList, KnowledgeGraph knowledge_graph)</tspan></text>
<text xml:space="preserve" transform="matrix(.75 0 0 .75 72 72)" font-size="14.666667" font-family="Calibri"><tspan y="14.2369799" x="555.8496 559.50656 562.81997 567.72927 575.4295 578.79299">, this</tspan></text>
<text xml:space="preserve" transform="matrix(.75 0 0 .75 72 87.44141)" font-size="14.666667" font-family="Calibri"><tspan y="14.2369799" x="48 59.707826 66.92139 71.83066 79.530918 87.259799 94.96005 98.27345 103.00368 110.02408 116.21399 123.50633 129.23859 132.55199 135.91548 143.61574 146.92914 150.29264 157.99289 165.69315 173.3934 178.30268 181.61608 188.63648 191.94988 201.4106 209.13948 216.83974 224.13208 230.29372 233.65721 239.22475 244.13402 247.44742 251.89153 259.62043 264.09315 267.40657 272.9165 280.20887 287.90913 294.6861 301.97846 308.11149 311.4249 319.03215 331.56297 337.72459 341.038 345.76823 352.78865 359.68739 365.41966 369.86375 373.17716 380.19755 387.8978 395.59806 398.91148 405.93186 409.24528 415.90788 423.60813 431.2797 441.75663 445.12013 452.41246 460.1127 466.88969 474.18205 477.49546 484.3942 489.20304 496.22343 503.92369 511.62394 514.9374 518.3009 526.00119 531.5687 536.29898 543.31936 551.0196 557.21707 564.5094">method takes in input a NodeList (of &#x201c;edge&#x201d; XML tags) and a knowledge graph instance.</tspan></text>
<text xml:space="preserve" transform="matrix(.75 0 0 .75 72 102.88281)" font-size="14.666667" font-family="Calibri"><tspan y="14.2369799" x="48 55.81476 62.262514 68.45993 71.823429 75.18692 82.88718 89.78592 93.09932 98.00859 105.70885 110.58215 118.311038 126.01129 132.91004 140.61029 143.92369 148.83296 156.53322 163.82556 167.13896 170.50246 173.86595 179.43349 184.34276 187.99967 191.31307 194.67656 199.58583 202.89923 209.96956 216.36023 221.2695 226.07836 233.09876 239.29618 244.20545 249.9377 253.2511 258.16038 265.86064 273.15296 276.46638 282.0339 286.76414 293.78456 298.8942 303.80348 307.16694 314.8672">Cycling through the list, it extracts the starting</tspan></text>
<text xml:space="preserve" transform="matrix(.75 0 0 .75 72 102.88281)" font-size="14.666667" font-family="Calibri"><tspan y="14.2369799" x="325.07936 332.09974 339.8 347.50025 350.81367 355.54389 362.56428 367.4734 374.25038 381.46394 386.3732 389.68659 397.38685 405.11573 412.81599 420.10835 423.42176 426.78526 434.4855 440.21778 443.5312 450.55158 458.25184 465.9521 469.2655 474.17478 481.87504 489.16737 492.48078 499.77314 507.4734 514.25039 521.5427 524.85617 529.58639 536.60678 543.67019 547.3271 550.6405 555.5498 563.25009 570.5424 578.2427 581.5561 584.91958">and target node ids and the edge tag, then it</tspan></text>
<text xml:space="preserve" transform="matrix(.75 0 0 .75 72 118.32617)" font-size="14.666667" font-family="Calibri"><tspan y="14.2369799" x="48 51.363496 59.06375 64.796009 72.08835 77.198 82.10727 87.83952 91.15292 96.062198 103.76245 111.054798 122.76262 126.07602 129.43952 137.0037 141.76973 149.49861 152.81201 157.72129 165.42154 172.71389 176.02729 183.72754 190.61186 195.34209 202.36249 210.06275 217.08315 222.8154 230.10774 233.42115 239.49681 246.51721 249.8807 253.2442 256.6077 264.30796 271.2067 274.52009 279.42936 287.1296 294.42195 297.73536 304.75575 312.456 320.15626 327.09776 334.798 341.57499">inserts them into the database calling the addEdge</tspan></text>
<text xml:space="preserve" transform="matrix(.75 0 0 .75 72 118.32617)" font-size="14.666667" font-family="Calibri"><tspan y="14.2369799" x="352.1808 363.8886 371.10218 376.01145 383.7117 391.44059 399.14085">method.</tspan></text>
<text xml:space="preserve" transform="matrix(.75 0 0 .75 72 143.76758)" font-size="14.666667" font-family="Calibri"><tspan y="14.2369799" x="24">-</tspan></text>
<text xml:space="preserve" transform="matrix(.75 0 0 .75 72 143.76758)" font-size="14.666667" font-family="Calibri" font-weight="bold"><tspan y="14.2369799" x="48 55.864854 61.07469 64.67435 71.39401 78.49303 83.395008 90.773227 94.086627 99.76866 104.70645 111.805469 116.88649 120.486148 126.619159 129.93256 133.24596 140.0444 147.92357 151.52323 159.38808 162.70148 169.93657 177.80142 185.66628 195.32022 203.19939 211.06424 218.44246 223.00823 232.66217 240.54134 248.40619 255.78441 261.9818 265.58149 271.26353 276.34455 279.65797 287.52284 295.40199 303.26686 310.64506 316.84248 320.4421 326.12419 331.20518 334.98374 338.29716 346.1547 354.01957 361.8701 372.79069 376.39036 383.7686 391.63346 398.4247 405.80296 415.142 420.02958 427.26469 435.12956">private static  void addNode(NodeList nodeList, KnowledgeGraph</tspan></text>
<text xml:space="preserve" transform="matrix(.75 0 0 .75 72 143.76758)" font-size="14.666667" font-family="Calibri" font-weight="bold"><tspan y="14.2369799" x="446.30775 453.34248 461.20735 469.05787 479.9785 483.57814 490.95637 498.82124 505.6125 512.9907 520.2902 527.2391 532.12667 539.36178 547.2266 555.0915">knowledge_graph)</tspan></text>
<text xml:space="preserve" transform="matrix(.75 0 0 .75 72 143.76758)" font-size="14.666667" font-family="Calibri"><tspan y="14.2369799" x="559.6571 563.314 566.62747 571.53677 579.237 582.60049">, this</tspan></text>
<text xml:space="preserve" transform="matrix(.75 0 0 .75 72 159.20899)" font-size="14.666667" font-family="Calibri"><tspan y="14.2369799" x="48 59.707826 66.92139 71.83066 79.530918 87.259799 94.96005 98.27345 103.00368 110.02408 116.21399 123.50633 129.23859 132.55199 135.91548 143.61574 146.92914 150.29264 157.99289 165.69315 173.3934 178.30268 181.61608 188.63648 191.94988 201.4106 209.13948 216.83974 224.13208 230.29372 233.65721 239.22475 244.13402 247.44742 251.89153 259.62043 264.09315 267.40657 273.53956 281.2398 288.9687 296.66896 303.9613 310.0943 313.4077 321.01496 333.54579 339.7074 343.0208 347.75105 354.77146 361.6702 367.40248">method takes in input a NodeList (of &#x201c;node&#x201d; XML tags)</tspan></text>
<text xml:space="preserve" transform="matrix(.75 0 0 .75 72 159.20899)" font-size="14.666667" font-family="Calibri"><tspan y="14.2369799" x="375.1599 382.1803 389.88056 397.5808 400.89424 407.9146 411.22804 417.89064 425.59089 433.26246 443.73939 447.10289 454.3952 462.09547 468.87245 476.1648 479.4782 486.37696 491.1858 498.20619 505.90644 513.6067 516.9201 520.28359 527.9838 533.5514 538.2816 545.302 553.00228 559.1997 566.49209">and a knowledge graph instance.</tspan></text>
<text xml:space="preserve" transform="matrix(.75 0 0 .75 72 174.65235)" font-size="14.666667" font-family="Calibri"><tspan y="14.2369799" x="48 55.81476 62.262514 68.45993 71.823429 75.18692 82.88718 89.78592 93.09932 98.00859 105.70885 110.58215 118.311038 126.01129 132.91004 140.61029 143.92369 148.83296 156.53322 163.82556 167.13896 170.50246 173.86595 179.43349 184.34276 187.99967 191.31307 194.67656 199.58583 202.89923 209.96956 216.36023 221.2695 226.07836 233.09876 239.29618 244.20545 249.9377 253.2511 258.16038 265.86064 273.15296 276.46638 284.16664 291.8955 299.59577 306.88813 310.20155 313.56504 321.2653">Cycling through the list, it extracts the node id,</tspan></text>
<text xml:space="preserve" transform="matrix(.75 0 0 .75 72 174.65235)" font-size="14.666667" font-family="Calibri"><tspan y="14.2369799" x="328.23558 335.93583 342.95625 354.66407 361.95643 365.26985 372.29023 379.99049 387.69075 391.00416 395.91343 402.54737 410.24763 417.53999 421.1969 424.5103 429.4196 437.11985 444.41218 452.11244 455.42585 458.78935 463.6986 467.01203 470.37553 478.07579 483.80805 491.1004 496.21006 501.11933 506.85157 510.16499 515.0742 522.7745 530.06686 541.77468 545.0881 548.45156 556.01577 560.7818 568.5107 571.8241 576.7334 584.43368">name and type, then it inserts them into the</tspan></text>
<text xml:space="preserve" transform="matrix(.75 0 0 .75 72 190.09375)" font-size="14.666667" font-family="Calibri"><tspan y="14.2369799" x="48 55.700258 62.58458 67.314807 74.335208 82.03546 89.05586 94.78812 102.08046 105.39386 111.46953 118.48993 121.853427 125.21692 128.58042 136.28067 143.17942 146.49282 151.40209 159.10234 166.39469 169.70809 176.72849 184.42874 192.129 201.58972 209.3186 217.01886 224.3112 227.6246 239.33243 246.54599 251.45526 259.15553 266.8844 274.58467">database calling the addNode method.</tspan></text>
</g>
</g>
</svg>
