<?xml version="1.0" encoding="UTF-8" standalone="no"?>
<!DOCTYPE svg PUBLIC "-//W3C//DTD SVG 1.1//EN" "http://www.w3.org/Graphics/SVG/1.1/DTD/svg11.dtd">
<svg xmlns="http://www.w3.org/2000/svg" xmlns:xlink="http://www.w3.org/1999/xlink" version="1.1" width="596pt" height="842pt" viewBox="0 0 596 842">
<g enable-background="new">
<clipPath id="cp14">
<path d="M 0 0 L 595.5 0 L 595.5 842.25 L 0 842.25 Z " fill-rule="evenodd"/>
</clipPath>
<g clip-path="url(#cp14)">
<path transform="matrix(.75,0,0,.75,0,0)" d="M 0 0 L 794 0 L 794 1123 L 0 1123 Z " fill="#ffffff"/>
</g>
<clipPath id="cp15">
<path d="M 0 0 L 595.5 0 L 595.5 842.25 L 0 842.25 Z " fill-rule="evenodd"/>
</clipPath>
<g clip-path="url(#cp15)">
<text xml:space="preserve" transform="matrix(.75 0 0 .75 72 72)" font-size="26.666666" font-family="Calibri"><tspan y="25.885416" x="-9 1.6199188 14.882965 26.154603 40.159547 54.16449 68.2215 74.3389 88.395908 100.943088 107.060489 120.32353">Technologies</tspan></text>
<text xml:space="preserve" transform="matrix(.75 0 0 .75 72 106.07617)" font-size="14.666667" font-family="Calibri"><tspan y="14.2369799" x="0 3.692688 11.392944 14.706345 19.615616 27.315873 30.679368 36.41162 39.72502 45.457277 52.74962 58.947038 63.856309 67.2198 74.948688 82.64894 86.30585 89.61925 99.967258 107.2596 110.573 121.04993 124.41342 127.77692 131.14041 134.45381 142.15407 147.26372 150.62722 157.79064 162.26337 165.62686 172.26082 175.57422 182.3727 190.10158 193.41498 201.07939 207.5558 214.84815 219.9578 223.2712 230.2916 233.65509 237.01859 240.33199 245.24126 252.94152 260.23387 263.54725 268.29896 275.5913 281.78874 289.48899 297.18925 304.91813 308.28163 316.0105 322.90925 326.27275 333.56507">In this section, we will briefly go over all the technologies</tspan></text>
<text xml:space="preserve" transform="matrix(.75 0 0 .75 72 106.07617)" font-size="14.666667" font-family="Calibri"><tspan y="14.2369799" x="342.61073 350.31098 356.0432 363.33558 371.03584 374.34925 377.71275 385.413 388.72639 393.63566 401.3359 408.62825 411.94166 419.6419 424.5152 432.24409 435.7507 443.04304 449.24046 454.14973 457.80665 461.12007 465.59278 470.46607 478.19496 489.90278 493.2162 498.12547 505.8257 513.11807 516.43148 524.1317 529.005 536.7339 543.6326 548.44149 555.46188 567.1697 578.8775 582.24099 589.9412">used in the project, from the programming</tspan></text>
<text xml:space="preserve" transform="matrix(.75 0 0 .75 72 121.51807)" font-size="14.666667" font-family="Calibri"><tspan y="14.2369799" x="0 3.3634949 10.383896 18.084153 24.982895 32.68315 39.703554 46.480546 53.77289 59.505144 62.818544 67.58458 75.31346 78.62686 83.53613 91.23639 98.52873 101.84213 107.57439 115.27464 122.566989 128.7644 132.1279 136.60063 139.96413 146.16155 149.47495 154.24098 161.96987 169.69875 173.06224 178.7945">languages to the specific tools.</tspan></text>
<text fill="#666666" xml:space="preserve" transform="matrix(.75 0 0 .75 72 146.95996)" font-size="22.666666" font-family="Calibri"><tspan y="32.66927" x="0 7.223892 17.700013 27.600892">Java</tspan></text>
<text xml:space="preserve" transform="matrix(.75 0 0 .75 72 184.8247)" font-size="14.666667" font-family="Calibri"><tspan y="14.2369799" x="0 4.673111 11.450012 17.854798 24.875199 28.188599 31.552094 37.284349 40.597749 47.61815 50.93155 57.128969 60.492464 67.51286 73.24512 78.97737 83.46442 91.16467 98.185077 103.91733 111.20967 118.90993 122.56683 125.88023 133.60912 141.30937 144.816 152.10834 158.30576 162.76384 167.25089 174.97977 180.08942 183.45291 190.74526 198.30944 203.06114 210.35349 218.05374 221.36714 229.0674 233.9407 241.66959 248.56833 253.37718 260.39759 272.1054 283.81324 287.17674 294.87699">Java is a class-based, object-oriented programming</tspan></text>
<text xml:space="preserve" transform="matrix(.75 0 0 .75 72 184.8247)" font-size="14.666667" font-family="Calibri"><tspan y="14.2369799" x="305.0891 308.4526 315.47303 323.17329 330.07203 337.77229 344.79267 351.56965 358.862 362.1754 367.0847 374.78495 381.66926 386.57853 389.8919 393.2554 398.98768 402.3011 410.00135 417.2937 423.02595 426.38945 433.28819 440.98844 448.28077 455.98103 459.29444 464.0605 471.78938 475.10279 482.80305 489.57997 496.05638 503.3487 506.6621 513.6825 519.41476 522.72817 526.83566 534.05636">language that is designed to have as few</tspan></text>
<text xml:space="preserve" transform="matrix(.75 0 0 .75 72 200.2666)" font-size="14.666667" font-family="Calibri"><tspan y="14.2369799" x="0 3.3634949 15.07132 22.771576 26.13507 33.427415 45.13524 52.42758 59.99176 64.721988 71.60631 76.51558 79.879077 87.607959 95.30821 98.62161 106.32187 113.61421 121.31447 128.60681 136.30707 144.00733 151.29967 158.99993 165.19734 168.56084 175.85318 181.58544 184.89884 191.91924 197.65149 200.96489 208.66515 216.39403 222.12628 227.85854 231.22203 238.92229 242.28578 249.57813 253.27797 256.59138 260.28407 265.19334 268.5067 271.8702 277.60249 280.9159 287.93629 291.2497 298.02668 305.31904 313.0193 320.31166 325.12049 332.14088 335.50437 339.9914 347.69166 355.3919 360.50157 368.2018 375.9307 381.66297">implementation dependencies as possible. It is a general-purpose</tspan></text>
<text xml:space="preserve" transform="matrix(.75 0 0 .75 72 200.2666)" font-size="14.666667" font-family="Calibri"><tspan y="14.2369799" x="392.2687 399.96897 404.8423 412.57118 419.4699 424.27876 431.29914 443.00697 454.71479 458.07829 465.77854 472.67729 475.99067 479.35417 486.37458 494.07484 500.97358 508.67384 515.6942 522.4712 529.76358 533.07699 536.4404 544.00466 548.75637 556.0487 563.74899 571.4492 578.7416">programming language intended</tspan></text>
<text xml:space="preserve" transform="matrix(.75 0 0 .75 72 215.7085)" font-size="14.666667" font-family="Calibri"><tspan y="14.2369799" x="0 4.766037 12.494919 15.808319 19.171814 26.385376 31.294648 34.608049 41.62845 49.328706 57.02896 60.392457 63.75595 69.83162 76.71594 81.62521 84.98871 92.71759 100.41785 103.73125 111.4315 118.65222 125.12863 132.42098 135.78447 143.51335 151.21361 158.50595 163.36495 169.0972 172.4106 182.88753 187.99718 191.36067 196.11238 203.40473 206.71813 214.447 222.14727 228.34468 235.63703 239.29393 242.60733 247.71698 255.41724 263.1175 266.4309 273.4513 280.8794 287.57063 298.04756 305.7478 313.04017 317.95643 325.24879">to let application developers write once, run anywhere,</tspan></text>
<text xml:space="preserve" transform="matrix(.75 0 0 .75 72 215.7085)" font-size="14.666667" font-family="Calibri"><tspan y="14.2369799" x="332.21913 343.92695 351.2193 358.2397 365.93995 369.30345 377.0037 383.90245 387.21583 392.1251 399.82536 406.70967 411.61894 414.9323 421.008 428.73689 440.4447 448.14497 451.50846 454.87196 462.1643 469.86457 473.17799 477.85108 484.628 491.03279 498.05317 501.36659 507.44227 515.17117 522.8714 530.16378 533.4772 539.55288 546.57327 554.2735 557.5869 562.69656 570.3968 578.09707 581.41049 589.13937">meaning that compiled Java code can run on</tspan></text>
<text xml:space="preserve" transform="matrix(.75 0 0 .75 72 231.15039)" font-size="14.666667" font-family="Calibri"><tspan y="14.2369799" x="0 7.020401 10.383896 13.747391 17.060791 24.761048 28.124543 35.008867 39.918138 44.082918 51.8118 56.921449 68.62927 74.36153 77.67493 82.5842 90.284458 97.16878 102.07805 105.39145 111.1237 118.82396 126.524219 134.22447 141.95336 147.063 151.97228 155.28568 159.95879 166.73569 173.14048 180.16088 183.47428 193.9512 197.3147 202.22397 209.92423 217.6531 225.35337 230.26264 233.57604 238.4853 246.18556 253.4779 256.79133 264.49159 271.78395 279.0763 286.77656 290.08998 294.25477 301.98365">all platforms that support Java without the need for</tspan></text>
<text xml:space="preserve" transform="matrix(.75 0 0 .75 72 231.15039)" font-size="14.666667" font-family="Calibri"><tspan y="14.2369799" x="310.40663 315.32289 322.61524 328.69093 336.4198 348.12763 355.82789 359.19139 362.55488 369.4392 374.34849 377.71199 385.44087 393.1411 396.84095 400.15437 404.82746 411.60438 418.00917 425.02955 428.34297 435.36335 443.0636 450.76387 454.12736 457.49085 463.56654 470.45088 475.36015 478.72364 486.4525 494.15278 499.885 503.19844 510.2188 515.1351 522.4274 525.74087 530.65017 537.2841 544.9844 548.3479 554.4236 561.444 564.8075 568.171">recompilation. Java applications are typically</tspan></text>
<text xml:space="preserve" transform="matrix(.75 0 0 .75 72 246.59229)" font-size="14.666667" font-family="Calibri"><tspan y="14.2369799" x="0 6.0756685 13.80455 25.512375 33.21263 36.576128 39.93962 47.231966 54.93222 58.24562 63.011659 70.74054 74.05394 81.68257 88.38814 93.13985 100.43219 106.50786 114.23674 121.937 129.22934 132.54274 137.45201 145.15227 152.03659 156.94586 160.25926 166.33493 173.35533 181.05559 184.36899 189.47864 197.1789 204.87915 208.19255 215.92144 223.62169 226.93509 233.95549 241.3836 248.01757 251.33097 256.0041 262.781 269.1858 276.20619 279.5196 286.13923 289.50273 294.61238 299.52165 307.2219 314.2423">compiled to bytecode that can run on any Java virtual</tspan></text>
<text xml:space="preserve" transform="matrix(.75 0 0 .75 72 246.59229)" font-size="14.666667" font-family="Calibri"><tspan y="14.2369799" x="320.9192 332.627 339.6474 345.84483 353.54508 356.90858 364.60884 371.90119 375.2146 379.6587 384.3318 392.6475 405.17829 409.62239 412.9358 417.85206 425.1444 431.771 438.79139 443.7005 451.40077 454.76426 462.05659 467.78883 473.52107 476.83448 484.56336 489.03608 492.3495 497.25877 504.959 512.25137 515.56478 523.265 530.9653 538.6655 545.9579 551.0675 554.431 561.065 564.42849 572.1287">machine (JVM) regardless of the underlying</tspan></text>
<text xml:space="preserve" transform="matrix(.75 0 0 .75 72 262.03419)" font-size="14.666667" font-family="Calibri"><tspan y="14.2369799" x="0 6.0756685 13.80455 25.512375 33.21263 40.912889 45.664598 52.95694 58.06659 61.37999 68.40039 73.29518 79.4926 87.192859 90.55635 95.30806 102.6004 108.79782 113.70709 121.40735 126.32362 133.61597">computer architecture.</tspan></text>
<text xml:space="preserve" transform="matrix(.75 0 0 .75 72 287.47608)" font-size="14.666667" font-family="Calibri"><tspan y="14.2369799" x="0 4.673111 11.450012 17.854798 24.875199 28.188599 38.50081 45.52121 51.253465 54.566865 60.764284 68.46454 76.19342 81.925678 89.21802 96.918277 100.231678 107.252079 112.98433 116.29773 121.207 128.90726 136.1996 139.513 151.22083 158.24123 161.60472 169.30498 172.61838 175.98188 183.00228 190.70253 197.60128 205.30153 212.32193 219.09893 226.39127 229.70467 234.4707 242.19959 245.51299 253.21324 260.43397 266.9104 274.20274 277.56623 285.2951 292.99537 296.30879 301.21806 308.9183">Java was chosen as the main language to develop the</tspan></text>
<text xml:space="preserve" transform="matrix(.75 0 0 .75 72 287.47608)" font-size="14.666667" font-family="Calibri"><tspan y="14.2369799" x="319.52403 324.99128 331.48915 337.05668 341.80839 349.1007 360.80854 364.12196 371.8222 379.11457 385.19026 392.21064 399.9109 405.64314 412.9355 416.2489 419.6124 424.52168 427.83509 431.19859 436.93086 440.24427 447.97315 452.44587 457.19758 464.48994 472.1902 475.5036 480.41288 488.11314 495.40547 498.71888 506.41914 513.5825 517.7688 524.7892 532.48947 535.8529 540.7622 544.0756 550.2731 557.9733 565.7022 569.0657 575.26309">system because it is often the default choice</tspan></text>
<text xml:space="preserve" transform="matrix(.75 0 0 .75 72 302.91798)" font-size="14.666667" font-family="Calibri"><tspan y="14.2369799" x="0 4.1647799 11.8936619 17.003312 20.316712 26.048966 32.246385 35.60988 42.90222 50.4664 55.37567 58.739168 63.2119 66.57539 72.77281 76.08621 83.10661 90.80687 98.507129 101.87062 105.234119 111.309787 118.19411 123.10338 126.46687 134.19576 141.89601 147.62827 151.28517 154.59857 157.96207 165.66233 171.85974 175.22324 182.9235 190.62375 193.98725 201.6875 208.58625 211.89965 219.5999 226.48423 231.3935 239.09375 243.9026 250.923 254.2865 257.5999 260.9634 267.98384 275.68409 282.58283 290.28309 297.30348 304.08045">for scientific applications, including natural language</tspan></text>
<text xml:space="preserve" transform="matrix(.75 0 0 .75 72 302.91798)" font-size="14.666667" font-family="Calibri"><tspan y="14.2369799" x="314.6862 322.38645 327.25978 334.98866 341.18608 348.4784 354.21064 359.94288 363.30638 371.00663 377.90538 381.21876 388.919 396.21138 402.28706 409.30744 417.0077 422.73994 430.0323 433.3457 436.7092 441.61848 444.9319 448.29539 454.02766 457.34107 469.0489 476.77778 481.69404 488.9864 492.2998 498.03205 505.3244 511.52183 519.22207 524.1383 531.43069 535.0876 538.401 546.10128 553.83016 558.9398 563.67007 570.6904 578.3907 581.75418 589.0465">processing because it is more secure, portable,</tspan></text>
<text xml:space="preserve" transform="matrix(.75 0 0 .75 72 318.35987)" font-size="14.666667" font-family="Calibri"><tspan y="14.2369799" x="0 11.707825 18.728226 22.09172 29.6559 34.386125 41.406526 44.77002 52.470277 59.76262 67.462879 70.776279 77.79668 85.49693 93.19719 96.51059 102.58626 110.31514 122.022968 129.3153 135.04756 138.36096 148.83789 152.20139 157.11066 164.81092 168.12432 175.14472 182.84497 189.24976 196.27016 203.97042 210.16783 217.46018 225.16043 228.47383 233.23987 240.96875 248.69763 252.06113 257.7934">maintained and comes with advanced tools.</tspan></text>
<text xml:space="preserve" transform="matrix(.75 0 0 .75 72 343.80177)" font-size="14.666667" font-family="Calibri"><tspan y="14.2369799" x="0 3.692688 11.392944 14.706345 22.4066 29.427002 34.53665 39.445924 42.809419 49.006837 56.707094 60.070589 67.09099 70.940219 74.59712 77.91052 82.58363 89.360538 95.76532 102.78572 106.09912 116.41133 123.43173 129.16399 132.47739 140.17765 145.9099 153.20224 160.9025 164.2159 168.98194 176.71082 180.02422 183.38771 195.09554 202.79579 206.15929 213.45163 225.15946 232.4518 240.01598 244.92525 248.23865 253.14792 260.84819 268.1405 271.45393 278.52424 284.91493 289.8242 294.63307 301.65345 307.85087 312.76014 316.12364 323.8525">In particular, Java was used to implement the extraction</tspan></text>
<text xml:space="preserve" transform="matrix(.75 0 0 .75 72 343.80177)" font-size="14.666667" font-family="Calibri"><tspan y="14.2369799" x="334.86616 342.59504 347.06776 350.38117 357.04377 364.74403 372.4156 382.89253 386.256 393.54835 401.2486 408.02558 415.31794 418.63136 423.10408 427.97737 435.70625 447.41407 450.72749 455.63676 463.337 470.62934 473.94276 478.69447 485.76478 492.15547 497.06474 500.72163 504.03504 508.9443 516.64456 523.9369 527.2503 533.326 541.0549 548.7551 556.4554 563.74777 569.9452 574.8545 578.218 585.9469">of knowledge from the text, the connection</tspan></text>
<text xml:space="preserve" transform="matrix(.75 0 0 .75 72 359.24366)" font-size="14.666667" font-family="Calibri"><tspan y="14.2369799" x="0 10.476929 13.840424 18.749695 26.449952 29.763352 34.672624 42.37288 49.665224 52.978624 59.877367 64.68622 71.70662 79.406879 87.10713 90.42053 98.12079 105.00511 109.73534 116.75574 124.45599 131.4764 137.20865 144.50099 147.81439 154.8348 162.53505 170.2353 173.5487 178.45798 186.15824 193.45058 196.76398 202.9614 207.87767 215.17002 222.05434 226.96361 230.3271 238.05599 245.75624 249.06964 256.79853 261.27125 264.58467 272.2849 277.1582 284.8871 288.25059 295.97947">with the graph database and the creation of prolog</tspan></text>
<text xml:space="preserve" transform="matrix(.75 0 0 .75 72 359.24366)" font-size="14.666667" font-family="Calibri"><tspan y="14.2369799" x="306.19163 310.37788 317.39826 323.59568 328.50495 334.23719">facts.</tspan></text>
<text fill="#666666" xml:space="preserve" transform="matrix(.75 0 0 .75 72 384.68556)" font-size="22.666666" font-family="Calibri"><tspan y="32.66927" x="0 11.704254 19.237717 31.185349 36.38478 48.332414">Prolog</tspan></text>
<text xml:space="preserve" transform="matrix(.75 0 0 .75 72 422.5503)" font-size="14.666667" font-family="Calibri"><tspan y="14.2369799" x="0 7.5714418 12.444748 20.17363 23.537125 31.266007 38.16475 41.47815 44.841646 50.5739 53.8873 60.9077 64.2211 67.584598 75.31348 82.21222 85.575717 91.77313 95.08653 102.78679 107.660099 115.38898 122.28772 127.09657 134.11698 145.8248 157.53263 160.89612 168.59638 175.49512 178.80852 182.17201 189.19242 196.89267 203.79141 211.49167 218.51207 225.28907 232.5814 235.8948 242.9152 248.64746 254.37972 262.10859 268.306 271.6695 278.55384 283.30555 290.59788">Prolog is a logic programming language associated</tspan></text>
<text xml:space="preserve" transform="matrix(.75 0 0 .75 72 422.5503)" font-size="14.666667" font-family="Calibri"><tspan y="14.2369799" x="301.61155 312.08848 315.45198 320.36125 328.0615 331.37489 338.39527 343.5049 348.41419 351.77769 356.25044 359.61393 365.81135 369.17485 376.19526 379.55876 382.87214 386.23564 393.7998 398.5515 405.84388 409.20738 412.57087 415.93437 422.71138 430.00373 437.70399 443.9014 451.19374 454.50715 461.52754 469.22779 476.92805 480.24147 486.31715 494.04603 505.75386 513.4541 521.15438 525.8846 532.7689 537.6782 541.04177 548.7706 556.4709 563.49136">with artificial intelligence and computational</tspan></text>
<text xml:space="preserve" transform="matrix(.75 0 0 .75 72 437.9922)" font-size="14.666667" font-family="Calibri"><tspan y="14.2369799" x="0 3.3634949 6.7269899 14.427246 21.325989 29.026246 32.38974 37.957277 42.866548 46.23004 52.42746 58.159715">linguistics.</tspan></text>
<text xml:space="preserve" transform="matrix(.75 0 0 .75 72 463.43409)" font-size="14.666667" font-family="Calibri"><tspan y="14.2369799" x="0 7.5714418 12.444748 20.17363 23.537125 31.266007 38.16475 41.47815 49.178407 56.198808 61.93106 65.24446 68.607959 73.51723 79.24948 82.56288 87.43619 95.16507 102.89395 107.80322 113.53548 116.84888 120.21237 127.91263 131.22603 135.69876 139.06226 143.92125 149.48879 153.94687 158.43392 166.1628 171.07192 178.77217 186.06452 191.17417 194.48757 197.85106 205.57994 212.47869 215.84218 222.0396 225.6965 229.0099 236.0303 239.3437 243.50849 251.23737 256.34703 268.05485 275.07527">Prolog has its roots in first-order logic, a formal</tspan></text>
<text xml:space="preserve" transform="matrix(.75 0 0 .75 72 463.43409)" font-size="14.666667" font-family="Calibri"><tspan y="14.2369799" x="281.75215 285.11564 292.8445 299.74327 303.10676 309.30418 312.96107 316.27449 323.29487 330.99513 338.69538 342.0088 349.70906 357.4093 360.7728 364.1363 370.3262 377.61854 380.93196 392.63978 399.66017 407.08827 413.72224 417.03565 424.76454 429.6738 437.37406 444.66639 449.77604 453.08943 460.78968 465.66297 473.39186 480.2906 485.09944 492.1198 503.82765 515.53549 518.8989 526.5992 533.4979 536.81137 540.1748 547.1952 554.89547 561.7942 569.49447 576.51486 583.2918 590.58419 596.3164">logic, and unlike many other programming languages,</tspan></text>
<text xml:space="preserve" transform="matrix(.75 0 0 .75 72 478.87599)" font-size="14.666667" font-family="Calibri"><tspan y="14.2369799" x="0 7.5714418 12.444748 20.17363 23.537125 31.266007 38.16475 41.47815 44.841646 50.5739 53.8873 57.250795 64.81497 69.56668 76.859027 84.55928 92.25954 99.55188 107.25214 110.56554 118.26579 123.37544 126.73894 138.44676 145.46717 150.57682 153.9403 157.3038 163.93776 167.25116 174.27156 180.00382 183.31722 190.33762 193.65102 201.35128 208.64362 214.84104 218.20453 225.22493 230.03379 236.9181 241.82738 245.19087 251.66728 258.95964 262.273 269.97328 274.84657 282.57545 289.47419 294.28303 301.3034 313.01124 324.71907 328.08256 335.7828">Prolog is intended primarily as a declarative programming</tspan></text>
<text xml:space="preserve" transform="matrix(.75 0 0 .75 72 478.87599)" font-size="14.666667" font-family="Calibri"><tspan y="14.2369799" x="345.995 349.3585 356.3789 364.07917 370.9779 378.67817 385.69856 392.47554 399.76789 403.68959 407.003 411.91227 419.61253 426.90486 430.21827 437.91853 442.7918 450.5207 457.41944 462.22828 469.24867 480.95649 484.2699 487.6334 495.36228 502.26103 505.6245 511.82194 515.1353 518.4988 524.231 527.54446 534.61477 540.96249 548.6627 553.579 560.87136 566.6036 572.3358 579.6282">language: the program logic is expressed</tspan></text>
<text xml:space="preserve" transform="matrix(.75 0 0 .75 72 494.31788)" font-size="14.666667" font-family="Calibri"><tspan y="14.2369799" x="0 3.3634949 11.063751 14.3771519 19.12886 26.421204 31.530854 43.238679 48.970933 52.284334 60.013216 64.48595 67.79935 72.71562 80.007968 83.37146 90.25578 95.165058 98.52855 106.25743 113.95769 119.68994 123.34685 126.66025 131.57653 138.86887 146.56912 151.4854 158.77774 164.51 171.80234 179.36652 184.11823 191.41057 199.11083 202.42423 209.44463 215.17688 218.49028 222.67655 229.69695 235.89437 240.80364 246.53589 249.84929 256.8697 264.56996 272.2702 275.58363 280.69328 288.39353 291.75703 299.04939 304.78163">in terms of relations, represented as facts and rules.</tspan></text>
<text xml:space="preserve" transform="matrix(.75 0 0 .75 72 494.31788)" font-size="14.666667" font-family="Calibri"><tspan y="14.2369799" x="311.79487 320.27516 323.58857 329.66426 337.39314 349.10096 356.8012 364.50148 369.2317 376.11604 381.0253 384.3888 392.11769 399.81794 403.13136 406.49485 412.2271 415.54054 418.90403 426.60429 429.96778 434.87705 438.24055 445.12489 449.8766 457.16896 464.8692 468.18263 475.81126 482.4452 485.7586 490.86827 498.5685 506.26878 513.969 517.3325 525.0328 531.9315 535.24496 542.2653 545.57876 553.279 560.97927 568.2716 573.4529">A computation is initiated by running a query</tspan></text>
<text xml:space="preserve" transform="matrix(.75 0 0 .75 72 509.75978)" font-size="14.666667" font-family="Calibri"><tspan y="14.2369799" x="0 7.6644136 14.140823 21.433167 26.542817 29.856217 34.765489 42.465745 49.758089 55.49034 62.782686 66.096088 71.01236 78.3047 81.6682 88.55252 93.46179 96.82529 104.55417 112.254428 117.98668 121.68652 124.99992 132.14199 139.84224 147.13459 150.44799 158.01943 162.89273 170.62162 173.9851 181.71399 188.61273 191.92613 195.28963 202.31003 210.01029 216.90903 224.60929 231.62969 238.40668 245.69902 249.01242 259.32466 266.34504 272.07728 275.3907 283.09095 288.82319 296.11555">over these relations. The Prolog language was used</tspan></text>
<text xml:space="preserve" transform="matrix(.75 0 0 .75 72 509.75978)" font-size="14.666667" font-family="Calibri"><tspan y="14.2369799" x="307.1292 310.4927 318.19297 321.50636 326.41563 334.11589 337.47938 343.2116 346.52503 354.22529 359.09858 366.82746 370.33409 377.6264 383.82383 388.7331 392.0465 396.81257 404.54145 407.85487 415.5551 423.284 426.5974 431.51368 438.80604 445.82643 451.55867 459.28755 466.9878 470.3513 478.05155 484.9503 488.26368 495.28407 502.9843 510.68458 513.998 521.69827 526.6145 533.90689 539.6391 546.93148 554.4956 559.4049 562.7183 567.6276 575.3279">in this project to do reasoning and present the</tspan></text>
<text xml:space="preserve" transform="matrix(.75 0 0 .75 72 525.20169)" font-size="14.666667" font-family="Calibri"><tspan y="14.2369799" x="0 7.0703279 13.460999 18.37027 23.179123 30.199524 36.396944 41.14865 48.440996 56.14125 59.45465 62.818147 70.43245 74.59723 82.32611 87.43576 99.143589 106.02791 110.93718 114.300678 122.02956 129.72982 133.04322 137.51595 142.38925 150.11814 161.82596 165.13936 170.04863 177.74889 185.04123 188.35463 193.10634 200.17667 206.56734 211.47661 214.79001 219.55605 227.28493 230.59833 235.5076 243.20786 250.5002 253.8136 261.51387 267.2461 274.53846 278.17286">extracted information from the text to the user.</tspan></text>
<text xml:space="preserve" transform="matrix(.75 0 0 .75 72 550.64358)" font-size="14.666667" font-family="Calibri"><tspan y="14.2369799" x="0 12.501785 19.794129 23.107529 30.807785 37.584688 44.061098 51.35344 54.66684 60.864259 68.564517 76.293399 82.02565 89.31799 97.01825 100.33165 105.09769 112.82657 116.13997 123.840229 129.57248 136.86483 140.17823 146.80493 159.84384 163.53653 168.02358 175.59502 180.46833 188.1972 191.5607 199.28958 206.18833 209.50173 216.52213 222.25438 225.56778 228.93128 240.6391 248.33936 251.70285 258.99519 270.703 277.99537 285.5595 290.28974 297.17408 302.08338 305.44688 313.17576">We have chosen to use SWI-Prolog as implementation</tspan></text>
<text xml:space="preserve" transform="matrix(.75 0 0 .75 72 550.64358)" font-size="14.666667" font-family="Calibri"><tspan y="14.2369799" x="324.1894 328.3542 336.08308 341.19273 344.5061 349.41539 357.11564 364.40797 367.72138 375.42164 380.29493 388.0238 391.3873 399.11619 406.01493 409.3283 417.02857 421.90187 429.63075 436.52949 441.33833 448.3587 460.06654 471.77436 475.13786 482.8381 489.73686 493.05024 496.41374 503.43415 511.1344 518.03317 525.7334 532.7538 539.53079 546.8231">for the prolog programming language.</tspan></text>
<text xml:space="preserve" transform="matrix(.75 0 0 .75 72 566.08547)" font-size="14.666667" font-family="Calibri"><tspan y="14.2369799" x="0 8.480301 11.843796 16.753067 24.453324 32.182207 39.88246 46.781206 54.48146 57.79486 64.42157 77.46048 81.15317 85.64021 93.211658 98.08496 105.81384 109.17734 116.90622 123.80496 127.11836 133.74497 140.76537 144.12886 151.82912 159.12146 166.82172 170.13512 173.49861 178.40789 184.14014 187.45354 195.1538 202.88268 210.58293 218.28319 221.64669 228.66709 233.77674 237.14023 242.0495 248.68346 251.99686 259.6971 264.80677 268.17027 279.87809 286.8985 292.00816 295.37165 298.73515">Although SWI-Prolog gained its popularity primarily</tspan></text>
<text xml:space="preserve" transform="matrix(.75 0 0 .75 72 566.08547)" font-size="14.666667" font-family="Calibri"><tspan y="14.2369799" x="308.6825 312.046 319.74626 323.05964 330.352 338.05226 345.7525 351.8282 358.71253 363.6218 366.9853 374.71418 382.41444 386.07136 389.38478 392.74827 397.65754 403.38978 406.7032 414.40345 421.62416 428.10057 435.39289 438.75639 446.48527 454.18553 465.89335 473.18568 480.74986 485.65913 488.97254 492.33604 498.0683 501.3817 513.08956 520.8184 526.386 531.2953 534.6588 541.2928 544.6062 552.30648 557.41616 560.77969 567.2561 574.54849 582.2487 585.56216 593.19076">in education, its development is mostly driven by</tspan></text>
<text xml:space="preserve" transform="matrix(.75 0 0 .75 72 581.52737)" font-size="14.666667" font-family="Calibri"><tspan y="14.2369799" x="0 4.9092714 12.609528 19.90187 23.215271 30.915528 38.20787 45.500215 53.20047 58.932725 62.246126 66.410907 74.139789 79.249439 82.562839 89.58324 97.28349 104.98375 108.347248 111.71074 117.78641 124.67073 129.58 132.9435 140.67238 148.37264 151.68604 159.38629 166.60701 173.08342 180.37577 183.73926 191.46814 199.1684 210.87622 218.16857 225.73274 230.64202 234.34186 237.65526 244.79732 252.49758 255.86107 261.59333 264.90675 268.27024 274.0025 277.31593 281.5022 288.52259 294.72 298.0835 301.447 304.8105 309.5407 316.42506 321.17677 328.46913">the needs for application development. This is facilitated</tspan></text>
<text xml:space="preserve" transform="matrix(.75 0 0 .75 72 581.52737)" font-size="14.666667" font-family="Calibri"><tspan y="14.2369799" x="339.4827 347.11134 353.7453 357.05873 364.0791 367.39253 372.50218 375.86567 382.06309 389.76335 393.07673 396.44023 404.0044 408.7561 416.04847 421.1581 425.34437 432.36476 438.56217 445.8545 449.1679 453.93397 461.66285 464.97627 472.70515 477.6144 485.31468 492.607 497.71665 501.03004 504.72273 511.86479 515.17819 521.25387 528.9827 540.69058 548.3908 556.1197 563.81997 571.1123 578.6765 583.5858">by a rich interface to other IT components</tspan></text>
<text xml:space="preserve" transform="matrix(.75 0 0 .75 72 596.96926)" font-size="14.666667" font-family="Calibri"><tspan y="14.2369799" x="0 7.6286318 14.2625889 17.575989 23.308243 31.0085 38.708757 46.40901 54.137895 59.247545 64.156818 67.52031 75.220569 82.11931 85.43271 97.14053 104.160938 111.58905 118.22301 121.53641 129.23667 136.96555 143.16297 150.86322 162.57105 169.86339 177.42757 182.33684 185.65024 190.55951 197.19347 204.89373 212.18607 217.91832 221.23172 228.25212 235.95238 243.65264 246.96604 251.41014 259.1104 266.32398 271.23323 281.57405 289.30293 294.41258 301.07514 305.51924 308.83265 316.5329 321.4062 329.13508 333.90113 341.63 347.7057 355.43458 358.79808">by supporting many document types and (network) protocols</tspan></text>
<text xml:space="preserve" transform="matrix(.75 0 0 .75 72 596.96926)" font-size="14.666667" font-family="Calibri"><tspan y="14.2369799" x="367.84376 374.86415 380.59638 383.9098 394.2578 401.55018 404.91368 408.27717 411.59059 418.61097 424.3432 427.65663 434.677 437.99043 444.0661 451.79499 463.5028 471.20307 476.11933 483.41169 491.11195 498.4043 506.10456 511.8368 515.2003 521.67678 528.9691 532.28256 535.646 543.31759 553.4866 557.97366 561.33718 568.55789 575.0343 582.32669">as well as a comprehensive low-level</tspan></text>
<text xml:space="preserve" transform="matrix(.75 0 0 .75 72 612.41116)" font-size="14.666667" font-family="Calibri"><tspan y="14.2369799" x="0 3.3634949 10.927673 15.679382 22.971726 28.081376 32.26764 39.28804 45.48546 52.7778 56.0912 60.85724 68.58612 71.89952 79.71428">interface to C.</tspan></text>
<text fill="#666666" xml:space="preserve" transform="matrix(.75 0 0 .75 72 637.853)" font-size="22.666666" font-family="Calibri"><tspan y="32.66927" x="0 10.409927 17.722184 28.574616 40.34517 46.783388 58.731019 66.319828 78.223209 83.3452 97.969989 107.4949">Stanford NLP</tspan></text>
<text xml:space="preserve" transform="matrix(.75 0 0 .75 72 675.7178)" font-size="14.666667" font-family="Calibri"><tspan y="14.2369799" x="0 6.734146 11.464371 18.484772 26.099076 30.263855 37.992738 42.901857 50.60211 53.915513 61.73027 69.45915 74.37543 81.66777 91.128498 97.29013 104.86157 108.17497 115.467319 123.16757 130.18798 137.88823 141.25173 148.54407 154.27632 157.58972 165.28998 171.02223 178.31458 183.17357 188.90583 192.21923 196.98526 204.71414 208.02754 215.7278 223.02014 228.12979 231.49329 237.9697 245.26204 248.57544 251.93894 255.30243 263.0027 269.90144 277.60169 280.96519 286.5327 291.44197 294.80546">Stanford CoreNLP enables users to derive linguistic</tspan></text>
<text xml:space="preserve" transform="matrix(.75 0 0 .75 72 675.7178)" font-size="14.666667" font-family="Calibri"><tspan y="14.2369799" x="304.31629 311.33668 319.03694 326.73719 334.46607 339.1963 346.08064 350.9899 354.3534 362.08229 369.78254 375.51478 378.8282 382.99299 390.72187 395.8315 399.1449 403.8966 410.96693 417.3576 422.26689 425.92378 429.23719 432.60069 440.30094 446.49836 449.86186 457.5621 465.26237 468.62586 476.3261 483.22486 486.53828 491.30433 499.0332 505.2231 512.51547 520.2157 523.5291 530.5495 538.24978">annotations for text, including token and</tspan></text>
<text xml:space="preserve" transform="matrix(.75 0 0 .75 72 691.15969)" font-size="14.666667" font-family="Calibri"><tspan y="14.2369799" x="0 5.732254 13.024597 20.588776 25.340485 32.632829 40.333086 46.530504 53.822847 57.136247 64.8365 72.565387 80.26564 87.9659 95.66615 102.686557 107.7962 111.1597 118.45204 124.184299 127.8412 131.1546 138.85486 145.87526 150.98491 155.89418 161.62644 164.93984 172.66872 177.14145 180.45485 186.1871 193.88736 201.1797 208.47205 214.66947 222.36972 226.02663 229.34003 237.04029 244.06069 255.76851 263.06086 270.7611 274.07453 281.36689 288.93104 293.84034 297.20384 302.1131 305.4766 312.76893 318.50117">sentence boundaries, parts of speech, named entities,</tspan></text>
<text xml:space="preserve" transform="matrix(.75 0 0 .75 72 691.15969)" font-size="14.666667" font-family="Calibri"><tspan y="14.2369799" x="325.47148 333.17173 340.87199 352.5798 359.87214 364.98179 368.34529 374.5427 377.85609 384.87648 392.57673 400.27699 403.5904 408.49967 411.86317 423.57099 430.86335 434.17677 440.58155 447.60194 450.96543 458.66569 465.958 471.69026 475.34718 478.66059 486.36085 493.6532 501.35346 508.6458 516.34609 524.0463 531.3387 539.03897 545.2363 551.8703 555.1837 562.2041 569.90438">numeric and time values, dependency and</tspan></text>
<text xml:space="preserve" transform="matrix(.75 0 0 .75 72 706.60159)" font-size="14.666667" font-family="Calibri"><tspan y="14.2369799" x="0 6.0756685 13.80455 21.504807 27.072342 31.981614 35.345109 40.25438 47.954637 55.24698 62.947237 69.14465 75.77861 79.09201 86.79227 93.81267 98.67166 104.403919 111.69626 115.54549 119.20239 122.51579 128.59146 136.32035 141.23662 148.40004 152.50753 159.79987 164.71614 172.00849 179.70874 185.90616 193.1985 196.85541 200.16881 205.90106 213.1934 220.75759 225.66686 229.03035 240.73818 248.03052 255.5947 260.50398 264.1609 267.4743 275.17457 282.87483 290.6037 295.3554">constituency parser, coreference, sentiment, quote</tspan></text>
<text xml:space="preserve" transform="matrix(.75 0 0 .75 72 706.60159)" font-size="14.666667" font-family="Calibri"><tspan y="14.2369799" x="305.96113 312.84547 317.54707 322.45634 327.56599 330.92948 338.62974 346.33 351.23927 354.60276 362.33164 370.0319 375.76417 379.42109 382.7345 389.75489 397.45515 405.1554 408.4688 413.38508 420.67744 424.04093 430.92524 435.8345 439.198 446.92689 454.62715 460.35939">attributions, and relations.</tspan></text>
</g>
</g>
</svg>
