<?xml version="1.0" encoding="UTF-8" standalone="no"?>
<!DOCTYPE svg PUBLIC "-//W3C//DTD SVG 1.1//EN" "http://www.w3.org/Graphics/SVG/1.1/DTD/svg11.dtd">
<svg xmlns="http://www.w3.org/2000/svg" xmlns:xlink="http://www.w3.org/1999/xlink" version="1.1" width="596pt" height="842pt" viewBox="0 0 596 842">
<g enable-background="new">
<clipPath id="cp47">
<path d="M 0 0 L 595.5 0 L 595.5 842.25 L 0 842.25 Z " fill-rule="evenodd"/>
</clipPath>
<g clip-path="url(#cp47)">
<path transform="matrix(.75,0,0,.75,0,0)" d="M 0 0 L 794 0 L 794 1123 L 0 1123 Z " fill="#ffffff"/>
</g>
<clipPath id="cp48">
<path d="M 92.25 72.75 L 522.75 72.75 L 522.75 148.38672 L 92.25 148.38672 Z " fill-rule="evenodd"/>
</clipPath>
<g clip-path="url(#cp48)">
<text xml:space="preserve" transform="matrix(.75 0 0 .75 96.75 78)" font-size="13.333333" font-family="CourierNew" font-style="italic"><tspan y="11.100261" x="0 7.998184 15.996368 23.994553 31.992737 39.99092 47.989107 55.98729 63.985475 71.98366 79.98184 87.98003 95.97821 103.976398 111.97458 119.97276 127.97095 135.96913 143.96732 151.9655 159.96369 167.96187 175.96006 183.95824 191.95642 199.9546 207.95279 215.95098 223.94916 231.94734 239.94553 247.94371 255.9419">career at Microsoft Corporation ,</tspan></text>
<text xml:space="preserve" transform="matrix(.75 0 0 .75 96.75 78)" font-size="13.333333" font-family="CourierNew" font-style="italic"><tspan y="11.100261" x="271.93827 279.93647 287.93464 295.9328 303.93098">Gates</tspan></text>
<text xml:space="preserve" transform="matrix(.75 0 0 .75 96.75 78)" font-size="13.333333" font-family="CourierNew" font-style="italic"><tspan y="11.100261" x="319.92738 327.92555 335.9237 343.92189 351.92005 359.9182 367.91639 375.91456 383.91273 391.9109 399.90907 407.90724 415.9054 423.90357 431.90174 439.8999 447.89808 455.89625 463.8944 471.89259 479.89076 487.88893 495.8871 503.88526 511.88343 519.8816 527.87979 535.8779">held positions of chairman ,</tspan></text>
<text xml:space="preserve" transform="matrix(.75 0 0 .75 96.75 91.02734)" font-size="13.333333" font-family="CourierNew" font-style="italic"><tspan y="11.100261" x="0 7.998184 15.996368 23.994553 31.992737 39.99092 47.989107 55.98729 63.985475 71.98366 79.98184 87.98003 95.97821 103.976398 111.97458 119.97276 127.97095 135.96913 143.96732 151.9655 159.96369 167.96187 175.96006 183.95824 191.95642 199.9546 207.95279 215.95098 223.94916 231.94734 239.94553 247.94371 255.9419 263.94007 271.93824 279.9364 287.93458 295.93275 303.9309 311.92909 319.92726 327.9254 335.92359 343.92176 351.91993 359.9181 367.91627 375.91444 383.9126 391.91078 399.90895 407.9071 415.90528">chief executive officer ( CEO ) , president and chief</tspan></text>
<text xml:space="preserve" transform="matrix(.75 0 0 .75 96.75 91.02734)" font-size="13.333333" font-family="CourierNew" font-style="italic"><tspan y="11.100261" x="431.90196 439.90016 447.89833 455.89649 463.89466 471.89283 479.891 487.88917">software</tspan></text>
<text xml:space="preserve" transform="matrix(.75 0 0 .75 96.75 104.05469)" font-size="13.333333" font-family="CourierNew" font-style="italic"><tspan y="11.100261" x="0 7.998184 15.996368 23.994553 31.992737 39.99092 47.989107 55.98729 63.985475 71.98366 79.98184 87.98003 95.97821 103.976398 111.97458 119.97276 127.97095 135.96913 143.96732 151.9655 159.96369 167.96187 175.96006 183.95824 191.95642 199.9546 207.95279 215.95098 223.94916 231.94734 239.94553 247.94371 255.9419 263.94007 271.93824 279.9364 287.93458 295.93275 303.9309 311.92909 319.92726 327.9254 335.92359 343.92176 351.91993 359.9181 367.91627 375.91444 383.9126 391.91078 399.90895 407.9071 415.90528 423.90345 431.9016 439.89979 447.89796 455.89613 463.8943">architect , while also being largest individual shareholder</tspan></text>
<text xml:space="preserve" transform="matrix(.75 0 0 .75 96.75 104.05469)" font-size="13.333333" font-family="CourierNew" font-style="italic"><tspan y="11.100261" x="479.89106 487.88923 495.8874 503.88557 511.88374 519.8819 527.88009 535.87826 543.8764">until May</tspan></text>
<text xml:space="preserve" transform="matrix(.75 0 0 .75 96.75 117.08203)" font-size="13.333333" font-family="CourierNew" font-style="italic"><tspan y="11.100261" x="0 7.998184 15.996368 23.994553 31.992737 39.99092">2014 .</tspan></text>
<text xml:space="preserve" transform="matrix(.75 0 0 .75 96.75 117.08203)" font-size="13.333333" font-family="CourierNew" font-style="italic"><tspan y="11.100261" x="55.98729 63.985475 71.98366 79.98184 87.98003">Gates</tspan></text>
<text xml:space="preserve" transform="matrix(.75 0 0 .75 96.75 117.08203)" font-size="13.333333" font-family="CourierNew" font-style="italic"><tspan y="11.100261" x="103.976398 111.97458 119.97276 127.97095 135.96913 143.96732 151.9655 159.96369 167.96187 175.96006 183.95824 191.95642 199.9546 207.95279 215.95098 223.94916 231.94734 239.94553 247.94371 255.9419 263.94007 271.93824 279.9364 287.93458 295.93275 303.9309 311.92909 319.92726 327.9254 335.92359 343.92176 351.91993 359.9181 367.91627 375.91444 383.9126">is one of best - known entrepreneurs</tspan></text>
<text xml:space="preserve" transform="matrix(.75 0 0 .75 96.75 117.08203)" font-size="13.333333" font-family="CourierNew" font-style="italic"><tspan y="11.100261" x="399.9092 407.9074 415.90559 423.90376 431.90193 439.9001 447.89826 455.89643 463.8946 471.89277 479.89094 487.8891 495.88728 503.88545 511.8836">and pioneers of</tspan></text>
<text xml:space="preserve" transform="matrix(.75 0 0 .75 96.75 130.10938)" font-size="13.333333" font-family="CourierNew" font-style="italic"><tspan y="11.100261" x="0 7.998184 15.996368 23.994553 31.992737 39.99092 47.989107 55.98729 63.985475 71.98366 79.98184 87.98003 95.97821 103.976398 111.97458 119.97276 127.97095 135.96913 143.96732 151.9655 159.96369 167.96187 175.96006 183.95824 191.95642 199.9546 207.95279 215.95098 223.94916 231.94734 239.94553 247.94371 255.9419 263.94007 271.93824 279.9364 287.93458 295.93275 303.9309 311.92909 319.92726 327.9254 335.92359 343.92176 351.91993">microcomputer revolution of 1970s and 1980s .</tspan></text>
</g>
<clipPath id="cp49">
<path d="M 0 0 L 595.5 0 L 595.5 842.25 L 0 842.25 Z " fill-rule="evenodd"/>
</clipPath>
<g clip-path="url(#cp49)">
<text xml:space="preserve" transform="matrix(.75 0 0 .75 72 174.57813)" font-size="14.666667" font-family="Calibri"><tspan y="14.2369799" x="0 8.480301 12.953033 17.704743 24.997086 30.106736 33.420137 38.329408 46.029664 49.393159 55.125413 58.438814 66.13907 71.012378 78.74126 84.938678 92.23102 97.96327 103.695529 107.35243 110.66583 121.01384 128.30619 131.61959 139.31984 145.0521 152.34444 155.65784 160.56711 168.26737 171.63086 177.36312 180.67652 185.59279 192.88513 198.61739 206.34627 209.70977 216.18618 223.47852 231.17877 234.49217 239.24388 246.31421 252.70488 257.61415 260.92756 265.6936 273.4225 276.7359 283.8062 290.1969 295.10618 299.91505 306.93544 313.13285">After this process, we use this resolved text to extract</tspan></text>
<text xml:space="preserve" transform="matrix(.75 0 0 .75 72 174.57813)" font-size="14.666667" font-family="Calibri"><tspan y="14.2369799" x="321.35548 326.26475 333.965 341.25733 344.57075 352.271 359.29139 370.9992 378.29158 385.99183 389.30525 396.5976 404.16178 409.07106 412.43455 417.3438 420.7073 427.99964 433.73188 437.0453 441.518 446.3913 454.12019 465.828 469.14143 474.0507 481.75096 489.04328 492.3567 497.1084 504.1787 510.5694 515.47866">the named entities from the text.</tspan></text>
<text fill="#666666" xml:space="preserve" transform="matrix(.75 0 0 .75 72 200.02051)" font-size="17.333334" font-family="Calibri" font-style="italic"><tspan y="24.825522" x="0 11.168518 20.077958 33.784776 42.05963 50.96907 54.88652 63.20363 71.94379 77.74803 81.7247 87.528949 95.27922 99.19667 108.30061 116.57547 123.64035 132.53287 141.4423 150.35175 154.32842 160.13266 164.10933 173.00185">Named Entity Recognition</tspan></text>
<text xml:space="preserve" transform="matrix(.75 0 0 .75 72 228.27051)" font-size="14.666667" font-family="Calibri"><tspan y="14.2369799" x="0 9.017029 16.717286 21.826935 25.19043 32.890687 39.78943 43.10283 48.0121 55.712358 63.0047 66.3181 75.778827 82.799228 94.50705 101.79939 109.49965 112.81305 119.96942 127.5336 132.44287 135.80637 140.71564 147.3496 150.663 158.36305 165.6554 171.73107 179.45995 186.35869 194.05895 197.42244 202.33171 205.6952 213.42409 221.12435 224.43775 232.138 237.0113 244.74019 250.9376 258.22996 263.96223 269.69447 273.35139 276.6648 287.01283 294.30519 297.6186 305.31886 311.0511">During the Named Entity Recognition process, we use</tspan></text>
<text xml:space="preserve" transform="matrix(.75 0 0 .75 72 228.27051)" font-size="14.666667" font-family="Calibri"><tspan y="14.2369799" x="321.65678 326.56605 334.2663 341.55867 344.87208 351.6062 356.33644 363.3568 370.97114 375.13594 382.8648 387.77394 395.47419 398.7876 408.24833 414.40998 421.9814 425.2948 428.6583 432.0218 439.72206 444.53089 451.55128 456.73255 463.36653 466.67994 471.44599 479.17488 482.48829 490.18855 493.55204 499.2843 505.36 513.0244 519.50088 526.7932 531.90286 535.21627 540.1255 547.82577">the Stanford NLP library to discover the</tspan></text>
<text xml:space="preserve" transform="matrix(.75 0 0 .75 72 243.71192)" font-size="14.666667" font-family="Calibri"><tspan y="14.2369799" x="0 7.292343 14.856522 19.765793 23.129288 28.038559 31.402054 38.694398 44.42665 47.74005 51.103548 58.803804 62.117204 67.026477 74.72673 82.01907 85.33247 90.08418 97.15451 103.54518 108.45445 112.11136 115.42476 123.15364 130.78943 135.51966 142.54006 145.90355 153.6038 160.89615 168.5964 171.9098 176.38254 181.25585 188.98473 200.69255 204.00595 208.91522 216.61548 223.90782 227.22122 234.92148 239.83776 247.05847 253.67812 257.04164 264.7705 272.47077 278.203 281.51643 287.08399 291.8357 299.12803 306.82829">entities in the text, obtained from the previous step.</tspan></text>
<text xml:space="preserve" transform="matrix(.75 0 0 .75 72 243.71192)" font-size="14.666667" font-family="Calibri"><tspan y="14.2369799" x="313.8415 320.57563 325.4489 333.1778 344.88563 348.19905 353.1083 360.80857 364.17207 369.9043 373.56123 376.87464 387.22267 394.515 397.82844 403.56068 410.3376 416.814 424.10633 427.41975 434.44013 437.75355 441.11705 444.48054 450.04808 454.95735 458.27076 465.99964 470.47236 473.78578 478.69505 486.3953 493.68763 497.00105 504.2934 511.85758 516.76687 520.1304 525.0397 531.67367 534.98709 546.6949 553.98727 561.5514 566.4607 569.8242 577.5531 585.25338">From this, we save a list of the entity mentions</tspan></text>
<text xml:space="preserve" transform="matrix(.75 0 0 .75 72 259.15333)" font-size="14.666667" font-family="Calibri"><tspan y="14.2369799" x="0 7.020401 14.720657 22.420914 25.734314 30.643586 38.34384 45.636186 48.99968 54.10933 57.42273 63.498399 70.38272 75.13443 82.42677 89.22525 96.95413 102.06378 105.42728 112.71962 118.45187">and their categories.</tspan></text>
<text xml:space="preserve" transform="matrix(.75 0 0 .75 72 284.5957)" font-size="14.666667" font-family="Calibri"><tspan y="14.2369799" x="0 12.501785 19.794129 23.107529 29.183197 36.203599 43.903856 47.217256 52.94951 60.24185 67.534198 70.847599 74.21109 81.91135 85.22475 90.13402 97.834278 105.12662 108.44002 112.6048 120.33368 123.697177 127.06067 134.73226 145.20919 148.57268 156.27294 163.17168 166.48508 172.21733 179.91759 183.28108 190.98134 198.6816 205.89516 210.80443 214.46134 217.77474 222.684 230.38426 237.6766 240.99 245.90628 253.19863 258.93089 266.63114 269.99464 274.9039 278.2674 285.96766">We can see in the following snippet, the resulting</tspan></text>
<text xml:space="preserve" transform="matrix(.75 0 0 .75 72 284.5957)" font-size="14.666667" font-family="Calibri"><tspan y="14.2369799" x="296.1798 305.64054 312.7969 320.7548 324.06819 328.5409 333.41419 341.14308 352.8509 356.1643 361.07359 368.77384 376.06617 379.37959 387.07984 391.9961 399.2168 405.83644 409.19993 416.9288 424.62907 430.36134 433.67475 438.42646 445.49678 451.88746 456.79673">NER from the previous text.</tspan></text>
</g>
<clipPath id="cp50">
<path d="M 93 310.7881 L 522.75 310.7881 L 522.75 505.50685 L 93 505.50685 Z " fill-rule="evenodd"/>
</clipPath>
<g clip-path="url(#cp50)">
<text xml:space="preserve" transform="matrix(.75 0 0 .75 97.5 316.0381)" font-size="13.333333" font-family="CourierNew" font-style="italic"><tspan y="11.100261" x="0">{</tspan></text>
<text xml:space="preserve" transform="matrix(.75 0 0 .75 97.5 339.06544)" font-size="13.333333" font-family="CourierNew" font-style="italic"><tspan y="11.100261" x="15.996368 23.994553 31.992737 39.99092 47.989107 55.98729 63.985475 71.98366 79.98184 87.98003 95.97821 103.976398 111.97458 119.97276 127.97095 135.96913 143.96732 151.9655 159.96369 167.96187 175.96006 183.95824 191.95642 199.9546 207.95279 215.95098 223.94916 231.94734 239.94553 247.94371 255.9419 263.94007 271.93824 279.9364 287.93458 295.93275 303.9309 311.92909 319.92726 327.9254 335.92359 343.92176 351.91993 359.9181 367.91627 375.91444 383.9126 391.91078 399.90895 407.9071">American=NATIONALITY, architect=TITLE, one=NUMBER,</tspan></text>
<text xml:space="preserve" transform="matrix(.75 0 0 .75 97.5 339.06544)" font-size="13.333333" font-family="CourierNew" font-style="italic"><tspan y="11.100261" x="423.90376 431.90193 439.9001 447.89826 455.89643 463.8946 471.89277 479.89094 487.8891 495.88728 503.88545 511.8836 519.8818 527.87997 535.8781">chairman=TITLE,</tspan></text>
<text xml:space="preserve" transform="matrix(.75 0 0 .75 97.5 362.09278)" font-size="13.333333" font-family="CourierNew" font-style="italic"><tspan y="11.100261" x="15.996368 23.994553 31.992737 39.99092 47.989107 55.98729 63.985475 71.98366 79.98184 87.98003 95.97821 103.976398 111.97458 119.97276 127.97095 135.96913 143.96732 151.9655 159.96369 167.96187 175.96006 183.95824 191.95642 199.9546 207.95279 215.95098 223.94916 231.94734 239.94553 247.94371 255.9419 263.94007 271.93824 279.9364 287.93458 295.93275 303.9309 311.92909 319.92726 327.9254 335.92359 343.92176 351.91993 359.9181 367.91627 375.91444">CEO=TITLE, Microsoft Corporation=ORGANIZATION,</tspan></text>
<text xml:space="preserve" transform="matrix(.75 0 0 .75 97.5 385.12013)" font-size="13.333333" font-family="CourierNew" font-style="italic"><tspan y="11.100261" x="15.996368 23.994553 31.992737 39.99092 47.989107 55.98729 63.985475 71.98366 79.98184 87.98003 95.97821 103.976398 111.97458 119.97276 127.97095 135.96913 143.96732 151.9655 159.96369 167.96187 175.96006 183.95824 191.95642 199.9546 207.95279 215.95098 223.94916 231.94734 239.94553 247.94371 255.9419 263.94007 271.93824 279.9364 287.93458 295.93275 303.9309 311.92909 319.92726 327.9254 335.92359 343.92176 351.91993 359.9181 367.91627 375.91444 383.9126 391.91078 399.90895 407.9071 415.90528 423.90345 431.9016 439.89979">William Henry Gates III=PERSON, October 28, 1955=DATE,</tspan></text>
<text xml:space="preserve" transform="matrix(.75 0 0 .75 97.5 408.14747)" font-size="13.333333" font-family="CourierNew" font-style="italic"><tspan y="11.100261" x="15.996368 23.994553 31.992737 39.99092 47.989107 55.98729 63.985475 71.98366 79.98184 87.98003 95.97821 103.976398 111.97458 119.97276 127.97095 135.96913 143.96732 151.9655 159.96369 167.96187 175.96006 183.95824 191.95642 199.9546 207.95279 215.95098 223.94916 231.94734 239.94553 247.94371 255.9419 263.94007 271.93824 279.9364 287.93458 295.93275 303.9309 311.92909 319.92726 327.9254 335.92359 343.92176 351.91993 359.9181 367.91627 375.91444 383.9126 391.91078 399.90895 407.9071 415.90528 423.90345">philanthropist=TITLE, chief executive officer=TITLE,</tspan></text>
<text xml:space="preserve" transform="matrix(.75 0 0 .75 97.5 408.14747)" font-size="13.333333" font-family="CourierNew" font-style="italic"><tspan y="11.100261" x="439.90016 447.89833 455.89649 463.89466 471.89283 479.891 487.88917 495.88734 503.8855 511.88368 519.88186 527.88 535.8782 543.87637">May 2014=DATE,</tspan></text>
<text xml:space="preserve" transform="matrix(.75 0 0 .75 97.5 431.1748)" font-size="13.333333" font-family="CourierNew" font-style="italic"><tspan y="11.100261" x="15.996368 23.994553 31.992737 39.99092 47.989107 55.98729 63.985475 71.98366 79.98184 87.98003 95.97821 103.976398 111.97458 119.97276 127.97095 135.96913 143.96732 151.9655 159.96369 167.96187 175.96006 183.95824 191.95642 199.9546 207.95279 215.95098 223.94916 231.94734 239.94553 247.94371 255.9419 263.94007 271.93824 279.9364 287.93458 295.93275 303.9309 311.92909 319.92726 327.9254 335.92359 343.92176 351.91993 359.9181 367.91627 375.91444 383.9126 391.91078 399.90895 407.9071 415.90528 423.90345 431.9016 439.89979 447.89796 455.89613 463.8943">developer=TITLE, magnate=TITLE, Gates=PERSON, 1980s=DATE,</tspan></text>
<text xml:space="preserve" transform="matrix(.75 0 0 .75 97.5 454.20216)" font-size="13.333333" font-family="CourierNew" font-style="italic"><tspan y="11.100261" x="15.996368 23.994553 31.992737 39.99092 47.989107 55.98729 63.985475 71.98366 79.98184 87.98003 95.97821 103.976398 111.97458 119.97276 127.97095 135.96913 143.96732 151.9655 159.96369 167.96187 175.96006 183.95824 191.95642 199.9546 207.95279 215.95098 223.94916 231.94734 239.94553 247.94371 255.9419 263.94007 271.93824 279.9364 287.93458 295.93275 303.9309 311.92909 319.92726 327.9254 335.92359 343.92176 351.91993 359.9181 367.91627">co-founder=TITLE, president=TITLE, 1970s=DATE</tspan></text>
<text xml:space="preserve" transform="matrix(.75 0 0 .75 97.5 477.2295)" font-size="13.333333" font-family="CourierNew" font-style="italic"><tspan y="11.100261" x="0">}</tspan></text>
</g>
<clipPath id="cp51">
<path d="M 0 0 L 595.5 0 L 595.5 842.25 L 0 842.25 Z " fill-rule="evenodd"/>
</clipPath>
<g clip-path="url(#cp51)">
<text xml:space="preserve" transform="matrix(.75 0 0 .75 72 531.69827)" font-size="14.666667" font-family="Calibri"><tspan y="14.2369799" x="0 12.501785 19.794129 23.107529 30.807785 36.54004 43.832384 47.145784 52.055055 59.75531 63.118806 68.85106 72.16446 77.080738 84.37308 90.10533 97.80559 101.16908 106.078357 109.391757 114.15779 121.88667 125.20007 130.93233 138.22467 145.24507 150.13986 156.33728 164.03754 167.35094 171.51572 179.2446 184.35425 187.66765 199.37548 207.10436 212.02063 219.31298 222.62638 225.98987 233.60417 237.76895 245.49784 250.60749 262.3153 269.19966 274.1089 277.47239 285.20127 292.90153">We use this result to search for more information,</tspan></text>
<text xml:space="preserve" transform="matrix(.75 0 0 .75 72 531.69827)" font-size="14.666667" font-family="Calibri"><tspan y="14.2369799" x="299.87184 304.63789 312.36677 315.68019 322.7505 329.0982 336.79847 343.81886 351.5191 359.21937 362.53279 369.19538 376.89564 384.5672 395.04414 398.40763 405.69996 413.4002 420.1772 427.46955 431.12648 434.43989 442.0685 448.70246 452.01588 459.71614 467.41639 474.70875 479.89 486.524 489.88749 497.58775 504.48649 507.79988 512.7091 520.40939 527.7017 531.01516 544.0541 547.4176 554.0802 557.4437 565.144 572.43637 580.1366 583.5001">to expand knowledge, by querying the Wikipedia</tspan></text>
<text xml:space="preserve" transform="matrix(.75 0 0 .75 72 547.1406)" font-size="14.666667" font-family="Calibri"><tspan y="14.2369799" x="0 8.480301 16.051743 19.74443 23.05783 26.421326 34.121583 37.434984 45.163866 50.072984 57.77324 65.06558 70.17523 73.48863 78.25467 85.98355 89.29695 97.02583 104.66162 109.391849 116.41225 119.77574 127.476 130.7894 137.8098 145.51006 148.82346 154.3334 161.40373 167.7944 172.70368 177.51253 184.53293 190.73035 196.14807 202.28108 205.59449 210.03859 220.51552 228.21578 231.57927 237.77669 245.47695 248.79035 254.86602 262.5949 267.70457 272.62086 279.9132 285.64546 293.3457 301.0746 308.77485 316.4751">API in order to obtain an &#x201c;extract&#x201d; (which corresponds</tspan></text>
<text xml:space="preserve" transform="matrix(.75 0 0 .75 72 547.1406)" font-size="14.666667" font-family="Calibri"><tspan y="14.2369799" x="325.52073 330.28675 338.01564 341.32905 346.2383 353.93858 361.2309 364.5443 370.27656 377.9768 389.68464 401.39247 408.41285 413.59413 420.2281 423.5415 431.2704 435.7431 439.05653 446.0769 453.77717 457.09059 464.38294 471.9471 476.85639 480.21989 485.12916 491.76313 495.07655 502.80543 510.50569 513.8191 518.7284 526.42868 533.721 537.0344 550.07339 553.4369 560.0995 563.463 571.16329 578.4556 586.1559 589.5194">to the summary of an entity on the Wikipedia</tspan></text>
<text xml:space="preserve" transform="matrix(.75 0 0 .75 72 562.58206)" font-size="14.666667" font-family="Calibri"><tspan y="14.2369799" x="0 7.7002565 14.720657 21.49765 28.789994 33.2341">page).</tspan></text>
<text xml:space="preserve" transform="matrix(.75 0 0 .75 72 588.0244)" font-size="14.666667" font-family="Calibri"><tspan y="14.2369799" x="0 7.1420595 14.842316 18.20581 23.938065 27.251465 34.95172 39.825029 47.55391 53.751329 61.04367 66.775928 72.50818 75.82158 79.185077 84.91733 88.23073 95.930988 103.65987 108.56914 111.88254 119.582798 127.311679 135.01194 142.30428 145.61768 149.78246 157.51134 162.62099 165.93439 172.95479 176.31829 179.68178 182.99518 187.90445 195.6047 202.89705 206.21045 213.50279 221.06697 225.97624 229.33974 234.24901 237.6125 244.90485 250.6371 253.9505 258.1153 265.84419 273.54444 281.2447">This process is not done for all the entities found</tspan></text>
<text xml:space="preserve" transform="matrix(.75 0 0 .75 72 588.0244)" font-size="14.666667" font-family="Calibri"><tspan y="14.2369799" x="292.25834 295.62184 303.32209 306.6355 311.54478 319.24504 326.53736 329.85078 334.60249 341.6728 348.06349 352.97276 356.62965 359.94306 367.6433 374.93568 381.01136 388.03175 395.732 401.46424 408.7566 412.07 417.80226 425.53114 437.23896 444.5313 447.84474 455.5736 460.04634 463.35975 468.269 475.96928 483.2616 494.96943 498.28285 508.75978 512.1233 515.4868 518.85037 522.16378 529.864 537.5929 542.5022 545.8156 550.7319 558.02426 563.7565 571.4567 574.8202">in the text, because some of them will not result</tspan></text>
<text xml:space="preserve" transform="matrix(.75 0 0 .75 72 588.0244)" font-size="14.666667" font-family="Calibri"><tspan y="14.2369799" x="583.0427 586.40628">in</tspan></text>
<text xml:space="preserve" transform="matrix(.75 0 0 .75 72 603.4658)" font-size="14.666667" font-family="Calibri"><tspan y="14.2369799" x="0 11.707825 19.436707 24.352982 31.645325 34.958726 41.621309 49.321565 56.99315 67.47008 70.83357 78.125919 85.82617 92.603168 99.89551 103.20891 107.653018 114.94536 118.80275 125.70149 129.40134 133.05825 136.37165 146.71965 154.012 157.3254 164.39572 170.41399 176.6114 179.9749 187.67516 195.37541 202.66776 205.98116 213.68141 221.38167 233.0895 240.78975 248.08209 252.94109 258.67335 262.33027 265.64369 273.34394 280.22828 284.97999 292.2723 298.00459 301.318 308.33839 316.03865">more knowledge (e.g., we exclude numbers, dates and</tspan></text>
<text xml:space="preserve" transform="matrix(.75 0 0 .75 72 603.4658)" font-size="14.666667" font-family="Calibri"><tspan y="14.2369799" x="327.05226 332.7845 340.51338 343.82679 351.55567 359.25593 363.7 367.6217 370.93513 375.8444 383.54466 386.90815 392.64039 395.9538 406.43074 409.79423 413.1577 416.5212 419.8346 426.85499 430.21849 435.95075 443.67964 446.99305 452.72529 460.42555 467.7179 475.01026 482.7105 486.02394 493.72419 501.42445 504.73786 509.64714 517.3474 524.6398 527.9532 535.65347 540.52676 548.2556 554.453 561.74539 567.4776 573.20986 576.52328 583.54367">so on); this will also speed up the process as</tspan></text>
<text xml:space="preserve" transform="matrix(.75 0 0 .75 72 618.9072)" font-size="14.666667" font-family="Calibri"><tspan y="14.2369799" x="0 7.292343 14.312744 20.510163 28.210419 31.523819 40.76985 47.926225 55.068284 58.381685 63.29796 70.5903 78.29056 85.990818 93.28316 98.85069 103.759967 107.073368 113.14903 120.16943 127.86969 131.18309 135.91332 142.93372 149.12363 156.41597 159.72937 164.63864 168.00214 179.70996 187.0023">each GET request can take time.</tspan></text>
<text fill="#666666" xml:space="preserve" transform="matrix(.75 0 0 .75 72 644.3496)" font-size="17.333334" font-family="Calibri" font-style="italic"><tspan y="24.825522" x="0 15.424408 19.401078 27.278275 31.254944 40.164384 48.43924 57.34868 61.325349 70.23479 74.15224 78.51811 87.25827 92.87631 101.15117 110.06061 116.00023 124.90967 130.71392 134.69058 143.5831">Wikipedia Integration</tspan></text>
<text xml:space="preserve" transform="matrix(.75 0 0 .75 72 672.5996)" font-size="14.666667" font-family="Calibri"><tspan y="14.2369799" x="0 5.838669 13.131012 19.793595 27.49385 35.222734 38.536134 41.899629 47.63188 50.945283 57.02095 64.04135 71.74161 78.76201 86.462268 89.82576 97.1181 100.4315 108.160388 112.63312 115.94652 123.23886 130.93912 136.04877 139.41226 145.60968 153.30994 156.67343 164.37369 171.27243 174.58583 179.4951 187.19536 194.4877 197.8011 201.1646 208.7789 212.94368 220.67256 225.78221 237.49004 244.37436 249.28363 252.64713 260.376 268.07627 271.38966 276.3059 283.51948 288.4287 293.53837 296.90187 304.12257 310.599 317.89134">Tekno is capable of enriching the information retrieved</tspan></text>
<text xml:space="preserve" transform="matrix(.75 0 0 .75 72 672.5996)" font-size="14.666667" font-family="Calibri"><tspan y="14.2369799" x="328.90504 336.53367 343.1676 346.48103 351.3903 359.09056 366.38288 369.6963 373.05979 380.76005 388.4603 396.16056 401.06983 404.38325 409.13496 416.20527 422.59596 427.50523 430.8186 438.51887 444.2511 447.6146 455.31486 462.2136 465.52699 478.5659 481.92939 488.59199 491.95549 499.65574 506.94807 514.6483 518.01187 525.0322 528.73208 532.0455 539.1875 546.88778 550.2512 555.98348 559.2969 562.6604 568.39266 571.70608 579.4063 585.13858 592.4309">by the input text using Wikipedia. This is used</tspan></text>
<text xml:space="preserve" transform="matrix(.75 0 0 .75 72 688.041)" font-size="14.666667" font-family="Calibri"><tspan y="14.2369799" x="0 3.3634949 11.063751 14.3771519 19.286423 29.627274 37.356157 40.669557 48.369813 51.733308 56.062807 60.170289 67.46263 72.37891 79.67125 87.23543 92.1447 95.4581 105.77031 112.51857 119.01645 124.7487">in two different ways:</tspan></text>
<text xml:space="preserve" transform="matrix(.75 0 0 .75 72 713.4824)" font-size="14.666667" font-family="ArialMT"><tspan y="14.2369799" x="24">&#x25cf;</tspan></text>
<text xml:space="preserve" transform="matrix(.75 0 0 .75 72 713.4824)" font-size="14.666667" font-family="Calibri"><tspan y="14.2369799" x="48 54.734148 62.02649 69.04689 73.94168 80.1391 87.839359 91.152759 97.34267 104.5419 111.03978 116.77203 120.085437 124.83714 132.12949 137.23914 148.94696 152.26036 159.98925 164.46198 167.77538 172.68465 180.3849 187.67725 190.99065 195.74236 202.81269 209.20336 214.11263 217.42603 222.19207 229.92095 233.23435 238.15062 245.36418 250.27346 255.3831 258.74659 265.9673 272.4437 279.73603 283.04945 290.06983 293.38325 299.11549 310.8233 317.8437 321.20719 324.57069 327.8841 333.61634 341.3166 353.0244 364.73225 371.75263 376.9339">Search keys term of the text to retrieve a small summary</tspan></text>
<text xml:space="preserve" transform="matrix(.75 0 0 .75 72 713.4824)" font-size="14.666667" font-family="Calibri"><tspan y="14.2369799" x="386.88133 394.6102 399.08296 402.39637 407.30564 415.0059 422.29823 425.61164 438.65055 442.01405 448.67665 452.04014 459.7404 467.0327 474.73298 478.09648 485.11689 488.4303 496.13056 503.15095 509.92793 517.2203 520.5337 527.5541 533.2863 539.01858 546.74746 552.9448 556.30838 563.1927 567.9444 575.23678">of the Wikipedia page associated</tspan></text>
<text xml:space="preserve" transform="matrix(.75 0 0 .75 72 728.9248)" font-size="14.666667" font-family="Calibri"><tspan y="14.2369799" x="48 58.47693 61.840425 66.749698 74.44995 77.76335 82.67262 90.37288 97.66522 100.97862 105.73033 113.022678 118.132328 129.84015 133.49706 136.81046 143.83086 149.56311 152.87651 156.24 159.6035 162.967 170.66725 176.23479 181.14406 185.95291 192.83724 197.58895 204.88129 212.58155 215.89495 222.91535 230.6156 238.28002 244.75643 252.04877 255.70568 259.01908 266.0395 273.73976">with the term, as illustrated above, and</tspan></text>
<text xml:space="preserve" transform="matrix(.75 0 0 .75 72 754.3672)" font-size="14.666667" font-family="ArialMT"><tspan y="14.2369799" x="24">&#x25cf;</tspan></text>
<text xml:space="preserve" transform="matrix(.75 0 0 .75 72 754.3672)" font-size="14.666667" font-family="Calibri"><tspan y="14.2369799" x="48 51.692689 63.400514 71.10077 75.974079 83.63849 90.1149 97.40724 100.72064 109.20094 112.56444 115.92793 122.94833 128.68059 131.99399 136.91027 144.2026 149.93486 157.66374 161.02724 168.7275 173.63677 177.00026 184.72914 192.4294">Improve Alias resolution.</tspan></text>
</g>
<clipPath id="cp52">
<path d="M 92.25 72.75 L 522.75 72.75 L 522.75 148.38672 L 92.25 148.38672 Z " fill-rule="evenodd"/>
</clipPath>
<g clip-path="url(#cp52)">
<path transform="matrix(.75,0,0,.75,96.75,78)" stroke-width="1.3333334" stroke-linecap="butt" stroke-miterlimit="10" stroke-linejoin="miter" fill="none" stroke="#000000" d="M 272.33335 12.666667 L 312.33335 12.666667 "/>
<path transform="matrix(.75,0,0,.75,96.75,117.08203)" stroke-width="1.3333334" stroke-linecap="butt" stroke-miterlimit="10" stroke-linejoin="miter" fill="none" stroke="#000000" d="M 56.333333 12.557292 L 96.333339 12.557292 "/>
</g>
<clipPath id="cp53">
<path d="M 0 0 L 595.5 0 L 595.5 842.25 L 0 842.25 Z " fill-rule="evenodd"/>
</clipPath>
<g clip-path="url(#cp53)">
<path transform="matrix(.75,0,0,.75,72,72)" stroke-width="1.3333334" stroke-linecap="butt" stroke-miterlimit="10" stroke-linejoin="miter" fill="none" stroke="#000000" d="M 26 0 L 26 102.666667 "/>
<path transform="matrix(.75,0,0,.75,72,72)" stroke-width="1.3333334" stroke-linecap="butt" stroke-miterlimit="10" stroke-linejoin="miter" fill="none" stroke="#000000" d="M 600.6667 0 L 600.6667 102.666667 "/>
<path transform="matrix(.75,0,0,.75,72,72)" stroke-width="1.3333334" stroke-linecap="butt" stroke-miterlimit="10" stroke-linejoin="miter" fill="none" stroke="#000000" d="M 25.333334 .6666667 L 601.3333 .6666667 "/>
<path transform="matrix(.75,0,0,.75,72,72)" stroke-width="1.3333334" stroke-linecap="butt" stroke-miterlimit="10" stroke-linejoin="miter" fill="none" stroke="#000000" d="M 25.333334 102 L 601.3333 102 "/>
<path transform="matrix(.75,0,0,.75,72,310.0381)" stroke-width="1.3333334" stroke-linecap="butt" stroke-miterlimit="10" stroke-linejoin="miter" fill="none" stroke="#000000" d="M 27.333334 -.050130208 L 27.333334 261.2832 "/>
<path transform="matrix(.75,0,0,.75,72,310.0381)" stroke-width="1.3333334" stroke-linecap="butt" stroke-miterlimit="10" stroke-linejoin="miter" fill="none" stroke="#000000" d="M 600.6667 -.050130208 L 600.6667 261.2832 "/>
<path transform="matrix(.75,0,0,.75,72,310.0381)" stroke-width="1.3333334" stroke-linecap="butt" stroke-miterlimit="10" stroke-linejoin="miter" fill="none" stroke="#000000" d="M 26.666666 .61653646 L 601.3333 .61653646 "/>
<path transform="matrix(.75,0,0,.75,72,310.0381)" stroke-width="1.3333334" stroke-linecap="butt" stroke-miterlimit="10" stroke-linejoin="miter" fill="none" stroke="#000000" d="M 26.666666 260.61656 L 601.3333 260.61656 "/>
</g>
</g>
</svg>
