<?xml version="1.0" encoding="UTF-8" standalone="no"?>
<!DOCTYPE svg PUBLIC "-//W3C//DTD SVG 1.1//EN" "http://www.w3.org/Graphics/SVG/1.1/DTD/svg11.dtd">
<svg xmlns="http://www.w3.org/2000/svg" xmlns:xlink="http://www.w3.org/1999/xlink" version="1.1" width="596pt" height="842pt" viewBox="0 0 596 842">
<g enable-background="new">
<clipPath id="cp30">
<path d="M 0 0 L 595.5 0 L 595.5 842.25 L 0 842.25 Z " fill-rule="evenodd"/>
</clipPath>
<g clip-path="url(#cp30)">
<path transform="matrix(.75,0,0,.75,0,0)" d="M 0 0 L 794 0 L 794 1123 L 0 1123 Z " fill="#ffffff"/>
</g>
<clipPath id="cp31">
<path d="M 0 0 L 595.5 0 L 595.5 842.25 L 0 842.25 Z " fill-rule="evenodd"/>
</clipPath>
<g clip-path="url(#cp31)">
<text xml:space="preserve" transform="matrix(.75 0 0 .75 72 72)" font-size="14.666667" font-family="Calibri"><tspan y="14.2369799" x="24">-</tspan></text>
<text xml:space="preserve" transform="matrix(.75 0 0 .75 72 72)" font-size="14.666667" font-family="Calibri"><tspan y="14.2369799" x="48 55.61438 63.58658 71.15802 75.07971 78.39311 85.549488 91.940158 96.84943 101.65828 108.67868 114.8761 119.78537 125.517627 128.83103 133.7473 141.03964 144.40314 151.28746 156.19673 159.56023 167.28911 174.98937 178.30277 183.21204 188.32169 191.68518 199.38544 202.74893 210.04128 215.77353 219.08693 230.79476 238.0871 245.30066 250.20993 253.57343 261.27369 268.17243 271.48585 276.3951 284.09538 291.3877 294.7011 300.69734 309.0702 316.88496 321.372 328.9864 336.9586 344.53004 347.84346 353.91914 361.648 373.35585 381.0561 388.26966 393.1789 396.5424 401.45167 404.81517 412.54405 420.2443 423.55769 429.28993 436.99018 444.28254 450.47996 453.84346 458.31617 461.67967 467.7553 474.63966 479.54896 482.91246 490.64134 498.34159 504.07386 507.77369 511.0871 517.6207 525.3496 530.4592 533.7726 540.8429 546.9256 553.94607 565.65396 573.3542 576.71768">KBP: Extracts relation triples meeting the TAC-KBP competition specifications. For example</tspan></text>
<text xml:space="preserve" transform="matrix(.75 0 0 .75 72 87.44141)" font-size="14.666667" font-family="Calibri"><tspan y="14.2369799" x="48 58.47693 66.177188 73.46953 81.169788 84.483188 89.592838 97.29309 104.99335 108.30675 116.03563 123.735889 127.049289 131.95856 139.65882 146.95116 150.26456 153.62805 161.32831 169.02857 176.72882 181.63809 184.95149 190.68375 197.97609 205.54027 210.29198 217.58432 225.28458 231.482 238.77434 242.69603 246.00943 250.68254 258.41145 265.7038 269.0172 275.75135 287.45918 290.82267 295.73194 303.4322 306.74559 317.05778 324.0782 329.81047 333.12388 340.82414 348.553 353.66267">when run on the input sentence: Joe Smith was born</tspan></text>
<text xml:space="preserve" transform="matrix(.75 0 0 .75 72 87.44141)" font-size="14.666667" font-family="Calibri"><tspan y="14.2369799" x="364.67628 368.03977 375.74003 379.0534 388.75746 393.6737 400.96607 407.76454 415.4934 423.19367 425.7978 432.93986 440.6401 447.93244 451.24586 458.26625 465.9665 473.66676 481.39564 486.12586 493.0102 497.77626 505.50514 510.61479 513.92819 524.4051 527.76858 531.1321 534.4956 537.809 542.28176 545.64529 553.3455 561.0458 564.3592 569.26846 576.9687">in Oregon.The annotator will find the</tspan></text>
<text xml:space="preserve" transform="matrix(.75 0 0 .75 72 102.88379)" font-size="14.666667" font-family="Calibri"><tspan y="14.2369799" x="48 52.16478 59.89366 63.257158 66.62065 74.29224 84.769168 88.13266 95.83292 102.73166 106.04506 110.48917 116.36455 122.0968 129.79706 137.49732 141.00394 148.29628 154.4937 159.40297 165.27835 168.93526 172.24866 178.12404 183.04032 190.33266 193.69615 200.58048 205.48975 208.85324 216.58213 224.28238 230.15776 233.81467 237.12807 243.00345 250.73233 258.4326 261.9392 269.23158 275.429 280.33827 286.21363 290.6577 293.97114 298.8804 303.99006 307.35356 315.0538 318.4173 325.70967 329.63136 334.07545 339.9508 344.6239 352.35279">following ("subject", "relation", "object") triple:("Joe</tspan></text>
<text xml:space="preserve" transform="matrix(.75 0 0 .75 72 102.88379)" font-size="14.666667" font-family="Calibri"><tspan y="14.2369799" x="362.95857 369.6927 381.4005 384.764 389.67329 397.37355 403.2489 406.90583 410.21925 416.0946 423.79487 431.08723 436.19688 440.11857 445.6861 450.41633 457.30067 462.05238 469.34474 477.0736 482.18327 489.8835 494.75685 502.42127 509.0409 512.4044 520.1047 526.3021 533.5945 540.894 548.62289 553.0956 560.3951 568.09536 571.45889 576.5685 581.4778 589.17807 595.0534">Smith", "per:stateorprovince_of_birth",</tspan></text>
<text xml:space="preserve" transform="matrix(.75 0 0 .75 72 118.32568)" font-size="14.666667" font-family="Calibri"><tspan y="14.2369799" x="48 53.87538 63.579423 68.4957 75.78804 82.58652 90.3154 98.015659 103.89104 107.20444">"Oregon" )</tspan></text>
<text fill="#666666" xml:space="preserve" transform="matrix(.75 0 0 .75 72 169.20899)" font-size="22.666666" font-family="Calibri"><tspan y="32.66927" x="0 14.292908 21.72676 32.579195 44.482576 56.385957 61.50795 75.44685 86.08899 93.401248 104.25368 116.15706 127.00949 135.87065 147.14347 156.00463 161.12662 171.97905 183.88243 195.78582 200.9078 215.5326 226.8054 238.75304 250.23604">Graph Databases and Neo4J</tspan></text>
<text xml:space="preserve" transform="matrix(.75 0 0 .75 72 207.07422)" font-size="14.666667" font-family="Calibri"><tspan y="14.2369799" x="0 8.480301 11.793701 18.692444 23.501297 30.521698 38.221956 45.92221 49.23561 56.935869 63.82019 68.550418 75.570819 83.27107 90.29147 96.02373 103.31607 106.62947 109.992969 115.72522 119.03862 126.05902 129.37242 137.07268 143.957 148.68723 155.70763 159.02103 170.72885 177.74925 185.44951 192.46991 199.2469 206.53925 218.24707 225.53942 233.10359 238.01287 241.32627 246.79354 253.29141 258.85896 263.61067 270.90299 282.6108 285.9242 291.65644 299.3853 303.85804 308.7673 319.07954 326.0999 331.01618 338.30854">A graph database is a data management system software.</tspan></text>
<text xml:space="preserve" transform="matrix(.75 0 0 .75 72 207.07422)" font-size="14.666667" font-family="Calibri"><tspan y="14.2369799" x="345.32185 352.4639 360.16416 367.45649 370.7699 378.47016 386.1704 389.5339 392.8974 400.59767 403.96116 411.6614 418.56016 421.87355 429.5738 432.9373 440.66618 446.8636 453.39009 459.1223 462.43574 469.45613 474.37239 481.66474 484.97816 491.45457 498.7469 503.85655 508.7658 512.1293 518.32669 525.619 531.35128 534.6647 541.68508 549.3853 557.0856 560.399 567.69137 575.3916 582.1686 589.46096 595.1932">The building blocks are vertices and edges,</tspan></text>
<text xml:space="preserve" transform="matrix(.75 0 0 .75 72 222.5166)" font-size="14.666667" font-family="Calibri"><tspan y="14.2369799" x="0 3.3634949 11.063751 14.3771519 20.45282 28.181702 39.889528 47.589784 54.610185 59.719835 63.08333 68.81558 76.544467 84.24472 87.90163 91.21503 98.23543 101.54883 106.4651 113.75745 117.12094 124.005268 128.91454 132.27803 140.00691 147.70717 154.72757 158.09107 161.40447 169.10472 175.98905 180.71927 187.73967 195.43993 202.46033 208.19258 215.48493 218.79833 222.16182 227.89408 231.20748 238.22788 241.59137 247.32363 255.0525 258.3659 265.3863 268.6997 276.39997 283.2843 288.01454">in comparison, a relational database is also a data</tspan></text>
<text xml:space="preserve" transform="matrix(.75 0 0 .75 72 222.5166)" font-size="14.666667" font-family="Calibri"><tspan y="14.2369799" x="298.34834 310.05616 317.07655 324.7768 331.79719 338.57417 345.86653 357.57435 364.8667 372.43089 377.34016 380.65357 386.3858 394.1147 398.5874 403.49668 413.8089 420.82929 425.74555 433.0379 436.35133 439.7148 447.41508 450.72846 461.20539 468.90565 472.26914 478.46656 486.1668 489.48023 494.3895 502.08976 509.38209 512.6955 520.39578 528.096 531.4595 534.823 542.52328 545.8867 553.587 560.4857 563.79916 571.4994 574.8629 582.5918 588.7892 595.3157">management software in which the building blocks</tspan></text>
<text xml:space="preserve" transform="matrix(.75 0 0 .75 72 237.95801)" font-size="14.666667" font-family="Calibri"><tspan y="14.2369799" x="0 7.020401 11.936676 19.22902 22.54242 27.272644 34.293046 41.9933 45.356798 52.64914 58.381395 62.081239 65.39464 73.36684 81.09572 86.00499 93.705249 97.01865 101.93492 109.227268 116.92752 124.62778 127.99127 132.90755 140.19989 143.51329 146.87679 154.60567 161.62607 169.32633 172.68982 180.39008 187.28882 190.60222 198.30248 205.1868 209.91703 216.93743 220.25083 223.61432 231.1785 235.94454 243.67342 246.98682 251.89609 259.59635 266.88868 270.2021 275.93434 283.6632 288.13594 293.0452 303.35743 310.3778 315.29408">are tables. Both require loading data into the software</tspan></text>
<text xml:space="preserve" transform="matrix(.75 0 0 .75 72 237.95801)" font-size="14.666667" font-family="Calibri"><tspan y="14.2369799" x="325.89985 332.92024 340.62049 348.32075 351.63417 359.3344 365.06666 368.43016 376.1304 383.02915 386.34254 393.3629 396.67634 404.3766 412.07685 419.3692 424.55049 431.18446 434.49787 437.86137 444.88179 452.58204 459.48078 467.18104 474.20143 480.9784 488.27076 491.58418 499.31306 504.4227 507.73609 516.2164 523.78787 527.4805 533.21279 536.5262 541.29226 549.0211 552.33456 559.3549 565.55239 571.74978 579.0421 584.77438">and using a query language or APIs to access</tspan></text>
<text xml:space="preserve" transform="matrix(.75 0 0 .75 72 253.39942)" font-size="14.666667" font-family="Calibri"><tspan y="14.2369799" x="0 4.9092714 12.609528 19.90187 23.215271 30.915528 37.79985 42.530076 49.550477">the data.</tspan></text>
<text xml:space="preserve" transform="matrix(.75 0 0 .75 72 278.8418)" font-size="14.666667" font-family="Calibri"><tspan y="14.2369799" x="0 9.246033 14.054886 21.075287 28.775544 36.4758 39.7892 47.489458 54.37378 59.104005 66.124408 73.82466 80.84506 86.57732 93.86966 99.60191 102.91531 110.61557 113.979068 121.67932 129.37958 132.61426 137.52353 140.83693 146.56919 153.86153 161.15387 164.46727 171.48767 174.80107 181.69982 186.61609 193.90843 200.79276 205.54447 212.8368 217.94646 221.25986 228.28026 235.98052 242.3853 249.4057 256.96986 261.70008 268.7205 275.4975 282.78984 286.1032 293.76765 300.24409 307.5364">Graph databases didn't see a greater advantage over</tspan></text>
<text xml:space="preserve" transform="matrix(.75 0 0 .75 72 278.8418)" font-size="14.666667" font-family="Calibri"><tspan y="14.2369799" x="315.95948 320.87574 328.1681 331.5316 338.4159 343.32518 346.68867 354.41755 362.1178 369.13819 372.50169 375.81507 383.51533 390.39967 395.12989 402.15028 409.85054 416.8709 422.60316 429.8955 435.62776 438.94117 446.64143 454.2056 459.11488 462.47837 465.84187 469.15528 474.07154 481.3639 487.5613 494.85365 502.41783 507.3271 510.6405 517.0954 524.38778 531.40817 536.26718 541.9994 545.6563 548.9697 559.44668 567.1469 574.4392">relational databases until recent years, when</tspan></text>
<text xml:space="preserve" transform="matrix(.75 0 0 .75 72 294.2832)" font-size="14.666667" font-family="Calibri"><tspan y="14.2369799" x="0 4.4727327 9.389008 16.68135 24.381608 32.081865 39.374208 46.938386 51.847658 55.161058 60.89331 67.09073 74.790988 82.08333 93.79115 100.811557 104.124958 110.32237 118.02263 125.04303 132.74329 139.52028 146.81262 152.54488 156.20178 159.51519 171.223 178.24341 185.94367 192.96407 199.86281 203.2263 210.92656 217.8253 221.1387 228.20903 234.55673 242.25699 245.62049 253.34937 259.0816 262.4451 268.9215 276.21385 279.52723 286.0108 293.7397 297.10319 304.80345 316.51127">frequent schema changes, managing explosive volume</tspan></text>
<text xml:space="preserve" transform="matrix(.75 0 0 .75 72 294.2832)" font-size="14.666667" font-family="Calibri"><tspan y="14.2369799" x="327.11705 334.84593 339.31867 342.63209 350.33235 357.21669 361.9469 368.9673 372.6242 375.93763 380.85389 388.14625 395.16664 398.53013 403.01716 407.92643 411.28993 422.99775 430.2901 433.60353 441.30378 449.00404 456.2964 461.47767 468.11164 471.42506 476.3413 483.63368 489.3659 497.06617 504.79505 512.4953 518.22756 525.5199 528.8333 533.74258 537.1061 548.8139 556.10629 559.7632 563.0766 570.097 577.79727">of data, real-time query response time, and</tspan></text>
<text xml:space="preserve" transform="matrix(.75 0 0 .75 72 309.7256)" font-size="14.666667" font-family="Calibri"><tspan y="14.2369799" x="0 11.707825 19.436707 24.352982 31.645325 34.958726 38.32222 45.8864 50.638109 57.93045 61.293947 64.65744 68.020938 74.79793 82.09027 89.65445 94.56372 97.87712 105.57738 112.4617 117.191928 124.212329 127.52573 134.54613 140.74355 145.65282 149.01631 155.4211 162.30542 167.21469 170.57819 178.30707 186.00733 189.32073 194.237 201.52935 209.2296 216.92986 220.29335 225.20963 232.50197 244.2098 251.50214 259.06629 263.9756 269.70783 273.02125 280.7215 284.085 290.98374 298.684 302.0475 305.41099 312.30973 319.8739 324.6256 331.91798">more intelligent data activation requirements highlighted</tspan></text>
<text xml:space="preserve" transform="matrix(.75 0 0 .75 72 309.7256)" font-size="14.666667" font-family="Calibri"><tspan y="14.2369799" x="342.9316 347.84089 355.54115 362.8335 366.1469 373.1673 380.86756 387.27235 394.29273 401.8569 406.58714 413.60755 420.38453 427.67689 433.40913 436.72254 444.45143 448.92414 452.23756 457.14683 464.84709 472.1394 475.45283 482.35157 487.1604 494.1808 501.88105 509.5813 512.8947 524.60256 532.3314 540.0317 547.32406 550.6875">the advantages of the graph model.</tspan></text>
<text xml:space="preserve" transform="matrix(.75 0 0 .75 72 335.167)" font-size="14.666667" font-family="Calibri"><tspan y="14.2369799" x="0 7.1420595 14.842316 22.134659 27.050934 34.343278 37.656679 44.67708 49.593355 56.885698 60.199098 65.93135 73.15207 79.62848 86.92082 91.729679 98.75008 102.11357 105.42697 111.50264 119.23152 130.93935 142.64717 149.93952 154.8343 161.03173 164.39522 171.41562 174.77912 178.09252 183.82477 191.55365 196.02639 200.93566 211.24787 218.26827 223.18454 230.47689 233.79029 239.86595 247.59484 259.30268 267.00294 274.02333 281.72358 285.08708 292.3794 298.11164 301.42506 311.90199 319.60224 322.96574 329.16316">There are several commercial software companies which</tspan></text>
<text xml:space="preserve" transform="matrix(.75 0 0 .75 72 335.167)" font-size="14.666667" font-family="Calibri"><tspan y="14.2369799" x="340.17683 347.87709 354.654 361.1304 368.42274 371.73616 375.90095 383.62983 391.33009 399.03034 406.7306 414.02296 421.7232 425.03663 429.9459 437.64616 444.93849 448.30198 453.41163 456.72505 461.47676 468.7691 474.96653 482.66679 490.36705 498.09593 501.4594 509.1883 516.08706 522.721 526.0344 533.69888 540.1753 547.46768 552.5773 555.8907 560.7999 568.5002">have founded their technology over the</tspan></text>
<text xml:space="preserve" transform="matrix(.75 0 0 .75 72 350.60939)" font-size="14.666667" font-family="Calibri"><tspan y="14.2369799" x="0 6.8987429 11.707596 18.727997 26.428254 34.12851 37.44191 45.142168 52.162569 56.97142 63.99182 71.69208 75.05557 81.954319 93.66214 96.97554 101.41965 107.1519 114.85216 121.049579 128.74983 132.06324 139.08364 144.81589 148.12929 157.59001 164.88236 172.61124 180.03955 183.54618 187.99028 191.30368 198.32408 206.02434 213.7246 217.038 220.40149 228.10175 231.41515 236.32442 244.02468 251.31702 254.63042 261.08534 268.3777 275.39808 280.25709 285.98933 289.30274 297.003 303.7799 310.2563">graph paradigm (such as Neo4j) and in the years have</tspan></text>
<text xml:space="preserve" transform="matrix(.75 0 0 .75 72 350.60939)" font-size="14.666667" font-family="Calibri"><tspan y="14.2369799" x="320.86204 325.77833 332.99903 339.4826 347.2115 350.57499 358.27525 363.1845 366.548 374.2769 381.97715 385.34065 390.80073 398.09309 405.79335 409.10676 420.81459 427.83497 435.26307 441.89704 445.21046 452.23085 457.1471 464.43946 471.45985 477.19209 480.849 484.1624 489.89466 497.5949 503.79234 511.49259 514.80599 521.82638 527.5586 530.872 536.60427 544.3045 552.00479 559.705 563.0685">revolutionized many areas, such as supply</tspan></text>
<text xml:space="preserve" transform="matrix(.75 0 0 .75 72 366.05128)" font-size="14.666667" font-family="Calibri"><tspan y="14.2369799" x="0 6.197418 13.897675 20.918076 24.28157 31.981827 35.295228 47.00305 54.023454 61.72371 68.74411 75.5211 82.813449 94.52127 101.813617 109.37779 114.28706 117.94397 121.25737 128.54972 133.03676 139.11243 146.84131 158.54914 170.25696 177.5493 182.44409 188.64151 195.93386 199.24726 204.16353 211.45587 217.53154 225.26042 236.96825 248.67607 255.96842 263.66868 271.36894 278.25325 283.16255 286.52604 294.2549 301.95518 307.68745 311.34437 314.65779 320.39 327.68238 333.8798 341.58006 346.6897 350.0532 354.96247 360.55085">chain management, e-commerce recommendations, security,</tspan></text>
<text xml:space="preserve" transform="matrix(.75 0 0 .75 72 366.05128)" font-size="14.666667" font-family="Calibri"><tspan y="14.2369799" x="367.5211 371.99385 376.80268 383.82307 391.52333 399.22358 402.537 410.23725 417.4508 422.2025 429.49488 435.6923 440.60157 443.96507 451.69395 459.3942 462.70759 469.72798 477.42823 485.12849 488.4419 495.1045 502.80476 510.47633 520.95327 524.3168 531.60916 539.3094 546.08639 553.3787 556.69216 563.5909 568.3997 575.4201 583.12039">fraud detection and knowledge graph</tspan></text>
<text xml:space="preserve" transform="matrix(.75 0 0 .75 72 381.49317)" font-size="14.666667" font-family="Calibri"><tspan y="14.2369799" x="0 4.1647799 11.8936619 17.003312 20.316712 28.797013 32.4897 35.8031 42.8235 50.523759 58.224016 61.58751 64.951007 71.02667 77.910999 82.82027 86.18376 93.91264 101.6129">for AI application.</tspan></text>
<text xml:space="preserve" transform="matrix(.75 0 0 .75 72 406.93507)" font-size="14.666667" font-family="Calibri"><tspan y="14.2369799" x="0 3.692688 11.392944 14.706345 21.483338 28.77568 36.475938 43.76828 48.577135 55.597536 58.96103 62.617937 65.931339 72.95174 76.26514 83.16388 87.97273 94.99313 102.69339 110.39365 113.70705 121.4073 128.29163 133.02185 140.04225 147.74251 154.76291 160.49517 167.7875 171.1009 178.17124 184.51894 192.2192 195.58269 203.28295 206.64644 211.55571 217.28797 220.60137 226.33362 234.03388 241.73413 249.02648 254.13613 257.49964 265.22853 270.33818 273.65156 281.3518 288.64418 293.7538 297.91859 305.64747 310.7571 322.46495 329.48536 337.1856 343.38304">In general, a graph database exhibits superior performance</tspan></text>
<text xml:space="preserve" transform="matrix(.75 0 0 .75 72 406.93507)" font-size="14.666667" font-family="Calibri"><tspan y="14.2369799" x="353.98878 358.15357 365.88246 370.9921 374.30549 382.00575 389.706 396.99836 402.17964 408.8136 412.1771 419.87736 426.7761 430.08949 435.00575 442.2981 445.6616 452.5459 457.2976 464.58998 472.29023 475.60365 483.3039 490.18824 494.91847 501.93885 505.63868 508.9521 512.2655 520.7458 524.0592 531.75949 538.6438 543.5531 546.9166 553.39309 560.6854 563.99887 570.8976 575.7064 582.7268 590.42709">for querying related data.  A native graph</tspan></text>
<text xml:space="preserve" transform="matrix(.75 0 0 .75 72 422.37696)" font-size="14.666667" font-family="Calibri"><tspan y="14.2369799" x="0 7.7002565 14.720657 20.452912 23.766312 28.675583 36.37584 43.668184 46.981584 52.713838 60.44272 64.92976 71.00543 78.02583 81.38933 84.75282 92.045169 99.74542 103.05882 106.42232 114.122577 121.82283 128.89316 134.79685 139.15497 143.6277 148.54398 155.83632 163.12866 166.44207 173.46247 181.16272 184.66934 191.68975 197.88716 205.1795 212.87976 219.07718 225.71114 229.02454 236.7248 241.5981 249.32698 257.02723 264.31959 269.42924 274.3385 279.92689 283.58378 286.89717 297.37409 305.07435 312.3667 317.28297">has the so-called index-free adjacency property, where</tspan></text>
<text xml:space="preserve" transform="matrix(.75 0 0 .75 72 422.37696)" font-size="14.666667" font-family="Calibri"><tspan y="14.2369799" x="327.88874 335.1811 342.20149 348.3989 356.09916 359.41255 365.88896 373.18128 378.29093 383.04264 390.11299 396.4607 399.7741 411.48194 418.50233 421.8658 429.43 434.16023 441.1806 444.5441 452.24436 457.97663 461.29005 464.65354 469.5628 475.29505 478.60847 486.30873 493.60108 496.96458 503.8633 511.56358 519.2638 526.9927 534.69296 539.8026 543.116 549.5924 556.88479 561.9944 566.9037 570.2672 576.4646 583.75698">each vertex maintains its neighbour vertices</tspan></text>
<text xml:space="preserve" transform="matrix(.75 0 0 .75 72 437.81935)" font-size="14.666667" font-family="Calibri"><tspan y="14.2369799" x="0 3.3634949 10.977798 15.142578 22.87146 27.98111 39.688936 46.573259 51.48253 54.846025 62.574907 70.27516 73.58856 81.317447 89.0177 92.381198 97.969577 101.62648 104.93988 112.64014 120.36902 123.68242 130.58116 133.94466 141.67354 149.3738 156.3942 159.75769 163.07109 166.43459 174.13484 181.8351 188.90543 195.25313 198.56653 205.58693 213.28719 221.01607 228.71633 233.6256 236.939 243.4154 250.70775 255.8174 260.5691 267.6394 273.98713 277.30055 283.37623 291.1051 298.80537 306.5056 313.79798 319.9954 324.90467 328.26817 335.99705 343.6973">information only, no global index about vertex connections</tspan></text>
<text xml:space="preserve" transform="matrix(.75 0 0 .75 72 437.81935)" font-size="14.666667" font-family="Calibri"><tspan y="14.2369799" x="352.74293 359.81324 366.16096 369.52445 375.09199 380.00126 385.73353 389.43336 392.74678 399.88883 407.58909 410.95259 416.6848 419.99824 431.70606 438.72645 444.91636 452.20869 457.94093 461.25434 466.1636 473.86387 481.1562 484.4696 492.16987 499.0542 503.96348 507.32698 513.80337 521.0957 524.4091 531.30789 536.1167 543.1371 550.83737">exists. This makes the native graph</tspan></text>
<text xml:space="preserve" transform="matrix(.75 0 0 .75 72 453.26075)" font-size="14.666667" font-family="Calibri"><tspan y="14.2369799" x="0 7.0703279 13.41803 21.118287 24.481781 32.182039 35.545534 40.454805 43.768205 49.843873 57.572755 65.27301 70.840549 75.57077 82.59117 90.15535 95.06462 98.37802 106.07828 113.37062 118.48027 122.64505 130.37393 135.48358 147.1914 154.2118 161.91207 168.10948 175.40183 178.71523 189.19216 196.89241 200.2559 203.6194 210.91175 214.22515 221.9254 228.80973 233.53995 240.56035 243.87375 249.606 252.9695 258.42958 265.72193 269.03535 275.93409 280.80738 288.47895 298.82698 304.5592">exhibit constant performance while data size grows.</tspan></text>
<text xml:space="preserve" transform="matrix(.75 0 0 .75 72 478.70314)" font-size="14.666667" font-family="Calibri"><tspan y="14.2369799" x="0 7.700058 14.992401 18.355896 25.24022 30.14949 33.512987 41.241868 48.942125 55.962526 59.32602 62.63942 70.339679 77.224 81.95422 88.974628 96.67488 103.69528 109.427539 116.71988 120.03328 125.76553 133.46579 141.13738 151.48538 157.21764 160.53104 165.44731 172.73966 178.47191 186.17217 189.53566 194.44493 200.17719 203.49059 206.85408 214.55434 217.86774 222.77701 230.47727 237.7696 241.08301 245.24779 252.97667 258.0863 269.79414 273.10755 280.83644 285.30915 288.62257 293.49586 301.16743 311.51545">Relational database shows results in the form of rows</tspan></text>
<text xml:space="preserve" transform="matrix(.75 0 0 .75 72 478.70314)" font-size="14.666667" font-family="Calibri"><tspan y="14.2369799" x="320.5611 327.58149 335.28175 342.982 346.2954 352.3711 360.09999 363.46348 371.16374 382.87156 390.5718 396.30409 399.6175 410.09443 417.79469 421.15818 427.3556 435.05586 438.36927 441.73277 447.46504 450.77845 458.0708 465.0912 470.55848 477.19245 480.50587 485.2719 493.0008 496.3142 504.01448 511.71473 519.415 526.70736 531.56637 537.1339 541.86416 548.8845 556.5848 564.28506">and columns which is easy to understand.</tspan></text>
<text xml:space="preserve" transform="matrix(.75 0 0 .75 72 494.14454)" font-size="14.666667" font-family="Calibri"><tspan y="14.2369799" x="0 9.246033 14.054886 21.075287 28.775544 36.4758 39.7892 47.489458 54.37378 59.104005 66.124408 73.82466 80.84506 86.57732 93.86966 99.60191 103.25882 106.57222 114.3011 122.00136 125.31476 130.22403 137.92429 145.21663 148.53003 156.25891 161.16819 168.86844 176.16078 181.27043 184.58383 192.28409 199.30449 207.00475 214.705 218.36191 221.67531 228.74564 235.09334 242.7936 246.15709 253.85735 257.22084 262.1301 265.44349 273.14375 280.02809 284.7583 291.7787 295.0921 302.82099">Graph databases, on the other hand, exhibit data or</tspan></text>
<text xml:space="preserve" transform="matrix(.75 0 0 .75 72 494.14454)" font-size="14.666667" font-family="Calibri"><tspan y="14.2369799" x="311.24406 314.60755 322.22187 326.38667 334.11555 339.2252 350.933 357.81733 362.7266 366.0901 373.81898 381.51924 384.83265 388.19615 395.8964 399.20979 404.11906 411.8193 419.11164 422.42506 426.58985 434.31874 439.42839 451.1362 456.86848 460.1819 467.91078 472.38349 475.6969 483.39717 491.12605 498.8263 506.11866 511.8509 515.5078 518.8212 523.7375 531.02987 534.3933 541.27767 546.1869 549.5504 557.2793 564.97958 570.7118 578.41207 581.7755 589.4041">information in the forms of nodes, relationships</tspan></text>
<text xml:space="preserve" transform="matrix(.75 0 0 .75 72 509.58595)" font-size="14.666667" font-family="Calibri"><tspan y="14.2369799" x="0 7.020401 14.720657 22.420914 25.734314 33.43457 40.318895 45.228166 52.92842 58.660676 61.974077 66.74011 74.468997 77.782398 85.51128 90.42055 98.120807 105.41315 110.5228 113.8362 121.53645 129.26534 136.96559 144.25794 149.99019 153.30359 161.00385 168.7041 173.61338 176.92678 184.62703 192.35591 197.26519 200.57859 207.7993 214.27571 221.56806 226.74932 233.21138 240.94026 248.64052 255.93286 259.24629 265.32197 272.34236 280.0426 283.35603 291.05628 298.75654 306.4568 313.74916 318.60816 324.17567 328.90589 335.9263 343.62657">and paths to other nodes but not everyone can understand</tspan></text>
<text xml:space="preserve" transform="matrix(.75 0 0 .75 72 509.58595)" font-size="14.666667" font-family="Calibri"><tspan y="14.2369799" x="354.64018 359.54945 367.2497 374.54206 377.85548 385.55574 392.44007 397.1703 404.19068 407.5041 415.20436 422.9046 426.2681 433.56044 439.29267 445.0249 448.33833 453.2476 460.94786 468.1471 474.78108 478.09449 485.79475 492.57167 499.04808 506.3404 509.6538 515.38607 523.1149 534.82278">the data unless they have some</tspan></text>
<text xml:space="preserve" transform="matrix(.75 0 0 .75 72 525.0283)" font-size="14.666667" font-family="Calibri"><tspan y="14.2369799" x="0 6.6625826 14.362839 22.034424 32.511354 35.874849 43.16719 50.867448 57.64444 64.93678 68.25018 75.270587 82.97084 90.69972 98.39998 103.30925 106.62265 111.53192 119.23218 126.52452 129.83792 135.91359 143.64247 151.20665 155.95836 163.02869 169.41936 174.32863 177.64203 184.66243 192.36269 200.06295 203.37635 208.28562 215.98587 223.27822 226.59162 234.29187 241.99213 249.69239 256.98475 262.0944 265.4579 272.09187 275.45536 283.1556 290.05436 293.36775 298.9353 303.84455 308.9542 316.65446 322.85188 327.76115 335.4614 340.3777 347.67005">knowledge about the context and the underlying structure.</tspan></text>
<text xml:space="preserve" transform="matrix(.75 0 0 .75 72 550.4697)" font-size="14.666667" font-family="Calibri"><tspan y="14.2369799" x="0 3.692688 11.392944 14.706345 21.483338 28.77568 36.475938 43.76828 48.577135 55.597536 58.96103 62.27443 71.52046 76.329319 83.34972 91.04997 98.75023 102.06363 109.763889 116.64821 121.37843 128.39884 136.09909 143.11949 148.85175 156.14409 161.87635 165.53325 168.84665 175.91698 182.26468 189.96494 193.32843 201.02869 204.39218 209.30146 215.0337 218.3471 226.04737 229.41086 236.3096 244.00986 251.3022 256.41188 259.72529 267.42555 274.7179 279.82756 283.9923 291.7212 296.83085 308.53868 315.55909 323.25935 329.45677">In general Graph databases, exhibits higher performance</tspan></text>
<text xml:space="preserve" transform="matrix(.75 0 0 .75 72 550.4697)" font-size="14.666667" font-family="Calibri"><tspan y="14.2369799" x="340.06245 344.22724 351.95613 357.06578 360.37916 366.45484 374.18373 385.89155 393.5918 396.9553 404.02565 410.37336 413.68678 421.38703 428.67939 435.97175 443.672 446.9854 454.0058 461.70606 468.72645 472.08995 478.7955 483.70478 487.06828 493.2657 498.99794 502.31135 512.78829 520.4885 523.85208 527.2156 534.50796 537.82138 542.7306 550.43087">for complex deep analytics while the</tspan></text>
<text xml:space="preserve" transform="matrix(.75 0 0 .75 72 565.9121)" font-size="14.666667" font-family="Calibri"><tspan y="14.2369799" x="0 7.700058 14.992401 18.355896 25.24022 30.14949 33.512987 41.241868 48.942125 55.962526 59.32602 62.63942 70.339679 77.224 81.95422 88.974628 96.67488 103.69528 109.427539 116.71988 120.03328 127.733539 134.75394 140.48619 143.79959 151.49985 159.22873 166.95761 172.06726 175.38066 183.08092 190.37326 195.48291 199.64769 207.37657 212.48622 224.19405 231.21445 238.9147 245.11212 252.40447 255.71787 259.88264 267.6115 272.72117 276.03456 283.7348 291.02717 298.31953">Relational database has poor performance for deep</tspan></text>
<text xml:space="preserve" transform="matrix(.75 0 0 .75 72 565.9121)" font-size="14.666667" font-family="Calibri"><tspan y="14.2369799" x="309.3332 316.35359 324.05384 331.07423 334.4377 341.14329 346.05256 349.41606 355.61347 361.3457 365.04554 368.35896 377.60499 382.41383 389.4342 397.13447 404.83473 408.14814 415.8484 422.73274 427.46296 434.48335 442.1836 449.20399 454.93623 462.22859 467.96083 471.27424 478.29463 483.21089 490.50325 493.81666 505.52449 513.25338 518.1696 525.462 528.7754 533.2481 536.6116 543.6819 550.0296 553.39309 561.0933 564.4568">analytics. Graph databases are more flexible</tspan></text>
<text xml:space="preserve" transform="matrix(.75 0 0 .75 72 581.3535)" font-size="14.666667" font-family="Calibri"><tspan y="14.2369799" x="0 4.9092714 12.609528 19.629929 27.330185 30.643586 38.343645 45.635988 48.99948 55.883806 60.793077 64.15657 71.88545 79.58571 86.60611 89.969608 93.283008 100.98326 107.867588 112.59781 119.61821 127.31847 134.33887 140.07112 147.36347 153.09572 156.40912 159.77262 167.47287 170.78627 177.80667 185.50693 193.23581 198.14508 205.84534 213.13768 218.24733 221.56073 233.26856 240.28896 247.98921 255.68947 262.9818 266.83106 270.48796 273.80134 280.82173 286.55397 289.86738 293.23088">than Relational databases in another manner, as it</tspan></text>
<text xml:space="preserve" transform="matrix(.75 0 0 .75 72 581.3535)" font-size="14.666667" font-family="Calibri"><tspan y="14.2369799" x="301.45356 308.52388 314.87159 322.57185 325.93534 333.6356 336.99909 341.90837 347.64064 350.95405 358.6543 362.0178 368.91654 376.6168 383.90913 389.01878 392.33216 400.0324 407.32478 412.43443 416.59919 424.32807 429.4377 441.14555 448.16596 455.8662 462.06364 469.35597 475.0882 478.4016 482.5664 490.2953 495.40495 498.71833 504.794 512.5229 524.2307 531.93099 535.29446 542.36477">exhibits higher performances for complex</tspan></text>
<text xml:space="preserve" transform="matrix(.75 0 0 .75 72 596.7959)" font-size="14.666667" font-family="Calibri"><tspan y="14.2369799" x="0 4.9092714 9.718124 16.738526 24.438782 30.171036 37.191438 43.388856 48.298128 51.66162 59.390504 67.09076 72.82301 76.13641 81.045688 88.74594 95.76634 103.4666 106.78 114.48006 121.7724 125.135898 132.02022 136.92949 140.29299 148.02187 155.72212 162.74253 166.10602 169.41942 177.11968 184.004 188.73423 195.75463 203.45488 210.47528 216.20754 223.49988 229.23213">transactions than Relational databases.</tspan></text>
<text xml:space="preserve" transform="matrix(.75 0 0 .75 72 622.2383)" font-size="14.666667" font-family="Calibri"><tspan y="14.2369799" x="0 8.480301 11.793701 18.692444 23.501297 30.521698 38.221956 45.92221 49.23561 56.935869 63.82019 68.550418 75.570819 83.27107 90.29147 96.02373 103.31607 106.62947 109.992969 115.72522 119.03862 126.05902 129.37242 137.07268 143.957 148.68723 155.70763 163.40789 170.42829 176.16054 183.45288 186.76628 194.46654 201.75888 207.49114 210.85463 217.75337 225.45363 232.74597 240.44623 243.75963 248.52567 256.25456 259.56794 264.4772 269.3935 276.68586 283.5702 288.47944 291.79286 296.70213 304.40238">A graph database is a database designed to treat the</tspan></text>
<text xml:space="preserve" transform="matrix(.75 0 0 .75 72 622.2383)" font-size="14.666667" font-family="Calibri"><tspan y="14.2369799" x="315.00813 319.92439 327.21675 330.58024 337.46455 342.3738 345.7373 353.4662 361.16645 366.89869 374.59895 377.96244 385.59107 391.3233 394.63673 402.33699 409.55055 414.4598 424.8078 432.10017 439.39253 447.09278 450.4062 458.10646 464.99079 469.721 476.7414 480.0548 487.0752 492.80744 496.12086 503.4132 511.11347 518.8137 525.8341 529.19766 532.56118">relationships between data as equally</tspan></text>
<text xml:space="preserve" transform="matrix(.75 0 0 .75 72 637.6797)" font-size="14.666667" font-family="Calibri"><tspan y="14.2369799" x="0 3.3634949 15.07132 22.771576 30.500458 35.610109 40.340333 47.360734 54.92491 59.834184 63.147584 67.91362 75.6425 78.9559 83.86517 91.56543 98.85777 102.17117 109.87143 116.75575 121.48598 128.50638 131.81978 135.18328 140.09255 145.8248 153.11714 156.48064 159.9794 163.67925 166.99265 170.68534 175.5946 178.908 182.2715 188.00376 191.31716 194.68065 202.24483 206.99654 214.28888 221.98914 229.68939 236.98174 244.68199 247.99539 252.76143 260.4903 263.8037 271.50398 279.23286 282.59635">important to the data itself. It is intended to hold</tspan></text>
<text xml:space="preserve" transform="matrix(.75 0 0 .75 72 637.6797)" font-size="14.666667" font-family="Calibri"><tspan y="14.2369799" x="293.61 301.31025 308.19459 312.9248 319.9452 323.2586 333.73554 337.09904 342.0083 349.70857 357.43745 365.1377 370.04698 373.36036 379.43605 387.16493 394.86518 400.4327 405.34199 410.45164 413.81513 420.01255 424.9218 428.2853 435.98558 442.8843 446.1977 449.5612 454.47047 457.78388 462.54994 470.2788 473.59223 480.6126 483.92604 491.62629 496.54255 503.8349 511.53517 518.6986 523.1713 526.5348 534.23507 541.5274 549.22769 552.5411 564.2489 571.9778 579.67807 586.9704 590.33389">data without constricting it to a predefined model.</tspan></text>
<text xml:space="preserve" transform="matrix(.75 0 0 .75 72 653.1221)" font-size="14.666667" font-family="Calibri"><tspan y="14.2369799" x="0 3.692688 11.392944 16.96048 21.712189 29.004532 36.024934 43.72519 47.382097 50.695497 55.604768 63.305025 70.59737 73.91077 81.61102 88.495349 93.22557 100.24597 103.55937 106.92287 112.65512 115.96852 121.53606 126.30209 134.03098 138.94725 146.2396 153.93985 157.25325 160.61675 163.98024 170.17015 177.4625 180.7759 191.1239 198.41625 201.72965 206.20238 209.56587 214.42487 219.9924 224.90167 228.21508 235.91533 240.72418 247.64432 258.12126 261.43464 264.79814">Instead, the data is stored like we first draw it</tspan></text>
<text xml:space="preserve" transform="matrix(.75 0 0 .75 72 653.1221)" font-size="14.666667" font-family="Calibri"><tspan y="14.2369799" x="273.0208 280.7497 288.44996 293.35923 296.6726 301.15968 304.47309 310.20533 317.90559 325.57716 336.05409 339.41758 347.11784 354.01658 357.32997 365.0302 372.70179 383.1787 386.49214 393.7845 400.80488 407.0023 414.70256 418.01594 421.37944 429.07969 436.77995 440.14344 446.76307 450.12657 457.8268 465.52708 472.5475 475.91099 479.22438 486.51673 494.0809 498.99018 502.35368 507.26295 513.8969 517.2103 523.286 531.0149 538.71517 546.4154 553.70779 559.90518 564.81448">out - showing how each individual entity connects</tspan></text>
<text xml:space="preserve" transform="matrix(.75 0 0 .75 72 653.1221)" font-size="14.666667" font-family="Calibri"><tspan y="14.2369799" x="573.8601 584.33706 587.70059 592.60989">with</tspan></text>
<text xml:space="preserve" transform="matrix(.75 0 0 .75 72 668.5635)" font-size="14.666667" font-family="Calibri"><tspan y="14.2369799" x="0 7.728882 12.8385319 16.151932 19.515427 25.24768 28.56108 33.477357 40.7697 44.133195 51.017518 55.769227 63.06157 70.761829 74.075229 78.84126 86.570148 89.883548 97.61243 102.5217 110.221958 117.5143 122.37329 128.10555">or is related to others.</tspan></text>
<text xml:space="preserve" transform="matrix(.75 0 0 .75 72 694.00588)" font-size="14.666667" font-family="Calibri"><tspan y="14.2369799" x="0 8.480301 14.677719 20.875138 28.16748 33.899736 39.63199 42.995485 50.69574 57.594484 60.907884 68.60814 76.33702 84.03728 91.32962 97.061878 100.375278 107.395679 115.09593 122.79619 126.10959 131.02587 138.3182 141.6817 148.56603 153.4753 156.83879 164.56768 172.26793 178.00019 185.70044 189.06394 196.69257 202.42482 205.73822 209.10172 216.80197 220.11537 227.13578 230.44918 238.14943 245.03376 249.94303 253.30652 259.78297 267.0753 270.38868 277.2874 282.09626 289.11665 296.8169">Accessing nodes and relationships in a native graph</tspan></text>
<text xml:space="preserve" transform="matrix(.75 0 0 .75 72 694.00588)" font-size="14.666667" font-family="Calibri"><tspan y="14.2369799" x="307.83058 315.53083 322.41517 327.1454 334.16578 341.86604 348.8864 354.61866 361.911 365.22444 368.58793 374.3202 377.6336 384.654 392.35426 395.66767 402.8311 407.16059 411.6333 414.9968 421.1942 424.5577 431.85005 439.4142 444.3235 447.9804 451.29383 457.3695 465.0984 472.79866 478.36619 483.0964 490.11683 497.681 502.1391 506.62617 511.53544 514.8989 526.60678 533.8991 537.2125 544.9414 552.64169 559.934 564.74288 571.6272 576.53646 579.8999 587.6288">database is an efficient, constant-time operation</tspan></text>
<text xml:space="preserve" transform="matrix(.75 0 0 .75 72 709.44729)" font-size="14.666667" font-family="Calibri"><tspan y="14.2369799" x="0 7.020401 14.720657 22.420914 25.734314 32.754716 36.11821 39.481706 47.15329 57.501298 63.23355 66.54695 71.31299 79.04187 82.35527 90.05553 97.75578 101.11928 107.316699 113.97928 117.34277 123.97673 127.29013 132.1994 137.00826 143.78516 150.26157 157.55391 162.4129 168.14516 175.4375 178.7509 190.45873 193.82222 197.18572 200.54921 203.9127 211.64159 219.34185 225.0741 228.3875 236.11638 240.58911 243.90251 249.97818 257.70707 265.40733 273.10758 280.3999 286.59733 291.5066 294.8701 302.59898 310.29924">and allows to quickly traverse millions of connections</tspan></text>
<text xml:space="preserve" transform="matrix(.75 0 0 .75 72 709.44729)" font-size="14.666667" font-family="Calibri"><tspan y="14.2369799" x="319.3449 327.04518 334.33753 339.44718 342.76057 348.4928 355.78517 361.86085 369.58973 377.28999 384.99024 388.30366 396.0039 403.29627 408.4059 411.7193 417.79499 425.52388 430.44013 437.73249">per second per core.</tspan></text>
<text xml:space="preserve" transform="matrix(.75 0 0 .75 72 734.88967)" font-size="14.666667" font-family="Calibri"><tspan y="14.2369799" x="0 3.692688 11.392944 19.0932 26.385544 34.0858 41.378145 49.0784 56.778657 64.071 71.63518 76.54445 79.85785 87.58673 92.05946 95.37286 100.282138 107.98239 115.274738 118.588138 123.35417 131.08306 135.81328 142.83368 146.19718 149.51058 155.24283 158.60633 164.06639 171.35874 174.67214 182.40102 186.87375 190.18715 195.09642 202.79668 210.08902 213.40242 221.10268 227.987 232.71723 239.73763 245.46988 252.68344 257.5927 261.24964 264.56306 271.4618 276.27064 283.29103 290.99128">Independent of the total size of the dataset, graph</tspan></text>
<text xml:space="preserve" transform="matrix(.75 0 0 .75 72 734.88967)" font-size="14.666667" font-family="Calibri"><tspan y="14.2369799" x="302.00495 309.7052 316.58955 321.31977 328.34016 336.0404 343.0608 348.79304 356.0854 361.81764 365.13105 372.20137 378.2196 384.41703 391.70936 395.07286 398.38624 405.27058 410.17985 413.49324 425.20106 432.22145 439.9217 446.94209 453.84083 457.2043 464.90458 471.8033 475.1167 482.81697 486.18046 493.0792 500.77946 504.14295 510.77693 514.09036 520.166 527.8949 535.59518 543.2954 550.58779 556.78518 561.53689 568.8292">databases excel at managing highly connected</tspan></text>
<text xml:space="preserve" transform="matrix(.75 0 0 .75 72 750.33108)" font-size="14.666667" font-family="Calibri"><tspan y="14.2369799" x="0 7.7002565 14.584579 19.314805 26.335206 29.648606 36.669008 44.369264 52.06952 55.38292 61.458589 69.18747 80.895298 88.59555 91.959049 99.02937 105.377079 108.690479 116.39073 124.09099 131.38333 136.49298 139.85648 147.14882 152.88108 156.58092 159.89432 172.93323 176.29673 181.206 188.90625 192.21965 199.94853 207.64879 211.01229 217.64624 220.95964 227.98004 231.29344 238.9937 245.87802 250.5796 255.33132 262.62367 267.7333 275.43357 278.74696 285.76734 293.4676">data and complex queries. With only a pattern and</tspan></text>
<text xml:space="preserve" transform="matrix(.75 0 0 .75 72 750.33108)" font-size="14.666667" font-family="Calibri"><tspan y="14.2369799" x="304.48127 311.50166 314.81507 320.5473 327.76087 332.67015 335.98353 343.7124 348.18513 351.49855 357.06608 361.7963 368.8167 373.92637 378.83564 382.19914 389.89939 396.79814 400.1115 407.81178 415.54066 418.90415 426.46833 431.3776 437.10987 440.76679 444.0802 450.97895 455.78779 462.80818 470.50843 478.20869 481.5221 489.22236 496.1067 500.8369 507.8573 515.55758 522.57797 528.3102 535.60256 541.3348 544.6482 551.7185 558.0662 565.7665 569.13 576.8589 581.77517">a set of starting points, graph databases explore</tspan></text>
</g>
</g>
</svg>
