<?xml version="1.0" encoding="UTF-8" standalone="no"?>
<!DOCTYPE svg PUBLIC "-//W3C//DTD SVG 1.1//EN" "http://www.w3.org/Graphics/SVG/1.1/DTD/svg11.dtd">
<svg xmlns="http://www.w3.org/2000/svg" xmlns:xlink="http://www.w3.org/1999/xlink" version="1.1" width="596pt" height="842pt" viewBox="0 0 596 842">
<g enable-background="new">
<clipPath id="cp12">
<path d="M 0 0 L 595.5 0 L 595.5 842.25 L 0 842.25 Z " fill-rule="evenodd"/>
</clipPath>
<g clip-path="url(#cp12)">
<path transform="matrix(.75,0,0,.75,0,0)" d="M 0 0 L 794 0 L 794 1123 L 0 1123 Z " fill="#ffffff"/>
</g>
<clipPath id="cp13">
<path d="M 0 0 L 595.5 0 L 595.5 842.25 L 0 842.25 Z " fill-rule="evenodd"/>
</clipPath>
<g clip-path="url(#cp13)">
<text xml:space="preserve" transform="matrix(.75 0 0 .75 72 72)" font-size="14.666667" font-family="Calibri"><tspan y="14.2369799" x="72">-</tspan></text>
<text xml:space="preserve" transform="matrix(.75 0 0 .75 72 72)" font-size="14.666667" font-family="Calibri"><tspan y="14.2369799" x="96 105.70404 110.61331 118.31357 125.60591 130.71556 134.02896 138.75919 145.77959 151.51184 158.03835 163.7706 167.084 177.56093 180.92443 185.8337 193.53395 196.89745 204.5977 207.9111 212.66281 219.73314 226.12381 231.03308 234.34648 242.04674 249.747 257.44728 264.73963 269.59864 275.16618 279.8964 286.9168 294.61708 302.31733 305.68083 313.38108 320.27983 323.5932 330.6136 335.52986 342.8222 346.7439 350.0573 356.24726 363.44648 370.1377 380.47859 388.20747 393.11659 400.81684 406.47755 412.66746 419.8667 426.50065 434.2009 441.90116 446.71003 453.7304 459.46266 466.755 470.06843 477.13874 483.52943 488.4387 493.24757 500.26795 506.46537 511.37464 514.73818 522.46707 530.1673">Other tasks within text understanding are: keyword/keyphrase extraction,</tspan></text>
<text xml:space="preserve" transform="matrix(.75 0 0 .75 72 87.441898)" font-size="14.666667" font-family="Calibri"><tspan y="14.2369799" x="96 99.363498 106.9778 111.14258 118.87146 123.98111 135.68894 142.57326 147.48253 150.84603 158.5749 166.27516 169.58856 176.65889 183.04956 187.95883 192.76769 199.78809 205.9855 210.89478 214.25827 221.98715 229.68741 233.34432 236.65772 242.38997 249.68231 257.2465 262.15577 265.51927 277.22709 284.5194 292.0836 296.99287 300.30628 307.32667 315.02693 322.0473 325.4108 331.9087 337.64094 341.00444 346.7367 350.0501 354.4942 362.22309 369.92335 373.28684 380.9871 384.3506 392.07948">information extraction, sentiment analysis (opinion</tspan></text>
<text xml:space="preserve" transform="matrix(.75 0 0 .75 72 87.441898)" font-size="14.666667" font-family="Calibri"><tspan y="14.2369799" x="403.09315 414.80097 418.16447 425.86473 429.2282 436.92848 443.8272 448.2713 451.58473 458.6051 466.30537 474.0056 477.31904 484.6114 496.3192 504.0481 508.95738 512.32089 520.04977 527.75 531.0634 538.0838 545.78408 552.80447 556.16799 562.66586 568.3981 571.7616 577.49386">mining) and emotion analysis.</tspan></text>
<text fill="#666666" xml:space="preserve" transform="matrix(.75 0 0 .75 72 112.88379)" font-size="22.666666" font-family="Calibri"><tspan y="32.66927" x="0 12.080383 24.028016 35.931398 50.556184 61.828996 73.599628 84.64012 89.839557 101.787189">ConNeKTion</tspan></text>
<text xml:space="preserve" transform="matrix(.75 0 0 .75 72 150.74854)" font-size="14.666667" font-family="Calibri"><tspan y="14.2369799" x="0 7.8147585 15.54364 23.243897 32.70462 39.996965 47.611345 54.753404 58.116899 65.84578 73.546039 76.859439 81.30354 87.46518 94.75752 101.77792 106.88757 114.58783 117.951328 125.65158 132.55033 135.86373 142.88413 150.58438 158.28464 161.59804 168.75441 175.10211 182.80237 186.16587 193.89475 197.25824 202.16751 205.531 213.23126 220.13 223.4434 231.25817 238.98705 246.6873 252.88472 260.17707 267.81288 272.72215 276.03553 285.49626 292.70985 297.61909 307.9599 315.68879 320.79844 327.32496">ConNeKTion (Learning and Exploiting Concept Networks</tspan></text>
<text xml:space="preserve" transform="matrix(.75 0 0 .75 72 150.74854)" font-size="14.666667" font-family="Calibri"><tspan y="14.2369799" x="336.3706 346.84754 350.21104 355.1203 362.82057 366.13398 373.94874 381.6776 389.37788 398.8386 406.13093 413.7453 420.88737 424.25086 431.97975 439.68 442.9934 447.4876 454.22175 461.922 465.2855 471.90516 475.26866 482.99754 486.3109 493.96803 501.6969 506.4486 513.74099 517.1045 520.468 527.4884 531.1453 534.45877 540.799 547.8194 555.51968 558.8832">with ConNeKTion [Fulvio Rotella, Fabio</tspan></text>
<text xml:space="preserve" transform="matrix(.75 0 0 .75 72 166.19043)" font-size="14.666667" font-family="Calibri"><tspan y="14.2369799" x="0 6.1616365 13.4539799 21.154236 26.94374 32.733247 36.09674 39.753648 43.067049 49.801195 54.552904 61.716325 65.90259 72.92299 80.623249 88.35213 91.66553 98.184818 105.47716 110.58681 113.9503 117.3138 120.67729 124.04079 128.53499 132.9791 136.2925 139.65599 145.38825 148.70165 155.72205 159.03545 163.80149 171.53037 179.25925 182.62274 185.93614 192.95655 200.6568 204.0203 211.31264 214.62604 219.39208 227.12096 230.43436 233.79785 241.0902 248.1106 253.22025">Leuzzi, Stefano Ferilli]) is a tool able to learn</tspan></text>
<text xml:space="preserve" transform="matrix(.75 0 0 .75 72 166.19043)" font-size="14.666667" font-family="Calibri"><tspan y="14.2369799" x="264.2339 270.30958 278.03846 285.7387 291.93614 299.22846 306.86427 311.77354 315.0869 322.78718 330.00074 334.91 345.25086 352.97975 358.0894 364.6159 370.34815 373.66157 378.13429 383.00758 390.73646 402.44429 405.7577 413.45796 416.82145 423.84187 427.20536 434.9056 438.219 442.9707 450.04103 456.4317 461.34098 464.65437 471.67475 479.375 487.07527 490.38868 495.15473 502.8836 506.19703 511.76457 516.6738 521.78347 529.4837 535.68118 540.59048 548.2907 553.207">concept networks from plain text and to structure</tspan></text>
<text xml:space="preserve" transform="matrix(.75 0 0 .75 72 166.19043)" font-size="14.666667" font-family="Calibri"><tspan y="14.2369799" x="563.8127 570.83309 578.5333">and</tspan></text>
<text xml:space="preserve" transform="matrix(.75 0 0 .75 72 181.63233)" font-size="14.666667" font-family="Calibri"><tspan y="14.2369799" x="0 7.292343 14.9925999 20.10225 23.465744 29.663163 37.36342 40.67682 45.58609 53.286348 60.57869 72.286518 75.599918 83.228549 89.8625 93.1759 97.648639 101.01213 108.71239 116.41264 119.77614 127.476398 134.37514 137.68854 143.7642 151.49309 159.19335 165.39076 172.6831 180.3189 185.22817 188.54157 195.31856 202.6109 210.31116 217.6035 222.41236 229.43276 232.79625 236.15975 241.70575 248.59008 253.49935 256.86286 264.59175 272.292 278.02424">enrich them by finding concept generalizations.</tspan></text>
<text xml:space="preserve" transform="matrix(.75 0 0 .75 72 207.07422)" font-size="14.666667" font-family="Calibri"><tspan y="14.2369799" x="0 7.1420595 14.842316 22.134659 25.44806 37.155885 44.176286 47.53978 55.240037 58.553438 62.66092 69.95326 76.837589 81.74686 89.44711 94.36339 101.65573 104.96913 112.69801 117.170749 120.484149 128.2989 136.02779 143.72805 153.18877 160.48111 168.09549 175.23755 178.60105 186.32993 194.03018 197.34358 203.41925 211.14813 218.84839 224.58065 227.94414 233.51168 238.42095 244.1532 247.4666 255.19548 259.6682 262.98164 270.6819 275.55519 283.28407 289.48149 296.7738 302.50605 308.23829 311.60179 319.30204">The main feature of ConNeKTion consists of processing</tspan></text>
<text xml:space="preserve" transform="matrix(.75 0 0 .75 72 207.07422)" font-size="14.666667" font-family="Calibri"><tspan y="14.2369799" x="329.51423 336.5346 339.84803 345.9237 353.6526 358.76225 366.4625 374.16276 379.89503 383.20845 390.93733 395.41004 398.72346 403.47517 410.54548 416.93617 421.84544 427.5777 430.8911 434.2546 441.95487 445.26826 452.9685 459.85285 464.76213 472.46238 477.27125 484.29164 487.65513 490.9685 494.332 501.35243 509.05268 515.9514 523.6517 530.67208 537.44906 544.7414 548.0548 552.82089 560.54977 563.86318 571.5634 579.2637 582.6272 585.99069">a corpus of texts in natural language to build</tspan></text>
<text xml:space="preserve" transform="matrix(.75 0 0 .75 72 222.51612)" font-size="14.666667" font-family="Calibri"><tspan y="14.2369799" x="0 7.020401 10.333801 16.40947 24.138352 31.838608 38.036027 45.32837 52.964159 57.87343 61.18683 68.887088 76.10065 81.00992 91.35077 99.07965 104.1893 110.85188 114.55173 117.86513 121.557819 126.46709 132.19934 135.51274 143.213 150.2334 155.96566 159.32915 165.52657 168.83997 175.86037 181.59262 187.32488 195.02513 206.73296 214.36875 219.27802 222.64151 230.37039 238.07065 241.38405 244.74755 250.4798 253.7932 258.70246 266.4027 273.28706 278.1963 281.5097 289.20997 296.93885 304.6391 312.33937">a concept network. Its basic assumption is that nouns</tspan></text>
<text xml:space="preserve" transform="matrix(.75 0 0 .75 72 222.51612)" font-size="14.666667" font-family="Calibri"><tspan y="14.2369799" x="321.385 328.45533 334.80305 342.5033 347.41957 354.7119 360.44416 366.1764 369.4898 375.5655 383.29438 390.99464 397.19206 404.48439 412.12019 417.02946 422.76173 426.41865 429.73207 436.75245 444.4527 452.15296 455.46638 460.37565 468.0759 474.9602 479.86949 483.18287 490.20326 493.51667 499.59236 507.32124 515.0215 521.2189 528.5112 536.14706 541.0563 544.3697 550.4454 557.46578 565.166 568.47946 576.1797">express concepts, and that a concept can be</tspan></text>
<text xml:space="preserve" transform="matrix(.75 0 0 .75 72 237.95801)" font-size="14.666667" font-family="Calibri"><tspan y="14.2369799" x="0 7.7002565 14.863678 19.33641 22.699906 30.400162 37.692506 45.39276 48.70616 56.334794 62.96875 66.28215 71.19142 78.89168 86.18402 89.49742 95.229679 102.44324 107.35251 110.66591 118.39479 122.86752 126.18092 133.9098 138.81908 146.51934 153.81168 158.92133 162.23473 168.3104 176.03928 183.73954 189.93695 197.2293 204.86508 209.77436 215.5066 218.82 223.72928 231.42954 238.31386 243.22313 246.53653 249.90003 257.46418 262.21589 269.50825 274.31709 281.33747 287.53489">defined by the set of other concepts that interact</tspan></text>
<text xml:space="preserve" transform="matrix(.75 0 0 .75 72 237.95801)" font-size="14.666667" font-family="Calibri"><tspan y="14.2369799" x="295.7576 306.23454 309.59803 314.5073 322.20756 325.52095 328.88444 333.7937 337.10713 340.4706 348.17088 351.48426 356.39353 364.09379 371.3861 374.69953 385.04039 392.76927 397.8789 401.2424 408.94267 412.25605 419.9563 427.24867 432.9809 439.1783 444.28797 447.65147 455.3517 462.64405 470.3443 473.6577 481.28636 487.9203 491.2337 496.14299 503.84324 511.13557 514.449 520.52468 528.25357 533.36318 541.0634 548.7637 554.4959 558.15286 561.46627 568.48666 576.1869">with it in the world described by the corpus, and</tspan></text>
<text xml:space="preserve" transform="matrix(.75 0 0 .75 72 253.3999)" font-size="14.666667" font-family="Calibri"><tspan y="14.2369799" x="0 4.9092714 12.609528 19.90187 23.215271 28.947525 36.161088 41.07036 44.38376 52.11264 56.585374 59.898775 63.262269 68.17154 73.90379 77.21719 84.237598 89.96985 95.7021 103.430988 109.6284 112.9919 119.87622 124.62793 131.92028 139.62053 142.93393 150.63419 155.50749 163.23638 170.93663 178.22898 183.33863 188.2479 191.61139 198.90373 204.63599 207.94939 214.96979 222.67005 230.3703 233.6837 240.56803 245.2696 250.17888 255.28853 258.65205 266.3523 274.05256 278.80427 286.09663 291.82887">the set of its associated properties and attributes,</tspan></text>
<text xml:space="preserve" transform="matrix(.75 0 0 .75 72 253.3999)" font-size="14.666667" font-family="Calibri"><tspan y="14.2369799" x="298.79914 305.86946 312.21717 319.91743 324.83369 332.12605 337.85829 343.5905 350.88288 358.58314 361.89656 369.52519 376.15913 379.47254 385.94895 393.24128 398.35093 405.97956 411.7118 415.0252 422.0456 429.74586 437.4461 440.75953 447.7799 455.48017 458.9868 466.2791 472.47654 477.3858 480.7493 487.2257 494.51808 500.2503 503.95014 507.26356 514.40567 522.1059 525.46939 531.2016 534.515 541.1776 548.87789 556.54946 567.02639 570.3899 577.68228 585.3825 592.1595">expressed by verbs and adjectives. This knowledge</tspan></text>
<text xml:space="preserve" transform="matrix(.75 0 0 .75 72 268.8418)" font-size="14.666667" font-family="Calibri"><tspan y="14.2369799" x="0 6.0756685 13.096069 20.796326 24.109726 31.809983 39.102327 42.415727 46.580507 54.309389 59.419038 71.12686 78.14726 81.51076 84.87425 90.33432 97.62666 105.32692 108.64032 115.66072 121.392978 124.706378 131.72678 135.04018 141.93892 146.74777 153.76818 161.46843 169.16869 172.82559 176.13899 186.61592 194.31618 201.60852 206.5248 213.81714 217.13054 224.8308 232.55968 240.25994 247.55228 253.28453 256.59794 263.61836 268.5346 275.82698 279.14039 284.04966 291.7499">can be formalized as a graph, where nodes are the</tspan></text>
<text xml:space="preserve" transform="matrix(.75 0 0 .75 72 268.8418)" font-size="14.666667" font-family="Calibri"><tspan y="14.2369799" x="302.35563 308.43128 316.16017 323.8604 330.05784 337.35017 344.98597 349.89524 355.6275 361.2882 368.98847 376.71736 384.4176 392.11787 397.8501 401.1635 408.1839 415.88417 423.5844 430.87678 437.89717 443.0068 446.3703 454.07057 460.9693 464.2827 467.6462 475.34648 478.65986 483.56913 491.26939 498.5617 501.87513 507.9508 515.6797 520.7893 528.48959 536.1898 541.92208 545.579 548.8924 555.9128 563.61306">concepts/nouns appearing in the corpus, and</tspan></text>
<text xml:space="preserve" transform="matrix(.75 0 0 .75 72 284.2837)" font-size="14.666667" font-family="Calibri"><tspan y="14.2369799" x="0 7.292343 14.9925999 21.769593 29.061936 34.79419 38.10759 43.023866 50.316209 58.016466 62.93274 70.22508 75.95734 83.24968 90.81386 95.72313 99.03653 103.9458 111.64606 118.9384 122.2518 127.168079 134.46042 137.82392 144.70824 149.61751 152.981 160.70989 168.41014 174.1424 181.84265 185.20615 192.83478 198.56703 201.88043 208.95076 215.29846 222.99872 227.915 235.20734 240.93959 246.67185 253.96419 261.66444 264.97785 272.60646 279.24043 282.55384 287.4631 295.16337">edges represent the relationships expressed by the</tspan></text>
<text xml:space="preserve" transform="matrix(.75 0 0 .75 72 284.2837)" font-size="14.666667" font-family="Calibri"><tspan y="14.2369799" x="305.7691 312.66786 317.47669 324.49708 336.2049 347.91273 354.79707 359.70634 363.06983 369.1455 376.1659 379.5294 382.84278 388.4103 393.31959 398.42924 406.1295 412.3269 417.23619 424.93644 429.85273 437.14509 440.4585 448.18739 452.6601 455.9735 460.88279 468.58305 475.87538 479.18879 483.9405 491.0108 497.4015 502.31077">grammatical structure of the text.</tspan></text>
<text xml:space="preserve" transform="matrix(.75 0 0 .75 72 309.7256)" font-size="14.666667" font-family="Calibri"><tspan y="14.2369799" x="0 7.1420595 14.842316 22.134659 27.050934 34.343278 37.656679 44.67708 49.593355 56.885698 60.199098 65.93135 73.15207 79.62848 86.92082 91.729679 98.75008 102.11357 105.42697 113.12723 120.85611 126.58836 132.32062 135.68412 143.38437 146.74787 154.0402 157.3536 164.42394 170.77164 178.4719 181.83539 189.56427 192.92777 197.65799 204.54232 209.45159 212.81508 220.54396 228.24422 233.97647 237.28987 245.01876 249.49149 252.80489 257.71418 265.41444 272.7068 276.0202 279.3837 286.67604 293.6964 298.80607 306.50633 313.79866">There are several possible exploitations of the learned</tspan></text>
<text xml:space="preserve" transform="matrix(.75 0 0 .75 72 309.7256)" font-size="14.666667" font-family="Calibri"><tspan y="14.2369799" x="324.81233 331.71107 336.5199 343.54029 351.24055 358.9408 362.64064 365.95405 373.0961 380.79637 388.08869 391.4021 403.10993 410.1303 413.4938 421.19407 424.50746 429.23768 436.25807 441.9903 448.51679 454.24903 457.56245 461.72724 469.45613 474.56578 477.87916 488.35609 496.05635 499.41984 505.61726 513.3175 516.6309 524.4457 532.17459 539.8748 549.3356 556.6279 564.2423 571.3844 574.7479 582.4768">graph. The main tasks for which ConNeKTion</tspan></text>
<text xml:space="preserve" transform="matrix(.75 0 0 .75 72 325.16749)" font-size="14.666667" font-family="Calibri"><tspan y="14.2369799" x="0 6.0756685 13.096069 20.796326 24.109726 31.809983 39.102327 42.415727 50.115983 55.848237 63.14058 70.840839 74.154239 81.17464 86.09091 93.383258 97.30495 100.61835 108.318408 115.61075 122.63115 128.3634 136.09229 143.79254 147.15604 154.8563 161.75504 165.06844 172.69707 179.33103 182.64443 191.12473 196.85698 202.58924 210.31812 216.51554 219.87903 226.76335 231.67263 235.03612 242.765 250.46526 254.12216 257.43556 264.7849 271.98414 278.67536 289.01625 296.74513 301.65425">can be used are: Reasoning by Association, Keyword</tspan></text>
<text xml:space="preserve" transform="matrix(.75 0 0 .75 72 325.16749)" font-size="14.666667" font-family="Calibri"><tspan y="14.2369799" x="312.66795 319.8243 326.21498 331.12425 335.9331 342.9535 349.1509 354.06019 357.42369 365.15257 372.8528 376.5097 379.82313 383.5158 391.13014 395.29493 403.0238 408.13346 419.84129 426.7256 431.63487 434.99836 442.72724 450.4275 453.7409 461.44099 468.65455 473.5638 478.67347 482.03697 489.2577 495.66249 502.68287 506.04637 509.35975 516.3801 524.0804 531.78067 535.09408 543.57437 551.2746 556.18386 563.8841 571.613">Extraction, Information Retrieval and Author</tspan></text>
<text xml:space="preserve" transform="matrix(.75 0 0 .75 72 340.60939)" font-size="14.666667" font-family="Calibri"><tspan y="14.2369799" x="0 3.692688 11.392944 18.685288 26.249466 31.158738 34.522233 38.994966 42.35846 48.434129 55.31845 60.227724 63.591218 71.3201 79.020359">Identification.</tspan></text>
</g>
</g>
</svg>
