<?xml version="1.0" encoding="UTF-8" standalone="no"?>
<!DOCTYPE svg PUBLIC "-//W3C//DTD SVG 1.1//EN" "http://www.w3.org/Graphics/SVG/1.1/DTD/svg11.dtd">
<svg xmlns="http://www.w3.org/2000/svg" xmlns:xlink="http://www.w3.org/1999/xlink" version="1.1" width="596pt" height="842pt" viewBox="0 0 596 842">
<g enable-background="new">
<clipPath id="cp192">
<path d="M 0 0 L 595.5 0 L 595.5 842.25 L 0 842.25 Z " fill-rule="evenodd"/>
</clipPath>
<g clip-path="url(#cp192)">
<path transform="matrix(.75,0,0,.75,0,0)" d="M 0 0 L 794 0 L 794 1123 L 0 1123 Z " fill="#ffffff"/>
</g>
<clipPath id="cp193">
<path d="M 0 0 L 595.5 0 L 595.5 842.25 L 0 842.25 Z " fill-rule="evenodd"/>
</clipPath>
<g clip-path="url(#cp193)">
<text fill="#666666" xml:space="preserve" transform="matrix(.75 0 0 .75 72 72)" font-size="22.666666" font-family="Calibri"><tspan y="22.002604" x="0 14.292908 21.72676 32.579195 44.482576 56.385957 61.50795 68.42209 75.95555 87.90318 106.00163 111.12363 122.883197 142.25385">Graph from XML</tspan></text>
<text xml:space="preserve" transform="matrix(.75 0 0 .75 72 101.865238)" font-size="14.666667" font-family="Calibri"><tspan y="14.2369799" x="0 5.838669 13.567551 16.88095 20.244446 31.95227 39.652528 47.38141 52.49106 57.40033 60.71373 67.73413 71.04753 77.94627 82.75513 89.77553 97.475788 105.17604 108.48944 112.96217 117.83548 125.56436 137.27219 140.58559 147.60599 155.30625 158.61965 166.22687 178.75768 184.91931 188.23271 192.70545 196.06894 199.43244 206.72478 210.38169 213.69509 221.39534 229.12422 232.43762 237.3469 245.04715 252.3395 255.6529 259.8177 267.54658 270.91007 274.27357 281.94514 292.42207 295.78556 303.4858">To import a graph from an XML file, do the following</tspan></text>
<text xml:space="preserve" transform="matrix(.75 0 0 .75 72 101.865238)" font-size="14.666667" font-family="Calibri"><tspan y="14.2369799" x="313.69795 318.14204 322.61476 325.97825 332.87699 340.3053 344.7494">(fig9):</tspan></text>
<text xml:space="preserve" transform="matrix(.75 0 0 .75 72 127.30664)" font-size="14.666667" font-family="Calibri"><tspan y="14.2369799" x="24 31.428315 38.85663">11.</tspan></text>
<text xml:space="preserve" transform="matrix(.75 0 0 .75 72 127.30664)" font-size="14.666667" font-family="Calibri"><tspan y="14.2369799" x="48 51.692689 59.392946 65.1252 72.41754 77.52719 82.43646 85.74986 90.659137 98.35939 105.65173 108.96513 116.66539 124.39427 127.75777 132.66704 135.98044 142.0561 149.78499 157.48525 165.1855 172.47785 178.67527 183.58454 186.94803 194.67691 202.37717 205.69057 215.09404 223.05193 226.74462 230.05802 234.53075 239.40406 247.13294 258.84077 262.15419 271.6149 278.90724 286.6361 294.06443 298.73756 302.05097 306.4951 311.40437 319.1046 326.39695 329.71037 337.4106 344.57405 348.76029 355.7807 363.48097 366.84446">Insert the bolt connection URI from Neo4J (the default</tspan></text>
<text xml:space="preserve" transform="matrix(.75 0 0 .75 72 127.30664)" font-size="14.666667" font-family="Calibri"><tspan y="14.2369799" x="375.06709 382.79597 390.49623 397.78858 401.102 406.83424 414.5345 422.26338 429.96363 433.32713 441.02738 444.34077 452.04103 459.33338 462.6468 469.66719 473.03068 477.94697 485.23933 492.2597 499.95997 506.59394 509.90736 513.2709 520.9711 526.70339 533.9957 539.10537 543.85708 551.1494">one should be already inserted</tspan></text>
<text xml:space="preserve" transform="matrix(.75 0 0 .75 72 142.75)" font-size="14.666667" font-family="Calibri"><tspan y="14.2369799" x="48 54.13301 61.833269 69.56215 72.925647 77.834918 81.75661 87.4173 93.07799 96.44148 104.170368 110.24603 117.26643 120.62993 128.33019 136.05907 141.6266 146.53588 152.19657 159.62488 167.05319 174.4815 181.90982 188.04283">&#x201c;bolt://localhost/7687&#x201d;)</tspan></text>
<text xml:space="preserve" transform="matrix(.75 0 0 .75 72 158.1914)" font-size="14.666667" font-family="Calibri"><tspan y="14.2369799" x="24 31.428315 38.85663">12.</tspan></text>
<text xml:space="preserve" transform="matrix(.75 0 0 .75 72 158.1914)" font-size="14.666667" font-family="Calibri"><tspan y="14.2369799" x="48 51.692689 59.392946 65.1252 72.41754 77.52719 82.43646 85.74986 90.659137 98.35939 105.65173 108.96513 116.66539 122.397647 129.68999 134.79964 138.11304 145.84192 150.31465 153.62805 158.53733 166.23758 173.52993 176.84333 184.54358 191.4279 196.15813 203.17853 210.87879 217.89919 223.63144 230.92378 234.23719 238.68129 243.59056 251.29082 258.58317 261.89656 269.5968 276.76023 280.94648 287.96687 295.6671 299.0306 303.93989 307.2533 314.95356 320.68583 327.97819">Insert the user of the database (the default user</tspan></text>
<text xml:space="preserve" transform="matrix(.75 0 0 .75 72 158.1914)" font-size="14.666667" font-family="Calibri"><tspan y="14.2369799" x="336.40126 342.13349 349.83375 357.56263 365.26289 368.62638 376.32664 379.64 386.6604 390.0239 394.9402 402.23255 409.25294 416.9532 423.58717 426.90058 434.60084 441.8932 445.2066 448.5701 456.27037 462.00263 469.29499 474.40464 479.15635 486.44868 494.14894 497.46235 503.59535 511.2956 518.58798 526.31686 533.7451 537.4093 543.5423">should already be inserted &#x201c;neo4j&#x201d;)</tspan></text>
<text xml:space="preserve" transform="matrix(.75 0 0 .75 72 173.63086)" font-size="14.666667" font-family="Calibri"><tspan y="14.2369799" x="24 31.428315 38.85663">13.</tspan></text>
<text xml:space="preserve" transform="matrix(.75 0 0 .75 72 173.63086)" font-size="14.666667" font-family="Calibri"><tspan y="14.2369799" x="48 51.692689 59.392946 65.1252 72.41754 77.52719 82.43646 85.74986 90.659137 98.35939 105.65173 108.96513 116.66539 123.54971 128.27994 135.30034 143.0006 150.021 155.75325 163.0456 165.80731 171.53957 174.85297 182.55323 189.57363 195.30588 200.9665 211.30736 219.03624 223.94536 231.64562 234.95902 239.40312 244.3124 252.01265 259.305 262.6184 270.3473 278.04756 285.3399 288.65333 294.38557 301.67793 305.04145 312.3338 318.53123 323.2829 330.57527 338.2755 341.58894 349.28919 356.98945 362.0991 365.4626 373.16285">Insert the database&#x2019;s password (the one selected during</tspan></text>
<text xml:space="preserve" transform="matrix(.75 0 0 .75 72 173.63086)" font-size="14.666667" font-family="Calibri"><tspan y="14.2369799" x="383.37489 388.28416 395.9844 403.27674 406.59016 414.2904 421.58277 429.31166 436.73997 440.24659 443.56 449.29225 456.5058 461.41508 469.11534 476.81559">the neo4j setup)</tspan></text>
<text xml:space="preserve" transform="matrix(.75 0 0 .75 72 189.07422)" font-size="14.666667" font-family="Calibri"><tspan y="14.2369799" x="24 31.428315 38.85663">14.</tspan></text>
<text xml:space="preserve" transform="matrix(.75 0 0 .75 72 189.07422)" font-size="14.666667" font-family="Calibri"><tspan y="14.2369799" x="48 54.734148 62.434404 69.726749 75.924167 79.28766 83.832 90.46596 93.77936 98.68863 106.388889 113.68123 116.99463 120.35812 128.087 134.16268 141.047 145.95627 149.31977 157.04865 164.7489 168.0623 175.79119 180.26392 183.57732 188.48659 196.18685 203.47919 206.79259 213.69133 218.50019 225.52059 233.22084 240.9211 244.2345 249.00054 256.72944 260.04286 267.7431 275.03547 278.34889 281.71238 293.4202 301.12046 308.84934 313.95899 318.7107 326.00306 333.7033 337.01673 341.46083 348.75318 352.6106 359.50935">Specify the location of the graph to be imported (e.g.</tspan></text>
<text xml:space="preserve" transform="matrix(.75 0 0 .75 72 189.07422)" font-size="14.666667" font-family="Calibri"><tspan y="14.2369799" x="366.52247 372.06825 378.96699 383.77583 390.7962 398.49647 406.19673 409.89656 416.24427 427.9521 431.31559 437.4486 440.76203 445.24909">&#x201c;graph.xml&#x201d; -&#x003e;</tspan></text>
<text xml:space="preserve" transform="matrix(.75 0 0 .75 72 204.51563)" font-size="14.666667" font-family="Calibri"><tspan y="14.2369799" x="48 52.765169 56.46501 62.1257 69.732929 82.26373 88.42537 95.72487 100.1976 103.5611 106.92459 114.216938 119.94919 125.35922 132.25797 137.06682 144.08722 151.78748 159.48773 163.18758 169.53528 181.2431 184.6066 190.73961 195.18372 198.88356 202.19696 205.88965 210.36238 213.67578 218.58506 226.28531 233.57765 236.89105 244.59131 250.32357 257.6159 262.72557 266.03895 276.35115 283.37153 290.9357 295.84498 301.5772 304.89064 309.65669 317.38557 320.69898 328.39924 334.13148">&#x201c;./XML_files/graph.xml&#x201d;). If the user wants to use</tspan></text>
<text xml:space="preserve" transform="matrix(.75 0 0 .75 72 204.51563)" font-size="14.666667" font-family="Calibri"><tspan y="14.2369799" x="344.73725 352.46614 357.3754 365.07566 372.36799 377.47764 380.79103 384.1545 391.85478 399.55503 407.25529 412.16456 415.47798 419.95069 423.31419 426.67768 433.97004 439.70228 443.0157 447.92497 455.6252 462.64564 470.3459 473.6593 478.56858 486.26884 493.56117 496.87458 504.60346 512.3037 519.59609 525.3283 528.6417 536.342 541.2153 548.8797 555.4993 558.8628 566.56307 573.8554 581.55569">other input files than the ones provided,</tspan></text>
<text xml:space="preserve" transform="matrix(.75 0 0 .75 72 219.95703)" font-size="14.666667" font-family="Calibri"><tspan y="14.2369799" x="48 51.506624 59.20688 64.774417 69.683689 72.997089 77.90636 84.54031 92.24057 99.53291 102.84631 107.755588 115.45584 122.748188 126.061588 133.08199 140.71062 146.44287 154.17176 157.53525 165.2355 169.98722 177.27956 180.59296 188.29322 195.17754 200.0868 207.78707 211.10047 218.82935 223.30208 226.61548 231.52475 239.225 246.51735 249.83075 254.30348 257.667 261.0305 268.3228">just type the absolute path of the file.</tspan></text>
<text xml:space="preserve" transform="matrix(.75 0 0 .75 72 235.40039)" font-size="14.666667" font-family="Calibri"><tspan y="14.2369799" x="24 31.428315 38.85663">15.</tspan></text>
<text xml:space="preserve" transform="matrix(.75 0 0 .75 72 235.40039)" font-size="14.666667" font-family="Calibri"><tspan y="14.2369799" x="48 54.734148 62.02649 65.389987 72.68233 78.879749 83.78902 87.10242 93.23543 99.69034 106.98268 112.714939 118.847949 122.16135 125.52484 129.99758 133.31098 139.77304 147.50193 155.20218 158.51558 168.82779 175.84819 183.41237 188.32164 191.63504 196.40108 204.12996 207.44336 214.22035 221.5127 229.21295 236.5053 241.31415 248.19847 252.95018 260.24253 263.5559 270.5763 273.8897 281.58998 286.46327 294.19215 297.55564 305.28453 312.18327 315.49668 319.9694 323.3329 326.69639 333.98875">Select &#x201c;yes&#x201d; if you want to generate a prolog file,</tspan></text>
<text xml:space="preserve" transform="matrix(.75 0 0 .75 72 235.40039)" font-size="14.666667" font-family="Calibri"><tspan y="14.2369799" x="340.95906 351.43598 354.79948 359.70875 367.409 370.7224 375.63169 383.33195 390.62428 393.93769 401.008 407.39869 412.30796 417.11683 424.1372 430.33464 435.08634 442.37867 450.07893 453.39234 457.5786 464.599 470.79643 475.7057 481.43794 485.09486 488.40827 492.88099 497.75428 505.48316 517.191 520.5044 525.4137 533.11398 540.4063 543.7197 551.42 558.71237 566.4412 573.8695">with the extracted facts, from the neo4j</tspan></text>
<text xml:space="preserve" transform="matrix(.75 0 0 .75 72 250.84375)" font-size="14.666667" font-family="Calibri"><tspan y="14.2369799" x="48 55.700258 62.58458 67.314807 74.335208 82.03546 89.05586 94.78812 102.08046 105.39386 108.757358 120.46518 128.16544 135.89432 141.00397 145.75568 153.04802 160.74828 164.44812 167.76152 173.80786 181.53675 189.237 192.5504 204.25823 211.95848 217.52602 222.43529 225.74869 231.48094 239.1812 246.47354 252.67096 256.03446 260.5788 267.21278 270.52619 277.54658 280.86 285.3327 288.6962 292.0597 299.35206 302.66548 310.36573 317.3861 329.09394 336.3863 339.6997 344.1438 349.71138 354.46308 361.7554">database imported. You must specify a file name (step</tspan></text>
<text xml:space="preserve" transform="matrix(.75 0 0 .75 72 250.84375)" font-size="14.666667" font-family="Calibri"><tspan y="14.2369799" x="372.76899 380.1973 384.64143">6).</tspan></text>
<text xml:space="preserve" transform="matrix(.75 0 0 .75 72 266.28517)" font-size="14.666667" font-family="Calibri"><tspan y="14.2369799" x="24 31.428315 38.85663">16.</tspan></text>
<text xml:space="preserve" transform="matrix(.75 0 0 .75 72 266.28517)" font-size="14.666667" font-family="Calibri"><tspan y="14.2369799" x="48 54.47603 61.109987 68.81024 76.102588 79.415988 84.32526 92.02551 99.317859 102.631259 110.33151 117.35191 129.05974 136.35208 139.66548 147.39437 151.8671 155.1805 160.08977 167.79003 175.08237 178.39577 186.12465 193.8249 198.73418 206.43444 214.13469 219.04396 222.35736 230.05762 234.93093 242.6598 246.0233 253.75218 260.65095 263.96437 268.43708 271.80058 275.16407 282.45643 285.76985 289.13334 293.60609 296.9195 303.38157 311.1104 318.81068 322.12409 329.82435 336.60127 343.07765">Type the name of the output prolog file if you have</tspan></text>
<text xml:space="preserve" transform="matrix(.75 0 0 .75 72 266.28517)" font-size="14.666667" font-family="Calibri"><tspan y="14.2369799" x="353.68336 359.4156 366.70796 370.07145 377.36378 383.5612 388.3129 395.60523 403.30549 406.6189 412.7519 419.2068 426.49916 432.23139 438.36439 441.6778 445.0413 452.74156 456.05494 460.9642 468.66447 475.9568 479.2702 486.97047 491.88673 499.10743 505.72706 509.09056 516.81948 524.5197 530.25198 533.56539 539.13296 543.88467 551.177 558.87728 562.5771 565.8905 573.0326 580.73287">selected &#x201c;yes&#x201d; in the previous step. The</tspan></text>
<text xml:space="preserve" transform="matrix(.75 0 0 .75 72 281.7246)" font-size="14.666667" font-family="Calibri"><tspan y="14.2369799" x="48 53.732255 61.43251 68.72485 74.92227 78.28577 82.7585 86.121997 93.41434 101.11459 104.42799 112.12825 119.14865 130.85648 138.14882 141.46222 151.93915 155.30265 158.66614 162.02964 165.34304 173.04329 180.77217 185.68144 188.99485 196.6951 203.98744 211.27979 218.98004 222.29344 229.31385 237.0141 240.3275 247.39783 253.7885 258.54023 265.83259 273.53285 279.26509 282.62858 290.35746 298.0577 301.3711 309.09999 314.20964 317.523 324.5434 327.8568 335.55708 342.4414 347.35066 355.0509">specified name will not need an extension or a path,</tspan></text>
<text xml:space="preserve" transform="matrix(.75 0 0 .75 72 281.7246)" font-size="14.666667" font-family="Calibri"><tspan y="14.2369799" x="362.02125 366.9305 374.63078 381.9231 385.2365 389.70924 393.07273 396.43623 403.72859 407.042 417.51893 420.88243 424.2459 427.6094 430.9228 438.62306 445.9154 449.22883 454.96107 461.73799 468.2144 475.5067 483.20698 486.5204 489.88389 497.58415 500.89753 505.8068 513.5071 520.79946 524.11288 528.27767 536.00656 539.37 547.07028 554.3626">the file will be saved in the folder</tspan></text>
<text xml:space="preserve" transform="matrix(.75 0 0 .75 72 297.16798)" font-size="14.666667" font-family="Calibri"><tspan y="14.2369799" x="48 52.765169 56.46501 62.1257 69.82596 74.699268 82.42815 85.79164 93.52052 100.419269 107.718769 112.1915 115.55499 118.91849 126.21083 131.94309 138.0761 141.3895 145.8336 153.12595 156.98334 163.88208 167.58193 170.89533 175.8046 182.43856 190.13881 197.43115 200.74456 205.65383 213.35408 220.64643 223.95983 231.66008 238.68048 250.3883 257.68067 260.99409 267.12709 274.82734 279.70063 287.36506 293.76985 300.79023 306.92323 310.23664 314.7237 322.0232 325.3366 330.24589 337.94615">&#x201c;./prolog_files&#x201d; (e.g. type the name &#x201c;prova&#x201d; -&#x003e; the</tspan></text>
<text xml:space="preserve" transform="matrix(.75 0 0 .75 72 297.16798)" font-size="14.666667" font-family="Calibri"><tspan y="14.2369799" x="348.55186 353.0246 356.3881 359.7516 367.04396 370.35737 380.8343 384.19779 387.56129 390.92478 394.23817 401.93843 409.23078 412.5442 419.3211 425.7259 432.74629 436.10978 439.47328 446.49366 454.1939 457.5574 464.84974 468.16316 471.52665 479.2269 482.54029 489.32499 495.16365 502.456 509.8412 517.54147 525.2703 528.58377 533.0708 536.3842 545.40127">file will be available in &#x201c;TeKno - De</tspan></text>
<text xml:space="preserve" transform="matrix(.75 0 0 .75 72 312.60939)" font-size="14.666667" font-family="Calibri"><tspan y="14.2369799" x="48 54.161638 61.182039 68.88229 73.79857 81.09091 88.65509 93.56436 96.92786 100.29135 106.023609 110.51065 123.04146 126.40495 134.10521 141.39756 146.64327 153.26291 156.6264 164.32666 167.69016 173.35085 181.0511 185.92441 193.65329 197.01679 204.74567 211.64441 218.94391 223.41664 226.78014 230.14363 237.43598 243.16823 248.82892 256.52919 261.40248 269.0669 275.47169 282.49208 286.1919 293.89216 297.25566 303.38868 307.83277">Laurentiis-Minervini/prolog_files/prova.pl&#x201d;).</tspan></text>
<text xml:space="preserve" transform="matrix(.75 0 0 .75 72 328.05079)" font-size="14.666667" font-family="Calibri"><tspan y="14.2369799" x="24 31.428315 38.85663">17.</tspan></text>
<text xml:space="preserve" transform="matrix(.75 0 0 .75 72 328.05079)" font-size="14.666667" font-family="Calibri"><tspan y="14.2369799" x="48 54.734148 62.02649 65.389987 72.68233 78.879749 83.78902 87.10242 93.23543 99.69034 106.98268 112.714939 118.847949 122.16135 125.52484 129.99758 133.31098 139.77304 147.50193 155.20218 158.51558 168.82779 175.84819 183.41237 188.32164 191.63504 196.40108 204.12996 207.44336 212.35964 219.65198 225.38423 232.5978 237.50707 240.82047 245.72974 253.43 260.72236 264.03578 270.9345 275.74336 282.76374 290.464 298.16426 301.86408 305.1775 308.87019 313.3429 316.6563 321.56559 329.26585">Select &#x201c;yes&#x201d; if you want to reset the graph. If the</tspan></text>
<text xml:space="preserve" transform="matrix(.75 0 0 .75 72 328.05079)" font-size="14.666667" font-family="Calibri"><tspan y="14.2369799" x="339.87159 347.57185 353.30409 360.59645 365.7061 369.01948 376.71974 384.0121 391.03248 397.2299 402.13917 405.50267 411.90745 418.79176 423.54347 430.83583 438.53608 441.8495 446.75877 454.459 457.8225 463.55476 466.86817 474.59706 482.23286 487.14213 490.5056 498.2345 505.93476 509.59169 512.9051 517.81436 525.5146 532.80697 536.12039 543.0191 547.82797 554.8483 562.5486">user deactivated this option, the graph</tspan></text>
<text xml:space="preserve" transform="matrix(.75 0 0 .75 72 343.49415)" font-size="14.666667" font-family="Calibri"><tspan y="14.2369799" x="48 51.363496 63.07132 70.771579 78.50046 83.61011 88.36182 95.65416 103.354419 106.667819 117.144748 120.50824 123.871738 127.23523 130.54863 138.24889 145.54123 148.85463 156.55489 164.25514 167.61864 170.98213 175.8914 179.2048 186.93369 194.63394 197.94734 202.71338 210.44226 218.14252 221.45592 229.1848 233.65753 236.97093 241.8802 249.58046 256.8728 260.18623 267.2066 270.5701 275.4864 282.77876 289.79914 297.4994 304.13337 307.44676 315.147 320.06327 327.35563 333.08787 340.38023 347.94438">imported will be built on top of the already present</tspan></text>
<text xml:space="preserve" transform="matrix(.75 0 0 .75 72 343.49415)" font-size="14.666667" font-family="Calibri"><tspan y="14.2369799" x="356.16706 359.53056 367.2308 372.79835 377.52857 384.54896 392.2492 398.44664 405.73896 409.39588 412.7093 416.07279 420.54554 423.85896 430.92927 437.27699 440.64048 446.208 451.11729 456.84956">instance, if exists.</tspan></text>
<text xml:space="preserve" transform="matrix(.75 0 0 .75 72 358.9336)" font-size="14.666667" font-family="Calibri"><tspan y="14.2369799" x="24 31.428315 38.85663">18.</tspan></text>
<text xml:space="preserve" transform="matrix(.75 0 0 .75 72 358.9336)" font-size="14.666667" font-family="Calibri"><tspan y="14.2369799" x="48 61.03891 68.73917 76.03151 83.731769 87.045169 94.06557 97.42906 100.79256 104.10596 109.01523 116.715488 124.00783 127.32123 135.02149 139.93776 147.15848 153.77812 157.14162 164.8705 172.57076 178.30301 181.61641 184.9799 192.68016 200.38042 208.08068 212.98995 218.7222 222.0356 229.73586 236.51276 242.98917 250.28151 253.59491 261.29518 268.58753 275.87989 283.58015 286.89356 292.6258 300.32606 307.61839 313.8158 317.1793 321.652 325.0155 332.30784 340.0081">When all the previous inputs have been specified,</tspan></text>
<text xml:space="preserve" transform="matrix(.75 0 0 .75 72 358.9336)" font-size="14.666667" font-family="Calibri"><tspan y="14.2369799" x="346.9784 351.88768 359.58793 366.88026 370.19367 377.89393 383.62617 390.91853 396.02818 399.34156 405.41725 412.43763 420.13789 423.4513 429.6487 433.0122 436.3757 442.57313 449.23573 452.54914 457.4584 465.15867 472.451 475.7644 481.8974 488.63154 496.3318 504.03205 515.73989 519.1034 524.5211 530.6541 533.9675 541.6678 549.36807 554.06967 558.8357 566.5646 574.26486 577.57827 582.3443">the user can click the &#x201c;Submit&#x201d; button to</tspan></text>
<text xml:space="preserve" transform="matrix(.75 0 0 .75 72 374.375)" font-size="14.666667" font-family="Calibri"><tspan y="14.2369799" x="48 51.363496 58.383897 66.08415 73.78441 79.98183 87.68208 90.99548 95.904758 103.60501 110.897357 114.210758 121.28108 127.24205 134.5344 140.73181 148.43207 153.34134 156.70484 164.43372 172.13397">launch the execution.</tspan></text>
<text xml:space="preserve" transform="matrix(.75 0 0 .75 72 389.81837)" font-size="14.666667" font-family="Calibri"><tspan y="14.2369799" x="24 31.428315 38.85663">19.</tspan></text>
<text xml:space="preserve" transform="matrix(.75 0 0 .75 72 389.81837)" font-size="14.666667" font-family="Calibri"><tspan y="14.2369799" x="48 55.14206 62.842317 66.20581 71.938068 75.251468 80.003177 87.0735 93.46417 98.37344 101.686847 109.3871 116.82951 123.177219 126.490619 136.96755 140.33104 143.69454 147.05803 150.37143 156.4471 164.17598 171.74016 176.47039 183.49079 186.85428 194.55454 197.86794 205.59682 213.29708 218.20635 225.9066 233.60686 238.51613 244.24839 247.56179 252.03452 256.90785 264.63673 276.34455 279.65797 284.56724 292.2675 299.5598 302.87324 309.07066 316.7709 321.88056 326.79685 334.0892 341.65336">This text box will contain outputs from the current</tspan></text>
<text xml:space="preserve" transform="matrix(.75 0 0 .75 72 389.81837)" font-size="14.666667" font-family="Calibri"><tspan y="14.2369799" x="349.87599 356.9463 362.90727 370.1996 376.397 384.09727 389.00654 392.37004 400.0989 407.79917">execution.</tspan></text>
</g>
</g>
</svg>
