<?xml version="1.0" encoding="UTF-8" standalone="no"?>
<!DOCTYPE svg PUBLIC "-//W3C//DTD SVG 1.1//EN" "http://www.w3.org/Graphics/SVG/1.1/DTD/svg11.dtd">
<svg xmlns="http://www.w3.org/2000/svg" xmlns:xlink="http://www.w3.org/1999/xlink" version="1.1" width="596pt" height="842pt" viewBox="0 0 596 842">
<g enable-background="new">
<clipPath id="cp99">
<path d="M 0 0 L 595.5 0 L 595.5 842.25 L 0 842.25 Z " fill-rule="evenodd"/>
</clipPath>
<g clip-path="url(#cp99)">
<path transform="matrix(.75,0,0,.75,0,0)" d="M 0 0 L 794 0 L 794 1123 L 0 1123 Z " fill="#ffffff"/>
</g>
<clipPath id="cp100">
<path d="M 0 0 L 595.5 0 L 595.5 842.25 L 0 842.25 Z " fill-rule="evenodd"/>
</clipPath>
<g clip-path="url(#cp100)">
<text xml:space="preserve" transform="matrix(.75 0 0 .75 72 72)" font-size="14.666667" font-family="Calibri"><tspan y="14.2369799" x="24">-</tspan></text>
<text xml:space="preserve" transform="matrix(.75 0 0 .75 72 72)" font-size="14.666667" font-family="Calibri" font-weight="bold"><tspan y="14.2369799" x="48 55.864854 63.729707 71.59456 75.194217 78.79387 84.92688 88.24028 95.03873 102.91789 106.51755 114.3824 117.6958 125.56065 130.7705 134.37015 142.09893 147.17995 156.8339 164.71306 172.57791 179.95613 185.80289 190.36865">public void printNodes()</tspan></text>
<text xml:space="preserve" transform="matrix(.75 0 0 .75 72 72)" font-size="14.666667" font-family="Calibri"><tspan y="14.2369799" x="194.93442 198.59133 201.90473 206.814 214.51425 217.87775 223.61 226.9234 238.63123 245.84479 250.75406 258.4543 266.1832 273.88346 277.19685 284.8971 290.00675 293.37025 300.93443 305.8437 311.57594 314.88935 321.90974 325.27323 328.63673 331.95014 336.8594 344.55967 351.852 355.1654 362.86567 370.59455 378.2948 385.58717 391.3194 394.6328 400.83024 408.5305 413.64015 418.5564 425.84877 433.41294 438.3222 441.6857 448.31965 451.63307 454.99656 462.6968 468.42906 475.7214 480.83106 485.58274 492.8751 500.57536 504.27519 507.5886 511.28129 516.19058 519.5039 522.86746 528.59976 531.91317 539.642 547.3423 550.7058 557.3397 560.65316 568.3534 574.08566 581.378">, this method prints all the nodes currently inserted. It is only used</tspan></text>
<text xml:space="preserve" transform="matrix(.75 0 0 .75 72 87.44141)" font-size="14.666667" font-family="Calibri"><tspan y="14.2369799" x="48 52.16478 59.89366 65.00331 68.31671 76.01697 83.30931 91.00957 98.70982 105.74463 112.64337 116.00687 123.70712 130.60587 133.91927 141.61952 149.31978 154.42943 162.12969 169.85857 175.59082 182.88317 188.61542">for debugging purposes.</tspan></text>
<text xml:space="preserve" transform="matrix(.75 0 0 .75 72 112.88281)" font-size="14.666667" font-family="Calibri"><tspan y="14.2369799" x="24">-</tspan></text>
<text xml:space="preserve" transform="matrix(.75 0 0 .75 72 112.88281)" font-size="14.666667" font-family="Calibri" font-weight="bold"><tspan y="14.2369799" x="48 55.864854 63.729707 71.59456 75.194217 78.79387 84.92688 88.24028 92.14766 97.04964 104.42786 109.315418 116.41443 121.35222 129.23139 134.44123 141.74073 148.88994 156.61872 161.69974 166.97403 173.91571 181.21521 185.12259 192.85137 197.75334 205.13156 211.92284 219.30106 224.5109 229.26988 234.02887 237.80744 241.12084 248.0482 253.12923 258.33906 261.93873 269.8036 276.75245 284.05195 291.35145 294.66487 302.0431 309.90797 316.69923 324.07746 327.98484 332.88679 340.265 345.1526 352.2516 357.1894 365.06855 370.27839 374.84416">public Iterator&#x003c;Entry&#x003c;Integer[], String&#x003e;&#x003e; edgeIterator()</tspan></text>
<text xml:space="preserve" transform="matrix(.75 0 0 .75 72 112.88281)" font-size="14.666667" font-family="Calibri"><tspan y="14.2369799" x="379.40986">,</tspan></text>
<text xml:space="preserve" transform="matrix(.75 0 0 .75 72 112.88281)" font-size="14.666667" font-family="Calibri"><tspan y="14.2369799" x="386.38017 391.28944 398.9897 402.35319 408.08546 411.39888 423.1067 430.32026 435.22953 442.92979 450.65867 458.35893 461.6723 466.58857 473.80213 478.7114 486.41166 491.5213 499.22157 504.9538 508.2672 513.1765 520.8768 528.1691 531.48257 535.17526 539.92697 547.2193 552.02816 558.9125 563.6785 571.4074 576.5171 579.8305 583.9953 591.7242">this method returns the Iterator for</tspan></text>
<text xml:space="preserve" transform="matrix(.75 0 0 .75 72 128.32617)" font-size="14.666667" font-family="Calibri"><tspan y="14.2369799" x="48 52.90927 60.609529 67.90187 71.21527 78.507617 86.20787 92.98486 100.27721 106.00946 109.32286 116.207187 120.90877 125.81804 130.92769 134.29119 141.99144 149.6917 154.4434 161.73575 165.04915 177.57996 184.60036 192.30062">the edges attribute Map.</tspan></text>
<text xml:space="preserve" transform="matrix(.75 0 0 .75 72 153.76758)" font-size="14.666667" font-family="Calibri"><tspan y="14.2369799" x="24">-</tspan></text>
<text xml:space="preserve" transform="matrix(.75 0 0 .75 72 153.76758)" font-size="14.666667" font-family="Calibri" font-weight="bold"><tspan y="14.2369799" x="48 55.864854 63.729707 71.59456 75.194217 78.79387 84.92688 88.24028 92.14766 97.04964 104.42786 109.315418 116.41443 121.35222 129.23139 134.44123 141.74073 148.88994 156.61872 161.69974 166.97403 173.91571 181.21521 185.12259 192.85137 197.75334 205.13156 211.92284 219.30106 223.43666 227.21523 230.52863 237.456 242.53702 247.74686 251.34651 259.21138 266.16023 273.45973 280.75923 284.07264 291.9375 299.81666 307.6815 315.05973 318.9671 323.86906 331.24729 336.13487 343.23387 348.17167 356.0508 361.26066 365.82643">public Iterator&#x003c;Entry&#x003c;Integer, String&#x003e;&#x003e; nodeIterator()</tspan></text>
<text xml:space="preserve" transform="matrix(.75 0 0 .75 72 153.76758)" font-size="14.666667" font-family="Calibri"><tspan y="14.2369799" x="370.39216">,</tspan></text>
<text xml:space="preserve" transform="matrix(.75 0 0 .75 72 153.76758)" font-size="14.666667" font-family="Calibri"><tspan y="14.2369799" x="380.67588 385.58515 393.2854 396.6489 402.38117 405.69459 417.4024 424.61598 429.52525 437.2255 444.95439 452.65464 455.96803 460.88429 468.09785 473.0071 480.70738 485.81703 493.51728 499.2495 502.56294 507.4722 515.1725 522.46487 525.77828 529.47097 534.22268 541.515 546.32388 553.2082 557.97427 565.7031 570.81277 574.12619 578.29098 586.01986">this method returns the Iterator for</tspan></text>
<text xml:space="preserve" transform="matrix(.75 0 0 .75 72 169.21094)" font-size="14.666667" font-family="Calibri"><tspan y="14.2369799" x="48 52.90927 60.609529 67.90187 71.21527 78.507617 86.20787 92.98486 100.27721 106.00946 109.32286 116.207187 120.90877 125.81804 130.92769 134.29119 141.99144 149.6917 154.4434 161.73575 165.04915 177.57996 184.60036 192.30062">the edges attribute Map.</tspan></text>
<text xml:space="preserve" transform="matrix(.75 0 0 .75 72 210.09375)" font-size="14.666667" font-family="Calibri" font-weight="bold"><tspan y="14.2369799" x="0 13.282227 17.189606 25.204743 29.112122 36.912569 44.061784 53.30066 57.20804 66.089099 69.4025 73.309879 82.96382 90.22038 97.15474 106.493808 114.7451 122.480319 129.73688 133.64426 143.55583">WIKIPEDIA INTEGRATION</tspan></text>
<text xml:space="preserve" transform="matrix(.75 0 0 .75 72 225.53516)" font-size="14.666667" font-family="Calibri"><tspan y="14.2369799" x="0 7.1420595 14.842316 18.20581 23.938065 27.251465 33.448884 36.812379 43.83278 49.565034 55.297288 58.610689 61.974184 67.706439 71.01984 77.095508 84.82439 92.52464 98.72206 106.014408 111.124057 118.82431 126.11665 133.81691 137.13031 147.60724 150.97074 155.88 163.58026 166.89366 170.25716 181.96498 189.66524 193.02873 200.32108 212.0289 219.32125 226.88542 231.7947 235.15819 242.85845 249.75719 253.07059 260.091 267.79127 271.10469 274.46818 282.03236 286.78407 294.07643 299.18608 303.3723 310.39274 316.59016">This class is concerned with implementing an interface</tspan></text>
<text xml:space="preserve" transform="matrix(.75 0 0 .75 72 225.53516)" font-size="14.666667" font-family="Calibri"><tspan y="14.2369799" x="327.19587 331.9619 339.6908 343.0042 349.0799 356.80879 368.5166 380.22444 387.92469 395.62495 398.98844 405.0641 411.94844 416.70014 423.9925 427.3059 437.78285 441.14634 446.0556 453.75587 457.06929 461.97856 469.6788 476.97114 480.28456 493.32347 496.68696 503.34956 506.71305 514.4133 521.7057 529.40597 532.7694 539.7898 543.1032 551.5835 559.1549 562.8476">to communicate with the Wikipedia API.</tspan></text>
<text xml:space="preserve" transform="matrix(.75 0 0 .75 72 240.97657)" font-size="14.666667" font-family="Calibri"><tspan y="14.2369799" x="0 7.1420595 14.842316 22.134659 27.050934 34.343278 37.656679 41.020174 46.752428 50.065828 57.79471 65.494968">There is one</tspan></text>
<text xml:space="preserve" transform="matrix(.75 0 0 .75 72 240.97657)" font-size="14.666667" font-family="Calibri"><tspan y="14.2369799" x="76.10071 82.98503 87.686618 92.59589 97.705539 101.06903 108.76929 116.46954 121.22125">attribute</tspan></text>
<text xml:space="preserve" transform="matrix(.75 0 0 .75 72 240.97657)" font-size="14.666667" font-family="Calibri"><tspan y="14.2369799" x="128.5136">:</tspan></text>
<text xml:space="preserve" transform="matrix(.75 0 0 .75 72 266.41798)" font-size="14.666667" font-family="Calibri"><tspan y="14.2369799" x="24">-</tspan></text>
<text xml:space="preserve" transform="matrix(.75 0 0 .75 72 266.41798)" font-size="14.666667" font-family="Calibri" font-weight="bold"><tspan y="14.2369799" x="48 55.864854 61.07469 64.67435 71.39401 78.49303 83.395008 90.773227 94.086627 99.76866 104.70645 111.805469 116.88649 120.486148 126.619159 129.93256 133.24596 140.17333 145.25435 150.46419 154.06385 161.9287 168.87754 172.19094 180.05579 187.29088 193.13764 200.51586 207.81536 217.38343 225.63472">private static  String base_URL</tspan></text>
<text xml:space="preserve" transform="matrix(.75 0 0 .75 72 266.41798)" font-size="14.666667" font-family="Calibri"><tspan y="14.2369799" x="231.83214 235.48905 238.80245 243.71172 251.41197 254.77547 260.50773 263.8211 270.70545 275.40705 280.3163 285.42597 288.78947 296.48973 304.18998 308.94169 316.234 319.54743 324.46369 331.75605 339.4563 344.37257 351.66493 357.39717 364.6895 372.2537 377.16297">, this attribute represents</tspan></text>
<text xml:space="preserve" transform="matrix(.75 0 0 .75 72 266.41798)" font-size="14.666667" font-family="Calibri"><tspan y="14.2369799" x="386.20863 391.1179 398.81816 406.11048 409.4239 417.12416 424.14454 429.87678 437.16914 440.48255 449.88603 457.8439 464.12727 467.78419 471.0976 478.79786 486.0902 493.38258 501.08283 508.37519 516.07546 519.38888 524.1549 531.8838 535.1972 546.905 553.9254 560.11538">the base URL, needed to make</tspan></text>
<text xml:space="preserve" transform="matrix(.75 0 0 .75 72 281.86134)" font-size="14.666667" font-family="Calibri"><tspan y="14.2369799" x="48 55.700258 63.400514 70.692859 75.802509 79.166 86.45834 92.1906 95.504 100.270038 107.99892 111.31232 116.22159 123.921848 131.21419 134.52759 147.5665 150.93 157.59258 160.95607 168.65633 175.94867 183.64893 187.01242 194.03282 197.34622 205.82653 213.39797 217.09066 220.7905 224.1039 231.24596 238.94622 242.30971 248.04196 251.35536 258.0895 262.99879 268.10844 271.47193 279.17219 286.07093 289.38435 295.46003 303.1889 310.75309 315.4833 322.50373 325.86723 333.56748">queries to the Wikipedia API. This String contains</tspan></text>
<text xml:space="preserve" transform="matrix(.75 0 0 .75 72 281.86134)" font-size="14.666667" font-family="Calibri"><tspan y="14.2369799" x="342.6131 349.01789 356.03828 361.14793 364.5114 372.2403 379.94056 385.6728 388.9862 398.38969 406.34757 412.50923 415.82264 419.98744 427.7163 432.82597 444.53379 447.84718 454.7315 459.4331 464.34239 469.45204 472.81553 480.51579 488.21604 492.96775 500.26008 505.9923 509.64924 512.96267 517.12747 524.8563 529.96597 533.27938 540.3497 546.4324 553.45278 565.1606 572.86087 576.22439 583.5167 586.83016 591.5962">various URL form attributes, for example to</tspan></text>
<text xml:space="preserve" transform="matrix(.75 0 0 .75 72 297.30274)" font-size="14.666667" font-family="Calibri"><tspan y="14.2369799" x="48 53.732255 61.43251 68.72485 74.92227 78.28577 82.83011 89.464069 92.777469 97.68674 105.38699 112.67934 115.99274 120.90901 128.20136 133.93361 141.63387 149.36275 157.063 162.79526 170.0876 173.401 176.7645 184.46475 187.77816 192.45127 199.18541 208.88945 218.35018 221.66358 225.82836 233.55724 238.66689 250.37471 257.25904 262.1683 265.4817 272.50209 280.20234 287.9026 291.216 296.94825 304.67713 307.9905 315.7194 323.41966">specify the response in JSON format and so on.</tspan></text>
<text xml:space="preserve" transform="matrix(.75 0 0 .75 72 322.74415)" font-size="14.666667" font-family="Calibri"><tspan y="14.2369799" x="0 7.020401 14.720657 22.420914 25.734314 30.643586 38.34384">and the</tspan></text>
<text xml:space="preserve" transform="matrix(.75 0 0 .75 72 322.74415)" font-size="14.666667" font-family="Calibri"><tspan y="14.2369799" x="48.949586 60.65741 67.87097 72.78024 80.4805 88.20938 95.90964">methods</tspan></text>
<text xml:space="preserve" transform="matrix(.75 0 0 .75 72 322.74415)" font-size="14.666667" font-family="Calibri"><tspan y="14.2369799" x="104.95529 111.97569 116.89197 124.18431">are:</tspan></text>
<text xml:space="preserve" transform="matrix(.75 0 0 .75 72 338.1875)" font-size="14.666667" font-family="Calibri"><tspan y="14.2369799" x="24">-</tspan></text>
<text xml:space="preserve" transform="matrix(.75 0 0 .75 72 338.1875)" font-size="14.666667" font-family="Calibri" font-weight="bold"><tspan y="14.2369799" x="48 55.864854 63.729707 71.59456 75.194217 78.79387 84.92688 88.24028 93.92232 98.86011 105.95912 111.040149 114.6398 120.77281 124.08621 131.01358 136.0946 141.30445 144.9041 152.76895 159.71779 163.03119 169.82247 177.10042 182.18144 188.17041 195.31946 202.0536 207.13463 211.7004 218.62776 223.70879 228.91863 232.51828 240.38314 247.33197 250.64537 258.0236 265.75239 270.8334 274.43305 279.51408 286.45576">public static String getText(String entity)</tspan></text>
<text xml:space="preserve" transform="matrix(.75 0 0 .75 72 338.1875)" font-size="14.666667" font-family="Calibri"><tspan y="14.2369799" x="291.0215 294.6784 297.99183 302.9011 310.60136 313.96485">, this</tspan></text>
<text xml:space="preserve" transform="matrix(.75 0 0 .75 72 338.1875)" font-size="14.666667" font-family="Calibri"><tspan y="14.2369799" x="323.0105 334.71833 341.9319 346.84117 354.5414 362.2703 369.97056 373.62745 376.94087 381.85713 389.14949 394.8817 402.17408 409.19447 414.08924 420.28666 427.9869 435.27925 441.01148 444.3249 449.23417 456.93443 464.22676 467.54017 474.2743 479.18357 484.2932 487.6567 495.35697 502.2557 505.5691 512.46786 515.8313 522.30776 529.6001 537.30038 540.6138 543.9773 551.67758 554.99099 558.3545 566.05477 573.755 581.45529">method, researches the String given in input</tspan></text>
<text xml:space="preserve" transform="matrix(.75 0 0 .75 72 353.6289)" font-size="14.666667" font-family="Calibri"><tspan y="14.2369799" x="48 55.72888 63.42914 66.74254 79.78145 83.14494 89.807529 93.17102 100.87128 108.16362 115.86388 119.22737 126.24777 129.90468 133.21808 140.84671 147.48067 150.79407 157.81447 165.51473 173.21498 176.57848 184.27873 191.17748 194.49088 197.85437 202.76364 206.07704 210.84308 218.57196 221.88536 226.79463 234.49489 241.78723 245.10063 252.80089 259.8213 265.55354 272.8459 276.1593 285.56278 293.52067 299.6823 302.99574 309.88008 314.58168 319.4909 324.60057 327.96406 335.6643 343.36457 348.11628 355.40864">on Wikipedia, by adding it to the base URL attribute.</tspan></text>
<text xml:space="preserve" transform="matrix(.75 0 0 .75 72 353.6289)" font-size="14.666667" font-family="Calibri"><tspan y="14.2369799" x="362.4218 369.56388 377.26414 384.55647 387.86988 397.0014 404.344 411.48606 419.0575 422.3709 427.28718 434.57954 442.2798 449.98005 457.2724 462.83995 467.7492 471.06263 474.42613 480.1584 483.4718 491.17207 498.90095 506.6012 513.89358 517.207 527.6839 531.04739 535.95669 543.6569 546.97036 551.87966 559.5799">The HTTP request is done with the</tspan></text>
<text xml:space="preserve" transform="matrix(.75 0 0 .75 72 369.0703)" font-size="14.666667" font-family="Calibri"><tspan y="14.2369799" x="48 51.363496 54.72699 62.427248 67.2361 74.2565 79.43776 86.07172 89.38512 94.05823 99.79048 107.51936 115.21962 122.919879 126.61972 129.93312 137.07518 144.77544 148.13893 153.87119 157.18459 164.88484 169.75815 177.48703 183.68445 190.97679 196.70905 202.4413 205.7547 210.67098 217.88454 222.79381 230.49407 235.60372 243.30397 249.03623 252.34963 259.37004 262.6834 267.3565 274.09065 283.79469 293.2554 296.5688 304.29768 311.99794 315.50456 322.79689 328.9943">library Jsoup. This process returns a JSON object</tspan></text>
<text xml:space="preserve" transform="matrix(.75 0 0 .75 72 369.0703)" font-size="14.666667" font-family="Calibri"><tspan y="14.2369799" x="337.21705 341.68977 346.56306 354.29194 365.99977 369.31318 374.22245 381.9227 389.21504 392.52845 405.56736 408.93086 415.59346 418.95695 426.6572 433.94953 441.64979 445.01329 452.0337 455.3471 463.8274 471.39884 475.09153 479.0132 482.3266 485.6901 490.16285 493.47627 496.83976 501.74903 505.06245 511.13813 518.867 526.43118 531.1614 538.18179 541.5453 549.24557 554.9778 558.2912 563.20046 570.9007">from the Wikipedia API; if it contains the</tspan></text>
<text xml:space="preserve" transform="matrix(.75 0 0 .75 72 384.51173)" font-size="14.666667" font-family="Calibri"><tspan y="14.2369799" x="48 54.884325 59.585908 64.49518 69.60483 72.96832 80.66858 88.368839 93.120548 100.41289 103.72629 109.23624 116.306568 122.697238 127.60651 132.41536 139.43576 145.63318 151.0509 157.18392 160.49732 165.40659 173.10684 180.39919 183.71259 195.42041 202.63397 207.54325 215.2435 222.97238 230.67264 233.98604 238.90232 246.11588 251.02515 258.7254 263.83506 271.5353 277.26759 280.581 283.9445 288.85377 292.51069 295.8241 303.55299 308.46226 316.1625 323.45484 328.64326 339.12019 342.48368 348.21595">attribute &#x201c;extract&#x201d; the method returns it, otherwise</tspan></text>
<text xml:space="preserve" transform="matrix(.75 0 0 .75 72 384.51173)" font-size="14.666667" font-family="Calibri"><tspan y="14.2369799" x="358.82164 362.18513 367.0944 370.40779 375.32405 382.5376 387.44688 395.14714 400.25679 407.95704 413.68928 417.0027 424.02308 431.72334 435.03675 442.3291 454.03694 461.67274 466.582 473.21595 476.52937 482.0969 487.00617 492.1158 495.4793 503.17958 510.0783">it returns an empty string.</tspan></text>
<text xml:space="preserve" transform="matrix(.75 0 0 .75 72 409.95314)" font-size="14.666667" font-family="Calibri" font-weight="bold"><tspan y="14.2369799" x="24">-</tspan></text>
<text xml:space="preserve" transform="matrix(.75 0 0 .75 72 409.95314)" font-size="14.666667" font-family="Calibri" font-weight="bold"><tspan y="14.2369799" x="48 55.864854 63.729707 71.59456 75.194217 78.79387 84.92688 88.24028 93.92232 98.86011 105.95912 111.040149 114.6398 120.77281 124.08621 127.68587 135.41464 140.49567 143.80907 150.60034 157.8783 162.95932 176.24155 179.8412 186.87592 190.47557 194.38295 203.62183 206.93523 211.50099 218.42836 223.50939 228.71923 232.31888 240.18373 247.13257 250.44597 257.8242 265.55299 270.634 274.23365 279.31468 286.25636">public static int getWikiID (String entity)</tspan></text>
<text xml:space="preserve" transform="matrix(.75 0 0 .75 72 409.95314)" font-size="14.666667" font-family="Calibri"><tspan y="14.2369799" x="290.8221 294.479 297.79243 302.70869 310.00105 315.73329 323.02565 330.04603 334.9408 341.1382 348.83848 356.1308">, researches</tspan></text>
<text xml:space="preserve" transform="matrix(.75 0 0 .75 72 409.95314)" font-size="14.666667" font-family="Calibri"><tspan y="14.2369799" x="365.1765 370.0858 377.78605 385.07838 388.39179 395.12593 400.0352 405.14485 408.50834 416.2086 423.10734 426.42073 433.31947 436.68296 443.15937 450.45173 458.15199 461.4654 464.8289 472.52915 475.84254 479.20603 486.90629 494.60655 502.3068 507.21607 510.52949 518.25839 525.9586 529.27206 542.3109 545.67446 552.33706 555.70059 563.4008 570.6932 578.39346 581.75698 588.77737">the String given in input on Wikipedia,</tspan></text>
<text xml:space="preserve" transform="matrix(.75 0 0 .75 72 425.39649)" font-size="14.666667" font-family="Calibri"><tspan y="14.2369799" x="48 55.62863 62.26259 65.57599 72.59639 80.296649 87.9969 91.3604 99.06065 105.9594 109.2728 112.63629 117.54556 120.85896 125.625 133.35388 136.66728 141.57656 149.27681 156.56916 159.88256 167.58281 174.60321 180.33547 187.6278 190.94121 200.34468 208.30257 214.4642 217.7776 224.66193 229.36351 234.27278 239.38243 242.74593 250.44618 258.14643 262.89814 270.1905 273.89033 277.20375 284.3458 292.04606 299.33839 302.6518 311.78334 319.12593 326.26795 333.8394 337.15278 342.06904 349.3614 357.06166 364.7619 372.05427 377.62184">by adding it to the base URL attribute. The HTTP request</tspan></text>
<text xml:space="preserve" transform="matrix(.75 0 0 .75 72 425.39649)" font-size="14.666667" font-family="Calibri"><tspan y="14.2369799" x="385.84449 389.20799 394.94026 398.25367 405.95393 413.6828 421.38307 428.6754 431.98884 442.46577 445.82926 450.73854 458.43879 461.7522 466.66148 474.36174 481.65406 484.96748 488.33097 491.69447 499.3947 504.20356 511.22395 516.4052 523.0392 526.3526 531.0257 536.75796 544.4868 552.1871 559.8873 563.58718 566.9006 574.0426 581.74288 585.1063">is done with the library Jsoup. This</tspan></text>
<text xml:space="preserve" transform="matrix(.75 0 0 .75 72 440.8379)" font-size="14.666667" font-family="Calibri"><tspan y="14.2369799" x="48 55.700258 60.573564 68.302448 74.49986 81.792209 87.52446 93.256717 96.570117 101.48639 108.69995 113.60922 121.30948 126.41913 134.11939 139.85164 143.16504 150.18544 153.49884 158.17195 164.9061 174.61014 184.07086 187.38426 195.11315 202.8134 206.32003 213.61237 219.80979 224.71906 228.03246 232.50519 237.3785 245.10738 256.8152 260.1286 265.03788 272.73814 280.03047 283.34388 296.38279 299.74629 306.40888 309.77238 317.47264 324.76496 332.4652 335.8287 342.84913 346.16255 354.64283 362.21427">process returns a JSON object from the Wikipedia API</tspan></text>
<text xml:space="preserve" transform="matrix(.75 0 0 .75 72 440.8379)" font-size="14.666667" font-family="Calibri"><tspan y="14.2369799" x="369.22035 373.69306 378.56636 386.29524 398.00306 401.31648 411.7934 419.49366 422.85716 429.05458 436.75483 440.06825 444.9775 452.67778 459.9701 463.2835 474.99134 481.87568 486.6059 492.8033 500.50358 507.7959 515.49618 518.8096 526.5098 533.5302 540.3072 547.59957 550.91299 554.60568">from which the matched page ID</tspan></text>
<text xml:space="preserve" transform="matrix(.75 0 0 .75 72 456.2793)" font-size="14.666667" font-family="Calibri"><tspan y="14.2369799" x="48 52.444108 60.144365 67.873249 73.6055 76.968997 81.878269 85.24176 91.71817 99.01051 102.32391 105.68741 113.25159 118.003299 125.29564 132.07263 139.36498 144.47463 148.91873 152.23213 155.59563 161.32788 164.64128 171.71161 178.10228 183.01155 187.8204 194.8408 201.03823 205.78993 213.08228 220.78253 224.09593 231.11634 238.81659 246.51685 249.83025 254.73952 262.43977 269.73213 277.43238 280.7458 285.66206 292.8756 297.78489 305.48515 310.5948 318.29505 325.5874">(positive integer) is extracted and then returned</tspan></text>
<text xml:space="preserve" transform="matrix(.75 0 0 .75 72 456.2793)" font-size="14.666667" font-family="Calibri"><tspan y="14.2369799" x="336.60105 344.22969 350.86366 354.17707 359.08634 366.7866 374.07893 377.39234 389.10017 396.31373 401.223 408.92326 416.65214 424.3524 428.05226 431.36567 435.05836 439.53108 442.84449 447.75376 455.454 462.74635 466.05976 472.79389 477.70317 482.8128 486.1763 493.87657 500.7753 504.08869 511.78895 519.5178 526.8102 532.5424 540.2427 543.8996 548.80886 552.12228 563.8301 570.7144 575.44467 581.6421">by the method. If the String doesn&#x2019;t match</tspan></text>
<text xml:space="preserve" transform="matrix(.75 0 0 .75 72 471.72267)" font-size="14.666667" font-family="Calibri"><tspan y="14.2369799" x="48 55.0204 62.448518 69.08247 72.395877 80.09613 87.11653 93.893527 101.18587 104.84277 108.15617 111.51967 116.42894 119.74234 124.658618 131.87218 136.78145 144.4817 149.59136 157.29161 163.02387 166.33727 173.35767 176.67107 182.74674 190.47562 198.0398 202.94907 207.82238 215.55126 218.91475 222.22815 228.63294 235.65334 239.01683 246.71709 254.00943 257.3228 265.0517 269.5244 272.83784 277.3249 284.7532">any page, it returns a control value of -1.</tspan></text>
<text xml:space="preserve" transform="matrix(.75 0 0 .75 72 512.60549)" font-size="14.666667" font-family="Calibri" font-weight="bold"><tspan y="14.2369799" x="0 9.246033 13.153412 22.492478 31.73851 35.05191 41.24933 48.398546 57.06491 64.21413 70.411548 73.724948 80.52994 89.410999 97.51906 104.44643 108.353809 118.00775">HIGH LEVEL PARSING</tspan></text>
<text xml:space="preserve" transform="matrix(.75 0 0 .75 72 528.0469)" font-size="14.666667" font-family="Calibri"><tspan y="14.2369799" x="0 7.1420595 14.842316 18.20581 23.938065 27.251465 30.61496 36.347215 39.660615 44.569887 52.27014 59.562486 62.875886 69.0733 76.36565 83.929828 88.839099 93.64795 100.66835 104.031848 107.345249 113.54266 116.90616 123.92656 129.65882 135.39107 138.70447 142.06797 149.76822 153.08162 160.8105 168.51076 173.6204 176.9338 184.63407 189.50737 197.23625 200.74288 208.03522 214.23264 219.1419 222.84175 226.15515 229.84784 234.75711 238.07051 241.434 247.16626 250.47966 256.55537 264.28425 271.9845 278.18193 285.47425 290.5839 298.28416 305.57649">This is the central class in our project. It is concerned</tspan></text>
<text xml:space="preserve" transform="matrix(.75 0 0 .75 72 528.0469)" font-size="14.666667" font-family="Calibri"><tspan y="14.2369799" x="316.59016 327.06709 330.43058 335.33985 343.0401 346.35353 353.42384 359.3848 366.67713 372.87455 380.5748 385.48408 388.84757 396.54783 403.44657 406.75996 411.66923 419.36949 426.6618 429.97523 436.0509 443.7798 455.4876 463.18788 466.55137 473.76493 478.51664 485.80897 489.12239 496.82264 500.18614 507.88639 515.1787 518.54226 521.90579 529.606 536.8984 540.5553 543.8687 548.34146 553.2147 560.9436">with executing the complete pipeline, from</tspan></text>
<text xml:space="preserve" transform="matrix(.75 0 0 .75 72 543.4883)" font-size="14.666667" font-family="Calibri"><tspan y="14.2369799" x="0 4.916275 12.208618 19.22902 26.929276 30.29277 37.993028 44.89177 48.20517 53.11444 60.814699 68.10704 71.42044 74.783939 82.48419 90.18445 97.884708 102.793979 106.107379 110.58011 113.9436 117.3071 124.59944 128.25635 131.56975 136.33579 144.06467 147.37807 154.15506 161.4474 169.14766 176.44 181.24886 188.13318 193.04245 196.40595 204.1062 211.00495 214.31835 219.22762 226.92787 234.22022 237.53362 244.43236 249.24121 256.2616 263.96186 271.6621 274.97554 279.41963 287.11988 294.84877 299.75804">reading the input file, to generating the graph (both</tspan></text>
<text xml:space="preserve" transform="matrix(.75 0 0 .75 72 543.4883)" font-size="14.666667" font-family="Calibri"><tspan y="14.2369799" x="310.7717 315.24446 320.11775 327.84663 339.55445 342.86787 347.77714 355.4774 362.7697 366.08314 373.10353 380.80378 387.82417 391.18766 397.69987 403.1599 410.45228 418.15254 421.46595 426.21766 433.28797 439.67866 444.58793 447.9013 455.6302 460.73985 464.05323 468.52595 473.39924 481.1281 492.83595 496.14936 503.16975 510.87 514.1834 521.79067 534.3215 540.4831 543.7965 548.2692 551.6327 554.9962 562.2886 566.73269 570.4325 573.7459 580.88796 588.5882">from the analyzed text or from an XML file). The</tspan></text>
<text xml:space="preserve" transform="matrix(.75 0 0 .75 72 558.93167)" font-size="14.666667" font-family="Calibri"><tspan y="14.2369799" x="0 6.884323 11.585907 16.495179 21.604828 24.968323 32.66858 40.368837 45.120546 52.412889">attributes</tspan></text>
<text xml:space="preserve" transform="matrix(.75 0 0 .75 72 558.93167)" font-size="14.666667" font-family="Calibri"><tspan y="14.2369799" x="61.45854 68.47894 73.39522 80.68756">are:</tspan></text>
<text xml:space="preserve" transform="matrix(.75 0 0 .75 72 584.37307)" font-size="14.666667" font-family="Calibri"><tspan y="14.2369799" x="24">-</tspan></text>
<text xml:space="preserve" transform="matrix(.75 0 0 .75 72 584.37307)" font-size="14.666667" font-family="Calibri" font-weight="bold"><tspan y="14.2369799" x="48 55.864854 61.07469 64.67435 71.39401 78.49303 83.395008 90.773227 94.086627 101.84413 109.7233 114.76842 122.14664 131.38552 139.26468 145.39769 153.26255 165.18506 172.56328 180.29206 185.37308 188.68648 196.55133 204.4305">private CoreDocument doc</tspan></text>
<text xml:space="preserve" transform="matrix(.75 0 0 .75 72 584.37307)" font-size="14.666667" font-family="Calibri"><tspan y="14.2369799" x="210.5635 214.22042 217.53382 222.44309 230.14334 233.50684 239.23909 242.55249 249.43682 254.1384 259.04768 264.15733 267.5208 275.22108 282.92134 287.67304 294.9654 298.2788 303.19508 310.48744 318.18769 323.10395 330.3963 336.12855 343.4209 350.98509 355.89436">, this attribute represents</tspan></text>
<text xml:space="preserve" transform="matrix(.75 0 0 .75 72 584.37307)" font-size="14.666667" font-family="Calibri"><tspan y="14.2369799" x="364.93998 369.84925 377.5495 384.84187 388.15528 395.17567 402.87593 409.8963 413.2598 419.772 425.23207 432.5244 440.22468 443.5381 451.23835 458.96723 465.16465 472.8649 484.57273 491.86506 499.42924 504.3385 507.65193 512.56118 520.2614 525.1347 532.8636 540.56387 547.4626">the analyzed document through</tspan></text>
<text xml:space="preserve" transform="matrix(.75 0 0 .75 72 599.8164)" font-size="14.666667" font-family="Calibri"><tspan y="14.2369799" x="48 54.734148 59.46437 66.48477 74.099079 78.263858 85.99274 90.901859 98.60211 101.91551 109.73027 117.45915 122.37543 129.66777 132.98117 142.4419 148.60353 156.17498 159.48838 167.18863 170.55213 178.25238 185.54473 188.90822 192.27172 199.97197 207.26432 210.96416 214.27756 221.41962 229.11988 236.41222 239.72562 247.54038 255.26926 260.18556 267.4779 276.49494 284.22383 290.42124 298.1215 309.8293 317.12168 324.68583 329.59513 332.90855 339.10597 342.46946 349.48985 355.22209">Stanford Core NLP pipeline. The CoreDocument class</tspan></text>
<text xml:space="preserve" transform="matrix(.75 0 0 .75 72 599.8164)" font-size="14.666667" font-family="Calibri"><tspan y="14.2369799" x="364.2677 371.2881 374.65159 378.01509 385.68666 396.03468 401.7669 405.08033 412.1007 418.29814 424.49555 431.7879 437.52015 443.25239 446.5658 451.33186 459.06074 462.37416 469.39454 472.75804 476.12153 479.43495 484.3442 492.04447 499.3368 502.6502 509.6706 517.37088 525.0711 532.8 537.5302 544.41458 549.32388 552.6874 560.41629 568.1165">allows access to all the annotations</tspan></text>
<text xml:space="preserve" transform="matrix(.75 0 0 .75 72 615.25588)" font-size="14.666667" font-family="Calibri"><tspan y="14.2369799" x="48 52.916276 60.20862 67.908878 72.82515 80.11749 85.84975 93.14209 100.70627 105.61554 108.979038 116.67929 123.57803 126.89143 131.8007 139.50096 146.7933 150.1067 157.80696 165.53585 171.73326 179.43352 191.14134 198.43369 205.99787 210.90714 216.63939 219.95279 227.58142 234.21538 237.52878 243.26103 250.98992 262.69776 269.9901 273.30354 281.00379 288.70405 292.06755 295.43104 300.3403 303.6537 307.01719 314.71745 318.03086 329.73869 336.95225 341.86149 349.56175 357.29063 364.99089 370.7231">representing the documents by some built in methods.</tspan></text>
<text xml:space="preserve" transform="matrix(.75 0 0 .75 72 640.6992)" font-size="14.666667" font-family="Calibri"><tspan y="14.2369799" x="24">-</tspan></text>
<text xml:space="preserve" transform="matrix(.75 0 0 .75 72 640.6992)" font-size="14.666667" font-family="Calibri" font-weight="bold"><tspan y="14.2369799" x="48 55.864854 61.07469 64.67435 71.39401 78.49303 83.395008 90.773227 94.086627 101.01399 105.95178 113.186878 120.972949 125.38826 133.26743 138.29822 146.16307 153.92058 161.79975 166.84487 174.22309 183.87703 190.07445 197.8749 201.1883 209.05315 212.6528 220.51766 227.89588 231.49553 235.09519 242.96004">private StanfordCoreNLP pipeline</tspan></text>
<text xml:space="preserve" transform="matrix(.75 0 0 .75 72 640.6992)" font-size="14.666667" font-family="Calibri"><tspan y="14.2369799" x="250.33826 253.99517 257.30857 262.21784 269.9181 273.2816 279.01387 282.32728 289.2116 293.9132 298.82249 303.93214 307.29563 314.99589 322.69615 327.44786 334.74018 338.0536 342.96986 350.2622 357.96247 362.87873 370.17109 375.90333 383.19569 390.75987 395.66914">, this attribute represents</tspan></text>
<text xml:space="preserve" transform="matrix(.75 0 0 .75 72 640.6992)" font-size="14.666667" font-family="Calibri"><tspan y="14.2369799" x="404.71473 409.624 417.32426 424.61659 427.93 435.63026 438.99375 446.694 453.98634 457.34983 460.71333 468.41358 475.70594 479.01936 486.74824 494.4485 497.7619 508.23884 515.9391 519.3026 525.5 533.20028 536.5137 541.423 549.1232">the pipeline on which the</tspan></text>
<text xml:space="preserve" transform="matrix(.75 0 0 .75 72 656.1406)" font-size="14.666667" font-family="Calibri"><tspan y="14.2369799" x="48 55.700258 63.42914 69.62656 77.32681 89.03464 96.32698 103.89116 108.80043 112.11383 122.59076 125.954257 129.31775 132.68125 135.99465 143.6949 150.98725 154.30065 161.32105 169.0213 176.72156 184.45044 189.18067 196.06499 200.8167 208.10904 215.8093">document will be annotated.</tspan></text>
<text xml:space="preserve" transform="matrix(.75 0 0 .75 72 681.58206)" font-size="14.666667" font-family="Calibri"><tspan y="14.2369799" x="24">-</tspan></text>
<text xml:space="preserve" transform="matrix(.75 0 0 .75 72 681.58206)" font-size="14.666667" font-family="Calibri" font-weight="bold"><tspan y="14.2369799" x="48 55.864854 61.07469 64.67435 71.39401 78.49303 83.395008 90.773227 94.086627 106.89653 114.13162 121.996479 129.29598 136.22335 141.30437 146.5142 150.11386 157.97872 165.1424 168.92096 172.23436 179.16173 184.24275 189.45259 193.05225 200.9171 207.86594 215.16544 218.47884 226.34369 233.72191">private Map&#x003c;String, String&#x003e; ner</tspan></text>
<text xml:space="preserve" transform="matrix(.75 0 0 .75 72 681.58206)" font-size="14.666667" font-family="Calibri"><tspan y="14.2369799" x="238.93175 242.58866 245.90206 250.81133 258.5116 261.8751 267.60737 270.92079 277.8051 282.5067 287.416 292.52565 295.88914 303.5894 311.28965 316.04136 323.33369 326.6471 330.0106">, this attribute is</tspan></text>
<text xml:space="preserve" transform="matrix(.75 0 0 .75 72 681.58206)" font-size="14.666667" font-family="Calibri"><tspan y="14.2369799" x="339.05616 346.07655 349.38996 358.52149 365.54188 371.2741 378.97438 391.5052 398.52558 406.22584 409.53926 415.61494 423.3438 435.05165 442.7519 450.48078 456.213 463.50538 471.20564 474.51905 482.14768 488.78163 492.09504 499.11543 502.42884 509.16297 514.07229 519.1819 522.5454 530.24569 537.1444 540.4578 546.6477 553.8469 560.4809 563.7943 570.8147 578.51498 586.2152 589.5286">a HashMap composed by a String key and a</tspan></text>
<text xml:space="preserve" transform="matrix(.75 0 0 .75 72 697.02346)" font-size="14.666667" font-family="Calibri"><tspan y="14.2369799" x="48 54.734148 59.643419 64.75307 68.11656 75.81682 82.71556 86.02896 92.43375 99.45415 102.81764 110.5179 117.81024 121.510089 124.82349 128.51618 133.42545 136.73885 140.10234 145.8346 149.148 156.84825 162.5805 169.87285 177.5731 180.8865 185.65254 193.38143 196.69483 202.26236 207.0284 214.75728 219.67356 226.9659 230.2793 235.18857 242.88883 250.18117 253.49457 259.89936 266.91975 270.28324 277.9835 285.27583 291.00807 294.32148 302.05036 306.5231 309.83653 314.7458 322.44606">String value. It is used to store the values of the</tspan></text>
<text xml:space="preserve" transform="matrix(.75 0 0 .75 72 697.02346)" font-size="14.666667" font-family="Calibri"><tspan y="14.2369799" x="333.0518 340.75205 347.77247 359.4803 366.77265 374.4729 377.78633 385.07868 392.64286 397.55213 400.91563 405.8249 409.1884 416.4807 422.21296 425.86988 429.1833 433.34809 441.07698 448.77723 456.47749 464.17774 467.49116 475.11979 481.75373 485.06715 489.9764 497.67668 504.969 508.2824 515.01657 519.74679 526.76718 534.3815 538.54629 546.27517 551.18429 558.8845 562.19796 571.6587 577.8203">named entities, found by the Stanford NLP</tspan></text>
<text xml:space="preserve" transform="matrix(.75 0 0 .75 72 712.4668)" font-size="14.666667" font-family="Calibri"><tspan y="14.2369799" x="48 51.363496 54.72699 62.427248 67.2361 74.2565 79.43776 85.02614 88.683048 91.996448 99.016849 104.7491 108.0625 115.0829 118.3963 126.09656 133.11696 144.82479 152.11713 156.60417 161.51345 168.1474 175.84766 183.14 186.4534 194.15366 201.17406 204.53755 209.6472 212.9606 217.40471 224.69705 228.55445 235.45319 239.15303 242.46643 250.16669 253.53018 256.89369 260.25718 263.57057 270.19715 277.08149 281.8332 289.12556 294.8578 299.34486 307.0451 314.33747 319.19648 324.9287 332.6576 340.35786 344.80195">library, as a name-type pair (e.g. bill gates-person).</tspan></text>
</g>
<clipPath id="cp101">
<path d="M 0 0 L 595.5 0 L 595.5 842.25 L 0 842.25 Z " fill-rule="evenodd"/>
</clipPath>
<g clip-path="url(#cp101)">
<path transform="matrix(.75,0,0,.75,72,240.97657)" stroke-width="1.3333334" stroke-linecap="butt" stroke-miterlimit="10" stroke-linejoin="miter" fill="none" stroke="#000000" d="M 76 15.363933 L 128 15.363933 "/>
<path transform="matrix(.75,0,0,.75,72,322.74415)" stroke-width="1.3333334" stroke-linecap="butt" stroke-miterlimit="10" stroke-linejoin="miter" fill="none" stroke="#000000" d="M 49.333333 15.673828 L 101.333339 15.673828 "/>
<path transform="matrix(.75,0,0,.75,72,558.93167)" stroke-width="1.3333334" stroke-linecap="butt" stroke-miterlimit="10" stroke-linejoin="miter" fill="none" stroke="#000000" d="M 0 15.42513 L 58.666669 15.42513 "/>
</g>
</g>
</svg>
