<?xml version="1.0" encoding="UTF-8" standalone="no"?>
<!DOCTYPE svg PUBLIC "-//W3C//DTD SVG 1.1//EN" "http://www.w3.org/Graphics/SVG/1.1/DTD/svg11.dtd">
<svg xmlns="http://www.w3.org/2000/svg" xmlns:xlink="http://www.w3.org/1999/xlink" version="1.1" width="596pt" height="842pt" viewBox="0 0 596 842">
<g enable-background="new">
<clipPath id="cp8">
<path d="M 0 0 L 595.5 0 L 595.5 842.25 L 0 842.25 Z " fill-rule="evenodd"/>
</clipPath>
<g clip-path="url(#cp8)">
<path transform="matrix(.75,0,0,.75,0,0)" d="M 0 0 L 794 0 L 794 1123 L 0 1123 Z " fill="#ffffff"/>
</g>
<clipPath id="cp9">
<path d="M 0 0 L 595.5 0 L 595.5 842.25 L 0 842.25 Z " fill-rule="evenodd"/>
</clipPath>
<g clip-path="url(#cp9)">
<text xml:space="preserve" transform="matrix(.75 0 0 .75 72 72)" font-size="26.666666" font-family="Calibri"><tspan y="25.885416" x="-9 -2.2838746 11.473663 20.402466 29.266007 43.323015 57.327959 71.3329 82.60454 91.53334 97.65074 111.70775">Introduction</tspan></text>
<text xml:space="preserve" transform="matrix(.75 0 0 .75 72 106.07617)" font-size="14.666667" font-family="Calibri"><tspan y="14.2369799" x="0 7.1420595 14.842316 22.134659 25.44806 32.3468 35.710298 42.186708 49.47905 57.179307 60.492708 67.51311 73.24536 78.977619 82.34111 89.23985 96.94011 108.647937 115.94028 123.504459 128.41373 131.72713 135.8919 143.62079 148.73044 152.04384 156.95311 164.65337 171.94571 175.25911 183.73941 188.84906 193.75833 197.12183 201.59456 204.95806 211.15547 214.51897 221.53937 224.90287 228.21627 231.90895 239.47313 244.22484 251.51718 254.88068 258.24418 261.60768 268.38465 275.677 283.37727 289.57469 296.867 299.62873">The given assignment for the Artificial Intelligence&#x2019;s</tspan></text>
<text xml:space="preserve" transform="matrix(.75 0 0 .75 72 106.07617)" font-size="14.666667" font-family="Calibri"><tspan y="14.2369799" x="308.67439 315.7447 321.8274 328.84779 340.5556 343.86903 351.56929 356.44258 364.17146 367.67808 374.9704 381.16783 386.0771 389.3905 392.754 398.48628 401.79969 412.2766 415.6401 420.54939 428.24964 431.61314 439.3134 442.62678 447.53605 455.2363 462.52864 465.84205 475.30278 482.18708 487.09635 494.7966 499.60548 506.62586 509.98936 513.30276 519.46438 526.48477 534.185 541.08377 548.784 555.8044 562.58139">exam project is within the Natural Language</tspan></text>
<text xml:space="preserve" transform="matrix(.75 0 0 .75 72 121.51807)" font-size="14.666667" font-family="Calibri"><tspan y="14.2369799" x="0 7.7002565 15.429138 27.136963 34.157365 37.52086 45.221117">domain.</tspan></text>
<text xml:space="preserve" transform="matrix(.75 0 0 .75 72 146.95996)" font-size="14.666667" font-family="Calibri"><tspan y="14.2369799" x="0 7.1420595 14.842316 22.134659 25.44806 30.178284 37.198686 42.93094 49.59352 52.90692 63.21913 70.23953 75.97179 79.28519 84.05122 91.780109 95.093509 102.79376 110.01448 116.49089 123.78323 127.14673 134.87561 142.57587 145.88927 152.90967 156.22307 161.95532 169.6842 174.15694 179.06621 189.37842 196.39882 201.3151 208.60744 211.92084 217.3881 223.88599 229.45352 234.20523 241.49758 253.2054 256.5188 262.59449 269.61488 277.31513 284.3355 292.03578 295.39927">The task was to develop a software system capable</tspan></text>
<text xml:space="preserve" transform="matrix(.75 0 0 .75 72 146.95996)" font-size="14.666667" font-family="Calibri"><tspan y="14.2369799" x="306.005 313.7339 318.2066 321.52003 328.1466 335.03096 339.94023 347.64048 354.9328 360.04246 363.40596 371.1062 378.00495 381.31837 388.33876 394.07099 397.3844 409.09223 416.79249 422.9899 430.69017 434.00355 437.36705 444.98133 449.14613 456.875 461.98466 473.69248 480.57679 485.48606 488.84956 496.57844 504.2787 507.5921 514.6125 520.3447 523.65817 531.3584 539.0873 544.8195 550.55178 553.9153 561.61557 564.979">of gathering as much information as possible</tspan></text>
<text xml:space="preserve" transform="matrix(.75 0 0 .75 72 162.40186)" font-size="14.666667" font-family="Calibri"><tspan y="14.2369799" x="0 4.4727327 9.346039 17.07492 28.782746 32.096147 39.116548 42.429948 47.181657 54.251985 60.642656 65.551929 68.865329 75.93565 82.326328 87.235599 92.04445 99.06485 105.26227 110.17154 113.48494 118.000659 124.8994 128.2629 134.7393 142.03165 149.7319 153.0453 156.4088 164.10906 167.42246 170.78595 178.4862 186.18647 193.88672 198.79599 203.2401 206.5535 213.5739 221.27416 228.97441 232.28781 243.99564 251.01604 258.7163 262.0798 269.78007 277.48033 280.8438 287.72816 292.47987">from a text extract (given in input) and manipulate</tspan></text>
<text xml:space="preserve" transform="matrix(.75 0 0 .75 72 162.40186)" font-size="14.666667" font-family="Calibri"><tspan y="14.2369799" x="303.08558 306.44908 311.35835 314.67176 318.03526 325.59944 330.36549 338.09437 341.40779 348.42817 351.74159 358.64033 363.44917 370.46955 378.1698 385.87007 389.18348 393.34828 401.07716 406.1868 417.89463 421.59449 424.9079 428.2213 441.26023 448.96049 456.2528 463.95307 467.26649 472.17576 479.876 487.16835 490.48176 497.3805 502.18934 509.20973 516.91 524.6102 527.92367 531.2871 537.01937 540.33279 547.4031 553.79379 558.703 563.51187 570.5322 576.7296 581.4813 588.7737 596.47396">it into a graph form.  When the graph is extracted,</tspan></text>
<text xml:space="preserve" transform="matrix(.75 0 0 .75 72 177.84375)" font-size="14.666667" font-family="Calibri"><tspan y="14.2369799" x="0 7.020401 14.720657 18.034058 21.397553 29.011857 33.11934 40.411684 45.327959 52.6203 60.320558 66.517978 73.81032 77.12372 88.83154 96.560428 104.26068 111.553028 114.91652 118.22992 128.70685 132.07035 135.43384 138.79734 142.11074 147.02 152.20127 158.83522 162.14862 166.91466 174.64354 177.95694 185.02727 191.41794 196.32721 201.13607 208.15647 214.35388 219.26316 222.57656 230.27681 237.49753 247.97446 251.28786 257.95045 265.6507 273.32228 283.7992 287.1627 294.45503 302.15528 308.93226">an inference model will try to extract new knowledge</tspan></text>
<text xml:space="preserve" transform="matrix(.75 0 0 .75 72 177.84375)" font-size="14.666667" font-family="Calibri"><tspan y="14.2369799" x="319.53804 324.45429 331.74665 335.11015 341.99446 346.90373 350.2672 356.74363 364.03596 367.34938 372.11543 379.8443 383.1577 388.067 395.76725 403.05958 406.373 414.10188 419.21153 422.575 429.47377 432.83726 440.5375 447.55793 450.92143 454.2348 458.9865 466.05683 472.4475 477.35679 480.67018 487.69056 495.3908 503.09107 506.40449 518.1123 525.1327 531.32266 538.615 541.9284 545.2919">relative to the original text and make it</tspan></text>
<text xml:space="preserve" transform="matrix(.75 0 0 .75 72 193.28565)" font-size="14.666667" font-family="Calibri"><tspan y="14.2369799" x="0 6.7769014 13.181686 20.202088 23.565583 26.929078 33.94948 41.649736 45.01323 52.305574 55.618974 60.38501 68.11389 71.42729 76.33656 84.03682 91.32916 94.64256 99.115299 102.47879 110.17905 117.19945 120.56294 123.87634 131.5766 137.30886 144.6012 148.23558">available to the final user.</tspan></text>
<text xml:space="preserve" transform="matrix(.75 0 0 .75 72 218.72754)" font-size="14.666667" font-family="Calibri"><tspan y="14.2369799" x="0 3.692688 11.392944 14.706345 19.615616 27.315873 30.679368 36.41162 39.72502 47.425279 52.298585 60.027467 63.53409 70.82643 77.02385 81.93312 85.59003 88.90343 93.8127 101.512958 108.8053 112.1187 123.82652 130.84693 134.21042 141.91068 145.22408 149.38886 157.11774 163.31516 171.01541 176.74767 180.06107 190.37328 197.39368 203.12593 206.43933 213.45973 216.82323 228.53105 235.8234 243.52365 246.83705 251.60309 259.27467 269.5869 276.6073 281.51643 289.21669">In this project, the main focus was aimed towards</tspan></text>
<text xml:space="preserve" transform="matrix(.75 0 0 .75 72 218.72754)" font-size="14.666667" font-family="Calibri"><tspan y="14.2369799" x="298.26234 301.62583 309.2401 313.4049 321.1338 326.24345 337.95127 344.83558 349.74485 353.10835 360.83723 368.53749 371.8509 378.9212 385.3119 390.22117 395.03004 402.0504 408.24784 413.1571 416.5206 424.24949 431.94975 435.60664 438.92005 442.28355 449.9838 453.29719 460.99745 468.01783 473.12748 478.03675 481.40025 487.59767 495.2979 498.6614 505.68183 509.53108 513.188 516.5014 526.8494 534.1418 537.4552 545.15548 552.37619 558.8526 566.1449 569.5084 577.2373 584.93759 592.2299">information extraction, in particular, we developed</tspan></text>
<text xml:space="preserve" transform="matrix(.75 0 0 .75 72 234.16944)" font-size="14.666667" font-family="Calibri"><tspan y="14.2369799" x="0 7.020401 10.333801 22.041626 29.770508 37.470766 45.17102 48.534517 55.82686 59.14026 64.04953 71.74979 78.63411 83.54338 86.85678 94.55704 101.57744 109.277698 116.97795 120.341449 127.63379 133.36605 136.67945 142.75511 150.484 155.40027 162.56369 166.67118 173.96352 178.87979 186.17214 193.87239 200.06981 207.36215 210.67555 215.11966 222.14006 229.84032 237.54058 240.85398 247.87438 255.57463 262.59504 270.2953 277.99555 285.72444 290.53327 297.55366 300.86708 305.78334 313.07569 318.80793 326.5368 329.9003 337.60057 342.50984 345.87333 353.6022 361.30247">a module that handles coreference (and anaphora resolution)</tspan></text>
<text xml:space="preserve" transform="matrix(.75 0 0 .75 72 234.16944)" font-size="14.666667" font-family="Calibri"><tspan y="14.2369799" x="369.06 376.08039 383.78065 391.4809 394.7943 401.8147 409.51496 417.24385 422.1531 429.85337 437.1457 442.25535 445.56874 450.478 458.17826 465.06257 469.97184 473.62873 476.94215 484.67103 492.37129 498.5687 505.86103 509.17445 512.53799 520.2382 527.5306 535.0947 540.004 543.36758 547.8403 551.20376 558.4961">and another that, once identified</tspan></text>
<text xml:space="preserve" transform="matrix(.75 0 0 .75 72 249.61133)" font-size="14.666667" font-family="Calibri"><tspan y="14.2369799" x="0 7.292343 14.856522 19.765793 23.129288 28.038559 31.402054 38.694398 44.42665 47.74005 51.103548 58.803804 62.117204 67.026477 74.72673 82.01907 85.33247 90.08418 97.15451 103.54518 108.45445 112.11136 115.42476 121.15701 128.44936 135.46976 140.36455 146.56197 154.26222 161.55457 167.28682 170.60022 175.50949 183.20975 190.50209 202.20992 205.52332 213.2522 220.95246 224.26586 237.30477 240.66826 247.33084 250.69434 258.3946 265.68696 273.3872 276.7507 283.77113 287.08454 291.8506">entities in the text, searches them on Wikipedia to</tspan></text>
<text xml:space="preserve" transform="matrix(.75 0 0 .75 72 249.61133)" font-size="14.666667" font-family="Calibri"><tspan y="14.2369799" x="302.89283 309.96315 316.31086 324.0111 331.0315 338.73176 346.432 349.74543 354.6547 362.35496 369.64729 372.9607 379.6233 387.32356 394.99513 405.47206 408.83555 416.12788 423.82814 430.6051 437.89747">expand the knowledge.</tspan></text>
<text xml:space="preserve" transform="matrix(.75 0 0 .75 72 275.05323)" font-size="14.666667" font-family="Calibri"><tspan y="14.2369799" x="0 8.480301 16.180558 19.493958 26.65738 30.986878 35.151659 42.88054 47.99019 52.89946 56.21286 66.52507 73.54547 79.277729 82.591129 94.29895 101.31935 109.01961 116.31195 119.62535 124.39139 132.12027 135.43367 147.1415 154.1619 160.3518 167.64415 170.95755 174.32105 179.23032 182.54372 189.83606 196.85646 202.32373 208.95769 212.27109 217.03713 224.766 228.0794 231.4429 239.00708 243.75879 251.05113 257.9499 262.75874 269.64308 274.39479 281.6871 285.0005 295.47743 298.8409 303.75019">An effort was made to make it easy to integrate with</tspan></text>
<text xml:space="preserve" transform="matrix(.75 0 0 .75 72 275.05323)" font-size="14.666667" font-family="Calibri"><tspan y="14.2369799" x="314.76387 322.49275 327.402 335.10227 342.3946 347.50425 350.81764 357.48023 365.18049 372.85206 383.32899 386.69248 393.9848 401.68507 408.46205 415.7544 419.0678 424.80006 432.52894 440.2292 445.12397 451.32139 458.6137 464.34596 467.65937 472.10346 479.3958 483.2532 490.15196 493.8518 497.16523 504.97999 512.70889 520.4091 528.1094 535.40176 542.74398 547.6532 551.0167 558.7456 566.44589 570.88998 574.20339 577.5669">other knowledge sources (e.g. ConneKtion) in</tspan></text>
<text xml:space="preserve" transform="matrix(.75 0 0 .75 72 290.49513)" font-size="14.666667" font-family="Calibri"><tspan y="14.2369799" x="0 7.728882 12.6380009 20.338257 27.6306 32.74025 36.05365 40.819688 48.54857 51.86197 59.154314 66.17471 71.90697 75.27046 78.63396 85.267917 88.581317 96.28157 102.013828 109.30617 112.61957 119.689899 126.0376 133.73786 141.46674 146.57639 151.3281 158.62044 166.3207 169.6341 177.33435 184.21868 188.9489 195.9693 199.6262 202.9396 206.3031 214.00336 217.31676 224.92398 237.45479 243.61643 246.92983 251.0946 258.8235 263.93315 275.64097 279.29786 282.61128 289.63166 297.3319">order to easily use exported data, in XML form, and</tspan></text>
<text xml:space="preserve" transform="matrix(.75 0 0 .75 72 290.49513)" font-size="14.666667" font-family="Calibri"><tspan y="14.2369799" x="308.34559 311.70909 323.4169 331.11717 338.84605 343.9557 348.86497 352.17835 355.54185 360.4511 363.76454 367.12803 374.6922 379.45826 387.18714 390.50056 396.33924 403.6316 411.01679 418.71705 426.44593">import it into TeKno.</tspan></text>
<text xml:space="preserve" transform="matrix(.75 0 0 .75 72 315.937)" font-size="14.666667" font-family="Calibri"><tspan y="14.2369799" x="0 7.1420595 14.842316 22.134659 25.44806 30.915329 37.413209 42.980745 47.732454 55.024797 66.73262 70.04602 80.35823 87.37863 93.110889 96.424289 104.12454 111.34526 117.82167 125.11401 128.47751 136.20639 143.90665 151.19899 158.89925 162.21265 165.57614 173.2764 176.5898 181.26291 188.03981 194.4446 201.465 205.1219 208.4353 216.13556 221.86782 225.23131 232.93157 239.8303 243.1437 248.05298 255.75324 263.0456 266.359 273.09315 277.82337 284.84379 292.45808 296.62287 304.35176 309.26087 316.96113 326.42185 332.5835">The system was developed in Java, using the StanfordNLP</tspan></text>
<text xml:space="preserve" transform="matrix(.75 0 0 .75 72 315.937)" font-size="14.666667" font-family="Calibri"><tspan y="14.2369799" x="343.4683 346.8318 350.19529 357.89555 362.7044 369.7248 374.90608 381.54005 384.85346 391.87385 399.5741 407.27436 410.58778 415.49705 423.1973 430.48963 433.80305 443.26377 450.5561 458.28498 465.7133 470.3864 473.69984 482.71687 490.68907 503.21986 509.95399 513.2674 517.4322 525.1611 530.27078 533.58419 538.4934 546.19369 553.486 556.79946 563.6982 568.507 575.5274 583.22769">library and the Neo4J DBMS for the graph</tspan></text>
<text xml:space="preserve" transform="matrix(.75 0 0 .75 72 331.3789)" font-size="14.666667" font-family="Calibri"><tspan y="14.2369799" x="0 4.916275 12.208618 19.908875 24.82515 32.117494 37.849748 45.14209 52.70627 57.436494 64.320819 69.23009 72.59358 80.322467 88.02272 91.67963 94.99303 105.469959 113.17021 116.53371 119.8972 127.189548 130.50295 135.41222 143.11248 150.40482 153.71822 158.63449 165.92684 172.94724 178.67949 186.40837 194.10863 197.47212 205.17238 212.07112 215.38452 222.40493 230.10518 237.80544 241.11884 244.48233 252.09664 256.2614 263.9903 269.09996 280.80778 287.69209 292.60139 295.96488 303.69377">representation, while the reasoning and information</tspan></text>
<text xml:space="preserve" transform="matrix(.75 0 0 .75 72 331.3789)" font-size="14.666667" font-family="Calibri"><tspan y="14.2369799" x="314.7074 321.7777 328.1684 333.07768 337.88655 344.90693 351.10435 356.0136 359.3771 367.106 374.80625 378.11964 388.43183 395.4522 401.18446 404.49787 412.19813 419.41883 425.89524 433.18757 436.55107 444.27995 451.9802 459.27253 466.97279 470.2862 477.98646 483.7187 487.08219 494.78245 501.68119 504.99458 512.56607 517.43936 525.1682 528.53176 536.2606 543.15939 546.4728 550.9169 557.5293 568.0062 571.36978 578.94119 582.3047 586.7488">extraction was developed using Prolog (SwiPl).</tspan></text>
</g>
</g>
</svg>
