<?xml version="1.0" encoding="UTF-8" standalone="no"?>
<!DOCTYPE svg PUBLIC "-//W3C//DTD SVG 1.1//EN" "http://www.w3.org/Graphics/SVG/1.1/DTD/svg11.dtd">
<svg xmlns="http://www.w3.org/2000/svg" xmlns:xlink="http://www.w3.org/1999/xlink" version="1.1" width="596pt" height="842pt" viewBox="0 0 596 842">
<g enable-background="new">
<clipPath id="cp102">
<path d="M 0 0 L 595.5 0 L 595.5 842.25 L 0 842.25 Z " fill-rule="evenodd"/>
</clipPath>
<g clip-path="url(#cp102)">
<path transform="matrix(.75,0,0,.75,0,0)" d="M 0 0 L 794 0 L 794 1123 L 0 1123 Z " fill="#ffffff"/>
</g>
<clipPath id="cp103">
<path d="M 0 0 L 595.5 0 L 595.5 842.25 L 0 842.25 Z " fill-rule="evenodd"/>
</clipPath>
<g clip-path="url(#cp103)">
<text xml:space="preserve" transform="matrix(.75 0 0 .75 72 72)" font-size="14.666667" font-family="Calibri"><tspan y="14.2369799" x="24">-</tspan></text>
<text xml:space="preserve" transform="matrix(.75 0 0 .75 72 72)" font-size="14.666667" font-family="Calibri" font-weight="bold"><tspan y="14.2369799" x="48 55.864854 61.07469 64.67435 71.39401 78.49303 83.395008 90.773227 94.086627 102.12306 109.50128 113.10094 120.19995 125.280979 128.88063 136.7598 144.62465 150.4714 153.7848 158.82993 166.20815">private Relations rel</tspan></text>
<text xml:space="preserve" transform="matrix(.75 0 0 .75 72 72)" font-size="14.666667" font-family="Calibri"><tspan y="14.2369799" x="169.8078 173.4647 176.7781 181.68738 189.38764 192.75113 198.48339 201.79679 208.6811 213.38269 218.29196 223.40161 226.7651 234.46537 242.16562 246.91733 254.20967 257.52308 260.88658 266.61885 269.93226 277.6325 283.36476 290.6571 298.35737 301.67079 306.43684 314.1657 317.47914 323.04667 327.81269 335.54158 340.45783 347.75019 351.0636 355.97288 363.67314 370.96546 374.27888 379.19514 386.4875 389.85099 396.7353 401.64457 405.00807 412.73695 420.4372 426.16944 433.8697 437.2332 444.93345 448.24684 453.1561 458.26576 461.62925 469.3295 472.693 479.98536">, this attribute is used to store the relationship triples</tspan></text>
<text xml:space="preserve" transform="matrix(.75 0 0 .75 72 87.44141)" font-size="14.666667" font-family="Calibri"><tspan y="14.2369799" x="48 53.732255 61.43251 69.13277 72.63939 79.93173 86.12915 90.587238 95.07428 99.990558 107.2829 110.64639 117.530719 122.43999 125.80348 133.53237 141.23262 145.71967 153.44855 161.1488 164.65543 171.94777 178.14519 183.05446 186.36786 190.53264 198.26152 205.96178 213.66204 221.36229 224.67569 228.03919 235.73944 239.05284 243.96212 251.66237 258.9547 262.26814 267.01985 274.09016 280.48085 285.3901 288.7035 296.33213 302.96607 306.27949 311.18876 318.889 326.18135 329.49476 336.22889 340.9591 347.97953 355.5938 359.7586 367.4875 372.3966">subject-relation-object found in the text by the Stanford</tspan></text>
<text xml:space="preserve" transform="matrix(.75 0 0 .75 72 87.44141)" font-size="14.666667" font-family="Calibri"><tspan y="14.2369799" x="383.41029 391.22505 398.95393 403.87019 411.16255 414.47596 423.93669 430.09834 437.66978 440.98316 444.34666 447.71015 455.4104 460.21925 467.23963 472.4209 478.08805 481.7879 485.10133 491.63496 499.36384 504.47349 507.78688 512.7031 519.8666 523.97409 531.2664 536.1827 543.47506 551.1753 557.3727 564.66506 567.97848 573.7107 581.00308">Core NLP library. For reference see</tspan></text>
<text xml:space="preserve" transform="matrix(.75 0 0 .75 72 102.88281)" font-size="14.666667" font-family="Calibri"><tspan y="14.2369799" x="48 52.90927 60.609529 67.90187 71.21527 78.91533 86.20767 89.57117 96.45549 101.36476 104.72826 112.45714 120.157398 125.88965 129.20305 135.40047 138.76396 145.78437 151.51662 157.24887 160.56227 168.26253 175.99141 182.18883 189.88909 201.59691 208.88925 216.45343 221.18366 228.06798 232.97725 236.34075 244.06963 251.76988">the Relations class documentation.</tspan></text>
<text xml:space="preserve" transform="matrix(.75 0 0 .75 72 128.32617)" font-size="14.666667" font-family="Calibri"><tspan y="14.2369799" x="0 7.020401 14.720657 22.420914 25.734314 30.643586 38.34384">and the</tspan></text>
<text xml:space="preserve" transform="matrix(.75 0 0 .75 72 128.32617)" font-size="14.666667" font-family="Calibri"><tspan y="14.2369799" x="48.949586 60.65741 67.87097 72.78024 80.4805 88.20938 95.90964">methods</tspan></text>
<text xml:space="preserve" transform="matrix(.75 0 0 .75 72 128.32617)" font-size="14.666667" font-family="Calibri"><tspan y="14.2369799" x="104.95529 111.97569 116.89197 124.18431">are:</tspan></text>
<text xml:space="preserve" transform="matrix(.75 0 0 .75 72 153.76758)" font-size="14.666667" font-family="Calibri"><tspan y="14.2369799" x="24">-</tspan></text>
<text xml:space="preserve" transform="matrix(.75 0 0 .75 72 153.76758)" font-size="14.666667" font-family="Calibri" font-weight="bold"><tspan y="14.2369799" x="48 55.864854 63.729707 71.59456 75.194217 78.79387 84.92688 88.24028 97.48631 101.08597 108.034809 115.89966 122.09708 129.40367 136.20212 143.58034 147.18 154.69397 161.92906 166.95986 172.80661 176.40627 184.27112 191.21996 195.78572">public HighLevelParsing()</tspan></text>
<text xml:space="preserve" transform="matrix(.75 0 0 .75 72 153.76758)" font-size="14.666667" font-family="Calibri"><tspan y="14.2369799" x="200.35149 204.00839 207.3218 212.23107 219.93132 223.29482 229.02707 232.34047 235.70397 241.43622 244.74962 249.65889 257.35914 264.6515 267.9649 274.0406 281.76948 289.46974 295.03727 299.94654 305.05619 312.75645 318.95387 323.7199 331.4488">, this is the constructor</tspan></text>
<text xml:space="preserve" transform="matrix(.75 0 0 .75 72 153.76758)" font-size="14.666667" font-family="Calibri"><tspan y="14.2369799" x="339.8718 344.03657 351.76545 356.8751 360.18849 365.09776 372.798 376.1615 381.89375 385.20716 391.40458 394.76808 401.78846 407.5207 413.25294 416.90986 420.22328 423.58677 428.49604 431.80946 435.17295 442.8732 446.2367 451.14598 454.50947 461.52986 464.89335 468.25685 473.71693 481.00929 486.74153 490.05494 494.9642 502.66447 509.9568 513.2702 520.97048 524.334 532.03427 539.3266 542.69009 546.0536 553.75387">for this class, it initializes the pipeline</tspan></text>
<text xml:space="preserve" transform="matrix(.75 0 0 .75 72 169.21094)" font-size="14.666667" font-family="Calibri"><tspan y="14.2369799" x="48 54.884325 59.585908 64.49518 69.60483 72.96832 80.66858 88.368839 93.120548 100.41289 103.72629 114.20322 117.56671 122.47598 130.17624 133.48964 138.39891 146.09917 153.39151 156.70491 160.86969 168.59857 171.96207 175.32556 182.99715 193.47408 196.83757 204.53783 211.43657 214.74997 221.77037 226.67949 233.57823 241.27849 252.98632 260.27867 267.84284 272.7521 278.48439 282.40608 285.71949 290.48554 298.21443 304.40437 311.69673 319.39698 322.76048 328.22053 335.51289">attribute with the following arguments: tokenize,</tspan></text>
<text xml:space="preserve" transform="matrix(.75 0 0 .75 72 169.21094)" font-size="14.666667" font-family="Calibri"><tspan y="14.2369799" x="342.4831 348.21534 353.94758 361.64784 365.01133 368.37483 373.2841 376.94099 380.2544 387.95466 395.68354 401.41578 405.0727 408.3861 411.7496 419.04194 430.74977 442.45759 449.47798 453.1349 456.4483 464.14857 471.44093 475.29017 478.94709 482.2605 489.96076 496.98115 501.84016 507.5724 514.86477 518.52169 521.8351 527.91079 535.63967 540.5559 547.71939 551.28976 554.94668 558.2601 564.92269 572.6229 580.3232">ssplit, pos, lemma, ner, parse, coref, kbp,</tspan></text>
<text xml:space="preserve" transform="matrix(.75 0 0 .75 72 184.65039)" font-size="14.666667" font-family="Calibri"><tspan y="14.2369799" x="48 55.292345 62.85652 67.76579 71.12929 76.03856 82.672519 94.38034 101.67268 109.23686 114.14613 117.50963 125.23851 132.93877 138.67102">entitymentions.</tspan></text>
<text xml:space="preserve" transform="matrix(.75 0 0 .75 72 210.09375)" font-size="14.666667" font-family="Calibri"><tspan y="14.2369799" x="24">-</tspan></text>
<text xml:space="preserve" transform="matrix(.75 0 0 .75 72 210.09375)" font-size="14.666667" font-family="Calibri" font-weight="bold"><tspan y="14.2369799" x="48 55.864854 63.729707 71.59456 75.194217 78.79387 84.92688 88.24028 97.48631 101.08597 108.034809 115.89966 122.09708 129.40367 136.20212 143.58034 147.18 154.69397 161.92906 166.95986 172.80661 176.40627 184.27112 191.21996 195.78572 202.71309 207.79412 213.00395 216.6036 224.46846 231.4173 234.7307 241.96579 249.83065 257.6955 265.57466 270.51246 277.61146 282.54927 290.4284 295.4592 301.30598">public HighLevelParsing(String annotators)</tspan></text>
<text xml:space="preserve" transform="matrix(.75 0 0 .75 72 210.09375)" font-size="14.666667" font-family="Calibri"><tspan y="14.2369799" x="305.87174 309.52864 312.84205 317.7513 325.45158 328.81507 334.5473 337.86073 341.2242">, this is</tspan></text>
<text xml:space="preserve" transform="matrix(.75 0 0 .75 72 210.09375)" font-size="14.666667" font-family="Calibri"><tspan y="14.2369799" x="350.26988 357.29029 364.99055 372.71943 377.6287 385.32896 392.62129 397.73094 401.0443 407.12 414.84889 422.54914 428.11668 433.02595 438.1356 445.83586 452.03327 456.79933 464.5282 469.63786 472.95124 477.11604 484.8449 489.95457 493.26795 498.17723 505.87748 509.24098 514.9732 518.2866 524.484 527.84756 534.8679 540.60018 546.3324 549.9893 553.30276 560.3231 568.0234">another constructor for this class, and</tspan></text>
<text xml:space="preserve" transform="matrix(.75 0 0 .75 72 225.53516)" font-size="14.666667" font-family="Calibri"><tspan y="14.2369799" x="48 51.363496 59.06375 62.427248 67.33652 70.70001 77.72041 81.08391 84.4474 89.90747 97.199817 102.93207 106.24547 111.15474 118.854999 126.14734 129.46074 137.161 140.52449 148.22475 155.51709 158.88059 162.24408 169.94434 177.23668 180.55008 187.4344 192.13599 197.04526 202.1549 205.5184 213.21866 220.91892 225.67063 232.96297 236.27637 246.7533 250.11679 255.02606 262.72633 266.03974 270.949 278.64927 285.9416 289.255 296.2754 301.1845 308.08326 315.7835 327.49134 334.7837 342.34785">initializes the pipeline attribute with the argument</tspan></text>
<text xml:space="preserve" transform="matrix(.75 0 0 .75 72 225.53516)" font-size="14.666667" font-family="Calibri"><tspan y="14.2369799" x="350.57054 358.27079 365.2912 371.02345 376.75569 384.04804 391.7483 395.0617 398.4252 406.12547 409.43885 412.80235 420.5026 428.20286 435.9031 440.81239">passed in input.</tspan></text>
<text xml:space="preserve" transform="matrix(.75 0 0 .75 72 250.97657)" font-size="14.666667" font-family="Calibri"><tspan y="14.2369799" x="24">-</tspan></text>
<text xml:space="preserve" transform="matrix(.75 0 0 .75 72 250.97657)" font-size="14.666667" font-family="Calibri" font-weight="bold"><tspan y="14.2369799" x="48 55.864854 61.07469 64.67435 71.39401 78.49303 83.395008 90.773227 94.086627 101.01399 106.09502 111.304859 114.90451 122.76936 129.7182 133.0316 137.44692 145.32608 150.53592 162.45844 169.55745 174.63848 181.56584 186.64687 191.8567 195.45636 203.32122 210.27005 214.83582 221.76319 226.84421 232.05405 235.6537 243.51856 250.46739 253.78079 257.38044 265.2453 272.17268 277.2537 282.46354">private String formatString(String inStr)</tspan></text>
<text xml:space="preserve" transform="matrix(.75 0 0 .75 72 250.97657)" font-size="14.666667" font-family="Calibri"><tspan y="14.2369799" x="287.0293 290.68623 293.99964 298.9089 306.60917 309.97267 315.7049 319.0183 330.72615 337.9397 342.84898 350.54924 358.2781">, this method</tspan></text>
<text xml:space="preserve" transform="matrix(.75 0 0 .75 72 250.97657)" font-size="14.666667" font-family="Calibri"><tspan y="14.2369799" x="369.29176 376.31214 379.67564 383.03913 390.7107 401.05873 406.79096 410.10438 414.87043 422.5993 425.91273 433.61299 441.34187 444.65528 450.3875 458.1164 469.82423 477.11659 480.43 488.13026 493.0465 500.33888 504.697 508.86177 516.59066 521.7003 533.40817 540.2925 544.9941 549.9033 553.26687 560.9671 567.86587 571.17929 578.90817">allows to do some pre-formatting of</tspan></text>
<text xml:space="preserve" transform="matrix(.75 0 0 .75 72 266.41798)" font-size="14.666667" font-family="Calibri"><tspan y="14.2369799" x="48 52.90927 60.609529 67.90187 71.21527 75.96698 83.03731 89.42798 94.33725 97.65065 102.41669 110.14557 113.45897 120.47937 128.17963 135.20003 138.56352 145.07573 150.5358 157.82814 161.52799 164.84139 171.375 179.10388 184.21353 187.52693 194.59726 200.67998 207.70038 219.4082 227.10846 230.47196 237.7643 241.0777 244.4412 249.35047 252.66387 257.58015 264.8725 276.58033 284.24476 290.72117 298.0135 303.74574 307.05915 312.79139 320.49165 327.784 333.9814 337.3449 344.3653">the text to analyze. For example it removes special</tspan></text>
<text xml:space="preserve" transform="matrix(.75 0 0 .75 72 266.41798)" font-size="14.666667" font-family="Calibri"><tspan y="14.2369799" x="351.04219 357.2396 364.93986 371.96028 376.7691 383.7895 389.9869 394.73863 402.03096 406.88996 412.6222 415.9356 419.2991 422.6626 428.8525 436.14485 439.45826 445.11897 452.8192 456.13264 463.8615 468.97117 472.28456 477.94526 481.57966">characters like \n or \r.</tspan></text>
<text xml:space="preserve" transform="matrix(.75 0 0 .75 72 291.86134)" font-size="14.666667" font-family="Calibri"><tspan y="14.2369799" x="24">-</tspan></text>
<text xml:space="preserve" transform="matrix(.75 0 0 .75 72 291.86134)" font-size="14.666667" font-family="Calibri" font-weight="bold"><tspan y="14.2369799" x="48 55.864854 63.729707 71.59456 75.194217 78.79387 84.92688 88.24028 95.03873 102.91789 106.51755 114.3824 117.6958 122.74092 130.11914 137.35424 145.21909 151.94608 155.54573 159.14539 166.5236 171.08937 178.01674 183.09777 188.3076 191.90726 199.77211 206.72095 210.03435 215.8811 223.76027 231.62512 236.62728 242.76029 250.1385 257.438 262.07533 265.675 269.27467 276.6529">public void readFile(String source_file)</tspan></text>
<text xml:space="preserve" transform="matrix(.75 0 0 .75 72 291.86134)" font-size="14.666667" font-family="Calibri"><tspan y="14.2369799" x="281.21864 284.87556 288.18898 293.09825 300.7985 304.162 309.89424 313.20765 324.91548 332.12904 337.0383 344.73857 352.46745 360.1677">, this method,</tspan></text>
<text xml:space="preserve" transform="matrix(.75 0 0 .75 72 291.86134)" font-size="14.666667" font-family="Calibri"><tspan y="14.2369799" x="367.13798 374.0367 377.4002 383.87663 391.16896 398.8692 402.18263 409.203 412.51643 416.98915 420.35264 423.71614 431.00849 434.3219 437.6854 445.41429 451.48994 458.37428 463.28355 466.64704 474.37593 482.07618 485.7331 489.0465 496.0669 503.76716 510.78755 514.151 520.6632 526.1233 533.41567 539.1479 542.4613 547.3706 555.07089 562.3632 565.67666 570.42837 577.49868 583.88937">given a file location, analyzes the text</tspan></text>
<text xml:space="preserve" transform="matrix(.75 0 0 .75 72 307.30274)" font-size="14.666667" font-family="Calibri"><tspan y="14.2369799" x="48 51.363496 59.06375 62.37715 67.28642 74.98668 82.27902 85.59242 91.32468 99.02493 106.317279 112.514698 115.87819 120.35092 123.71442 131.00676 138.70702 142.02042 146.49315 149.85665 153.22014 160.51248 164.21233 167.52573 171.21842 175.69115 179.00455 183.91382 191.61408 198.90642 202.21982 208.95397 213.86324 218.97289 222.33638 230.03664 236.93538 240.24878 245.98104 253.70992 261.41017 266.30494 272.50236 279.79469 287.09419 291.5669 294.9304 298.29389 305.58625 308.89967 312.26316">in the specified file. If the String source_file is</tspan></text>
<text xml:space="preserve" transform="matrix(.75 0 0 .75 72 307.30274)" font-size="14.666667" font-family="Calibri"><tspan y="14.2369799" x="321.30885 327.38453 335.1134 340.22306 345.13935 352.4317 358.62913 363.5384 367.1953 370.50874 375.418 383.11827 390.41059 393.724 400.60835 405.30995 410.2192 415.32887 418.69236 426.3926 434.09288 438.84458 446.1369 449.45033 457.15058 464.87947 471.07688 474.39027 477.75376 483.48603 486.79945 490.16294 497.8632 501.22669 506.13597 509.49946 516.51986 519.8833 523.2468 528.7069 535.99929 543.6995 547.01296 554.6416">correct, the attribute doc is initialized by</tspan></text>
<text xml:space="preserve" transform="matrix(.75 0 0 .75 72 322.74415)" font-size="14.666667" font-family="Calibri"><tspan y="14.2369799" x="48 54.19742 59.113695 66.40604 73.29036 78.19963 81.563129 89.26338 96.162128 99.475528 106.495929 109.809329 117.50958 124.7303 135.20723 138.52063 146.33539 154.06427 158.98055 166.27289 175.28992 183.0188 189.21622 196.91648 208.6243 215.91664 223.48082 228.39009 231.70349 242.18042 245.54392 250.45319 258.15345 261.46687 266.37614 274.0764 281.3687 284.68214 289.43385 296.50416 302.89485 307.80409 311.1175 318.1878 324.5785 329.48777 334.29664 341.31703 347.51445 352.2661 359.55848">creating a new CoreDocument with the text extracted</tspan></text>
<text xml:space="preserve" transform="matrix(.75 0 0 .75 72 322.74415)" font-size="14.666667" font-family="Calibri"><tspan y="14.2369799" x="370.57215 375.04487 379.91816 387.64704 399.35487 402.66828 407.57756 415.2778 422.57014 425.88356 430.35627 433.71977 437.08326 444.3756 448.03254 451.34596 458.2804 462.7531 467.50483 474.79719 479.90684 483.2202 488.95246 496.68135 508.38917 515.6815 518.99496 523.1597 530.8886 535.9983 547.7061 554.59048 559.29208 564.2013 567.5648 575.2651">from the file, after some formatting</tspan></text>
<text xml:space="preserve" transform="matrix(.75 0 0 .75 72 338.1875)" font-size="14.666667" font-family="Calibri"><tspan y="14.2369799" x="48 58.47693 61.840425 66.749698 74.44995 77.76335 82.67262 90.37288 97.66522 100.97862 112.68645 119.90001 124.80928 132.50954 140.23842 147.93868 151.25208 155.41686 163.14574 168.25539 179.96321 186.84754 191.7568 198.49095 203.40023 208.50988 211.87337 219.57363 226.47237">with the method formatString.</tspan></text>
<text xml:space="preserve" transform="matrix(.75 0 0 .75 72 363.6289)" font-size="14.666667" font-family="Calibri"><tspan y="14.2369799" x="24">-</tspan></text>
<text xml:space="preserve" transform="matrix(.75 0 0 .75 72 363.6289)" font-size="14.666667" font-family="Calibri" font-weight="bold"><tspan y="14.2369799" x="48 55.864854 63.729707 71.59456 75.194217 78.79387 84.92688 88.24028 95.03873 102.91789 106.51755 114.3824 117.6958 123.54256 130.82051 135.90154 143.70198 147.30164 155.16649 162.54471 166.14437 169.74402 177.60887 184.98709 189.55286 197.3533 202.3841 210.26326 218.12812 225.50634 230.71617 235.7972 239.39685 246.77507 252.62183 255.93523 263.80009 268.83088 276.71003 284.50325 290.34999">public void setPipeline(Properties props)</tspan></text>
<text xml:space="preserve" transform="matrix(.75 0 0 .75 72 363.6289)" font-size="14.666667" font-family="Calibri"><tspan y="14.2369799" x="294.91578 298.5727 301.8861 306.79539 314.49565 317.85914 323.59138 326.9048 338.6126 345.82618 350.73545 358.4357 366.16459">, this method</tspan></text>
<text xml:space="preserve" transform="matrix(.75 0 0 .75 72 363.6289)" font-size="14.666667" font-family="Calibri"><tspan y="14.2369799" x="377.17823 380.54173 388.24198 391.60548 396.51475 399.87825 406.89863 410.26213 413.6256 419.0857 426.37806 432.1103 435.4237 440.33299 448.03324 455.32557 458.63899 466.33924 469.70274 477.40299 484.6953 488.0588 491.4223 499.12257 506.41493 509.72834 516.6127 521.3143 526.2235 531.3331 534.69668 542.3969 550.09719 554.8489 562.14126 565.45468 575.9316 579.29507 584.20437">initializes the pipeline attribute with</tspan></text>
<text xml:space="preserve" transform="matrix(.75 0 0 .75 72 379.0703)" font-size="14.666667" font-family="Calibri"><tspan y="14.2369799" x="48 52.90927 60.609529 67.90187 71.21527 74.578769 82.27902 89.97928 97.679538 102.588809 105.90221 112.80095 116.164447 122.640857 129.9332 137.63346 140.94686 148.64711 153.52042 161.2493 168.94956 176.2419 181.35155 186.26082 189.62432 196.91666 202.64891">the input given properties.</tspan></text>
<text xml:space="preserve" transform="matrix(.75 0 0 .75 72 404.51173)" font-size="14.666667" font-family="Calibri"><tspan y="14.2369799" x="24">-</tspan></text>
<text xml:space="preserve" transform="matrix(.75 0 0 .75 72 404.51173)" font-size="14.666667" font-family="Calibri" font-weight="bold"><tspan y="14.2369799" x="48 55.864854 63.729707 71.59456 75.194217 78.79387 84.92688 88.24028 95.03873 102.91789 106.51755 114.3824 117.6958 124.93089 132.79575 140.6606 148.53977 153.47756 160.57657 165.47855 172.85677 182.09564 189.97481 196.10782 203.97267 215.89519 223.2734 231.00218 236.0832 240.64897">public void annotateDocument()</tspan></text>
<text xml:space="preserve" transform="matrix(.75 0 0 .75 72 404.51173)" font-size="14.666667" font-family="Calibri"><tspan y="14.2369799" x="245.21474 248.87165 252.18505 257.0943 264.79457 268.15806 273.89033 277.20375 288.91157 296.12513 301.0344 308.73466 316.46354 324.1638 327.47718 330.84068 336.57295 339.88636 346.90675 350.22016 360.69709 365.50593 372.5263 380.22657 387.92683 395.21919">, this method is a wrapper</tspan></text>
<text xml:space="preserve" transform="matrix(.75 0 0 .75 72 404.51173)" font-size="14.666667" font-family="Calibri"><tspan y="14.2369799" x="403.6422 407.807 415.5359 420.64555 423.95893 428.8682 436.56846 443.86079 447.1742 454.19459 461.89485 469.5951 477.32398 482.0542 488.93855 493.69026 500.9826 504.29603 516.00387 523.2174 528.1267 535.82699 543.55587 551.2561 554.5695 562.2984 566.7711 570.08456 574.9938 582.69406">for the annotate method of the</tspan></text>
<text xml:space="preserve" transform="matrix(.75 0 0 .75 72 419.95509)" font-size="14.666667" font-family="Calibri"><tspan y="14.2369799" x="48 55.700258 59.06375 66.76401 74.05635 77.419849 80.78334 88.4836 95.77594 99.08934 105.97366 110.67525 115.58452 120.69417 124.05766 131.75792 139.45818 144.20989 151.50223 155.20207 158.51548 162.20816 167.11743 170.43083 177.20783 184.42139 189.33066 195.06291 198.37631 205.44664 211.40761 218.69995 224.89737 232.59763 237.34934 244.64168 252.34194 255.65534 263.38423 271.08448 274.3979 279.30717 287.00743 294.29975 297.61317 303.81059 311.5108 316.62046 321.53675 328.8291 336.39326">pipeline attribute. It gets executed on the current</tspan></text>
<text xml:space="preserve" transform="matrix(.75 0 0 .75 72 419.95509)" font-size="14.666667" font-family="Calibri"><tspan y="14.2369799" x="344.61595 352.3162 360.04508 366.2425 373.94276 385.65058 392.94294 400.5071 405.41639 409.0733 412.38673 415.7502 423.45048 429.018 433.74824 440.76863 448.3328 453.24208 456.60557 463.48988 468.24159 475.53395 483.2342 486.5476 489.9111 497.47529 502.24134 509.9702 513.2836 518.1929 525.8931 533.1855 536.4989 544.19918 551.92807">document, instantiated into the doc</tspan></text>
<text xml:space="preserve" transform="matrix(.75 0 0 .75 72 435.39454)" font-size="14.666667" font-family="Calibri"><tspan y="14.2369799" x="48 54.884325 59.585908 64.49518 69.60483 72.96832 80.66858 88.368839 93.120548 100.41289">attribute.</tspan></text>
<text xml:space="preserve" transform="matrix(.75 0 0 .75 72 460.8379)" font-size="14.666667" font-family="Calibri" font-weight="bold"><tspan y="14.2369799" x="24">-</tspan></text>
<text xml:space="preserve" transform="matrix(.75 0 0 .75 72 460.8379)" font-size="14.666667" font-family="Calibri" font-weight="bold"><tspan y="14.2369799" x="48 55.864854 63.729707 71.59456 75.194217 78.79387 84.92688 88.24028 95.03873 102.91789 106.51755 114.3824 117.6958 123.75719 131.63636 136.68148 143.95226 148.58959 156.62602 164.00424 169.851 177.73017 181.32982 189.19467 194.2757 197.87535 205.75452 213.61937 218.18514">public void corefResolution()</tspan></text>
<text xml:space="preserve" transform="matrix(.75 0 0 .75 72 460.8379)" font-size="14.666667" font-family="Calibri"><tspan y="14.2369799" x="222.7509 226.4078 229.7212 234.63048 242.33074 245.69423 251.42649 254.73989 266.4477 273.66127 278.57054 286.27079 293.99967 301.69993 305.0133 310.74555 318.0379 325.0583 329.95307 336.15049 343.85075 351.14308">, this method searches</tspan></text>
<text xml:space="preserve" transform="matrix(.75 0 0 .75 72 460.8379)" font-size="14.666667" font-family="Calibri"><tspan y="14.2369799" x="360.18879 364.35359 372.08247 377.1921 380.5055 385.41477 393.11503 400.40736 403.72077 409.79646 417.52534 422.4416 429.605 433.7125 441.00483 445.92109 453.21345 460.9137 467.1111 474.40345 477.71687 483.91429 491.61454 498.63496 501.99845 509.6987 515.43099 518.7444 522.1079 529.80819 533.1216 538.0309 545.73117 553.0235 556.3369 561.0886 568.15896 574.5496 579.45889">for the coreference chains in the text,</tspan></text>
<text xml:space="preserve" transform="matrix(.75 0 0 .75 72 476.2793)" font-size="14.666667" font-family="Calibri"><tspan y="14.2369799" x="48 58.47693 61.840425 66.749698 74.44995 77.76335 84.4975 89.22772 96.24812 103.86243 108.02721 115.75609 120.66521 128.36547 131.12718 136.85944 140.17284 143.53633 146.89983 154.60009 159.40894 166.42934 171.6106 178.24456 181.55796 193.26578 200.47934 205.38861 213.08887 220.81775 228.518 232.17491 235.48831 240.39759 248.09784 255.39019 263.09046 266.74739 270.0608 276.2582 282.70597 288.90339 292.26689 295.63038 303.33064 310.22938 313.5428 318.45207 326.1523 331.02565 338.75453 346.45478 353.35353">with Stanford&#x2019;s library method, then, cycling through</tspan></text>
<text xml:space="preserve" transform="matrix(.75 0 0 .75 72 476.2793)" font-size="14.666667" font-family="Calibri"><tspan y="14.2369799" x="364.3671 369.27638 376.97663 384.26899 387.5824 392.34846 400.07734 406.26725 413.55958 421.25984 426.99208 430.30549 433.66899 441.36924 444.68263 449.5919 457.29216 464.58448 467.8979 472.6496 479.7199 486.1106 491.01988 494.67677 497.99018 502.90644 510.1988 517.89907 521.2626 528.28298 534.48037 541.7727 547.50497 550.81838 555.72769 563.4279">the tokens in the text, replaces the</tspan></text>
<text xml:space="preserve" transform="matrix(.75 0 0 .75 72 491.72267)" font-size="14.666667" font-family="Calibri"><tspan y="14.2369799" x="48 52.75171 60.044054 65.1537 76.86153 82.59378 85.90718 96.38411 99.747608 104.656879 112.35713 115.67053 120.5798 128.28006 135.5724 138.8858 145.9062 149.2697 152.6332 159.6536 165.38585 168.69925 172.86403 180.59291 188.29317 195.99343 203.69368 207.00708 210.37058 218.07083 221.38423 226.2935 233.99376 241.2861 244.5995 250.79692 258.4972 265.51759 268.88108 276.58134 280.2812 283.5946 290.75099 294.60838 301.5071 305.20695 308.52037 311.88386 319.5841 322.8975">terms with the alias found in the chain. E.g. in a</tspan></text>
<text xml:space="preserve" transform="matrix(.75 0 0 .75 72 491.72267)" font-size="14.666667" font-family="Calibri"><tspan y="14.2369799" x="333.23127 337.98298 345.05329 351.44398 356.35325 359.66664 366.687 374.38728 382.11616 389.8164 394.72569 398.03907 404.17207 412.14427 415.50776 418.87126 422.23475 425.54817 434.7942 441.67854 446.43025 453.7226 459.45484 464.16987 467.82679 471.1402 481.61714 489.31739 496.60975 504.31 507.6234 510.9869 515.8962 519.2096 524.12588 531.2893 535.3968 542.68917 547.6054 554.89779 562.598 568.7954 576.08779">text about &#x201c;Bill Gates&#x201d;, when it references</tspan></text>
<text xml:space="preserve" transform="matrix(.75 0 0 .75 72 507.16407)" font-size="14.666667" font-family="Calibri"><tspan y="14.2369799" x="48 55.700258 59.06375 70.771579 74.08498 84.561908 87.9254 92.83467 100.53493 103.84833 110.86873 114.18213 121.882389 126.75569 134.48458 142.18483 149.91371 157.61397 165.31423 168.62763 171.99112 175.35462 181.54453 188.83687 192.15027 198.28328 207.41481 214.70716 219.42218 223.07909 226.39249 229.75598 234.66526 237.97866 242.89493 250.18727 257.8875 261.251 268.27143 274.46885 281.76118 287.4934 290.80683 294.17033 299.0796 302.393 312.86994 316.23344 321.1427">him with a pronoun like &#x201c;He&#x201d;, it replaces it with</tspan></text>
<text xml:space="preserve" transform="matrix(.75 0 0 .75 72 507.16407)" font-size="14.666667" font-family="Calibri"><tspan y="14.2369799" x="332.15638 337.06565 344.7659 352.05824 355.37165 363.10054 368.21018 371.57368 378.4724 381.8359 389.53617 396.55659 399.92008 403.23347 410.93373 417.9541 429.66194 436.95429 440.87599 444.1894 450.3224 459.45393 466.74629 472.87928 476.1927 480.67976 487.97926 491.29267 497.42567 505.39787 508.76136 512.1249 515.4884 518.8018 528.04788 534.9322 539.6839 546.97628 552.7085 558.8415 562.1549 566.599 569.9625">the original name: &#x201c;He&#x201d; -&#x003e; &#x201c;Bill Gates&#x201d; (if</tspan></text>
<text xml:space="preserve" transform="matrix(.75 0 0 .75 72 522.60549)" font-size="14.666667" font-family="Calibri"><tspan y="14.2369799" x="48 55.700258 60.61653 67.908878 73.64113 80.93347 88.49765 93.40692 96.72032 100.08382 107.78407 111.09747 118.117877 121.431278 127.50694 135.23583 140.1521 147.31552 151.423 158.71535 163.63162 170.92397 178.62422 184.82164 192.11399 195.42739 201.6248 209.32506 216.34546 219.70896 227.40921 231.85332 235.55316 238.86656 251.90547 259.6057 266.89808 274.59834 277.91175 281.27525 286.1845 289.49794 292.86143 298.5937 301.9071 309.60737 317.33625 325.0365 332.32887">present in a coreference chain). When it is done,</tspan></text>
<text xml:space="preserve" transform="matrix(.75 0 0 .75 72 522.60549)" font-size="14.666667" font-family="Calibri"><tspan y="14.2369799" x="342.6125 347.52177 355.22203 362.51435 365.82777 377.53559 384.74916 389.65843 397.35868 405.08757 412.7878 416.1012 421.01747 428.3098 436.01008 439.37358 446.39399 452.5914 459.88374 465.61598 468.92939 473.83866 481.5389 488.83125 492.14466 498.34208 506.04234 511.15199 516.06826 523.3606 530.9248 535.8341 539.1475 546.8478 554.57669 560.77407 568.4743 580.1821 587.4745 595.0387">the method replaces the current document</tspan></text>
<text xml:space="preserve" transform="matrix(.75 0 0 .75 72 538.0469)" font-size="14.666667" font-family="Calibri"><tspan y="14.2369799" x="48 52.444108 59.32843 64.030017 68.939289 74.048938 77.41243 85.112689 92.81294 97.56465 104.856998 108.170398 115.87065 123.59953 129.79695 134.24106 137.55446 148.03139 151.39488 156.30416 164.00441 167.31781 172.22708 179.92734 187.21968 190.53308 198.23334 205.45406 215.93099 219.24439 224.16066 231.453 237.18526 244.91414 248.27764 254.75405 262.0464 269.74665 273.06007 277.81178 284.88209 291.27278 296.18205 300.10374 303.4171 307.88984 311.25334 318.95359 325.974 329.3375 332.701">(attribute doc) with the new resolved text; finally</tspan></text>
<text xml:space="preserve" transform="matrix(.75 0 0 .75 72 538.0469)" font-size="14.666667" font-family="Calibri"><tspan y="14.2369799" x="342.64836 346.01185 350.9211 354.2345 359.15077 366.4431 370.93019 377.95057 385.65083 393.35108 401.07997 405.81019 412.69453 417.44624 424.7386 430.47084 433.78425 438.6935 446.39378 453.6861 456.9995 464.69978 471.92048 482.3974 485.71083 493.41108 501.13996 507.33738 515.0376 526.7454 534.0378 541.6019 546.5112">it re-annotates the new document.</tspan></text>
<text xml:space="preserve" transform="matrix(.75 0 0 .75 72 563.4883)" font-size="14.666667" font-family="Calibri" font-weight="bold"><tspan y="14.2369799" x="24">-</tspan></text>
<text xml:space="preserve" transform="matrix(.75 0 0 .75 72 563.4883)" font-size="14.666667" font-family="Calibri" font-weight="bold"><tspan y="14.2369799" x="48 55.864854 63.729707 71.59456 75.194217 78.79387 84.92688 88.24028 95.03873 102.91789 106.51755 114.3824 117.6958 125.56065 132.79575 144.71826 152.09648 159.96134 167.11055 174.83933 179.92035 183.52 188.60103 195.54271 203.57915 210.95737 217.01876 224.89792 231.84676 239.71161 243.31127 248.39229 251.99195 259.8711 267.73597 272.30174">public void namedEntityRecognition()</tspan></text>
<text xml:space="preserve" transform="matrix(.75 0 0 .75 72 563.4883)" font-size="14.666667" font-family="Calibri"><tspan y="14.2369799" x="276.8675 280.5244 283.83784 288.7471 296.44737 299.81086 305.5431 308.8565 320.56434 327.7779 332.68717 340.38743 348.1163">, this method</tspan></text>
<text xml:space="preserve" transform="matrix(.75 0 0 .75 72 563.4883)" font-size="14.666667" font-family="Calibri"><tspan y="14.2369799" x="359.12995 364.86219 372.15455 379.17494 384.0697 390.26713 397.96739 405.2597 410.99195 414.30537 418.47016 426.19905 431.3087 434.62208 442.32234 449.3427 461.05055 468.3429 476.04316 479.35658 486.64894 494.2131 499.12239 502.48588 507.39515 510.75865 518.05099 523.7832 527.0966 530.4601 538.16036 541.47378 546.38308 554.0833 561.3757 564.6891 569.4408 576.5111 582.9018 587.81106">searches for named entities in the text,</tspan></text>
<text xml:space="preserve" transform="matrix(.75 0 0 .75 72 578.93167)" font-size="14.666667" font-family="Calibri"><tspan y="14.2369799" x="48 58.47693 61.840425 66.749698 74.44995 77.76335 82.67262 90.37288 97.66522 100.97862 107.71277 112.44299 119.463397 127.0777 131.24248 138.97136 143.88048 151.58074 154.89414 164.35486 170.5165 178.08794 181.40134 184.76483 188.12833 195.82859 200.63744 207.65784 212.8391 219.47306 222.78646 234.49428 241.70784 246.61711 254.31737 262.04627 269.74653 273.40345 276.71687 281.62614 289.3264 296.6187 304.31898 307.63236 315.3326 323.03288 327.94215 333.6744 336.98783 341.8971 349.59736">with the Stanford NLP library method, then puts the</tspan></text>
<text xml:space="preserve" transform="matrix(.75 0 0 .75 72 578.93167)" font-size="14.666667" font-family="Calibri"><tspan y="14.2369799" x="360.20307 365.11933 372.41169 378.14393 385.84419 389.20768 394.11695 399.84919 403.1626 406.5261 414.22636 417.53974 422.449 430.14927 437.4416 440.755 448.45527 455.74763 460.85728 464.17066 471.055 475.7566 480.66587 485.7755 489.139 496.83927 504.53953 509.29124 516.58358 520.2405 523.5539 530.5743 536.3065 539.61996 546.6403 549.95376 557.654 564.6744 568.03787">results in the ner attribute, as a pair</tspan></text>
<text xml:space="preserve" transform="matrix(.75 0 0 .75 72 594.37307)" font-size="14.666667" font-family="Calibri"><tspan y="14.2369799" x="48 55.2995 62.591844 70.15602 75.06529 78.42879 83.33806 89.972019 97.271518 102.023227 109.09355 115.48422 120.39349 124.0504 127.3638 134.65615 142.22032 147.1296 150.49309 155.40236 162.03632 169.33582 174.24509 180.87905 188.5793 195.87165 203.17115">&#x003c;entity_text, entity_type&#x003e;.</tspan></text>
<text xml:space="preserve" transform="matrix(.75 0 0 .75 72 619.81448)" font-size="14.666667" font-family="Calibri" font-weight="bold"><tspan y="14.2369799" x="24">-</tspan></text>
<text xml:space="preserve" transform="matrix(.75 0 0 .75 72 619.81448)" font-size="14.666667" font-family="Calibri" font-weight="bold"><tspan y="14.2369799" x="48 55.864854 63.729707 71.59456 75.194217 78.79387 84.92688 88.24028 95.03873 102.91789 106.51755 114.3824 117.6958 124.84485 131.579 136.66002 141.54758 148.78267 154.91568 159.9967 168.03314 175.41136 179.01102 186.11003 191.19106 194.79071 202.66988 210.53473 216.38149 220.94725">public void extractRelations()</tspan></text>
<text xml:space="preserve" transform="matrix(.75 0 0 .75 72 619.81448)" font-size="14.666667" font-family="Calibri"><tspan y="14.2369799" x="225.51302 229.16992 232.48332 237.3926 245.09285 248.45635 254.1886 257.502 269.20985 276.4234 281.33268 289.03294 296.7618 304.46208 307.77546 314.84577 321.23646 326.14573 330.9546 337.97499 344.1724 349.08168">, this method extracts</tspan></text>
<text xml:space="preserve" transform="matrix(.75 0 0 .75 72 619.81448)" font-size="14.666667" font-family="Calibri"><tspan y="14.2369799" x="358.12733 364.86146 372.6761 382.38014 385.69355 390.6028 395.71247 399.07597 406.7762 410.1397 417.43208 423.1643 426.47773 430.95045 435.82374 443.5526 455.26045 458.57386 463.48313 471.18339 478.4757 481.78913 489.48939 497.21827 503.41569 511.11595 522.8237 530.1161 537.6803 542.5896 546.2465 549.55996 556.5803 564.2806 571.98086 575.34439 583.0446">SRO triples from the document, adding</tspan></text>
<text xml:space="preserve" transform="matrix(.75 0 0 .75 72 635.2578)" font-size="14.666667" font-family="Calibri"><tspan y="14.2369799" x="48 52.90927 60.609529 67.90187 79.609699 82.923099 86.28659 93.85077 98.616809 106.34569 109.65909 114.56836 122.268619 129.56096 132.87436 137.79064 145.08298 148.44647 151.75988 158.6442 163.34578 168.25505 173.3647 176.7282 184.42845 192.12871 196.88042 204.17276 207.48616 217.96309 221.32659 226.23586 233.93611 237.24951 242.15879 249.85904 257.15138 260.46479 272.1726 279.38618 284.29545 291.9957 299.72459 307.42485 310.73823 317.7586 325.45887 333.15913 340.8592 348.15156 351.51506 358.39936 363.30867 366.67216 374.40104">them into the rel attribute with the method addRelation</tspan></text>
<text xml:space="preserve" transform="matrix(.75 0 0 .75 72 635.2578)" font-size="14.666667" font-family="Calibri"><tspan y="14.2369799" x="385.41468 389.85877 397.55885 404.8512 408.2147 415.099 420.00828 423.37178 431.10066 438.8009 444.53315 447.84657 454.04399 457.40748 464.42787 470.1601 475.89234 480.33644 484.03627 487.34968 494.49174 502.192 505.55549 511.28773 514.60116 520.7986 525.71487 533.0072 539.89157 544.64328 551.9356 557.66787 560.98129">(Relations class). This creates a</tspan></text>
<text xml:space="preserve" transform="matrix(.75 0 0 .75 72 650.6992)" font-size="14.666667" font-family="Calibri"><tspan y="14.2369799" x="48 54.898744 59.707597 66.728 74.42825 82.12851 85.44191 92.46231 100.09094 105.65848 110.56775 115.3766 122.397 128.59442 133.5037 136.86719 144.59607 152.29633 155.95323 159.26663 169.74356 177.44382 180.80731 187.00473 194.70499 198.01839 204.09406 211.11446 218.81472 222.12812 229.82837 237.12071 240.43412 247.50444 253.85214 261.5524 264.9159 272.64479 276.00828 280.75999 288.0523 295.75257 299.06599 303.83204 311.5609 314.87434 322.5746 330.30348 338.00373 345.70399 349.06748 355.95179 360.7035">graph abstraction, which can be exploited to populate</tspan></text>
<text xml:space="preserve" transform="matrix(.75 0 0 .75 72 650.6992)" font-size="14.666667" font-family="Calibri"><tspan y="14.2369799" x="371.3092 376.21849 383.91874 391.21107 394.52449 402.22474 409.10908 413.8393 420.85969 428.55995 435.58033 441.31257 448.60493">the database.</tspan></text>
<text xml:space="preserve" transform="matrix(.75 0 0 .75 72 676.1406)" font-size="14.666667" font-family="Calibri" font-weight="bold"><tspan y="14.2369799" x="24">-</tspan></text>
<text xml:space="preserve" transform="matrix(.75 0 0 .75 72 676.1406)" font-size="14.666667" font-family="Calibri" font-weight="bold"><tspan y="14.2369799" x="48 55.864854 63.729707 71.59456 75.194217 78.79387 84.92688 88.24028 95.03873 102.91789 106.51755 114.3824 117.6958 128.61643 132.21608 139.2508 142.85045 150.7153 158.09352 165.95838 169.55803 176.79312 183.29772 188.50756 192.10721 199.97206 203.57172 210.94994 218.09915 224.8333 229.91432 234.80188 242.03697 248.16999 253.251 256.85066 264.7298 272.59468 277.16044">public void wikipediaTripleExtraction()</tspan></text>
<text xml:space="preserve" transform="matrix(.75 0 0 .75 72 676.1406)" font-size="14.666667" font-family="Calibri"><tspan y="14.2369799" x="281.7262 285.38313 288.69654 293.6058 301.30607 304.66957 310.4018 313.7152 325.42304 332.6366 337.54588 345.24613 352.975">, this method</tspan></text>
<text xml:space="preserve" transform="matrix(.75 0 0 .75 72 676.1406)" font-size="14.666667" font-family="Calibri"><tspan y="14.2369799" x="363.98866 369.7209 377.01325 384.03364 388.9284 395.12583 402.82609 410.1184 415.85066 419.16407 423.32887 431.05775 436.1674 439.48078 444.23249 451.3028 457.69349 462.60276 465.91615 472.98646 479.37715 484.2864 489.09529 496.11567 502.31309 507.22236 512.9546 516.268 523.9969 531.69717 535.01058 548.04946 551.41299 558.07559 561.4391 569.13937 576.4317 584.13198 587.4955">searches for text extracts on Wikipedia</tspan></text>
<text xml:space="preserve" transform="matrix(.75 0 0 .75 72 691.58206)" font-size="14.666667" font-family="Calibri"><tspan y="14.2369799" x="48 52.444108 62.921037 66.28453 71.1938 78.89406 82.20746 87.11673 94.816989 102.10933 105.42273 111.62015 114.98364 122.00404 127.7363 133.46855 136.78195 149.82086 153.18436 159.84694 163.21044 170.91069 178.20304 185.90329 189.26679 196.28719 199.97988 207.54405 212.29576 219.5881 226.48685 231.2957 238.18003 243.0893 246.45279 254.18167 261.88194 266.32606 269.98298 273.2964 280.31678 288.01704 295.7459 303.44618 308.35545 311.66886 316.57814 324.27839 331.5707 334.88414 342.58439 349.60478 361.3126 368.60496">(with the class WikipediaIntegration), about the named</tspan></text>
<text xml:space="preserve" transform="matrix(.75 0 0 .75 72 691.58206)" font-size="14.666667" font-family="Calibri"><tspan y="14.2369799" x="379.61857 386.9109 394.47508 399.38435 402.74784 407.6571 411.0206 418.31294 424.04518 427.35859 431.52339 439.25227 446.9525 454.65278 462.35304 465.66645 469.02995 476.7302 480.04359 484.95286 492.6531 499.94544 503.25886 506.62236 514.32266 522.0229 529.72317 534.63247 537.94589 542.6976 549.7679 556.15859 561.0679 564.7677 568.0811 574.81527 579.68856 587.4174">entities found in the input text. From</tspan></text>
<text xml:space="preserve" transform="matrix(.75 0 0 .75 72 707.02346)" font-size="14.666667" font-family="Calibri"><tspan y="14.2369799" x="48 52.90927 60.609529 63.973024 69.70528 73.01868 78.75093 86.043277 93.063678 97.958469 104.15588 111.85614 115.51305 118.82645 124.5587 132.28759 143.9954 151.28775 154.60115 160.67682 167.56114 172.31285 179.6052 186.40367 194.13256 199.2422 202.6057 209.89804 215.6303 218.9437 225.9641 230.88037 238.17272 241.48612 248.55644 254.5747 260.77214 264.13563 271.83589 279.53614 286.8285 294.52876 297.84217 305.1345 308.9919 315.89067 319.59049 323.2474 326.56083 335.57786 342.4622 347.2139">this search, some categories are excluded e.g., Date</tspan></text>
<text xml:space="preserve" transform="matrix(.75 0 0 .75 72 707.02346)" font-size="14.666667" font-family="Calibri"><tspan y="14.2369799" x="357.81959 365.11195 372.67613 377.5854 380.94889 385.85816 389.22166 396.51399 402.24623 405.90315 409.21656 418.67729 426.37754 438.08537 445.7856 453.07795 458.1876 461.50099 468.79335 476.3575 481.26679 484.63029 489.53956 492.90306 500.19538 505.9276 509.24104 516.2614 523.9617 531.6619 534.97537 540.7076 548.43649 551.7499 559.47879 567.179 570.87887 574.19229 580.7259 588.4548">entities, Number entities and so on. For</tspan></text>
<text xml:space="preserve" transform="matrix(.75 0 0 .75 72 722.4668)" font-size="14.666667" font-family="Calibri"><tspan y="14.2369799" x="48 55.292345 62.312746 68.51016 76.21042 79.52382 92.56273 95.92622 102.588809 105.9523 113.65256 120.9449 128.64516 132.00865 139.02906 142.34246 149.41278 155.80345 160.71273 165.52158 172.54198 178.7394 183.64867 186.96207 191.12685 198.85573 206.55599 214.25624 221.9565 225.6134 228.9268 232.2402 242.58821 249.88056 253.19396 256.55744 264.2577 269.82524 274.55546 281.57588 289.14006 294.04933 297.4128 304.29713 309.04884 316.3412 319.6546 324.56388 332.26414">each Wikipedia extract found,  we instantiate the</tspan></text>
<text xml:space="preserve" transform="matrix(.75 0 0 .75 72 722.4668)" font-size="14.666667" font-family="Calibri"><tspan y="14.2369799" x="342.86988 350.57014 358.299 364.49644 372.1967 383.9045 391.19685 398.76103 403.6703 406.9837 413.86805 418.56965 423.4789 428.58857 431.95207 439.6523 447.35258 452.10429 459.3966 462.71003 467.1541 474.85438 482.58326 488.78068 493.2248 496.8817 500.19514 507.2155 514.9158 522.616 530.3449 535.07516 541.9595 546.7112 554.00357 557.31698 560.6804 565.5897">document attribute (doc), annotate it,</tspan></text>
<text xml:space="preserve" transform="matrix(.75 0 0 .75 72 737.9082)" font-size="14.666667" font-family="Calibri"><tspan y="14.2369799" x="48 52.916276 60.20862 65.94087 73.669757 77.03325 83.50966 90.802 94.1154 100.19107 107.91995 112.83623 119.99965 124.10713 131.39948 136.31575 143.6081 151.30835 157.50577 164.79811 168.11151 175.13191 182.83217 190.53243 193.84583 198.31856 201.68206 209.38231 216.40271 219.7662 223.1297 229.76366 233.07706 240.14739 246.53806 251.44733 256.25617 263.27656 269.47398 274.38325 277.69667 282.60594 290.30619 297.5985 300.91194 305.8282 313.1205 316.484 323.36833 328.27763 331.6411 339.37 347.07026">resolve coreference and finally extract the relations</tspan></text>
<text xml:space="preserve" transform="matrix(.75 0 0 .75 72 737.9082)" font-size="14.666667" font-family="Calibri"><tspan y="14.2369799" x="356.11595 366.59288 374.29313 377.65663 383.85404 391.5543 394.86769 405.3446 408.7081 412.0716 415.4351 418.74848 426.44874 433.7411 437.0545 444.0749 451.77516 459.4754 466.76777 474.46803 477.78144 482.5475 490.27638 493.58979 498.49906 506.1993 513.49166 516.80508 524.5053 529.4216 536.6423 543.2619 546.62539 554.35427 562.0545">which will be added to the previous</tspan></text>
<text xml:space="preserve" transform="matrix(.75 0 0 .75 72 753.3496)" font-size="14.666667" font-family="Calibri"><tspan y="14.2369799" x="48 52.16478 59.89366 67.59392 75.294178 82.99443 86.30783 94.03671 101.73697 109.02931 114.761569">found ones.</tspan></text>
</g>
<clipPath id="cp104">
<path d="M 0 0 L 595.5 0 L 595.5 842.25 L 0 842.25 Z " fill-rule="evenodd"/>
</clipPath>
<g clip-path="url(#cp104)">
<path transform="matrix(.75,0,0,.75,72,128.32617)" stroke-width="1.3333334" stroke-linecap="butt" stroke-miterlimit="10" stroke-linejoin="miter" fill="none" stroke="#000000" d="M 49.333333 16.232422 L 101.333339 16.232422 "/>
</g>
</g>
</svg>
