<?xml version="1.0" encoding="UTF-8" standalone="no"?>
<!DOCTYPE svg PUBLIC "-//W3C//DTD SVG 1.1//EN" "http://www.w3.org/Graphics/SVG/1.1/DTD/svg11.dtd">
<svg xmlns="http://www.w3.org/2000/svg" xmlns:xlink="http://www.w3.org/1999/xlink" version="1.1" width="596pt" height="842pt" viewBox="0 0 596 842">
<g enable-background="new">
<clipPath id="cp96">
<path d="M 0 0 L 595.5 0 L 595.5 842.25 L 0 842.25 Z " fill-rule="evenodd"/>
</clipPath>
<g clip-path="url(#cp96)">
<path transform="matrix(.75,0,0,.75,0,0)" d="M 0 0 L 794 0 L 794 1123 L 0 1123 Z " fill="#ffffff"/>
</g>
<clipPath id="cp97">
<path d="M 0 0 L 595.5 0 L 595.5 842.25 L 0 842.25 Z " fill-rule="evenodd"/>
</clipPath>
<g clip-path="url(#cp97)">
<text xml:space="preserve" transform="matrix(.75 0 0 .75 72 72)" font-size="14.666667" font-family="Calibri" font-weight="bold"><tspan y="14.2369799" x="24">-</tspan></text>
<text xml:space="preserve" transform="matrix(.75 0 0 .75 72 72)" font-size="14.666667" font-family="Calibri" font-weight="bold"><tspan y="14.2369799" x="48 55.864854 61.07469 64.67435 71.39401 78.49303 83.395008 90.773227 94.086627 106.89653 114.13162 121.996479 129.29598 133.20336 140.93213 145.8341 153.21233 160.0036 167.38182 171.51743 175.29599 178.60939 185.53676 190.61779 195.82762 199.42728 207.29213 214.24097 221.54047 224.85387 232.71872 240.59789 248.46274 255.84096">private Map&#x003c;Integer, String&#x003e; nodes</tspan></text>
<text xml:space="preserve" transform="matrix(.75 0 0 .75 72 72)" font-size="14.666667" font-family="Calibri"><tspan y="14.2369799" x="261.6877 265.3446 268.65803 273.5673 281.26756 284.63105 290.36329 293.6767 300.56105 305.26264 310.1719 315.28157 318.64506 326.3453 334.04557 338.79728 346.0896 349.403 352.7665 358.49879 361.8122 368.83259 372.146 381.27754 388.2979 394.03016 401.7304 414.26124 421.28163 428.98188 432.6388 435.9522 442.0279 449.75679 461.4646 469.16487 476.89375 482.62599 489.91835 497.6186 500.932 508.56065 515.1946 518.508 525.5284 533.22866 536.54208 540.23477 547.7989 552.5506 559.84298 566.61996 573.9123">, this attribute is a HashMap, composed by an Integer</tspan></text>
<text xml:space="preserve" transform="matrix(.75 0 0 .75 72 87.44141)" font-size="14.666667" font-family="Calibri"><tspan y="14.2369799" x="48 54.18991 61.389146 68.0231 71.3365 78.3569 86.05716 93.757419 97.070819 104.09122 107.40462 114.13876 119.048038 124.157688 127.52118 135.22144 142.12018 145.43358 151.83837 158.85877 162.22226 169.92252 177.21486 180.9147 184.2281 191.37017 199.07042 206.36277 209.67617 216.08095 223.10135 226.46485 234.1651 241.45745 247.1897 250.5031 258.232 262.7047 266.01814 270.9274 278.62767 281.99116 287.7234 291.0368 297.92115 302.62275 307.53205 312.6417 316.0052 323.70545 331.4057 336.1574">key and a String value. The values of this attribute</tspan></text>
<text xml:space="preserve" transform="matrix(.75 0 0 .75 72 87.44141)" font-size="14.666667" font-family="Calibri"><tspan y="14.2369799" x="346.76307 351.67933 358.97169 366.67195 371.5882 378.88056 384.6128 391.90516 399.46934 404.3786 407.69203 415.39228 423.12117 430.8214 438.11378 443.846 447.15943 451.92549 459.65437 462.96778 470.66804 477.9604 481.2738 484.6373 492.33757 498.06983 505.36219 510.47184 515.2235 522.51589 530.2161 533.52957 536.89309 544.5933 547.90676 552.81607 560.5163">represent nodes to be inserted in the</tspan></text>
<text xml:space="preserve" transform="matrix(.75 0 0 .75 72 102.88281)" font-size="14.666667" font-family="Calibri"><tspan y="14.2369799" x="48 54.898744 59.707597 66.728 74.42825 82.12851 86.0502 89.3636 94.27287 101.97313 109.26547 112.57887 118.76878 125.96802 132.60198 135.91538 139.27887 145.01113 148.32453 153.2338 160.93405 168.2264 171.5398 174.90329 182.60355 185.91695 193.64583 198.11856 201.43196 206.34123 214.04149 221.33383 224.64723 232.34749 240.07637 247.77663 255.06897 258.7259 262.0393 272.51625 280.2165 283.58 286.94349 294.23585 297.54927 302.45854 310.15879 317.4511 320.76454 327.1693 334.1897 337.5532 345.25346">graph: the key is the id of the node, while the value</tspan></text>
<text xml:space="preserve" transform="matrix(.75 0 0 .75 72 102.88281)" font-size="14.666667" font-family="Calibri"><tspan y="14.2369799" x="355.85914 359.22264 364.9549 368.2683 373.17759 380.87785 388.17018 391.48359 399.18385 406.20423 417.91206 425.2044 428.51783 436.2467 440.71943 444.03285 448.9421 456.64237 463.9347 467.2481 474.94837 482.67726 490.3775 497.66987 501.3697 504.6831 511.82518 519.5254 526.81777 530.13119 539.2627 546.2831 552.0153 559.7156 572.2464 579.2668">is the name of the node. The HashMap</tspan></text>
<text xml:space="preserve" transform="matrix(.75 0 0 .75 72 118.32617)" font-size="14.666667" font-family="Calibri"><tspan y="14.2369799" x="48 55.0204 58.383897 61.74739 69.418979 79.76698 85.49924 88.81264 92.9989 100.0193 105.58684 110.49611 113.80951 120.82991 127.02733 133.22475 140.51709 146.24935 151.9816 155.295 162.99526 170.01566 175.74791 183.04026 190.74051 194.05391 201.78279 209.48305 212.79645 217.70572 225.40598 232.69832 236.01172 239.37522 247.07547">allows fast access based on the id.</tspan></text>
<text xml:space="preserve" transform="matrix(.75 0 0 .75 72 143.76758)" font-size="14.666667" font-family="Calibri" font-weight="bold"><tspan y="14.2369799" x="24">-</tspan></text>
<text xml:space="preserve" transform="matrix(.75 0 0 .75 72 143.76758)" font-size="14.666667" font-family="Calibri" font-weight="bold"><tspan y="14.2369799" x="48 55.864854 61.07469 64.67435 71.39401 78.49303 83.395008 90.773227 94.086627 106.89653 114.13162 121.996479 129.29598 133.20336 140.93213 145.8341 153.21233 160.0036 167.38182 172.59166 177.35065 182.10964 185.8882 189.2016 196.12897 201.20999 206.41983 210.01949 217.88434 224.83318 232.13268 235.44608 242.8243 250.68915 257.4804 264.85865">private Map&#x003c;Integer[], String&#x003e; edges</tspan></text>
<text xml:space="preserve" transform="matrix(.75 0 0 .75 72 143.76758)" font-size="14.666667" font-family="Calibri"><tspan y="14.2369799" x="270.70539 274.3623 277.67573 282.585 290.28526 293.64875 299.38099 302.6944 309.57875 314.28034 319.1896 324.29927 327.66276 335.363 343.06327 347.81498">, this attribute</tspan></text>
<text xml:space="preserve" transform="matrix(.75 0 0 .75 72 143.76758)" font-size="14.666667" font-family="Calibri"><tspan y="14.2369799" x="358.42066 361.78416 367.51643 370.82984 377.85023 381.16365 390.29518 397.31556 403.0478 410.74806 423.27888 430.29927 437.9995 441.65644 444.96986 451.04554 458.7744 470.48225 478.1825 485.91139 491.64363 498.93598 506.63624 509.94966 517.57827 524.2122 527.52566 534.546 542.2463 545.5597 552.5801 557.6897 562.49856 569.2468 575.8808 579.1942 586.9231">is a HashMap, composed by an array of</tspan></text>
<text xml:space="preserve" transform="matrix(.75 0 0 .75 72 159.20899)" font-size="14.666667" font-family="Calibri"><tspan y="14.2369799" x="48 51.692689 59.256868 64.008579 71.30092 78.07791 85.370258 90.22925 95.9615 99.2749 103.43968 111.168567 116.27821 119.59161 124.500888 132.20114 139.49349 142.80689 148.9968 156.19603 162.82999 166.14339 173.16379 180.86405 188.5643 191.8777 198.8981 202.2115 208.94565 213.85492 218.96457 222.32807 230.02832 236.92707 240.24047 246.64525 253.66565 257.02915 264.7294 272.02174 275.72157 279.03498 286.17704 293.8773 301.16963 304.483 310.8878 317.90818 321.27168 328.97193 336.26426">Integers for the key and a String value. The values</tspan></text>
<text xml:space="preserve" transform="matrix(.75 0 0 .75 72 159.20899)" font-size="14.666667" font-family="Calibri"><tspan y="14.2369799" x="345.31 353.03889 357.5116 360.825 365.73429 373.43455 376.79804 382.53028 385.8437 392.72804 397.42964 402.3389 407.44856 410.81205 418.5123 426.21257 430.96427 438.2566 441.57 446.48628 453.77864 461.47889 466.39515 473.6875 479.41975 486.7121 494.27629 499.18556 502.49897 507.40824 515.1085 522.4009 525.7143 533.00668 540.7069 547.4839 554.77627 560.5085 563.8219 568.7312 576.43148 583.3158">of this attribute represent the edges that</tspan></text>
<text xml:space="preserve" transform="matrix(.75 0 0 .75 72 174.65235)" font-size="14.666667" font-family="Calibri"><tspan y="14.2369799" x="48 54.07567 61.80455 69.50481 77.20506 84.497409 90.694828 95.604099 98.917499 106.61775 114.346637 122.04689 129.33924 135.07149 138.38489 141.74839 149.44864 152.76204 157.67131 165.37157 172.66391 175.97731 182.87606 187.6849 194.7053 202.40557 210.10582 214.02751 217.34091 222.25019 229.95044 237.24279 240.55619 246.7461 253.94533 260.57929 263.8927 267.2562 272.98847 276.30189 283.32228 291.02253 294.33595 301.35633 306.46598 311.2748 318.0231 324.65705 327.97044 335.6993">connect nodes in the graph: the key is an array of</tspan></text>
<text xml:space="preserve" transform="matrix(.75 0 0 .75 72 174.65235)" font-size="14.666667" font-family="Calibri"><tspan y="14.2369799" x="343.4854 348.39469 356.09495 363.38728 366.70069 370.06419 377.76445 383.4967 386.81013 394.539 399.01173 402.32514 407.2344 414.93467 422.227 425.5404 433.24067 440.96955 448.6698 455.96217 461.6944 465.0078 468.3713 473.28059 476.594 482.66969 490.39857 498.09883 505.79908 513.09146 519.2888 524.1981 529.93038 533.5873 536.9007 547.3776 555.0779 558.4414 561.80496 569.0973 572.4107 577.31997 585.0202">the ids of the nodes it connects, while the</tspan></text>
<text xml:space="preserve" transform="matrix(.75 0 0 .75 72 190.09375)" font-size="14.666667" font-family="Calibri"><tspan y="14.2369799" x="48 54.404787 61.425188 64.78868 72.48894 79.78128 83.09468 86.458179 92.19043 95.50383 100.4131 108.11336 115.4057 118.7191 126.41936 133.43976 145.14759 152.43993 155.75333 163.48221 167.95494 171.26834 176.17761 183.87787 191.17021 194.48361 201.50402 206.3988 212.59622">value is the name of the arc.</tspan></text>
<text xml:space="preserve" transform="matrix(.75 0 0 .75 72 215.53516)" font-size="14.666667" font-family="Calibri" font-weight="bold"><tspan y="14.2369799" x="24">-</tspan></text>
<text xml:space="preserve" transform="matrix(.75 0 0 .75 72 215.53516)" font-size="14.666667" font-family="Calibri" font-weight="bold"><tspan y="14.2369799" x="48 55.864854 61.07469 64.67435 71.39401 78.49303 83.395008 90.773227 94.086627 106.89653 114.13162 121.996479 129.29598 136.22335 141.30437 146.5142 150.11386 157.97872 165.1424 168.92096 172.23436 176.14174 183.87052 188.77249 196.15071 202.94199 210.3202 215.53005 222.82955 226.14295 237.06357 240.66323 247.69794 251.29759 264.10749 271.20649 276.09413 282.2271 290.09199 297.4702">private Map&#x003c;String, Integer&#x003e; wikiMatches</tspan></text>
<text xml:space="preserve" transform="matrix(.75 0 0 .75 72 215.53516)" font-size="14.666667" font-family="Calibri"><tspan y="14.2369799" x="303.31703 306.97395 310.28736 315.19664 322.89689 326.26039 331.9926 335.30604 342.19038 346.89198 351.80125 356.9109 360.27439 367.97465 375.6749 380.4266">, this attribute</tspan></text>
<text xml:space="preserve" transform="matrix(.75 0 0 .75 72 215.53516)" font-size="14.666667" font-family="Calibri"><tspan y="14.2369799" x="391.0323 394.39579 400.12806 403.44148 410.46186 413.77528 422.9068 429.9272 435.65943 443.35969 455.8905 462.9109 470.61116 474.26808 477.58149 483.65718 491.38606 503.09388 510.79414 518.523 524.25527 531.5476 539.24789 542.5613 550.18997 556.8239 560.1373">is a HashMap, composed by a</tspan></text>
<text xml:space="preserve" transform="matrix(.75 0 0 .75 72 230.97657)" font-size="14.666667" font-family="Calibri"><tspan y="14.2369799" x="48 54.734148 59.643419 64.75307 68.11656 75.81682 82.71556 86.02896 92.21887 99.418109 106.05206 109.36546 116.385868 124.08612 131.78638 135.09978 142.12018 145.43358 149.12627 156.69045 161.44216 168.7345 175.51149 182.80384 187.91349 191.22689 197.63167 204.65207 208.01557 215.71582 223.00817 226.70801 230.02141 237.16347 244.86373 248.22722 253.95948 257.2729 269.8037 276.8241 284.52436 287.83778 293.4053 298.17134 305.9002 310.81648 318.10884 323.84107 327.15449 338.8623 345.74665 350.47688 356.67427 364.3745 371.66688">String key and a Integer value. This Map stores matches</tspan></text>
<text xml:space="preserve" transform="matrix(.75 0 0 .75 72 230.97657)" font-size="14.666667" font-family="Calibri"><tspan y="14.2369799" x="380.71253 384.87733 392.6062 397.71586 401.02925 408.04963 415.74989 419.0633 426.35566 433.91984 438.8291 442.1926 447.10188 453.73585 457.04927 461.21406 468.94294 476.6432 484.34346 492.0437 495.35713 498.7206 506.42088 509.73426 516.75466 520.06808 533.10696 536.47048 543.13308 546.4966 554.19686 561.4892 569.18948 572.553">for an entity found in a Wikipedia</tspan></text>
<text xml:space="preserve" transform="matrix(.75 0 0 .75 72 246.41797)" font-size="14.666667" font-family="Calibri"><tspan y="14.2369799" x="48 53.732255 61.024599 68.045 72.93979 79.13721 86.83746 90.53731 93.85071 97.16411 104.30617 112.006427 119.29877 122.61217 128.1797 133.08898 138.19863 141.56212 149.26238 156.16112 159.47452 162.83802 168.57027 171.88367 176.79294 184.4932 191.78554 195.09894 202.7992 209.8196 221.52742 228.81977 232.13317 239.86205 244.33478 247.64818 252.55745 260.2577 267.55006 270.86347 278.15583 285.72 290.62928 293.99278 298.90205 304.49046 308.14735 311.46073 321.93766 329.6379 333.0014 336.3649">search.  The string is the name of the entity, while</tspan></text>
<text xml:space="preserve" transform="matrix(.75 0 0 .75 72 246.41797)" font-size="14.666667" font-family="Calibri"><tspan y="14.2369799" x="346.9706 351.87989 359.58015 366.8725 370.1859 373.8786 381.44279 386.1945 393.48683 400.2638 407.55616 412.6658 415.9792 419.34269 425.07496 428.38838 433.29765 440.9979 448.29023 451.60365 454.96714 462.6674 465.98078 473.70967 478.18238 481.4958 486.40507 494.10533 501.39765 504.71107 510.78675 518.5156 523.62527 528.5415 535.83389 541.5661 549.26638 556.99526 564.6955 572.39578 575.7593 583.45956">the Integer is the id of the corresponding</tspan></text>
<text xml:space="preserve" transform="matrix(.75 0 0 .75 72 261.86134)" font-size="14.666667" font-family="Calibri"><tspan y="14.2369799" x="48 61.03891 64.402408 71.06499 74.42848 82.12874 89.42108 97.12134 100.48483 107.50523 110.818637 118.51889 125.53929 132.31629 139.60863 143.30847 146.62187 153.76393 161.46419 164.82769 170.55994 173.87334 180.75766 185.45925 190.36852 195.47817 198.84166 206.54192 214.24217 218.99388 226.28623 229.59963 232.96312 238.69538 242.00878 249.70903 255.44129 262.73365 270.4339 273.7473 278.51338 286.24226 289.55567 297.28456 304.92036 309.82963 313.1931 324.90095 328.26445 333.7245">Wikipedia page. This attribute is used to optimize</tspan></text>
<text xml:space="preserve" transform="matrix(.75 0 0 .75 72 261.86134)" font-size="14.666667" font-family="Calibri"><tspan y="14.2369799" x="344.33018 350.06245 357.3548 364.37519 369.26997 375.46739 383.16764 390.45997 396.1922 399.84913 403.16255 408.73008 413.4961 421.22499 426.33464 429.69813 437.39839 444.29713 447.61054 454.63093 457.99443 462.9107 470.20307 477.22346 484.9237 491.55769 494.8711 501.5337 509.23396 516.9055 527.38247 535.0827 538.3961 544.8009 551.8213 555.1848 562.8851 570.1774 575.90969">searches, storing already known values,</tspan></text>
<text xml:space="preserve" transform="matrix(.75 0 0 .75 72 277.30274)" font-size="14.666667" font-family="Calibri"><tspan y="14.2369799" x="48 55.700258 63.42914 68.33841 71.65181 79.352069 86.12897 92.74861 96.11211 103.81236 110.711109 114.024509 118.79054 126.519428 129.83283 133.19632 140.9252 148.65409 155.31667 158.63007 166.33032 174.03058 177.34398 190.38289 193.74639 200.40897 203.77246 211.47272 218.76506 226.46532 229.82881 236.84922 240.16262 251.87044 259.57069 262.93418 267.84346 271.20695 278.9072 282.2707 289.56306 292.87648 297.78575 301.14924 312.85707 320.1494 325.88166">not having to look up Wikipedia multiple times.</tspan></text>
<text xml:space="preserve" transform="matrix(.75 0 0 .75 72 302.7461)" font-size="14.666667" font-family="Calibri" font-weight="bold"><tspan y="14.2369799" x="24">-</tspan></text>
<text xml:space="preserve" transform="matrix(.75 0 0 .75 72 302.7461)" font-size="14.666667" font-family="Calibri" font-weight="bold"><tspan y="14.2369799" x="48 55.864854 61.07469 64.67435 71.39401 78.49303 83.395008 90.773227 94.086627 100.28404 103.8837 109.565738 114.64676 121.94626 128.87363 133.95465 139.16449 142.76415 150.629 157.57784 164.87734 168.19074 173.23586 180.61408 192.53659 200.37277 207.17122 214.54944 222.34989 227.38068 235.25984 243.1247 251.00386 258.8687 266.73359">private List&#x003c;String&#x003e; removePronouns</tspan></text>
<text xml:space="preserve" transform="matrix(.75 0 0 .75 72 302.7461)" font-size="14.666667" font-family="Calibri"><tspan y="14.2369799" x="272.58033 276.23725 279.55067 284.45994 292.1602 295.52369 301.25593 304.56935 311.45368 316.15528 321.06455 326.1742 329.5377 337.23796 344.9382 349.6899">, this attribute</tspan></text>
<text xml:space="preserve" transform="matrix(.75 0 0 .75 72 302.7461)" font-size="14.666667" font-family="Calibri"><tspan y="14.2369799" x="360.2956 363.6591 369.39137 372.70478 379.72517 387.4254 390.73884 399.21913 404.32878 409.13764 415.8859 422.51985 428.68147 432.04496 437.6125 442.52177 445.83515 453.56404 458.03675 461.35017 468.0843 472.99357 478.1032 481.4667 489.16697 496.0657 501.79798 505.4549 508.7683 513.6776 521.37789 528.2622 533.1715 536.4849 542.0525 546.81857 554.5474 559.4637 566.75607">is an ArrayList of Strings, that stores</tspan></text>
<text xml:space="preserve" transform="matrix(.75 0 0 .75 72 318.18556)" font-size="14.666667" font-family="Calibri"><tspan y="14.2369799" x="48 54.662584 62.36284 70.034427 80.51135 88.21161 91.52501 99.225269 104.09857 111.82745 119.52771 127.25659 134.95685 142.6571 148.38936 152.04627 155.35967 160.26894 167.9692 174.85352 179.76279 183.07619 193.4242 200.71654 204.02994 211.7302 219.45908 222.77248 230.47274 238.20162 243.11089 246.42429 256.7365 263.7569 271.32109 276.23036 279.54377 284.3098 292.0387 295.3521 298.7156 306.4159 312.14814 319.4405 324.55015 329.4594 332.77284 336.13633 343.7005 348.46656">known pronouns, that we do not want to insert into</tspan></text>
<text xml:space="preserve" transform="matrix(.75 0 0 .75 72 318.18556)" font-size="14.666667" font-family="Calibri"><tspan y="14.2369799" x="359.50874 364.418 372.11827 379.41059 382.724 390.42427 398.15315 405.8534 413.14576 418.878 422.1914 434.72224 441.7426 449.44288 453.1427 456.45613 462.2948 470.02369 473.3371 481.03736 488.76625 492.07966 496.98893 504.68919 508.05268 513.7849 517.0983 527.44638 534.7387 538.0521 543.78439 547.1478 558.85568 566.5559 569.91946">the nodes Map. To do this we simply</tspan></text>
<text xml:space="preserve" transform="matrix(.75 0 0 .75 72 333.6289)" font-size="14.666667" font-family="Calibri"><tspan y="14.2369799" x="48 54.19742 61.897676 69.19002 75.387439 82.05002 85.36342 88.72691 93.199649 96.51305 101.42232 109.122577 116.41492 119.72832 127.42857 135.15746 142.85771 150.15006 152.91178 158.64403 161.95743 169.65769 176.67809 188.38591 195.67826 198.99166 202.35515 208.0874 211.4008 214.7643 222.46456 225.77796 230.68723 238.38748 245.67983 248.99323 255.15486 258.51838 264.0859 268.99519">check if the node&#x2019;s name is in the List.</tspan></text>
<text xml:space="preserve" transform="matrix(.75 0 0 .75 72 359.0703)" font-size="14.666667" font-family="Calibri"><tspan y="14.2369799" x="0 7.020401 14.720657 22.420914 25.734314 30.643586 38.34384">and the</tspan></text>
<text xml:space="preserve" transform="matrix(.75 0 0 .75 72 359.0703)" font-size="14.666667" font-family="Calibri"><tspan y="14.2369799" x="48.949586 60.65741 67.87097 72.78024 80.4805 88.20938 95.90964">methods</tspan></text>
<text xml:space="preserve" transform="matrix(.75 0 0 .75 72 359.0703)" font-size="14.666667" font-family="Calibri"><tspan y="14.2369799" x="104.95529 111.97569 116.89197 124.18431">are:</tspan></text>
<text xml:space="preserve" transform="matrix(.75 0 0 .75 72 374.51173)" font-size="14.666667" font-family="Calibri" font-weight="bold"><tspan y="14.2369799" x="24">-</tspan></text>
<text xml:space="preserve" transform="matrix(.75 0 0 .75 72 374.51173)" font-size="14.666667" font-family="Calibri" font-weight="bold"><tspan y="14.2369799" x="48 55.864854 63.729707 71.59456 75.194217 78.79387 84.92688 88.24028 95.03873 102.91789 106.51755 114.3824 117.6958 124.93089 132.79575 140.6606 148.69704 156.07526 159.67491 166.77393 171.85495 175.4546 183.33377 191.19863 195.76439 202.69176 207.77278 212.98262 216.58228 224.44713 231.39597 234.70937 240.55612 244.33469 247.64809 254.57546 259.6565 264.86634 268.466 276.33088 283.27973 286.59315 290.72877 294.50733 297.82075 304.7481 309.82914 315.03898 318.6386 326.50349">public void addRelation(String s, String r, String</tspan></text>
<text xml:space="preserve" transform="matrix(.75 0 0 .75 72 374.51173)" font-size="14.666667" font-family="Calibri" font-weight="bold"><tspan y="14.2369799" x="336.76564 344.64479">o)</tspan></text>
<text xml:space="preserve" transform="matrix(.75 0 0 .75 72 374.51173)" font-size="14.666667" font-family="Calibri"><tspan y="14.2369799" x="349.21055 352.86744 356.18086 361.09013 368.79039 372.15388 377.8861 381.19953 384.56303 390.2953 393.6087 398.51799 406.21824 413.51057 416.82398 428.5318 435.5522 438.91569 446.61595 449.92933 461.63716 468.8507 473.75999 481.46025 489.18913 496.88938 500.20277 507.93165 512.40438 515.7178 520.6271 528.32736 535.6197 538.9331 545.1305 548.494 555.5144 561.24667 566.9789 570.9006 574.214 577.5775">, this is the main method of the class; it</tspan></text>
<text xml:space="preserve" transform="matrix(.75 0 0 .75 72 389.95509)" font-size="14.666667" font-family="Calibri"><tspan y="14.2369799" x="48 52.730226 59.750627 65.94054 73.23288 78.96513 82.278537 85.64203 93.342288 96.655689 100.01918 107.71944 115.41969 123.11995 128.02922 131.34262 138.36302 141.67642 146.5857 151.69535 155.05884 162.7591 166.12259 173.41493 177.07184 180.38524 186.4609 194.18979 205.89762 213.59787 221.32675 227.059 234.35135 242.0516 245.365 252.99364 259.6276 262.94099 267.85026 275.5505 280.4668 287.75917 295.0515 298.36494 303.93247 308.84175 313.9514 317.31489 325.01515 331.91389">takes in input a triple, composed by three strings</tspan></text>
<text xml:space="preserve" transform="matrix(.75 0 0 .75 72 389.95509)" font-size="14.666667" font-family="Calibri"><tspan y="14.2369799" x="340.95948 345.86875 353.569 360.4533 365.36259 368.67597 373.59223 380.88459 388.58485 393.5011 400.79347 406.5257 413.81806 421.38224 426.2915 429.60493 434.5142 442.21446 449.50679 452.8202 458.55244 466.2527 473.95295 477.45957 484.7519 490.9493 495.85859 499.5155 502.82893 507.74519 515.03756 518.401 525.28536 530.1946 533.5581 541.287 548.98727 552.30068 559.32107 567.0213">that represent the subject, relation and</tspan></text>
<text xml:space="preserve" transform="matrix(.75 0 0 .75 72 405.39454)" font-size="14.666667" font-family="Calibri"><tspan y="14.2369799" x="48 55.72888 63.42914 66.93576 74.2281 80.42552 85.33479 88.64819 93.56447 100.85681 106.589069 114.28932 121.581668 127.77908 132.68836 136.05185 142.52826 149.8206 153.1841 158.85124">object respectively.</tspan></text>
<text xml:space="preserve" transform="matrix(.75 0 0 .75 72 420.8379)" font-size="14.666667" font-family="Calibri"><tspan y="14.2369799" x="48 54.734148 58.09764 62.956636 68.52417 73.43344 76.74684 80.11034 84.58307 87.89647 92.80574 100.506 107.79834 111.11174 116.843997 124.54425 132.2445 135.75113 143.04347 149.24089 154.15016 157.46356 165.19245 170.3021 173.6155 178.52477 186.22502 193.51737 196.83077 204.55965 212.2599 215.76653 223.05887 229.25629 234.16556 237.47896 245.20784 249.68058 252.99398 257.90327 265.60353 272.89588 276.2093 281.11857 286.2282 289.5917 297.29197 300.65547 307.9478 311.26124 318.28163 323.19789">First if the subject or the object of the triple are</tspan></text>
<text xml:space="preserve" transform="matrix(.75 0 0 .75 72 420.8379)" font-size="14.666667" font-family="Calibri"><tspan y="14.2369799" x="333.8036 340.82398 344.1374 351.83766 356.71095 364.43983 372.14009 379.86897 387.5692 395.26948 398.5829 404.65858 412.38746 419.95164 424.68186 431.70228 435.06578 442.76603 450.05836 457.7586 461.07203 464.43553 472.13578 475.44917 480.35844 488.0587 495.351 498.66444 505.54878 510.25038 515.15969 520.2693 523.6328 531.33309 539.0333 543.78506">a pronoun contained in the attribute</tspan></text>
<text xml:space="preserve" transform="matrix(.75 0 0 .75 72 436.28126)" font-size="14.666667" font-family="Calibri"><tspan y="14.2369799" x="48 52.916276 60.20862 71.91644 79.58086 86.05727 93.34961 100.92105 105.79436 113.52324 121.223499 128.95238 136.65264 144.35289 150.08515 153.74205 157.05545 160.41895 165.32822 168.64162 173.55789 180.77146 185.68073 193.38098 198.49063 206.19089 211.92314 215.23654 219.68065 224.58992 232.29018 235.65367 241.38593 244.69933 248.06282 253.79508 257.10847 264.80873 272.5376 280.23786 287.5302 290.84364 295.60969 303.33857 306.65196 313.42887 319.91239 327.64128 331.00477">removePronouns, it returns (this is done to avoid</tspan></text>
<text xml:space="preserve" transform="matrix(.75 0 0 .75 72 436.28126)" font-size="14.666667" font-family="Calibri"><tspan y="14.2369799" x="342.01844 349.7187 356.4956 363.11524 366.47874 374.179 381.07774 384.3911 390.4668 398.19569 405.89595 413.5962 420.88856 427.08598 431.99525 435.35874 443.08763 450.78788 456.52015 459.83357 463.19706 470.8973 474.2107 479.11997 486.82023 494.11256 497.42597 504.3247 509.13356 516.15396 523.8542 531.55447 534.86788 539.7771 547.47738 554.3617 559.271 562.5844 569.6048 574.52108">having connections in the graph that are</tspan></text>
<text xml:space="preserve" transform="matrix(.75 0 0 .75 72 451.7207)" font-size="14.666667" font-family="Calibri"><tspan y="14.2369799" x="48 52.916276 60.079698 64.18718 71.47952 76.58917 81.50545 88.79779 96.49805 99.81145 104.577487 112.306369 115.61977 122.64017 130.34043 133.65383 141.35408 149.05434 155.71692 163.41718 171.08876 181.56569 189.26595 192.57935 199.87169 207.43587 212.34514 215.70864 220.6179 227.25186 231.69597">referred to an unknown entity).</tspan></text>
<text xml:space="preserve" transform="matrix(.75 0 0 .75 72 467.16407)" font-size="14.666667" font-family="Calibri"><tspan y="14.2369799" x="48 55.14206 62.842317 70.13466 77.834918 81.148319 84.51181 88.98454 92.29794 97.207218 104.90747 112.199817 115.513217 123.21347 130.94235 138.64261 145.93495 149.24835 161.77916 168.79956 176.49982 179.81322 186.69754 191.39913 196.3084 201.41805 204.78154 212.4818 220.18206 224.93376 232.2261 235.5395 238.903 244.63526 247.94866 255.241 266.94883 274.5846 279.49388 286.1278 289.44123 292.80473 297.714 301.0274 308.0478 315.74806 320.5141 328.24299 339.9508 346.83515 351.7444 355.10789 361.18354 368.20396 371.56745 374.93095">Then if the node Map attribute is empty it automatically</tspan></text>
<text xml:space="preserve" transform="matrix(.75 0 0 .75 72 467.16407)" font-size="14.666667" font-family="Calibri"><tspan y="14.2369799" x="384.8783 391.89869 399.59895 407.2992 413.03144 416.34486 423.36524 426.67866 434.3789 442.1078 449.80805 457.1004 460.41383 464.5786 472.3075 477.41716 480.73054 485.6398 493.34007 500.6324 503.9458 509.67805 517.3783 525.07858 528.5852 535.87759 542.07498 546.98428 550.29769 557.31808 565.0183">adds a node for the subject and</tspan></text>
<text xml:space="preserve" transform="matrix(.75 0 0 .75 72 482.60548)" font-size="14.666667" font-family="Calibri"><tspan y="14.2369799" x="48 55.72888 63.42914 66.93576 74.2281 80.42552 85.33479 88.64819 95.668598 103.36885 111.06911 114.38251 121.40291 129.10317 132.41657 139.70891 147.40917 154.18616 161.4785 164.7919 175.26883 182.96909 186.33258 192.53 200.23026 203.54366 209.61933 217.3482 225.04846 232.74872 240.04106 246.23848 251.14775 256.88 260.19343 265.1027 272.80296 280.09529 291.8031 295.7248 299.0382 303.94749 311.6477 318.94007 322.25349 325.61698 333.31724 339.0495 342.3629 346.5277 354.2566">object and an edge which connects them; the ids for</tspan></text>
<text xml:space="preserve" transform="matrix(.75 0 0 .75 72 482.60548)" font-size="14.666667" font-family="Calibri"><tspan y="14.2369799" x="362.67958 367.58885 375.2891 382.58143 385.89485 393.5951 401.32398 409.02424 416.3166 422.04884 425.36225 432.38264 437.2989 444.59126 447.90467 454.68165 461.974 469.67427 476.9666 481.77546 488.6598 493.4115 500.70387 508.4041 511.71754 519.3462 525.98019 529.2936 536.99386 544.0142 549.74649 557.4467 560.8102 568.51046 575.4092 578.7226 583.63186 591.3321">the nodes are generated by hashing the</tspan></text>
<text xml:space="preserve" transform="matrix(.75 0 0 .75 72 498.04689)" font-size="14.666667" font-family="Calibri"><tspan y="14.2369799" x="48 55.700258 62.720659 74.42848 81.720829 85.034229 92.76311 97.23584 100.54924 105.45851 113.15877 120.45111 123.76451 131.46477 139.19365 146.8939 154.18625 159.9185 163.2319 167.67601 175.40489 183.10515 186.46865 193.1026 196.416 204.11626 211.84514 217.5774 220.94089 225.85016 229.21366 235.69007 242.9824 246.2958 249.6593 257.22349 261.9752 269.26753 276.0445 283.33686 288.4465 292.89064 296.59046 299.90388 307.04594 314.7462 318.10969 323.84193 327.15534 330.51884 338.2191 343.95137">name of the nodes (only positive integer). This ids,</tspan></text>
<text xml:space="preserve" transform="matrix(.75 0 0 .75 72 498.04689)" font-size="14.666667" font-family="Calibri"><tspan y="14.2369799" x="350.92164 358.6505 366.28633 371.01655 378.03694 381.40043 389.10069 396.393 404.09327 407.40669 417.8836 421.2471 426.15638 433.85664 437.17005 444.8703 451.8907 457.62294 465.32319 468.68669 476.38694 483.45039 487.1073 490.42073 497.4411 502.35737 509.64973 512.96316 520.6634 527.95578 535.2481 542.94839 550.2407 557.941 561.2544 564.6179">obtained with hashing, are needed in</tspan></text>
<text xml:space="preserve" transform="matrix(.75 0 0 .75 72 513.4883)" font-size="14.666667" font-family="Calibri"><tspan y="14.2369799" x="48 55.72888 60.638 68.33826 75.6306 80.74025 84.05365 88.81969 96.54857 99.86197 107.59085 115.22664 120.13591 123.499408 135.20723 138.57073 144.03079 151.32314 154.63654 159.5458 167.24607 174.5384 177.8518 183.58406 190.8764 197.8968 202.7916 208.98902 216.68927 220.00267 224.16745 231.89633 237.00598 240.31938 248.01964 255.7199 263.42018 266.78367 270.14717 276.22285 283.10719 287.8589 295.15126 300.88349">order to optimize the search for duplicates.</tspan></text>
<text xml:space="preserve" transform="matrix(.75 0 0 .75 72 528.93167)" font-size="14.666667" font-family="Calibri"><tspan y="14.2369799" x="48 51.692689 56.16542 59.47882 67.17908 74.90796 79.81723 83.13063 90.42297 102.1308 109.76659 114.67586 120.26424 123.92114 127.23454 132.14382 139.84407 147.13642 150.44982 162.15764 169.3712 174.28047 181.98073 189.70961 197.40987 200.72327 206.92069 214.62094 221.91329 228.1107 234.6372 240.36946 243.68286 247.84764 255.57653 260.68617 263.99958 271.01997 274.38346 277.74696 284.76734 290.49958 297.79194 303.52418 307.1811 310.49449 317.51487 320.87837 325.79466 333.087 340.1074 347.80766">If not empty, the method checks for aliases, already</tspan></text>
<text xml:space="preserve" transform="matrix(.75 0 0 .75 72 528.93167)" font-size="14.666667" font-family="Calibri"><tspan y="14.2369799" x="357.75508 361.11857 368.81883 374.5511 381.84346 386.9531 391.7048 398.99714 406.6974 410.0108 413.3743 421.07456 424.38795 429.2972 436.99748 444.2898 447.6032 455.30348 463.03236 470.7326 478.02497 483.7572 487.07063 499.60145 506.62184 514.3221 517.979 521.2924 528.921 535.555 538.8684 545.0658 551.51358 557.71096 561.07449 564.438 572.13827">inserted in the nodes Map, by cycling</tspan></text>
<text xml:space="preserve" transform="matrix(.75 0 0 .75 72 544.37307)" font-size="14.666667" font-family="Calibri"><tspan y="14.2369799" x="48 52.90927 60.609529 65.482837 73.211719 80.91197 87.810718 95.51097 98.82437 105.84477 113.54503 121.245288 124.558689 130.63436 138.36324 145.97754 150.45027 155.32358 163.05246 170.61664 175.52591 178.8894 186.58966 193.4884 196.8018 201.71108 209.41133 216.70368 220.01708 226.2145 233.91475 239.0244 243.94068 251.23302 258.79719 263.70646 267.01985 274.7201 282.44898 290.14924 297.4416 300.755 311.23194 314.59544 319.5047 327.20497 330.51838 335.42765 343.1279">through and confronting the current node with the</tspan></text>
<text xml:space="preserve" transform="matrix(.75 0 0 .75 72 544.37307)" font-size="14.666667" font-family="Calibri"><tspan y="14.2369799" x="353.73365 361.4339 369.16279 376.86305 384.1554 389.88764 393.20106 397.9671 405.69599 409.0094 416.70967 424.002 427.31544 430.67893 438.37919 444.11146 451.4038 456.51347 461.26518 468.5575 476.25776 479.57118 484.01527 491.7155 499.4444 504.35368 512.05398 515.3674 519.53219 527.26107 532.3707 535.68417 541.4164 549.11666 556.8169 560.3235 567.61587 573.81326">nodes to be inserted (both for subject</tspan></text>
<text xml:space="preserve" transform="matrix(.75 0 0 .75 72 559.81448)" font-size="14.666667" font-family="Calibri"><tspan y="14.2369799" x="48 55.0204 62.720659 70.42091 73.734317 81.463199 89.16345 92.670078 99.96242 106.159839 111.06911 115.513217 119.21306 122.52646 126.21915 130.69188 134.00528 141.02568 144.33908 156.0469 162.93123 167.66146 173.85887 181.55913 184.87253 188.23603 193.96828 197.28168 201.44646 209.17534 216.8756 224.57585 232.27611 235.93302 239.24642 244.15569 251.85594 259.1483 262.46168 270.16194 277.8908 285.59107 292.88343 296.19685 299.56034 305.2926 308.606 315.62638 323.32664 331.0269 338.31925 346.0195">and object). If a match is found, the node is added,</tspan></text>
<text xml:space="preserve" transform="matrix(.75 0 0 .75 72 559.81448)" font-size="14.666667" font-family="Calibri"><tspan y="14.2369799" x="352.9898 360.69007 368.39033 373.2996 376.61299 383.63337 386.94679 394.64704 401.86775 412.34468 415.65809 422.95045 430.6507 437.42768 444.72004 448.03346 452.47755 456.64234 464.37123 469.48088 472.79426 477.70353 485.40379 492.6961 496.00953 503.0299 506.3934 509.7569 516.7773 522.5095 525.82296 530.7392 538.03158 541.395 548.27938 553.1886 556.5521 564.281 571.98129 577.7135 585.41378 588.7772 596.4775">but a new edge (for the alias relationship)</tspan></text>
<text xml:space="preserve" transform="matrix(.75 0 0 .75 72 575.2578)" font-size="14.666667" font-family="Calibri"><tspan y="14.2369799" x="48 51.363496 57.09575 60.40915 63.772645 71.4729 77.205158 84.4975 89.60715 94.35886 101.6512 109.351459 112.664859 120.36511 127.578678 132.48795 142.83596 150.1283 157.42064 165.1209 168.4343 173.34357 181.04383 188.33617 191.64957 203.35739 210.24172 214.97194 221.16936 228.86962 236.16196 243.86222 247.17562 254.87587 262.60475 270.305 277.59736 283.3296 287.02943 290.34284 294.03553 298.50825 301.82167 306.73097 314.4312 321.72358 325.037 336.7448 343.62916 348.35939 354.55677">is inserted between the matched nodes. If the match</tspan></text>
<text xml:space="preserve" transform="matrix(.75 0 0 .75 72 575.2578)" font-size="14.666667" font-family="Calibri"><tspan y="14.2369799" x="365.57038 368.93388 374.66615 377.97956 385.6798 393.4087 398.31797 401.63136 405.79615 413.52503 421.22529 428.92555 436.6258 440.2827 443.59614 446.95964 451.8689 455.1823 460.91456 464.27806 475.98588 483.68614 487.04963 493.6836 496.997 504.0174 511.71766 519.4179 525.15017 528.46359 533.3728 541.07308 548.3654 551.67886 559.3791 567.108 574.8082 582.1006">is not found, it simply adds the nodes</tspan></text>
<text xml:space="preserve" transform="matrix(.75 0 0 .75 72 590.6992)" font-size="14.666667" font-family="Calibri"><tspan y="14.2369799" x="48 52.766038 60.49492 63.80832 68.71759 76.41785 83.71019 87.02359 99.5544 106.5748 114.275058 117.588459 124.60886 132.30912 140.00937 143.32277 150.20709 155.11637 158.42977 163.33904 171.03929 178.33164 181.64504 188.93738 196.63764 204.33789 207.65129 211.01479 218.71504 224.4473 231.73964 236.84929 241.75856 247.49082 250.80422 257.82463 265.52488 268.83827 276.1306 283.83088 290.60786 297.9002 301.21363 305.37837 313.10725 318.2169 321.53028 326.43955 334.1398">to the Map and at the end inserts an edge for the</tspan></text>
<text xml:space="preserve" transform="matrix(.75 0 0 .75 72 590.6992)" font-size="14.666667" font-family="Calibri"><tspan y="14.2369799" x="344.7456 349.66188 356.95423 360.31773 367.20204 372.1113 375.4748 383.20368 390.90394 396.63618 404.33644 407.69993 415.40019 418.71357 424.4458 432.14607 439.43843 445.63584 448.99934 453.47206 456.83555 464.12788 471.82814 475.14155 478.50505 486.2053 489.51869 494.42796 502.1282 509.42054 512.73397 516.0974 523.79769 531.4979 539.1982 544.1074">relationship specified in the input.</tspan></text>
<text xml:space="preserve" transform="matrix(.75 0 0 .75 72 616.1406)" font-size="14.666667" font-family="Calibri"><tspan y="14.2369799" x="24">-</tspan></text>
<text xml:space="preserve" transform="matrix(.75 0 0 .75 72 616.1406)" font-size="14.666667" font-family="Calibri" font-weight="bold"><tspan y="14.2369799" x="48 55.864854 61.07469 64.67435 71.39401 78.49303 83.395008 90.773227 94.086627 101.95148 109.83064 117.70981 121.30946 128.68769 135.92278 143.78763 147.10103 159.02355 166.12256 171.01021 177.14322 185.00807 192.52205 199.75714 206.54842 213.92664 217.83402 225.69887 230.26464 237.192 242.27303 247.48287 251.08252 258.9474 265.89625 269.20967 275.0564 282.4847 286.26329 289.57667 296.50404 301.58506 306.79487 310.39454 318.2594 325.20826 328.52168 334.3684 341.79673">private boolean matchPageId(String s1, String s2)</tspan></text>
<text xml:space="preserve" transform="matrix(.75 0 0 .75 72 616.1406)" font-size="14.666667" font-family="Calibri"><tspan y="14.2369799" x="346.36247">,</tspan></text>
<text xml:space="preserve" transform="matrix(.75 0 0 .75 72 616.1406)" font-size="14.666667" font-family="Calibri"><tspan y="14.2369799" x="353.33277 358.24205 365.9423 369.3058 375.03804 378.35145 390.05928 397.27284 402.1821 409.88236 417.61125 425.3115 428.62489 436.32514 443.6175 448.72715 452.8919 460.6208 465.73045 477.43827 483.17054 486.48396 491.39323 499.09349 506.3858 509.69923 515.43148 522.7238 529.7442 534.639 540.8364 548.5367 555.82907 561.5613 564.8747 572.6036">this method performs the searches on</tspan></text>
<text xml:space="preserve" transform="matrix(.75 0 0 .75 72 631.58206)" font-size="14.666667" font-family="Calibri"><tspan y="14.2369799" x="48 61.03891 64.402408 71.06499 74.42848 82.12874 89.42108 97.12134 100.48483 107.50523 110.818637 115.58467 123.31355 126.62695 131.54323 138.75679 143.66606 151.36632 156.47597 164.17623 167.48963 172.3989 177.50855 185.2088 192.50115 196.15805 199.47145 202.83495 207.30768 210.62108 215.53035 223.2306 230.52295 233.83635 238.74562 249.08647 256.81538 260.12879 266.8629 271.7722 276.88185 280.24534 287.9456 294.84434 300.5766 303.89 307.25355 314.9538 318.2672 321.6307 329.33097 337.03123 344.73149">Wikipedia to return true, if the two Strings in input</tspan></text>
<text xml:space="preserve" transform="matrix(.75 0 0 .75 72 631.58206)" font-size="14.666667" font-family="Calibri"><tspan y="14.2369799" x="352.95405 364.66188 371.5462 376.27644 382.47386 390.1741 393.4875 398.39677 406.09703 413.38935 416.70277 422.435 429.45539 441.1632 448.45558 451.76899 464.8079 468.1714 474.83399 478.19749 481.51087 488.7672 495.7876 502.56459 509.85694 513.51388 516.8273 521.01358 528.03396 531.39749 537.1297">match the same Wiki Page, false</tspan></text>
<text xml:space="preserve" transform="matrix(.75 0 0 .75 72 647.02346)" font-size="14.666667" font-family="Calibri"><tspan y="14.2369799" x="48 55.72888 60.638154 68.33841 75.63075 80.81917 91.2961 94.65959 100.391849 107.68419 111.38403 114.69743 120.5361 128.26499 131.57839 139.27864 147.00753 150.32093 155.2302 162.93045 166.29395 172.0262 175.3396 178.7031 186.40335 189.71675 196.73715 204.43741 207.75081 215.47969 223.11548 228.02475 231.38825 243.09607 246.45957 251.91963 259.21199 266.91224 270.22566 280.53785 287.2861 292.87449 296.53138 299.8448 303.20829 308.11756 311.43098 319.13124 324.86347 332.15583">otherwise. To do this in an optimized way, it uses</tspan></text>
<text xml:space="preserve" transform="matrix(.75 0 0 .75 72 647.02346)" font-size="14.666667" font-family="Calibri"><tspan y="14.2369799" x="341.20149 346.11076 353.811 361.10334 364.41676 371.3011 376.0027 380.91197 386.0216 389.3851 397.08537 404.7856 409.53733 416.82966 420.14308 433.18199 436.54548 443.20808 446.57157 459.10237 465.9867 470.71693 476.91435 484.6146 491.90693 497.63917 500.95259 505.71864 513.4475 516.7609 522.9584 530.6586 537.951 544.14846 550.81106 554.12448 557.4879 561.96066 565.27407">the attribute WikiMatches to check if a</tspan></text>
<text xml:space="preserve" transform="matrix(.75 0 0 .75 72 662.4668)" font-size="14.666667" font-family="Calibri"><tspan y="14.2369799" x="48 53.732255 61.024599 68.045 72.93979 79.13721 86.83746 90.15086 97.85112 104.87152 110.603778 113.917179 120.93758 124.30107 129.21735 136.50969 143.53009 151.23035 157.8643 161.1777 168.87796 176.1703 181.27996 185.44474 193.17362 198.28327 209.99109 217.28343 224.98369 228.29709 232.46187 240.19075 245.3004 248.6138 253.52307 261.22334 268.10768 273.01695 276.33033 282.06257 289.76283 297.05519 303.2526 306.6161 311.0888 314.4523 320.64973 323.96315 330.69728 335.60655 340.7162 344.07969 351.77995 358.67869">search has already performed for that specific String;</tspan></text>
<text xml:space="preserve" transform="matrix(.75 0 0 .75 72 662.4668)" font-size="14.666667" font-family="Calibri"><tspan y="14.2369799" x="365.9138 369.27729 373.75 377.06343 384.76368 392.49256 397.40184 401.05873 404.37214 407.73564 412.6449 415.9583 423.65858 430.95094 436.06059 440.22535 447.95423 453.06388 464.7717 470.50398 473.81739 478.72666 486.4269 493.71925 497.03266 502.7649 510.05726 517.07766 521.9724 528.1698 535.87008 539.1835 543.62759 548.53689 556.2371 559.6006 565.3328 568.64627 572.00979">if not, it performs the search (this is</tspan></text>
<text xml:space="preserve" transform="matrix(.75 0 0 .75 72 677.9082)" font-size="14.666667" font-family="Calibri"><tspan y="14.2369799" x="48 55.700258 62.9926 66.356098 73.64844 80.27504 87.15936 91.91107 99.203418 106.90367 110.21707 114.98311 122.71199 126.02539 130.93466 138.63492 145.92726 149.24066 162.27957 165.64307 172.30565 175.66915 183.3694 190.66175 198.362 201.7255 208.7459 212.43859 220.00276 224.75447 232.04682 238.94556 243.75441 250.63874 255.548 258.9115 266.64039 274.34065 277.65406 285.4688 288.8323 295.85273 301.58497 307.3172 311.7613 315.4182 318.73164 325.752 333.45228">delegated to the WikipediaIntegration Class), and</tspan></text>
<text xml:space="preserve" transform="matrix(.75 0 0 .75 72 677.9082)" font-size="14.666667" font-family="Calibri"><tspan y="14.2369799" x="344.46595 351.48634 359.18659 366.88685 372.61909 375.9325 380.84178 388.54203 395.83436 399.14778 404.06404 411.35639 417.08863 424.78889 428.15238 433.06166 436.37507 441.1411 448.87 452.1834 457.09269 464.79295 472.08528 475.39869 487.9295 494.9499 502.65016">adds the result to the Map.</tspan></text>
<text xml:space="preserve" transform="matrix(.75 0 0 .75 72 703.35159)" font-size="14.666667" font-family="Calibri" font-weight="bold"><tspan y="14.2369799" x="24">-</tspan></text>
<text xml:space="preserve" transform="matrix(.75 0 0 .75 72 703.35159)" font-size="14.666667" font-family="Calibri" font-weight="bold"><tspan y="14.2369799" x="48 55.864854 63.729707 71.59456 75.194217 78.79387 84.92688 88.24028 95.03873 102.91789 106.51755 114.3824 117.6958 125.56065 130.7705 134.37015 142.09893 147.17995 154.1143 161.97916 168.77043 176.14865 181.9954 186.56118">public void printEdges()</tspan></text>
<text xml:space="preserve" transform="matrix(.75 0 0 .75 72 703.35159)" font-size="14.666667" font-family="Calibri"><tspan y="14.2369799" x="191.12694 194.78385 198.09725 203.00652 210.70677 214.07027 219.80252 223.11592 234.82375 242.03731 246.94658 254.64684 262.37574 270.076 273.3894 281.08967 286.1993 289.5628 297.12699 302.03627 307.7685 311.0819 318.1023 321.4658 324.82929 328.1427 333.05198 340.75224">, this method prints all the</tspan></text>
<text xml:space="preserve" transform="matrix(.75 0 0 .75 72 703.35159)" font-size="14.666667" font-family="Calibri"><tspan y="14.2369799" x="351.35795 358.65028 366.35054 373.1275 380.41987 386.1521 389.4655 395.66294 403.3632 408.47285 413.3891 420.68147 428.24565 433.1549 436.5184 443.15235 446.46577 449.82926 457.5295 463.26179 470.55415 475.6638 480.4155 487.70783 495.40809 499.1079 502.42134 506.114 511.0233 514.3367 517.7002 523.43246 526.74588 534.47476 542.175 545.53848 552.1724 555.48587 563.1861 568.91836 576.2107">edges currently inserted. It is only used</tspan></text>
<text xml:space="preserve" transform="matrix(.75 0 0 .75 72 718.791)" font-size="14.666667" font-family="Calibri"><tspan y="14.2369799" x="48 52.16478 59.89366 65.00331 68.31671 76.01697 83.30931 91.00957 98.70982 105.74463 112.64337 116.00687 123.70712 130.60587 133.91927 141.61952 149.31978 154.42943 162.12969 169.85857 175.59082 182.88317 188.61542">for debugging purposes.</tspan></text>
</g>
<clipPath id="cp98">
<path d="M 0 0 L 595.5 0 L 595.5 842.25 L 0 842.25 Z " fill-rule="evenodd"/>
</clipPath>
<g clip-path="url(#cp98)">
<path transform="matrix(.75,0,0,.75,72,359.0703)" stroke-width="1.3333334" stroke-linecap="butt" stroke-miterlimit="10" stroke-linejoin="miter" fill="none" stroke="#000000" d="M 49.333333 15.239583 L 101.333339 15.239583 "/>
</g>
</g>
</svg>
