<?xml version="1.0" encoding="UTF-8" standalone="no"?>
<!DOCTYPE svg PUBLIC "-//W3C//DTD SVG 1.1//EN" "http://www.w3.org/Graphics/SVG/1.1/DTD/svg11.dtd">
<svg xmlns="http://www.w3.org/2000/svg" xmlns:xlink="http://www.w3.org/1999/xlink" version="1.1" width="596pt" height="842pt" viewBox="0 0 596 842">
<g enable-background="new">
<clipPath id="cp199">
<path d="M 0 0 L 595.5 0 L 595.5 842.25 L 0 842.25 Z " fill-rule="evenodd"/>
</clipPath>
<g clip-path="url(#cp199)">
<path transform="matrix(.75,0,0,.75,0,0)" d="M 0 0 L 794 0 L 794 1123 L 0 1123 Z " fill="#ffffff"/>
</g>
<clipPath id="cp200">
<path d="M 0 0 L 595.5 0 L 595.5 842.25 L 0 842.25 Z " fill-rule="evenodd"/>
</clipPath>
<g clip-path="url(#cp200)">
<text fill="#666666" xml:space="preserve" transform="matrix(.75 0 0 .75 72 72)" font-size="22.666666" font-family="Calibri"><tspan y="22.002604" x="0 11.704254 19.237717 31.185349 36.38478 48.332414 58.99678 64.118778 71.71864 82.991458 93.84389 102.70505 114.65268 126.55606 131.7555 143.65888">Prolog reasoning</tspan></text>
<text xml:space="preserve" transform="matrix(.75 0 0 .75 72 101.86719)" font-size="14.666667" font-family="Calibri"><tspan y="14.2369799" x="0 9.704041 17.404297 23.601716 30.894059 34.20746 39.11673 46.816987 54.10933 57.42273 64.80794 72.508197 80.17978 90.65671 94.0202 101.312549 109.0128 115.789798 123.08214 126.39554 134.36774 141.38814 147.12039 154.41274 157.72614 165.42639 172.4468 178.17905 181.49245 189.1927 196.48505 203.77739 211.47765 214.79105 220.98847 225.90474 233.19709 240.0814 244.83312 252.12546 259.8257 263.1391 267.5832 275.28346 283.01234 287.9216 295.62187 298.93525 304.5028 309.23304 316.25343 321.36308 326.27235 329.63584 337.3361">Once the Knowledge Base has been created (both starting</tspan></text>
<text xml:space="preserve" transform="matrix(.75 0 0 .75 72 101.86719)" font-size="14.666667" font-family="Calibri"><tspan y="14.2369799" x="347.54829 352.021 356.8943 364.62318 376.331 379.6444 384.55369 392.25395 399.54627 402.85969 407.6114 414.6817 421.0724 425.98167 429.29505 437.02394 442.13359 445.44697 452.46736 460.1676 463.48103 471.08827 483.61909 489.7807 493.09413 497.56684 500.93034 504.29383 511.58619 516.0303 519.6872 523.0006 526.36416 531.27346 534.58688 537.9503 543.68258 546.996 554.6962 562.4251 568.15737 573.8896 577.25308 584.9533 588.3168">from the text or an XML file), it is possible</tspan></text>
<text xml:space="preserve" transform="matrix(.75 0 0 .75 72 117.30859)" font-size="14.666667" font-family="Calibri"><tspan y="14.2369799" x="0 4.766037 12.494919 15.808319 19.171814 26.900696 33.921098 41.621355 44.934755 49.844026 57.54428 64.836627 68.150028 72.33629 79.35669 85.55411 90.46338 96.19563 99.50903 106.529438 114.22969 121.92995 125.24335 130.353 138.05326 141.41675 148.70909 154.44135 157.75475 165.455 170.37128 177.66362 183.39588 190.68822 198.2524 203.16167 206.47507 209.83856 217.53882 220.85222 225.76149 233.46175 240.75409 244.06749 251.76775 256.64106 264.36994 267.73344 275.4623 282.36106 289.66056 294.1333 297.4968 300.8603 308.15266">to load the facts and rules present in the prolog_files</tspan></text>
<text xml:space="preserve" transform="matrix(.75 0 0 .75 72 117.30859)" font-size="14.666667" font-family="Calibri"><tspan y="14.2369799" x="317.19828 324.89854 328.26203 333.17829 340.47065 346.66807 351.43409 359.16297 364.34425 370.9782 374.8999 378.21333 382.97938 390.70826 394.02168 401.72193 409.4508 412.76423 418.49647 425.96037 429.61726 432.93067 440.63093 447.40785 454.02748 457.39097 465.09123 471.98997 475.30335 480.21263 487.91288 495.2052 498.51863 505.14533 518.1842 521.8769 525.1903 532.89059 537.76388 545.49276 548.8562 556.5851">directory; to do so, having the SWI prolog</tspan></text>
<text xml:space="preserve" transform="matrix(.75 0 0 .75 72 132.75)" font-size="14.666667" font-family="Calibri"><tspan y="14.2369799" x="0 3.3634949 11.063751 16.631287 21.361512 28.381913 31.745408 35.108903 42.401247 50.1015 53.4149 61.143785 68.84404 72.15744 77.06671 84.76697 92.05931 95.37271 107.080539 114.10094 120.298358 127.99861 131.3621 139.06237 146.3547">installed on the machine:</tspan></text>
<text xml:space="preserve" transform="matrix(.75 0 0 .75 72 158.1914)" font-size="14.666667" font-family="Calibri"><tspan y="14.2369799" x="24 31.428315">1.</tspan></text>
<text xml:space="preserve" transform="matrix(.75 0 0 .75 72 158.1914)" font-size="14.666667" font-family="Calibri"><tspan y="14.2369799" x="48 54.161638 61.182039 68.88229 76.58255 82.77997 90.480228 93.793628 98.702899 106.40315 113.695499 117.008899 123.084568 130.81345 142.52127 154.2291 161.2495 168.94976 176.65001 179.96341 183.3269 186.6904 194.39066 201.683 204.9964 212.0168 219.71706 227.41732 230.73072 236.92813 244.62839 251.64879 259.34907 266.12605 273.4184 276.7318 284.43208 287.79557 292.71186 300.0042 306.20164 310.96766 318.69654 323.8778 330.51176 333.82514 338.5912 346.32008 349.63349 354.54277 362.243">Launch the command line and change directory to the</tspan></text>
<text xml:space="preserve" transform="matrix(.75 0 0 .75 72 158.1914)" font-size="14.666667" font-family="Calibri"><tspan y="14.2369799" x="372.8487 380.54896 385.42225 393.15113 396.51463 404.2435 411.14225 418.44175 422.9145 426.27799 429.64149 436.93385 442.66609 445.9795 450.1443 457.87318 461.23667 468.93693 476.22926 479.86366">prolog_files folder.</tspan></text>
<text xml:space="preserve" transform="matrix(.75 0 0 .75 72 173.63282)" font-size="14.666667" font-family="Calibri"><tspan y="14.2369799" x="24 31.428315">2.</tspan></text>
<text xml:space="preserve" transform="matrix(.75 0 0 .75 72 173.63282)" font-size="14.666667" font-family="Calibri"><tspan y="14.2369799" x="48 54.161638 61.182039 68.88229 76.58255 82.77997 90.480228 93.793628 98.702899 106.40315 113.695499 117.008899 123.635608 136.67452 140.3672 143.6806 149.75627 157.48516 169.19298 180.9008 187.9212 195.62146 203.32172 206.63512 209.99861 213.3621 221.06237 228.3547 232.01161 235.32501 242.95365 249.5876 252.901 259.9713 265.93229 273.2246 279.42204 287.12229 292.03157 295.39506 303.0953 309.99406 313.30747 318.21675 325.917 333.20933 336.52275 342.59843 350.3273 362.03514 373.74296 380.76335 388.4636">Launch the SWI command line, by executing the command</tspan></text>
<text xml:space="preserve" transform="matrix(.75 0 0 .75 72 173.63282)" font-size="14.666667" font-family="Calibri"><tspan y="14.2369799" x="399.47727 402.79759 408.4582 418.93513 422.2986 429.99888 433.36238 435.62278">&#x2018;swipl&#x2019;.</tspan></text>
<text xml:space="preserve" transform="matrix(.75 0 0 .75 72 189.07422)" font-size="14.666667" font-family="Calibri"><tspan y="14.2369799" x="24 31.428315">3.</tspan></text>
<text xml:space="preserve" transform="matrix(.75 0 0 .75 72 189.07422)" font-size="14.666667" font-family="Calibri"><tspan y="14.2369799" x="48 53.83867 61.56755 64.88095 68.244449 75.97333 82.99373 90.693988 94.007389 98.91666 106.61691 113.909259 117.22266 124.607868 132.30812 139.9797 150.45664 153.82013 161.11248 168.81273 175.58972 182.88207 186.19547 194.16767 201.18807 206.92032 214.21266 217.52606 225.25495 229.72768 233.04108 237.95035 245.6506 252.94295 256.25636 260.72908 264.09257 267.45606 274.7484 278.06184 282.9711 289.60505 297.3053 304.59767 307.91108 313.36378 319.43946 327.16835 334.8686 340.60084 348.3011 351.66459 356.57386">To load the Knowledge Base of the file type &#x201c;consult(</tspan></text>
<text xml:space="preserve" transform="matrix(.75 0 0 .75 72 189.07422)" font-size="14.666667" font-family="Calibri" font-style="italic"><tspan y="14.2369799" x="361.01789 368.55354 376.08918 387.6825 394.68144 401.98094 406.45368 409.81718 413.18067">name_file</tspan></text>
<text xml:space="preserve" transform="matrix(.75 0 0 .75 72 189.07422)" font-size="14.666667" font-family="Calibri"><tspan y="14.2369799" x="420.17964 424.62373 427.24934">).&#x201d;</tspan></text>
<text xml:space="preserve" transform="matrix(.75 0 0 .75 72 189.07422)" font-size="14.666667" font-family="Calibri"><tspan y="14.2369799" x="436.69575 447.17268 450.53617 455.44544 463.1457 466.4591 471.36839 479.06864 486.36097 489.67439 497.37464 504.39503 516.10287 523.3952 526.7086 534.4375 538.9102 542.22366 547.13296 554.8332 562.12557 565.43899 569.9117 573.27517 576.6387">with the name of the file</tspan></text>
<text xml:space="preserve" transform="matrix(.75 0 0 .75 72 204.51563)" font-size="14.666667" font-family="Calibri"><tspan y="14.2369799" x="48 54.19742 59.113695 66.40604 73.29036 78.04207 85.33441 93.03467 96.34807 100.792179 108.08452 111.94191">created (e.g</tspan></text>
<text xml:space="preserve" transform="matrix(.75 0 0 .75 72 204.51563)" font-size="14.666667" font-family="Calibri" font-style="italic"><tspan y="14.2369799" x="122.15405 128.12953 135.65088 143.18654 148.89017 156.42583 159.78932 164.6986 169.1427 176.67836 184.21402">consult(bg)</tspan></text>
<text xml:space="preserve" transform="matrix(.75 0 0 .75 72 204.51563)" font-size="14.666667" font-family="Calibri"><tspan y="14.2369799" x="188.65813 193.10224">).</tspan></text>
<text xml:space="preserve" transform="matrix(.75 0 0 .75 72 219.95703)" font-size="14.666667" font-family="Calibri"><tspan y="14.2369799" x="24 31.428315">4.</tspan></text>
<text xml:space="preserve" transform="matrix(.75 0 0 .75 72 219.95703)" font-size="14.666667" font-family="Calibri"><tspan y="14.2369799" x="48 54.161638 61.89052 68.91092 76.611179 79.924579 84.83385 92.5341 99.82645 103.13985 108.2495 115.94975 119.31325 126.60559 132.33785 135.65125 140.56052 147.19448 154.89473 158.25823 165.95848">Load the rules typing</tspan></text>
<text xml:space="preserve" transform="matrix(.75 0 0 .75 72 219.95703)" font-size="14.666667" font-family="Calibri" font-style="italic"><tspan y="14.2369799" x="176.17063 182.1461 189.66745 197.20311 202.90674 210.4424 213.8059 218.71517 223.15927 228.18305 235.7187 239.0822 246.08113 251.78476">consult(rules)</tspan></text>
<text xml:space="preserve" transform="matrix(.75 0 0 .75 72 219.95703)" font-size="14.666667" font-family="Calibri"><tspan y="14.2369799" x="256.22889">.</tspan></text>
<text xml:space="preserve" transform="matrix(.75 0 0 .75 72 235.39844)" font-size="14.666667" font-family="Calibri"><tspan y="14.2369799" x="24 31.428315">5.</tspan></text>
<text xml:space="preserve" transform="matrix(.75 0 0 .75 72 235.39844)" font-size="14.666667" font-family="Calibri"><tspan y="14.2369799" x="48 53.83867 61.56755 64.88095 71.95128 77.91225 85.20459 91.40201 99.102268 103.85397 111.14632 114.45972 119.36899 127.069248 134.36159 137.67499 149.38282 156.40322 159.76671 167.46697 170.78037 178.48062 183.35393 191.08281 197.28023 204.57257 212.27283 219.97309 224.88936 232.1817 235.83861 239.15201 244.06128 250.69524 258.3955">To execute the main procedure, type</tspan></text>
<text xml:space="preserve" transform="matrix(.75 0 0 .75 72 235.39844)" font-size="14.666667" font-family="Calibri" font-style="italic"><tspan y="14.2369799" x="269.00123 280.59455 288.1302 291.49369 299.02937 306.32887 309.69236 317.21369 324.73506 332.2707">main_loop,</tspan></text>
<text xml:space="preserve" transform="matrix(.75 0 0 .75 72 235.39844)" font-size="14.666667" font-family="Calibri"><tspan y="14.2369799" x="339.24104 344.1503 351.85057">the</tspan></text>
<text xml:space="preserve" transform="matrix(.75 0 0 .75 72 235.39844)" font-size="14.666667" font-family="Calibri"><tspan y="14.2369799" x="362.4563 365.8198 369.1833 374.75083 379.6601 382.9735 390.7024 395.1751 398.48854 406.18879 413.48115 418.34016 424.0724 431.80128 439.50154 445.23377 448.54719 455.56758 463.26783 470.96809 474.2815 482.01039 486.9195 493.54609 500.56648 508.26673 511.63023 517.1762 524.06057 528.96987 532.3334 540.06228 547.7625 551.0759 561.55288 564.9164 568.2799 571.64346 574.95687 582.6571">list of persons and organization will be</tspan></text>
<text xml:space="preserve" transform="matrix(.75 0 0 .75 72 250.84375)" font-size="14.666667" font-family="Calibri"><tspan y="14.2369799" x="48 55.700258 60.809907 64.1734 71.73758 76.48929 83.78163 91.48189 94.79529 98.15878 105.85904 109.17244 114.08171 121.78197 129.07431 132.38771 138.46338 146.19226 157.90009 169.60791 176.62831 184.32857 192.02883 195.34223 198.70572 202.06922 209.76947 217.06182">printed in the command line.</tspan></text>
<text xml:space="preserve" transform="matrix(.75 0 0 .75 72 266.28517)" font-size="14.666667" font-family="Calibri"><tspan y="14.2369799" x="24 31.428315">6.</tspan></text>
<text xml:space="preserve" transform="matrix(.75 0 0 .75 72 266.28517)" font-size="14.666667" font-family="Calibri"><tspan y="14.2369799" x="48 51.692689 56.16542 59.47882 64.38809 72.08835 79.38069 82.69409 90.39435 97.29309 100.992938 108.69319 112.05669 115.37009 122.755298 130.45555 138.12714 148.60407 151.96756 159.2599 166.96016 173.73715 181.0295 184.3429 192.3151 199.3355 205.06775 212.36009 215.6735 223.37375 230.39415 236.1264 239.4398 247.14006 254.4324 261.72474 269.425 272.7384 276.1019 283.83079 290.8512 298.55146 305.8438 313.54408 317.20097 320.51438 323.8278 328.73707 333.9183">If the bg.pl Knowledge Base has been loaded,  try</tspan></text>
<text xml:space="preserve" transform="matrix(.75 0 0 .75 72 266.28517)" font-size="14.666667" font-family="Calibri"><tspan y="14.2369799" x="343.86564 348.63166 356.36054 359.67396 365.4062 372.69856 379.9909 383.30433 388.2136 395.91386 403.20619 406.5196 413.1822 420.88246 428.55403 439.03096 442.39445 449.68678 457.38703 464.164 471.45637 474.76979 481.79017 489.49043 497.2193 504.91957 509.82884 513.1422 520.84249 524.20596 527.56948 530.933 534.2464 540.873 547.7573 552.50906 559.8014">to see the knowledge about bill gates</tspan></text>
<text xml:space="preserve" transform="matrix(.75 0 0 .75 72 281.72657)" font-size="14.666667" font-family="Calibri"><tspan y="14.2369799" x="48 52.90927 59.54323 67.243488 70.60698 78.307239">typing</tspan></text>
<text xml:space="preserve" transform="matrix(.75 0 0 .75 72 281.72657)" font-size="14.666667" font-family="Calibri" font-style="italic"><tspan y="14.2369799" x="88.51938 92.176288 99.711948 103.07544 106.438938 109.80243 113.11583 120.65149 128.18715 132.93886 139.93779 145.64142">&#x2018;bill gates&#x2019;</tspan></text>
<text xml:space="preserve" transform="matrix(.75 0 0 .75 72 281.72657)" font-size="14.666667" font-family="Calibri"><tspan y="14.2369799" x="149.29833 152.99817 156.31157 163.45363 171.15389 178.44623 181.75963 188.42221 196.12247 203.79405 214.27098 217.63448 224.92682 232.62708 239.40407 246.69641 250.00981 257.7387 262.21144 265.52485 270.4341 278.13438 285.4267 288.7401 293.49183 300.56214 306.95283 311.8621 315.17549 322.19587 329.89613 337.625 345.32527">. The knowledge of the text about</tspan></text>
<text xml:space="preserve" transform="matrix(.75 0 0 .75 72 281.72657)" font-size="14.666667" font-family="Calibri"><tspan y="14.2369799" x="353.54795 361.2482 364.6117 367.9752 371.33869 374.6521 381.2787 388.16304 392.91474 400.2071 405.93934 409.25276 419.72969 423.09318 426.45668 429.82017 433.13356 440.8338 448.12617 451.43959 459.13984 464.0561 471.34846 477.0807 484.37306 491.93724 496.68894 503.98127 511.68153 515.6032 518.9166 522.28018 526.75289 530.0663 536.5283 544.2572 551.95748 555.2709 565.58309 572.60348 580.1676 585.0769 588.3903 593.1564">bill gates will be presented; if you want to</tspan></text>
<text xml:space="preserve" transform="matrix(.75 0 0 .75 72 297.16798)" font-size="14.666667" font-family="Calibri"><tspan y="14.2369799" x="48 52.916276 60.20862 67.908878 75.20122 82.08554 86.99481 90.30821 95.21748 102.91774 110.21008 113.52348 121.22374 126.097049 133.82593 140.02335 147.31569 153.04795 158.7802 162.0936 169.114 176.81426 184.51451 187.82791 193.56017 201.26042 208.932 219.40894 222.72234 230.45122 235.36049 243.06075 250.35309 255.46274 258.77613 262.13963 269.7539 273.9187 281.64759 286.75724 298.46507 305.34938 310.25868 313.62217 321.35105 329.0513 332.3647 339.38508 347.08534 354.8142 362.51448">repeat the process and show other information about</tspan></text>
<text xml:space="preserve" transform="matrix(.75 0 0 .75 72 297.16798)" font-size="14.666667" font-family="Calibri"><tspan y="14.2369799" x="370.73719 378.46607 383.37535 391.0756 398.36793 403.47758 406.79096 414.0833 421.6475 426.55677 429.92027 434.82954 438.19303 445.48536 451.2176 454.531 459.44029 466.07423 473.77449 481.06684 484.38026 488.03718 495.1151 497.35404 501.01094 504.32435 512.0532 516.9625 524.6628 531.95516 537.14358 547.6205 550.984 556.71627 564.0086 567.322 572.2313 578.8653 586.56558">other entities type &#x2018;y&#x2019;, otherwise type</tspan></text>
<text xml:space="preserve" transform="matrix(.75 0 0 .75 72 312.60939)" font-size="14.666667" font-family="Calibri"><tspan y="14.2369799" x="48 51.656908 59.357164 63.01407 66.32747 71.093509 78.82239 82.13579 89.206119 95.55382 98.91731 103.826587 107.139987 112.049259 119.74951 127.041858 130.35526 142.06308 149.08348 152.44698 160.14723 163.46063 166.82413 174.55301 182.28189 189.98215">&#x2018;n&#x2019; to exit the main loop.</tspan></text>
<text xml:space="preserve" transform="matrix(.75 0 0 .75 72 338.05079)" font-size="14.666667" font-family="Calibri"><tspan y="14.2369799" x="0 3.692688 8.601959 11.9153599 15.278854 21.011109 24.324509 31.34491 34.708406 40.44066 48.16954 51.48294 59.183198 66.91208 72.64433 78.37659 81.74008 89.44034 92.80383 100.096179 103.40958 108.17561 115.904499 119.217899 126.2383 132.43572 138.63314 145.92548 151.65773 157.38999 160.70339 167.36597 175.06623 182.73781 193.21474 196.57823 203.87058 211.57083 218.34783 225.64017 228.95357 236.68245 244.3827 249.29198 255.02423 258.38774 266.08799 273.3803 276.69374 281.603 289.30326">It is also possible to access knowledge outside the</tspan></text>
<text xml:space="preserve" transform="matrix(.75 0 0 .75 72 338.05079)" font-size="14.666667" font-family="Calibri"><tspan y="14.2369799" x="299.909 311.61683 318.6372 322.0007 329.70097 333.01435 336.37785 344.10673 351.8356 359.53587 363.19276 366.50617 373.52656 381.2268 384.54023 391.61054 397.69325 404.71363 416.42146 424.1217 427.4852 434.77754 438.09095 444.16664 451.187 458.88728 462.20069 469.90095 477.1933">main loop, an example can be:</tspan></text>
<text xml:space="preserve" transform="matrix(.75 0 0 .75 72 363.4922)" font-size="14.666667" font-family="Calibri"><tspan y="14.2369799" x="24 31.428315">1.</tspan></text>
<text xml:space="preserve" transform="matrix(.75 0 0 .75 72 363.4922)" font-size="14.666667" font-family="Calibri"><tspan y="14.2369799" x="48 51.692689 59.392946 62.706346 67.615619 75.31587 82.608219 85.921619 91.031269 98.73152 102.09502 109.38736 115.11961 118.81946 126.519718 129.88321 133.19661 137.66934 141.03284 144.39633 151.68868 155.00208 159.91135 167.6116 174.90395 179.82022 187.11257 190.42597 197.44637 202.36264 209.65499 212.96839 219.98879 223.30219 229.03444 236.248 241.15727 244.47068 252.19956 256.6723 259.98573 265.09538 272.79563 276.15913 283.45149 289.18373 292.49714 302.97407 310.67433 314.0378 320.23524">In the rules.pl file there are a set of rules which</tspan></text>
<text xml:space="preserve" transform="matrix(.75 0 0 .75 72 363.4922)" font-size="14.666667" font-family="Calibri"><tspan y="14.2369799" x="331.24885 342.95668 349.97706 356.16697 363.4593 366.7727 370.1362 375.04548 378.3589 386.05915 393.78804 399.52027 405.2525 408.616 416.31626 419.67976 426.9721 430.28553 435.05158 442.78047 446.09388 452.2913 457.20759 464.49995 471.38429 476.136 483.42835 486.74177 493.76216 497.07557 500.43907 503.80256 509.3701 514.27938 517.5928 524.61318 532.3134 540.0423 547.74258 552.65188 555.9653 560.8745 568.57479">make it possible to create a list about the</tspan></text>
<text xml:space="preserve" transform="matrix(.75 0 0 .75 72 378.9336)" font-size="14.666667" font-family="Calibri"><tspan y="14.2369799" x="48 52.90927 56.272768 61.182039 64.54553 71.837879 77.57013 80.88353 88.61241 93.085147 96.398548 103.418949 106.732349 112.4646 120.164859 127.4572 133.65462 137.01811 141.49085 144.85434 151.05176 154.36516 162.06542 169.35776 174.21675 179.949 187.67789 195.37815 198.69155 205.71195 213.4122 221.11246 224.42586 227.78936 231.15285 236.72039 241.62966 244.94306 252.67194 257.14466 260.45808 267.75044 279.45826 287.1585 290.522 298.17213 304.62705 311.91938 319.2117">titles of a specific person and list of employees</tspan></text>
<text xml:space="preserve" transform="matrix(.75 0 0 .75 72 378.9336)" font-size="14.666667" font-family="Calibri"><tspan y="14.2369799" x="328.25733 335.9862 340.45893 343.77235 350.79273 358.49299 361.8064 369.53529 374.4444 381.07099 388.09138 395.79164 399.15513 404.7011 411.58546 416.49473 419.85823 427.5871 435.28736 438.98719 442.3006 448.13929 455.86817 459.18159 465.379 470.2953 477.58766 484.472 489.2237 496.51606 499.82948 504.73875 512.43899 519.7313 523.04476 526.4082 529.7717 535.33926 540.24856 543.56198 551.29086 555.76358 559.07699 563.9862 567.34976 572.25906 575.62258 582.9149">of an organization. To create the list of titles</tspan></text>
<text xml:space="preserve" transform="matrix(.75 0 0 .75 72 394.375)" font-size="14.666667" font-family="Calibri"><tspan y="14.2369799" x="48 55.0204 62.720659 70.44954 78.149799 83.05907 86.37247 94.07272 97.43622 100.79971 104.16321 107.47661 114.10321 120.98753 125.73924 133.03159 138.76384 142.42075 145.73415 150.64342 157.27738 164.97763">about bill gates, type</tspan></text>
<text xml:space="preserve" transform="matrix(.75 0 0 .75 72 394.375)" font-size="14.666667" font-family="Calibri" font-style="italic"><tspan y="14.2369799" x="178.89678 182.26027 185.62377 191.16268 196.07195 203.37145 208.28072 211.64421 216.55348 219.91698 226.91591 234.21541 241.75107 248.75 253.77378 259.47743 266.99879 274.53443 278.97853 282.2132 289.74885 293.11235 296.47584 299.83934 303.1527 310.68836 318.224 322.9757 329.97465 335.67829 338.91297 343.35707">list_title_person('bill gates').</tspan></text>
<text xml:space="preserve" transform="matrix(.75 0 0 .75 72 409.8203)" font-size="14.666667" font-family="Calibri"><tspan y="14.2369799" x="24 31.428315">2.</tspan></text>
<text xml:space="preserve" transform="matrix(.75 0 0 .75 72 409.8203)" font-size="14.666667" font-family="Calibri"><tspan y="14.2369799" x="48 53.83867 61.56755 64.88095 72.58121 77.69086 81.05435 88.61853 93.5278 96.8412 101.75047 109.45073 116.74307 120.05647 123.41997 126.78346 132.351 137.26027 140.57367 144.08029 151.78055 157.34809 162.25736 165.57076 171.76818 176.68445 183.97679 190.86112 195.61283 202.90517 210.60543 213.91883 218.8281 225.46205 233.16231">To print the list just created type</tspan></text>
<text xml:space="preserve" transform="matrix(.75 0 0 .75 72 409.8203)" font-size="14.666667" font-family="Calibri" font-style="italic"><tspan y="14.2369799" x="243.76805 251.30371 256.32749 259.69099 267.0834 271.99269 279.29219 284.20146 287.56495 292.4742 295.8377 302.83665 308.54029 315.83979 319.20329 322.56678 328.10569 333.01496 337.45906 340.69374 348.22938 351.59288 354.95637">print_titles_list('bill</tspan></text>
<text xml:space="preserve" transform="matrix(.75 0 0 .75 72 409.8203)" font-size="14.666667" font-family="Calibri" font-style="italic"><tspan y="14.2369799" x="361.63328 369.16896 376.7046 381.4563 388.45524 394.15888 397.39356 401.83766">gates').</tspan></text>
<text xml:space="preserve" transform="matrix(.75 0 0 .75 72 409.8203)" font-size="14.666667" font-family="Calibri"><tspan y="14.2369799" x="408.8509 415.99296 423.6932 430.98554 434.29896 437.66246 441.02595 446.59349 451.50276 454.81617 462.54505 467.01777 470.33119 475.24046 478.60395 483.5132 486.8767 494.16908 499.9013 503.21473 513.69168 517.0552 520.4187 523.7822 527.09567 534.7959">The list of titles will be</tspan></text>
<text xml:space="preserve" transform="matrix(.75 0 0 .75 72 425.26173)" font-size="14.666667" font-family="Calibri"><tspan y="14.2369799" x="48 55.700258 59.06375 64.796009 72.49626 75.85976 82.60802 89.06293 96.35527 104.05553">displayed.</tspan></text>
<text xml:space="preserve" transform="matrix(.75 0 0 .75 72 440.70314)" font-size="14.666667" font-family="Calibri"><tspan y="14.2369799" x="24 31.428315">3.</tspan></text>
<text xml:space="preserve" transform="matrix(.75 0 0 .75 72 440.70314)" font-size="14.666667" font-family="Calibri"><tspan y="14.2369799" x="48 57.460725 65.13231 75.60924 78.92264 83.83191 89.01317 95.647129 98.960529 103.72656 111.455448 114.768848 120.96626 125.88254 133.17488 140.0592 144.81092 152.10326 155.41666 160.32593 168.02619 175.31853 178.63193 181.99542 185.35892 190.92646 195.83573 199.14913 206.878 211.35074 214.66414 219.57341 222.9369 227.84618 231.20967 238.50202 244.23427 247.54767 254.56807 262.2683 269.9972 277.69746 282.60673 285.9201 296.39704 299.76054 303.12403 306.48753 309.851 316.87144">Now try to create the list of titles about william</tspan></text>
<text xml:space="preserve" transform="matrix(.75 0 0 .75 72 440.70314)" font-size="14.666667" font-family="Calibri"><tspan y="14.2369799" x="331.89268 339.59294 346.88526 354.5855 359.76679 366.40077 369.71418 376.34077 383.2251 387.9768 395.26918 401.0014 404.31483 407.6783 411.0418 414.4053 417.7187 422.62797 429.2619 436.96217 440.32566 448.0259">henry gates iii typing</tspan></text>
<text xml:space="preserve" transform="matrix(.75 0 0 .75 72 456.14454)" font-size="14.666667" font-family="Calibri" font-style="italic"><tspan y="14.2369799" x="48 51.363496 54.72699 60.2659 65.17517 72.47467 77.38394 80.74744 85.65671 89.0202 96.019138 103.318637 110.854297 117.853229 122.877 128.58063 136.10198 143.63764 148.08174 151.31642 161.79335 165.15685 168.52034 171.88384 175.24733 182.78299 194.37631 197.68972 205.22537 212.2243 219.75997 224.8625 231.41774 234.73114 242.2668 249.80246 254.55417 261.5531 267.2567 270.57014 273.93363 277.29713 280.6606 283.8953">list_title_person('william henry gates iii')</tspan></text>
<text xml:space="preserve" transform="matrix(.75 0 0 .75 72 456.14454)" font-size="14.666667" font-family="Calibri"><tspan y="14.2369799" x="288.33943 292.03926 295.35267 302.37306 310.0733">. and</tspan></text>
<text xml:space="preserve" transform="matrix(.75 0 0 .75 72 456.14454)" font-size="14.666667" font-family="Calibri"><tspan y="14.2369799" x="321.08699 328.78724 333.89689 337.26039 344.82456 349.73384 353.04725 356.41075 361.32 364.63343 375.11036 378.47386 383.38313">print it with</tspan></text>
<text xml:space="preserve" transform="matrix(.75 0 0 .75 72 456.14454)" font-size="14.666667" font-family="Calibri" font-style="italic"><tspan y="14.2369799" x="397.71015 405.2458 410.26957 413.63307 421.02549 425.93476 433.23426 438.14353 441.50703 446.4163 449.7798 456.77873 462.48237 469.78187 473.14537 476.50886 482.04777 486.95704 491.40113 494.6358 505.11274 508.47624 511.83973 515.20327 518.5668 526.1024 537.69577 541.00918 548.5448 555.5437 563.07937 568.1819">print_titles_list('william henry</tspan></text>
<text xml:space="preserve" transform="matrix(.75 0 0 .75 72 471.58595)" font-size="14.666667" font-family="Calibri" font-style="italic"><tspan y="14.2369799" x="48 55.53566 63.07132 67.82303 74.82196 80.52559 83.83899 87.202487 90.56598 93.929477 97.164157 101.60826">gates iii').</tspan></text>
<text xml:space="preserve" transform="matrix(.75 0 0 .75 72 487.02735)" font-size="14.666667" font-family="Calibri"><tspan y="14.2369799" x="24 31.428315">4.</tspan></text>
<text xml:space="preserve" transform="matrix(.75 0 0 .75 72 487.02735)" font-size="14.666667" font-family="Calibri"><tspan y="14.2369799" x="48 56.4803 62.212556 65.525959 71.98802 79.7169 87.41716 90.73056 96.80623 103.82663 111.526889 114.84029 120.57254 127.86488 135.15723 138.47063 143.3799 151.08016 158.3725 161.6859 166.59517 169.95867 174.86794 178.23143 185.52378 188.83718 196.56606 201.03879 204.35219 210.12712 217.14752 224.84778 229.75705 237.4573 245.18619 250.94753 257.08055 260.39393 263.75743 269.4897 272.8031 279.8235 285.55574 291.28797 299.01686 305.21427 308.57777 315.46208 320.21379 327.50614">As you can see the title of &#x201c;author&#x201d; is associated</tspan></text>
<text xml:space="preserve" transform="matrix(.75 0 0 .75 72 487.02735)" font-size="14.666667" font-family="Calibri"><tspan y="14.2369799" x="338.51985 348.99678 352.36027 357.26954 364.9698 368.2832 378.76014 382.12364 385.48713 388.85063 392.2141 399.2345 410.94233 414.25575 421.956 429.24836 436.9486 442.12989 448.76387 452.07728 458.70387 465.5882 470.3399 477.63227 483.3645 486.67793 490.0414 493.4049 496.7684 500.0818 507.78205 515.4823 520.3916 523.705 531.4053 539.13418 544.04348 547.3569 552.1229 559.8518 563.1652 570.8655 574.229 577.5925">with william henry gates iii but not to bill</tspan></text>
<text xml:space="preserve" transform="matrix(.75 0 0 .75 72 502.46876)" font-size="14.666667" font-family="Calibri"><tspan y="14.2369799" x="48 54.626604 61.510927 66.262638 73.55498 79.28723 82.987079 86.300479 89.66397 94.1367 97.4501 102.359378 110.05963 117.351978 120.665378 125.574649 135.9155 143.64438 146.95778 154.25012 161.8143 166.72357 170.08707 174.99634 181.6303 184.9437 189.85997 197.02339 201.13088 208.42322 213.53287 216.84627 221.6123 229.34119 232.65459 237.56386 245.26412 252.55646 255.86986 261.6021 268.6225 280.33033 287.62269 290.9361 298.63636 305.9287 310.7877 316.51997 324.24885">gates. if the two entity refer to the same person</tspan></text>
<text xml:space="preserve" transform="matrix(.75 0 0 .75 72 502.46876)" font-size="14.666667" font-family="Calibri"><tspan y="14.2369799" x="335.26246 340.17173 347.87199 352.7453 360.47419 368.17445 375.07319 382.77345 386.08686 393.10725 400.8075 404.1209 411.1413 414.5048 417.8683 424.88868 430.6209 433.93434 438.8506 446.14295 449.50645 456.39076 461.30003 464.6635 472.3924 480.09266 485.8249 493.52516 496.88865 504.5889 508.2458 511.5592 521.9072 529.1996 532.513 538.5887 545.6091 553.3093 556.62277 564.323 572.02328 579.7235 586.60787 591.35958">through an alias relationship, we can update</tspan></text>
<text xml:space="preserve" transform="matrix(.75 0 0 .75 72 517.91409)" font-size="14.666667" font-family="Calibri"><tspan y="14.2369799" x="48 52.90927 60.609529 67.90187 71.21527 76.12454 86.46539 94.194278 97.507678 100.87117 104.234668 109.8022 114.71147 120.443729 123.757129 134.23406 137.59755 142.50682">the two lists with</tspan></text>
<text xml:space="preserve" transform="matrix(.75 0 0 .75 72 517.91409)" font-size="14.666667" font-family="Calibri" font-style="italic"><tspan y="14.2369799" x="153.52048 161.05614 168.5918 176.12746 183.66312 188.41483 195.41376 202.71326 207.62253 210.98603 215.8953 219.25879 226.25772 233.55722 241.09288 244.45638 247.81987 255.35553 261.05915 265.50325 268.7379 276.27357 279.63706 283.00056 286.36405 289.67744 297.21308 304.74873 309.50044 316.49937 322.203 325.43769 329.15907 336.7663">update_title_alias('bill gates',X)</tspan></text>
<text xml:space="preserve" transform="matrix(.75 0 0 .75 72 517.91409)" font-size="14.666667" font-family="Calibri"><tspan y="14.2369799" x="341.21046">.</tspan></text>
<text xml:space="preserve" transform="matrix(.75 0 0 .75 72 517.91409)" font-size="14.666667" font-family="Calibri"><tspan y="14.2369799" x="348.2237 355.24409 362.94435 370.6446 373.958 378.86729 386.56755 393.85987 397.17329 403.57807 410.59846 415.7081 419.0716 426.09199 433.79225 437.15574 444.44807 447.76148 455.3687 458.68214 469.15907 472.52256 475.88606 479.24955 482.56294 490.26319 497.55555 500.86897 508.5692 516.2695 519.63296 524.10568 527.4691 534.7615 542.46176 545.77517 556.2521 559.6156 564.5249 572.22518 575.5386 580.4479 588.14816">and the variable X will be unified with the</tspan></text>
<text xml:space="preserve" transform="matrix(.75 0 0 .75 72 533.35549)" font-size="14.666667" font-family="Calibri"><tspan y="14.2369799" x="48 55.0204 58.383897 61.74739 68.76779 74.500049 77.813449 85.5137 92.806049 97.66504 103.39729 111.126178 118.82643 122.13983 125.50333 129.20317 136.49552 139.80892 150.28585 153.64934 157.01284 160.37633 163.73983 170.76023 182.46805 185.78145 193.4817 200.77405 208.4743 213.65557 220.28952 223.60292 230.22953 237.11385 241.86556 249.1579 254.89015 258.20356 261.56706 264.93055 268.29405">alias person i.e william henry gates iii.</tspan></text>
<text xml:space="preserve" transform="matrix(.75 0 0 .75 72 548.7969)" font-size="14.666667" font-family="Calibri"><tspan y="14.2369799" x="24 31.428315">5.</tspan></text>
<text xml:space="preserve" transform="matrix(.75 0 0 .75 72 548.7969)" font-size="14.666667" font-family="Calibri"><tspan y="14.2369799" x="51.3134 55.00609 59.47882 62.79222 73.14023 80.43257 83.74597 88.66225 95.95459 103.65485 108.764499 112.12799 119.69217 124.60144 127.91484 132.82411 140.52437 147.81671 151.13011 154.4936 157.8571 163.42464 168.33391 171.64731 179.37619 183.84893 187.16233 192.0716 195.43509 200.34436 203.70786 211.0002 216.73246 220.04586 230.52278 233.88628 238.79555">If we reprint the list of titles with</tspan></text>
<text xml:space="preserve" transform="matrix(.75 0 0 .75 72 548.7969)" font-size="14.666667" font-family="Calibri" font-style="italic"><tspan y="14.2369799" x="249.8092 257.34486 262.36863 265.73213 273.12455 278.0338 285.3333 290.24259 293.60609 298.51536 301.87886 308.87779 314.58143 321.88093 325.24443 328.6079 334.14683 339.0561 343.50019 346.73487 354.2705 357.634 360.9975">print_titles_list('bill</tspan></text>
<text xml:space="preserve" transform="matrix(.75 0 0 .75 72 548.7969)" font-size="14.666667" font-family="Calibri" font-style="italic"><tspan y="14.2369799" x="367.67445 375.21009 382.74574 387.49745 394.49638 400.2 403.4347 407.87879">gates').</tspan></text>
<text xml:space="preserve" transform="matrix(.75 0 0 .75 72 548.7969)" font-size="14.666667" font-family="Calibri"><tspan y="14.2369799" x="414.89204 419.8013 427.50157 434.79389 438.1073 441.4708 444.8343 450.40184 455.3111 458.6245 469.10145 472.46495 475.82844 479.19194 482.5053 489.5257 492.8892 498.62147 506.35035 509.66377 515.73947 523.4683 531.0325 535.7627 542.7831 546.1466">the list will also contain</tspan></text>
<text xml:space="preserve" transform="matrix(.75 0 0 .75 72 564.2383)" font-size="14.666667" font-family="Calibri"><tspan y="14.2369799" x="48 51.29883 58.31923 66.019489 70.92876 78.62901 86.357898 92.11923 95.77614 99.08954 104.82179 108.18529 115.885547 122.08296 129.3753 132.6887 137.59798 145.29824 152.59058 155.90398 161.01363 168.71389 172.07738">&#x2018;author&#x2019; since the rule</tspan></text>
<text xml:space="preserve" transform="matrix(.75 0 0 .75 72 564.2383)" font-size="14.666667" font-family="Calibri" font-style="italic"><tspan y="14.2369799" x="182.68312 190.21878 197.75444 205.2901 212.82576 217.57747 224.5764 231.8759 236.78517 240.14867 245.05794 248.42144 255.42037 262.71986 270.2555 273.619 276.98249 284.51814 290.22175 294.66584 297.9005 305.43617 308.79966 312.16316 315.52665 318.84004 326.37568 333.91133 338.66304 345.66197 351.3656 354.60029 358.32167 365.9289 370.373">update_title_alias('bill gates',X).</tspan></text>
<text xml:space="preserve" transform="matrix(.75 0 0 .75 72 564.2383)" font-size="14.666667" font-family="Calibri"><tspan y="14.2369799" x="377.38636 385.0866 392.107 397.83924 401.15266 408.8529 416.55317 419.91667 424.3894 427.7529 435.04524 442.74549 446.0589 450.96818 458.66844 465.96076 469.27418 474.18345 477.54695 482.4562 485.8197 493.11207 498.8443 502.1577 505.5212 508.8847 514.4523 519.3616 525.0938 528.4072 536.1361 540.6088 543.92227 551.6225 554.98599 558.3495 561.713 565.0264 571.653 578.53738 583.28909 590.5814">has unified the titles lists of bill gates</tspan></text>
<text xml:space="preserve" transform="matrix(.75 0 0 .75 72 579.6797)" font-size="14.666667" font-family="Calibri"><tspan y="14.2369799" x="48 55.0204 62.720659 70.42091 73.734317 84.21124 87.57474 90.93823 94.30173 97.66522 104.68562 116.39345 119.70685 127.407108 134.69945 142.3997 147.58097 154.21492 157.52832 164.15493 171.03925 175.79096 183.0833 188.81555 192.12895 195.49245 198.85594 202.21944">and william henry gates iii.</tspan></text>
<text xml:space="preserve" transform="matrix(.75 0 0 .75 72 605.1211)" font-size="14.666667" font-family="Calibri"><tspan y="14.2369799" x="0 9.460724 17.189606 21.941315 29.233658 32.54706 37.45633 45.156587 52.04091 56.95018 60.26358 65.17285 72.87311 80.16545 83.47885 90.771198 98.33537 103.244647 108.4259 115.05986 118.37326 126.07352 133.8024 137.1659 144.73007 149.63935 152.95275 160.68163 165.15436 168.46776 173.37703 181.07729 188.36963 191.68303 199.38329 204.25659 211.98548 218.88422 223.69307 230.71347 242.4213 245.7347 251.81037 258.83076 266.531 269.84443 277.54469 284.83705 288.15046 295.17085 302.59895">Note that the entry point of the program can be any</tspan></text>
<text xml:space="preserve" transform="matrix(.75 0 0 .75 72 605.1211)" font-size="14.666667" font-family="Calibri"><tspan y="14.2369799" x="312.5463 317.65596 325.3562 328.7197 336.01203 339.93373 343.24714 347.41194 355.1408 360.25047 363.56385 375.27168 383.00056 387.9168 395.20918 398.52259 401.88609 409.58634 415.15388 420.06315 425.1728 432.87306 439.07048 443.97975 447.34324 455.0721 462.77238 468.50465 471.81806 477.5503 484.84266">rule; for more instructions see</tspan></text>
<text fill="#1155cc" xml:space="preserve" transform="matrix(.75 0 0 .75 72 605.1211)" font-size="14.666667" font-family="Calibri"><tspan y="14.2369799" x="495.44837 499.14106 506.70524 511.45695 518.74929 523.8589 531.55917 538.5795">Internal</tspan></text>
<text fill="#1155cc" xml:space="preserve" transform="matrix(.75 0 0 .75 72 620.5625)" font-size="14.666667" font-family="Calibri"><tspan y="14.2369799" x="0 7.8147585 15.54364 27.251465 34.95172 42.680604 50.38086 57.673204 65.23738 70.14665 75.87891 79.19231 83.67935 86.99275 94.56419 99.4375 107.16638 110.52988 118.25876 125.1575 128.4709 136.17096 143.4633 150.4837 156.21596 163.94484 171.6451 175.00859 182.70885">Components - Prolog Reasoning</tspan></text>
<text xml:space="preserve" transform="matrix(.75 0 0 .75 72 620.5625)" font-size="14.666667" font-family="Calibri"><tspan y="14.2369799" x="189.60759">.</tspan></text>
</g>
<clipPath id="cp201">
<path d="M 0 0 L 595.5 0 L 595.5 842.25 L 0 842.25 Z " fill-rule="evenodd"/>
</clipPath>
<g clip-path="url(#cp201)">
<path transform="matrix(.75,0,0,.75,72,605.1211)" stroke-width="1.3333334" stroke-linecap="butt" stroke-miterlimit="10" stroke-linejoin="miter" fill="none" stroke="#1155cc" d="M 496 16.504557 L 541.3333 16.504557 "/>
<path transform="matrix(.75,0,0,.75,72,620.5625)" stroke-width="1.3333334" stroke-linecap="butt" stroke-miterlimit="10" stroke-linejoin="miter" fill="none" stroke="#1155cc" d="M 0 15.915364 L 189.33333 15.915364 "/>
</g>
</g>
</svg>
