<?xml version="1.0" encoding="UTF-8" standalone="no"?>
<!DOCTYPE svg PUBLIC "-//W3C//DTD SVG 1.1//EN" "http://www.w3.org/Graphics/SVG/1.1/DTD/svg11.dtd">
<svg xmlns="http://www.w3.org/2000/svg" xmlns:xlink="http://www.w3.org/1999/xlink" version="1.1" width="596pt" height="842pt" viewBox="0 0 596 842">
<g enable-background="new">
<clipPath id="cp202">
<path d="M 0 0 L 595.5 0 L 595.5 842.25 L 0 842.25 Z " fill-rule="evenodd"/>
</clipPath>
<g clip-path="url(#cp202)">
<path transform="matrix(.75,0,0,.75,0,0)" d="M 0 0 L 794 0 L 794 1123 L 0 1123 Z " fill="#ffffff"/>
</g>
<clipPath id="cp203">
<path d="M 0 0 L 595.5 0 L 595.5 842.25 L 0 842.25 Z " fill-rule="evenodd"/>
</clipPath>
<g clip-path="url(#cp203)">
<text xml:space="preserve" transform="matrix(.75 0 0 .75 72 72)" font-size="26.666666" font-family="Calibri"><tspan y="25.885416" x="-9 5.0047457 18.267792 28.693406 42.69835 48.81575 57.744554 68.170169 74.19646 86.964908 100.96985 114.97479 121.00108 135.21428 149.27129 163.27623 174.54787 180.66527 194.67021 205.09583 211.21323 225.27024 239.27518">Results and Conclusions</tspan></text>
<text xml:space="preserve" transform="matrix(.75 0 0 .75 72 106.07422)" font-size="14.666667" font-family="Calibri"><tspan y="14.2369799" x="-9 3.5017853 10.794128 14.107529 20.183197 27.203598 34.903856 38.217256 44.292924 52.021806 59.72206 65.454319 68.81781 76.51807 83.81041 88.92006 92.23346 97.14273 104.84299 112.13533 115.44873 127.156558 134.17696 137.54045 145.2407 148.55411 156.28299 163.98325 167.48987 174.78221 180.97963 185.8889 189.2524 195.7288 203.02115 206.33455 214.06343 218.53617 221.84957 226.75884 234.45909 241.75144 245.06484 252.76508 257.63838 265.36726 268.87388 276.1662 282.36363">We can consider the main objective of the project</tspan></text>
<text xml:space="preserve" transform="matrix(.75 0 0 .75 72 106.07422)" font-size="14.666667" font-family="Calibri"><tspan y="14.2369799" x="290.58634 298.2866 305.307 310.41667 315.32594 318.68943 325.70985 329.07334 332.43684 339.0708 342.38423 349.4046 355.60203 363.30229 366.66578 373.88648 380.36289 387.6552 395.35548 399.0553 402.3687 409.51078 417.21104 424.50337 427.81678 433.28407 439.78193 445.34947 450.10118 457.3935 469.10133 472.41474 478.49043 485.5108 493.21107 496.52449 501.44075 508.7331 514.8088 522.53768 529.4364 537.13668 540.5001 545.9602 553.25259 556.566 562.2982 565.66177 577.36959 585.0698 588.43338">partially achieved. The system can recognize simple</tspan></text>
<text xml:space="preserve" transform="matrix(.75 0 0 .75 72 121.515628)" font-size="14.666667" font-family="Calibri"><tspan y="14.2369799" x="-9 -4.083725 3.2086182 6.572113 13.456436 18.365708 21.729203 29.458085 37.15834 42.890596 50.59085 53.954347 61.582979 67.31523 70.62863 73.99213 81.69238 85.00578 89.915058 97.61531 104.90765 108.221057 111.58455 119.284809 126.98506 134.68532 139.59459 142.90799 147.6597 154.73003 161.1207 166.02997 169.68688 173.00028 180.70053 187.99288 193.10253 197.2673 204.99619 210.10584 221.81366 225.12706 231.20273 238.93161 243.84789 251.01129 255.11878 262.41114 267.3274 274.61976 282.32 288.51744">relationships in the input text, perform coreference</tspan></text>
<text xml:space="preserve" transform="matrix(.75 0 0 .75 72 121.515628)" font-size="14.666667" font-family="Calibri"><tspan y="14.2369799" x="299.12318 304.03944 311.3318 317.06404 324.7929 328.1564 335.85667 340.76594 344.12944 351.8583 359.55857 362.87196 369.89234 377.5926 385.29286 388.60627 395.67658 402.06727 406.97654 411.7854 418.8058 425.0032 429.91249 433.2259 438.13517 443.2448 446.6083 454.30857 457.67207 464.96443 470.69667 474.01008 477.37358 485.07383 488.3872 494.11946 501.4118 508.97599 513.72769 521.02 528.7203 534.9177 542.2101 547.9423 551.59927 554.91268 562.20498 569.9052 575.0149 578.3784 584.5758">resolution and extract triples in sentences, enrich</tspan></text>
<text xml:space="preserve" transform="matrix(.75 0 0 .75 72 136.96094)" font-size="14.666667" font-family="Calibri"><tspan y="14.2369799" x="-9 -4.0907289 3.6095277 10.901871 14.215271 21.915528 28.79985 33.530076 40.550477 43.863878 51.564134 57.296388 60.65988 68.36014 75.25888 78.57228 91.61119 94.974689 101.63727 105.00076 112.70102 119.99336 127.69362 131.05712 138.07752 141.39092 147.12317 154.82343 166.53125 178.23908 185.25948 190.36913 193.73262 201.02497 206.75722 210.07062 217.09102 224.79128 232.52016 240.22042 245.12969 248.44309 254.633 261.8322 268.4662 271.7796 276.5313 283.82368 288.93333 300.64115">the data using Wikipedia summaries about key terms</tspan></text>
<text xml:space="preserve" transform="matrix(.75 0 0 .75 72 136.96094)" font-size="14.666667" font-family="Calibri"><tspan y="14.2369799" x="309.68678 317.41566 321.88838 325.20179 330.11106 337.8113 345.10365 348.41706 353.16877 360.23908 366.62977 371.53904 374.85243 381.8728 389.57307 397.27333 400.58674 403.95024 415.65806 423.3583 428.23164 435.89607 442.37248 449.6648 452.9782 457.88749 465.58775 472.88008 476.19349 483.21388 486.57737 489.94087 496.96125 502.69349 506.0069 510.92317 518.2155 523.94778 531.67666 535.04019 542.7404 547.64968 551.0132 558.74209 566.4423 572.17459">of the text and improve the alias resolutions.</tspan></text>
<text xml:space="preserve" transform="matrix(.75 0 0 .75 72 152.40235)" font-size="14.666667" font-family="Calibri"><tspan y="14.2369799" x="-9 -.5196991 2.8437958 7.753067 15.453323 23.182206 30.882462 37.781206 45.48146 48.79486 53.704133 61.40439 68.69673 72.01013 76.92641 84.21875 89.951007 97.65126 101.014759 105.92403 111.65628 114.96968 122.69856 127.171298 130.4847 135.39397 143.09423 150.38657 153.69997 161.08518 168.78543 176.45702 186.93395 190.29744 197.58979 205.29004 212.06703 219.35938 222.67278 230.64498 237.66538 243.39763 250.68997 254.00336 261.73225 266.20497 269.51838 276.53877 279.85218 286.75093 290.1144 296.59083 303.88316">Although the results of the Knowledge Base of a given</tspan></text>
<text xml:space="preserve" transform="matrix(.75 0 0 .75 72 152.40235)" font-size="14.666667" font-family="Calibri"><tspan y="14.2369799" x="314.89686 318.26036 325.9606 333.66087 341.3611 346.2704 349.5838 354.3355 361.40583 367.7965 372.70579 376.01918 382.09486 389.11524 396.8155 400.1289 407.82917 415.12153 418.43495 424.51063 432.2395 439.93977 445.672 449.0355 456.73576 464.02809 468.94435 476.2367 483.93696 487.25038 492.9826 500.68287 506.88029 513.0777 520.37008 526.1023 531.6985 536.1712 543.87149 547.235 550.8919 554.2053 561.9342 566.4069 571.1586 578.4509">input text can be considered successful, often</tspan></text>
<text xml:space="preserve" transform="matrix(.75 0 0 .75 72 167.84375)" font-size="14.666667" font-family="Calibri"><tspan y="14.2369799" x="-9 -4.0907289 3.6095277 10.901871 14.215271 17.578766 25.19307 29.35785 37.08673 42.19638 53.904207 60.78853 65.6978 69.061298 76.79018 84.49043 87.80383 93.8795 100.8999 108.60016 111.91356 119.613819 126.90616 130.21956 133.58306 141.28331 147.35898 155.08786 166.79569 174.49594 177.85944 185.073 189.8247 197.11705 200.43045 207.45085 215.15111 222.85137 226.16477 231.89702 239.6259 251.33374 258.5473 263.45655 266.82005 278.52787 285.8202 291.55244 294.86585 302.5661 309.34303 315.8194">the information can be incomplete and sometimes have</tspan></text>
<text xml:space="preserve" transform="matrix(.75 0 0 .75 72 167.84375)" font-size="14.666667" font-family="Calibri"><tspan y="14.2369799" x="326.42518 334.12544 341.8543 345.2178 350.95008 358.24244 361.55586 366.46513 374.16539 381.04969 385.95896 389.27235 395.34803 402.3684 410.06867 413.38209 421.08235 425.9986 433.2193 439.6957 446.98805 454.55223 459.4615 462.7749 467.68418 475.38444 482.67677 485.99018 493.69044 497.05393 502.7862 508.86189 516.5263 523.0027 530.29507 535.4763 542.1103 545.4237 553.1526 557.6253 560.9387 568.639 575.8597">noise that can prevent the discovery of new</tspan></text>
<text xml:space="preserve" transform="matrix(.75 0 0 .75 72 183.28907)" font-size="14.666667" font-family="Calibri"><tspan y="14.2369799" x="-9 -2.3374177 5.3628389 13.034424 23.511353 26.874848 34.16719 41.867448 48.64444 55.936784">knowledge.</tspan></text>
<text xml:space="preserve" transform="matrix(.75 0 0 .75 72 208.72657)" font-size="14.666667" font-family="Calibri"><tspan y="14.2369799" x="-9 3.5017853 10.794128 14.107529 21.807785 28.584687 35.061098 42.35344 45.66684 50.41855 57.71089 63.278429 68.030139 75.32248 83.022739 86.336139 91.24541 98.94566 106.23801 109.55141 115.01868 121.516559 127.08409 131.8358 139.12815 150.83597 154.14937 164.6263 167.98979 172.89907 180.59932 183.91272 191.61298 194.97647 199.30597 203.41345 210.7058 215.62207 222.91442 230.47859 235.38787 238.70127 245.36385 248.72736 256.4276 264.12788 269.8601 273.17353 280.9024">We have tested the system with different kinds of</tspan></text>
<text xml:space="preserve" transform="matrix(.75 0 0 .75 72 208.72657)" font-size="14.666667" font-family="Calibri"><tspan y="14.2369799" x="288.68855 296.3888 304.11769 310.3151 318.01536 329.72319 337.0155 344.57969 349.48896 355.2212 358.5346 365.555 373.25526 380.9555 384.61244 387.92585 394.94624 406.65406 414.38294 422.0832 428.98194 432.29536 439.31575 442.67924 446.04273 449.35615 454.2654 461.96568 469.258 472.5714 477.48069 484.11463 491.81489 499.10725 504.83949 508.1529 515.8818 520.3545 523.6679 527.0314 534.7316 542.4319 550.13217 555.0414 558.6983 562.0117 572.35977">documents and, among all the types of input, we</tspan></text>
<text xml:space="preserve" transform="matrix(.75 0 0 .75 72 224.16797)" font-size="14.666667" font-family="Calibri"><tspan y="14.2369799" x="-9 -4.8352205 2.8936616 10.593918 18.294175 25.99443 29.30783 34.217103 41.91736 48.80168 53.710954 57.024354 64.72461 68.088108 75.816989 82.71573 87.52458 94.54498 102.24524 109.945499 113.30899 119.50641 122.81981 127.57152 134.64185 141.03252 145.94179 151.67404 154.98744 162.00785 168.20526 175.90552 179.26902 186.48973 192.96614 200.25849 203.57189 208.48116 216.18141 223.47376 226.78716 234.48741 241.77976 247.34729 252.25653 255.56995 260.4862 267.77857 273.5108 281.21107 284.57456">found that biographic texts achieve the best result</tspan></text>
<text xml:space="preserve" transform="matrix(.75 0 0 .75 72 224.16797)" font-size="14.666667" font-family="Calibri"><tspan y="14.2369799" x="292.79725 298.52949 301.89299 309.59324 315.79066 323.083 326.39643 331.3057 339.00596 346.29829 349.6117 361.31953 368.3399 371.84654 379.5754 384.68507 388.04856 392.95783 399.5918 402.9052 410.6341 415.1068 418.42024 424.15248 431.44483 439.009 443.7607 451.05305 458.7533 464.9507 472.24305 477.97529 481.2887 488.30909 493.22535 500.5177 503.83113 509.56336 512.9269 524.6347 532.33499 535.6985">since the majority of sentences are simple</tspan></text>
<text xml:space="preserve" transform="matrix(.75 0 0 .75 72 239.60938)" font-size="14.666667" font-family="Calibri"><tspan y="14.2369799" x="-9 -4.555893 3.172989 10.873245 14.379868 21.67221 27.869629 32.327714 36.81476 44.515016 49.43129 56.723634 64.42389 67.787387 73.86305 80.747379 85.499088 92.79143 97.27847 105.007358 112.70761 116.21423 123.50658 129.704 134.61327 139.05738 142.37078 149.39118 157.09143 164.79169 168.10509 175.12549 180.04177 187.3341 190.6475 197.93985 204.96025 210.6925 214.056 217.4195 224.05345 227.36685 239.07468 245.959 250.68921 256.88667 264.5869 271.87928 279.57954 282.89295 290.52156">(object-predicate-object) and are easily matched by</tspan></text>
<text xml:space="preserve" transform="matrix(.75 0 0 .75 72 239.60938)" font-size="14.666667" font-family="Calibri"><tspan y="14.2369799" x="300.46888 305.37815 313.0784 320.37074 323.68415 330.41828 335.1485 342.16889 349.7832 353.948 361.67689 366.586 374.28627 377.59968 380.96318 384.32667 392.02693 396.83576 403.85615 409.0374 414.70457">the Stanford library.</tspan></text>
<text xml:space="preserve" transform="matrix(.75 0 0 .75 72 265.0547)" font-size="14.666667" font-family="Calibri"><tspan y="14.2369799" x="-9 3.5017853 10.794128 14.107529 19.0168 26.717057 30.080552 37.780809 44.44339 47.75679 52.66606 60.366319 67.25064 72.15991 75.47331 82.49371 85.80711 97.51494 104.53534 108.04196 115.77084 120.88049 124.19389 127.55739 139.26522 146.96547 151.83878 159.50319 165.9796 173.27194 184.97977 192.27211 199.83629 204.74556 208.05896 215.78784 220.26058 223.57398 228.48325 236.1835 243.47585 246.78925 253.80963 261.5099 269.21015 272.57365 275.93714 282.01283 288.8971 293.8064 297.1699 304.89878">We think that a major improvement of the application</tspan></text>
<text xml:space="preserve" transform="matrix(.75 0 0 .75 72 265.0547)" font-size="14.666667" font-family="Calibri"><tspan y="14.2369799" x="315.91246 321.9881 329.00849 336.70875 340.02217 347.7224 355.01478 358.3282 365.34858 371.546 379.24626 382.60975 389.83045 396.30686 403.59919 411.29945 414.61286 422.2415 428.87544 432.18885 439.8891 445.62135 448.98484 456.6851 463.58384 466.89723 473.9176 477.23103 484.93128 492.14485 496.84645 501.59815 508.8905 514.0001 517.31356 522.2298 529.52218 532.8856 539.76998 544.6792 548.0427 555.7716">can be achieved by using a better relation</tspan></text>
<text xml:space="preserve" transform="matrix(.75 0 0 .75 72 280.4922)" font-size="14.666667" font-family="Calibri"><tspan y="14.2369799" x="-9 -1.9296723 4.4609987 9.37027 14.179123 21.199524 27.396943 32.306215 35.66971 43.39859 51.098848 54.412248 61.432649 64.79614 71.59462 79.3235 84.43315 87.796649 92.70592 100.40617 112.114 115.81384 119.12724 127.607547 130.92095 138.6212 141.9847 146.3142 150.42168 157.71402 162.6303 169.92264 177.48682 182.39609 185.70949 189.07299 192.43648 200.13674 204.94559 211.96599 217.14725 223.7812 227.0946 238.80243 245.55069 252.18463 255.49805 259.97077 263.33427 271.03453">extraction algorithm. A different library may find</tspan></text>
<text xml:space="preserve" transform="matrix(.75 0 0 .75 72 280.4922)" font-size="14.666667" font-family="Calibri"><tspan y="14.2369799" x="282.0482 289.74845 293.11195 297.44145 301.54893 308.84126 313.7575 321.04988 328.61405 333.52333 336.83674 341.753 349.04536 352.40885 359.29316 364.20243 367.56593 375.2948 382.99507 388.7273 396.42756 399.79106 407.41969 413.15193 416.46534 419.82884 427.52909 430.84248 435.75175 443.452 450.74433 454.05775 458.80946 465.87977 472.27046 477.17973 480.8366 484.15003 487.51353 499.22135 506.9216 511.79493 519.45938 526.079 529.4425 537.14279 544.0415 547.35488 552.26419 559.9644">different relationships in the text, improving the</tspan></text>
<text xml:space="preserve" transform="matrix(.75 0 0 .75 72 295.9375)" font-size="14.666667" font-family="Calibri"><tspan y="14.2369799" x="-9 -1.2997437 6.429138 12.161392 17.893647 21.257142 28.957398 32.320894 39.613237 42.926637 47.84291 55.135255 62.155656 67.88791 75.61679 83.31705 86.68054 94.3808 101.27954 104.59294 109.50221 117.20247 124.08679 128.99607 132.30947 138.38513 145.40554 153.10579 156.41919 164.11945 171.41179 174.72519 182.42545 190.15433 197.85459 205.14693">possible reasoning that can be done.</tspan></text>
<text xml:space="preserve" transform="matrix(.75 0 0 .75 72 321.3789)" font-size="14.666667" font-family="Calibri"><tspan y="14.2369799" x="-9 -.5196991 7.1805574 14.909439 19.81871 27.518967 34.81131 39.92096 43.23436 46.597856 58.30568 66.005939 70.87924 78.543659 85.020069 92.31241 104.02023 111.31258 118.876758 123.786029 127.09943 133.1751 140.1955 147.89575 151.20915 158.90941 166.20175 169.51515 174.43143 181.72377 188.35037 195.37078 200.27989 207.98015 211.34365 219.0439 225.94264 229.25605 234.16532 241.86557 249.1579 252.47132 259.4917 271.19953 278.9284 286.62867 294.1928 299.1021 302.41554 310.1444">Another improvement can be regarding the amount of</tspan></text>
<text xml:space="preserve" transform="matrix(.75 0 0 .75 72 321.3789)" font-size="14.666667" font-family="Calibri"><tspan y="14.2369799" x="317.93055 322.8398 326.2033 337.91114 345.2035 348.5169 353.43318 360.72554 368.42579 376.12605 379.48954 384.40583 391.69819 399.39845 402.71186 406.87666 414.60554 419.71519 423.02857 430.09889 436.05986 443.35218 449.5496 457.24986 462.15913 465.5226 473.2515 480.95176 484.60865 487.92207 491.28556 496.19483 499.50825 507.2085 514.50088 520.57656 528.3054 540.01327 547.3056 553.03787 556.35128 562.82766 570.12 575.3013">time required for execution, it becomes very</tspan></text>
<text xml:space="preserve" transform="matrix(.75 0 0 .75 72 336.8203)" font-size="14.666667" font-family="Calibri"><tspan y="14.2369799" x="-9 -4.0907289 -.7272339 10.980591 18.272934 22.75998 28.835648 36.56453 44.264787 49.99704 57.697298 69.40512 72.768619 80.46887 87.367618 90.681018 98.38127 106.08153 113.37387 116.68727 121.45331 129.18219 132.49559 137.40486 145.10512 152.39746 155.71086 166.18779 169.55129 176.21387 179.57736 187.27762 194.56996 202.27022 205.63372 212.65412 215.96752 222.04319 229.06359 232.42708 235.79058 241.52283 244.83623 251.85663 259.5569 267.25715 270.57057 275.47984 283.18009">time-consuming due to the wikipedia calls and the</tspan></text>
<text xml:space="preserve" transform="matrix(.75 0 0 .75 72 336.8203)" font-size="14.666667" font-family="Calibri"><tspan y="14.2369799" x="293.78584 298.6951 302.0586 313.76643 321.05879 324.3722 332.07246 339.3648 346.65718 354.35743 361.64979 369.35005 372.66346 377.4295 385.1584 388.4718 395.4922 403.19245 410.21284 413.57633 420.08854 425.54859 432.84095 436.15437 443.44673 450.4671 456.66453 464.36479 467.67817 473.4104 481.11067 492.81849 504.5263 511.5467 516.72799 523.36196 526.67538 534.3756 539.2489 546.9133 553.53298 556.8965 564.59677 571.8891 579.58938">time needed to analyze each summary provided;</tspan></text>
<text xml:space="preserve" transform="matrix(.75 0 0 .75 72 352.26173)" font-size="14.666667" font-family="Calibri"><tspan y="14.2369799" x="-9 -4.0907289 3.6095277 10.901871 14.215271 17.578766 25.307648 33.007905 39.784898 47.07724 52.18689 55.50029 60.40956 68.10982 75.40216 78.71556 82.079059 89.77931 97.47957 105.179828 110.089099 113.4025 118.154209 125.22453 131.6152 136.52448 139.83788 143.20137 148.93363 152.59053 155.90393 167.61176 175.34064 180.25691 187.54926 190.86266 198.155 205.71918 210.62845 213.99195 218.90122 222.26471 229.55706 235.2893 238.6027 250.31055 257.1949 261.9251 268.1225 275.82276 283.1151">the longer the input text is, more entities matched</tspan></text>
<text xml:space="preserve" transform="matrix(.75 0 0 .75 72 352.26173)" font-size="14.666667" font-family="Calibri"><tspan y="14.2369799" x="294.12876 304.60569 307.96919 311.33268 314.69618 318.00959 325.70985 333.0022 336.3156 342.04786 349.3402 356.3606 361.25538 367.4528 375.15306 382.44538 390.14564 393.45906 400.47944 408.1797 415.87995 419.24345 426.9437 433.84245 437.15583 441.92189 449.65077 452.96418 457.87345 465.5737 472.86604 476.17945 482.25514 489.984 495.09367 502.7939 510.49418 516.22647 519.53988 527.26876 531.74148 535.0549 539.8066 546.8769 553.2676">will be searched adding to the corpus of text</tspan></text>
<text xml:space="preserve" transform="matrix(.75 0 0 .75 72 367.70314)" font-size="14.666667" font-family="Calibri"><tspan y="14.2369799" x="-9 -1.979599 5.7206575 12.741058 16.104554 22.61676 28.076828 35.36917 43.069429">analyzed.</tspan></text>
</g>
</g>
</svg>
