<?xml version="1.0" encoding="UTF-8" standalone="no"?>
<!DOCTYPE svg PUBLIC "-//W3C//DTD SVG 1.1//EN" "http://www.w3.org/Graphics/SVG/1.1/DTD/svg11.dtd">
<svg xmlns="http://www.w3.org/2000/svg" xmlns:xlink="http://www.w3.org/1999/xlink" version="1.1" width="596pt" height="842pt" viewBox="0 0 596 842">
<g enable-background="new">
<clipPath id="cp138">
<path d="M 0 0 L 595.5 0 L 595.5 842.25 L 0 842.25 Z " fill-rule="evenodd"/>
</clipPath>
<g clip-path="url(#cp138)">
<path transform="matrix(.75,0,0,.75,0,0)" d="M 0 0 L 794 0 L 794 1123 L 0 1123 Z " fill="#ffffff"/>
</g>
<clipPath id="cp139">
<path d="M 0 0 L 595.5 0 L 595.5 842.25 L 0 842.25 Z " fill-rule="evenodd"/>
</clipPath>
<g clip-path="url(#cp139)">
<path transform="matrix(.75,0,0,.75,72,97.44141)" d="M 0 0 L 655 0 L 655 529 L 0 529 Z " fill="#ffffff"/>
<path transform="matrix(.75,0,0,.75,72,607.83206)" d="M 0 0 L 601 0 L 601 212 L 0 212 Z " fill="#ffffff"/>
</g>
<clipPath id="cp140">
<path d="M 72.75 98.19141 L 563.25 98.19141 L 563.25 494.4297 L 72.75 494.4297 Z " fill-rule="evenodd"/>
</clipPath>
<g clip-path="url(#cp140)">
<path transform="matrix(.75,0,0,.75,77.25,103.44141)" d="M 0 0 L 290.0907 0 L 290.0907 17.173178 L 0 17.173178 Z " fill="#ffffff"/>
<path transform="matrix(.75,0,0,.75,77.25,133.0664)" d="M 0 0 L 338.43916 0 L 338.43916 17.173178 L 0 17.173178 Z " fill="#ffffff"/>
<path transform="matrix(.75,0,0,.75,77.25,147.8789)" d="M 0 0 L 441.80033 0 L 441.80033 17.173178 L 0 17.173178 Z " fill="#ffffff"/>
<path transform="matrix(.75,0,0,.75,77.25,162.6875)" d="M 0 0 L 578.7876 0 L 578.7876 17.173178 L 0 17.173178 Z " fill="#ffffff"/>
<path transform="matrix(.75,0,0,.75,77.25,177.5)" d="M 0 0 L 490.14878 0 L 490.14878 17.173178 L 0 17.173178 Z " fill="#ffffff"/>
<path transform="matrix(.75,0,0,.75,77.25,192.3125)" d="M 0 0 L 624 0 L 624 17.173178 L 0 17.173178 Z " fill="#ffffff"/>
<path transform="matrix(.75,0,0,.75,77.25,207.125)" d="M 0 0 L 336 0 L 336 17.173178 L 0 17.173178 Z " fill="#ffffff"/>
<path transform="matrix(.75,0,0,.75,77.25,221.93555)" d="M 0 0 L 402.90376 0 L 402.90376 17.173178 L 0 17.173178 Z " fill="#ffffff"/>
<path transform="matrix(.75,0,0,.75,77.25,236.74805)" d="M 0 0 L 433.3938 0 L 433.3938 17.173178 L 0 17.173178 Z " fill="#ffffff"/>
<path transform="matrix(.75,0,0,.75,77.25,251.56055)" d="M 0 0 L 449.50996 0 L 449.50996 17.173178 L 0 17.173178 Z " fill="#ffffff"/>
<path transform="matrix(.75,0,0,.75,77.25,266.37306)" d="M 0 0 L 489.80033 0 L 489.80033 17.173178 L 0 17.173178 Z " fill="#ffffff"/>
<path transform="matrix(.75,0,0,.75,77.25,281.18556)" d="M 0 0 L 505.91648 0 L 505.91648 17.173178 L 0 17.173178 Z " fill="#ffffff"/>
<path transform="matrix(.75,0,0,.75,77.25,295.9961)" d="M 0 0 L 513.97457 0 L 513.97457 17.173178 L 0 17.173178 Z " fill="#ffffff"/>
<path transform="matrix(.75,0,0,.75,77.25,310.8086)" d="M 0 0 L 433.3938 0 L 433.3938 17.173178 L 0 17.173178 Z " fill="#ffffff"/>
<path transform="matrix(.75,0,0,.75,77.25,325.6211)" d="M 0 0 L 562.323 0 L 562.323 17.173178 L 0 17.173178 Z " fill="#ffffff"/>
<path transform="matrix(.75,0,0,.75,77.25,340.4336)" d="M 0 0 L 578.43917 0 L 578.43917 17.173178 L 0 17.173178 Z " fill="#ffffff"/>
<path transform="matrix(.75,0,0,.75,77.25,355.2422)" d="M 0 0 L 586.4972 0 L 586.4972 17.173178 L 0 17.173178 Z " fill="#ffffff"/>
<path transform="matrix(.75,0,0,.75,77.25,370.0547)" d="M 0 0 L 602.6134 0 L 602.6134 17.173178 L 0 17.173178 Z " fill="#ffffff"/>
<path transform="matrix(.75,0,0,.75,77.25,399.6797)" d="M 0 0 L 346.49723 0 L 346.49723 17.173178 L 0 17.173178 Z " fill="#ffffff"/>
<path transform="matrix(.75,0,0,.75,77.25,414.4922)" d="M 0 0 L 425.68418 0 L 425.68418 17.173178 L 0 17.173178 Z " fill="#ffffff"/>
<path transform="matrix(.75,0,0,.75,77.25,429.30079)" d="M 0 0 L 619.078 0 L 619.078 17.173178 L 0 17.173178 Z " fill="#ffffff"/>
<path transform="matrix(.75,0,0,.75,77.25,444.11329)" d="M 0 0 L 345.10343 0 L 345.10343 17.173178 L 0 17.173178 Z " fill="#ffffff"/>
</g>
<clipPath id="cp141">
<path d="M 72.75 608.58206 L 522.75 608.58206 L 522.75 767.1992 L 72.75 767.1992 Z " fill-rule="evenodd"/>
</clipPath>
<g clip-path="url(#cp141)">
<path transform="matrix(.75,0,0,.75,77.25,613.83206)" d="M 0 0 L 419.0199 0 L 419.0199 17.173178 L 0 17.173178 Z " fill="#ffffff"/>
<path transform="matrix(.75,0,0,.75,77.25,628.64456)" d="M 0 0 L 417.6261 0 L 417.6261 17.173178 L 0 17.173178 Z " fill="#ffffff"/>
<path transform="matrix(.75,0,0,.75,77.25,643.45706)" d="M 0 0 L 417.6261 0 L 417.6261 17.173178 L 0 17.173178 Z " fill="#ffffff"/>
<path transform="matrix(.75,0,0,.75,77.25,658.26956)" d="M 0 0 L 393.45188 0 L 393.45188 17.173178 L 0 17.173178 Z " fill="#ffffff"/>
<path transform="matrix(.75,0,0,.75,77.25,673.0781)" d="M 0 0 L 393.45188 0 L 393.45188 17.173178 L 0 17.173178 Z " fill="#ffffff"/>
<path transform="matrix(.75,0,0,.75,77.25,687.8906)" d="M 0 0 L 449.8584 0 L 449.8584 17.173178 L 0 17.173178 Z " fill="#ffffff"/>
<path transform="matrix(.75,0,0,.75,77.25,702.7031)" d="M 0 0 L 449.8584 0 L 449.8584 17.173178 L 0 17.173178 Z " fill="#ffffff"/>
</g>
<clipPath id="cp142">
<path d="M 72.75 98.19141 L 563.25 98.19141 L 563.25 494.4297 L 72.75 494.4297 Z " fill-rule="evenodd"/>
</clipPath>
<g clip-path="url(#cp142)">
<text xml:space="preserve" transform="matrix(.75 0 0 .75 77.25 103.44141)" font-size="14.666667" font-family="Consolas"><tspan y="13.399089" x="0 8.058075 16.11615 24.174225 32.2323 40.290376 48.34845 56.406526 64.4646 72.522678 80.58075 88.638828 96.6969 104.754978 112.81305 120.871128 128.9292 136.98728 145.04535 153.10343 161.1615 169.21958 177.27765 185.33573 193.3938 201.45188 209.50995 217.56803 225.6261 233.68418 241.74225 249.80033 257.8584 265.91648 273.97456 282.03263">% create the list of title of person</tspan></text>
<text fill="#434f54" xml:space="preserve" transform="matrix(.75 0 0 .75 77.25 133.0664)" font-size="14.666667" font-family="Consolas"><tspan y="13.399089" x="0 8.058075 16.11615 24.174225 32.2323 40.290376 48.34845 56.406526 64.4646 72.522678 80.58075 88.638828 96.6969 104.754978 112.81305 120.871128 128.9292 136.98728">list_title_person(</tspan></text>
<text fill="#00979d" xml:space="preserve" transform="matrix(.75 0 0 .75 77.25 133.0664)" font-size="14.666667" font-family="Consolas"><tspan y="13.399089" x="145.04535 153.10343 161.1615">PER</tspan></text>
<text fill="#434f54" xml:space="preserve" transform="matrix(.75 0 0 .75 77.25 133.0664)" font-size="14.666667" font-family="Consolas"><tspan y="13.399089" x="169.21958 177.27765 185.33573 193.3938 201.45188 209.50995 217.56803 225.6261 233.68418">):- name(</tspan></text>
<text fill="#00979d" xml:space="preserve" transform="matrix(.75 0 0 .75 77.25 133.0664)" font-size="14.666667" font-family="Consolas"><tspan y="13.399089" x="241.74225 249.80033 257.8584 265.91648 273.97456 282.03263">ID_PER</tspan></text>
<text fill="#434f54" xml:space="preserve" transform="matrix(.75 0 0 .75 77.25 133.0664)" font-size="14.666667" font-family="Consolas"><tspan y="13.399089" x="290.0907">,</tspan></text>
<text fill="#00979d" xml:space="preserve" transform="matrix(.75 0 0 .75 77.25 133.0664)" font-size="14.666667" font-family="Consolas"><tspan y="13.399089" x="298.14878 306.20686 314.26493">PER</tspan></text>
<text fill="#434f54" xml:space="preserve" transform="matrix(.75 0 0 .75 77.25 133.0664)" font-size="14.666667" font-family="Consolas"><tspan y="13.399089" x="322.323 330.38108">),</tspan></text>
<text fill="#434f54" xml:space="preserve" transform="matrix(.75 0 0 .75 77.25 147.8789)" font-size="14.666667" font-family="Consolas"><tspan y="13.399089" x="200.05808 208.11615 216.17423 224.2323 232.29038 240.34845 248.40653 256.4646 264.52268 272.58076 280.63883 288.6969 296.75498 304.81306 312.87113 320.9292 328.98728">\+person_titles(_</tspan></text>
<text fill="#00979d" xml:space="preserve" transform="matrix(.75 0 0 .75 77.25 147.8789)" font-size="14.666667" font-family="Consolas"><tspan y="13.399089" x="337.04536 345.10343 353.1615 361.21958">LIST</tspan></text>
<text fill="#434f54" xml:space="preserve" transform="matrix(.75 0 0 .75 77.25 147.8789)" font-size="14.666667" font-family="Consolas"><tspan y="13.399089" x="369.27766">,</tspan></text>
<text fill="#00979d" xml:space="preserve" transform="matrix(.75 0 0 .75 77.25 147.8789)" font-size="14.666667" font-family="Consolas"><tspan y="13.399089" x="377.33573 385.3938 393.45188 401.50996 409.56803 417.6261">ID_PER</tspan></text>
<text fill="#434f54" xml:space="preserve" transform="matrix(.75 0 0 .75 77.25 147.8789)" font-size="14.666667" font-family="Consolas"><tspan y="13.399089" x="425.68418 433.74226">),</tspan></text>
<text fill="#434f54" xml:space="preserve" transform="matrix(.75 0 0 .75 77.25 162.6875)" font-size="14.666667" font-family="Consolas"><tspan y="13.399089" x="200.05808 208.11615 216.17423 224.2323 232.29038 240.34845 248.40653 256.4646">findall(</tspan></text>
<text fill="#00979d" xml:space="preserve" transform="matrix(.75 0 0 .75 77.25 162.6875)" font-size="14.666667" font-family="Consolas"><tspan y="13.399089" x="264.52268 272.58076 280.63883 288.6969 296.75498 304.81306 312.87113 320.9292">ID_TITLE</tspan></text>
<text fill="#434f54" xml:space="preserve" transform="matrix(.75 0 0 .75 77.25 162.6875)" font-size="14.666667" font-family="Consolas"><tspan y="13.399089" x="328.98728 337.04536 345.10343 353.1615 361.21958 369.27766 377.33573 385.3938">, title(</tspan></text>
<text fill="#00979d" xml:space="preserve" transform="matrix(.75 0 0 .75 77.25 162.6875)" font-size="14.666667" font-family="Consolas"><tspan y="13.399089" x="393.45188 401.50996 409.56803 417.6261 425.68418 433.74226">ID_PER</tspan></text>
<text fill="#434f54" xml:space="preserve" transform="matrix(.75 0 0 .75 77.25 162.6875)" font-size="14.666667" font-family="Consolas"><tspan y="13.399089" x="441.80033">,</tspan></text>
<text fill="#00979d" xml:space="preserve" transform="matrix(.75 0 0 .75 77.25 162.6875)" font-size="14.666667" font-family="Consolas"><tspan y="13.399089" x="449.8584 457.91648 465.97456 474.03263 482.0907 490.14878 498.20686 506.26493">ID_TITLE</tspan></text>
<text fill="#434f54" xml:space="preserve" transform="matrix(.75 0 0 .75 77.25 162.6875)" font-size="14.666667" font-family="Consolas"><tspan y="13.399089" x="514.323 522.3811">),</tspan></text>
<text fill="#00979d" xml:space="preserve" transform="matrix(.75 0 0 .75 77.25 162.6875)" font-size="14.666667" font-family="Consolas"><tspan y="13.399089" x="530.43917 538.4972 546.5553 554.6134">LIST</tspan></text>
<text fill="#434f54" xml:space="preserve" transform="matrix(.75 0 0 .75 77.25 162.6875)" font-size="14.666667" font-family="Consolas"><tspan y="13.399089" x="562.67147 570.7295">),</tspan></text>
<text fill="#434f54" xml:space="preserve" transform="matrix(.75 0 0 .75 77.25 177.5)" font-size="14.666667" font-family="Consolas"><tspan y="13.399089" x="200.05808 208.11615 216.17423 224.2323 232.29038 240.34845 248.40653 256.4646 264.52268 272.58076 280.63883 288.6969 296.75498 304.81306 312.87113 320.9292 328.98728 337.04536 345.10343 353.1615 361.21958 369.27766">asserta(person_titles(</tspan></text>
<text fill="#00979d" xml:space="preserve" transform="matrix(.75 0 0 .75 77.25 177.5)" font-size="14.666667" font-family="Consolas"><tspan y="13.399089" x="377.33573 385.3938 393.45188 401.50996">LIST</tspan></text>
<text fill="#434f54" xml:space="preserve" transform="matrix(.75 0 0 .75 77.25 177.5)" font-size="14.666667" font-family="Consolas"><tspan y="13.399089" x="409.56803">,</tspan></text>
<text fill="#00979d" xml:space="preserve" transform="matrix(.75 0 0 .75 77.25 177.5)" font-size="14.666667" font-family="Consolas"><tspan y="13.399089" x="417.6261 425.68418 433.74226 441.80033 449.8584 457.91648">ID_PER</tspan></text>
<text fill="#434f54" xml:space="preserve" transform="matrix(.75 0 0 .75 77.25 177.5)" font-size="14.666667" font-family="Consolas"><tspan y="13.399089" x="465.97456 474.03263 482.0907">)).</tspan></text>
<text xml:space="preserve" transform="matrix(.75 0 0 .75 77.25 192.3125)" font-size="14.666667" font-family="Consolas"><tspan y="13.399089" x="0 8.058075 16.11615 24.174225 32.2323 40.290376 48.34845 56.406526 64.4646 72.522678 80.58075 88.638828 96.6969 104.754978 112.81305 120.871128 128.9292 136.98728 145.04535 153.10343 161.1615 169.21958 177.27765 185.33573 193.3938 201.45188 209.50995 217.56803 225.6261 233.68418 241.74225 249.80033 257.8584 265.91648 273.97456 282.03263 290.0907 298.14878 306.20686 314.26493 322.323 330.38108 338.43916 346.49723 354.5553 362.61338 370.67146 378.72953 386.7876">% given a name and his alias, update the two list</tspan></text>
<text fill="#434f54" xml:space="preserve" transform="matrix(.75 0 0 .75 77.25 221.93555)" font-size="14.666667" font-family="Consolas"><tspan y="13.399089" x="0 8.058075 16.11615 24.174225 32.2323 40.290376 48.34845 56.406526 64.4646 72.522678 80.58075 88.638828 96.6969 104.754978 112.81305 120.871128 128.9292 136.98728 145.04535">update_title_alias(</tspan></text>
<text fill="#00979d" xml:space="preserve" transform="matrix(.75 0 0 .75 77.25 221.93555)" font-size="14.666667" font-family="Consolas"><tspan y="13.399089" x="153.10343 161.1615 169.21958">PER</tspan></text>
<text fill="#434f54" xml:space="preserve" transform="matrix(.75 0 0 .75 77.25 221.93555)" font-size="14.666667" font-family="Consolas"><tspan y="13.399089" x="177.27765">,</tspan></text>
<text fill="#00979d" xml:space="preserve" transform="matrix(.75 0 0 .75 77.25 221.93555)" font-size="14.666667" font-family="Consolas"><tspan y="13.399089" x="185.33573 193.3938 201.45188 209.50995 217.56803">ALIAS</tspan></text>
<text fill="#434f54" xml:space="preserve" transform="matrix(.75 0 0 .75 77.25 221.93555)" font-size="14.666667" font-family="Consolas"><tspan y="13.399089" x="225.6261 233.68418 241.74225 249.80033 257.8584 265.91648 273.97456 282.03263 290.0907 298.14878">) :- name(</tspan></text>
<text fill="#00979d" xml:space="preserve" transform="matrix(.75 0 0 .75 77.25 221.93555)" font-size="14.666667" font-family="Consolas"><tspan y="13.399089" x="306.20686 314.26493 322.323 330.38108 338.43916 346.49723">ID_PER</tspan></text>
<text fill="#434f54" xml:space="preserve" transform="matrix(.75 0 0 .75 77.25 221.93555)" font-size="14.666667" font-family="Consolas"><tspan y="13.399089" x="354.5553">,</tspan></text>
<text fill="#00979d" xml:space="preserve" transform="matrix(.75 0 0 .75 77.25 221.93555)" font-size="14.666667" font-family="Consolas"><tspan y="13.399089" x="362.61338 370.67146 378.72953">PER</tspan></text>
<text fill="#434f54" xml:space="preserve" transform="matrix(.75 0 0 .75 77.25 221.93555)" font-size="14.666667" font-family="Consolas"><tspan y="13.399089" x="386.7876 394.84568">),</tspan></text>
<text fill="#434f54" xml:space="preserve" transform="matrix(.75 0 0 .75 77.25 236.74805)" font-size="14.666667" font-family="Consolas"><tspan y="13.399089" x="264.17424 272.2323 280.29039 288.34846 296.40653">name(</tspan></text>
<text fill="#00979d" xml:space="preserve" transform="matrix(.75 0 0 .75 77.25 236.74805)" font-size="14.666667" font-family="Consolas"><tspan y="13.399089" x="304.4646 312.52268 320.58076 328.63883 336.6969 344.75498 352.81306 360.87113">ID_ALIAS</tspan></text>
<text fill="#434f54" xml:space="preserve" transform="matrix(.75 0 0 .75 77.25 236.74805)" font-size="14.666667" font-family="Consolas"><tspan y="13.399089" x="368.9292">,</tspan></text>
<text fill="#00979d" xml:space="preserve" transform="matrix(.75 0 0 .75 77.25 236.74805)" font-size="14.666667" font-family="Consolas"><tspan y="13.399089" x="376.98728 385.04536 393.10343 401.1615 409.21958">ALIAS</tspan></text>
<text fill="#434f54" xml:space="preserve" transform="matrix(.75 0 0 .75 77.25 236.74805)" font-size="14.666667" font-family="Consolas"><tspan y="13.399089" x="417.27766 425.33573">),</tspan></text>
<text fill="#434f54" xml:space="preserve" transform="matrix(.75 0 0 .75 77.25 251.56055)" font-size="14.666667" font-family="Consolas"><tspan y="13.399089" x="264.17424 272.2323 280.29039 288.34846 296.40653 304.4646">alias(</tspan></text>
<text fill="#00979d" xml:space="preserve" transform="matrix(.75 0 0 .75 77.25 251.56055)" font-size="14.666667" font-family="Consolas"><tspan y="13.399089" x="312.52268 320.58076 328.63883 336.6969 344.75498 352.81306">ID_PER</tspan></text>
<text fill="#434f54" xml:space="preserve" transform="matrix(.75 0 0 .75 77.25 251.56055)" font-size="14.666667" font-family="Consolas"><tspan y="13.399089" x="360.87113">,</tspan></text>
<text fill="#00979d" xml:space="preserve" transform="matrix(.75 0 0 .75 77.25 251.56055)" font-size="14.666667" font-family="Consolas"><tspan y="13.399089" x="368.9292 376.98728 385.04536 393.10343 401.1615 409.21958 417.27766 425.33573">ID_ALIAS</tspan></text>
<text fill="#434f54" xml:space="preserve" transform="matrix(.75 0 0 .75 77.25 251.56055)" font-size="14.666667" font-family="Consolas"><tspan y="13.399089" x="433.3938 441.45188">),</tspan></text>
<text fill="#434f54" xml:space="preserve" transform="matrix(.75 0 0 .75 77.25 266.37306)" font-size="14.666667" font-family="Consolas"><tspan y="13.399089" x="264.17424 272.2323 280.29039 288.34846 296.40653 304.4646 312.52268 320.58076 328.63883 336.6969 344.75498 352.81306 360.87113 368.9292">person_titles(</tspan></text>
<text fill="#00979d" xml:space="preserve" transform="matrix(.75 0 0 .75 77.25 266.37306)" font-size="14.666667" font-family="Consolas"><tspan y="13.399089" x="376.98728 385.04536 393.10343 401.1615 409.21958">LIST1</tspan></text>
<text fill="#434f54" xml:space="preserve" transform="matrix(.75 0 0 .75 77.25 266.37306)" font-size="14.666667" font-family="Consolas"><tspan y="13.399089" x="417.27766">,</tspan></text>
<text fill="#00979d" xml:space="preserve" transform="matrix(.75 0 0 .75 77.25 266.37306)" font-size="14.666667" font-family="Consolas"><tspan y="13.399089" x="425.33573 433.3938 441.45188 449.50996 457.56803 465.6261">ID_PER</tspan></text>
<text fill="#434f54" xml:space="preserve" transform="matrix(.75 0 0 .75 77.25 266.37306)" font-size="14.666667" font-family="Consolas"><tspan y="13.399089" x="473.68418 481.74226">),</tspan></text>
<text fill="#434f54" xml:space="preserve" transform="matrix(.75 0 0 .75 77.25 281.18556)" font-size="14.666667" font-family="Consolas"><tspan y="13.399089" x="264.17424 272.2323 280.29039 288.34846 296.40653 304.4646 312.52268 320.58076 328.63883 336.6969 344.75498 352.81306 360.87113 368.9292">person_titles(</tspan></text>
<text fill="#00979d" xml:space="preserve" transform="matrix(.75 0 0 .75 77.25 281.18556)" font-size="14.666667" font-family="Consolas"><tspan y="13.399089" x="376.98728 385.04536 393.10343 401.1615 409.21958">LIST2</tspan></text>
<text fill="#434f54" xml:space="preserve" transform="matrix(.75 0 0 .75 77.25 281.18556)" font-size="14.666667" font-family="Consolas"><tspan y="13.399089" x="417.27766">,</tspan></text>
<text fill="#00979d" xml:space="preserve" transform="matrix(.75 0 0 .75 77.25 281.18556)" font-size="14.666667" font-family="Consolas"><tspan y="13.399089" x="425.33573 433.3938 441.45188 449.50996 457.56803 465.6261 473.68418 481.74226">ID_ALIAS</tspan></text>
<text fill="#434f54" xml:space="preserve" transform="matrix(.75 0 0 .75 77.25 281.18556)" font-size="14.666667" font-family="Consolas"><tspan y="13.399089" x="489.80033 497.8584">),</tspan></text>
<text fill="#434f54" xml:space="preserve" transform="matrix(.75 0 0 .75 77.25 295.9961)" font-size="14.666667" font-family="Consolas"><tspan y="13.399089" x="264.17424 272.2323 280.29039 288.34846 296.40653 304.4646 312.52268 320.58076 328.63883 336.6969 344.75498">merge_list(</tspan></text>
<text fill="#00979d" xml:space="preserve" transform="matrix(.75 0 0 .75 77.25 295.9961)" font-size="14.666667" font-family="Consolas"><tspan y="13.399089" x="352.81306 360.87113 368.9292 376.98728 385.04536">LIST1</tspan></text>
<text fill="#434f54" xml:space="preserve" transform="matrix(.75 0 0 .75 77.25 295.9961)" font-size="14.666667" font-family="Consolas"><tspan y="13.399089" x="393.10343">,</tspan></text>
<text fill="#00979d" xml:space="preserve" transform="matrix(.75 0 0 .75 77.25 295.9961)" font-size="14.666667" font-family="Consolas"><tspan y="13.399089" x="401.1615 409.21958 417.27766 425.33573 433.3938">LIST2</tspan></text>
<text fill="#434f54" xml:space="preserve" transform="matrix(.75 0 0 .75 77.25 295.9961)" font-size="14.666667" font-family="Consolas"><tspan y="13.399089" x="441.45188">,</tspan></text>
<text fill="#00979d" xml:space="preserve" transform="matrix(.75 0 0 .75 77.25 295.9961)" font-size="14.666667" font-family="Consolas"><tspan y="13.399089" x="449.50996 457.56803 465.6261 473.68418 481.74226 489.80033">D_LIST</tspan></text>
<text fill="#434f54" xml:space="preserve" transform="matrix(.75 0 0 .75 77.25 295.9961)" font-size="14.666667" font-family="Consolas"><tspan y="13.399089" x="497.8584 505.91648">),</tspan></text>
<text fill="#434f54" xml:space="preserve" transform="matrix(.75 0 0 .75 77.25 310.8086)" font-size="14.666667" font-family="Consolas"><tspan y="13.399089" x="264.17424 272.2323 280.29039 288.34846">set(</tspan></text>
<text fill="#00979d" xml:space="preserve" transform="matrix(.75 0 0 .75 77.25 310.8086)" font-size="14.666667" font-family="Consolas"><tspan y="13.399089" x="296.40653 304.4646 312.52268 320.58076 328.63883 336.6969">D_LIST</tspan></text>
<text fill="#434f54" xml:space="preserve" transform="matrix(.75 0 0 .75 77.25 310.8086)" font-size="14.666667" font-family="Consolas"><tspan y="13.399089" x="344.75498">,</tspan></text>
<text fill="#00979d" xml:space="preserve" transform="matrix(.75 0 0 .75 77.25 310.8086)" font-size="14.666667" font-family="Consolas"><tspan y="13.399089" x="352.81306 360.87113 368.9292 376.98728 385.04536 393.10343 401.1615 409.21958">NEW_LIST</tspan></text>
<text fill="#434f54" xml:space="preserve" transform="matrix(.75 0 0 .75 77.25 310.8086)" font-size="14.666667" font-family="Consolas"><tspan y="13.399089" x="417.27766 425.33573">),</tspan></text>
<text fill="#434f54" xml:space="preserve" transform="matrix(.75 0 0 .75 77.25 325.6211)" font-size="14.666667" font-family="Consolas"><tspan y="13.399089" x="264.17424 272.2323 280.29039 288.34846 296.40653 304.4646 312.52268 320.58076 328.63883 336.6969 344.75498 352.81306 360.87113 368.9292 376.98728 385.04536 393.10343 401.1615 409.21958 417.27766 425.33573 433.3938">retract(person_titles(</tspan></text>
<text fill="#00979d" xml:space="preserve" transform="matrix(.75 0 0 .75 77.25 325.6211)" font-size="14.666667" font-family="Consolas"><tspan y="13.399089" x="441.45188 449.50996 457.56803 465.6261 473.68418">LIST1</tspan></text>
<text fill="#434f54" xml:space="preserve" transform="matrix(.75 0 0 .75 77.25 325.6211)" font-size="14.666667" font-family="Consolas"><tspan y="13.399089" x="481.74226">,</tspan></text>
<text fill="#00979d" xml:space="preserve" transform="matrix(.75 0 0 .75 77.25 325.6211)" font-size="14.666667" font-family="Consolas"><tspan y="13.399089" x="489.80033 497.8584 505.91648 513.97457 522.0326 530.0907">ID_PER</tspan></text>
<text fill="#434f54" xml:space="preserve" transform="matrix(.75 0 0 .75 77.25 325.6211)" font-size="14.666667" font-family="Consolas"><tspan y="13.399089" x="538.1488 546.2069 554.265">)),</tspan></text>
<text fill="#434f54" xml:space="preserve" transform="matrix(.75 0 0 .75 77.25 340.4336)" font-size="14.666667" font-family="Consolas"><tspan y="13.399089" x="264.17424 272.2323 280.29039 288.34846 296.40653 304.4646 312.52268 320.58076 328.63883 336.6969 344.75498 352.81306 360.87113 368.9292 376.98728 385.04536 393.10343 401.1615 409.21958 417.27766 425.33573 433.3938">retract(person_titles(</tspan></text>
<text fill="#00979d" xml:space="preserve" transform="matrix(.75 0 0 .75 77.25 340.4336)" font-size="14.666667" font-family="Consolas"><tspan y="13.399089" x="441.45188 449.50996 457.56803 465.6261 473.68418">LIST2</tspan></text>
<text fill="#434f54" xml:space="preserve" transform="matrix(.75 0 0 .75 77.25 340.4336)" font-size="14.666667" font-family="Consolas"><tspan y="13.399089" x="481.74226">,</tspan></text>
<text fill="#00979d" xml:space="preserve" transform="matrix(.75 0 0 .75 77.25 340.4336)" font-size="14.666667" font-family="Consolas"><tspan y="13.399089" x="489.80033 497.8584 505.91648 513.97457 522.0326 530.0907 538.1488 546.2069">ID_ALIAS</tspan></text>
<text fill="#434f54" xml:space="preserve" transform="matrix(.75 0 0 .75 77.25 340.4336)" font-size="14.666667" font-family="Consolas"><tspan y="13.399089" x="554.2649 562.323 570.3811">)),</tspan></text>
<text fill="#434f54" xml:space="preserve" transform="matrix(.75 0 0 .75 77.25 355.2422)" font-size="14.666667" font-family="Consolas"><tspan y="13.399089" x="264.17424 272.2323 280.29039 288.34846 296.40653 304.4646 312.52268 320.58076 328.63883 336.6969 344.75498 352.81306 360.87113 368.9292 376.98728 385.04536 393.10343 401.1615 409.21958 417.27766 425.33573 433.3938">asserta(person_titles(</tspan></text>
<text fill="#00979d" xml:space="preserve" transform="matrix(.75 0 0 .75 77.25 355.2422)" font-size="14.666667" font-family="Consolas"><tspan y="13.399089" x="441.45188 449.50996 457.56803 465.6261 473.68418 481.74226 489.80033 497.8584">NEW_LIST</tspan></text>
<text fill="#434f54" xml:space="preserve" transform="matrix(.75 0 0 .75 77.25 355.2422)" font-size="14.666667" font-family="Consolas"><tspan y="13.399089" x="505.91648">,</tspan></text>
<text fill="#00979d" xml:space="preserve" transform="matrix(.75 0 0 .75 77.25 355.2422)" font-size="14.666667" font-family="Consolas"><tspan y="13.399089" x="513.97457 522.0326 530.0907 538.1488 546.2069 554.265">ID_PER</tspan></text>
<text fill="#434f54" xml:space="preserve" transform="matrix(.75 0 0 .75 77.25 355.2422)" font-size="14.666667" font-family="Consolas"><tspan y="13.399089" x="562.323 570.3811 578.4392">)),</tspan></text>
<text fill="#434f54" xml:space="preserve" transform="matrix(.75 0 0 .75 77.25 370.0547)" font-size="14.666667" font-family="Consolas"><tspan y="13.399089" x="264.17424 272.2323 280.29039 288.34846 296.40653 304.4646 312.52268 320.58076 328.63883 336.6969 344.75498 352.81306 360.87113 368.9292 376.98728 385.04536 393.10343 401.1615 409.21958 417.27766 425.33573 433.3938">asserta(person_titles(</tspan></text>
<text fill="#00979d" xml:space="preserve" transform="matrix(.75 0 0 .75 77.25 370.0547)" font-size="14.666667" font-family="Consolas"><tspan y="13.399089" x="441.45188 449.50996 457.56803 465.6261 473.68418 481.74226 489.80033 497.8584">NEW_LIST</tspan></text>
<text fill="#434f54" xml:space="preserve" transform="matrix(.75 0 0 .75 77.25 370.0547)" font-size="14.666667" font-family="Consolas"><tspan y="13.399089" x="505.91648">,</tspan></text>
<text fill="#00979d" xml:space="preserve" transform="matrix(.75 0 0 .75 77.25 370.0547)" font-size="14.666667" font-family="Consolas"><tspan y="13.399089" x="513.97457 522.0326 530.0907 538.1488 546.2069 554.265 562.3231 570.3812">ID_ALIAS</tspan></text>
<text fill="#434f54" xml:space="preserve" transform="matrix(.75 0 0 .75 77.25 370.0547)" font-size="14.666667" font-family="Consolas"><tspan y="13.399089" x="578.43917 586.4972 594.5553">)).</tspan></text>
<text fill="#434f54" xml:space="preserve" transform="matrix(.75 0 0 .75 77.25 399.6797)" font-size="14.666667" font-family="Consolas"><tspan y="13.399089" x="0 8.058075 16.11615 24.174225 32.2323 40.290376 48.34845 56.406526 64.4646 72.522678 80.58075 88.638828 96.6969 104.754978 112.81305 120.871128 128.9292 136.98728">print_titles_list(</tspan></text>
<text fill="#00979d" xml:space="preserve" transform="matrix(.75 0 0 .75 77.25 399.6797)" font-size="14.666667" font-family="Consolas"><tspan y="13.399089" x="145.04535 153.10343 161.1615">PER</tspan></text>
<text fill="#434f54" xml:space="preserve" transform="matrix(.75 0 0 .75 77.25 399.6797)" font-size="14.666667" font-family="Consolas"><tspan y="13.399089" x="169.21958 177.27765 185.33573 193.3938 201.45188 209.50995 217.56803 225.6261 233.68418 241.74225">) :- name(</tspan></text>
<text fill="#00979d" xml:space="preserve" transform="matrix(.75 0 0 .75 77.25 399.6797)" font-size="14.666667" font-family="Consolas"><tspan y="13.399089" x="249.80033 257.8584 265.91648 273.97456 282.03263 290.0907">ID_PER</tspan></text>
<text fill="#434f54" xml:space="preserve" transform="matrix(.75 0 0 .75 77.25 399.6797)" font-size="14.666667" font-family="Consolas"><tspan y="13.399089" x="298.14878">,</tspan></text>
<text fill="#00979d" xml:space="preserve" transform="matrix(.75 0 0 .75 77.25 399.6797)" font-size="14.666667" font-family="Consolas"><tspan y="13.399089" x="306.20686 314.26493 322.323">PER</tspan></text>
<text fill="#434f54" xml:space="preserve" transform="matrix(.75 0 0 .75 77.25 399.6797)" font-size="14.666667" font-family="Consolas"><tspan y="13.399089" x="330.38108 338.43916">),</tspan></text>
<text fill="#434f54" xml:space="preserve" transform="matrix(.75 0 0 .75 77.25 414.4922)" font-size="14.666667" font-family="Consolas"><tspan y="13.399089" x="208.11615 216.17423 224.2323 232.29038 240.34845 248.40653 256.4646 264.52268 272.58076 280.63883 288.6969 296.75498 304.81306 312.87113">person_titles(</tspan></text>
<text fill="#00979d" xml:space="preserve" transform="matrix(.75 0 0 .75 77.25 414.4922)" font-size="14.666667" font-family="Consolas"><tspan y="13.399089" x="320.9292 328.98728 337.04536 345.10343">LIST</tspan></text>
<text fill="#434f54" xml:space="preserve" transform="matrix(.75 0 0 .75 77.25 414.4922)" font-size="14.666667" font-family="Consolas"><tspan y="13.399089" x="353.1615">,</tspan></text>
<text fill="#00979d" xml:space="preserve" transform="matrix(.75 0 0 .75 77.25 414.4922)" font-size="14.666667" font-family="Consolas"><tspan y="13.399089" x="361.21958 369.27766 377.33573 385.3938 393.45188 401.50996">ID_PER</tspan></text>
<text fill="#434f54" xml:space="preserve" transform="matrix(.75 0 0 .75 77.25 414.4922)" font-size="14.666667" font-family="Consolas"><tspan y="13.399089" x="409.56803 417.6261">),</tspan></text>
<text fill="#434f54" xml:space="preserve" transform="matrix(.75 0 0 .75 77.25 429.30079)" font-size="14.666667" font-family="Consolas"><tspan y="13.399089" x="208.11615 216.17423 224.2323 232.29038 240.34845 248.40653 256.4646">format(</tspan></text>
<text fill="#005c5f" xml:space="preserve" transform="matrix(.75 0 0 .75 77.25 429.30079)" font-size="14.666667" font-family="Consolas"><tspan y="13.399089" x="264.52268 272.58076 280.63883 288.6969 296.75498 304.81306 312.87113 320.9292 328.98728 337.04536 345.10343 353.1615 361.21958 369.27766 377.33573 385.3938 393.45188 401.50996 409.56803 417.6261 425.68418 433.74226 441.80033 449.8584">'------ ~s ~w ------ ~n'</tspan></text>
<text fill="#434f54" xml:space="preserve" transform="matrix(.75 0 0 .75 77.25 429.30079)" font-size="14.666667" font-family="Consolas"><tspan y="13.399089" x="457.91648 465.97456 474.03263">, [</tspan></text>
<text fill="#005c5f" xml:space="preserve" transform="matrix(.75 0 0 .75 77.25 429.30079)" font-size="14.666667" font-family="Consolas"><tspan y="13.399089" x="482.0907 490.14878 498.20686 506.26493 514.323 522.3811 530.4392 538.4973 546.5554 554.6135">'titlesof'</tspan></text>
<text fill="#434f54" xml:space="preserve" transform="matrix(.75 0 0 .75 77.25 429.30079)" font-size="14.666667" font-family="Consolas"><tspan y="13.399089" x="562.67147">,</tspan></text>
<text fill="#00979d" xml:space="preserve" transform="matrix(.75 0 0 .75 77.25 429.30079)" font-size="14.666667" font-family="Consolas"><tspan y="13.399089" x="570.7295 578.7876 586.8457">PER</tspan></text>
<text fill="#434f54" xml:space="preserve" transform="matrix(.75 0 0 .75 77.25 429.30079)" font-size="14.666667" font-family="Consolas"><tspan y="13.399089" x="594.90377 602.9618 611.0199">]),</tspan></text>
<text fill="#434f54" xml:space="preserve" transform="matrix(.75 0 0 .75 77.25 444.11329)" font-size="14.666667" font-family="Consolas"><tspan y="13.399089" x="208.11615 216.17423 224.2323 232.29038 240.34845 248.40653 256.4646 264.52268 272.58076 280.63883 288.6969">print_list(</tspan></text>
<text fill="#00979d" xml:space="preserve" transform="matrix(.75 0 0 .75 77.25 444.11329)" font-size="14.666667" font-family="Consolas"><tspan y="13.399089" x="296.75498 304.81306 312.87113 320.9292">LIST</tspan></text>
<text fill="#434f54" xml:space="preserve" transform="matrix(.75 0 0 .75 77.25 444.11329)" font-size="14.666667" font-family="Consolas"><tspan y="13.399089" x="328.98728 337.04536">).</tspan></text>
</g>
<clipPath id="cp143">
<path d="M 0 0 L 595.5 0 L 595.5 842.25 L 0 842.25 Z " fill-rule="evenodd"/>
</clipPath>
<g clip-path="url(#cp143)">
<text xml:space="preserve" transform="matrix(.75 0 0 .75 72 520.62307)" font-size="14.666667" font-family="Calibri"><tspan y="14.2369799" x="0 7.1420595 14.842316 22.134659 25.44806 28.811554 35.831956 41.39949 46.30876 49.62216 56.520906 61.39421 69.12309 76.82335 84.523609 87.837009 95.56589 100.03862 103.35202 108.46167 116.16193 119.52542 126.817768 132.55002 135.86342 143.56368 150.34058 156.81699 164.10933 167.42273 175.12299 182.41533 189.70767 197.40793 200.72133 208.42159 215.6423 222.11872 229.41106 232.77455 240.50344 248.20369 255.49604 263.1963 266.5097 271.27577 279.00465 282.31806 287.22734 292.40858">The last group of rules have been developed to try</tspan></text>
<text xml:space="preserve" transform="matrix(.75 0 0 .75 72 520.62307)" font-size="14.666667" font-family="Calibri"><tspan y="14.2369799" x="302.3559 307.12196 314.85084 318.16426 325.8645 333.56477 339.64045 347.30488 353.78129 361.0736 366.18327 369.49665 377.1969 384.4176 394.89454 398.20796 404.87055 412.5708 420.24238 430.7193 434.0828 441.37513 449.07539 455.85237 463.1447 466.45814 470.93086 475.80415 483.53303 495.24085 498.55427 503.46354 511.1638 518.4561 521.76956 529.3839 537.3561 541.0559 544.3693 551.51138 559.2116 566.50399 572.2362">to uncover new knowledge from the KB. These</tspan></text>
<text xml:space="preserve" transform="matrix(.75 0 0 .75 72 536.0664)" font-size="14.666667" font-family="Calibri"><tspan y="14.2369799" x="0 3.3634949 10.383896 15.951431 20.860703 24.174103 29.083374 36.78363 41.699907 48.99225 56.28459 59.597993 64.70764 72.4079 75.77139 83.063739 88.79599 92.10939 97.01866 102.19992 108.83388 112.14728 116.913318 124.6422 127.9556 132.12038 139.84926 147.54952 155.24977 162.95003 166.26343 173.96369 181.1844 191.66133 194.97473 199.891 207.18335 210.54685 217.43117 222.34044 225.70394 233.43282 241.13307 246.86533 254.56558 257.92909 265.55769 271.28996 274.60334 282.3036 290.03248">last three rules try to found new relationships not</tspan></text>
<text xml:space="preserve" transform="matrix(.75 0 0 .75 72 536.0664)" font-size="14.666667" font-family="Calibri"><tspan y="14.2369799" x="298.2552 303.98744 311.68769 318.98005 325.17747 328.54096 333.01368 336.37718 343.6695 351.36976 354.68318 358.04667 365.74693 369.0603 373.96958 381.66984 388.96217 392.27558 400.00447 405.1141 408.4776 415.37635 418.73985 426.4401 433.4605 436.824 440.1374 447.03614 451.84498 458.86537 466.5656 474.26588">specified in the original graph.</tspan></text>
<text xml:space="preserve" transform="matrix(.75 0 0 .75 72 551.5039)" font-size="14.666667" font-family="Calibri"><tspan y="14.2369799" x="0 6.0756685 13.80455 21.10405 26.020325 33.312669 39.04492 42.408418 50.108675 57.401018 65.10127 71.29869 78.591037 83.03514 90.60658 97.762958 105.72084 113.149158 116.80606 124.3775 131.53388 139.49176 146.92008 150.57698 158.14842 164.31006 172.68292 180.49768 187.65406 192.09816 195.41156 203.11182 210.81208 214.17557 218.71991 225.35387 228.66727 232.03076 236.5035 239.8169 247.38834 254.54471 262.5026 269.9309 273.24433 280.2647 287.96498 295.66523 298.97865 306.55009 313.70646 321.66435">co_residence(PER1,PER2,PLACE) unify if PER1 and PER2</tspan></text>
<text xml:space="preserve" transform="matrix(.75 0 0 .75 72 551.5039)" font-size="14.666667" font-family="Calibri"><tspan y="14.2369799" x="332.40605 337.32234 344.6147 350.34693 353.71043 361.41069 368.703 372.01643 375.3799 383.08018 386.39356 391.30284 399.00309 406.2954 409.60884 415.34107 422.36146 434.06929 441.36164 444.67506 452.2465 458.40815 466.781 474.59577 481.75215 485.06556 492.08595 499.7862 507.48646 510.79988 518.37136 525.5277 533.4856 540.91397 544.22738 551.24777 558.948 566.64828 569.9617 577.5331 584.68948 592.64736">reside in the same PLACE and PER1 and PER2</tspan></text>
<text xml:space="preserve" transform="matrix(.75 0 0 .75 72 566.94729)" font-size="14.666667" font-family="Calibri"><tspan y="14.2369799" x="0 7.020401 11.936676 19.22902 22.54242 30.242676 37.971559 42.88083 46.19423 51.1035 58.803758 66.0961 69.4095 75.141757 82.162158 93.86998 101.16232 104.47572 112.17598 119.46832 127.197208 134.89746 138.26096 145.5533 149.25315 152.56655 159.7086 167.40886 174.7012 178.0146 183.12425 190.82451 194.188">are not the same people. The rule</tspan></text>
<text xml:space="preserve" transform="matrix(.75 0 0 .75 72 566.94729)" font-size="14.666667" font-family="Calibri" font-style="italic"><tspan y="14.2369799" x="204.79375 209.81752 216.81645 222.52008 225.88358 233.41924 240.41817 246.1218 253.4213 256.7848">resides_in</tspan></text>
<text xml:space="preserve" transform="matrix(.75 0 0 .75 72 566.94729)" font-size="14.666667" font-family="Calibri"><tspan y="14.2369799" x="264.32044 269.98115 277.40946 280.72285 287.79316 294.14088 301.84114 305.20463 312.9335 316.297">/2 exploit</tspan></text>
<text xml:space="preserve" transform="matrix(.75 0 0 .75 72 566.94729)" font-size="14.666667" font-family="Calibri"><tspan y="14.2369799" x="324.51969 332.21995 335.58345 339.91294 344.02043 351.31275 356.229 363.52137 371.08555 375.9948 379.30824 385.44123 390.35749 397.64985 403.38209 406.74559 414.44584 421.73817 429.43843 435.63584 442.92817 449.06117 452.37458 457.29084 464.5832 467.9467 474.831 479.74028 483.10377 490.83265 498.5329 504.26515 511.9654 515.32888 522.9575 528.68978 532.0032 542.4801 550.18038 553.5438 559.7412 567.44149 570.7549 576.83059 583.85098">different &#x201c;residence&#x201d; relationships which can</tspan></text>
<text xml:space="preserve" transform="matrix(.75 0 0 .75 72 582.3906)" font-size="14.666667" font-family="Calibri"><tspan y="14.2369799" x="0 7.7002565 14.9925999 18.306 23.222275 30.435837 35.345109 40.454759 43.818254 51.03897 57.51538 64.807727 72.50798 75.82138 83.45001 90.08397 93.39737 98.30664 106.0069 113.29924 116.61264 121.36435 128.43468 134.82535 139.73462 143.43447 146.74787 153.88993 161.59018 168.88253 172.19593 177.92818 184.94858 196.6564 203.94875 207.26215 213.33782 221.0667 228.76696 234.96437 242.25672 249.8925 254.80178 258.11518 265.81544 272.83583 278.56806 281.88148 289.58174 296.87409 304.16645">be retrieved by the text. The same concept has been</tspan></text>
<text xml:space="preserve" transform="matrix(.75 0 0 .75 72 582.3906)" font-size="14.666667" font-family="Calibri"><tspan y="14.2369799" x="315.18009 322.88035 328.6126 335.90498 343.60523 346.91865 350.28215 357.9824 361.29579 364.65928 370.39155 377.69105 383.42329 391.12355 398.8238 406.55268 411.4618 419.16206 422.52555 430.2258 437.1101 441.86183 449.15419 454.81489 462.2432 465.55659 472.57698 480.27723 487.97749 491.2909 497.36659 505.03816 515.379 523.1079 528.2175 534.4075 541.6998 546.80947 552.47018 559.89846">used in is_subordinate/3 and coworker/3.</tspan></text>
</g>
<clipPath id="cp144">
<path d="M 72.75 608.58206 L 522.75 608.58206 L 522.75 767.1992 L 72.75 767.1992 Z " fill-rule="evenodd"/>
</clipPath>
<g clip-path="url(#cp144)">
<text fill="#434f54" xml:space="preserve" transform="matrix(.75 0 0 .75 77.25 613.83206)" font-size="14.666667" font-family="Consolas"><tspan y="13.399089" x="0 8.058075 16.11615 24.174225 32.2323 40.290376 48.34845 56.406526 64.4646 72.522678 80.58075 88.638828 96.6969">co_residence(</tspan></text>
<text fill="#00979d" xml:space="preserve" transform="matrix(.75 0 0 .75 77.25 613.83206)" font-size="14.666667" font-family="Consolas"><tspan y="13.399089" x="104.754978 112.81305 120.871128 128.9292">PER1</tspan></text>
<text fill="#434f54" xml:space="preserve" transform="matrix(.75 0 0 .75 77.25 613.83206)" font-size="14.666667" font-family="Consolas"><tspan y="13.399089" x="136.98728">,</tspan></text>
<text fill="#00979d" xml:space="preserve" transform="matrix(.75 0 0 .75 77.25 613.83206)" font-size="14.666667" font-family="Consolas"><tspan y="13.399089" x="145.04535 153.10343 161.1615 169.21958">PER2</tspan></text>
<text fill="#434f54" xml:space="preserve" transform="matrix(.75 0 0 .75 77.25 613.83206)" font-size="14.666667" font-family="Consolas"><tspan y="13.399089" x="177.27765">,</tspan></text>
<text fill="#00979d" xml:space="preserve" transform="matrix(.75 0 0 .75 77.25 613.83206)" font-size="14.666667" font-family="Consolas"><tspan y="13.399089" x="185.33573 193.3938 201.45188 209.50995 217.56803">PLACE</tspan></text>
<text fill="#434f54" xml:space="preserve" transform="matrix(.75 0 0 .75 77.25 613.83206)" font-size="14.666667" font-family="Consolas"><tspan y="13.399089" x="225.6261 233.68418 241.74225 249.80033 257.8584 265.91648 273.97456 282.03263 290.0907 298.14878">) :- name(</tspan></text>
<text fill="#00979d" xml:space="preserve" transform="matrix(.75 0 0 .75 77.25 613.83206)" font-size="14.666667" font-family="Consolas"><tspan y="13.399089" x="306.20686 314.26493 322.323 330.38108 338.43916 346.49723 354.5553">ID_PER1</tspan></text>
<text fill="#434f54" xml:space="preserve" transform="matrix(.75 0 0 .75 77.25 613.83206)" font-size="14.666667" font-family="Consolas"><tspan y="13.399089" x="362.61338">,</tspan></text>
<text fill="#00979d" xml:space="preserve" transform="matrix(.75 0 0 .75 77.25 613.83206)" font-size="14.666667" font-family="Consolas"><tspan y="13.399089" x="370.67146 378.72953 386.7876 394.84568">PER1</tspan></text>
<text fill="#434f54" xml:space="preserve" transform="matrix(.75 0 0 .75 77.25 613.83206)" font-size="14.666667" font-family="Consolas"><tspan y="13.399089" x="402.90376 410.96183">),</tspan></text>
<text fill="#434f54" xml:space="preserve" transform="matrix(.75 0 0 .75 77.25 628.64456)" font-size="14.666667" font-family="Consolas"><tspan y="13.399089" x="264.52268 272.58076 280.63883 288.6969 296.75498">name(</tspan></text>
<text fill="#00979d" xml:space="preserve" transform="matrix(.75 0 0 .75 77.25 628.64456)" font-size="14.666667" font-family="Consolas"><tspan y="13.399089" x="304.81306 312.87113 320.9292 328.98728 337.04536 345.10343 353.1615">ID_PER2</tspan></text>
<text fill="#434f54" xml:space="preserve" transform="matrix(.75 0 0 .75 77.25 628.64456)" font-size="14.666667" font-family="Consolas"><tspan y="13.399089" x="361.21958">,</tspan></text>
<text fill="#00979d" xml:space="preserve" transform="matrix(.75 0 0 .75 77.25 628.64456)" font-size="14.666667" font-family="Consolas"><tspan y="13.399089" x="369.27766 377.33573 385.3938 393.45188">PER2</tspan></text>
<text fill="#434f54" xml:space="preserve" transform="matrix(.75 0 0 .75 77.25 628.64456)" font-size="14.666667" font-family="Consolas"><tspan y="13.399089" x="401.50996 409.56803">),</tspan></text>
<text fill="#00979d" xml:space="preserve" transform="matrix(.75 0 0 .75 77.25 643.45706)" font-size="14.666667" font-family="Consolas"><tspan y="13.399089" x="264.52268 272.58076 280.63883 288.6969 296.75498 304.81306 312.87113">ID_PER1</tspan></text>
<text fill="#434f54" xml:space="preserve" transform="matrix(.75 0 0 .75 77.25 643.45706)" font-size="14.666667" font-family="Consolas"><tspan y="13.399089" x="328.98728 337.04536">\=</tspan></text>
<text fill="#00979d" xml:space="preserve" transform="matrix(.75 0 0 .75 77.25 643.45706)" font-size="14.666667" font-family="Consolas"><tspan y="13.399089" x="353.1615 361.21958 369.27766 377.33573 385.3938 393.45188 401.50996">ID_PER2</tspan></text>
<text fill="#434f54" xml:space="preserve" transform="matrix(.75 0 0 .75 77.25 643.45706)" font-size="14.666667" font-family="Consolas"><tspan y="13.399089" x="409.56803">,</tspan></text>
<text fill="#434f54" xml:space="preserve" transform="matrix(.75 0 0 .75 77.25 658.26956)" font-size="14.666667" font-family="Consolas"><tspan y="13.399089" x="264.52268 272.58076 280.63883 288.6969 296.75498 304.81306 312.87113">person(</tspan></text>
<text fill="#00979d" xml:space="preserve" transform="matrix(.75 0 0 .75 77.25 658.26956)" font-size="14.666667" font-family="Consolas"><tspan y="13.399089" x="320.9292 328.98728 337.04536 345.10343 353.1615 361.21958 369.27766">ID_PER1</tspan></text>
<text fill="#434f54" xml:space="preserve" transform="matrix(.75 0 0 .75 77.25 658.26956)" font-size="14.666667" font-family="Consolas"><tspan y="13.399089" x="377.33573 385.3938">),</tspan></text>
<text fill="#434f54" xml:space="preserve" transform="matrix(.75 0 0 .75 77.25 673.0781)" font-size="14.666667" font-family="Consolas"><tspan y="13.399089" x="264.52268 272.58076 280.63883 288.6969 296.75498 304.81306 312.87113">person(</tspan></text>
<text fill="#00979d" xml:space="preserve" transform="matrix(.75 0 0 .75 77.25 673.0781)" font-size="14.666667" font-family="Consolas"><tspan y="13.399089" x="320.9292 328.98728 337.04536 345.10343 353.1615 361.21958 369.27766">ID_PER2</tspan></text>
<text fill="#434f54" xml:space="preserve" transform="matrix(.75 0 0 .75 77.25 673.0781)" font-size="14.666667" font-family="Consolas"><tspan y="13.399089" x="377.33573 385.3938">),</tspan></text>
<text fill="#434f54" xml:space="preserve" transform="matrix(.75 0 0 .75 77.25 687.8906)" font-size="14.666667" font-family="Consolas"><tspan y="13.399089" x="264.52268 272.58076 280.63883 288.6969 296.75498 304.81306 312.87113 320.9292 328.98728 337.04536 345.10343">resides_in(</tspan></text>
<text fill="#00979d" xml:space="preserve" transform="matrix(.75 0 0 .75 77.25 687.8906)" font-size="14.666667" font-family="Consolas"><tspan y="13.399089" x="353.1615 361.21958 369.27766 377.33573">PER1</tspan></text>
<text fill="#434f54" xml:space="preserve" transform="matrix(.75 0 0 .75 77.25 687.8906)" font-size="14.666667" font-family="Consolas"><tspan y="13.399089" x="385.3938">,</tspan></text>
<text fill="#00979d" xml:space="preserve" transform="matrix(.75 0 0 .75 77.25 687.8906)" font-size="14.666667" font-family="Consolas"><tspan y="13.399089" x="393.45188 401.50996 409.56803 417.6261 425.68418">PLACE</tspan></text>
<text fill="#434f54" xml:space="preserve" transform="matrix(.75 0 0 .75 77.25 687.8906)" font-size="14.666667" font-family="Consolas"><tspan y="13.399089" x="433.74226 441.80033">),</tspan></text>
<text fill="#434f54" xml:space="preserve" transform="matrix(.75 0 0 .75 77.25 702.7031)" font-size="14.666667" font-family="Consolas"><tspan y="13.399089" x="264.52268 272.58076 280.63883 288.6969 296.75498 304.81306 312.87113 320.9292 328.98728 337.04536 345.10343">resides_in(</tspan></text>
<text fill="#00979d" xml:space="preserve" transform="matrix(.75 0 0 .75 77.25 702.7031)" font-size="14.666667" font-family="Consolas"><tspan y="13.399089" x="353.1615 361.21958 369.27766 377.33573">PER2</tspan></text>
<text fill="#434f54" xml:space="preserve" transform="matrix(.75 0 0 .75 77.25 702.7031)" font-size="14.666667" font-family="Consolas"><tspan y="13.399089" x="385.3938">,</tspan></text>
<text fill="#00979d" xml:space="preserve" transform="matrix(.75 0 0 .75 77.25 702.7031)" font-size="14.666667" font-family="Consolas"><tspan y="13.399089" x="393.45188 401.50996 409.56803 417.6261 425.68418">PLACE</tspan></text>
<text fill="#434f54" xml:space="preserve" transform="matrix(.75 0 0 .75 77.25 702.7031)" font-size="14.666667" font-family="Consolas"><tspan y="13.399089" x="433.74226 441.80033">).</tspan></text>
</g>
<clipPath id="cp145">
<path d="M 0 0 L 595.5 0 L 595.5 842.25 L 0 842.25 Z " fill-rule="evenodd"/>
</clipPath>
<g clip-path="url(#cp145)">
<path transform="matrix(.75,0,0,.75,72,97.44141)" stroke-width="1.3333334" stroke-linecap="butt" stroke-miterlimit="10" stroke-linejoin="miter" fill="none" stroke="#000000" d="M .6666667 -.5891927 L .6666667 530.07748 "/>
<path transform="matrix(.75,0,0,.75,72,97.44141)" stroke-width="1.3333334" stroke-linecap="butt" stroke-miterlimit="10" stroke-linejoin="miter" fill="none" stroke="#000000" d="M 655.3333 -.5891927 L 655.3333 530.07748 "/>
<path transform="matrix(.75,0,0,.75,72,97.44141)" stroke-width="1.3333334" stroke-linecap="butt" stroke-miterlimit="10" stroke-linejoin="miter" fill="none" stroke="#000000" d="M 0 .07747396 L 656 .07747396 "/>
<path transform="matrix(.75,0,0,.75,72,97.44141)" stroke-width="1.3333334" stroke-linecap="butt" stroke-miterlimit="10" stroke-linejoin="miter" fill="none" stroke="#000000" d="M 0 529.4108 L 656 529.4108 "/>
<path transform="matrix(.75,0,0,.75,72,607.83206)" stroke-width="1.3333334" stroke-linecap="butt" stroke-miterlimit="10" stroke-linejoin="miter" fill="none" stroke="#000000" d="M .6666667 -1.1090494 L .6666667 213.55762 "/>
<path transform="matrix(.75,0,0,.75,72,607.83206)" stroke-width="1.3333334" stroke-linecap="butt" stroke-miterlimit="10" stroke-linejoin="miter" fill="none" stroke="#000000" d="M 600.6667 -1.1090494 L 600.6667 213.55762 "/>
<path transform="matrix(.75,0,0,.75,72,607.83206)" stroke-width="1.3333334" stroke-linecap="butt" stroke-miterlimit="10" stroke-linejoin="miter" fill="none" stroke="#000000" d="M 0 -.4423828 L 601.3333 -.4423828 "/>
<path transform="matrix(.75,0,0,.75,72,607.83206)" stroke-width="1.3333334" stroke-linecap="butt" stroke-miterlimit="10" stroke-linejoin="miter" fill="none" stroke="#000000" d="M 0 212.89095 L 601.3333 212.89095 "/>
</g>
</g>
</svg>
