<?xml version="1.0" encoding="UTF-8" standalone="no"?>
<!DOCTYPE svg PUBLIC "-//W3C//DTD SVG 1.1//EN" "http://www.w3.org/Graphics/SVG/1.1/DTD/svg11.dtd">
<svg xmlns="http://www.w3.org/2000/svg" xmlns:xlink="http://www.w3.org/1999/xlink" version="1.1" width="596pt" height="842pt" viewBox="0 0 596 842">
<g enable-background="new">
<clipPath id="cp74">
<path d="M 0 0 L 595.5 0 L 595.5 842.25 L 0 842.25 Z " fill-rule="evenodd"/>
</clipPath>
<g clip-path="url(#cp74)">
<path transform="matrix(.75,0,0,.75,0,0)" d="M 0 0 L 794 0 L 794 1123 L 0 1123 Z " fill="#ffffff"/>
</g>
<clipPath id="cp75">
<path d="M 0 0 L 595.5 0 L 595.5 842.25 L 0 842.25 Z " fill-rule="evenodd"/>
</clipPath>
<g clip-path="url(#cp75)">
<text fill="#666666" xml:space="preserve" transform="matrix(.75 0 0 .75 72 72)" font-size="22.666666" font-family="Calibri"><tspan y="22.002604" x="0 12.080383 24.028016 35.931398 45.511629 56.78444 68.588199 76.177158 88.080539 98.93297 104.1324 109.33183 117.90518 128.54732 136.13628 141.33571 153.28334">Conceptualization</tspan></text>
<text xml:space="preserve" transform="matrix(.75 0 0 .75 72 101.865238)" font-size="14.666667" font-family="Calibri"><tspan y="14.2369799" x="0 7.1420595 14.842316 22.134659 25.44806 32.11064 39.810899 47.482484 57.95941 61.322908 68.61525 76.315509 83.0925 90.38484 93.69824 97.86302 105.5919 110.70155 122.40938 129.42978 132.79328 136.15677 141.70278 148.5871 153.49637 156.85987 164.58875 172.289 175.6024 181.16994 185.90016 192.92057 198.03022 202.93949 208.67174 211.98514 222.46207 225.82556 230.73484 238.43509 241.74849 248.76889 252.08229 258.15797 265.88685 273.5871 279.78453 287.07685 294.71266 299.62193 307.32218 314.3426 317.7061 321.06959 326.6156 333.49989 338.40919 341.77268 349.50157">The knowledge formalization starts with a conceptualization</tspan></text>
<text xml:space="preserve" transform="matrix(.75 0 0 .75 72 101.865238)" font-size="14.666667" font-family="Calibri"><tspan y="14.2369799" x="360.5152 363.8787 367.57856 374.8709 378.57075 382.22767 385.54109 390.45036 398.1506 405.44294 408.75636 412.11985 419.8201 427.11244 434.6766 439.58589 442.94938 447.42213 450.7856 456.86128 463.7456 468.65489 472.01838 479.74726 487.4475 490.76094 498.4898 502.96253 506.27595 514.0048 521.7051 525.2117 532.504 538.7014 543.6107 549.34298 552.6564 559.67678 567.377">i.e., the identification of objects and</tspan></text>
<text xml:space="preserve" transform="matrix(.75 0 0 .75 72 117.30664)" font-size="14.666667" font-family="Calibri"><tspan y="14.2369799" x="0 4.9092714 12.609528 19.90187 23.265366 28.375016 31.688416 36.60469 43.897035 47.26053 54.14485 59.054124 62.417619 70.1465 77.846759 83.57901 91.27927 94.64276 102.27139 108.00365 111.31705 121.793979 129.49423 132.85773 139.05515 146.7554 150.0688 157.0892 162.00548 169.29782 172.61122 180.31148 185.22776 192.5201 198.25235 205.9526 217.66043 224.95278 232.65303 235.96643 243.69532 248.80496 252.11837 259.13877 264.87104 270.60328 278.30354 290.01136 297.3037">their relationships which are presumed or assumed</tspan></text>
<text xml:space="preserve" transform="matrix(.75 0 0 .75 72 117.30664)" font-size="14.666667" font-family="Calibri"><tspan y="14.2369799" x="308.31736 313.08338 320.81227 324.12568 331.19599 337.5437 340.9072 346.47474 351.384 354.6974 358.06089 365.76115 369.07453 373.9838 381.68406 388.97639 392.2898 402.63066 410.35954 415.46919 418.83268 426.53294">to exist in the world.</tspan></text>
<text xml:space="preserve" transform="matrix(.75 0 0 .75 72 142.74903)" font-size="14.666667" font-family="Calibri"><tspan y="14.2369799" x="0 3.692688 11.392944 14.706345 19.615616 27.315873 30.679368 36.41162 39.72502 45.457277 52.74962 58.947038 63.856309 67.2198 74.948688 82.64894 86.30585 89.61925 99.967258 107.2596 110.573 121.04993 124.41342 127.77692 131.14041 134.45381 142.15407 149.44641 155.17867 161.37609 166.48574 169.84923 177.54949 184.84183 188.15523 195.85549 203.52707 214.004 217.3174 222.22667 229.92693 237.21927 240.53267 247.19525 254.89551 262.56709 273.044 276.4075 283.69984 291.4001 298.17707">In this section, we will describe how the knowledge</tspan></text>
<text xml:space="preserve" transform="matrix(.75 0 0 .75 72 142.74903)" font-size="14.666667" font-family="Calibri"><tspan y="14.2369799" x="308.78285 312.14634 317.8786 321.19203 325.3568 333.0857 338.19535 349.90318 356.92359 360.28709 363.65058 369.11067 376.403 384.10328 387.4167 394.43708 402.13734 409.8376 413.151 418.71855 423.48457 431.21345 436.1297 443.42207 451.1223 454.43574 457.79924 465.49949 468.81288 473.72215 481.4224 488.71473 492.02815 498.92689 503.73573 510.7561 518.45639 526.1566 529.47006 537.1703 544.0546 548.78488 555.80526 563.5055 570.5259 576.2581">is formalized and stored in the graph database</tspan></text>
<text xml:space="preserve" transform="matrix(.75 0 0 .75 72 158.18946)" font-size="14.666667" font-family="Calibri"><tspan y="14.2369799" x="0 7.020401 14.720657 22.420914 25.734314 33.119524 40.81978 48.491365 58.968294 62.331789 69.62413 77.32439 84.10138 91.39372 94.70712 102.40738 109.42778 115.160037 122.45238 125.76578 133.49466 137.96739 141.28079 146.19007 153.89032 161.18267 164.49607 169.96334 176.46121 182.02875 186.78046 194.0728 205.78063">and Knowledge base of the system.</tspan></text>
<text fill="#666666" xml:space="preserve" transform="matrix(.75 0 0 .75 72 183.63282)" font-size="17.333334" font-family="Calibri" font-style="italic"><tspan y="24.825522" x="0 10.93161 16.871232 25.78067 34.69011 43.59955 47.517 56.426439 65.33588 70.90314 79.81258 88.722019 97.631458 104.37488">Graph database</tspan></text>
<text xml:space="preserve" transform="matrix(.75 0 0 .75 72 211.88282)" font-size="14.666667" font-family="Calibri"><tspan y="14.2369799" x="0 7.1420595 14.842316 22.134659 25.44806 31.015595 35.924867 41.034517 48.73477 54.93219 59.84146 67.54172 72.45799 79.750339 83.063739 90.79262 95.26535 98.57875 103.48802 111.18828 118.48062 121.79402 130.81105 137.69538 142.4256 149.446 157.14626 164.16666 169.89891 177.19126 180.50466 183.86815 189.6004 192.9138 198.98947 206.71836 218.42618 226.12644 233.85532 239.58757 246.87992 254.58017 257.89356 265.62245 270.09516 273.40858 281.10884 288.8377 296.53797 303.83033">The structure of the Database is composed of nodes</tspan></text>
<text xml:space="preserve" transform="matrix(.75 0 0 .75 72 211.88282)" font-size="14.666667" font-family="Calibri"><tspan y="14.2369799" x="312.87599 319.89637 327.59663 335.29689 338.6103 345.90266 353.6029 360.37989 367.67225 373.40449 376.7179 387.19483 394.89509 398.25859 404.456 412.15626 415.46968 422.49006 427.4063 434.69868 438.0121 442.92137 450.6216 457.91395 461.22737 466.14363 473.43598 479.1682 486.86848 490.23197 495.14125 498.45466 506.18354 510.65626 513.96969 518.8789 526.57919 533.8715 537.18496 542.09426 547.20388 550.5674 558.26766 561.6311 568.92349">and edges which are the result of the triples</tspan></text>
<text xml:space="preserve" transform="matrix(.75 0 0 .75 72 227.32324)" font-size="14.666667" font-family="Calibri"><tspan y="14.2369799" x="0 7.0703279 13.460999 18.37027 23.179123 30.199524 36.396944 41.306215 44.66971 52.39859 60.098848 63.412248 71.1125 75.98581 83.65022 90.26987 93.63336 101.33362 108.62596 116.32622 119.63962 127.26825 133.9022 137.2156 142.12488 149.82514 157.11748 160.43088 165.89815 172.39603 177.96356 182.71527 190.00762 201.71544 205.02884 209.47295 212.78635 220.07869 223.93608 230.83483 234.14823 238.64243 244.5178 257.5567 260.9202 264.2837 267.6472 271.01069 278.03108">extraction provided by the system ( e.g ["William</tspan></text>
<text xml:space="preserve" transform="matrix(.75 0 0 .75 72 227.32324)" font-size="14.666667" font-family="Calibri"><tspan y="14.2369799" x="293.0523 300.75257 308.04493 315.74519 320.92646 327.56044 330.87385 337.50044 344.38478 349.13648 356.42884 362.16108 365.4745 368.83799 372.20149 375.56498 381.44038 385.0973 388.4107 394.28608 401.98634 409.2787 414.38835 418.31004 423.2193 426.5828 431.49208 434.85557 442.1479 448.02326 451.68019 454.9936 460.86897 472.57679 479.59718 486.4959 494.19618 501.0805 505.8322 513.1246 518.99996 522.31338 526.80758 531.25167">henry gates iii", "per:title", "magnate" ]).</tspan></text>
<text xml:space="preserve" transform="matrix(.75 0 0 .75 72 252.76563)" font-size="14.666667" font-family="Calibri"><tspan y="14.2369799" x="0 9.246033 12.609528 19.085938 26.37828 34.078538 37.391939 44.41234 47.72574 52.63501 57.74466 61.108156 68.80841 72.171909 79.46425 83.121158 86.434558 91.34383 99.04408 106.336429 109.649829 114.5591 124.89995 132.62883 135.94223 141.67449 149.37474 157.075 160.58162 167.87397 174.07138 178.98065 184.7129 188.0263 195.0467 199.96298 207.25533 210.56873 214.7335 222.46239 227.57204 239.27986 246.30027 249.66376 253.02725 258.4873 265.77967 273.47993 276.79335 283.81373">Given a triple, the two subjects are formalized as</tspan></text>
<text xml:space="preserve" transform="matrix(.75 0 0 .75 72 252.76563)" font-size="14.666667" font-family="Calibri"><tspan y="14.2369799" x="292.85939 300.55964 308.2885 315.98878 323.28114 329.01338 332.32679 339.34718 347.04743 354.74769 358.0611 362.97038 370.67063 377.96296 381.27638 386.19264 393.485 396.84849 403.7328 408.64207 412.00556 419.73445 427.4347 430.7481 434.1116 439.84388 443.1573 450.17768 457.87794 461.19136 468.4837 476.18397 482.96095 490.2533 493.5667 501.26698 508.48054 513.3898 523.7378 531.03018 538.3225 546.02279 549.3362 554.2455 561.94577">nodes and the relation is an edge between the</tspan></text>
<text xml:space="preserve" transform="matrix(.75 0 0 .75 72 268.20704)" font-size="14.666667" font-family="Calibri"><tspan y="14.2369799" x="0 7.7002565 15.429138 23.129395 30.421738 36.15399">nodes.</tspan></text>
<text xml:space="preserve" transform="matrix(.75 0 0 .75 72 293.6504)" font-size="14.666667" font-family="Calibri"><tspan y="14.2369799" x="0 7.1420595 14.842316 22.134659 25.44806 32.3468 37.155656 44.176057 51.876314 59.57657 62.88997 66.25346 71.98572 75.29912 81.37479 89.10367 100.81149 108.51175 116.24063 121.972888 129.26523 136.96549 140.27889 148.00777 152.4805 155.7939 162.8143 166.1277 171.85996 179.07352 183.98279 187.29619 195.02507 199.4978 202.8112 210.51146 218.24034 225.9406 233.23294 238.9652 242.6221 245.9355 253.22785 260.24824 266.44566 274.1459 277.4593 285.18818 289.6609 292.9743 303.45124 311.1515 314.51499 320.7124">The graph is composed of a set of nodes, each of which</tspan></text>
<text xml:space="preserve" transform="matrix(.75 0 0 .75 72 293.6504)" font-size="14.666667" font-family="Calibri"><tspan y="14.2369799" x="331.72608 338.74647 344.4787 347.7921 352.7014 360.40165 367.69398 371.0074 375.17219 382.90107 386.26457 389.62806 397.29963 407.77656 411.14006 418.8403 425.73905 429.05244 434.61997 439.52925 444.6389 452.33915 458.53657 463.44584 471.1461 476.06239 483.35475">as the following structure:</tspan></text>
<text xml:space="preserve" transform="matrix(.75 0 0 .75 72 319.0918)" font-size="14.666667" font-family="Arial" font-style="italic"><tspan y="14.2369799" x="24">&#x25cf;</tspan></text>
<text xml:space="preserve" transform="matrix(.75 0 0 .75 72 319.0918)" font-size="14.666667" font-family="Calibri" font-style="italic"><tspan y="14.2369799" x="48 51.692689 59.228349 66.22728 73.619709 78.52898 81.89247 86.80174">Identity</tspan></text>
<text xml:space="preserve" transform="matrix(.75 0 0 .75 72 319.0918)" font-size="14.666667" font-family="Calibri"><tspan y="14.2369799" x="93.35698 97.27867 100.59207 108.29233 115.992588 127.70041 135.40067 142.69301 147.80266 151.11606 161.59299 169.29325 172.65674 178.85416 186.55442 189.86782 193.23131 200.93157 208.2239 215.78809 220.69736 224.06085 228.53359 231.89708 239.18943 244.92168 248.23508 253.14435 260.8446 268.13697 271.45039 279.15065 286.87953 294.57978 301.87214 307.60438 310.9178 314.28129 321.98155 325.29493 330.2042 337.90446">: number which identifies the nodes in the</tspan></text>
<text xml:space="preserve" transform="matrix(.75 0 0 .75 72 319.0918)" font-size="14.666667" font-family="Calibri"><tspan y="14.2369799" x="348.51017 355.4089 360.21778 367.23817 374.93843 382.63868">graph.</tspan></text>
<text xml:space="preserve" transform="matrix(.75 0 0 .75 72 334.5332)" font-size="14.666667" font-family="Arial" font-style="italic"><tspan y="14.2369799" x="24">&#x25cf;</tspan></text>
<text xml:space="preserve" transform="matrix(.75 0 0 .75 72 334.5332)" font-size="14.666667" font-family="Calibri" font-style="italic"><tspan y="14.2369799" x="48 51.363496 58.899156 66.434818 73.43375 76.79724">labels</tspan></text>
<text xml:space="preserve" transform="matrix(.75 0 0 .75 72 334.5332)" font-size="14.666667" font-family="Calibri"><tspan y="14.2369799" x="82.50087 86.42256 89.73596 97.028308 104.048709 110.246128 117.94638 121.25978 128.96004 136.68892 144.38918 151.68152 154.99492 158.35842 164.09067 167.40407 174.42447 180.15673 185.88898 193.61786 199.81528 203.17877 210.0631 214.8148 222.10715 229.8074 233.1208 243.59774 246.96123 251.8705 259.57075 262.88417 269.90455 273.21797 276.58146 283.60188 291.30213 298.59449 301.95799 305.27137 310.18064 317.8809 324.7652">: each node is associated with a label that</tspan></text>
<text xml:space="preserve" transform="matrix(.75 0 0 .75 72 334.5332)" font-size="14.666667" font-family="Calibri"><tspan y="14.2369799" x="332.98786 336.35136 344.0516 351.34394 358.9081 363.81739 367.18089 371.65364 375.01713 382.30946 388.0417 391.3551 396.26438 403.96464 411.25697 414.57038 419.47966 426.1136 433.81385 441.1062 444.41963 452.1485 456.62123 459.93464 467.6349 475.36378 483.06404 490.35639 494.27809 497.5915 502.50077 510.20103 517.49337 520.80679 524.1703 531.1907 538.8909 546.1833 549.54678 552.86019 556.22366 561.9559 565.2693 572.168 575.5315 582.00796 589.3003">identifies the type of node; the label is given</tspan></text>
<text xml:space="preserve" transform="matrix(.75 0 0 .75 72 349.9746)" font-size="14.666667" font-family="Calibri"><tspan y="14.2369799" x="48 55.62863 62.26259 65.57599 70.48526 78.18552 85.47786 88.79126 98.25198 105.272388 116.98021 124.27255 127.58595 134.74233 142.3065 147.21578 150.57927 155.48854 162.1225 165.4359 173.13596 180.4283 186.50397 194.23285 201.13159 208.83185 212.19535 217.10462 220.46811 228.19699 235.89725 239.55416 242.86756 246.23105 250.70378 254.01718 258.92646 266.6267 273.91908 277.23249 282.69978 289.19764 294.76518 299.51689 306.80924 318.51707 321.83049 329.53074 336.55113">by the Name Entity Recognition, if the system has</tspan></text>
<text xml:space="preserve" transform="matrix(.75 0 0 .75 72 349.9746)" font-size="14.666667" font-family="Calibri"><tspan y="14.2369799" x="345.59675 350.513 357.80537 363.88105 371.60993 378.50868 386.20893 389.57243 395.03248 402.32484 410.0251 413.3385 418.24778 425.94804 433.24037 436.55378 443.84614 451.4103 456.31959 459.68309 464.59236 471.22633 474.53974 477.85316 482.29725 489.5896 493.447 500.34574 503.65913 511.35939 518.65176 523.51077 529.243 536.97189 544.6721">recognized the entity  (e.g person,</tspan></text>
<text xml:space="preserve" transform="matrix(.75 0 0 .75 72 365.417)" font-size="14.666667" font-family="Calibri"><tspan y="14.2369799" x="48 55.72888 60.638 67.2646 74.285 81.98526 85.348758 90.89476 97.77908 102.688358 106.05185 113.78073 121.48099 125.13789 128.4513 133.36057 136.72406 141.63333 144.99683 152.28917 155.60257 162.81613 167.54636 173.74378 177.44362 181.88773 185.80942 189.12282 196.8517 201.76097 209.46123 216.75357 221.94199 232.41892 235.78241 241.51467 248.807 252.1204 259.8493 267.54957 270.91307 277.547 280.8604 285.76969 293.46995 300.76228 304.07569 307.43919 314.4596 322.15986 329.4522">organization, title etc.); otherwise only the label</tspan></text>
<text xml:space="preserve" transform="matrix(.75 0 0 .75 72 365.417)" font-size="14.666667" font-family="Calibri"><tspan y="14.2369799" x="336.12907 341.76075 349.48963 354.20466 357.86158 361.175 368.19538 373.9276 377.24104 386.94508 394.64533 398.15196 405.44429 411.6417 416.55097 420.2079 423.5213 426.8848 432.61708 435.93049 442.82923 446.19273 452.66914 459.9615 467.66175">&#x201c;o&#x201d;, as Object, is given.</tspan></text>
<text xml:space="preserve" transform="matrix(.75 0 0 .75 72 380.85939)" font-size="14.666667" font-family="Arial" font-style="italic"><tspan y="14.2369799" x="24">&#x25cf;</tspan></text>
<text xml:space="preserve" transform="matrix(.75 0 0 .75 72 380.85939)" font-size="14.666667" font-family="Calibri" font-style="italic"><tspan y="14.2369799" x="48 55.53566 60.559434 68.08078 75.61644 82.61537 87.639148 92.548419 95.91191 102.91084">properties</tspan></text>
<text xml:space="preserve" transform="matrix(.75 0 0 .75 72 380.85939)" font-size="14.666667" font-family="Calibri"><tspan y="14.2369799" x="108.61447">:</tspan></text>
<text xml:space="preserve" transform="matrix(.75 0 0 .75 72 396.30079)" font-size="14.666667" font-family="ArialMT"><tspan y="14.2369799" x="72">&#x25cb;</tspan></text>
<text xml:space="preserve" transform="matrix(.75 0 0 .75 72 396.30079)" font-size="14.666667" font-family="Calibri" font-style="italic"><tspan y="14.2369799" x="96 103.53566 111.07132 122.66464 129.66358">name:</tspan></text>
<text xml:space="preserve" transform="matrix(.75 0 0 .75 72 396.30079)" font-size="14.666667" font-family="Calibri"><tspan y="14.2369799" x="136.89867 141.80794 149.5082 156.80054 160.11394 165.68148 170.59075 175.7004 179.06389 186.76415 193.66289 196.97629 204.70517 209.1779 212.4913 217.40058 225.10083 232.39318 235.70658 242.44072 250.25537 259.9594 263.27284 268.1821 273.29176 276.65525 284.3555 287.719 295.01136 300.7436 304.057 311.12733 317.518 322.42729 327.23616 334.25654 340.45396 345.20567 352.498 360.19825 363.51167 367.95576 375.2481 379.1055">the string of the SRO triples extracted (e.g</tspan></text>
<text xml:space="preserve" transform="matrix(.75 0 0 .75 72 396.30079)" font-size="14.666667" font-family="Calibri"><tspan y="14.2369799" x="389.31764 395.52226 408.56117 411.92466 415.28816 418.65165 422.01515 429.03553 440.74336 444.05677 451.75703 459.04939 466.74964 471.9309 478.56489 481.8783 488.50489 495.38923 500.14094 507.4333 513.1655 516.47897 519.8424 523.20596 526.727 532.86 537.3041">&#x201c;William henry gates iii&#x201d;).</tspan></text>
<text xml:space="preserve" transform="matrix(.75 0 0 .75 72 411.7422)" font-size="14.666667" font-family="ArialMT"><tspan y="14.2369799" x="72">&#x25cb;</tspan></text>
<text xml:space="preserve" transform="matrix(.75 0 0 .75 72 411.7422)" font-size="14.666667" font-family="Calibri" font-style="italic"><tspan y="14.2369799" x="96 99.363498 106.899158">id:</tspan></text>
<text xml:space="preserve" transform="matrix(.75 0 0 .75 72 411.7422)" font-size="14.666667" font-family="Calibri"><tspan y="14.2369799" x="114.13425 117.49774 125.198 132.49034 140.05452 144.96379 148.32729 152.80002 156.16352 162.23918 169.1235 174.03278 177.39627 185.12516 192.82541 196.13881 203.83907 211.53932 223.24715 230.9474 238.23975 243.3494 246.6628 254.39168 258.8644 262.1778 267.08708 274.78733 282.07966 285.39308 293.09333 299.97767 304.7079 311.72828 315.0417 320.60923 325.5185 330.62815 338.3284 344.52583 349.4351 357.13536 362.05165 369.344 372.6574 380.35768 386.0899 393.38227">identification number of the data structure used</tspan></text>
<text xml:space="preserve" transform="matrix(.75 0 0 .75 72 411.7422)" font-size="14.666667" font-family="Calibri"><tspan y="14.2369799" x="404.39588 409.16194 416.8908 420.20423 425.77177 430.53779 438.26667 443.18293 450.47529 453.7887 458.69798 466.39823 473.69056 477.00398 484.29634 491.8605 496.76979 500.13328 505.04255 511.6765 514.9899 518.3534 526.05368 529.36709 534.27639 541.9766">to store the entity in the</tspan></text>
<text xml:space="preserve" transform="matrix(.75 0 0 .75 72 427.18556)" font-size="14.666667" font-family="Calibri"><tspan y="14.2369799" x="96 103.70026 108.57356 116.302448 123.20119 128.01004 135.03044 146.73827 150.05167 157.75193 164.91535 169.08013 176.809 181.72528 189.01763 192.33103 200.03128 207.32363 210.68712 218.38738 225.28612 228.59952 234.16706 238.93309 246.66197 251.57825 258.8706 266.57087 269.88429 273.24778 280.94804 284.2614 289.1707 296.87095 304.16328 307.47669 315.17695 322.06129 326.7915 333.8119 341.51216 348.53254 354.26478 361.55714">program before being stored in the database.</tspan></text>
<text xml:space="preserve" transform="matrix(.75 0 0 .75 72 442.62599)" font-size="14.666667" font-family="ArialMT"><tspan y="14.2369799" x="72">&#x25cb;</tspan></text>
<text xml:space="preserve" transform="matrix(.75 0 0 .75 72 442.62599)" font-size="14.666667" font-family="Calibri" font-style="italic"><tspan y="14.2369799" x="96 100.90927 107.46451 115.00017">type</tspan></text>
<text xml:space="preserve" transform="matrix(.75 0 0 .75 72 442.62599)" font-size="14.666667" font-family="Calibri"><tspan y="14.2369799" x="121.9991 125.92079 129.23419 134.14347 141.84372 149.13607 152.44947 155.81296 162.83336 170.53362 177.82596 181.18946 184.50286 192.23174 196.70447 200.01787 204.92714 212.6274 219.91974 223.23314 230.9334 238.66228 246.36254 253.65488">: the label of the node.</tspan></text>
<text xml:space="preserve" transform="matrix(.75 0 0 .75 72 468.06837)" font-size="14.666667" font-family="Calibri"><tspan y="14.2369799" x="0 7.1420595 14.842316 22.134659 25.44806 32.740404 40.44066 47.21765 54.509996 60.24225 63.55565 71.28453 75.75726 79.07066 83.979938 91.68019 98.972537 102.285938 109.18468 113.99353 121.01393 128.71419 136.41445 139.72785 146.74825 151.66452 158.95687 162.27027 168.46768 173.38396 180.6763 187.56063 192.31233 199.60468 207.30493 210.61833 214.78311 222.512 225.87549 229.23899 236.91057 247.3875 250.75099 258.45124 265.34999 268.6634 273.57267 281.27293 288.56526 291.87867 296.79493 304.08729 307.45079 314.33509 319.2444 322.60789 330.33677">The edges of the graph are created following the relation</tspan></text>
<text xml:space="preserve" transform="matrix(.75 0 0 .75 72 468.06837)" font-size="14.666667" font-family="Calibri"><tspan y="14.2369799" x="341.3504 349.07929 353.552 356.86543 361.7747 369.47496 376.76728 380.0807 386.81483 394.62947 404.3335 407.6469 412.55619 417.66584 421.02934 428.72959 432.09309 439.38545 445.11769 448.4311 455.45149 463.15174 470.852 474.1654 479.07469 486.77494 493.97419 500.60816 503.92158 511.62184 518.39877 524.8751 532.1675 535.4809 540.39016 548.0904">of the SRO triples and they have the</tspan></text>
<text xml:space="preserve" transform="matrix(.75 0 0 .75 72 483.50978)" font-size="14.666667" font-family="Calibri"><tspan y="14.2369799" x="0 4.1647799 11.8936619 15.257156 18.620652 26.292237 36.769166 40.13266 47.832918 54.73166 58.04506 63.612596 68.521869 73.631519 81.33177 87.52919 92.43846 100.13872 105.05499 112.347339">following structure:</tspan></text>
<text xml:space="preserve" transform="matrix(.75 0 0 .75 72 508.95314)" font-size="14.666667" font-family="ArialMT"><tspan y="14.2369799" x="24">&#x25cf;</tspan></text>
<text xml:space="preserve" transform="matrix(.75 0 0 .75 72 508.95314)" font-size="14.666667" font-family="Calibri" font-style="italic"><tspan y="14.2369799" x="48 51.692689 59.228349 66.22728 73.619709 78.52898 81.89247 86.80174">Identity</tspan></text>
<text xml:space="preserve" transform="matrix(.75 0 0 .75 72 508.95314)" font-size="14.666667" font-family="Calibri"><tspan y="14.2369799" x="93.35698 97.27867 100.59207 108.29233 115.992588 127.70041 135.40067 142.69301 147.80266 151.11606 161.59299 169.29325 172.65674 178.85416 186.55442 189.86782 193.23131 200.93157 208.2239 215.78809 220.69736 224.06085 228.53359 231.89708 239.18943 244.92168 248.23508 253.14435 260.8446 268.13697 271.45039 278.74275 286.443 293.21998 300.51234 303.82575 307.18925 314.8895 318.20289 323.11216 330.8124">: number which identifies the edge in the</tspan></text>
<text xml:space="preserve" transform="matrix(.75 0 0 .75 72 508.95314)" font-size="14.666667" font-family="Calibri"><tspan y="14.2369799" x="341.4181 348.31684 353.12568 360.14607 367.8463 375.54658">graph.</tspan></text>
<text xml:space="preserve" transform="matrix(.75 0 0 .75 72 524.39358)" font-size="14.666667" font-family="Arial" font-style="italic"><tspan y="14.2369799" x="24">&#x25cf;</tspan></text>
<text xml:space="preserve" transform="matrix(.75 0 0 .75 72 524.39358)" font-size="14.666667" font-family="Calibri" font-style="italic"><tspan y="14.2369799" x="48 53.53891 58.24765 65.78331 70.80708">start</tspan></text>
<text xml:space="preserve" transform="matrix(.75 0 0 .75 72 524.39358)" font-size="14.666667" font-family="Calibri"><tspan y="14.2369799" x="75.716358 79.63805 82.95145 86.31494 94.0152 101.30754 108.87172 113.78099 117.144489 121.61722 124.98071 131.05638 137.9407 142.84998 146.21347 153.94235 161.64261 164.95601 172.65627 180.35652 192.06435 199.7646 207.05695 212.1666 215.48 223.20888 227.68161 230.99501 235.90428 243.60454 250.89688 254.21028 259.94255 267.6428 275.34306 278.84968 286.14204 292.33946 297.24873 300.56214 308.2624 315.99128 323.69154">: identification number of the subject node</tspan></text>
<text xml:space="preserve" transform="matrix(.75 0 0 .75 72 539.83596)" font-size="14.666667" font-family="ArialMT"><tspan y="14.2369799" x="24">&#x25cf;</tspan></text>
<text xml:space="preserve" transform="matrix(.75 0 0 .75 72 539.83596)" font-size="14.666667" font-family="Calibri" font-style="italic"><tspan y="14.2369799" x="48 54.99893 62.53459">end</tspan></text>
<text xml:space="preserve" transform="matrix(.75 0 0 .75 72 539.83596)" font-size="14.666667" font-family="Calibri"><tspan y="14.2369799" x="70.07025 73.99194 77.30534 80.66884 88.369098 95.66144 103.22562 108.13489 111.49838 115.971118 119.33461 125.41028 132.2946 137.20388 140.56737 148.29625 155.9965 159.3099 167.01016 174.71042 186.41825 194.1185 201.41085 206.5205 209.8339 217.56278 222.0355 225.3489 230.25818 237.95844 245.25078 248.56418 256.29307 263.99333 267.49995 274.7923 280.98973 285.899 289.2124 296.91267 304.64155 312.3418 319.63417">: identification number of the object node.</tspan></text>
<text xml:space="preserve" transform="matrix(.75 0 0 .75 72 555.2783)" font-size="14.666667" font-family="ArialMT"><tspan y="14.2369799" x="24">&#x25cf;</tspan></text>
<text xml:space="preserve" transform="matrix(.75 0 0 .75 72 555.2783)" font-size="14.666667" font-family="Calibri" font-style="italic"><tspan y="14.2369799" x="48 52.90927 59.464509 67.00017">type</tspan></text>
<text xml:space="preserve" transform="matrix(.75 0 0 .75 72 555.2783)" font-size="14.666667" font-family="Calibri"><tspan y="14.2369799" x="73.9991 77.92079 81.23419 86.80173 91.711 96.82065 100.18414 107.8844 114.78314 118.09654 124.50133 131.52173 134.88523 142.58548">: string value</tspan></text>
<text xml:space="preserve" transform="matrix(.75 0 0 .75 72 555.2783)" font-size="14.666667" font-family="Calibri"><tspan y="14.2369799" x="153.19123 160.9201 165.39284 168.70624 173.61551 181.31577 188.60811 191.92151 196.83779 204.13013 207.49362 214.37795 219.28722 222.65071 230.3796 238.07985 243.8121 251.51236 254.87586 262.5761 265.88954 270.33363 277.62599 281.48338 288.3821 291.6955 296.60478 299.96827 304.87754 308.24104 315.5334 319.97749">of the relationship (e.g title).</tspan></text>
<text xml:space="preserve" transform="matrix(.75 0 0 .75 72 570.71878)" font-size="14.666667" font-family="ArialMT"><tspan y="14.2369799" x="24">&#x25cf;</tspan></text>
<text xml:space="preserve" transform="matrix(.75 0 0 .75 72 570.71878)" font-size="14.666667" font-family="Calibri" font-style="italic"><tspan y="14.2369799" x="48 55.53566 60.559434 68.08078 75.61644 82.61537 87.639148 92.548419 95.91191 102.91084">properties</tspan></text>
<text xml:space="preserve" transform="matrix(.75 0 0 .75 72 570.71878)" font-size="14.666667" font-family="Calibri"><tspan y="14.2369799" x="108.61447">:</tspan></text>
<text xml:space="preserve" transform="matrix(.75 0 0 .75 72 586.1621)" font-size="14.666667" font-family="ArialMT"><tspan y="14.2369799" x="72">&#x25cb;</tspan></text>
<text xml:space="preserve" transform="matrix(.75 0 0 .75 72 586.1621)" font-size="14.666667" font-family="Calibri" font-style="italic"><tspan y="14.2369799" x="96 101.53891 106.24765 113.78331 118.80708 123.716358">start:</tspan></text>
<text xml:space="preserve" transform="matrix(.75 0 0 .75 72 586.1621)" font-size="14.666667" font-family="Calibri"><tspan y="14.2369799" x="130.95145 134.31494 142.0152 149.30754 156.87172 161.78099 165.14449 169.61722 172.98072 179.05638 185.9407 190.84998 194.21347 201.94235 209.64261 212.95601 220.65627 228.35652 240.06435 247.7646 255.05695 260.1666 263.47999 271.20887 275.68159 278.995 283.90428 291.60453 298.89686 302.21028 309.91053 316.79487 321.5251 328.54548 331.8589 337.42643 342.3357 347.44535 355.1456 361.34303 366.2523 373.95256 378.86885">identification number of the data structure</tspan></text>
<text xml:space="preserve" transform="matrix(.75 0 0 .75 72 586.1621)" font-size="14.666667" font-family="Calibri"><tspan y="14.2369799" x="389.47456 397.1748 402.90705 410.1994 417.89967 421.21308 425.97914 433.708 437.02143 442.58897 447.35499 455.08387 460.00013 467.29249 470.6059 475.51518 483.21543 490.50776 493.82118 501.11354 508.6777 513.587 516.95046 521.85977 528.4937 531.8071 535.17068 542.8709 546.1843 551.0936 558.7939">used to store the entity in the</tspan></text>
<text xml:space="preserve" transform="matrix(.75 0 0 .75 72 601.6035)" font-size="14.666667" font-family="Calibri"><tspan y="14.2369799" x="96 103.70026 108.57356 116.302448 123.20119 128.01004 135.03044 146.73827 150.05167 157.75193 164.91535 169.08013 176.809 181.72528 189.01763 192.33103 200.03128 207.32363 210.68712 218.38738 225.28612 228.59952 234.16706 238.93309 246.66197 251.57825 258.8706 266.57087 269.88429 273.24778 280.94804 284.2614 289.1707 296.87095 304.16328 307.47669 315.17695 322.06129 326.7915 333.8119 341.51216 348.53254 354.26478 361.55714 364.87055 372.59944 377.07215 380.38557 385.29484 392.9951">program before being stored in the database of the</tspan></text>
<text xml:space="preserve" transform="matrix(.75 0 0 .75 72 601.6035)" font-size="14.666667" font-family="Calibri"><tspan y="14.2369799" x="403.60084 409.16838 413.8986 420.919 426.02867 430.93794 434.25135 441.9516 449.68049 457.38075 464.6731">start node.</tspan></text>
<text xml:space="preserve" transform="matrix(.75 0 0 .75 72 617.0449)" font-size="14.666667" font-family="ArialMT"><tspan y="14.2369799" x="72">&#x25cb;</tspan></text>
<text xml:space="preserve" transform="matrix(.75 0 0 .75 72 617.0449)" font-size="14.666667" font-family="Calibri" font-style="italic"><tspan y="14.2369799" x="96 102.99893 110.53459 118.07025">end:</tspan></text>
<text xml:space="preserve" transform="matrix(.75 0 0 .75 72 617.0449)" font-size="14.666667" font-family="Calibri"><tspan y="14.2369799" x="125.30534 128.66884 136.3691 143.66144 151.22562 156.13489 159.49839 163.97112 167.33461 173.41028 180.2946 185.20388 188.56737 196.29625 203.9965 207.3099 215.01016 222.71042 234.41825 242.1185 249.41085 254.5205 257.8339 265.56278 270.03553 273.34895 278.2582 285.95848 293.2508 296.5642 304.26448 311.1488 315.87904 322.8994 326.21284 331.78038 336.68965 341.7993 349.49955 355.69697 360.60624 368.3065 373.22279 380.51515 383.82856 391.5288 397.26106 404.5534">identification number of the data structure used</tspan></text>
<text xml:space="preserve" transform="matrix(.75 0 0 .75 72 617.0449)" font-size="14.666667" font-family="Calibri"><tspan y="14.2369799" x="415.56697 420.333 428.0619 431.3753 436.94285 441.70887 449.43775 454.354 461.64637 464.95979 469.86906 477.5693 484.86164 488.17506 495.4674 503.0316 507.94087 511.30436 516.2136 522.8476 526.161 529.52456 537.2248 540.5382 545.4475 553.14779">to store the entity in the</tspan></text>
<text xml:space="preserve" transform="matrix(.75 0 0 .75 72 632.4873)" font-size="14.666667" font-family="Calibri"><tspan y="14.2369799" x="96 103.70026 108.57356 116.302448 123.20119 128.01004 135.03044 146.73827 150.05167 157.75193 164.91535 169.08013 176.809 181.72528 189.01763 192.33103 200.03128 207.32363 210.68712 218.38738 225.28612 228.59952 234.16706 238.93309 246.66197 251.57825 258.8706 266.57087 269.88429 273.24778 280.94804 284.2614 289.1707 296.87095 304.16328 307.47669 315.17695 322.06129 326.7915 333.8119 341.51216 348.53254 354.26478 361.55714 364.87055 372.59944 377.07215 380.38557 385.29484 392.9951">program before being stored in the database of the</tspan></text>
<text xml:space="preserve" transform="matrix(.75 0 0 .75 72 632.4873)" font-size="14.666667" font-family="Calibri"><tspan y="14.2369799" x="403.60084 410.8932 418.59346 426.2937 429.60713 437.30738 445.03627 452.7365 460.02888">end node.</tspan></text>
<text xml:space="preserve" transform="matrix(.75 0 0 .75 72 647.9297)" font-size="14.666667" font-family="ArialMT"><tspan y="14.2369799" x="72">&#x25cb;</tspan></text>
<text xml:space="preserve" transform="matrix(.75 0 0 .75 72 647.9297)" font-size="14.666667" font-family="Calibri" font-style="italic"><tspan y="14.2369799" x="96 100.90927 107.46451 115.00017 121.9991">type:</tspan></text>
<text xml:space="preserve" transform="matrix(.75 0 0 .75 72 647.9297)" font-size="14.666667" font-family="Calibri"><tspan y="14.2369799" x="129.23419 134.80173 139.711 144.82065 148.18415 155.8844 162.78314 166.09654 172.50133 179.52173 182.88523 190.58548 197.87783 201.19123 208.9201 213.39284 216.70624 221.61551 229.31577 236.60811 239.92151 244.83779 252.13013 255.49362 262.37794 267.2872 270.6507 278.37959 286.07984 291.81208 299.51234 302.87583 310.57609 313.88948 318.33357 325.62593 329.4833 336.38206 339.69544 344.6047 347.9682 352.87748 356.24098 363.53334 367.97743">string value of the relationship (e.g title).</tspan></text>
<text xml:space="preserve" transform="matrix(.75 0 0 .75 72 688.8135)" font-size="14.666667" font-family="Calibri"><tspan y="14.2369799" x="0 6.9128725 13.933273 20.130692 27.830948 31.144349 36.060625 43.352968 46.71646 53.600786 58.510057 61.87355 69.60243 77.30269 80.61609 88.316349 95.33675 101.069 104.3824 111.4028 114.7162 120.28374 125.19301 130.30266 133.66616 141.36641 148.26515 151.57855 162.05548 169.75574 173.11923 179.31665 187.0169 190.3303 196.40598 204.13486 211.69904 216.42926 223.44966 226.81316 234.51342 240.24567 243.55907 248.46834 256.16859 263.46095 266.77436 271.5404 279.2693 286.96955 290.33305">Each relation has a string which contains the topic</tspan></text>
<text xml:space="preserve" transform="matrix(.75 0 0 .75 72 688.8135)" font-size="14.666667" font-family="Calibri"><tspan y="14.2369799" x="299.8438 307.5727 312.0454 315.35884 320.2681 327.96836 335.26069 338.5741 343.49037 350.7827 354.1462 361.03053 365.9398 369.30329 377.03218 384.73243 388.04585 392.48994 399.7823 403.63969 410.53843 413.8518 419.9848 427.68507 434.97743 440.08708 444.00877 448.91804 452.28153 457.1908 460.5543 467.84663 473.9796 478.4237 482.12355 485.43696 492.579 500.27928 507.5716 510.885 516.4525 521.3618 526.47146 529.83499 537.5352 544.43399 547.7474 555.47628">of the relation (e.g &#x201c;per:title&#x201d;). The string of</tspan></text>
<text xml:space="preserve" transform="matrix(.75 0 0 .75 72 688.8135)" font-size="14.666667" font-family="Calibri"><tspan y="14.2369799" x="563.26248 568.17178 575.872">the</tspan></text>
<text xml:space="preserve" transform="matrix(.75 0 0 .75 72 704.2539)" font-size="14.666667" font-family="Calibri"><tspan y="14.2369799" x="0 4.766037 12.494919 20.195176 23.55867 29.756089 33.06949 38.637025 43.36725 50.38765 55.4973 60.40657 66.138828 69.452228 79.92915 83.29265 88.20192 95.902179 99.215579 105.34859 113.04884 120.34119 125.450839 129.37253 135.50554 138.81894 142.18244 146.65517 149.96857 154.87784 162.5781 169.87044 173.18384 177.65657 181.02007 185.87906 191.4466 196.35587 199.66927 205.40152 213.10178 220.80204 224.30866 231.601 237.79842 242.70769 246.02109 249.38459 255.11684 258.43025">topic starts with &#x201c;per:&#x201d; if the first subject is a</tspan></text>
<text xml:space="preserve" transform="matrix(.75 0 0 .75 72 704.2539)" font-size="14.666667" font-family="Calibri"><tspan y="14.2369799" x="268.76405 276.4643 283.75666 288.61567 294.3479 302.07679 309.77705 313.43397 316.74739 322.3791 330.10798 335.0171 341.91584 345.83753 351.97053 355.28395 358.64744 363.12019 366.4336 371.34288 379.04313 386.33546 389.64888 395.3811 403.08137 410.78163 414.28825 421.58058 427.77799 432.68727 436.00068 439.36418 445.09645 448.40986 454.48554 462.21443 469.91468 475.6469 479.0104 486.71067 494.003 498.91926 506.2116 513.91189 517.2253 524.24569">person, &#x201c;org:&#x201d; if the subject is considered an</tspan></text>
<text xml:space="preserve" transform="matrix(.75 0 0 .75 72 719.69729)" font-size="14.666667" font-family="Calibri"><tspan y="14.2369799" x="0 7.728882 12.6380009 19.264603 26.285004 33.98526 37.348756 42.89476 49.779085 54.688356 58.05185 65.78073 73.48099 78.87669 84.95236 92.681247 104.38907 112.089328 119.109729 126.53784 133.1718 136.4852 140.9293 148.22165 152.07904 158.97779 162.29119 172.76811 176.1316 181.04088 188.74114 192.05454 198.18755 205.8878 213.18015 218.2898 222.21149 227.12076 230.48426 235.39353 238.75702 246.04936 252.18238 255.49578 260.40504 268.1053 275.39765 278.71107 285.37367 293.0739">organization/company (e.g with &#x201c;per:title&#x201d; the kbp</tspan></text>
<text xml:space="preserve" transform="matrix(.75 0 0 .75 72 719.69729)" font-size="14.666667" font-family="Calibri"><tspan y="14.2369799" x="304.08753 311.78779 318.80818 324.5404 327.85383 332.77009 340.06245 346.13813 353.867 360.76576 368.466 371.8295 377.28956 384.5819 392.28218 395.59559 401.8002 414.8391 418.2026 421.5661 424.9296 428.2931 435.31349 447.0213 450.33473 458.03498 465.32734 473.0276 478.20887 484.84284 488.15626 494.78285 501.66719 506.41889 513.71127 519.4435 522.7569 526.12039 529.4839 533.00497 539.13796 542.45138 550.1516 557.172 562.9043 566.2177">has recognized &#x201c;William henry gates iii&#x201d; has a</tspan></text>
<text xml:space="preserve" transform="matrix(.75 0 0 .75 72 735.1387)" font-size="14.666667" font-family="Calibri"><tspan y="14.2369799" x="0 7.7002565 14.9925999 19.851593 25.583847 33.31273 41.012987 45.457094">person).</tspan></text>
</g>
<clipPath id="cp76">
<path d="M 0 0 L 595.5 0 L 595.5 842.25 L 0 842.25 Z " fill-rule="evenodd"/>
</clipPath>
<g clip-path="url(#cp76)">
<path transform="matrix(.75,0,0,.75,72,319.0918)" stroke-width="1.3333334" stroke-linecap="butt" stroke-miterlimit="10" stroke-linejoin="miter" fill="none" stroke="#000000" d="M 48 15.211589 L 93.333339 15.211589 "/>
<path transform="matrix(.75,0,0,.75,72,334.5332)" stroke-width="1.3333334" stroke-linecap="butt" stroke-miterlimit="10" stroke-linejoin="miter" fill="none" stroke="#000000" d="M 48 15.9557299 L 82.666667 15.9557299 "/>
<path transform="matrix(.75,0,0,.75,72,380.85939)" stroke-width="1.3333334" stroke-linecap="butt" stroke-miterlimit="10" stroke-linejoin="miter" fill="none" stroke="#000000" d="M 48 15.521484 L 108 15.521484 "/>
<path transform="matrix(.75,0,0,.75,72,396.30079)" stroke-width="1.3333334" stroke-linecap="butt" stroke-miterlimit="10" stroke-linejoin="miter" fill="none" stroke="#000000" d="M 96 16.265625 L 133.33333 16.265625 "/>
<path transform="matrix(.75,0,0,.75,72,411.7422)" stroke-width="1.3333334" stroke-linecap="butt" stroke-miterlimit="10" stroke-linejoin="miter" fill="none" stroke="#000000" d="M 96 15.676433 L 110.666667 15.676433 "/>
<path transform="matrix(.75,0,0,.75,72,442.62599)" stroke-width="1.3333334" stroke-linecap="butt" stroke-miterlimit="10" stroke-linejoin="miter" fill="none" stroke="#000000" d="M 96 15.83138 L 121.333339 15.83138 "/>
<path transform="matrix(.75,0,0,.75,72,508.95314)" stroke-width="1.3333334" stroke-linecap="butt" stroke-miterlimit="10" stroke-linejoin="miter" fill="none" stroke="#000000" d="M 48 15.397136 L 93.333339 15.397136 "/>
<path transform="matrix(.75,0,0,.75,72,524.39358)" stroke-width="1.3333334" stroke-linecap="butt" stroke-miterlimit="10" stroke-linejoin="miter" fill="none" stroke="#000000" d="M 48 16.141276 L 76 16.141276 "/>
<path transform="matrix(.75,0,0,.75,72,539.83596)" stroke-width="1.3333334" stroke-linecap="butt" stroke-miterlimit="10" stroke-linejoin="miter" fill="none" stroke="#000000" d="M 48 15.552083 L 70.666667 15.552083 "/>
<path transform="matrix(.75,0,0,.75,72,555.2783)" stroke-width="1.3333334" stroke-linecap="butt" stroke-miterlimit="10" stroke-linejoin="miter" fill="none" stroke="#000000" d="M 48 16.296225 L 73.333339 16.296225 "/>
<path transform="matrix(.75,0,0,.75,72,555.2783)" stroke-width="1.3333334" stroke-linecap="butt" stroke-miterlimit="10" stroke-linejoin="miter" fill="none" stroke="#000000" d="M 149.33333 16.296225 L 153.33333 16.296225 "/>
<path transform="matrix(.75,0,0,.75,72,570.71878)" stroke-width="1.3333334" stroke-linecap="butt" stroke-miterlimit="10" stroke-linejoin="miter" fill="none" stroke="#000000" d="M 48 15.707031 L 108 15.707031 "/>
<path transform="matrix(.75,0,0,.75,72,586.1621)" stroke-width="1.3333334" stroke-linecap="butt" stroke-miterlimit="10" stroke-linejoin="miter" fill="none" stroke="#000000" d="M 96 16.451172 L 128 16.451172 "/>
<path transform="matrix(.75,0,0,.75,72,617.0449)" stroke-width="1.3333334" stroke-linecap="butt" stroke-miterlimit="10" stroke-linejoin="miter" fill="none" stroke="#000000" d="M 96 15.272786 L 121.333339 15.272786 "/>
<path transform="matrix(.75,0,0,.75,72,647.9297)" stroke-width="1.3333334" stroke-linecap="butt" stroke-miterlimit="10" stroke-linejoin="miter" fill="none" stroke="#000000" d="M 96 15.427734 L 125.333339 15.427734 "/>
</g>
</g>
</svg>
