<?xml version="1.0" encoding="UTF-8" standalone="no"?>
<!DOCTYPE svg PUBLIC "-//W3C//DTD SVG 1.1//EN" "http://www.w3.org/Graphics/SVG/1.1/DTD/svg11.dtd">
<svg xmlns="http://www.w3.org/2000/svg" xmlns:xlink="http://www.w3.org/1999/xlink" version="1.1" width="596pt" height="842pt" viewBox="0 0 596 842">
<g enable-background="new">
<clipPath id="cp131">
<path d="M 0 0 L 595.5 0 L 595.5 842.25 L 0 842.25 Z " fill-rule="evenodd"/>
</clipPath>
<g clip-path="url(#cp131)">
<path transform="matrix(.75,0,0,.75,0,0)" d="M 0 0 L 794 0 L 794 1123 L 0 1123 Z " fill="#ffffff"/>
</g>
<clipPath id="cp132">
<path d="M 0 0 L 595.5 0 L 595.5 842.25 L 0 842.25 Z " fill-rule="evenodd"/>
</clipPath>
<g clip-path="url(#cp132)">
<path transform="matrix(.75,0,0,.75,72,112.88281)" d="M 0 0 L 601 0 L 601 272 L 0 272 Z " fill="#ffffff"/>
</g>
<clipPath id="cp133">
<path d="M 72.75 113.63281 L 522.75 113.63281 L 522.75 316.6875 L 72.75 316.6875 Z " fill-rule="evenodd"/>
</clipPath>
<g clip-path="url(#cp133)">
<path transform="matrix(.75,0,0,.75,77.25,118.88281)" d="M 0 0 L 145.04535 0 L 145.04535 17.173178 L 0 17.173178 Z " fill="#ffffff"/>
<path transform="matrix(.75,0,0,.75,77.25,148.50782)" d="M 0 0 L 491.54258 0 L 491.54258 17.173178 L 0 17.173178 Z " fill="#ffffff"/>
<path transform="matrix(.75,0,0,.75,77.25,163.31836)" d="M 0 0 L 393.80033 0 L 393.80033 17.173178 L 0 17.173178 Z " fill="#ffffff"/>
<path transform="matrix(.75,0,0,.75,77.25,192.94336)" d="M 0 0 L 459.31028 0 L 459.31028 17.173178 L 0 17.173178 Z " fill="#ffffff"/>
<path transform="matrix(.75,0,0,.75,77.25,222.5664)" d="M 0 0 L 193.3938 0 L 193.3938 17.173178 L 0 17.173178 Z " fill="#ffffff"/>
<path transform="matrix(.75,0,0,.75,77.25,252.1914)" d="M 0 0 L 580.1814 0 L 580.1814 17.173178 L 0 17.173178 Z " fill="#ffffff"/>
<path transform="matrix(.75,0,0,.75,77.25,267.0039)" d="M 0 0 L 490.14878 0 L 490.14878 17.173178 L 0 17.173178 Z " fill="#ffffff"/>
<path transform="matrix(.75,0,0,.75,77.25,296.625)" d="M 0 0 L 515.7168 0 L 515.7168 17.173178 L 0 17.173178 Z " fill="#ffffff"/>
</g>
<clipPath id="cp134">
<path d="M 0 0 L 595.5 0 L 595.5 842.25 L 0 842.25 Z " fill-rule="evenodd"/>
</clipPath>
<g clip-path="url(#cp134)">
<text xml:space="preserve" transform="matrix(.75 0 0 .75 72 72)" font-size="14.666667" font-family="Calibri"><tspan y="14.2369799" x="0 7.1420595 14.842316 22.134659 25.44806 28.811554 32.17505 37.742586 42.651857 45.965257 49.32875 55.061006 58.374406 64.45007 72.178958 83.88678 91.587039 99.31592 105.04817 112.340518 120.04077 123.35417 131.08306 135.55579 138.86919 143.77846 151.47872 158.77106 162.08446 165.44795 173.14821 176.46161 184.19049 188.66323 191.97663 196.8859 204.58615 211.8785 215.1919 222.89215 230.62104 238.32129 245.61363 248.92704 259.40397 267.10423 270.4677 276.66514 284.3654 287.67878 293.411 300.29536 305.2046 308.56809 314.16426 318.637 322.0005 329.29286 335.0251 338.3385 343.24778 350.94804 358.24037 361.55378 368.35224 376.08113 383.1015 386.465 389.77839 397.47865 404.771 409.63 415.36225 423.09114 430.79139 436.4521 443.8804 447.1938 454.92268 460.03233 463.3457 471.0746 475.9837 482.61036 489.63075 497.331 500.6945 506.24049 513.1248 518.0341 521.3976 529.12649 536.8267 542.4874">The list is composed of the id of the node which satisfies the goal person/1 or organization/1</tspan></text>
<text xml:space="preserve" transform="matrix(.75 0 0 .75 72 87.44141)" font-size="14.666667" font-family="Calibri"><tspan y="14.2369799" x="0 7.7002565 14.9925999 22.692856 29.985199 37.685457 45.38571 48.749208 56.449464 63.348207 66.661609 74.39049 82.090747 85.404148 95.88107 103.58133 110.46565 115.37492 118.688327 122.05182 127.78407 131.09748 136.00675 143.707 150.99935 154.31275 162.013 169.30535 176.59769 184.29795">depending on what is the need.</tspan></text>
</g>
<clipPath id="cp135">
<path d="M 72.75 113.63281 L 522.75 113.63281 L 522.75 316.6875 L 72.75 316.6875 Z " fill-rule="evenodd"/>
</clipPath>
<g clip-path="url(#cp135)">
<text xml:space="preserve" transform="matrix(.75 0 0 .75 77.25 118.88281)" font-size="14.666667" font-family="Consolas"><tspan y="13.399089" x="0 8.058075 16.11615 24.174225 32.2323 40.290376 48.34845 56.406526 64.4646 72.522678 80.58075 88.638828 96.6969 104.754978 112.81305 120.871128 128.9292 136.98728">%person_list(LIST)</tspan></text>
<text fill="#434f54" xml:space="preserve" transform="matrix(.75 0 0 .75 77.25 148.50782)" font-size="14.666667" font-family="Consolas"><tspan y="13.399089" x="0 8.058075 16.11615 24.174225 32.2323 40.290376 48.34845 56.406526 64.4646 72.522678 80.58075 88.638828 96.6969 104.754978 112.81305 120.871128 128.9292 136.98728 145.04535 153.10343 161.1615 169.21958 177.27765 185.33573 193.3938 201.45188 209.50995 217.56803 225.6261 233.68418">create_list_person :- findall(</tspan></text>
<text fill="#00979d" xml:space="preserve" transform="matrix(.75 0 0 .75 77.25 148.50782)" font-size="14.666667" font-family="Consolas"><tspan y="13.399089" x="241.74225 249.80033 257.8584 265.91648 273.97456 282.03263">ID_PER</tspan></text>
<text fill="#434f54" xml:space="preserve" transform="matrix(.75 0 0 .75 77.25 148.50782)" font-size="14.666667" font-family="Consolas"><tspan y="13.399089" x="290.0907 298.14878 306.20686 314.26493 322.323 330.38108 338.43916 346.49723 354.5553">, person(</tspan></text>
<text fill="#00979d" xml:space="preserve" transform="matrix(.75 0 0 .75 77.25 148.50782)" font-size="14.666667" font-family="Consolas"><tspan y="13.399089" x="362.61338 370.67146 378.72953 386.7876 394.84568 402.90376">ID_PER</tspan></text>
<text fill="#434f54" xml:space="preserve" transform="matrix(.75 0 0 .75 77.25 148.50782)" font-size="14.666667" font-family="Consolas"><tspan y="13.399089" x="410.96183">)</tspan></text>
<text fill="#434f54" xml:space="preserve" transform="matrix(.75 0 0 .75 77.25 148.50782)" font-size="14.666667" font-family="Consolas"><tspan y="13.399089" x="427.07798">,</tspan></text>
<text fill="#00979d" xml:space="preserve" transform="matrix(.75 0 0 .75 77.25 148.50782)" font-size="14.666667" font-family="Consolas"><tspan y="13.399089" x="443.19413 451.2522 459.31028 467.36836">LIST</tspan></text>
<text fill="#434f54" xml:space="preserve" transform="matrix(.75 0 0 .75 77.25 148.50782)" font-size="14.666667" font-family="Consolas"><tspan y="13.399089" x="475.42643 483.4845">),</tspan></text>
<text fill="#434f54" xml:space="preserve" transform="matrix(.75 0 0 .75 77.25 163.31836)" font-size="14.666667" font-family="Consolas"><tspan y="13.399089" x="176.2323 184.29038 192.34845 200.40653 208.4646 216.52268 224.58075 232.63883 240.6969 248.75498 256.81306 264.87113 272.9292 280.98728 289.04536 297.10343 305.1615 313.21958 321.27766 329.33573">asserta(person_list(</tspan></text>
<text fill="#00979d" xml:space="preserve" transform="matrix(.75 0 0 .75 77.25 163.31836)" font-size="14.666667" font-family="Consolas"><tspan y="13.399089" x="337.3938 345.45188 353.50996 361.56803">LIST</tspan></text>
<text fill="#434f54" xml:space="preserve" transform="matrix(.75 0 0 .75 77.25 163.31836)" font-size="14.666667" font-family="Consolas"><tspan y="13.399089" x="369.6261 377.68418 385.74226">)).</tspan></text>
<text fill="#434f54" xml:space="preserve" transform="matrix(.75 0 0 .75 77.25 192.94336)" font-size="14.666667" font-family="Consolas"><tspan y="13.399089" x="0 8.058075 16.11615 24.174225 32.2323 40.290376 48.34845 56.406526 64.4646 72.522678 80.58075 88.638828 96.6969 104.754978 112.81305 120.871128 128.9292 136.98728 145.04535 153.10343 161.1615 169.21958 177.27765 185.33573 193.3938 201.45188 209.50995 217.56803 225.6261 233.68418 241.74225 249.80033 257.8584">print_person :-      person_list(</tspan></text>
<text fill="#00979d" xml:space="preserve" transform="matrix(.75 0 0 .75 77.25 192.94336)" font-size="14.666667" font-family="Consolas"><tspan y="13.399089" x="265.91648 273.97456 282.03263 290.0907">LIST</tspan></text>
<text fill="#434f54" xml:space="preserve" transform="matrix(.75 0 0 .75 77.25 192.94336)" font-size="14.666667" font-family="Consolas"><tspan y="13.399089" x="298.14878 306.20686 314.26493 322.323 330.38108 338.43916 346.49723 354.5553 362.61338 370.67146 378.72953 386.7876 394.84568 402.90376">), print_list(</tspan></text>
<text fill="#00979d" xml:space="preserve" transform="matrix(.75 0 0 .75 77.25 192.94336)" font-size="14.666667" font-family="Consolas"><tspan y="13.399089" x="410.96183 419.0199 427.07798 435.13606">LIST</tspan></text>
<text fill="#434f54" xml:space="preserve" transform="matrix(.75 0 0 .75 77.25 192.94336)" font-size="14.666667" font-family="Consolas"><tspan y="13.399089" x="443.19413 451.2522">).</tspan></text>
<text xml:space="preserve" transform="matrix(.75 0 0 .75 77.25 222.5664)" font-size="14.666667" font-family="Consolas"><tspan y="13.399089" x="0 8.058075 16.11615 24.174225 32.2323 40.290376 48.34845 56.406526 64.4646 72.522678 80.58075 88.638828 96.6969 104.754978 112.81305 120.871128 128.9292 136.98728 145.04535 153.10343 161.1615 169.21958 177.27765 185.33573">%organization_list(LIST)</tspan></text>
<text fill="#434f54" xml:space="preserve" transform="matrix(.75 0 0 .75 77.25 252.1914)" font-size="14.666667" font-family="Consolas"><tspan y="13.399089" x="0 8.058075 16.11615 24.174225 32.2323 40.290376 48.34845 56.406526 64.4646 72.522678 80.58075 88.638828 96.6969 104.754978 112.81305 120.871128 128.9292 136.98728 145.04535 153.10343 161.1615 169.21958 177.27765 185.33573 193.3938 201.45188 209.50995 217.56803 225.6261 233.68418 241.74225 249.80033 257.8584 265.91648 273.97456 282.03263">create_list_organization :- findall(</tspan></text>
<text fill="#00979d" xml:space="preserve" transform="matrix(.75 0 0 .75 77.25 252.1914)" font-size="14.666667" font-family="Consolas"><tspan y="13.399089" x="290.0907 298.14878 306.20686 314.26493 322.323 330.38108">ID_ORG</tspan></text>
<text fill="#434f54" xml:space="preserve" transform="matrix(.75 0 0 .75 77.25 252.1914)" font-size="14.666667" font-family="Consolas"><tspan y="13.399089" x="338.43916 346.49723 354.5553 362.61338 370.67146 378.72953 386.7876 394.84568 402.90376 410.96183 419.0199 427.07798 435.13606 443.19413 451.2522">, organization(</tspan></text>
<text fill="#00979d" xml:space="preserve" transform="matrix(.75 0 0 .75 77.25 252.1914)" font-size="14.666667" font-family="Consolas"><tspan y="13.399089" x="459.31028 467.36836 475.42643 483.4845 491.54258 499.60066">ID_ORG</tspan></text>
<text fill="#434f54" xml:space="preserve" transform="matrix(.75 0 0 .75 77.25 252.1914)" font-size="14.666667" font-family="Consolas"><tspan y="13.399089" x="507.65873 515.7168">),</tspan></text>
<text fill="#00979d" xml:space="preserve" transform="matrix(.75 0 0 .75 77.25 252.1914)" font-size="14.666667" font-family="Consolas"><tspan y="13.399089" x="531.83297 539.891 547.9491 556.0072">LIST</tspan></text>
<text fill="#434f54" xml:space="preserve" transform="matrix(.75 0 0 .75 77.25 252.1914)" font-size="14.666667" font-family="Consolas"><tspan y="13.399089" x="564.06527 572.1233">),</tspan></text>
<text fill="#434f54" xml:space="preserve" transform="matrix(.75 0 0 .75 77.25 267.0039)" font-size="14.666667" font-family="Consolas"><tspan y="13.399089" x="224.2323 232.29038 240.34845 248.40653 256.4646 264.52268 272.58076 280.63883 288.6969 296.75498 304.81306 312.87113 320.9292 328.98728 337.04536 345.10343 353.1615 361.21958 369.27766 377.33573 385.3938 393.45188 401.50996 409.56803 417.6261 425.68418">asserta(organization_list(</tspan></text>
<text fill="#00979d" xml:space="preserve" transform="matrix(.75 0 0 .75 77.25 267.0039)" font-size="14.666667" font-family="Consolas"><tspan y="13.399089" x="433.74226 441.80033 449.8584 457.91648">LIST</tspan></text>
<text fill="#434f54" xml:space="preserve" transform="matrix(.75 0 0 .75 77.25 267.0039)" font-size="14.666667" font-family="Consolas"><tspan y="13.399089" x="465.97456 474.03263 482.0907">)).</tspan></text>
<text fill="#434f54" xml:space="preserve" transform="matrix(.75 0 0 .75 77.25 296.625)" font-size="14.666667" font-family="Consolas"><tspan y="13.399089" x="0 8.058075 16.11615 24.174225 32.2323 40.290376 48.34845 56.406526 64.4646 72.522678 80.58075 88.638828 96.6969 104.754978 112.81305 120.871128 128.9292 136.98728 145.04535 153.10343 161.1615 169.21958 177.27765 185.33573 193.3938 201.45188 209.50995 217.56803 225.6261 233.68418 241.74225 249.80033 257.8584 265.91648 273.97456 282.03263 290.0907 298.14878 306.20686 314.26493">print_organization :- organization_list(</tspan></text>
<text fill="#00979d" xml:space="preserve" transform="matrix(.75 0 0 .75 77.25 296.625)" font-size="14.666667" font-family="Consolas"><tspan y="13.399089" x="322.323 330.38108 338.43916 346.49723">LIST</tspan></text>
<text fill="#434f54" xml:space="preserve" transform="matrix(.75 0 0 .75 77.25 296.625)" font-size="14.666667" font-family="Consolas"><tspan y="13.399089" x="354.5553 362.61338 370.67146 378.72953 386.7876 394.84568 402.90376 410.96183 419.0199 427.07798 435.13606 443.19413 451.2522 459.31028">), print_list(</tspan></text>
<text fill="#00979d" xml:space="preserve" transform="matrix(.75 0 0 .75 77.25 296.625)" font-size="14.666667" font-family="Consolas"><tspan y="13.399089" x="467.36836 475.42643 483.4845 491.54258">LIST</tspan></text>
<text fill="#434f54" xml:space="preserve" transform="matrix(.75 0 0 .75 77.25 296.625)" font-size="14.666667" font-family="Consolas"><tspan y="13.399089" x="499.60066 507.65873">).</tspan></text>
</g>
<clipPath id="cp136">
<path d="M 0 0 L 595.5 0 L 595.5 842.25 L 0 842.25 Z " fill-rule="evenodd"/>
</clipPath>
<g clip-path="url(#cp136)">
<text xml:space="preserve" transform="matrix(.75 0 0 .75 72 342.8789)" font-size="14.666667" font-family="Calibri"><tspan y="14.2369799" x="0 7.1420595 14.842316 22.134659 25.44806 33.148317 38.06459 45.356935 53.05719 56.420686 62.496355 69.38068 74.132389 81.42473">The predicates</tspan></text>
<text xml:space="preserve" transform="matrix(.75 0 0 .75 72 342.8789)" font-size="14.666667" font-family="Calibri" font-weight="bold"><tspan y="14.2369799" x="90.47038 98.335239 105.713459 110.74425 116.591 124.47017 132.33502 139.63452 144.71555 148.3152 153.39623 156.99588 164.3741 170.22086 174.78662 180.98404 184.89142 191.67555 197.57143 201.34999 204.66339 208.57077 217.80965 225.10915 232.90959 240.0588">person_titles(LIST, ID_PER</tspan></text>
<text xml:space="preserve" transform="matrix(.75 0 0 .75 72 342.8789)" font-size="14.666667" font-family="Calibri"><tspan y="14.2369799" x="248.3101 252.75421 256.06764 263.088 270.78828">) and</tspan></text>
<text xml:space="preserve" transform="matrix(.75 0 0 .75 72 342.8789)" font-size="14.666667" font-family="Calibri" font-weight="bold"><tspan y="14.2369799" x="281.80195 289.6811 294.71907 301.6679 308.9674 316.34565 328.26817 336.133 339.73268 347.52589 354.30287 361.6811 369.05934 374.90608 379.47184 385.66926 389.57664 396.36079 402.25666 406.03523 409.9426 419.18147 426.48097 436.39253 444.52925 453.8683">org_employees(LIST,ID_ORG)</tspan></text>
<text xml:space="preserve" transform="matrix(.75 0 0 .75 72 342.8789)" font-size="14.666667" font-family="Calibri"><tspan y="14.2369799" x="461.74739 468.76777 473.68403 480.97639 484.2898 489.19908 499.53993 507.2688 510.5822 514.7685 521.7889 527.9863 532.8956 538.62789 541.9413 546.8506 554.55087 561.4352 566.3445 569.6579 577.35818 585.08706 588.45059">are two facts that hold</tspan></text>
<text xml:space="preserve" transform="matrix(.75 0 0 .75 72 358.3203)" font-size="14.666667" font-family="Calibri"><tspan y="14.2369799" x="0 4.916275 12.208618 17.940873 25.641129 32.93347 39.13089 44.04016 47.403657 53.880067 61.17241 64.535907 71.16986 74.48326 79.39253 87.09279 94.38513 97.69853 101.06203 104.42552 109.99306 114.90233 118.21573 125.94461 130.41735 133.73075 138.64002 142.00351 146.91278 150.27628 157.56862 163.30088 166.61428 174.34316 178.81589 182.12929 189.14969 192.46309 200.16335 207.45569 212.31468 218.04694 225.77582 233.47608 236.78948 243.80988 251.51013 259.2104 262.5238 267.43309 275.13334">respectively the list of titles of a person and the</tspan></text>
<text xml:space="preserve" transform="matrix(.75 0 0 .75 72 358.3203)" font-size="14.666667" font-family="Calibri"><tspan y="14.2369799" x="285.73908 289.10258 292.46607 298.0336 302.94288 306.2563 313.98518 318.4579 321.7713 329.06367 340.77149 348.47175 351.83525 359.48536 365.94026 373.2326 380.52497 386.2572 389.57063 397.2995 401.77223 405.08564 412.10603 419.80628 423.1197 430.84858 435.7577 442.38429 449.40467 457.10493 460.4684 466.0144 472.89875 477.808 481.1715 488.9004 496.60066 500.30049 503.6139 513.01736 518.7496 522.11306 529.8133 536.71206 540.02548 547.0459 550.3593 556.09158 563.3051">list of employees of an organization. Using a set</tspan></text>
<text xml:space="preserve" transform="matrix(.75 0 0 .75 72 358.3203)" font-size="14.666667" font-family="Calibri"><tspan y="14.2369799" x="571.5278 579.25668">of</tspan></text>
<text xml:space="preserve" transform="matrix(.75 0 0 .75 72 373.76368)" font-size="14.666667" font-family="Calibri"><tspan y="14.2369799" x="0 7.7002565 12.609528 15.973022 19.336518 22.700013 27.609284 34.24324 37.55664 42.66629 50.366548 53.73004 61.022386 66.75464 70.411548 73.724948 80.745349 88.4456 96.14586 103.4382 111.13846 114.45186 119.217899 126.94678 130.26018 137.96044 144.98084 152.68109 160.38135 163.74485 171.03719 174.35059 177.71408 181.07758 186.64511 191.55438 197.28664 200.60004 205.04415 212.33649 216.19388">utility rules, added to handle lists (e.g</tspan></text>
<text xml:space="preserve" transform="matrix(.75 0 0 .75 72 373.76368)" font-size="14.666667" font-family="Calibri" font-style="italic"><tspan y="14.2369799" x="226.40602 232.10965 239.0298">set</tspan></text>
<text xml:space="preserve" transform="matrix(.75 0 0 .75 72 373.76368)" font-size="14.666667" font-family="Calibri"><tspan y="14.2369799" x="243.93907 249.59976 257.02809 260.3415 267.36189 275.06214">/2 and</tspan></text>
<text xml:space="preserve" transform="matrix(.75 0 0 .75 72 373.76368)" font-size="14.666667" font-family="Calibri" font-style="italic"><tspan y="14.2369799" x="286.0758 293.61146 298.63523 301.99873 309.39115 314.3004 321.5999 324.9634 328.3269 333.8658">print_list</tspan></text>
<text xml:space="preserve" transform="matrix(.75 0 0 .75 72 373.76368)" font-size="14.666667" font-family="Calibri"><tspan y="14.2369799" x="338.7751 344.4358 351.8641 355.1775 359.62159 363.2785 366.59193 369.9554 375.68769 379.0011 386.70137 394.43025 400.16249 405.8947 409.2582 416.95848 420.32197 427.61433 430.92774 435.6938 443.42268 446.73609 452.9335 457.8498 465.14216 472.0265 476.7782 484.07057 487.38398 494.40437 502.1046 509.80488 513.1183 520.81857 528.5188 536.21908 543.1034 547.8551">/1 ), is possible to create and update</tspan></text>
<text xml:space="preserve" transform="matrix(.75 0 0 .75 72 373.76368)" font-size="14.666667" font-family="Calibri"><tspan y="14.2369799" x="558.4607 563.37 571.07028 578.3626 581.676 585.03958 588.4031 593.9706">the list</tspan></text>
<text xml:space="preserve" transform="matrix(.75 0 0 .75 72 389.20704)" font-size="14.666667" font-family="Calibri"><tspan y="14.2369799" x="0 7.728882 12.201614 15.515015 20.424286 23.78778 28.697052 32.060548 39.35289 45.085145 48.398546 56.127428 60.60016 63.91356 70.93396 74.24736 81.94762 89.23996 94.09895 99.83121 107.56009 115.260349">of titles of a person.</tspan></text>
<text xml:space="preserve" transform="matrix(.75 0 0 .75 72 414.64845)" font-size="14.666667" font-family="Calibri" font-style="italic"><tspan y="14.2369799" x="0 3.3634949 6.7269899 12.2659 17.17517 24.47467 29.383942 32.747438 37.656709 41.020204 48.019136 55.318635 62.854295 69.853229 74.877 80.58063 88.101978">list_title_person</tspan></text>
<text xml:space="preserve" transform="matrix(.75 0 0 .75 72 414.64845)" font-size="14.666667" font-family="Calibri"><tspan y="14.2369799" x="95.637638 101.298328 108.72664 112.04004 118.23746 123.15373 130.44608 137.3304 142.0821 149.37445 152.68785 157.59712 165.29738 172.58972 175.90312 179.26662 182.63011 188.19765 193.10692 196.42032 204.1492 208.62194 211.93534 216.8446 220.2081 223.5716 230.86394 236.59619 239.90959 247.63848 252.1112 255.4246 260.33387 268.03413">/1 create the list of tiles of the</tspan></text>
<text xml:space="preserve" transform="matrix(.75 0 0 .75 72 414.64845)" font-size="14.666667" font-family="Calibri"><tspan y="14.2369799" x="278.6399 285.53865 288.90214 295.37855 302.6709 310.37117 313.68458 321.38484 328.6772 333.5362 339.26844 346.9973 354.69758 358.3545 361.6679 366.14064 369.50413 377.20439 384.90464 388.26814 395.96839 402.86714 406.18055 411.0898 418.79008 426.0824 429.3958 434.30509 437.66859 442.57786 445.94136 453.2337 458.96595 462.27937 469.29975 475.03199 480.76423 488.4931 494.69053 498.05403 504.93836 509.69007 516.9824 524.6827 527.9961 538.473 541.83657 546.74588">given person, finding the titles associated with</tspan></text>
<text xml:space="preserve" transform="matrix(.75 0 0 .75 72 414.64845)" font-size="14.666667" font-family="Calibri"><tspan y="14.2369799" x="557.75936 562.6686 570.36886 577.6612 580.9746 584.33816">the id</tspan></text>
<text xml:space="preserve" transform="matrix(.75 0 0 .75 72 430.08985)" font-size="14.666667" font-family="Calibri"><tspan y="14.2369799" x="0 7.728882 12.201614 15.515015 20.424286 28.124543 35.416887 38.730287 46.430543 53.722887 58.58188 64.31413 72.043018 79.74327 83.443119 86.756519 94.45677 102.15703 109.857288 116.74161 121.49332 128.78566 136.08516 140.99443 144.35793 149.2672 152.63069 159.92304 167.22254 174.24294 177.60643 180.96993 187.99033 193.72258 199.38327 206.81159 210.12499 221.83281 229.12516 234.03427 240.81127 248.1036 253.83586 257.14927 262.05854 269.7588 277.05116 280.36457 283.72807 287.09156 292.65913 297.56837">of the person. update_title_alias/2 merges the lists</tspan></text>
<text xml:space="preserve" transform="matrix(.75 0 0 .75 72 430.08985)" font-size="14.666667" font-family="Calibri"><tspan y="14.2369799" x="306.61399 314.34288 318.8156 322.12904 327.0383 330.4018 335.31108 338.67457 345.96693 351.69917 355.01258 362.74147 367.21418 370.5276 375.43687 383.13713 390.42945 393.74287 401.4431 408.73548 413.59449 419.32673 427.0556 434.75587 440.4881 443.8015 450.70027 454.06376 460.54017 467.83253 475.53279 479.1897 482.5031 485.8666 490.33937 493.65278 500.67317 508.3734 516.07369 519.3871 527.11599 534.8162 538.1797 544.81369 548.1271 551.4906 555.061 558.7179 562.0313 566.9406 574.64089 581.8401">of titles of the persons given, if and only if, they</tspan></text>
<text xml:space="preserve" transform="matrix(.75 0 0 .75 72 445.53126)" font-size="14.666667" font-family="Calibri"><tspan y="14.2369799" x="0 7.020401 11.936676 19.22902 22.54242 25.905915 33.60617 36.91957 43.939973 51.64023 54.95363 61.97403 65.337528 68.70102 75.72142 81.453678 84.767078 89.68335 96.97569 100.33919 107.22351 112.13278 115.49628 123.22516 130.92542 136.65767 144.35793 147.72142 155.42168 159.12152 162.43492 169.57698 177.27724 184.56958 187.88298 193.61524 200.63564 212.34346 219.6358 222.9492 228.05886 235.75911 239.1226 246.41495 252.1472 255.4606 261.02815 265.93739 271.04704 278.74729 284.9447 289.85398 297.55424 302.47053">are in an alias relationship. The same rules structure</tspan></text>
<text xml:space="preserve" transform="matrix(.75 0 0 .75 72 445.53126)" font-size="14.666667" font-family="Calibri"><tspan y="14.2369799" x="313.0763 319.15199 326.17237 333.87263 337.18605 344.8863 352.17866 355.49208 359.65687 367.38575 375.086 382.78627 390.4865 393.79994 397.96473 405.6936 410.80326 414.11665 419.0259 426.72618 434.0185 437.3319 445.0608 449.9699 456.5965 463.61689 471.31715 474.68064 480.22663 487.11097 492.02024 495.38374 503.1126 510.81288 514.1263 521.41867 533.12649 540.8267 544.1902 551.8403 558.29519 565.5875 572.8799 578.6121 581.92556 585.28909 588.6526 594.22018">can be found for the organization employees list</tspan></text>
<text xml:space="preserve" transform="matrix(.75 0 0 .75 72 460.9746)" font-size="14.666667" font-family="Calibri"><tspan y="14.2369799" x="0 4.444107 7.807602 11.507446 18.79979 22.11319 25.476685 28.84018 34.407716 39.316987 46.616487 53.90883 65.61665 73.31691 76.680408 84.330509 90.785419 98.07776 105.3701 111.102359 118.401859 126.13074 131.03986 138.46138 144.12207 151.55039 155.20729 158.52069 166.22095 173.9212 181.62146 188.50579 193.25749 200.54984 207.84934 215.14168 226.8495 234.54976 237.91326 245.56336 252.01827 259.3106 266.60298 273.90248 280.92286 284.28636 287.64985 294.67024 300.40248 306.06318 313.4915 317.9356">(i.e list_employees_org/1, update_employee_alias/2).</tspan></text>
</g>
<clipPath id="cp137">
<path d="M 0 0 L 595.5 0 L 595.5 842.25 L 0 842.25 Z " fill-rule="evenodd"/>
</clipPath>
<g clip-path="url(#cp137)">
<path transform="matrix(.75,0,0,.75,72,112.88281)" stroke-width="1.3333334" stroke-linecap="butt" stroke-miterlimit="10" stroke-linejoin="miter" fill="none" stroke="#000000" d="M .6666667 .15494792 L .6666667 272.15495 "/>
<path transform="matrix(.75,0,0,.75,72,112.88281)" stroke-width="1.3333334" stroke-linecap="butt" stroke-miterlimit="10" stroke-linejoin="miter" fill="none" stroke="#000000" d="M 600.6667 .15494792 L 600.6667 272.15495 "/>
<path transform="matrix(.75,0,0,.75,72,112.88281)" stroke-width="1.3333334" stroke-linecap="butt" stroke-miterlimit="10" stroke-linejoin="miter" fill="none" stroke="#000000" d="M 0 -.51171877 L 601.3333 -.51171877 "/>
<path transform="matrix(.75,0,0,.75,72,112.88281)" stroke-width="1.3333334" stroke-linecap="butt" stroke-miterlimit="10" stroke-linejoin="miter" fill="none" stroke="#000000" d="M 0 271.48829 L 601.3333 271.48829 "/>
</g>
</g>
</svg>
