<?xml version="1.0" encoding="UTF-8" standalone="no"?>
<!DOCTYPE svg PUBLIC "-//W3C//DTD SVG 1.1//EN" "http://www.w3.org/Graphics/SVG/1.1/DTD/svg11.dtd">
<svg xmlns="http://www.w3.org/2000/svg" xmlns:xlink="http://www.w3.org/1999/xlink" version="1.1" width="596pt" height="842pt" viewBox="0 0 596 842">
<g enable-background="new">
<clipPath id="cp105">
<path d="M 0 0 L 595.5 0 L 595.5 842.25 L 0 842.25 Z " fill-rule="evenodd"/>
</clipPath>
<g clip-path="url(#cp105)">
<path transform="matrix(.75,0,0,.75,0,0)" d="M 0 0 L 794 0 L 794 1123 L 0 1123 Z " fill="#ffffff"/>
</g>
<clipPath id="cp106">
<path d="M 0 0 L 595.5 0 L 595.5 842.25 L 0 842.25 Z " fill-rule="evenodd"/>
</clipPath>
<g clip-path="url(#cp106)">
<text xml:space="preserve" transform="matrix(.75 0 0 .75 72 72)" font-size="14.666667" font-family="Calibri" font-weight="bold"><tspan y="14.2369799" x="24">-</tspan></text>
<text xml:space="preserve" transform="matrix(.75 0 0 .75 72 72)" font-size="14.666667" font-family="Calibri" font-weight="bold"><tspan y="14.2369799" x="48 55.864854 63.729707 71.59456 75.194217 78.79387 84.92688 88.24028 95.03873 102.91789 106.51755 114.3824 117.6958 124.84485 131.22808 138.6063 144.7393 152.60416 157.50614 164.88436 170.87332 178.25154 186.10912 193.97397 201.85314 209.65358 213.25324 221.11809 228.4963 232.09597 235.69562 243.56047 250.93869 255.50446 263.36933 271.24848 279.12763 282.7273 290.10554 297.34065 305.20549 308.5189 319.4395 323.03916 330.07389 333.67356">public void executeTeKnoPipeline(boolean wiki)</tspan></text>
<text xml:space="preserve" transform="matrix(.75 0 0 .75 72 72)" font-size="14.666667" font-family="Calibri"><tspan y="14.2369799" x="338.23927 341.89619 345.2096 350.11888 357.81913 361.18263 366.91487 370.22828 381.9361 389.14967 394.05894 401.7592 409.48808 417.18833 420.5017 427.57203 433.533 440.82533 447.02275 454.723 459.4747 466.76704 472.49928 475.81269 480.72196 488.4222 495.71455 499.02796 506.7282 510.0917 517.792 525.08438 528.4479 531.8114 539.51168 546.804 550.46096 553.77438 561.40298">, this method executes the pipeline, by</tspan></text>
<text xml:space="preserve" transform="matrix(.75 0 0 .75 72 87.44141)" font-size="14.666667" font-family="Calibri"><tspan y="14.2369799" x="48 53.10965 60.809907 68.51016 76.21042 79.57391 87.27417 94.17291 97.48631 102.395587 110.09584 117.38818 120.701587 128.40184 133.31812 140.53884 147.15848 150.52198 158.25086 165.95111 171.68337 174.99677 186.70459 193.91815 198.82743 206.52768 214.25656 221.95682 227.68907 231.38892 234.70232 238.395 243.30428 246.61768 251.3479 258.3683 264.5582 271.85054 277.58277 280.89619 287.91658 291.22999 298.93025 306.65913 314.388 317.7515 325.04386 332.06425 339.7645 343.0779 346.4414">running the previous methods. It takes a boolean in</tspan></text>
<text xml:space="preserve" transform="matrix(.75 0 0 .75 72 87.44141)" font-size="14.666667" font-family="Calibri"><tspan y="14.2369799" x="357.45509 360.81858 368.51884 376.2191 383.91935 388.8286 392.14204 402.61897 410.3192 413.6827 419.88014 427.58039 430.8938 436.62605 444.3263 451.61866 457.81608 461.17958 465.65229 469.01579 476.3081 482.04035 485.35377 488.71726 493.19 496.50343 501.4127 509.11296 516.4053 519.7187 527.41897 532.29226 540.0211 546.91989 551.7287 558.7491">input which specifies if the program</tspan></text>
<text xml:space="preserve" transform="matrix(.75 0 0 .75 72 102.88281)" font-size="14.666667" font-family="Calibri"><tspan y="14.2369799" x="48 53.732255 61.43251 69.16139 76.86165 80.22514 87.9254 91.2388 96.971057 104.2634 111.2838 116.17859 122.37601 130.07627 133.38967 137.55445 145.28333 150.39298 153.70638 160.7767 167.16738 172.07665 176.8855 183.9059 190.10332 195.01259 200.74485 204.05825 211.78713 219.48738 222.80078 235.83969 239.20319 245.86577 249.22927 256.9295 264.22187 271.92213 275.2856 282.30604 286.22773 289.54115 294.4504 302.15068 305.51417 311.24644 314.55986 317.92335 323.6556 326.96903 334.66929 342.39817 350.09843">should search for extracts on Wikipedia; this is done</tspan></text>
<text xml:space="preserve" transform="matrix(.75 0 0 .75 72 102.88281)" font-size="14.666667" font-family="Calibri"><tspan y="14.2369799" x="360.70408 368.40434 375.69667 381.77235 388.79273 396.49299 402.22523 409.51759 412.831 417.74028 425.44053 432.73286 436.04627 443.11659 449.07756 456.36988 462.5673 470.26756 475.17683 478.5403 486.2692 493.96946 497.28285 505.01173 509.48445 512.79788 516.11129 521.0205 528.72079">because the execution of  the</tspan></text>
<text xml:space="preserve" transform="matrix(.75 0 0 .75 72 118.32617)" font-size="14.666667" font-family="Calibri"><tspan y="14.2369799" x="48 58.47693 61.840425 68.503009 71.8665 79.56676 86.8591 94.55936 97.92285 104.94325 111.1758 116.285449 119.64894 127.3492 130.71269 138.00504 145.1614 151.55208 156.46135 161.2702 168.2906 174.48802 179.3973 182.76079 190.48967 198.18993 201.50333 213.21115 220.42472 225.33399 233.03424 240.76313 248.46338 251.77678 257.85246 264.87287 272.57313 275.88655 280.61677 287.63716 293.82707 301.1194 304.4328 311.4532 314.7666 318.1301 325.85899 333.55924 340.45799 343.77137 348.68064 352.04414 363.75196 371.0443">wikipediaTripleExtraction method can take a long time.</tspan></text>
<text xml:space="preserve" transform="matrix(.75 0 0 .75 72 143.76758)" font-size="14.666667" font-family="Calibri" font-weight="bold"><tspan y="14.2369799" x="24">-</tspan></text>
<text xml:space="preserve" transform="matrix(.75 0 0 .75 72 143.76758)" font-size="14.666667" font-family="Calibri" font-weight="bold"><tspan y="14.2369799" x="48 55.864854 63.729707 71.59456 75.194217 78.79387 84.92688 88.24028 95.03873 102.91789 106.51755 114.3824 117.6958 124.487079 131.8653 139.73015 147.10837 151.99593 159.09494 163.99692 171.37514 180.7142 185.60176 192.83686 200.7017 208.56656 217.80544 226.02095 229.33435 233.90012 241.75769 249.62255 257.47306 268.39369 271.99336 279.37159 287.23646 294.0277 301.40596 310.745 315.63255 322.86766 330.7325 338.59739 341.9108 348.94554 356.8104 364.66093 375.5815 379.18119 386.55943 394.4243 401.21556 408.59379 415.89329 422.84214 427.7297 434.9648 442.82969 450.69456">public void generateGraphDB (KnowledgeGraph knowledge_graph)</tspan></text>
<text xml:space="preserve" transform="matrix(.75 0 0 .75 72 143.76758)" font-size="14.666667" font-family="Calibri"><tspan y="14.2369799" x="455.2601">,</tspan></text>
<text xml:space="preserve" transform="matrix(.75 0 0 .75 72 143.76758)" font-size="14.666667" font-family="Calibri"><tspan y="14.2369799" x="462.2304 467.13969 474.83995 478.20344 483.93568 487.24909 498.9569 506.17048 511.07975 518.78 526.5089 534.20919 537.5226 545.22286 552.9517 560.652 568.35226 571.7157 578.60006 583.35177 590.6441">this method populates</tspan></text>
<text xml:space="preserve" transform="matrix(.75 0 0 .75 72 159.20899)" font-size="14.666667" font-family="Calibri"><tspan y="14.2369799" x="48 52.90927 60.609529 67.90187 71.21527 78.91553 85.79985 90.530078 97.550479 105.25073 112.27113 118.00339 125.29573 128.95264 132.26604 137.83358 142.5638 149.5842 154.69385 159.60312 162.96662 170.66687 177.56562 180.87902 185.35175 190.22505 197.95394 209.66176 212.97516 217.88443 225.58469 232.87703 236.19043 241.1067 248.39905 251.76255 255.07595 261.96028 266.66188 271.57115 276.6808 280.04429 287.74455 295.4448 300.1965 307.48884 311.41053 314.72395 318.08744">the database, starting from the rel attribute; it</tspan></text>
<text xml:space="preserve" transform="matrix(.75 0 0 .75 72 159.20899)" font-size="14.666667" font-family="Calibri"><tspan y="14.2369799" x="326.3101 331.0403 338.06074 344.25065 351.54298 357.2752 360.58863 363.95213 371.65238 374.96577 378.32926 386.0295 393.72978 401.43003 406.3393 409.6527 416.6731 419.9865 427.3717 435.07197 442.74354 453.22047 456.58396 463.87629 471.57655 478.35353 485.64588 494.8919 499.70075 506.72114 514.4214 522.12167 525.43508 533.1353 540.01968 544.7499 551.77029 559.4705 566.4909 572.22317">takes in input a KnowledgeGraph database</tspan></text>
<text xml:space="preserve" transform="matrix(.75 0 0 .75 72 174.65235)" font-size="14.666667" font-family="Calibri"><tspan y="14.2369799" x="48 51.363496 59.06375 64.63129 69.36151 76.38191 84.08217 90.27959 97.57193 101.271778 104.585178 111.31932 114.682819 119.54181 125.109348 130.01862 133.67552 136.98892 140.35242 145.26169 148.57509 155.59549 163.29575 170.996 176.72826 180.04166 184.95093 192.65119 199.94353 203.25693 210.95719 218.68607 226.38632 233.67867 239.41092 242.72432 247.16843 257.64537 261.00886 265.91813 273.61839 276.93177 283.95216 287.26557 294.04255 301.3349 309.03517 316.3275 321.43717 324.80067">instance. First, it adds the nodes (with a generic</tspan></text>
<text xml:space="preserve" transform="matrix(.75 0 0 .75 72 174.65235)" font-size="14.666667" font-family="Calibri"><tspan y="14.2369799" x="334.31147 339.94319 347.67207 353.80506 357.11848 360.48197 367.50239 375.20265 382.495 385.8585 389.17189 399.6488 407.34907 410.71257 416.90998 424.61024 427.92366 433.39094 440.0249 451.73274 459.43299 467.16188 470.52537 473.88887 479.34895 486.6413 492.37355 495.68696 502.70735 510.4076 513.721 521.4499 529.15017 532.65676 539.9491 546.1465 551.0558 555.4999 559.1568 562.4702 567.3795 575.0798 582.37216">&#x201c;o&#x201d; label which symbolizes an object), then</tspan></text>
<text xml:space="preserve" transform="matrix(.75 0 0 .75 72 190.09375)" font-size="14.666667" font-family="Calibri"><tspan y="14.2369799" x="48 55.0204 62.720659 70.42091 76.15317 79.46657 84.37584 92.076099 99.36844 102.68184 109.97418 117.67444 124.45143 131.74378 137.47603 141.39772 144.71112 148.07462 152.54735 155.86075 162.88115 166.19455 171.11083 178.40317 181.76667 188.65099 193.56026 196.92375 204.65264 212.35289 215.66629 220.58257 227.74599 231.85347 239.14582 244.06209 251.35443 259.0547 265.2521 272.54444 278.27668 281.5901 288.61048 291.9239 299.62416 306.9165 311.7755 317.50776 325.23664">adds the edges; if a relation references a person</tspan></text>
<text xml:space="preserve" transform="matrix(.75 0 0 .75 72 190.09375)" font-size="14.666667" font-family="Calibri"><tspan y="14.2369799" x="336.2503 343.9792 349.08885 352.40223 359.4226 362.73603 370.4649 375.37403 382.0006 389.021 396.72126 400.08476 405.63075 412.51509 417.42436 420.78785 428.51673 436.21699 439.5304 443.9745 449.54203 454.27226 461.29267 466.4023 471.31159 477.04383 480.35725 490.83418 494.19767 499.10694 506.8072 510.1206 516.2536 523.95388 531.2462 536.35586 543.65536 549.7883 553.10177 560.8306">or a organization (starts with &#x201c;per_&#x201d; or</tspan></text>
<text xml:space="preserve" transform="matrix(.75 0 0 .75 72 205.53516)" font-size="14.666667" font-family="Calibri"><tspan y="14.2369799" x="48 53.6317 61.36058 66.2697 73.16844 80.46794 86.60095 91.04506 94.35846 99.26773 106.96799 114.26033 117.57373 120.937229 127.95763 135.65789 142.95023 146.31372 149.62712 157.356 161.82874 165.14214 170.0514 177.75167 184.63599 189.54526 192.85866 200.55892 208.2878 215.98805 223.2804 226.5938 229.95729 235.68955 239.00295 246.7032 254.40346 262.1037 268.98805 273.73976 281.0321 288.73237 292.04579 296.5185 301.39179 309.12068 320.8285 324.1419 329.77363 337.5025">&#x201c;org_&#x201d;) the label of that node is updated from &#x201c;o&#x201d;</tspan></text>
<text xml:space="preserve" transform="matrix(.75 0 0 .75 72 205.53516)" font-size="14.666667" font-family="Calibri"><tspan y="14.2369799" x="346.94889 351.7149 359.4438 362.7572 370.04957 373.41307 378.32234 386.02259 393.31495 398.4246 401.73799 407.87098 415.57124 422.8636 427.7226 433.45484 441.18373 448.88398 455.01698 458.33039 466.05928 471.1689 474.4823 480.114 487.8429 492.752 499.3786 506.399 514.09927 517.46279 523.0088 529.8931 534.80239 538.1659 545.8948 553.59506">to either &#x201c;person&#x201d; or &#x201c;organization&#x201d;</tspan></text>
<text xml:space="preserve" transform="matrix(.75 0 0 .75 72 220.97657)" font-size="14.666667" font-family="Calibri"><tspan y="14.2369799" x="48 52.916276 60.20862 65.94087 73.64113 80.93347 87.13089 92.04016 95.403659 101.880069 109.17241 112.535907 118.20305">respectively.</tspan></text>
<text xml:space="preserve" transform="matrix(.75 0 0 .75 72 246.41797)" font-size="14.666667" font-family="Calibri"><tspan y="14.2369799" x="48 55.14206 62.842317 70.13466 73.44806 80.3468 85.155658 92.176059 99.87631 107.57657 110.88997 114.25346 119.98572 123.29912 128.20839 135.90865 143.20099 150.90125 154.21465 160.41207 165.32834 172.62068 179.505 184.25672 191.54906 199.24932 202.90622 206.21962 213.91988 221.62014 226.5294 229.8428 236.8632 240.1766 244.64934 248.01284 255.71309 262.7335 266.097 269.4104 274.97795 279.72966 287.02198 294.72224 298.03565 301.39915 307.1314 310.4448 318.14506 325.87394 333.5742">The graph is then created, but a final step is done</tspan></text>
<text xml:space="preserve" transform="matrix(.75 0 0 .75 72 246.41797)" font-size="14.666667" font-family="Calibri"><tspan y="14.2369799" x="344.17994 348.94599 356.67488 359.98829 367.68855 375.3888 383.08906 389.9734 394.7251 402.01747 405.33088 412.35127 415.71476 419.07826 422.39167 430.09193 437.8208 445.52107 452.81343 458.54566 461.85908 465.22257 472.24299 479.94325 487.2356 490.5991 496.33137 499.64479 510.1217 513.4852 518.39456 526.0948 529.4082 534.3175 542.01779 549.3101 552.62356 559.9159 567.4801 572.3894 575.7529 580.66226">to update all nodes labels with the entity</tspan></text>
<text xml:space="preserve" transform="matrix(.75 0 0 .75 72 261.86134)" font-size="14.666667" font-family="Calibri"><tspan y="14.2369799" x="48 52.90927 59.54323 67.243488 74.53583 78.19273 81.506137 84.86963 89.34236 92.65576 96.82054 104.54942 112.24968 119.949939 127.65019">type, if found.</tspan></text>
<text xml:space="preserve" transform="matrix(.75 0 0 .75 72 287.30274)" font-size="14.666667" font-family="Calibri" font-weight="bold"><tspan y="14.2369799" x="24">-</tspan></text>
<text xml:space="preserve" transform="matrix(.75 0 0 .75 72 287.30274)" font-size="14.666667" font-family="Calibri" font-weight="bold"><tspan y="14.2369799" x="48 55.864854 63.729707 71.59456 75.194217 78.79387 84.92688 88.24028 95.03873 102.91789 106.51755 114.3824 117.6958 124.487079 131.8653 139.73015 147.10837 151.99593 159.09494 163.99692 171.37514 180.7142 185.60176 192.83686 200.7017 208.56656 216.63895 229.44886 235.64627 238.95967 243.52544 250.4528 255.53383 260.74366 264.34333 272.2082 279.15705 282.47047 287.1078 290.70747 294.30714 301.68537">public void generateGraphXML (String file)</tspan></text>
<text xml:space="preserve" transform="matrix(.75 0 0 .75 72 287.30274)" font-size="14.666667" font-family="Calibri"><tspan y="14.2369799" x="306.25105 309.90797 313.22138 318.13066 325.8309 329.1944 334.92665 338.24006 349.94789 357.16145 362.0707 369.77098 377.49986">, this method</tspan></text>
<text xml:space="preserve" transform="matrix(.75 0 0 .75 72 287.30274)" font-size="14.666667" font-family="Calibri"><tspan y="14.2369799" x="388.5135 395.29048 402.58283 410.28309 417.57545 422.38429 429.26863 434.02033 441.31269 447.04493 450.35835 457.37873 465.07899 468.3924 475.99964 488.53047 494.69209 498.0055 502.4782 505.8417 509.2052 516.49758 519.811 524.2837 529.157 536.88589 548.5937 551.9071 556.8164 564.51669">generates an XML file from the</tspan></text>
<text xml:space="preserve" transform="matrix(.75 0 0 .75 72 302.7461)" font-size="14.666667" font-family="Calibri"><tspan y="14.2369799" x="48 55.700258 62.58458 67.314807 74.335208 82.03546 89.05586 94.78812 102.08046 105.39386 111.46953 119.19841 126.76259 131.5143 138.80664 146.37082 151.28009 157.01235 160.66925 163.98265 167.34615 175.0464 178.3598 186.08869 190.9978 198.69806 205.9904 211.10005 214.41345 219.17949 226.90837 230.22177 237.2921 243.6398 251.34006 259.06895 264.1786 269.08787 272.40126 275.76475 280.674 284.37385 287.68727 294.8293 302.52958 309.8219 313.13529 318.70286 323.6121 328.72175 336.422 342.61943 347.5287 355.22895 360.14524">database contents, in order to export it. The structure</tspan></text>
<text xml:space="preserve" transform="matrix(.75 0 0 .75 72 302.7461)" font-size="14.666667" font-family="Calibri"><tspan y="14.2369799" x="370.751 378.4799 382.95265 386.26606 391.17533 398.87559 406.1679 409.48133 413.95405 417.31755 420.68104 427.9734 431.2868 434.6503 440.38258 443.69599 448.60527 456.3055 463.59785 466.91127 471.07606 478.80494 482.16844 485.53193 493.2035 503.68043 507.0439 514.74417 521.6429 524.9563 529.4004 532.7639 537.6732 540.98666 544.3501 550.08236 553.39578 561.096 568.1164 573.84866 581.141">of the file is the following (it is based</tspan></text>
<text xml:space="preserve" transform="matrix(.75 0 0 .75 72 318.18556)" font-size="14.666667" font-family="Calibri"><tspan y="14.2369799" x="48 55.72888 63.42914 66.74254 71.65181 79.352069 86.64441 89.95781 94.43054 97.79404 101.15753 108.449878 114.18213 117.49553 125.195789 130.06909 137.79798 145.49823 153.19849 159.3959 166.68825 174.3885 177.7019 185.33054 191.9645 195.2779 203.09265 210.82154 218.52179 226.22205 233.51439 240.85663 245.7659 249.1294 256.85829 264.55854 267.87196 271.23545 278.9357 282.24909 289.97798 294.8871 302.58735 309.8797 314.98936 318.30274 323.0688 330.79768 334.11109 341.83998 349.47578 354.206 361.2264 364.5899">on the files produced by ConneKtion in order to obtain</tspan></text>
<text xml:space="preserve" transform="matrix(.75 0 0 .75 72 318.18556)" font-size="14.666667" font-family="Calibri"><tspan y="14.2369799" x="375.60353 381.6792 389.40809 401.1159 408.81617 415.7005 420.60978 423.97328 431.67353 435.03703 438.4005 441.764 446.67329 453.30726 457.75135">compatibility):</tspan></text>
</g>
<clipPath id="cp107">
<path d="M 119.25 344.3789 L 522.75 344.3789 L 522.75 524.7383 L 119.25 524.7383 Z " fill-rule="evenodd"/>
</clipPath>
<g clip-path="url(#cp107)">
<text xml:space="preserve" transform="matrix(.75 0 0 .75 123.75 349.6289)" font-size="14.666667" font-family="Calibri"><tspan y="14.2369799" x="48 55.2995 62.198244 67.007099 74.0275 81.72775 89.42801 101.13583 104.49933">&#x003c;graphml&#x003e;</tspan></text>
<text xml:space="preserve" transform="matrix(.75 0 0 .75 123.75 365.0703)" font-size="14.666667" font-family="Calibri"><tspan y="14.2369799" x="61.2536 68.5531 75.45184 80.2607 87.2811 94.98135 102.68161">&#x003c;graph&#x003e;</tspan></text>
<text xml:space="preserve" transform="matrix(.75 0 0 .75 123.75 380.51173)" font-size="14.666667" font-family="Calibri"><tspan y="14.2369799" x="74.5072 81.8067 89.50696 97.23584 104.9361 112.22844 115.54184 118.905338 126.60559 133.90509 139.78047 144.27468 151.97493 159.70381 167.40407 174.69641 178.3891 187.40613 191.90033 197.77571">&#x003c;node id="[nodeID]"&#x003e;</tspan></text>
<text xml:space="preserve" transform="matrix(.75 0 0 .75 123.75 395.95509)" font-size="14.666667" font-family="Calibri"><tspan y="14.2369799" x="89.46181 96.76131 104.46156 111.34589 116.07611 123.09651 126.40991 132.59983 139.79906 146.43302 153.73252 159.6079 167.30815 174.32855 186.03638 193.32872 199.2041 206.5036 210.9978 218.69806 225.71846 237.42629 244.71863 249.21283 256.51234 262.17304 269.8733 276.75764 281.48786 288.50825">&#x003c;data key="name"&#x003e;[name]&#x003c;/data&#x003e;</tspan></text>
<text xml:space="preserve" transform="matrix(.75 0 0 .75 123.75 411.39454)" font-size="14.666667" font-family="Calibri"><tspan y="14.2369799" x="89.46181 96.76131 104.46156 111.34589 116.07611 123.09651 126.40991 132.59983 139.79906 146.43302 153.73252 159.6079 164.51717 171.15113 178.85138 186.14373 192.0191 199.3186 203.8128 208.72208 215.35604 223.05629 230.34864 234.84284 242.14234 247.80303 255.50328 262.3876 267.11784 274.13825">&#x003c;data key="type"&#x003e;[type]&#x003c;/data&#x003e;</tspan></text>
<text xml:space="preserve" transform="matrix(.75 0 0 .75 123.75 426.8379)" font-size="14.666667" font-family="Calibri"><tspan y="14.2369799" x="72.894809 80.194309 85.854999 93.55525 101.284137 108.98439 116.27673">&#x003c;/node&#x003e;</tspan></text>
<text xml:space="preserve" transform="matrix(.75 0 0 .75 123.75 442.28126)" font-size="14.666667" font-family="Calibri"><tspan y="14.2369799" x="71.1938 78.4933 85.785648 93.4859 100.26289 107.55524 110.86864 116.60089 124.32977 132.03003 136.92482 143.12224 150.41458 157.71408 163.58946 168.08367 175.78392 183.5128 191.21306 198.5054 202.19809 211.21512 215.70932 221.5847 224.8981 229.62833 236.64873 241.55785 248.33484 255.5484 260.45768 267.75718 273.63258 278.12678 285.82704 293.5559 301.25617 308.54853 312.2412 321.25825 325.75245 331.6278">&#x003c;edge source="[nodeID]" target="[nodeID]"&#x003e;</tspan></text>
<text xml:space="preserve" transform="matrix(.75 0 0 .75 123.75 457.7207)" font-size="14.666667" font-family="Calibri"><tspan y="14.2369799" x="86.14841 93.44791 101.14816 108.032489 112.76271 119.78311 123.09651 129.28643 136.48566 143.11962 150.41912 156.2945 161.20377 167.83773 175.53798 182.83032 188.7057 196.0052 200.4994 205.41568 212.70803 216.07152 222.95584 227.86511 231.2286 238.95749">&#x003c;data key="type"&#x003e;[relation</tspan></text>
<text xml:space="preserve" transform="matrix(.75 0 0 .75 123.75 457.7207)" font-size="14.666667" font-family="Calibri"><tspan y="14.2369799" x="249.97115 257.6714 264.69178 276.3996 283.69197 288.18617 295.48567 301.14637 308.84663 315.73097 320.46119 327.48158">name]&#x003c;/data&#x003e;</tspan></text>
<text xml:space="preserve" transform="matrix(.75 0 0 .75 123.75 473.16407)" font-size="14.666667" font-family="Calibri"><tspan y="14.2369799" x="71.1938 78.4933 83.88901 91.18135 98.88161 105.6586 112.95094">&#x003c;/edge&#x003e;</tspan></text>
<text xml:space="preserve" transform="matrix(.75 0 0 .75 123.75 488.60548)" font-size="14.666667" font-family="Calibri"><tspan y="14.2369799" x="61.2536 68.5531 73.963138 80.86188 85.67073 92.69113 100.39139 108.091648">&#x003c;/graph&#x003e;</tspan></text>
<text xml:space="preserve" transform="matrix(.75 0 0 .75 123.75 504.04689)" font-size="14.666667" font-family="Calibri"><tspan y="14.2369799" x="48 55.2995 60.709535 67.60828 72.41713 79.43753 87.13779 94.83804 106.54587 109.90936">&#x003c;/graphml&#x003e;</tspan></text>
</g>
<clipPath id="cp108">
<path d="M 0 0 L 595.5 0 L 595.5 842.25 L 0 842.25 Z " fill-rule="evenodd"/>
</clipPath>
<g clip-path="url(#cp108)">
<text xml:space="preserve" transform="matrix(.75 0 0 .75 72 597.25588)" font-size="14.666667" font-family="Calibri" font-weight="bold"><tspan y="14.2369799" x="0 8.072388 20.882294 27.079712 30.393113 37.255784 47.16736 50.48076 58.495897 68.14984 77.88237 91.1646 97.362018 104.51123 113.75011 123.08917 130.23839 133.55179 142.89086 151.14215 160.02321 167.82366">XML TO KNOWLEDGE GRAPH</tspan></text>
<text xml:space="preserve" transform="matrix(.75 0 0 .75 72 612.6992)" font-size="14.666667" font-family="Calibri"><tspan y="14.2369799" x="0 7.1420595 14.842316 18.20581 23.938065 27.251465 30.61496 36.347215 39.660615 46.681016 49.994417 55.56195 60.292177 67.1765 72.08577 75.449268 81.64668 84.96008 91.1575 94.520999 101.5414 107.27365 113.005908 116.319309 126.796237 134.49649 137.85999 144.0574 151.75766 155.07106 161.14673 168.87561 176.43979 181.17002 188.19042 191.55391 199.25417 204.98642 208.29982 214.03208 221.76096 233.46878 240.76113 244.07453 251.77478 256.68406 260.04756 263.41105 266.77455 271.6838 275.0473 282.33967">This is a static class which contains some utilities</tspan></text>
<text xml:space="preserve" transform="matrix(.75 0 0 .75 72 612.6992)" font-size="14.666667" font-family="Calibri"><tspan y="14.2369799" x="291.3853 295.5501 303.279 308.38865 311.70204 315.06553 326.77336 334.4736 342.20249 347.31214 352.2214 355.5849 363.28517 370.1839 373.4973 380.5177 383.83113 390.72987 395.5387 402.55909 410.25935 417.9596 421.273 425.74574 430.61903 438.3479 450.05574 453.36915 460.38954 468.08979 471.4032 479.01045 491.54127 497.70289 501.0163 505.489 508.8525 512.216 519.50839 522.8218 527.5878 535.3167 538.6301 543.5394 551.2397 558.532 561.8454 569.54568 576.838 584.5669 591.99526">for importing a graph from an XML file to the neo4J</tspan></text>
<text xml:space="preserve" transform="matrix(.75 0 0 .75 72 628.1406)" font-size="14.666667" font-family="Calibri"><tspan y="14.2369799" x="0 7.7002565 14.584579 19.314805 26.335206 34.03546 41.055864 46.788118 54.08046 57.780305 61.093706 68.23576 75.93602">database. The</tspan></text>
<text xml:space="preserve" transform="matrix(.75 0 0 .75 72 628.1406)" font-size="14.666667" font-family="Calibri"><tspan y="14.2369799" x="86.54176 98.24959 105.46315 110.37242 118.07268 125.80156 133.50182">methods</tspan></text>
<text xml:space="preserve" transform="matrix(.75 0 0 .75 72 628.1406)" font-size="14.666667" font-family="Calibri"><tspan y="14.2369799" x="142.54747 149.56787 154.48415 161.77649">are:</tspan></text>
<text xml:space="preserve" transform="matrix(.75 0 0 .75 72 653.58206)" font-size="14.666667" font-family="Calibri"><tspan y="14.2369799" x="24">-</tspan></text>
<text xml:space="preserve" transform="matrix(.75 0 0 .75 72 653.58206)" font-size="14.666667" font-family="Calibri" font-weight="bold"><tspan y="14.2369799" x="48 55.864854 63.729707 71.59456 75.194217 78.79387 84.92688 88.24028 93.92232 98.86011 105.95912 111.040149 114.6398 120.77281 124.08621 130.88466 138.76383 142.36348 150.22834 153.54174 157.14139 165.02056 172.25565 180.1205 189.45957 194.34712 201.58222 209.44707 217.31192 224.03891 229.0697 236.94887 248.87139 256.9438 269.7537 275.9511 279.26454 283.8303 290.75767 295.83869 301.04853 304.64817 312.51304 319.46189 322.7753 328.62205 336.5012 344.36607 349.3682 355.50123 362.87944">public static void loadGraphFromXML (String source,</tspan></text>
<text xml:space="preserve" transform="matrix(.75 0 0 .75 72 653.58206)" font-size="14.666667" font-family="Calibri" font-weight="bold"><tspan y="14.2369799" x="369.97138 377.82896 385.6938 393.5443 404.46495 408.06459 415.4428 423.30769 430.09895 437.47718 446.81623 451.7038 458.9389 466.80378 474.66865 477.98207 485.01679 491.96565">KnowledgeGraph kg)</tspan></text>
<text xml:space="preserve" transform="matrix(.75 0 0 .75 72 653.58206)" font-size="14.666667" font-family="Calibri"><tspan y="14.2369799" x="496.53129 500.18818 503.5016 508.41087 516.1111 519.4746 525.20687 528.52029 540.2281 547.44168 552.35098 560.0512 567.7801 575.48037 578.79379 582.1572">, this method is</tspan></text>
<text xml:space="preserve" transform="matrix(.75 0 0 .75 72 669.0254)" font-size="14.666667" font-family="Calibri"><tspan y="14.2369799" x="48 55.700258 61.43251 68.72485 76.42511 79.73851 84.50455 92.23343 95.54683 98.910327 106.639209 113.65961 121.35986 124.67326 131.69367 135.00707 142.61429 155.1451 161.30673 164.62014 168.78491 176.5138 181.62345 193.33127 200.21559 204.91718 209.66889 216.96123 224.66149 227.97489 234.87363 239.68248 246.70288 254.40314 262.1034 265.4168 269.8609 274.77018 282.47044 289.76277 293.07618 296.43968 304.16856 310.2442 317.12855 322.03785 325.40135 333.13023 340.83049 344.14387 351.87275">used to load a XML formatted graph (the location of</tspan></text>
<text xml:space="preserve" transform="matrix(.75 0 0 .75 72 669.0254)" font-size="14.666667" font-family="Calibri"><tspan y="14.2369799" x="359.65888 364.56816 372.2684 379.56074 382.87416 387.34687 390.71037 394.07386 401.3662 404.67964 408.04313 413.7754 417.0888 423.98756 427.35105 433.82746 441.1198 448.82008 452.13349 455.49699 463.19725 466.51063 469.8741 477.57438 485.27464 492.97489 497.88417 501.19758 511.6745 515.03799 519.94729 527.6475 530.96096 535.87026 543.5705 550.86288 554.1763 560.9104 565.8197 570.9293 574.29287 581.9931">the file is given in input with the String</tspan></text>
<text xml:space="preserve" transform="matrix(.75 0 0 .75 72 684.46487)" font-size="14.666667" font-family="Calibri"><tspan y="14.2369799" x="48 53.732255 61.461137 69.16139 74.05618 80.2536 87.545948 90.859348 98.5596 105.58 110.388858 117.409259 129.11708 136.33065 141.08235 148.3747 153.48435 157.92845 161.24185 164.60535 172.16953 176.93556 184.66445 187.97785 192.88712 200.58737 207.87972 211.19312 218.89337 226.18572 233.9146 241.34291 246.01602 249.32942 255.992 263.69227 271.36384 281.84077 285.20426 292.49659 300.19685 306.97386 314.26618 317.57957 324.4783 329.28715 336.30754 344.00779 351.70805 355.02146 362.7217 369.7421 375.47434 381.20658 388.49894">source parameter) into the neo4J knowledge graph passed</tspan></text>
<text xml:space="preserve" transform="matrix(.75 0 0 .75 72 684.46487)" font-size="14.666667" font-family="Calibri"><tspan y="14.2369799" x="399.5127 402.8762 410.57646 413.88984 417.25334 424.95359 432.65385 440.3541 445.26338 448.9632 452.2766 461.98066 469.6809 475.87834 483.17066 486.48408 491.39335 499.0936 506.38594 509.69935 514.17208 517.5355 520.89907 528.1914 531.5048 534.8683 540.6005 543.91397 547.27749 555.00637 562.02676 569.727 577.01937 584.7196 588.3765 591.68997 595.05349">in input. Once the file is loaded, if</tspan></text>
<text xml:space="preserve" transform="matrix(.75 0 0 .75 72 699.9082)" font-size="14.666667" font-family="Calibri"><tspan y="14.2369799" x="48 52.16478 59.89366 67.59392 75.294178 82.99443 86.65134 89.96474 93.32823 98.2375 101.5509 104.9144 112.614658 118.18219 122.912418 129.93282 137.497 142.40627 145.76976 152.65409 157.40579 164.69814 170.43039 173.74379 180.76419 184.07759 193.09462 200.8235 207.02092 214.72118 226.429 233.72135 241.28553 246.1948 254.16699 261.86726 265.23075 268.59425 276.2945 283.58686 288.6965 292.0099 296.91917 304.61943 311.50373 316.41304 319.72645 326.62519 329.98869 336.4651 343.75743">found, it instantiates a DocumentBuilder that gives</tspan></text>
<text xml:space="preserve" transform="matrix(.75 0 0 .75 72 699.9082)" font-size="14.666667" font-family="Calibri"><tspan y="14.2369799" x="352.80305 359.82344 366.02085 372.21827 379.51063 385.24287 390.9751 394.2885 399.05458 406.78346 410.09687 421.8047 429.01826 433.92753 441.62779 449.35667 457.05693 462.78919 466.1026 470.2674 477.99629 483.10594 486.4193 491.33558 498.62794 505.64833 513.3486 516.71206 524.4123 531.31106 534.62448 539.3547 546.37509 553.2738 559.00607 562.7059 566.0193 569.712">access to methods for reading tags. It</tspan></text>
<text xml:space="preserve" transform="matrix(.75 0 0 .75 72 715.35159)" font-size="14.666667" font-family="Calibri"><tspan y="14.2369799" x="48 52.90927 60.609529 67.90187 75.60213 78.91553 85.985858 92.376529 97.2858 102.09465 109.11505 115.31247 120.22174 125.953998 129.2674 136.2878 139.65129 143.01479 146.32819 151.23746 158.93772 166.23006 169.54346 175.67647 183.37673 191.1056 198.80587 206.0982 212.23122 215.54462 222.56502 230.26528 237.96553 241.27893 246.1882 253.88846 261.1808 264.4942 270.00416 277.2965 284.99678 291.77375 299.0661 305.1991 308.5125 313.24275 320.26316 327.1619 332.89418 336.20759 340.6803 345.5536 353.28248">then extracts all the &#x201c;node&#x201d; and the &#x201c;edge&#x201d; tags from</tspan></text>
<text xml:space="preserve" transform="matrix(.75 0 0 .75 72 715.35159)" font-size="14.666667" font-family="Calibri"><tspan y="14.2369799" x="368.30366 373.21293 380.91319 388.2055 391.51893 395.99165 399.35514 402.71864 410.011 413.3244 420.3448 428.04505 435.7453 439.05873 442.4222 450.1511 457.1715 464.87178 472.16413 477.89637 481.20979 486.11906 493.8193 501.11164 512.81948 516.1329 519.49636 527.06057 531.8266 539.5555 542.8689 547.7782 555.47848 562.7708 566.0842 572.983 577.7918 584.8122 592.51248">the file and loades them into the graph</tspan></text>
<text xml:space="preserve" transform="matrix(.75 0 0 .75 72 730.791)" font-size="14.666667" font-family="Calibri"><tspan y="14.2369799" x="48 58.47693 61.840425 66.749698 74.44995 77.76335 82.67262 90.37288 97.66522 100.97862 107.99902 115.69928 123.399539 132.86026 140.58914 148.2894 155.58174 158.89514 165.91555 173.6158 181.31606 184.62946 191.64986 199.35012 207.05037 213.99188 221.69214 228.46913 235.76148 239.07488 250.7827 257.99629 262.90556 270.6058 278.3347 286.03495 291.7672 295.08064 299.9969 307.2892 313.02146 320.7217 328.01408 334.2115 339.12077 342.48426 348.96067 356.253 359.6165 365.28364">with the addNode and addEdge methods respectively.</tspan></text>
</g>
<clipPath id="cp109">
<path d="M 0 0 L 595.5 0 L 595.5 842.25 L 0 842.25 Z " fill-rule="evenodd"/>
</clipPath>
<g clip-path="url(#cp109)">
<path transform="matrix(.75,0,0,.75,72,628.1406)" stroke-width="1.3333334" stroke-linecap="butt" stroke-miterlimit="10" stroke-linejoin="miter" fill="none" stroke="#000000" d="M 86.666667 16.479166 L 138.66667 16.479166 "/>
</g>
<clipPath id="cp110">
<path d="M 0 0 L 595.5 0 L 595.5 842.25 L 0 842.25 Z " fill-rule="evenodd"/>
</clipPath>
<g clip-path="url(#cp110)">
<path transform="matrix(.75,0,0,.75,72,343.6289)" stroke-width="1.3333334" stroke-linecap="butt" stroke-miterlimit="10" stroke-linejoin="miter" fill="none" stroke="#000000" d="M 62 -.8378906 L 62 241.82878 "/>
<path transform="matrix(.75,0,0,.75,72,343.6289)" stroke-width="1.3333334" stroke-linecap="butt" stroke-miterlimit="10" stroke-linejoin="miter" fill="none" stroke="#000000" d="M 600.6667 -.8378906 L 600.6667 241.82878 "/>
<path transform="matrix(.75,0,0,.75,72,343.6289)" stroke-width="1.3333334" stroke-linecap="butt" stroke-miterlimit="10" stroke-linejoin="miter" fill="none" stroke="#000000" d="M 61.333333 -.17122396 L 601.3333 -.17122396 "/>
<path transform="matrix(.75,0,0,.75,72,343.6289)" stroke-width="1.3333334" stroke-linecap="butt" stroke-miterlimit="10" stroke-linejoin="miter" fill="none" stroke="#000000" d="M 61.333333 241.16211 L 601.3333 241.16211 "/>
</g>
</g>
</svg>
