<?xml version="1.0" encoding="UTF-8" standalone="no"?>
<!DOCTYPE svg PUBLIC "-//W3C//DTD SVG 1.1//EN" "http://www.w3.org/Graphics/SVG/1.1/DTD/svg11.dtd">
<svg xmlns="http://www.w3.org/2000/svg" xmlns:xlink="http://www.w3.org/1999/xlink" version="1.1" width="596pt" height="842pt" viewBox="0 0 596 842">
<g enable-background="new">
<clipPath id="cp122">
<path d="M 0 0 L 595.5 0 L 595.5 842.25 L 0 842.25 Z " fill-rule="evenodd"/>
</clipPath>
<g clip-path="url(#cp122)">
<path transform="matrix(.75,0,0,.75,0,0)" d="M 0 0 L 794 0 L 794 1123 L 0 1123 Z " fill="#ffffff"/>
</g>
<clipPath id="cp123">
<path d="M 0 0 L 595.5 0 L 595.5 842.25 L 0 842.25 Z " fill-rule="evenodd"/>
</clipPath>
<g clip-path="url(#cp123)">
<path transform="matrix(.75,0,0,.75,72,72)" d="M 0 0 L 601 0 L 601 153 L 0 153 Z " fill="#ffffff"/>
<path transform="matrix(.75,0,0,.75,72,356.66017)" d="M 0 0 L 601 0 L 601 351 L 0 351 Z " fill="#ffffff"/>
</g>
<clipPath id="cp124">
<path d="M 72.75 72.75 L 522.75 72.75 L 522.75 186.93164 L 72.75 186.93164 Z " fill-rule="evenodd"/>
</clipPath>
<g clip-path="url(#cp124)">
<path transform="matrix(.75,0,0,.75,77.25,78)" d="M 0 0 L 369.27766 0 L 369.27766 17.173178 L 0 17.173178 Z " fill="#ffffff"/>
<path transform="matrix(.75,0,0,.75,77.25,92.8125)" d="M 0 0 L 482.0907 0 L 482.0907 17.173178 L 0 17.173178 Z " fill="#ffffff"/>
<path transform="matrix(.75,0,0,.75,77.25,107.625)" d="M 0 0 L 449.8584 0 L 449.8584 17.173178 L 0 17.173178 Z " fill="#ffffff"/>
<path transform="matrix(.75,0,0,.75,77.25,122.43359)" d="M 0 0 L 361.21958 0 L 361.21958 17.173178 L 0 17.173178 Z " fill="#ffffff"/>
<path transform="matrix(.75,0,0,.75,77.25,137.2461)" d="M 0 0 L 353.1615 0 L 353.1615 17.173178 L 0 17.173178 Z " fill="#ffffff"/>
<path transform="matrix(.75,0,0,.75,77.25,166.8711)" d="M 0 0 L 329.33573 0 L 329.33573 17.173178 L 0 17.173178 Z " fill="#ffffff"/>
</g>
<clipPath id="cp125">
<path d="M 72.75 357.41017 L 522.75 357.41017 L 522.75 619.71096 L 72.75 619.71096 Z " fill-rule="evenodd"/>
</clipPath>
<g clip-path="url(#cp125)">
<path transform="matrix(.75,0,0,.75,77.25,362.66017)" d="M 0 0 L 177.27765 0 L 177.27765 17.173178 L 0 17.173178 Z " fill="#ffffff"/>
<path transform="matrix(.75,0,0,.75,77.25,377.47267)" d="M 0 0 L 338.43916 0 L 338.43916 17.173178 L 0 17.173178 Z " fill="#ffffff"/>
<path transform="matrix(.75,0,0,.75,77.25,392.28517)" d="M 0 0 L 320.9292 0 L 320.9292 17.173178 L 0 17.173178 Z " fill="#ffffff"/>
<path transform="matrix(.75,0,0,.75,77.25,407.09376)" d="M 0 0 L 441.80033 0 L 441.80033 17.173178 L 0 17.173178 Z " fill="#ffffff"/>
<path transform="matrix(.75,0,0,.75,77.25,421.90626)" d="M 0 0 L 353.1615 0 L 353.1615 17.173178 L 0 17.173178 Z " fill="#ffffff"/>
<path transform="matrix(.75,0,0,.75,77.25,436.71876)" d="M 0 0 L 538.4972 0 L 538.4972 17.173178 L 0 17.173178 Z " fill="#ffffff"/>
<path transform="matrix(.75,0,0,.75,77.25,466.3418)" d="M 0 0 L 177.27765 0 L 177.27765 17.173178 L 0 17.173178 Z " fill="#ffffff"/>
<path transform="matrix(.75,0,0,.75,77.25,481.1543)" d="M 0 0 L 338.43916 0 L 338.43916 17.173178 L 0 17.173178 Z " fill="#ffffff"/>
<path transform="matrix(.75,0,0,.75,77.25,495.9668)" d="M 0 0 L 506.26493 0 L 506.26493 17.173178 L 0 17.173178 Z " fill="#ffffff"/>
<path transform="matrix(.75,0,0,.75,77.25,510.7793)" d="M 0 0 L 385.3938 0 L 385.3938 17.173178 L 0 17.173178 Z " fill="#ffffff"/>
<path transform="matrix(.75,0,0,.75,77.25,525.5918)" d="M 0 0 L 337.04536 0 L 337.04536 17.173178 L 0 17.173178 Z " fill="#ffffff"/>
<path transform="matrix(.75,0,0,.75,77.25,540.40237)" d="M 0 0 L 457.91648 0 L 457.91648 17.173178 L 0 17.173178 Z " fill="#ffffff"/>
<path transform="matrix(.75,0,0,.75,77.25,555.21487)" d="M 0 0 L 353.1615 0 L 353.1615 17.173178 L 0 17.173178 Z " fill="#ffffff"/>
<path transform="matrix(.75,0,0,.75,77.25,570.02737)" d="M 0 0 L 538.4972 0 L 538.4972 17.173178 L 0 17.173178 Z " fill="#ffffff"/>
<path transform="matrix(.75,0,0,.75,77.25,599.65237)" d="M 0 0 L 153.10343 0 L 153.10343 17.173178 L 0 17.173178 Z " fill="#ffffff"/>
</g>
<clipPath id="cp126">
<path d="M 72.75 72.75 L 522.75 72.75 L 522.75 186.93164 L 72.75 186.93164 Z " fill-rule="evenodd"/>
</clipPath>
<g clip-path="url(#cp126)">
<text fill="#434f54" xml:space="preserve" transform="matrix(.75 0 0 .75 77.25 78)" font-size="14.666667" font-family="Consolas"><tspan y="13.399089" x="192 200.05808 208.11615 216.17423 224.2323 232.29038 240.34845 248.40653 256.4646 264.52268 272.58076 280.63883 288.6969 296.75498 304.81306 312.87113 320.9292">print_where_born(</tspan></text>
<text fill="#00979d" xml:space="preserve" transform="matrix(.75 0 0 .75 77.25 78)" font-size="14.666667" font-family="Consolas"><tspan y="13.399089" x="328.98728 337.04536 345.10343">PER</tspan></text>
<text fill="#434f54" xml:space="preserve" transform="matrix(.75 0 0 .75 77.25 78)" font-size="14.666667" font-family="Consolas"><tspan y="13.399089" x="353.1615 361.21958">),</tspan></text>
<text fill="#434f54" xml:space="preserve" transform="matrix(.75 0 0 .75 77.25 92.8125)" font-size="14.666667" font-family="Consolas"><tspan y="13.399089" x="192 200.05808 208.11615 216.17423 224.2323 232.29038">write(</tspan></text>
<text fill="#005c5f" xml:space="preserve" transform="matrix(.75 0 0 .75 77.25 92.8125)" font-size="14.666667" font-family="Consolas"><tspan y="13.399089" x="240.34845 248.40653 256.4646 264.52268 272.58076 280.63883 288.6969 296.75498 304.81306 312.87113 320.9292 328.98728 337.04536 345.10343 353.1615 361.21958 369.27766 377.33573 385.3938 393.45188 401.50996 409.56803 417.6261 425.68418 433.74226">'---- list of titles----'</tspan></text>
<text fill="#434f54" xml:space="preserve" transform="matrix(.75 0 0 .75 77.25 92.8125)" font-size="14.666667" font-family="Consolas"><tspan y="13.399089" x="441.80033 449.8584 457.91648 465.97456 474.03263">),nl,</tspan></text>
<text fill="#434f54" xml:space="preserve" transform="matrix(.75 0 0 .75 77.25 107.625)" font-size="14.666667" font-family="Consolas"><tspan y="13.399089" x="192 200.05808 208.11615 216.17423 224.2323 232.29038 240.34845 248.40653 256.4646 264.52268 272.58076 280.63883 288.6969 296.75498 304.81306 312.87113 320.9292 328.98728 337.04536 345.10343 353.1615 361.21958 369.27766 377.33573 385.3938 393.45188 401.50996">print_title_of_person_main(</tspan></text>
<text fill="#00979d" xml:space="preserve" transform="matrix(.75 0 0 .75 77.25 107.625)" font-size="14.666667" font-family="Consolas"><tspan y="13.399089" x="409.56803 417.6261 425.68418">PER</tspan></text>
<text fill="#434f54" xml:space="preserve" transform="matrix(.75 0 0 .75 77.25 107.625)" font-size="14.666667" font-family="Consolas"><tspan y="13.399089" x="433.74226 441.80033">),</tspan></text>
<text fill="#434f54" xml:space="preserve" transform="matrix(.75 0 0 .75 77.25 122.43359)" font-size="14.666667" font-family="Consolas"><tspan y="13.399089" x="192 200.05808 208.11615 216.17423 224.2323 232.29038 240.34845 248.40653 256.4646 264.52268 272.58076 280.63883 288.6969 296.75498 304.81306 312.87113">print_when_dead(</tspan></text>
<text fill="#00979d" xml:space="preserve" transform="matrix(.75 0 0 .75 77.25 122.43359)" font-size="14.666667" font-family="Consolas"><tspan y="13.399089" x="320.9292 328.98728 337.04536">PER</tspan></text>
<text fill="#434f54" xml:space="preserve" transform="matrix(.75 0 0 .75 77.25 122.43359)" font-size="14.666667" font-family="Consolas"><tspan y="13.399089" x="345.10343 353.1615">),</tspan></text>
<text fill="#434f54" xml:space="preserve" transform="matrix(.75 0 0 .75 77.25 137.2461)" font-size="14.666667" font-family="Consolas"><tspan y="13.399089" x="192 200.05808 208.11615 216.17423 224.2323 232.29038 240.34845 248.40653 256.4646 264.52268 272.58076 280.63883 288.6969 296.75498 304.81306">print_why_dead(</tspan></text>
<text fill="#00979d" xml:space="preserve" transform="matrix(.75 0 0 .75 77.25 137.2461)" font-size="14.666667" font-family="Consolas"><tspan y="13.399089" x="312.87113 320.9292 328.98728">PER</tspan></text>
<text fill="#434f54" xml:space="preserve" transform="matrix(.75 0 0 .75 77.25 137.2461)" font-size="14.666667" font-family="Consolas"><tspan y="13.399089" x="337.04536 345.10343">).</tspan></text>
<text fill="#434f54" xml:space="preserve" transform="matrix(.75 0 0 .75 77.25 166.8711)" font-size="14.666667" font-family="Consolas"><tspan y="13.399089" x="0 8.058075 16.11615 24.174225 32.2323 40.290376 48.34845 56.406526 64.4646">info_org(</tspan></text>
<text fill="#00979d" xml:space="preserve" transform="matrix(.75 0 0 .75 77.25 166.8711)" font-size="14.666667" font-family="Consolas"><tspan y="13.399089" x="72.522678 80.58075 88.638828">ORG</tspan></text>
<text fill="#434f54" xml:space="preserve" transform="matrix(.75 0 0 .75 77.25 166.8711)" font-size="14.666667" font-family="Consolas"><tspan y="13.399089" x="96.6969 104.754978 112.81305">):-</tspan></text>
<text fill="#434f54" xml:space="preserve" transform="matrix(.75 0 0 .75 77.25 166.8711)" font-size="14.666667" font-family="Consolas"><tspan y="13.399089" x="192.34845 200.40653 208.4646 216.52268 224.58075 232.63883 240.6969 248.75498 256.81306 264.87113 272.9292 280.98728">print_alias(</tspan></text>
<text fill="#00979d" xml:space="preserve" transform="matrix(.75 0 0 .75 77.25 166.8711)" font-size="14.666667" font-family="Consolas"><tspan y="13.399089" x="289.04536 297.10343 305.1615">ORG</tspan></text>
<text fill="#434f54" xml:space="preserve" transform="matrix(.75 0 0 .75 77.25 166.8711)" font-size="14.666667" font-family="Consolas"><tspan y="13.399089" x="313.21958 321.27766">),</tspan></text>
</g>
<clipPath id="cp127">
<path d="M 0 0 L 595.5 0 L 595.5 842.25 L 0 842.25 Z " fill-rule="evenodd"/>
</clipPath>
<g clip-path="url(#cp127)">
<text xml:space="preserve" transform="matrix(.75 0 0 .75 72 213.125)" font-size="14.666667" font-family="Calibri"><tspan y="14.2369799" x="0 7.1420595 14.842316">The</tspan></text>
<text xml:space="preserve" transform="matrix(.75 0 0 .75 72 213.125)" font-size="14.666667" font-family="Calibri" font-style="italic"><tspan y="14.2369799" x="25.44806 32.98372 38.007493 41.370988 48.763414 53.672685 60.972185 68.27168 73.95384">print_*/1</tspan></text>
<text xml:space="preserve" transform="matrix(.75 0 0 .75 72 213.125)" font-size="14.666667" font-family="Calibri"><tspan y="14.2369799" x="84.69556 89.80521 97.50546 100.86896 108.1613 113.893558 117.206958 124.1057 127.46919 133.9456 141.23795 148.9382 152.2516 157.16088 164.86113 172.15348 175.46688 178.83037 186.53063 194.23088 201.93114 206.84041 210.49732 213.81072 221.51097 226.62062 229.98412 237.5483 242.45757 245.77097 250.68024 258.3805 265.67286 268.98628 272.34977 279.96406 284.12886 291.85774 296.96739 308.6752 315.5595 320.46879 323.83229 331.56117">rules given the input, print the information</tspan></text>
<text xml:space="preserve" transform="matrix(.75 0 0 .75 72 213.125)" font-size="14.666667" font-family="Calibri"><tspan y="14.2369799" x="342.5748 349.5952 355.32746 361.0597 368.78858 374.986 378.3495 385.23384 389.98554 397.2779 404.97816 408.29158 418.7685 422.132 427.04127 434.74153 438.05494 441.41844 446.3277 449.6411 456.6615 464.36177 472.062 475.37544 479.54023 487.2691 492.37876 495.69215 502.71253 510.14064 516.7746 520.088 527.1084 530.4719 533.83547 540.85586 546.5881 549.9015 557.19387 564.75808 569.66738 573.0309 577.9402">associated with it and for any alias entity</tspan></text>
<text xml:space="preserve" transform="matrix(.75 0 0 .75 72 228.5664)" font-size="14.666667" font-family="Calibri"><tspan y="14.2369799" x="0 7.020401 12.752655 18.48491 26.21379 32.41121 35.774705 42.659029 47.410737 54.70308 62.403337 65.716739 76.193668 79.55716 84.46643 92.16669 95.48009 100.38936 108.089618 115.38196 118.69536 122.05885 129.75911 137.45937 145.15962 150.0689 153.76874 157.08214 160.77483 165.24756 168.56096 173.47023 181.17049 188.46283 191.77623 198.5747 206.30359 213.32399 216.68749 222.41974 225.73314 232.75354 237.66982 244.96216 248.27556 255.97582 263.7047 268.61399 271.92738 279.62763 287.32789 290.69139 295.16413 298.52763 305.81996 313.5202">associated with the input. If the goals are not unified,</tspan></text>
<text xml:space="preserve" transform="matrix(.75 0 0 .75 72 228.5664)" font-size="14.666667" font-family="Calibri"><tspan y="14.2369799" x="320.4905 327.51094 335.21119 338.5246 345.54499 348.90849 359.2207 365.96897 372.46687 378.1991 381.5125 386.42179 391.53144 399.2317 406.52406 409.83747 414.9471 422.64738 426.01087">an always true rule</tspan></text>
<text xml:space="preserve" transform="matrix(.75 0 0 .75 72 228.5664)" font-size="14.666667" font-family="Calibri" font-style="italic"><tspan y="14.2369799" x="436.61653 444.15217 449.17594 452.53944 459.93186 464.84114 472.14064 479.44013 483.88423 491.18373">print_*(_)</tspan></text>
<text xml:space="preserve" transform="matrix(.75 0 0 .75 72 228.5664)" font-size="14.666667" font-family="Calibri"><tspan y="14.2369799" x="498.94129 510.6491 517.6695 523.8594 531.15176 534.46517 540.1974 547.89767 552.8139 560.10629 563.4197 568.329 576.02926 582.9136">make sure that</tspan></text>
<text xml:space="preserve" transform="matrix(.75 0 0 .75 72 244.00782)" font-size="14.666667" font-family="Calibri"><tspan y="14.2369799" x="0 4.9092714 12.609528 19.90187 23.215271 29.29094 36.31134 39.674837 43.03833 46.35173 53.37213 56.735628 67.04784 73.7961 80.293979 86.02623 89.33963 95.071887 102.77214 108.96956 115.16698 122.45932 129.75167 137.45192 143.18418 147.10587 150.41927 155.32854 163.0288 166.39229 172.12454 175.43795 178.80144 184.53369 187.84709 191.21059 202.91841 210.61867 218.34755 223.4572 228.18743 235.20783 242.772 247.68128 250.99468 256.72694 260.09043 267.79069 273.9881">the call always succeeds; this is important since</tspan></text>
<text xml:space="preserve" transform="matrix(.75 0 0 .75 72 244.00782)" font-size="14.666667" font-family="Calibri"><tspan y="14.2369799" x="284.59385 294.94184 302.2342 305.5476 313.24787 320.54023 327.83259 335.53285 338.84626 343.75553 351.45579 358.3401 363.24937 366.56275 373.44709 378.35636 381.66975 386.579 394.27928 401.5716 404.885 412.17738 419.87763 427.57789 430.8913 438.62019 443.0929 446.4063 451.31559 459.01585 466.30818 469.62159 475.35383 482.64619 487.75584 491.11933 498.41169 504.14393 507.45735 515.1862 519.65896 522.97238 529.04806 536.0684 539.4319 542.79537 548.5276 552.1845 555.4979 560.4072 568.1075">we need that at the end of the series of calls, the</tspan></text>
<text xml:space="preserve" transform="matrix(.75 0 0 .75 72 259.44923)" font-size="14.666667" font-family="Calibri"><tspan y="14.2369799" x="0 5.1096498 12.809906 16.1734 23.465744 29.197999 32.5114 39.5318 42.895296 53.207506 59.955766 66.45364 72.1859 75.4993 81.23155 88.93181 95.12923 101.326648 108.61899 115.91133 123.61159 126.92499 131.69103 139.4199 142.7333 148.80898 156.53786 164.10204 169.0113 172.3748 180.07506 187.77532 195.06766 198.38106 203.29033 210.99059 218.28293 221.59633 228.66666 234.62763 241.91997 248.11739 255.81764 260.72694 264.09043 271.8193 279.51957 282.83296 290.56184">rules always succeed to continue the execution of</tspan></text>
<text xml:space="preserve" transform="matrix(.75 0 0 .75 72 259.44923)" font-size="14.666667" font-family="Calibri"><tspan y="14.2369799" x="298.34797 303.25724 310.9575">the</tspan></text>
<text xml:space="preserve" transform="matrix(.75 0 0 .75 72 259.44923)" font-size="14.666667" font-family="Calibri" font-style="italic"><tspan y="14.2369799" x="321.56324 333.15657 340.6922 344.0557 351.59138 358.89088 362.25437 369.7757 377.29707">main_loop</tspan></text>
<text xml:space="preserve" transform="matrix(.75 0 0 .75 72 259.44923)" font-size="14.666667" font-family="Calibri"><tspan y="14.2369799" x="388.14613 392.61885 400.3191 408.01936 414.21678 419.12605 422.48954 430.2184 437.91868">function.</tspan></text>
<text xml:space="preserve" transform="matrix(.75 0 0 .75 72 284.89064)" font-size="14.666667" font-family="Calibri"><tspan y="14.2369799" x="0 8.480301 14.212555 17.525956 27.873963 35.166307 38.479707 44.555376 51.575777 59.27603 62.58943 70.28969 78.01857 82.92784 86.291339 92.488758 99.7811 103.0945 106.45799 114.15825 117.47165 122.38092 130.08118 137.37352 140.68692 148.38718 155.82959 162.17729 165.49069 173.19095 180.48329 183.84679 191.51837 200.73488 204.39179 207.70519 214.58951 219.49878 222.81218 227.72145 235.4217 242.71405 246.02745 253.3198 261.02006 268.7203 272.0337 279.76258 284.2353 287.5487 292.45799 300.15824">As we can notice in the box below, at the end of the</tspan></text>
<text xml:space="preserve" transform="matrix(.75 0 0 .75 72 284.89064)" font-size="14.666667" font-family="Calibri"><tspan y="14.2369799" x="310.76399 315.87364 323.57389 326.93739 334.22975 339.96199 343.2754 348.18467 355.88493 363.17726 368.0935 375.38587 378.69929 382.06278 387.79505 391.10847 396.01774 403.718">rules there is the</tspan></text>
<text xml:space="preserve" transform="matrix(.75 0 0 .75 72 284.89064)" font-size="14.666667" font-family="Calibri" font-style="italic"><tspan y="14.2369799" x="414.3237 418.61738 426.153 429.5165 432.88 438.56217">fail/0</tspan></text>
<text xml:space="preserve" transform="matrix(.75 0 0 .75 72 284.89064)" font-size="14.666667" font-family="Calibri"><tspan y="14.2369799" x="449.3039 457.00416 461.9204 469.21278 476.91304 480.27653 486.35218 493.2365 497.98823 505.28059 509.20228 512.5157 517.4249 525.1252 528.48867 534.2209 537.5343 544.5547 547.9182 551.28176 558.9533 569.30136">predicate; this allows</tspan></text>
<text xml:space="preserve" transform="matrix(.75 0 0 .75 72 284.89064)" font-size="14.666667" font-family="Calibri"><tspan y="14.2369799" x="578.347 586.04727">us</tspan></text>
<text xml:space="preserve" transform="matrix(.75 0 0 .75 72 300.33399)" font-size="14.666667" font-family="Calibri"><tspan y="14.2369799" x="0 4.766037 12.494919 15.808319 19.973099 27.70198 32.59677 38.79419 46.086534 49.399934 57.10019 61.973497 69.70238 73.06587 80.794757 87.6935 91.0069 95.772937 103.501819 106.815219 114.51547 121.53587 127.73329 134.32425 139.23352 144.04238 151.06278 157.2602 163.92278 167.23618 174.93643 182.22878 187.96103 195.66129 199.02478 203.77649 211.06884 214.38224 219.2915 226.99176 234.2841 237.5975 241.78377 248.80417 255.00159 259.91087 263.22425 268.1335 275.83378 282.71809">to force prolog to backtrack despite the fact that</tspan></text>
<text xml:space="preserve" transform="matrix(.75 0 0 .75 72 300.33399)" font-size="14.666667" font-family="Calibri"><tspan y="14.2369799" x="290.9408 295.85008 303.55033 310.84266 314.15608 319.26573 326.96598 330.32948 337.62184 340.93525 346.66749 354.36775 360.56517 366.76258 374.05494 381.3473 389.04756 394.7798 398.4367 401.75013 408.7705 416.47077 424.17103 427.48445 433.56013 441.289 448.98927 454.7215 462.42176 465.78526 470.69453 474.00794 478.9172 486.61747 493.9098 497.2232 504.2436 507.6071 510.97059 517.99099 523.7232 527.0366 533.51309 540.8054 545.6644 551.39669 554.76016 562.489">the rule succeeds, and consult the alias version</tspan></text>
<text xml:space="preserve" transform="matrix(.75 0 0 .75 72 300.33399)" font-size="14.666667" font-family="Calibri"><tspan y="14.2369799" x="573.50259 581.23147">of</tspan></text>
<text xml:space="preserve" transform="matrix(.75 0 0 .75 72 315.77735)" font-size="14.666667" font-family="Calibri"><tspan y="14.2369799" x="0 4.9092714 12.609528 19.90187 23.215271 28.32492 36.025178 39.38867 46.681016 50.38086 53.69426 57.00766 63.541276 71.27016 74.63365 77.99715 85.66873 96.14566 99.509159 107.20941 114.108158 117.421558 122.330829 130.03108 133.39458 139.12683 142.44023 148.5159 155.5363 162.99306 169.39785 176.41825 182.1505 185.8074 189.1208 196.1412 199.4546 205.18686 212.4792 217.58885 220.95235 228.24469 233.97695 237.29035 245.01923 249.49196 252.80536 257.915 265.61528 268.97877 276.27113">the rule.  Following this canvas, a series of rules</tspan></text>
<text xml:space="preserve" transform="matrix(.75 0 0 .75 72 315.77735)" font-size="14.666667" font-family="Calibri"><tspan y="14.2369799" x="285.31678 293.01704 299.79396 306.27037 313.56269 316.8761 324.57637 331.8687 339.16108 346.86134 350.17475 360.65168 365.76133 369.12483 373.82643 378.57814 385.87049 393.57075 396.88417 404.5844 411.6048 417.33705 424.6294 432.32966 435.64308 443.37196 451.0722 454.38563 459.2949 466.99516 474.28749 477.6009 485.30116 488.66465 492.99415 497.10163 504.39399 509.31025 516.6026 524.16677">have been written based on the different</tspan></text>
<text xml:space="preserve" transform="matrix(.75 0 0 .75 72 331.21876)" font-size="14.666667" font-family="Calibri"><tspan y="14.2369799" x="0 4.916275 12.208618 15.572113 22.456437 27.365708 30.729203 38.458086 46.15834 51.890596 59.59085 62.954347 70.58298 76.31523 79.62863 84.07274 91.36508 95.22247">relationships (e.g</tspan></text>
<text xml:space="preserve" transform="matrix(.75 0 0 .75 72 331.21876)" font-size="14.666667" font-family="Calibri" font-style="italic"><tspan y="14.2369799" x="105.434619 112.970279 117.99405 121.357547 128.74997 133.65924 140.95874 145.25243 152.77378 160.30944 167.8451 175.38076 182.37969 189.91535 197.21485 204.7505 212.28617 217.03787">print_founded_date</tspan></text>
<text xml:space="preserve" transform="matrix(.75 0 0 .75 72 331.21876)" font-size="14.666667" font-family="Calibri"><tspan y="14.2369799" x="224.0368 229.6975 237.12581">/1,</tspan></text>
<text xml:space="preserve" transform="matrix(.75 0 0 .75 72 331.21876)" font-size="14.666667" font-family="Calibri" font-style="italic"><tspan y="14.2369799" x="244.09612 251.63178 256.65556 260.01905 267.41148 272.32075 279.62025 290.09718 297.6328 304.63175 309.65553 316.65446 323.95396 331.48963 339.011 344.03477">print_where_born</tspan></text>
<text xml:space="preserve" transform="matrix(.75 0 0 .75 72 331.21876)" font-size="14.666667" font-family="Calibri"><tspan y="14.2369799" x="351.5704 357.23109">/1</tspan></text>
<text xml:space="preserve" transform="matrix(.75 0 0 .75 72 331.21876)" font-size="14.666667" font-family="Calibri"><tspan y="14.2369799" x="367.9728 375.18638 379.9166 386.114 390.5581">etc).</tspan></text>
</g>
<clipPath id="cp128">
<path d="M 72.75 357.41017 L 522.75 357.41017 L 522.75 619.71096 L 72.75 619.71096 Z " fill-rule="evenodd"/>
</clipPath>
<g clip-path="url(#cp128)">
<text fill="#434f54" xml:space="preserve" transform="matrix(.75 0 0 .75 77.25 362.66017)" font-size="14.666667" font-family="Consolas"><tspan y="13.399089" x="0 8.058075 16.11615 24.174225 32.2323 40.290376 48.34845 56.406526 64.4646 72.522678 80.58075 88.638828 96.6969 104.754978 112.81305 120.871128">print_when_born(</tspan></text>
<text fill="#00979d" xml:space="preserve" transform="matrix(.75 0 0 .75 77.25 362.66017)" font-size="14.666667" font-family="Consolas"><tspan y="13.399089" x="128.9292 136.98728 145.04535">PER</tspan></text>
<text fill="#434f54" xml:space="preserve" transform="matrix(.75 0 0 .75 77.25 362.66017)" font-size="14.666667" font-family="Consolas"><tspan y="13.399089" x="153.10343 161.1615 169.21958">):-</tspan></text>
<text fill="#434f54" xml:space="preserve" transform="matrix(.75 0 0 .75 77.25 377.47267)" font-size="14.666667" font-family="Consolas"><tspan y="13.399089" x="201.45188 209.50995 217.56803 225.6261 233.68418">name(</tspan></text>
<text fill="#00979d" xml:space="preserve" transform="matrix(.75 0 0 .75 77.25 377.47267)" font-size="14.666667" font-family="Consolas"><tspan y="13.399089" x="241.74225 249.80033 257.8584 265.91648 273.97456 282.03263">ID_PER</tspan></text>
<text fill="#434f54" xml:space="preserve" transform="matrix(.75 0 0 .75 77.25 377.47267)" font-size="14.666667" font-family="Consolas"><tspan y="13.399089" x="290.0907">,</tspan></text>
<text fill="#00979d" xml:space="preserve" transform="matrix(.75 0 0 .75 77.25 377.47267)" font-size="14.666667" font-family="Consolas"><tspan y="13.399089" x="298.14878 306.20686 314.26493">PER</tspan></text>
<text fill="#434f54" xml:space="preserve" transform="matrix(.75 0 0 .75 77.25 377.47267)" font-size="14.666667" font-family="Consolas"><tspan y="13.399089" x="322.323 330.38108">),</tspan></text>
<text fill="#434f54" xml:space="preserve" transform="matrix(.75 0 0 .75 77.25 392.28517)" font-size="14.666667" font-family="Consolas"><tspan y="13.399089" x="200.05808 208.11615 216.17423 224.2323 232.29038 240.34845 248.40653">person(</tspan></text>
<text fill="#00979d" xml:space="preserve" transform="matrix(.75 0 0 .75 77.25 392.28517)" font-size="14.666667" font-family="Consolas"><tspan y="13.399089" x="256.4646 264.52268 272.58076 280.63883 288.6969 296.75498">ID_PER</tspan></text>
<text fill="#434f54" xml:space="preserve" transform="matrix(.75 0 0 .75 77.25 392.28517)" font-size="14.666667" font-family="Consolas"><tspan y="13.399089" x="304.81306 312.87113">),</tspan></text>
<text fill="#434f54" xml:space="preserve" transform="matrix(.75 0 0 .75 77.25 407.09376)" font-size="14.666667" font-family="Consolas"><tspan y="13.399089" x="200.05808 208.11615 216.17423 224.2323 232.29038 240.34845 248.40653 256.4646 264.52268 272.58076 280.63883 288.6969 296.75498 304.81306">date_of_birth(</tspan></text>
<text fill="#00979d" xml:space="preserve" transform="matrix(.75 0 0 .75 77.25 407.09376)" font-size="14.666667" font-family="Consolas"><tspan y="13.399089" x="312.87113 320.9292 328.98728 337.04536 345.10343 353.1615">ID_PER</tspan></text>
<text fill="#434f54" xml:space="preserve" transform="matrix(.75 0 0 .75 77.25 407.09376)" font-size="14.666667" font-family="Consolas"><tspan y="13.399089" x="361.21958">,</tspan></text>
<text fill="#00979d" xml:space="preserve" transform="matrix(.75 0 0 .75 77.25 407.09376)" font-size="14.666667" font-family="Consolas"><tspan y="13.399089" x="369.27766 377.33573 385.3938 393.45188 401.50996 409.56803 417.6261">ID_DATE</tspan></text>
<text fill="#434f54" xml:space="preserve" transform="matrix(.75 0 0 .75 77.25 407.09376)" font-size="14.666667" font-family="Consolas"><tspan y="13.399089" x="425.68418 433.74226">),</tspan></text>
<text fill="#434f54" xml:space="preserve" transform="matrix(.75 0 0 .75 77.25 421.90626)" font-size="14.666667" font-family="Consolas"><tspan y="13.399089" x="200.05808 208.11615 216.17423 224.2323 232.29038">name(</tspan></text>
<text fill="#00979d" xml:space="preserve" transform="matrix(.75 0 0 .75 77.25 421.90626)" font-size="14.666667" font-family="Consolas"><tspan y="13.399089" x="240.34845 248.40653 256.4646 264.52268 272.58076 280.63883 288.6969">ID_DATE</tspan></text>
<text fill="#434f54" xml:space="preserve" transform="matrix(.75 0 0 .75 77.25 421.90626)" font-size="14.666667" font-family="Consolas"><tspan y="13.399089" x="296.75498">,</tspan></text>
<text fill="#00979d" xml:space="preserve" transform="matrix(.75 0 0 .75 77.25 421.90626)" font-size="14.666667" font-family="Consolas"><tspan y="13.399089" x="304.81306 312.87113 320.9292 328.98728">DATE</tspan></text>
<text fill="#434f54" xml:space="preserve" transform="matrix(.75 0 0 .75 77.25 421.90626)" font-size="14.666667" font-family="Consolas"><tspan y="13.399089" x="337.04536 345.10343">),</tspan></text>
<text fill="#434f54" xml:space="preserve" transform="matrix(.75 0 0 .75 77.25 436.71876)" font-size="14.666667" font-family="Consolas"><tspan y="13.399089" x="200.05808 208.11615 216.17423 224.2323 232.29038 240.34845 248.40653 256.4646 264.52268">my_print(</tspan></text>
<text fill="#005c5f" xml:space="preserve" transform="matrix(.75 0 0 .75 77.25 436.71876)" font-size="14.666667" font-family="Consolas"><tspan y="13.399089" x="272.58076 280.63883">''</tspan></text>
<text fill="#434f54" xml:space="preserve" transform="matrix(.75 0 0 .75 77.25 436.71876)" font-size="14.666667" font-family="Consolas"><tspan y="13.399089" x="288.6969">,</tspan></text>
<text fill="#005c5f" xml:space="preserve" transform="matrix(.75 0 0 .75 77.25 436.71876)" font-size="14.666667" font-family="Consolas"><tspan y="13.399089" x="296.75498 304.81306 312.87113 320.9292 328.98728 337.04536 345.10343 353.1615 361.21958 369.27766 377.33573 385.3938 393.45188 401.50996 409.56803">' was born on '</tspan></text>
<text fill="#434f54" xml:space="preserve" transform="matrix(.75 0 0 .75 77.25 436.71876)" font-size="14.666667" font-family="Consolas"><tspan y="13.399089" x="417.6261">,</tspan></text>
<text fill="#00979d" xml:space="preserve" transform="matrix(.75 0 0 .75 77.25 436.71876)" font-size="14.666667" font-family="Consolas"><tspan y="13.399089" x="425.68418 433.74226 441.80033 449.8584">DATE</tspan></text>
<text fill="#434f54" xml:space="preserve" transform="matrix(.75 0 0 .75 77.25 436.71876)" font-size="14.666667" font-family="Consolas"><tspan y="13.399089" x="457.91648 465.97456 474.03263 482.0907 490.14878 498.20686 506.26493 514.323 522.3811 530.4392">),nl,fail.</tspan></text>
<text fill="#434f54" xml:space="preserve" transform="matrix(.75 0 0 .75 77.25 466.3418)" font-size="14.666667" font-family="Consolas"><tspan y="13.399089" x="0 8.058075 16.11615 24.174225 32.2323 40.290376 48.34845 56.406526 64.4646 72.522678 80.58075 88.638828 96.6969 104.754978 112.81305 120.871128">print_when_born(</tspan></text>
<text fill="#00979d" xml:space="preserve" transform="matrix(.75 0 0 .75 77.25 466.3418)" font-size="14.666667" font-family="Consolas"><tspan y="13.399089" x="128.9292 136.98728 145.04535">PER</tspan></text>
<text fill="#434f54" xml:space="preserve" transform="matrix(.75 0 0 .75 77.25 466.3418)" font-size="14.666667" font-family="Consolas"><tspan y="13.399089" x="153.10343 161.1615 169.21958">):-</tspan></text>
<text fill="#434f54" xml:space="preserve" transform="matrix(.75 0 0 .75 77.25 481.1543)" font-size="14.666667" font-family="Consolas"><tspan y="13.399089" x="201.45188 209.50995 217.56803 225.6261 233.68418">name(</tspan></text>
<text fill="#00979d" xml:space="preserve" transform="matrix(.75 0 0 .75 77.25 481.1543)" font-size="14.666667" font-family="Consolas"><tspan y="13.399089" x="241.74225 249.80033 257.8584 265.91648 273.97456 282.03263">ID_PER</tspan></text>
<text fill="#434f54" xml:space="preserve" transform="matrix(.75 0 0 .75 77.25 481.1543)" font-size="14.666667" font-family="Consolas"><tspan y="13.399089" x="290.0907">,</tspan></text>
<text fill="#00979d" xml:space="preserve" transform="matrix(.75 0 0 .75 77.25 481.1543)" font-size="14.666667" font-family="Consolas"><tspan y="13.399089" x="298.14878 306.20686 314.26493">PER</tspan></text>
<text fill="#434f54" xml:space="preserve" transform="matrix(.75 0 0 .75 77.25 481.1543)" font-size="14.666667" font-family="Consolas"><tspan y="13.399089" x="322.323 330.38108">),</tspan></text>
<text fill="#434f54" xml:space="preserve" transform="matrix(.75 0 0 .75 77.25 495.9668)" font-size="14.666667" font-family="Consolas"><tspan y="13.399089" x="200.05808 208.11615 216.17423 224.2323 232.29038 240.34845 248.40653 256.4646 264.52268 272.58076 280.63883 288.6969 296.75498 304.81306 312.87113 320.9292 328.98728">\+ date_of_birth(</tspan></text>
<text fill="#00979d" xml:space="preserve" transform="matrix(.75 0 0 .75 77.25 495.9668)" font-size="14.666667" font-family="Consolas"><tspan y="13.399089" x="337.04536 345.10343 353.1615 361.21958 369.27766 377.33573">ID_PER</tspan></text>
<text fill="#434f54" xml:space="preserve" transform="matrix(.75 0 0 .75 77.25 495.9668)" font-size="14.666667" font-family="Consolas"><tspan y="13.399089" x="385.3938 393.45188">,_</tspan></text>
<text fill="#00979d" xml:space="preserve" transform="matrix(.75 0 0 .75 77.25 495.9668)" font-size="14.666667" font-family="Consolas"><tspan y="13.399089" x="401.50996 409.56803 417.6261 425.68418 433.74226 441.80033 449.8584 457.91648 465.97456 474.03263 482.0907">ID_DATE_PER</tspan></text>
<text fill="#434f54" xml:space="preserve" transform="matrix(.75 0 0 .75 77.25 495.9668)" font-size="14.666667" font-family="Consolas"><tspan y="13.399089" x="490.14878 498.20686">),</tspan></text>
<text fill="#434f54" xml:space="preserve" transform="matrix(.75 0 0 .75 77.25 510.7793)" font-size="14.666667" font-family="Consolas"><tspan y="13.399089" x="200.05808 208.11615 216.17423 224.2323 232.29038 240.34845">alias(</tspan></text>
<text fill="#00979d" xml:space="preserve" transform="matrix(.75 0 0 .75 77.25 510.7793)" font-size="14.666667" font-family="Consolas"><tspan y="13.399089" x="248.40653 256.4646 264.52268 272.58076 280.63883 288.6969">ID_PER</tspan></text>
<text fill="#434f54" xml:space="preserve" transform="matrix(.75 0 0 .75 77.25 510.7793)" font-size="14.666667" font-family="Consolas"><tspan y="13.399089" x="296.75498">,</tspan></text>
<text fill="#00979d" xml:space="preserve" transform="matrix(.75 0 0 .75 77.25 510.7793)" font-size="14.666667" font-family="Consolas"><tspan y="13.399089" x="304.81306 312.87113 320.9292 328.98728 337.04536 345.10343 353.1615 361.21958">ID_ALIAS</tspan></text>
<text fill="#434f54" xml:space="preserve" transform="matrix(.75 0 0 .75 77.25 510.7793)" font-size="14.666667" font-family="Consolas"><tspan y="13.399089" x="369.27766 377.33573">),</tspan></text>
<text fill="#434f54" xml:space="preserve" transform="matrix(.75 0 0 .75 77.25 525.5918)" font-size="14.666667" font-family="Consolas"><tspan y="13.399089" x="200.05808 208.11615 216.17423 224.2323 232.29038 240.34845 248.40653">person(</tspan></text>
<text fill="#00979d" xml:space="preserve" transform="matrix(.75 0 0 .75 77.25 525.5918)" font-size="14.666667" font-family="Consolas"><tspan y="13.399089" x="256.4646 264.52268 272.58076 280.63883 288.6969 296.75498 304.81306 312.87113">ID_ALIAS</tspan></text>
<text fill="#434f54" xml:space="preserve" transform="matrix(.75 0 0 .75 77.25 525.5918)" font-size="14.666667" font-family="Consolas"><tspan y="13.399089" x="320.9292 328.98728">),</tspan></text>
<text fill="#434f54" xml:space="preserve" transform="matrix(.75 0 0 .75 77.25 540.40237)" font-size="14.666667" font-family="Consolas"><tspan y="13.399089" x="200.05808 208.11615 216.17423 224.2323 232.29038 240.34845 248.40653 256.4646 264.52268 272.58076 280.63883 288.6969 296.75498 304.81306">date_of_birth(</tspan></text>
<text fill="#00979d" xml:space="preserve" transform="matrix(.75 0 0 .75 77.25 540.40237)" font-size="14.666667" font-family="Consolas"><tspan y="13.399089" x="312.87113 320.9292 328.98728 337.04536 345.10343 353.1615 361.21958 369.27766">ID_ALIAS</tspan></text>
<text fill="#434f54" xml:space="preserve" transform="matrix(.75 0 0 .75 77.25 540.40237)" font-size="14.666667" font-family="Consolas"><tspan y="13.399089" x="377.33573">,</tspan></text>
<text fill="#00979d" xml:space="preserve" transform="matrix(.75 0 0 .75 77.25 540.40237)" font-size="14.666667" font-family="Consolas"><tspan y="13.399089" x="385.3938 393.45188 401.50996 409.56803 417.6261 425.68418 433.74226">ID_DATE</tspan></text>
<text fill="#434f54" xml:space="preserve" transform="matrix(.75 0 0 .75 77.25 540.40237)" font-size="14.666667" font-family="Consolas"><tspan y="13.399089" x="441.80033 449.8584">),</tspan></text>
<text fill="#434f54" xml:space="preserve" transform="matrix(.75 0 0 .75 77.25 555.21487)" font-size="14.666667" font-family="Consolas"><tspan y="13.399089" x="200.05808 208.11615 216.17423 224.2323 232.29038">name(</tspan></text>
<text fill="#00979d" xml:space="preserve" transform="matrix(.75 0 0 .75 77.25 555.21487)" font-size="14.666667" font-family="Consolas"><tspan y="13.399089" x="240.34845 248.40653 256.4646 264.52268 272.58076 280.63883 288.6969">ID_DATE</tspan></text>
<text fill="#434f54" xml:space="preserve" transform="matrix(.75 0 0 .75 77.25 555.21487)" font-size="14.666667" font-family="Consolas"><tspan y="13.399089" x="296.75498">,</tspan></text>
<text fill="#00979d" xml:space="preserve" transform="matrix(.75 0 0 .75 77.25 555.21487)" font-size="14.666667" font-family="Consolas"><tspan y="13.399089" x="304.81306 312.87113 320.9292 328.98728">DATE</tspan></text>
<text fill="#434f54" xml:space="preserve" transform="matrix(.75 0 0 .75 77.25 555.21487)" font-size="14.666667" font-family="Consolas"><tspan y="13.399089" x="337.04536 345.10343">),</tspan></text>
<text fill="#434f54" xml:space="preserve" transform="matrix(.75 0 0 .75 77.25 570.02737)" font-size="14.666667" font-family="Consolas"><tspan y="13.399089" x="200.05808 208.11615 216.17423 224.2323 232.29038 240.34845 248.40653 256.4646 264.52268">my_print(</tspan></text>
<text fill="#005c5f" xml:space="preserve" transform="matrix(.75 0 0 .75 77.25 570.02737)" font-size="14.666667" font-family="Consolas"><tspan y="13.399089" x="272.58076 280.63883">''</tspan></text>
<text fill="#434f54" xml:space="preserve" transform="matrix(.75 0 0 .75 77.25 570.02737)" font-size="14.666667" font-family="Consolas"><tspan y="13.399089" x="288.6969">,</tspan></text>
<text fill="#005c5f" xml:space="preserve" transform="matrix(.75 0 0 .75 77.25 570.02737)" font-size="14.666667" font-family="Consolas"><tspan y="13.399089" x="296.75498 304.81306 312.87113 320.9292 328.98728 337.04536 345.10343 353.1615 361.21958 369.27766 377.33573 385.3938 393.45188 401.50996 409.56803">' was born on '</tspan></text>
<text fill="#434f54" xml:space="preserve" transform="matrix(.75 0 0 .75 77.25 570.02737)" font-size="14.666667" font-family="Consolas"><tspan y="13.399089" x="417.6261">,</tspan></text>
<text fill="#00979d" xml:space="preserve" transform="matrix(.75 0 0 .75 77.25 570.02737)" font-size="14.666667" font-family="Consolas"><tspan y="13.399089" x="425.68418 433.74226 441.80033 449.8584">DATE</tspan></text>
<text fill="#434f54" xml:space="preserve" transform="matrix(.75 0 0 .75 77.25 570.02737)" font-size="14.666667" font-family="Consolas"><tspan y="13.399089" x="457.91648 465.97456 474.03263 482.0907 490.14878 498.20686 506.26493 514.323 522.3811 530.4392">),nl,fail.</tspan></text>
<text fill="#434f54" xml:space="preserve" transform="matrix(.75 0 0 .75 77.25 599.65237)" font-size="14.666667" font-family="Consolas"><tspan y="13.399089" x="0 8.058075 16.11615 24.174225 32.2323 40.290376 48.34845 56.406526 64.4646 72.522678 80.58075 88.638828 96.6969 104.754978 112.81305 120.871128">print_when_born(</tspan></text>
<text fill="#00979d" xml:space="preserve" transform="matrix(.75 0 0 .75 77.25 599.65237)" font-size="14.666667" font-family="Consolas"><tspan y="13.399089" x="128.9292">_</tspan></text>
<text fill="#434f54" xml:space="preserve" transform="matrix(.75 0 0 .75 77.25 599.65237)" font-size="14.666667" font-family="Consolas"><tspan y="13.399089" x="136.98728 145.04535">).</tspan></text>
</g>
<clipPath id="cp129">
<path d="M 0 0 L 595.5 0 L 595.5 842.25 L 0 842.25 Z " fill-rule="evenodd"/>
</clipPath>
<g clip-path="url(#cp129)">
<text xml:space="preserve" transform="matrix(.75 0 0 .75 72 645.90237)" font-size="14.666667" font-family="Calibri"><tspan y="14.2369799" x="0 7.1420595 14.842316 22.134659 25.44806 31.180314 38.472658 44.548326 52.277208 59.977464 67.67772 70.99112 76.72337 83.936939 88.84621 92.15961 99.88849 104.36122 107.67462 112.78427 120.48453 123.84802 131.14037 136.87262 140.18602 147.88628 153.61853 160.91088 164.22428 169.13355 176.8338 184.12615 187.43955 195.1398 200.0131 207.74199 211.10549 218.83437 225.73311 229.04651 232.41 235.7735 241.34104 246.2503 251.98256 255.29596 260.062 267.7909 271.1043 277.30174 282.21803 289.51039 296.3947 301.14643 308.43876">The second set of rules use the prolog lists to create,</tspan></text>
<text xml:space="preserve" transform="matrix(.75 0 0 .75 72 645.90237)" font-size="14.666667" font-family="Calibri"><tspan y="14.2369799" x="315.409 323.10926 328.2189 331.5824 339.14659 344.05586 347.36927 354.38966 362.0899 369.79017 373.10359 380.80384 388.5041 396.20436 403.08869 407.8404 415.13276 418.44618 421.80967 425.17317 430.7407 435.64997 441.3822 444.69563 452.4245 456.89723 460.21064 467.9109 475.20326 480.06227 485.7945 493.52339 501.22364 504.88056 508.19398 515.92288 520.832 527.45858 534.47897 542.1792 545.5427 551.08877 557.9731 562.8823 566.24588 573.97476 581.675">print and update lists of person, organization,</tspan></text>
<text xml:space="preserve" transform="matrix(.75 0 0 .75 72 661.34378)" font-size="14.666667" font-family="Calibri"><tspan y="14.2369799" x="0 4.9092714 12.609528 19.90187 23.215271 28.124543 31.488038 36.39731 39.760805 47.053148 52.7854 56.0988 63.827684 68.300418 71.613819 78.63422 81.94762 89.64787 96.940219 101.79921 107.53146 115.260349 122.9606 126.61751 129.93091 137.22325 148.93108 156.63134 159.99483 167.64493 174.09984 181.39218 188.68453 194.41678 197.73018 205.45906 209.9318 213.2452 220.2656 227.96585 231.27925 239.00814 243.91725 250.54386 257.56428 265.26454 268.62803 274.174 281.05836 285.96766 289.33116 297.06004 304.76029">the titles of a person, employees of an organization.</tspan></text>
<text xml:space="preserve" transform="matrix(.75 0 0 .75 72 686.78518)" font-size="14.666667" font-family="Calibri" font-weight="bold"><tspan y="14.2369799" x="0 7.864853 15.2430729 20.273865 26.12062 33.999788 41.86464 49.16414 52.763795 56.36345 62.045488 67.12651 71.692279 77.889698 81.79707 88.58121 95.83777">person_list(LIST)</tspan></text>
<text xml:space="preserve" transform="matrix(.75 0 0 .75 72 686.78518)" font-size="14.666667" font-family="Calibri"><tspan y="14.2369799" x="100.403537">,</tspan></text>
<text xml:space="preserve" transform="matrix(.75 0 0 .75 72 686.78518)" font-size="14.666667" font-family="Calibri" font-weight="bold"><tspan y="14.2369799" x="107.37384 115.253009 120.290958 126.989139 134.22423 142.08908 145.68874 151.32782 158.42684 163.50786 167.10752 174.98668 182.85153 190.15103 193.75069 197.35034 203.03238 208.1134 212.67917 218.87659 222.78397 229.5681 236.82466">organization_list(LIST)</tspan></text>
<text xml:space="preserve" transform="matrix(.75 0 0 .75 72 686.78518)" font-size="14.666667" font-family="Calibri"><tspan y="14.2369799" x="244.70383 251.72423 256.6405 263.93287 267.24629 272.15556 282.4964">are two</tspan></text>
<text xml:space="preserve" transform="matrix(.75 0 0 .75 72 686.78518)" font-size="14.666667" font-family="Calibri"><tspan y="14.2369799" x="293.53865 297.7249 304.7453 310.94273 315.852 321.58424 324.89765 335.37458 343.07484 346.43833 352.63575 360.336 363.6494 369.21696 373.98298 381.71186 386.6281 393.92048 397.2339 402.14317 409.8434 417.13575 420.44917 423.81266 427.17616 432.74369 437.65296 440.96638 448.69526 453.16798 456.48139 464.18165 471.474 476.333 482.06526 489.79414 497.4944 503.22663 506.54005 513.5604 521.2607">facts which store the list of persons and</tspan></text>
<text xml:space="preserve" transform="matrix(.75 0 0 .75 72 702.2285)" font-size="14.666667" font-family="Calibri"><tspan y="14.2369799" x="0 7.728882 12.6380009 19.264603 26.285004 33.98526 37.348756 42.89476 49.779085 54.688356 58.05185 65.78073 73.48099 79.21324 82.52664 90.2269 95.14317 102.43552 108.16777 115.46011 123.02429 127.93356 131.24697 134.61046 142.31072 145.62412 150.53339 158.23365 165.52599 168.83939 175.50197 183.20223 190.87381 201.35074 204.71424 212.00658 219.70684 226.48383 233.77617 237.08957 244.78983 251.81023 257.54249 264.83485 268.53468 271.84809 278.99015 286.6904 293.98274 299.71498">organizations present in the knowledge base. These</tspan></text>
<text xml:space="preserve" transform="matrix(.75 0 0 .75 72 702.2285)" font-size="14.666667" font-family="Calibri"><tspan y="14.2369799" x="310.32075 315.23 325.57087 333.29975 336.61317 344.31343 349.22969 356.52204 364.2223 367.5858 373.66145 380.54579 385.2975 392.58985 398.32209 401.6355 408.65589 413.57215 420.8645 424.17793 430.37535 435.29164 442.58399 449.46833 454.22004 461.5124 469.21266 472.52607 480.22633 485.95857 489.32206 497.0223 503.92106 507.23445 512.1437 519.84396 527.1363 530.4497 535.359 545.6998">two predicates are created using the two</tspan></text>
<text xml:space="preserve" transform="matrix(.75 0 0 .75 72 717.6719)" font-size="14.666667" font-family="Calibri"><tspan y="14.2369799" x="0 7.7002565 12.573563 20.302445 26.499863 33.792207 41.492464 49.19272 54.108995 61.401338">procedures</tspan></text>
<text xml:space="preserve" transform="matrix(.75 0 0 .75 72 717.6719)" font-size="14.666667" font-family="Calibri" font-style="italic"><tspan y="14.2369799" x="70.44699 76.54422 81.56799 88.566928 96.102588 100.854297 107.853229 115.152729 118.51622 121.879718 127.418628 132.3279 139.6274 147.16306 154.16199 159.18576 164.88939 172.41074">create_list_person</tspan></text>
<text xml:space="preserve" transform="matrix(.75 0 0 .75 72 717.6719)" font-size="14.666667" font-family="Calibri"><tspan y="14.2369799" x="183.2598 190.2802 197.98046">and</tspan></text>
<text xml:space="preserve" transform="matrix(.75 0 0 .75 72 717.6719)" font-size="14.666667" font-family="Calibri" font-style="italic"><tspan y="14.2369799" x="208.99411 215.09134 220.11511 227.11405 234.6497 239.40142 246.40035 253.69985 257.06336 260.42686 265.96577 270.87504 278.17454 285.69587 290.71965 298.2553 305.79096 313.3266 316.6901 322.2146 329.75025 334.65953 338.023 345.54438">create_list_organization</tspan></text>
<text xml:space="preserve" transform="matrix(.75 0 0 .75 72 717.6719)" font-size="14.666667" font-family="Calibri"><tspan y="14.2369799" x="356.39347 363.4638 369.81153 377.51179 380.87528 388.60417 391.96766 396.87693 400.24043 407.94068">exploiting</tspan></text>
<text xml:space="preserve" transform="matrix(.75 0 0 .75 72 717.6719)" font-size="14.666667" font-family="Calibri" font-style="italic"><tspan y="14.2369799" x="418.15278 422.6255 425.98899 433.52467 441.0603 448.59596 451.95945 455.32295 459.76704 464.51875 471.51768 483.111 490.64668 494.01017 501.54585 506.29756 513.2965 516.9534 524.4891 532.01046 539.5461 542.90957 546.56649 549.92996 553.29348 558.8324 563.7417 568.1858">findall(template,goal,list).</tspan></text>
<text xml:space="preserve" transform="matrix(.75 0 0 .75 72 733.1133)" font-size="14.666667" font-family="Calibri" font-style="italic"><tspan y="14.2369799" x="0 4.4727327 7.8362276 15.371887 22.907547 30.443207 33.8067">findall</tspan></text>
<text xml:space="preserve" transform="matrix(.75 0 0 .75 72 733.1133)" font-size="14.666667" font-family="Calibri"><tspan y="14.2369799" x="37.170198 42.830888 50.2592 53.5726 59.77002 64.686298 71.97864 78.86296 83.61467 90.90701 94.22041 101.240818 104.554218 107.91771 111.281208 116.84874 121.75801 125.07141 132.8003 137.27303 140.58643 145.4957 153.19596 160.4883 163.8017 167.16519 174.86545 180.43299 185.16321 192.18361 199.74779 204.65706 208.02056 214.90488 219.81415 223.17765 230.90653 238.60678 244.33904 247.65244 253.4911 260.78346 272.49128 280.19154 283.55503 290.43934 295.19105">/3 create a list of the instantiations Template</tspan></text>
<text xml:space="preserve" transform="matrix(.75 0 0 .75 72 733.1133)" font-size="14.666667" font-family="Calibri"><tspan y="14.2369799" x="305.7968 312.5738 319.78736 324.69664 330.4289 333.7423 339.47456 347.1748 353.37223 359.56965 366.862 372.59425 378.32649 381.68998 388.16639 395.45875 398.82225 405.45619 408.7696 416.49848 424.19874 427.51216 435.2124 442.2328 448.4302 455.02119 459.93046 464.73933 471.7597 477.95713 484.6197 487.9832 495.68345 502.58219 505.89558 513.56 520.0364 527.32876 532.43838 535.7518 544.9978 552.7267 559.7471 563.11056 566.42398 573.44436 581.1446">gets successively on backtracking over Goal and</tspan></text>
<text xml:space="preserve" transform="matrix(.75 0 0 .75 72 748.5547)" font-size="14.666667" font-family="Calibri"><tspan y="14.2369799" x="0 7.7002565 15.400513 18.764008 23.30835 29.942307 33.255708 38.164979 45.865236 53.157579 56.470979 61.387254 68.679599 74.41185 82.11211 85.4756 90.38487 93.69827 104.1752 107.5387 112.44797 120.148227 123.461627 126.82512 130.18862 135.75615 140.66542 144.36527 147.67867 154.41281 162.11307 168.31049 174.5079 181.80025 189.09259 196.79285 202.5251 205.8385 216.31543 219.67893 224.5882 232.28845 235.60186 242.62226 250.32251 253.63591 260.92826 272.63609 280.27186 285.18113">unify the result with list. Succeeds with an empty</tspan></text>
<text xml:space="preserve" transform="matrix(.75 0 0 .75 72 748.5547)" font-size="14.666667" font-family="Calibri"><tspan y="14.2369799" x="295.12849 298.49198 301.85548 307.423 312.33229 315.6457 319.0092 323.48194 326.79536 336.04139 343.77027 350.79066 354.15415 357.46754 365.1678 372.18818 377.9204 381.23384 388.93409 396.66297 399.97639 405.70863 413.4375 416.801 424.50126 429.41053 432.77403 440.5029 448.20317 453.93544">list if Goal has no solutions.</tspan></text>
</g>
<clipPath id="cp130">
<path d="M 0 0 L 595.5 0 L 595.5 842.25 L 0 842.25 Z " fill-rule="evenodd"/>
</clipPath>
<g clip-path="url(#cp130)">
<path transform="matrix(.75,0,0,.75,72,72)" stroke-width="1.3333334" stroke-linecap="butt" stroke-miterlimit="10" stroke-linejoin="miter" fill="none" stroke="#000000" d="M .6666667 0 L .6666667 153.33333 "/>
<path transform="matrix(.75,0,0,.75,72,72)" stroke-width="1.3333334" stroke-linecap="butt" stroke-miterlimit="10" stroke-linejoin="miter" fill="none" stroke="#000000" d="M 600.6667 0 L 600.6667 153.33333 "/>
<path transform="matrix(.75,0,0,.75,72,72)" stroke-width="1.3333334" stroke-linecap="butt" stroke-miterlimit="10" stroke-linejoin="miter" fill="none" stroke="#000000" d="M 0 .6666667 L 601.3333 .6666667 "/>
<path transform="matrix(.75,0,0,.75,72,72)" stroke-width="1.3333334" stroke-linecap="butt" stroke-miterlimit="10" stroke-linejoin="miter" fill="none" stroke="#000000" d="M 0 152.66667 L 601.3333 152.66667 "/>
<path transform="matrix(.75,0,0,.75,72,356.66017)" stroke-width="1.3333334" stroke-linecap="butt" stroke-miterlimit="10" stroke-linejoin="miter" fill="none" stroke="#000000" d="M .6666667 -.8801432 L .6666667 351.11985 "/>
<path transform="matrix(.75,0,0,.75,72,356.66017)" stroke-width="1.3333334" stroke-linecap="butt" stroke-miterlimit="10" stroke-linejoin="miter" fill="none" stroke="#000000" d="M 600.6667 -.8801432 L 600.6667 351.11985 "/>
<path transform="matrix(.75,0,0,.75,72,356.66017)" stroke-width="1.3333334" stroke-linecap="butt" stroke-miterlimit="10" stroke-linejoin="miter" fill="none" stroke="#000000" d="M 0 -.21347657 L 601.3333 -.21347657 "/>
<path transform="matrix(.75,0,0,.75,72,356.66017)" stroke-width="1.3333334" stroke-linecap="butt" stroke-miterlimit="10" stroke-linejoin="miter" fill="none" stroke="#000000" d="M 0 350.4532 L 601.3333 350.4532 "/>
</g>
</g>
</svg>
