<?xml version="1.0" encoding="UTF-8" standalone="no"?>
<!DOCTYPE svg PUBLIC "-//W3C//DTD SVG 1.1//EN" "http://www.w3.org/Graphics/SVG/1.1/DTD/svg11.dtd">
<svg xmlns="http://www.w3.org/2000/svg" xmlns:xlink="http://www.w3.org/1999/xlink" version="1.1" width="596pt" height="842pt" viewBox="0 0 596 842">
<g enable-background="new">
<clipPath id="cp32">
<path d="M 0 0 L 595.5 0 L 595.5 842.25 L 0 842.25 Z " fill-rule="evenodd"/>
</clipPath>
<g clip-path="url(#cp32)">
<path transform="matrix(.75,0,0,.75,0,0)" d="M 0 0 L 794 0 L 794 1123 L 0 1123 Z " fill="#ffffff"/>
</g>
<clipPath id="cp33">
<path d="M 0 0 L 595.5 0 L 595.5 842.25 L 0 842.25 Z " fill-rule="evenodd"/>
</clipPath>
<g clip-path="url(#cp33)">
<text xml:space="preserve" transform="matrix(.75 0 0 .75 72 72)" font-size="14.666667" font-family="Calibri"><tspan y="14.2369799" x="0 4.9092714 12.609528 19.90187 23.215271 30.915528 38.20787 41.571367 48.470109 56.170366 63.87062 71.5995 76.70915 80.07265 87.7729 94.671649 97.98505 105.6853 112.569629 117.29985 124.32025 127.63365 134.65406 139.52736 147.25624 154.9565 162.65676 170.35701 173.67041 178.57968 186.27994 194.00882 199.74108 207.03342 210.34682 213.71031 221.41057 224.77407 229.68334 233.04683 240.06723 243.43073 246.74413 252.31166 257.04188 264.0623 269.17195 274.0812 277.4447 285.14497 292.0437 295.35713 303.05738 310.78627 314.14976 321.71394 326.62324">the neighboring data around those initial starting points</tspan></text>
<text xml:space="preserve" transform="matrix(.75 0 0 .75 72 72)" font-size="14.666667" font-family="ArialMT"><tspan y="14.2369799" x="332.35548">&#x2009;</tspan></text>
<text xml:space="preserve" transform="matrix(.75 0 0 .75 72 72)" font-size="14.666667" font-family="Calibri"><tspan y="14.2369799" x="335.28959">&#x2014;</tspan></text>
<text xml:space="preserve" transform="matrix(.75 0 0 .75 72 72)" font-size="14.666667" font-family="ArialMT"><tspan y="14.2369799" x="348.5575">&#x2009;</tspan></text>
<text xml:space="preserve" transform="matrix(.75 0 0 .75 72 72)" font-size="14.666667" font-family="Calibri"><tspan y="14.2369799" x="351.4916 357.56727 365.29615 368.65968 372.02314 379.3155 385.5129 390.42219 393.78569 401.48594 408.38468 411.69807 418.71849 426.41874 434.119 437.43238 444.4528 451.4876 458.38636 463.3026 470.59498 477.22157 484.1059 489.01515 492.37867 500.07893 506.97767 510.29106 513.65457 521.26889 525.4336 533.1625 538.27218 549.98 556.8643 561.77359 565.1371 572.86599">collecting and aggregating information</tspan></text>
<text xml:space="preserve" transform="matrix(.75 0 0 .75 72 87.44141)" font-size="14.666667" font-family="Calibri"><tspan y="14.2369799" x="0 4.4727327 9.346039 17.07492 28.782746 32.096147 43.80397 47.167467 50.53096 53.894456 57.25795 64.98683 72.68709 78.41934 81.73274 89.461627 93.93436 97.24776 104.94801 112.676898 120.37715 127.669498 133.40175 136.71515 143.73555 151.4358 159.13607 162.44947 167.36574 174.65808 178.02158 184.9059 189.81517 193.17867 200.90755 208.6078 214.34006 222.04032 225.40381 233.03244">from millions of nodes and relationships</tspan></text>
<text xml:space="preserve" transform="matrix(.75 0 0 .75 72 87.44141)" font-size="14.666667" font-family="ArialMT"><tspan y="14.2369799" x="238.7647">&#x2009;</tspan></text>
<text xml:space="preserve" transform="matrix(.75 0 0 .75 72 87.44141)" font-size="14.666667" font-family="Calibri"><tspan y="14.2369799" x="241.6988">&#x2014;</tspan></text>
<text xml:space="preserve" transform="matrix(.75 0 0 .75 72 87.44141)" font-size="14.666667" font-family="ArialMT"><tspan y="14.2369799" x="254.96672">&#x2009;</tspan></text>
<text xml:space="preserve" transform="matrix(.75 0 0 .75 72 87.44141)" font-size="14.666667" font-family="Calibri"><tspan y="14.2369799" x="257.90083 264.9212 272.62147 280.32173 283.63514 286.99864 294.29096 301.06788 307.6875 311.05104 318.75129">and leaving</tspan></text>
<text xml:space="preserve" transform="matrix(.75 0 0 .75 72 87.44141)" font-size="14.666667" font-family="Calibri"><tspan y="14.2369799" x="328.96345 335.98384 343.41194 350.0459 353.3593 361.05958 367.9439 372.67414 379.69453 383.00794 390.73683 398.43708 403.34635 409.0786 412.4421 420.14237 427.4347 430.7481 435.65739 443.35765 450.64997 453.96339 459.69563 466.98799 474.00837 478.90315 485.10057 492.8008 496.1142 503.81446 511.1068 516.21646 519.57998 531.2878 538.50137 543.25308 550.5454">any data outside the search perimeter</tspan></text>
<text xml:space="preserve" transform="matrix(.75 0 0 .75 72 102.88379)" font-size="14.666667" font-family="Calibri"><tspan y="14.2369799" x="0 7.7002565 15.264435 20.030472 27.759354 35.45961 41.65703 49.357286 56.649629 64.349887">untouched.</tspan></text>
<text xml:space="preserve" transform="matrix(.75 0 0 .75 72 128.3252)" font-size="14.666667" font-family="Calibri"><tspan y="14.2369799" x="0 9.460724 16.753067 24.481949 31.910264 35.416887 38.730287 43.174394 52.635118 59.84868 64.75795 75.0988 82.82768 87.93733 94.599918 97.913318 105.06969 111.41739 119.117649 122.48114 130.21002 135.01888 141.9032 146.81247 150.17597 157.90485 165.6051 168.9185 175.9389 183.63916 191.33942 194.65282 204.35686 211.99265 216.90192 220.26541 231.97324 235.33673 240.88274 247.76706 252.67633 256.03984 263.7687 271.46897 274.78236 282.21067 285.52406 290.19715 296.97407 303.37886 310.39924">Neo4j (Network Exploration and Optimization 4 Java)</tspan></text>
<text xml:space="preserve" transform="matrix(.75 0 0 .75 72 128.3252)" font-size="14.666667" font-family="Calibri"><tspan y="14.2369799" x="318.1568 321.5203 327.25257 330.56599 337.58638 340.89979 347.79853 352.60737 359.62776 367.328 375.02827 378.34169 386.04194 392.92628 397.6565 404.67689 412.37715 419.39753 425.12977 432.42213 435.73554 447.44337 454.46376 462.164 469.1844 475.96138 483.25373 494.96156 502.2539 509.81809 514.72738 518.0408 523.50808 530.0059 535.5735 540.3252 547.61758">is a graph database management system</tspan></text>
<text xml:space="preserve" transform="matrix(.75 0 0 .75 72 143.76758)" font-size="14.666667" font-family="Calibri"><tspan y="14.2369799" x="0 7.7002565 14.920975 21.397385 28.689728 32.053224 39.782106 47.48236 54.774705 62.47496 65.78836 73.41699 80.05095 83.36435 92.82507 100.11742 107.8463 115.27461 118.781238 122.43814 125.75154 129.44423 137.14449 143.3419 147.04175 150.35515 159.37218 166.66452 172.39678 178.5942 183.70384 187.06734 194.7676 202.05994 209.7602 213.0736 220.70223 227.33618 230.64958 234.01308 238.92235 244.6546 247.968 255.66826 262.88899 269.36543 276.65776 280.02125 287.75013 295.45039 302.74275 307.60176">developed by Neo4j, Inc. Described by its developers</tspan></text>
<text xml:space="preserve" transform="matrix(.75 0 0 .75 72 143.76758)" font-size="14.666667" font-family="Calibri"><tspan y="14.2369799" x="316.64735 323.66773 329.39997 332.71339 339.73377 347.43403 350.74745 359.1203 366.93507 370.62776 379.64479 384.13185 390.20753 397.9364 409.64424 417.34449 420.70799 424.07148 431.09187 438.65605 443.5653 446.87873 451.788 456.59687 463.61726 471.3175 477.04975 484.07014 490.26756 495.17683 498.5403 506.2692 513.9695 520.98989 524.3534 527.6668 535.36709 542.2514 546.9816 554.002 561.7023 568.72268 574.45498">as an ACID-compliant transactional database</tspan></text>
<text xml:space="preserve" transform="matrix(.75 0 0 .75 72 159.20899)" font-size="14.666667" font-family="Calibri"><tspan y="14.2369799" x="0 10.476929 13.840424 18.749695 26.449952 29.763352 37.463609 44.34793 49.257204 52.620698 59.097108 66.38945 69.70285 76.60159 81.410449 88.43085 96.1311 103.83136 107.14476 112.712299 117.47833 125.207218 130.01607 137.03647 143.81346 151.1058 154.4192 161.4396 169.13986 176.84012 180.15352 187.85378 192.72708 200.45597 206.65338 213.94573 219.67798 225.41024 228.77373 236.47399 243.53743 247.19434 250.50774 259.96846 267.2608 274.9897 282.418 285.92463 289.23805 292.60154">with native graph storage and processing, Neo4j is</tspan></text>
<text xml:space="preserve" transform="matrix(.75 0 0 .75 72 159.20899)" font-size="14.666667" font-family="Calibri"><tspan y="14.2369799" x="301.64717 308.42408 314.82887 321.84925 325.21275 328.57624 335.59663 343.29689 346.66038 353.9527 357.2661 360.6296 368.32987 371.64326 378.66365 381.97706 391.22309 398.79454 404.95619 412.3845 416.87153 420.23503 423.5985 429.79594 437.08827 444.7885 450.52076 457.8131 465.51338 468.82679 476.55567 484.25593 491.54829 499.24855 503.7356 509.46784 517.1967 524.897 529.79177 535.98916">available in a GPL3-licensed open-source</tspan></text>
<text xml:space="preserve" transform="matrix(.75 0 0 .75 72 174.65137)" font-size="14.666667" font-family="Calibri"><tspan y="14.2369799" x="0 5.8753817 11.95105 19.679932 31.387757 43.09558 50.795839 58.496095 61.85959 66.76886 73.40282 76.71622 84.00856 91.70882 95.07231 99.98158 103.34508 111.07396 118.774219 124.6496 128.3065 131.6199 142.09683 145.46033 150.3696 158.06986 161.38326 169.11214 176.8124 180.17589 183.53939 191.23964 198.53199 201.84539 209.54564 216.56604 222.76346 229.23984 236.9401 244.64035 247.95375 254.97415 262.6744 270.37467 273.68806 281.3883 284.7518 291.65055 299.3508 302.66419 309.4411 315.8459 322.86628 326.22978 329.59327 336.61366 344.3139 347.6774 351.0409 354.4044 359.31367">"community edition", with online backup and high availability</tspan></text>
<text xml:space="preserve" transform="matrix(.75 0 0 .75 72 174.65137)" font-size="14.666667" font-family="Calibri"><tspan y="14.2369799" x="369.26106 376.33137 382.72206 387.47377 394.7661 402.46638 408.1986 411.5621 419.291 426.99125 432.7235 436.03694 439.40043 442.76393 448.96134 456.25367 463.95393 469.68617 476.97853 484.67878 487.9922 495.69245 503.3927 511.09297 518.3853 523.495 526.8084">extensions licensed under a</tspan></text>
<text xml:space="preserve" transform="matrix(.75 0 0 .75 72 190.09375)" font-size="14.666667" font-family="Calibri"><tspan y="14.2369799" x="0 6.197418 9.560913 17.289795 23.022049 30.314393 38.01465 42.501695 48.233949 55.96283 63.663087 68.55788 74.755298 82.04764 85.36104 91.43671 99.16559 110.87341 122.58124 129.87358 134.76837 140.96579 144.32929 151.34969 154.71318 158.02658 161.39008 164.75357 170.95099 178.24333 185.94359 191.67584 198.96819 202.66803 205.98143 215.44216 222.7345 230.46338 233.77678 240.79718 244.16068 249.89293 257.62184 260.93525 264.29875 267.66224 273.85966 281.15199 288.85224 294.58448 301.87684">closed-source commercial license. Neo also licenses</tspan></text>
<text xml:space="preserve" transform="matrix(.75 0 0 .75 72 190.09375)" font-size="14.666667" font-family="Calibri"><tspan y="14.2369799" x="310.9225 320.3832 327.67555 335.40443 342.83274 346.33937 349.65278 360.1297 363.4932 368.40248 376.10273 379.41615 384.3254 392.02568 399.318 405.05024 412.3426 415.656 422.72633 429.117 433.8687 441.16108 448.86134 454.59358 457.95707 465.68595 473.3862 479.11848 482.4319 490.13215 497.8324 505.53266 512.825">Neo4j with these extensions under</tspan></text>
<text xml:space="preserve" transform="matrix(.75 0 0 .75 72 205.53516)" font-size="14.666667" font-family="Calibri"><tspan y="14.2369799" x="0 6.197418 9.560913 17.289795 23.022049 30.314393 38.01465 42.501695 48.233949 55.96283 63.663087 68.55788 74.755298 82.04764 85.36104 91.43671 99.16559 110.87341 122.58124 129.87358 134.76837 140.96579 144.32929 151.34969 154.71318 158.02658 162.77829 170.07064 175.18029 186.8881 192.62036">closed-source commercial terms.</tspan></text>
<text xml:space="preserve" transform="matrix(.75 0 0 .75 72 230.97754)" font-size="14.666667" font-family="Calibri"><tspan y="14.2369799" x="0 9.460724 16.753067 24.481949 31.910264 35.416887 38.730287 42.09378 47.826036 51.139436 54.50293 66.210758 73.91101 77.274509 84.56685 96.27467 103.56702 111.131198 115.882907 123.17525 130.8755 134.1889 137.5524 145.25266 148.56606 153.23917 160.01607 166.42086 173.44126 176.75466 183.77506 191.47531 199.17557 202.48897 209.50937 215.70679 221.9042 229.19655 234.9288 240.66106 244.02455 251.72481 255.0883 262.38066 265.69404 270.16676 275.04005 282.76893 294.47676 297.79017 303.5224 311.25129 315.724 320.63328 330.9455 337.96589 342.88215">Neo4j is implemented in Java and accessible from software</tspan></text>
<text xml:space="preserve" transform="matrix(.75 0 0 .75 72 230.97754)" font-size="14.666667" font-family="Calibri"><tspan y="14.2369799" x="353.48799 363.9649 369.07456 372.43806 377.13966 381.89137 389.18373 396.88398 400.1974 403.56089 411.26115 414.57453 422.3034 427.21269 434.91294 442.20527 447.3149 450.6283 453.9918 461.0122 468.71247 475.6112 483.31147 490.33186 497.10884 504.40119 510.13343 513.44686 521.1471 526.87936 530.2428 537.94308 544.8418 548.1552 553.06448 560.7647">written in other languages using the</tspan></text>
<text xml:space="preserve" transform="matrix(.75 0 0 .75 72 246.41895)" font-size="14.666667" font-family="Calibri"><tspan y="14.2369799" x="0 7.8147585 14.448715 22.148972 29.849228 37.14157 42.25122 45.56462 53.264879 60.965135 68.25748 73.438739 80.07269 83.38609 86.74959 93.76999 101.470249 108.36899 116.069248 123.089649 129.86664 137.15898 140.47238 145.38166 153.08191 157.95522 165.6841 173.38436 180.2831 187.98336 191.29676 198.31716 201.63056 206.53983 211.34868 218.36908 226.06934 231.80159 238.82199 245.01941 249.92868 253.29218 261.02107 268.7213 275.7417 279.1052 282.41859 291.5501 298.8927 306.03474">Cypher query language through a transactional HTTP</tspan></text>
<text xml:space="preserve" transform="matrix(.75 0 0 .75 72 246.41895)" font-size="14.666667" font-family="Calibri"><tspan y="14.2369799" x="316.91963 324.21199 331.91224 339.6125 347.31275 355.04164 358.40513 365.9693 370.87858 374.53547 377.84889 385.57777 390.6874 394.0008 398.91007 406.61033 411.48365 419.21253 426.91279 433.81153 441.51179 444.8252 449.73448 457.43473 464.72706 468.04048 475.74073 479.10423 486.80448 493.8249 499.00617 505.64015 508.95356 514.8289 522.5292 530.25808 533.6216 538.5309 544.40628 547.71969 555.4199 560.2932 568.0221 572.78817 580.517 586.5927 594.3216 597.68508">endpoint, or through the binary "bolt" protocol.</tspan></text>
</g>
</g>
</svg>
