<?xml version="1.0" encoding="UTF-8" standalone="no"?>
<!DOCTYPE svg PUBLIC "-//W3C//DTD SVG 1.1//EN" "http://www.w3.org/Graphics/SVG/1.1/DTD/svg11.dtd">
<svg xmlns="http://www.w3.org/2000/svg" xmlns:xlink="http://www.w3.org/1999/xlink" version="1.1" width="596pt" height="842pt" viewBox="0 0 596 842">
<g enable-background="new">
<clipPath id="cp10">
<path d="M 0 0 L 595.5 0 L 595.5 842.25 L 0 842.25 Z " fill-rule="evenodd"/>
</clipPath>
<g clip-path="url(#cp10)">
<path transform="matrix(.75,0,0,.75,0,0)" d="M 0 0 L 794 0 L 794 1123 L 0 1123 Z " fill="#ffffff"/>
</g>
<clipPath id="cp11">
<path d="M 0 0 L 595.5 0 L 595.5 842.25 L 0 842.25 Z " fill-rule="evenodd"/>
</clipPath>
<g clip-path="url(#cp11)">
<text xml:space="preserve" transform="matrix(.75 0 0 .75 72 72)" font-size="26.666666" font-family="Calibri"><tspan y="25.885416" x="-9 8.206818 20.72786 29.656662 43.661607 52.40796 65.17641 71.29381 77.3201 88.52666 101.295108 115.30005 127.84723 141.85218 154.62062 166.94644 180.20949 186.23578 200.00644 208.86998 222.92699 234.19863 247.46167 257.88728 268.31288 274.43028 288.4352 300.9824 308.11503 314.1413 327.131 341.13597 354.399 368.456 377.87947">Natural Language Processing: Theory</tspan></text>
<text xml:space="preserve" transform="matrix(.75 0 0 .75 72 106.07617)" font-size="14.666667" font-family="Calibri"><tspan y="14.2369799" x="0 9.460724 16.345047 21.254319 28.954575 33.763429 40.78383 44.147325 47.460725 50.82422 57.84462 65.544879 72.44362 80.143878 87.164279 93.94127 101.23361 104.54701 112.24727 117.120578 124.84946 131.04688 138.33922 144.07147 149.80373 153.16722 160.86748 167.76622 171.07962 175.52373 184.98445 191.14609 198.71753 203.16164 206.47504 209.83853 215.57079 218.88419 225.90459 229.21799 234.95024 242.6505 250.229 254.70174 258.06526 265.3576 268.7211 276.42137 279.73475 287.46363">Natural language processing (NLP) is a subfield of</tspan></text>
<text xml:space="preserve" transform="matrix(.75 0 0 .75 72 106.07617)" font-size="14.666667" font-family="Calibri"><tspan y="14.2369799" x="295.24977 298.61326 301.97676 309.677 316.57575 324.276 327.6395 333.20704 338.1163 341.4798 347.67723 353.4095 357.0664 360.37983 366.4555 374.1844 385.8922 393.59248 401.29273 406.04444 413.3368 418.44645 421.75984 427.49208 433.68949 437.05299 444.34535 452.0456 458.243 465.53535 469.19227 472.50569 479.52607 487.22633 494.92658 498.24 505.26039 510.37004 515.2793 518.6428 523.11557 526.479 532.6764 536.0399 543.0603">linguistics, computer science, and artificial</tspan></text>
<text xml:space="preserve" transform="matrix(.75 0 0 .75 72 121.51807)" font-size="14.666667" font-family="Calibri"><tspan y="14.2369799" x="0 3.3634949 10.927673 15.679382 22.971726 26.33522 29.698716 33.06221 39.839204 47.131547 54.831804 61.02922 68.32156 71.634967 77.71063 85.439517 93.13977 99.33719 106.62953 111.73918 119.43944 126.73178 134.43204 137.74544 148.22237 151.58586 156.49514 164.19539 167.50879 172.41806 180.11832 187.41066 190.72406 194.08756 201.65174 206.40345 213.69579 218.50464 225.52504 231.72246 236.63173 239.99523 247.7241 255.42436 261.15663 264.47004 272.1703 279.38386 284.2931 294.6411 301.93348 309.22584">intelligence concerned with the interactions between</tspan></text>
<text xml:space="preserve" transform="matrix(.75 0 0 .75 72 121.51807)" font-size="14.666667" font-family="Calibri"><tspan y="14.2369799" x="320.23945 326.31513 334.044 345.75184 353.4521 361.15235 365.90406 373.1964 378.05543 383.78767 387.10108 394.12147 401.82173 409.52198 412.8354 420.53565 428.2359 439.94374 446.9641 454.66438 457.97779 461.34129 468.3617 476.06196 482.9607 490.66096 497.68135 504.4583 511.75068 515.4076 518.721 522.0845 529.7847 533.09817 540.7984 547.8188 552.92849 557.83779 561.2013 567.3987 575.09896 578.46249 585.48287">computers and human language, in particular</tspan></text>
<text xml:space="preserve" transform="matrix(.75 0 0 .75 72 136.95996)" font-size="14.666667" font-family="Calibri"><tspan y="14.2369799" x="0 7.7002565 15.371841 25.84877 29.16217 33.928209 41.65709 44.97049 52.670747 57.544054 65.272937 72.17168 76.98053 84.00093 95.708759 99.022159 105.097827 112.826709 124.53453 132.23479 139.93505 144.68675 151.9791 156.83809 162.57035 165.88375 170.64978 178.37866 181.69207 189.39232 194.26563 201.9945 208.19193 215.48427 221.21652 226.94878 230.26218 237.28258 244.98284 252.68309 255.99649 263.0169 270.71717 277.73756 281.10105 287.61329 293.0733 300.36567 303.67909 307.04258 314.063 318.9721 325.74916">how to program computers to process and analyze large</tspan></text>
<text xml:space="preserve" transform="matrix(.75 0 0 .75 72 136.95996)" font-size="14.666667" font-family="Calibri"><tspan y="14.2369799" x="336.3548 343.37519 355.083 362.8119 370.51216 378.07633 382.9856 388.71784 392.03126 399.76014 404.23286 407.54627 415.24653 422.13087 427.04014 434.7404 439.54927 446.56965 449.93315 453.24653 456.61003 463.63044 471.3307 478.22944 485.9297 492.95008 499.72706 507.0194 510.33283 518.0331 524.9174 529.64767 536.668 540.36788 543.6813 550.82339 558.5236">amounts of natural language data. The</tspan></text>
<text xml:space="preserve" transform="matrix(.75 0 0 .75 72 152.40186)" font-size="14.666667" font-family="Calibri"><tspan y="14.2369799" x="0 4.916275 12.208618 17.940873 25.641129 29.004624 33.913896 37.227296 40.59079 46.323045 49.636445 56.656847 59.970247 66.04591 73.774799 85.48262 93.18288 100.88313 105.63484 112.927188 118.036838 121.350238 127.4259 134.4463 142.14656 149.16696 156.86722 160.23072 167.52306 170.83646 178.56534 183.03807 186.35147 192.22686 199.92711 207.62737 215.32762 222.61997 227.47896 233.0465 237.77672 244.79712 252.49738 260.19764 263.56114 271.26139 278.16014 284.03553 287.34895 292.2582 299.95848">result is a computer capable of "understanding" the</tspan></text>
<text xml:space="preserve" transform="matrix(.75 0 0 .75 72 152.40186)" font-size="14.666667" font-family="Calibri"><tspan y="14.2369799" x="310.56419 316.63984 324.3687 331.9329 336.6846 343.97694 351.5411 356.45039 362.18263 365.49604 373.2249 377.69764 381.01106 388.7113 396.4402 402.6376 410.33787 422.0457 429.338 436.9022 441.81147 447.5437 451.20063 454.51405 457.87754 465.5778 471.7752 475.1387 482.83897 490.5392 493.9027 501.60298 508.5017 511.81513 516.72439 524.4246 531.717 535.0304 541.1061 548.83499 556.3992 561.1509 568.2212 574.6119 579.5211 587.2214 594.2418">contents of documents, including the contextual</tspan></text>
<text xml:space="preserve" transform="matrix(.75 0 0 .75 72 167.84375)" font-size="14.666667" font-family="Calibri"><tspan y="14.2369799" x="0 7.7002565 15.400513 22.420914 30.12117 36.31859 43.61093 49.343187 52.656587 60.385469 64.8582 68.1716 73.08087 80.78113 88.07347 91.38687 94.75037 101.77077 109.47102 116.36977 124.07002 131.09043 137.86742 145.15976 148.47316 158.95009 162.31359 167.22286 174.92311 178.2866 185.98686 189.30027 194.20954 201.90979 209.20214 220.90996 224.6098 227.9232 235.06526 242.76552 250.05786 253.37126 258.123 265.4153 271.61274 279.313 287.01325 294.74214 298.10563 305.8345 312.73326">nuances of the language within them. The technology</tspan></text>
<text xml:space="preserve" transform="matrix(.75 0 0 .75 72 167.84375)" font-size="14.666667" font-family="Calibri"><tspan y="14.2369799" x="322.6806 328.7563 335.77668 343.47694 346.79035 351.69963 359.39988 366.6922 374.39247 377.70588 384.72627 390.92369 397.1211 404.82136 409.6302 416.51454 421.26625 428.5586 431.9221 438.55604 441.86946 448.93977 455.33045 460.23973 465.04859 472.06898 478.2664 483.17567 486.48908 489.85258 497.46687 501.63166 509.36054 514.4702 526.17807 533.0624 537.9717 541.3352 549.0641 556.76437 560.07778 567.09817 574.7984">can then accurately extract information and</tspan></text>
<text xml:space="preserve" transform="matrix(.75 0 0 .75 72 183.28565)" font-size="14.666667" font-family="Calibri"><tspan y="14.2369799" x="0 3.3634949 11.063751 16.796006 20.1595 27.058243 34.62242 39.531694 45.263948 48.577348 54.653017 62.381898 69.946079 74.6763 81.6967 85.060199 92.76045 100.052799 107.75305 111.06645 114.42995 122.1302 125.4436 130.35288 138.05313 145.34548 148.65888 156.35913 164.08802 170.28543 177.98569 189.69351 196.98586 204.55004 209.4593 215.19156 218.50496 225.52536 231.25762 234.57102 244.91902 252.21137 255.57486 258.93836 262.25178 269.27217 275.0044 278.3178 284.3935 291.27778 296.02949 303.32185 310.1203 317.84919 322.95884 326.32234 331.7824">insights contained in the documents as well as categorize</tspan></text>
<text xml:space="preserve" transform="matrix(.75 0 0 .75 72 183.28565)" font-size="14.666667" font-family="Calibri"><tspan y="14.2369799" x="342.38819 349.40858 357.10884 364.80909 368.1225 375.85139 380.7605 387.3871 394.40748 402.10774 405.47123 410.93128 418.22364 421.53706 426.44633 434.14659 441.4389 444.75233 452.45259 460.18147 466.37889 474.07914 485.78697 493.07929 500.64347 505.55274 511.28498 514.5984 519.5077 527.20797 534.5003 546.2081 551.94039 559.2327 562.5962 569.07266 576.365 582.0972">and organize the documents themselves.</tspan></text>
<text fill="#666666" xml:space="preserve" transform="matrix(.75 0 0 .75 72 208.72754)" font-size="22.666666" font-family="Calibri"><tspan y="32.66927" x="0 14.624786 24.149704 35.85396 40.975954 52.680208 60.21367 72.1613 81.74153 93.01434 101.8755 110.736667 115.9361 127.83948 138.50385 143.62584 155.3301 167.23348 178.0859 186.94707 198.21988">NLP Processing Phases</tspan></text>
<text xml:space="preserve" transform="matrix(.75 0 0 .75 72 246.59229)" font-size="14.666667" font-family="Calibri"><tspan y="14.2369799" x="0 3.692688 11.392944 14.706345 24.167069 30.328705 37.900148 41.213548 45.94377 52.964174 58.696428 65.22293 70.955188 74.268589 81.96884 87.701099 95.40135 102.42175 105.78525 109.14874 114.73712 118.39403 121.70743 132.05544 139.34778 142.66118 148.73685 155.75725 163.4575 166.7709 170.1344 177.83466 185.127 192.69118 197.60045 200.96395 205.50829 212.14225 215.45565 220.36492 228.06517 235.35752 238.67092 242.8357 250.56458 253.92807 257.29158 264.96315 275.44007 278.80357 286.5038">In NLP tasks usually, we can identify the following</tspan></text>
<text xml:space="preserve" transform="matrix(.75 0 0 .75 72 246.59229)" font-size="14.666667" font-family="Calibri"><tspan y="14.2369799" x="296.71598 304.41624 312.1165 319.1369 324.86915 332.1615 337.89375 341.20716 348.93605 354.0457 357.35908 362.0893 369.10969 374.84193 381.3684 387.10066">phases or tasks:</tspan></text>
<text xml:space="preserve" transform="matrix(.75 0 0 .75 72 272.03419)" font-size="14.666667" font-family="Calibri"><tspan y="14.2369799" x="24">-</tspan></text>
<text xml:space="preserve" transform="matrix(.75 0 0 .75 72 272.03419)" font-size="14.666667" font-family="Calibri"><tspan y="14.2369799" x="48 54.161638 61.182039 68.88229 75.78104 83.48129 90.50169 97.27869 104.57103 107.88443 111.247928 118.94818 126.240528 133.8047 138.71398 142.07747 146.5502 149.9137 155.98937 162.87369 167.78296 171.14646 178.87534 186.57559 190.2325 193.5459 198.45517 206.15543 209.51892 215.25118 218.56458 226.26483 233.96509 240.98549 246.71775 254.01009 257.3235 260.68699 266.41926 269.73268 275.80836 283.53724 291.2375 297.4349 304.72724 309.83689 317.53715 324.8295 332.52976 335.84318 346.3201 349.6836 354.59288">Language identification, this phase is concerned with</tspan></text>
<text xml:space="preserve" transform="matrix(.75 0 0 .75 72 272.03419)" font-size="14.666667" font-family="Calibri"><tspan y="14.2369799" x="365.60646 373.3067 380.52027 385.27198 392.56434 397.67399 409.3818 412.7453 420.44557 423.80906 431.5093 438.40806 441.72145 446.6307 454.33097 461.6233 464.9367 468.3002 475.32063 483.02088 489.91963 497.61988 504.64027 511.41725 518.7096 522.023 525.3865 533.08676 536.40017 546.8771 554.57736 557.9408 564.1382 571.83847 575.15188">determining the language in which a</tspan></text>
<text xml:space="preserve" transform="matrix(.75 0 0 .75 72 287.47608)" font-size="14.666667" font-family="Calibri"><tspan y="14.2369799" x="48 52.75171 59.822038 66.21271 71.12198 74.43538 77.798877 83.53113 86.84453 97.32146 102.43111 105.7946 110.496189 115.247898 122.54024 130.2405">text is written.</tspan></text>
<text xml:space="preserve" transform="matrix(.75 0 0 .75 72 312.91798)" font-size="14.666667" font-family="Calibri"><tspan y="14.2369799" x="24">-</tspan></text>
<text xml:space="preserve" transform="matrix(.75 0 0 .75 72 312.91798)" font-size="14.666667" font-family="Calibri"><tspan y="14.2369799" x="48 53.83867 61.56755 67.75746 75.049808 82.75006 86.113559 91.65956 98.543888 103.453159 106.81665 114.54553 122.24579 125.902698 129.2161 134.12537 141.82563 145.18912 150.92137 154.23477 161.93503 169.63529 176.65569 182.38794 189.68029 192.99369 200.69394 206.4262 214.12645 221.14685 224.51035 227.87384 234.5078 237.8212 243.55345 251.25371 254.6172 257.9807 262.88999 268.62226 271.93568 276.84495 284.5452 291.83753 295.15095 300.88319 308.1755 315.73966 320.49137 327.78373 335.48399 341.6814">Tokenization, this phase usually splits the sentence</tspan></text>
<text xml:space="preserve" transform="matrix(.75 0 0 .75 72 312.91798)" font-size="14.666667" font-family="Calibri"><tspan y="14.2369799" x="352.28715 360.01603 364.48878 367.8022 373.9996 381.69987 388.72029 393.5291 400.5495 406.74693 411.49864 418.79096 423.64997 429.3822 432.69563 436.0591 443.6233 448.38935 456.11824 459.43165 471.13948 478.43183 485.4522 493.15248 496.51597 504.21623 511.11497 515.5877 523.28799">of characters into meaningful</tspan></text>
<text xml:space="preserve" transform="matrix(.75 0 0 .75 72 328.35987)" font-size="14.666667" font-family="Calibri"><tspan y="14.2369799" x="48 55.0204 62.055208 68.95395 73.870227 81.16257 87.78917 94.67349 99.58276 102.94626 110.67514 118.3754 124.10765 127.76456 131.07796 138.3703 142.22769 149.12644 152.82628 156.48319 159.79659 170.13744 177.86632 182.77544 190.4757 196.20795 199.86486 203.17826 210.87851 218.57877 226.27902 232.47644 237.38571 245.08597 251.97029 256.87959 260.24308 267.97196 275.6722 279.3291 282.64253 288.1098 294.74378 306.4516 314.15187 321.88075 325.24424 330.9765 334.63343 337.94685 344.35163 351.372 354.7355 362.43577 369.7281">aggregations, e.g., words, punctuation, symbols, values</tspan></text>
<text xml:space="preserve" transform="matrix(.75 0 0 .75 72 328.35987)" font-size="14.666667" font-family="Calibri"><tspan y="14.2369799" x="378.77369 385.79408 393.49433 401.19459 404.508 410.24024 417.96913 421.28254 429.0114 436.71168">and so on.</tspan></text>
<text xml:space="preserve" transform="matrix(.75 0 0 .75 72 353.80177)" font-size="14.666667" font-family="Calibri"><tspan y="14.2369799" x="24">-</tspan></text>
<text xml:space="preserve" transform="matrix(.75 0 0 .75 72 353.80177)" font-size="14.666667" font-family="Calibri"><tspan y="14.2369799" x="48 54.734148 59.500185 67.229068 74.92932 79.41637 89.75722 97.4861 102.39522 110.095478 113.408878 118.32515 125.61749 137.32532 144.98973 151.39452 158.41492 161.77841 165.43532 168.74872 173.65799 181.35825 184.72174 190.454 193.7674 201.46765 209.16791 216.18831 221.92057 229.2129 232.5263 237.44258 244.73493 256.44276 264.10719 270.5836 277.87593 283.60816 286.92158 291.83085 299.5311 306.82344 311.93309 323.6409 329.37318 332.68659 337.59587 345.2961 352.18043">Stop-word removal, this phase removes therms that</tspan></text>
<text xml:space="preserve" transform="matrix(.75 0 0 .75 72 353.80177)" font-size="14.666667" font-family="Calibri"><tspan y="14.2369799" x="360.40309 367.42347 372.33973 379.63209 382.9455 386.309 391.41865 396.3349 403.62727 406.99076 414.2115 420.61628 427.63667 435.20085 440.1101 443.42353 447.58833 455.3172 460.42686 463.74024 471.4405 479.14076 486.841 494.13337 498.99238 504.5599 509.29014 516.31057 524.0108 531.71109 535.0746 542.77487 549.6736 552.987 560.7159">are irrelevant for understanding or</tspan></text>
<text xml:space="preserve" transform="matrix(.75 0 0 .75 72 369.24366)" font-size="14.666667" font-family="Calibri"><tspan y="14.2369799" x="48 55.700258 59.06375 64.63129 69.54056 72.90405 80.60431 87.50305 95.20331 98.5668 104.29906 111.99931 115.36281 123.063068 129.9618 133.2752 140.29561 143.60901 149.34127 157.04152 164.33386 170.53128 173.89478 178.36751 181.731 187.92842 191.24182 195.99353 203.06386 209.45453 214.3638 218.06365 221.37705 233.87883 241.17118 244.48458 254.79679 261.8172 269.38139 274.29066 277.60408 282.37013 290.099 293.4124 301.11268 306.8449 314.54518 321.56556 324.92906 328.29255">distinguishing a specific text. We want to usually</tspan></text>
<text xml:space="preserve" transform="matrix(.75 0 0 .75 72 369.24366)" font-size="14.666667" font-family="Calibri"><tspan y="14.2369799" x="338.23988 343.15614 350.4485 362.1563 369.82075 376.29716 383.58949 386.9029 393.3793 400.67164 405.8529 412.48689 415.8003 421.87599 429.60487 441.31269 453.0205 460.7494 468.44966 471.76307 478.78346 486.4837 494.18397 497.49739 507.9743 511.3378 519.0381 526.33047 532.0627 539.76296 544.6792 551.97158 558.99197">remove very common and widespread</tspan></text>
<text xml:space="preserve" transform="matrix(.75 0 0 .75 72 384.68556)" font-size="14.666667" font-family="Calibri"><tspan y="14.2369799" x="48 52.75171 60.044054 65.1537 76.86153 82.59378 86.25069 89.56409 97.26434 104.284748 110.017 117.30934 125.0096 128.323 136.05188 143.75214 147.06554 153.96428 158.77313 165.79354 177.50136 189.20919 196.22959 201.33924 204.65264 209.09674 216.38909 220.24648 227.14522 230.84506 234.50197 237.81537 244.83577 249.94542 254.85469 258.2182 264.41563 267.7791 275.07148 280.8037 284.11714 287.48063 290.84413 297.03404">terms, based on grammar (e.g., articles like</tspan></text>
<text xml:space="preserve" transform="matrix(.75 0 0 .75 72 384.68556)" font-size="14.666667" font-family="Calibri" font-style="italic"><tspan y="14.2369799" x="307.63975 312.549 320.08467">the</tspan></text>
<text xml:space="preserve" transform="matrix(.75 0 0 .75 72 384.68556)" font-size="14.666667" font-family="Calibri"><tspan y="14.2369799" x="327.08363">)</tspan></text>
<text xml:space="preserve" transform="matrix(.75 0 0 .75 72 384.68556)" font-size="14.666667" font-family="Calibri"><tspan y="14.2369799" x="334.84114 342.57 347.67967 350.99305 358.72193 366.42219 369.7356 374.64488 382.34513 389.63746 392.95088 398.6831 406.38337 413.67573 419.87315 423.23664 427.70936 431.07286 437.27027 440.58369 448.28395 456.01283 467.72065 474.74104 478.10453 485.80479">or on the specific domain.</tspan></text>
<text xml:space="preserve" transform="matrix(.75 0 0 .75 72 410.12745)" font-size="14.666667" font-family="Calibri"><tspan y="14.2369799" x="24">-</tspan></text>
<text xml:space="preserve" transform="matrix(.75 0 0 .75 72 410.12745)" font-size="14.666667" font-family="Calibri"><tspan y="14.2369799" x="48 57.460725 65.189609 70.299259 82.00708 89.02748 92.390979 95.75447 101.300479 108.1848 113.09407 116.457569 124.18645 131.8867 135.2001 145.67704 153.37729 156.74079 162.9382 170.63846 173.95186 180.02753 187.75641 195.45667 201.18892 204.55242 210.11995 215.02922 220.76148 224.07488 231.80376 236.27649 239.58989 244.50617 251.79851 259.49879 267.22767 272.3373 277.24659 280.61009 288.31034 295.20909 298.52247 303.27418 310.56654 315.67619 327.384 333.11628 336.4297 341.19575">Normalization which consists of reporting terms to</tspan></text>
<text xml:space="preserve" transform="matrix(.75 0 0 .75 72 410.12745)" font-size="14.666667" font-family="Calibri"><tspan y="14.2369799" x="352.23799 359.25837 362.57179 368.1393 372.86955 379.88996 387.5902 395.29048 402.31086 407.21998 414.92024 418.23365 422.39845 430.12733 435.23698 446.9448 450.64466 453.95808 461.10014 468.80039 472.16389 477.89613 481.20954 487.28523 494.3056 502.00587 505.31929 513.01956 520.3119 523.6253 531.32559 539.05447 546.7547">a standard form. This can be done</tspan></text>
<text xml:space="preserve" transform="matrix(.75 0 0 .75 72 425.56935)" font-size="14.666667" font-family="Calibri"><tspan y="14.2369799" x="48 52.90927 60.609529 65.482837 73.211719 80.91197 87.810718 95.51097 98.82437 104.39191 109.143619 116.43596 128.14379 139.85161 143.2151 150.91536 157.9788 161.63571 164.94911 175.42604 183.1263 186.48979 192.68721 200.38747 203.70087 211.40113 216.51078 219.87427 227.57453 234.47327 240.20552 243.51892 248.42819 256.12846 263.42079 266.7342 277.07505 284.80393 289.71305 297.4133 300.72669 308.42695 315.44734 321.64476 328.3073 331.62074 336.38679 344.11567 347.42909 352.33836 360.0386">through stemming, which brings the word back to the</tspan></text>
<text xml:space="preserve" transform="matrix(.75 0 0 .75 72 425.56935)" font-size="14.666667" font-family="Calibri"><tspan y="14.2369799" x="370.64436 375.51765 383.24653 390.9754 395.88468 399.54158 402.85499 410.4836 417.11756 420.43098 426.1632 433.86347 438.19297 442.6657 446.0292 452.3769 455.6903 461.25785 466.1671 471.27677 474.64027 482.3405 490.04078 493.40428 501.10453 508.00328 511.92497 515.23837 522.9672">root, by suffix stripping; or</tspan></text>
<text xml:space="preserve" transform="matrix(.75 0 0 .75 72 441.01124)" font-size="14.666667" font-family="Calibri"><tspan y="14.2369799" x="48 51.363496 58.655839 70.36366 82.07149 88.95581 93.86508 97.22858 102.77458 109.658908 114.56818 117.93167 125.66055 133.36081 136.67421 147.15114 154.8514 158.21489 164.41231 172.11257 175.42597 183.12622 188.23587 191.59937 199.29962 206.19837 211.93062 215.24402 220.15329 227.85355 235.14589 238.45929 248.80014 256.52903 261.43815 269.1384 272.45179 280.15205 287.17243 293.36985 300.0324 303.34584 308.11186 315.84074 319.15415 322.51765 327.4269 333.15916 336.47257 344.17283 351.1932 356.92546 360.28895">lemmatization which brings the word back to its basic</tspan></text>
<text xml:space="preserve" transform="matrix(.75 0 0 .75 72 441.01124)" font-size="14.666667" font-family="Calibri"><tspan y="14.2369799" x="369.7998 373.9646 381.69349 386.80314 398.51097 402.16786 405.48127 413.18153 420.88179 425.79106 429.10444 432.46794 437.88566 440.64738 446.37965 449.69306 461.40089 469.12977 474.04603 481.33839 484.6518 490.72749 498.45637 510.16419 517.86447 521.2279 524.59146 530.6671 537.55148 542.30319 549.5955">form, but it&#x2019;s more complicated</tspan></text>
<text xml:space="preserve" transform="matrix(.75 0 0 .75 72 456.45314)" font-size="14.666667" font-family="Calibri"><tspan y="14.2369799" x="48 55.700258 62.9926 69.06827 76.08867 83.788928 89.52118 96.81352 100.12692 103.49042 108.39969 111.71309 119.413349 126.70569 133.99803 141.69829 147.43054 150.74394 157.64269 162.45154 169.47194 181.17977 192.88759 199.77191 204.68119 208.04468 214.12035 221.14075 224.50424 227.81764 234.48023 242.18048 249.85207 260.32899 263.69248 270.9848 278.68507 285.46205 292.7544">because it needs grammatical knowledge.</tspan></text>
<text xml:space="preserve" transform="matrix(.75 0 0 .75 72 481.89503)" font-size="14.666667" font-family="Calibri"><tspan y="14.2369799" x="24">-</tspan></text>
<text xml:space="preserve" transform="matrix(.75 0 0 .75 72 481.89503)" font-size="14.666667" font-family="Calibri"><tspan y="14.2369799" x="48 51.692689 59.392946 67.0932 74.16353 80.51123 83.874729 91.57498 98.473728 101.787128 108.807529 116.50778 124.20804 127.52144 132.43772 139.65128 144.56055 149.6702 153.03369 160.25441 166.6592 173.6796 177.04309 180.7 184.0134 194.49033 202.19058 205.55408 211.7515 219.45175 222.76515 228.84082 236.5697 244.26996 250.00222 253.3657 258.93324 263.8425 269.57478 272.88819 276.25169 283.95195 287.26533 294.9942 299.90333 306.5299 313.55033 321.25059 324.61408 330.40357 333.76707 341.46733">Indexing and retrieval, which consists in organizing</tspan></text>
<text xml:space="preserve" transform="matrix(.75 0 0 .75 72 481.89503)" font-size="14.666667" font-family="Calibri"><tspan y="14.2369799" x="351.67948 356.58876 364.289 371.58137 374.89479 382.59504 390.3239 396.52134 404.2216 415.9294 423.22175 430.78593 435.6952 441.42744 444.74085 450.47309 458.20198 461.51539 468.53578 474.268 477.58143 482.34748 490.07637 493.38978 498.30604 505.5196 510.42887 515.5385 518.902 526.1227 532.5991 539.8915 543.2049 548.11416 555.8144 563.5433 569.2755">the documents so as to retrieve those</tspan></text>
<text xml:space="preserve" transform="matrix(.75 0 0 .75 72 497.3369)" font-size="14.666667" font-family="Calibri"><tspan y="14.2369799" x="48 52.916276 60.20862 63.572114 70.79283 77.19762 84.21802 91.782199 96.69147 100.00487 104.16965 111.89853 117.00818 120.32158 127.34198 130.65538 137.55413 140.91762 147.39403 154.68637 162.38663 165.70003 173.40029 181.10054 188.39289 193.57415 199.24129">relevant for a given query.</tspan></text>
<text xml:space="preserve" transform="matrix(.75 0 0 .75 72 522.7788)" font-size="14.666667" font-family="Calibri"><tspan y="14.2369799" x="24">-</tspan></text>
<text xml:space="preserve" transform="matrix(.75 0 0 .75 72 522.7788)" font-size="14.666667" font-family="Calibri"><tspan y="14.2369799" x="48 55.256334 62.276735 67.38638 71.84447 76.33151 84.060398 88.13924 92.62628 99.36043 107.060688 114.35303 121.64537 127.84279 135.54305 138.85645 143.30055 150.57837 158.30725 165.0414 169.4855 172.7989 177.52913 184.54953 191.58434 198.48308 201.84658 209.54683 216.61028 220.26718 223.58058 229.65625 237.38513 245.08539 250.81764 254.18114 259.74867 264.65794 270.3902 273.7036 277.0671 284.76737 288.08076 292.99003 300.69029 307.9826 311.29603 314.65953 322.35978 329.6521 337.21626 342.12556 345.48905 349.9618 353.3253 359.40095 366.28529 371.19459 374.55809 382.28697">Part-of-Speech (PoS) tagging, consists in the identification</tspan></text>
<text xml:space="preserve" transform="matrix(.75 0 0 .75 72 522.7788)" font-size="14.666667" font-family="Calibri"><tspan y="14.2369799" x="393.3006 401.02949 405.5022 408.8156 413.72489 421.42515 428.71748 432.03089 438.92964 443.73847 450.75886 462.46669 474.1745 481.05885 485.9681 489.3316 495.4073 502.42768 505.79118 509.10456 513.97787 521.7067 525.0702 532.36257 535.67599 543.40487 547.87759 551.191 558.21139 561.5248 571.8656 579.5945 584.5036">of the grammatical role of a word</tspan></text>
<text xml:space="preserve" transform="matrix(.75 0 0 .75 72 538.2207)" font-size="14.666667" font-family="Calibri"><tspan y="14.2369799" x="48 51.363496 59.06375 62.37715 67.28642 74.98668 82.27902 85.59242 91.66809 99.39697 106.96115 111.71286 118.78319 125.17386 130.08313 133.39653 141.12541 145.59815 148.91155 155.93195 159.24535 166.9456 174.64586 179.45471 186.47512 192.20737 199.49971 202.81311 210.54199 215.65164 218.96504 225.98545 229.29885 234.05055 241.12088 247.51155 252.42082">in the context of a phrase or a text.</tspan></text>
<text xml:space="preserve" transform="matrix(.75 0 0 .75 72 563.6626)" font-size="14.666667" font-family="Calibri"><tspan y="14.2369799" x="24">-</tspan></text>
<text xml:space="preserve" transform="matrix(.75 0 0 .75 72 563.6626)" font-size="14.666667" font-family="Calibri"><tspan y="14.2369799" x="48 55.256334 62.276735 67.13573 72.86798 76.231479 83.93173 90.830478 94.143878 100.21954 107.948429 115.64868 121.380939 124.74443 130.31197 135.22124 140.95349 144.26689 147.63039 155.33065 158.64405 166.3443 173.55786 178.30957 185.60192 190.71157 202.41939 205.78289 213.48314 216.84664 224.54689 231.44564 234.75904 239.6683 247.36856 254.6609 257.9743 263.70655 270.9989 278.56309 283.3148 290.60713 298.30738 304.50483 311.79719 315.1106 320.67817 325.5874 330.69706 338.3973 344.59474 349.504 357.20426 362.12055 369.4129">Parsing consists in determining the sentence structure,</tspan></text>
<text xml:space="preserve" transform="matrix(.75 0 0 .75 72 563.6626)" font-size="14.666667" font-family="Calibri"><tspan y="14.2369799" x="376.38313 386.86006 394.5603 397.9238 404.12123 411.82148 415.1349 418.49839 424.23066 427.54408 435.24433 440.97657 448.67683 455.6972 459.0607 462.4242 469.05818 472.37159 477.28785 484.5802 492.28047 497.19673 504.48908 510.2213 517.5137 525.0779 529.8296 537.12197 544.8222 548.1356 558.61257 561.9761 566.8854 574.58566 577.89907">which is usually represented with a</tspan></text>
<text xml:space="preserve" transform="matrix(.75 0 0 .75 72 579.1045)" font-size="14.666667" font-family="Calibri"><tspan y="14.2369799" x="48 55.700258 62.720659 67.57965 73.311908 80.60425 83.91765 90.15019 95.06647 102.35881 109.65115">parse Tree.</tspan></text>
<text xml:space="preserve" transform="matrix(.75 0 0 .75 72 604.5464)" font-size="14.666667" font-family="Calibri"><tspan y="14.2369799" x="24">-</tspan></text>
<text xml:space="preserve" transform="matrix(.75 0 0 .75 72 604.5464)" font-size="14.666667" font-family="Calibri"><tspan y="14.2369799" x="48 53.83867 60.908998 67.29967 72.20894 75.52234 81.59801 88.48233 93.23404 100.52638 107.32486 115.05374 120.16339 123.526889 129.07289 135.95722 140.86649 144.22998 151.95886 159.65912 162.97252 166.33602 172.06827 175.38167 181.45734 189.18622 196.88648 203.0839 210.37624 215.48589 223.18614 230.47849 238.17874 241.49214 244.85564 252.5559 255.8693 263.56956 270.7831 275.53483 282.82716 287.9368 299.64463 303.00813 310.70838 314.07188 321.77214 328.67088 331.98426 336.89353 344.59379">Text categorization is concerned in determining the</tspan></text>
<text xml:space="preserve" transform="matrix(.75 0 0 .75 72 604.5464)" font-size="14.666667" font-family="Calibri"><tspan y="14.2369799" x="355.19956 360.93183 368.63209 376.33235 379.83897 387.1313 393.3287 398.23799 401.5514 409.28028 413.753 417.0664 424.0868 427.4002 432.15193 439.22224 445.6129 450.5222 454.17909 457.4925 460.856 468.55625 471.86964 478.89 482.20344 489.9037 494.81996 502.1123 506.59938 514.2996 521.463 525.9357 529.2992 536.99948 544.2918">subject of a text, in a pre-defined</tspan></text>
<text xml:space="preserve" transform="matrix(.75 0 0 .75 72 619.9883)" font-size="14.666667" font-family="Calibri"><tspan y="14.2369799" x="48 52.730226 59.614549 65.56836 73.29724 80.9975 88.72638 100.16206 105.82921">taxonomy.</tspan></text>
<text xml:space="preserve" transform="matrix(.75 0 0 .75 72 645.4302)" font-size="14.666667" font-family="Calibri"><tspan y="14.2369799" x="24">-</tspan></text>
<text xml:space="preserve" transform="matrix(.75 0 0 .75 72 645.4302)" font-size="14.666667" font-family="Calibri"><tspan y="14.2369799" x="48 53.83867 60.908998 67.29967 72.20894 75.52234 83.222599 90.92285 98.62311 105.91545 110.774448 116.34198 121.072208 128.0926 135.79286 143.49312 146.85662 154.55687 161.62032 165.27722 168.59062 173.4999 181.20015 184.56365 190.2959 193.6093 201.30956 209.00981 216.03022 221.76247 229.05481 232.36821 235.7317 241.46396 244.77736 250.85303 258.5819 266.28218 272.47959 279.7719 284.88157 292.58183 299.87416 307.5744 310.8878 321.36473 324.7282 329.63749 337.33775 340.65116 348.3514 356.05168 363.75193 371.04429 375.9033 381.4708 386.20103 393.22145 400.9217 408.62196 411.98545 419.6857">Text understanding, this phase is concerned with understanding</tspan></text>
<text xml:space="preserve" transform="matrix(.75 0 0 .75 72 645.4302)" font-size="14.666667" font-family="Calibri"><tspan y="14.2369799" x="429.89787 435.63014 443.359 455.06684 462.2804 467.18968 474.88993 478.25343 485.95368 492.85243 496.16584 503.18623 510.88648 518.61538 526.3156 531.22488 534.53829 539.4475 547.14779">something about the</tspan></text>
<text xml:space="preserve" transform="matrix(.75 0 0 .75 72 660.8721)" font-size="14.666667" font-family="Calibri"><tspan y="14.2369799" x="48 54.07567 61.80455 69.36873 74.12044 81.190769 87.581439 92.49071 95.80411 102.82451 110.524768 118.22502 121.53842 133.24625 140.53859 147.55899 155.25925 158.62274 166.323 173.22174 176.53514 184.26403 188.73676 192.05016 199.07056 202.38396 207.13567 214.206 220.59667 225.50594 229.20578 232.51918 239.66124 247.3615 250.72499 256.45726 259.77064 265.8463 272.8667 280.56697 283.88038 287.24388 294.94413 301.14155 304.50505 312.2053 319.90556 327.19789 330.5113 335.24153 342.26194 347.9942 354.5207">context and meaning of a text. This can include tasks</tspan></text>
<text xml:space="preserve" transform="matrix(.75 0 0 .75 72 660.8721)" font-size="14.666667" font-family="Calibri"><tspan y="14.2369799" x="363.56636 371.29524 375.76795">of:</tspan></text>
<text xml:space="preserve" transform="matrix(.75 0 0 .75 72 686.31399)" font-size="14.666667" font-family="Calibri"><tspan y="14.2369799" x="72">-</tspan></text>
<text xml:space="preserve" transform="matrix(.75 0 0 .75 72 686.31399)" font-size="14.666667" font-family="Calibri"><tspan y="14.2369799" x="96 105.460727 112.481128 124.18895 131.4813 139.18155 142.49495 149.65132 157.2155 162.12477 165.48827 170.39754 177.0315 180.3449 188.04496 195.3373 201.41297 209.14185 216.04059 223.74085 227.10434 232.01361 235.3771 243.10599 250.80625 254.11965 258.56376 268.02449 275.18086 283.13874 287.58283 290.89625 301.37318 309.07344 312.43693 318.63435 326.3346 329.648 335.38026 342.6726 349.96498 356.4915 362.22373 365.53715 370.3032 378.03208 381.3455 384.70899 392.43788 398.51353 405.39787 410.14958">Named Entity Recognition (NER) which seeks to locate</tspan></text>
<text xml:space="preserve" transform="matrix(.75 0 0 .75 72 686.31399)" font-size="14.666667" font-family="Calibri"><tspan y="14.2369799" x="420.75526 427.77565 435.4759 443.17616 446.48957 452.68699 456.05049 463.07087 468.8031 474.53535 477.89884 482.44319 489.07716 492.39057 500.09083 507.1112 518.81906 526.1114 533.81167 537.12509 544.4174 551.98159 556.89089 560.2544 565.1637 568.5272 575.8196">and classify named entities</tspan></text>
<text xml:space="preserve" transform="matrix(.75 0 0 .75 72 701.75588)" font-size="14.666667" font-family="Calibri"><tspan y="14.2369799" x="96 99.363498 106.92767 111.69371 119.42259 122.73599 130.43625 135.35253 142.64487 150.34513 157.50855 161.98128 165.34477 173.04503 180.33737 188.03763 191.35103 197.4267 204.31102 209.06273 216.35507 223.15355 230.88243 235.99208 239.35558 246.64792 252.38018 256.03709 259.35047 265.0827 272.78297 278.98039 286.68064 289.99403 297.0144 302.74665 306.06007 313.3379 320.63026 325.48927 331.2215 338.95039 346.65065 350.30757 353.62098 363.325 368.23414 374.86079 381.88117 389.58143 392.94493 398.4909 405.37525 410.28456 413.64805 421.37693">into predefined categories, such as Person, Organization</tspan></text>
<text xml:space="preserve" transform="matrix(.75 0 0 .75 72 701.75588)" font-size="14.666667" font-family="Calibri"><tspan y="14.2369799" x="432.3905 439.4109 447.11116 454.8114 458.12483 463.85707 471.58595 474.89936 482.62825 490.3285">and so on.</tspan></text>
<text xml:space="preserve" transform="matrix(.75 0 0 .75 72 727.19778)" font-size="14.666667" font-family="Calibri"><tspan y="14.2369799" x="72">-</tspan></text>
<text xml:space="preserve" transform="matrix(.75 0 0 .75 72 727.19778)" font-size="14.666667" font-family="Calibri"><tspan y="14.2369799" x="96 103.81476 111.54364 116.459918 123.62334 127.73082 135.02317 139.93944 147.23178 154.93204 161.12946 168.4218 171.7352 176.65148 183.94382 189.67607 197.40496 200.76845 208.4687 213.37798 216.74147 224.47035 232.17061 235.48401 245.96094 253.6612 257.0247 263.2221 270.92237 274.23579 278.7085 282.072 289.77226 297.4725 303.20478 306.5182 313.53858 316.90208 320.26557 323.57899 330.6493 336.997 344.69728 349.61354 356.90589 362.63816 368.3704 371.7339 379.46278 387.16304">Coreference resolution which finds all expressions</tspan></text>
<text xml:space="preserve" transform="matrix(.75 0 0 .75 72 727.19778)" font-size="14.666667" font-family="Calibri"><tspan y="14.2369799" x="396.20866 401.11793 408.81819 415.7025 420.6118 423.92518 428.84144 436.00486 440.11235 447.40467 452.5143 455.8277 460.59376 468.32264 471.63606 476.54533 484.24559 491.5379 494.85133 500.58357 507.60395 519.31179 526.6041 529.91757 537.2099 544.77407 549.68338 553.0469 557.9562 564.59017 567.90359 571.2671 578.96737 582.28079">that refer to the same entity in a</tspan></text>
<text xml:space="preserve" transform="matrix(.75 0 0 .75 72 742.63967)" font-size="14.666667" font-family="Calibri"><tspan y="14.2369799" x="96 100.75171 107.82204 114.21271 119.12198 122.43538 126.879489 130.24298 134.71572 138.02912 142.93839 150.63864 157.93099 161.24439 168.31472 174.66242 182.36267 187.27895 194.57129 200.30355 206.0358 209.39929 217.12818 224.82843 230.56069 233.87409 240.89449 245.81076 253.1031 256.4165 264.11677 268.99006 276.71894 284.4192 292.14808 299.84834 307.54859 313.28083 316.59425 326.94227 334.23463 337.54804 342.27827 349.29866 352.6621 359.3247 362.63813 369.6585 377.35877 385.08766 392.7879">text (if the expressions are pronouns we talk about</tspan></text>
<text xml:space="preserve" transform="matrix(.75 0 0 .75 72 742.63967)" font-size="14.666667" font-family="Calibri"><tspan y="14.2369799" x="401.01057 408.03096 415.7312 422.7516 430.45185 438.1521 445.88099 450.68983 457.7102 461.02363 465.93989 473.23225 478.96449 486.69337 490.05686 497.7571 502.66639 506.02989 513.7588 521.45907 525.90316">anaphora resolution).</tspan></text>
</g>
</g>
</svg>
